<?xml version="1.0" standalone="no"?>
<!DOCTYPE svg PUBLIC "-//W3C//DTD SVG 1.1//EN" "http://www.w3.org/Graphics/SVG/1.1/DTD/svg11.dtd" >
<svg>
<metadata>
Created by FontForge 20090622 at Wed Feb 21 18:07:10 2018
 By deploy user
&#194;&#169; 2012, 2013, 2014, 2015 by Stawix Ruecha &#38; Foundry. All rights reserved.
</metadata>
<defs>
<font id="AmsiPro-Ultra" horiz-adv-x="438" >
  <font-face 
    font-family="AmsiPro-Ultra"
    font-weight="400"
    font-stretch="normal"
    units-per-em="1000"
    panose-1="2 11 10 6 2 2 1 1 1 4"
    ascent="855"
    descent="-145"
    x-height="540"
    cap-height="708"
    bbox="-219.446 -329 1408 1046"
    underline-thickness="60"
    underline-position="-40"
    unicode-range="U+0020-U+FB4E"
  />
<missing-glyph horiz-adv-x="492" 
d="M0 690h492v-690h-492v690zM443 94v503l-168 -252zM49 597v-503l168 251zM246 389l168 252h-335zM246 301l-167 -252h334z" />
    <glyph glyph-name="f_f" unicode="ff" horiz-adv-x="752" 
d="M626 516h74q34 0 34 -34v-78q0 -34 -34 -34h-74v-340q0 -30 -35 -30h-134q-35 0 -35 30v340h-140v-340q0 -30 -35 -30h-134q-35 0 -35 30v340h-32q-34 0 -34 34v78q0 34 34 34h32v42q0 160 177 160q51 0 82 -7q39 -9 39 -35v-58q0 -31 -27 -31q-7 0 -18.5 1t-17.5 1
q-31 0 -31 -38v-35h140v33q0 90 47 129.5t145 39.5q53 0 87 -8q17 -4 25 -11.5t8 -23.5v-70q0 -35 -28 -35q-8 0 -19.5 1t-15.5 1q-26 0 -35.5 -9t-9.5 -31v-16z" />
    <glyph glyph-name="fi" unicode="fi" horiz-adv-x="684" 
d="M630 482v-448q0 -34 -34 -34h-140q-34 0 -34 34v336h-140v-340q0 -30 -35 -30h-134q-35 0 -35 30v340h-32q-34 0 -34 34v78q0 34 34 34h32v42q0 160 177 160q51 0 82 -7q39 -9 39 -35v-58q0 -31 -27 -31q-7 0 -18.5 1t-17.5 1q-31 0 -31 -38v-35h314q34 0 34 -34z
M630 674v-53q0 -34 -34 -34h-140q-34 0 -34 34v53q0 34 34 34h140q34 0 34 -34z" />
    <glyph glyph-name="fl" unicode="fl" horiz-adv-x="682" 
d="M630 654v-620q0 -34 -34 -34h-140q-34 0 -34 34v540q-24 4 -59 4q-45 0 -63 -10.5t-18 -38.5v-13h36q34 0 34 -34v-78q0 -34 -34 -34h-36v-340q0 -30 -35 -30h-134q-35 0 -35 30v340h-32q-34 0 -34 34v78q0 34 34 34h32v10q0 108 66 150t229 42q133 0 223 -26
q18 -6 26 -14t8 -24z" />
    <glyph glyph-name="f_f_i" unicode="ffi" horiz-adv-x="1028" 
d="M974 482v-448q0 -34 -34 -34h-140q-34 0 -34 34v336h-140v-340q0 -30 -35 -30h-134q-35 0 -35 30v340h-140v-340q0 -30 -35 -30h-134q-35 0 -35 30v340h-32q-34 0 -34 34v78q0 34 34 34h32v42q0 160 177 160q51 0 82 -7q39 -9 39 -35v-58q0 -31 -27 -31q-7 0 -18.5 1
t-17.5 1q-31 0 -31 -38v-35h140v42q0 160 177 160q51 0 82 -7q39 -9 39 -35v-58q0 -31 -27 -31q-7 0 -18.5 1t-17.5 1q-31 0 -31 -38v-35h314q34 0 34 -34zM974 674v-53q0 -34 -34 -34h-140q-34 0 -34 34v53q0 34 34 34h140q34 0 34 -34z" />
    <glyph glyph-name="f_f_l" unicode="ffl" horiz-adv-x="1026" 
d="M626 370v-340q0 -30 -35 -30h-134q-35 0 -35 30v340h-140v-340q0 -30 -35 -30h-134q-35 0 -35 30v340h-32q-34 0 -34 34v78q0 34 34 34h32v42q0 160 177 160q51 0 82 -7q39 -9 39 -35v-58q0 -31 -27 -31q-7 0 -18.5 1t-17.5 1q-31 0 -31 -38v-35h140v10q0 108 66 150
t230 42q132 0 222 -26q18 -6 26 -14t8 -24v-620q0 -34 -34 -34h-140q-34 0 -34 34v540q-24 4 -59 4q-45 0 -63 -10.5t-18 -38.5v-13h36q34 0 34 -34v-78q0 -34 -34 -34h-36z" />
    <glyph glyph-name="f_b" unicode="fb" horiz-adv-x="1016" 
d="M628 270q0 -66 18 -95t55 -29t54.5 28.5t17.5 95.5t-17.5 95.5t-54.5 28.5t-55 -29t-18 -95zM630 654v-162q19 28 60.5 44t81.5 16q104 0 158 -70.5t54 -211.5t-54 -211.5t-158 -70.5q-41 0 -85.5 19t-65.5 48l-8 -29q-7 -26 -35 -26h-122q-34 0 -34 34v540q-24 4 -59 4
q-45 0 -63 -10.5t-18 -38.5v-13h36q34 0 34 -34v-78q0 -34 -34 -34h-36v-340q0 -30 -35 -30h-134q-35 0 -35 30v340h-32q-34 0 -34 34v78q0 34 34 34h32v10q0 108 66 150t229 42q133 0 223 -26q18 -6 26 -14t8 -24z" />
    <glyph glyph-name="f_f_b" unicode="ffb" horiz-adv-x="1360" 
d="M972 270q0 -66 18 -95t55 -29t54.5 28.5t17.5 95.5t-17.5 95.5t-54.5 28.5t-55 -29t-18 -95zM974 654v-162q19 28 60.5 44t81.5 16q104 0 158 -70.5t54 -211.5t-54 -211.5t-158 -70.5q-41 0 -85.5 19t-65.5 48l-8 -29q-7 -26 -35 -26h-122q-34 0 -34 34v540q-24 4 -59 4
q-45 0 -63 -10.5t-18 -38.5v-13h36q34 0 34 -34v-78q0 -34 -34 -34h-36v-340q0 -30 -35 -30h-134q-35 0 -35 30v340h-140v-340q0 -30 -35 -30h-134q-35 0 -35 30v340h-32q-34 0 -34 34v78q0 34 34 34h32v42q0 160 177 160q51 0 82 -7q39 -9 39 -35v-58q0 -31 -27 -31
q-7 0 -18.5 1t-17.5 1q-31 0 -31 -38v-35h140v10q0 108 66 150t229 42q133 0 223 -26q18 -6 26 -14t8 -24z" />
    <glyph glyph-name="f_h" unicode="fh" horiz-adv-x="1001" 
d="M630 654v-167q48 65 151 65q91 0 132 -51.5t41 -155.5v-311q0 -34 -34 -34h-140q-34 0 -34 34v271q0 41 -11.5 59t-41.5 18q-63 0 -63 -82v-266q0 -34 -34 -34h-140q-34 0 -34 34v540q-24 4 -59 4q-45 0 -63 -10.5t-18 -38.5v-13h36q34 0 34 -34v-78q0 -34 -34 -34h-36
v-340q0 -30 -35 -30h-134q-35 0 -35 30v340h-32q-34 0 -34 34v78q0 34 34 34h32v10q0 108 66 150t229 42q133 0 223 -26q18 -6 26 -14t8 -24z" />
    <glyph glyph-name="f_f_h" unicode="ffh" horiz-adv-x="1345" 
d="M974 654v-167q48 65 151 65q91 0 132 -51.5t41 -155.5v-311q0 -34 -34 -34h-140q-34 0 -34 34v272q0 40 -11.5 58t-41.5 18q-63 0 -63 -82v-266q0 -34 -34 -34h-140q-34 0 -34 34v540q-24 4 -59 4q-45 0 -63 -10.5t-18 -38.5v-13h36q34 0 34 -34v-78q0 -34 -34 -34h-36
v-340q0 -30 -35 -30h-134q-35 0 -35 30v340h-140v-340q0 -30 -35 -30h-134q-35 0 -35 30v340h-32q-34 0 -34 34v78q0 34 34 34h32v42q0 160 177 160q51 0 82 -7q39 -9 39 -35v-58q0 -31 -27 -31q-7 0 -18.5 1t-17.5 1q-31 0 -31 -38v-35h140v10q0 108 66 150t229 42
q133 0 223 -26q18 -6 26 -14t8 -24z" />
    <glyph glyph-name="f_j" unicode="fj" horiz-adv-x="682" 
d="M630 482v-431q0 -91 -41.5 -131t-134.5 -40q-49 0 -87 9q-17 4 -25 11.5t-8 23.5v82q0 29 28 29q6 0 16 -1.5t15 -1.5q29 0 29 39v299h-140v-340q0 -30 -35 -30h-134q-35 0 -35 30v340h-32q-34 0 -34 34v78q0 34 34 34h32v42q0 160 177 160q51 0 82 -7q39 -9 39 -35v-58
q0 -31 -27 -31q-7 0 -18.5 1t-17.5 1q-31 0 -31 -38v-35h314q34 0 34 -34zM630 674v-53q0 -34 -34 -34h-140q-34 0 -34 34v53q0 34 34 34h140q34 0 34 -34z" />
    <glyph glyph-name="f_f_j" unicode="ffj" horiz-adv-x="1026" 
d="M974 482v-431q0 -91 -41.5 -131t-134.5 -40q-49 0 -87 9q-17 4 -25 11.5t-8 23.5v82q0 29 28 29q5 0 14 -1.5t17 -1.5q29 0 29 39v299h-140v-340q0 -30 -35 -30h-134q-35 0 -35 30v340h-140v-340q0 -30 -35 -30h-134q-35 0 -35 30v340h-32q-34 0 -34 34v78q0 34 34 34h32
v42q0 160 177 160q51 0 82 -7q39 -9 39 -35v-58q0 -31 -27 -31q-7 0 -18.5 1t-17.5 1q-31 0 -31 -38v-35h140v42q0 160 177 160q51 0 82 -7q39 -9 39 -35v-58q0 -31 -27 -31q-7 0 -18.5 1t-17.5 1q-31 0 -31 -38v-35h314q34 0 34 -34zM974 674v-53q0 -34 -34 -34h-140
q-34 0 -34 34v53q0 34 34 34h140q34 0 34 -34z" />
    <glyph glyph-name="f_k" unicode="fk" horiz-adv-x="978" 
d="M630 654v-276l106 134q22 28 53 28h142q19 0 24.5 -13.5t-7.5 -29.5l-171 -205l182 -249q12 -17 7 -30t-22 -13h-146q-34 0 -53 28l-115 166v-160q0 -34 -34 -34h-140q-34 0 -34 34v540q-24 4 -59 4q-45 0 -63 -10.5t-18 -38.5v-13h36q34 0 34 -34v-78q0 -34 -34 -34h-36
v-340q0 -30 -35 -30h-134q-35 0 -35 30v340h-32q-34 0 -34 34v78q0 34 34 34h32v10q0 108 66 150t229 42q133 0 223 -26q18 -6 26 -14t8 -24z" />
    <glyph glyph-name="f_f_k" unicode="ffk" horiz-adv-x="1322" 
d="M766 34v540q-24 4 -59 4q-45 0 -63 -10.5t-18 -38.5v-13h36q34 0 34 -34v-78q0 -34 -34 -34h-36v-340q0 -30 -35 -30h-134q-35 0 -35 30v340h-140v-340q0 -30 -35 -30h-134q-35 0 -35 30v340h-32q-34 0 -34 34v78q0 34 34 34h32v42q0 160 177 160q51 0 82 -7
q39 -9 39 -35v-58q0 -31 -27 -31q-7 0 -18.5 1t-17.5 1q-31 0 -31 -38v-35h140v11q0 107 66 149t229 42q133 0 223 -26q18 -6 26 -14t8 -24v-276l106 134q22 28 53 28h142q19 0 24.5 -13.5t-7.5 -29.5l-171 -205l182 -249q12 -17 7 -30t-22 -13h-146q-34 0 -53 28l-115 166
v-160q0 -34 -34 -34h-140q-34 0 -34 34z" />
    <glyph glyph-name="f_t" unicode="ft" horiz-adv-x="766" 
d="M282 516h142v118q0 30 35 30h130q35 0 35 -30v-118h80q34 0 34 -34v-78q0 -34 -34 -34h-78v-184q0 -25 10.5 -34.5t36.5 -9.5q4 0 16.5 1.5t20.5 1.5q28 0 28 -31v-80q0 -16 -8 -23.5t-25 -11.5q-38 -9 -95 -9q-98 0 -143 39t-45 134v207h-140v-340q0 -30 -35 -30h-134
q-35 0 -35 30v340h-32q-34 0 -34 34v78q0 34 34 34h32v42q0 160 177 160q51 0 82 -7q39 -9 39 -35v-58q0 -31 -27 -31q-7 0 -18.5 1t-17.5 1q-31 0 -31 -38v-35z" />
    <glyph glyph-name="f_f_t" unicode="fft" horiz-adv-x="1110" 
d="M422 516v42q0 160 177 160q51 0 82 -7q39 -9 39 -35v-58q0 -31 -27 -31q-7 0 -18.5 1t-17.5 1q-31 0 -31 -38v-35h142v118q0 30 35 30h130q35 0 35 -30v-118h80q34 0 34 -34v-78q0 -34 -34 -34h-78v-184q0 -25 10.5 -34.5t36.5 -9.5q4 0 16.5 1.5t20.5 1.5q28 0 28 -31
v-80q0 -16 -8 -23.5t-25 -11.5q-38 -9 -95 -9q-98 0 -143 39t-45 134v207h-140v-340q0 -30 -35 -30h-134q-35 0 -35 30v340h-140v-340q0 -30 -35 -30h-134q-35 0 -35 30v340h-32q-34 0 -34 34v78q0 34 34 34h32v42q0 160 177 160q51 0 82 -7q39 -9 39 -35v-58q0 -31 -27 -31
q-7 0 -18.5 1t-17.5 1q-31 0 -31 -38v-35h140z" />
    <glyph glyph-name="t_t" unicode="tt" horiz-adv-x="764" 
d="M702 370h-78v-184q0 -25 10.5 -34.5t36.5 -9.5q4 0 16.5 1.5t20.5 1.5q28 0 28 -31v-80q0 -16 -8 -23.5t-25 -11.5q-38 -9 -95 -9q-98 0 -143 39t-45 134v207h-144v-184q0 -24 10 -34t33 -10q4 0 16 1.5t17 1.5q28 0 28 -31v-80q0 -16 -8 -23.5t-25 -11.5q-38 -9 -91 -9
q-95 0 -139.5 39t-44.5 134v207h-32q-34 0 -34 34v78q0 34 34 34h34v118q0 30 35 30h130q35 0 35 -30v-118h148v118q0 30 35 30h130q35 0 35 -30v-118h80q34 0 34 -34v-78q0 -34 -34 -34z" />
    <glyph glyph-name="t_t_f" unicode="ttf" horiz-adv-x="1108" 
d="M624 370v-184q0 -24 10 -34t33 -10q4 0 16 1.5t17 1.5q28 0 28 -31v-80q0 -16 -8 -23.5t-25 -11.5q-38 -9 -91 -9q-95 0 -139.5 39t-44.5 134v207h-144v-184q0 -24 10 -34t33 -10q4 0 16 1.5t17 1.5q28 0 28 -31v-80q0 -16 -8 -23.5t-25 -11.5q-38 -9 -91 -9
q-95 0 -139.5 39t-44.5 134v207h-32q-34 0 -34 34v78q0 34 34 34h34v118q0 30 35 30h130q35 0 35 -30v-118h148v118q0 30 35 30h130q35 0 35 -30v-118h146v33q0 90 47 129.5t145 39.5q53 0 87 -8q17 -4 25 -11.5t8 -23.5v-70q0 -35 -28 -35q-8 0 -19.5 1t-15.5 1
q-26 0 -35.5 -9t-9.5 -31v-16h74q34 0 34 -34v-78q0 -34 -34 -34h-74v-340q0 -30 -35 -30h-134q-35 0 -35 30v340h-144z" />
    <glyph glyph-name=".notdef" horiz-adv-x="492" 
d="M0 690h492v-690h-492v690zM443 94v503l-168 -252zM49 597v-503l168 251zM246 389l168 252h-335zM246 301l-167 -252h334z" />
    <glyph glyph-name=".null" horiz-adv-x="0" 
 />
    <glyph glyph-name="nonmarkingreturn" horiz-adv-x="333" 
 />
    <glyph glyph-name="space" unicode=" " horiz-adv-x="280" 
 />
    <glyph glyph-name="exclam" unicode="!" horiz-adv-x="338" 
d="M66 34v123q0 33 37 33h132q37 0 37 -33v-123q0 -34 -34 -34h-138q-34 0 -34 34zM217 238h-96q-33 0 -36 31l-38 403q-3 36 35 36h174q38 0 35 -36l-38 -403q-3 -31 -36 -31z" />
    <glyph glyph-name="quotedbl" unicode="&#x22;" 
d="M190 621l-40 -194h-62l-40 194q-8 42 -8 56q0 30 17.5 45.5t61.5 15.5t61.5 -15.5t17.5 -45.5q0 -14 -8 -56zM390 621l-40 -194h-62l-40 194q-8 42 -8 56q0 30 17.5 45.5t61.5 15.5t61.5 -15.5t17.5 -45.5q0 -14 -8 -56z" />
    <glyph glyph-name="numbersign" unicode="#" horiz-adv-x="650" 
d="M590 658l-32 -123h46q34 0 34 -34v-44q0 -34 -34 -34h-76l-36 -138h47q34 0 34 -34v-44q0 -34 -34 -34h-76l-40 -153q-9 -33 -42 -24l-48 12q-34 9 -25 42l32 123h-125l-40 -153q-9 -33 -42 -24l-48 12q-34 9 -25 42l32 123h-46q-34 0 -34 34v44q0 34 34 34h75l36 138
h-46q-34 0 -34 34v44q0 34 34 34h76l40 153q9 33 42 24l48 -12q34 -9 25 -42l-32 -123h125l40 153q9 33 42 24l48 -12q34 -9 25 -42zM280 423l-36 -138h125l36 138h-125z" />
    <glyph glyph-name="dollar" unicode="$" horiz-adv-x="628" 
d="M386 774v-58q104 -12 163 -44q30 -16 19 -45l-34 -88q-13 -32 -46 -21q-66 22 -141 22q-90 0 -90 -36q0 -18 26 -32t85 -34l52 -18t46.5 -18.5t44.5 -23.5t35 -28.5t30 -36.5t17 -45.5t7 -58.5q0 -93 -58 -145.5t-152 -67.5v-62q0 -34 -34 -34h-56q-34 0 -34 34v57
q-129 7 -211 50q-30 15 -19 45l35 93q14 35 46 21q78 -32 152 -32q113 0 113 42q0 18 -27 31t-85 31q-51 15 -85 30.5t-71 42.5t-56 69t-19 98q0 181 223 204v58q0 34 34 34h56q34 0 34 -34z" />
    <glyph glyph-name="percent" unicode="%" horiz-adv-x="1000" 
d="M756 674l-370 -640q-19 -34 -50 -34h-74q-37 0 -18 34l370 640q19 34 50 34h74q37 0 18 -34zM30 503q0 99 52.5 156t141.5 57t141.5 -57t52.5 -156t-52.5 -156t-141.5 -57t-141.5 57t-52.5 156zM267 503q0 52 -10 75t-33 23t-33 -23t-10 -75t10 -75t33 -23t33 23t10 75z
M582 205q0 99 52.5 156t141.5 57t141.5 -57t52.5 -156t-52.5 -156t-141.5 -57t-141.5 57t-52.5 156zM819 205q0 52 -10 75t-33 23t-33 -23t-10 -75t10 -75t33 -23t33 23t10 75z" />
    <glyph glyph-name="ampersand" unicode="&#x26;" horiz-adv-x="750" 
d="M695 324q0 -104 -63 -190l85 -99q10 -11 6 -23t-17 -12h-120q-40 0 -56 18l-19 21q-93 -49 -180 -49q-128 0 -210.5 56t-82.5 168q0 74 41.5 125t113.5 75l-13 16q-55 68 -55 140q0 70 58 110t173 40q87 0 151 -27q33 -14 27 -46l-14 -70q-7 -34 -46 -26q-61 13 -88 13
q-75 0 -75 -34q0 -8 2 -15.5t8.5 -17t9.5 -13t14 -15.5t12 -14l161 -188q13 37 13 70q0 11 -4.5 27.5t-4.5 25.5q0 14 7.5 19t25.5 5h104q19 0 26 -22q10 -30 10 -68zM366 160q15 0 39 4l-117 139q-40 -26 -40 -67q0 -76 118 -76z" />
    <glyph glyph-name="quotesingle" unicode="'" horiz-adv-x="238" 
d="M190 621l-40 -194h-62l-40 194q-8 42 -8 56q0 30 17.5 45.5t61.5 15.5t61.5 -15.5t17.5 -45.5q0 -14 -8 -56z" />
    <glyph glyph-name="parenleft" unicode="(" horiz-adv-x="392" 
d="M56 300q0 119 44 224.5t113 177.5q14 16 36 16h95q17 0 22 -13t-5 -26q-107 -159 -107 -379t107 -379q10 -13 5 -26t-22 -13h-95q-22 0 -36 16q-69 72 -113 177.5t-44 224.5z" />
    <glyph glyph-name="parenright" unicode=")" horiz-adv-x="392" 
d="M336 300q0 -119 -44 -224.5t-113 -177.5q-14 -16 -36 -16h-95q-17 0 -22 13t5 26q107 159 107 379t-107 379q-10 13 -5 26t22 13h95q22 0 36 -16q69 -72 113 -177.5t44 -224.5z" />
    <glyph glyph-name="asterisk" unicode="*" horiz-adv-x="466" 
d="M234 308q-32 0 -44.5 12t-12.5 39q0 19 12.5 54t13.5 48q-10 -7 -34.5 -36t-40.5 -38q-17 -10 -32 -10q-24 0 -43 33q-12 21 -12 36q0 23 30 40q15 9 52.5 16t48.5 12q-11 5 -48.5 12.5t-52.5 16.5q-30 17 -30 40q0 14 12 35q20 34 44 34q14 0 31 -10q16 -9 40 -38
t34 -37q-1 13 -13.5 48t-12.5 54q0 27 12.5 39t44.5 12t44.5 -12t12.5 -39q0 -19 -12.5 -54t-13.5 -48q10 7 34.5 36t40.5 38q17 10 31 10q24 0 43 -33q12 -22 12 -37q0 -22 -29 -39q-15 -9 -52.5 -16t-48.5 -12q11 -5 48.5 -12.5t52.5 -16.5q30 -17 30 -40q0 -14 -12 -35
q-20 -34 -44 -34q-14 0 -31 10q-16 9 -40 38t-34 37q1 -13 14 -48t13 -54q0 -27 -13 -39t-45 -12z" />
    <glyph glyph-name="plus" unicode="+" horiz-adv-x="612" 
d="M528 268h-129v-133q0 -34 -34 -34h-118q-34 0 -34 34v133h-129q-34 0 -34 34v94q0 34 34 34h129v133q0 34 34 34h118q34 0 34 -34v-133h129q34 0 34 -34v-94q0 -34 -34 -34z" />
    <glyph glyph-name="comma" unicode="," horiz-adv-x="278" 
d="M228 6l-78 -132q-10 -17 -27 -17h-44q-13 0 -17.5 9t0.5 22l50 112h-38q-34 0 -34 34v123q0 33 37 33h124q37 0 37 -33v-108q0 -27 -10 -43z" />
    <glyph glyph-name="hyphen" unicode="-" horiz-adv-x="408" 
d="M336 208h-264q-34 0 -34 34v94q0 34 34 34h264q34 0 34 -33v-95q0 -34 -34 -34z" />
    <glyph glyph-name="period" unicode="." horiz-adv-x="278" 
d="M40 34v123q0 33 37 33h124q37 0 37 -33v-123q0 -34 -34 -34h-130q-34 0 -34 34z" />
    <glyph glyph-name="slash" unicode="/" horiz-adv-x="480" 
d="M13 42l262 636q12 30 45 30h120q21 0 28 -12t-1 -30l-262 -636q-12 -30 -45 -30h-120q-21 0 -28 12t1 30z" />
    <glyph glyph-name="zero" unicode="0" horiz-adv-x="686" 
d="M343 720q140 0 221.5 -92t81.5 -274t-81.5 -274t-221.5 -92t-221.5 92t-81.5 273q0 182 81.5 274.5t221.5 92.5zM343 170q44 0 65 44t21 140t-21 140t-65 44t-65 -44t-21 -140t21 -140t65 -44z" />
    <glyph glyph-name="one" unicode="1" horiz-adv-x="516" 
d="M216 36v459l-89 -45q-28 -14 -44 7l-59 82q-17 25 5 40l167 113q23 16 55 16h143q36 0 36 -36v-636q0 -36 -36 -36h-142q-36 0 -36 36z" />
    <glyph glyph-name="two" unicode="2" horiz-adv-x="638" 
d="M237 493q0 -14 2 -27.5t2 -17.5q0 -30 -30 -30h-132q-27 0 -34 31q-5 20 -5 49q0 101 65.5 161.5t201.5 60.5q145 0 213 -62.5t68 -158.5q0 -53 -23.5 -104.5t-63.5 -93.5t-82 -73.5t-89 -57.5h230q36 0 36 -36v-98q0 -36 -36 -36h-484q-36 0 -36 36v82q0 16 6.5 24.5
t21.5 16.5q56 30 104 62t97 74t77.5 89.5t28.5 94.5q0 71 -71 71q-36 0 -51.5 -17t-15.5 -40z" />
    <glyph glyph-name="three" unicode="3" horiz-adv-x="608" 
d="M189 439h78q43 0 61.5 12.5t18.5 41.5q0 59 -88 59q-77 0 -150 -30q-35 -14 -48 20l-33 81q-13 34 20 48q107 48 243 48q48 0 91.5 -9t84 -28.5t64.5 -58t24 -90.5q0 -112 -99 -156q50 -15 82 -56.5t32 -105.5q0 -110 -70.5 -168t-212.5 -58q-139 0 -247 51
q-32 15 -20 48l33 84q14 35 48 20q76 -33 156 -33q59 0 81 15t22 50q0 59 -86 59h-85q-36 0 -36 36v84q0 36 36 36z" />
    <glyph glyph-name="four" unicode="4" horiz-adv-x="686" 
d="M540 0h-141q-36 0 -36 36v96h-301q-36 0 -36 36v94q0 28 14 45l312 383q14 18 41 18h146q36 0 36 -36v-372h59q36 0 36 -36v-96q0 -36 -36 -36h-59v-96q0 -36 -35 -36zM363 504l-168 -204h168v204z" />
    <glyph glyph-name="five" unicode="5" horiz-adv-x="626" 
d="M588 234q0 -245 -304 -245q-130 0 -234 51q-32 15 -20 48l33 84q14 36 48 20q76 -33 160 -33q57 0 82 18t25 57q0 75 -92 75q-36 0 -70 -9.5t-44 -9.5q-5 0 -20 5l-76 21q-24 6 -21 32q6 52 13 168.5t7 150.5q0 41 38 41h400q36 0 36 -36v-98q0 -36 -36 -36h-266
q-2 -46 -9 -97q45 12 101 12q249 0 249 -219z" />
    <glyph glyph-name="six" unicode="6" horiz-adv-x="662" 
d="M484 543q-50 11 -94 11q-79 0 -111.5 -28t-34.5 -87q58 38 143 38q115 0 176 -62.5t61 -169.5q0 -113 -75.5 -185t-199.5 -72q-158 0 -233.5 88.5t-75.5 242.5q0 203 76 302t256 99q84 0 152 -25q34 -13 27 -44l-19 -82q-5 -18 -15.5 -24t-32.5 -2zM347 158q42 0 66.5 25
t24.5 67q0 39 -25 62t-71 23q-96 0 -96 -86q0 -91 101 -91z" />
    <glyph glyph-name="seven" unicode="7" horiz-adv-x="600" 
d="M113 34q15 123 82.5 268.5t146.5 235.5h-276q-36 0 -36 36v98q0 36 36 36h466q36 0 36 -36v-81q0 -10 -3.5 -20t-7 -14.5t-10 -12t-7.5 -9.5q-74 -99 -134.5 -236t-74.5 -265q-2 -19 -9.5 -26.5t-27.5 -7.5h-145q-19 0 -28.5 9t-7.5 25z" />
    <glyph glyph-name="eight" unicode="8" horiz-adv-x="668" 
d="M334 -12q-147 0 -222.5 54t-75.5 152q0 132 133 172q-53 18 -84 61t-31 99q0 97 74 145.5t206 48.5t206 -48.5t74 -145.5q0 -56 -31 -99t-84 -61q133 -40 133 -172q0 -98 -75.5 -152t-222.5 -54zM334 574q-72 0 -72 -60q0 -34 17 -55.5t55 -34.5q38 13 55 34.5t17 55.5
q0 60 -72 60zM334 306q-88 -27 -88 -98q0 -66 88 -66t88 66q0 71 -88 98z" />
    <glyph glyph-name="nine" unicode="9" horiz-adv-x="662" 
d="M178 165q49 -11 94 -11q79 0 111.5 28t34.5 87q-58 -38 -143 -38q-115 0 -176 62.5t-61 169.5q0 113 75.5 185t199.5 72q158 0 233.5 -88.5t75.5 -242.5q0 -203 -76 -302t-256 -99q-84 0 -152 25q-34 13 -27 44l19 82q5 18 15.5 24t32.5 2zM315 550q-42 0 -66.5 -25
t-24.5 -67q0 -39 25 -62t71 -23q96 0 96 86q0 91 -101 91z" />
    <glyph glyph-name="colon" unicode=":" horiz-adv-x="326" 
d="M64 34v123q0 33 37 33h124q37 0 37 -33v-123q0 -34 -34 -34h-130q-34 0 -34 34zM64 384v123q0 33 37 33h124q37 0 37 -33v-123q0 -34 -34 -34h-130q-34 0 -34 34z" />
    <glyph glyph-name="semicolon" unicode=";" horiz-adv-x="326" 
d="M64 384v123q0 33 37 33h124q37 0 37 -33v-123q0 -34 -34 -34h-130q-34 0 -34 34zM252 6l-78 -132q-10 -17 -27 -17h-44q-13 0 -17.5 9t0.5 22l50 112h-38q-34 0 -34 34v123q0 33 37 33h124q37 0 37 -33v-108q0 -27 -10 -43z" />
    <glyph glyph-name="less" unicode="&#x3c;" horiz-adv-x="612" 
d="M53 346q0 20 15 32l347 279q26 22 48 -5l67 -82q21 -27 -5 -48l-222 -177l222 -176q26 -21 5 -48l-67 -82q-22 -27 -48 -5l-347 280q-15 13 -15 32z" />
    <glyph glyph-name="equal" unicode="=" horiz-adv-x="612" 
d="M512 396h-412q-34 0 -34 34v84q0 34 34 34h412q34 0 34 -34v-84q0 -34 -34 -34zM512 150h-412q-34 0 -34 34v84q0 34 34 34h412q34 0 34 -34v-84q0 -34 -34 -34z" />
    <glyph glyph-name="greater" unicode="&#x3e;" horiz-adv-x="612" 
d="M560 347q0 -19 -16 -33l-347 -280q-26 -22 -48 5l-67 82q-21 27 5 48l222 176l-222 177q-26 21 -5 48l67 82q22 27 48 5l347 -279q16 -12 16 -31z" />
    <glyph glyph-name="question" unicode="?" horiz-adv-x="568" 
d="M170 34v123q0 33 37 33h132q37 0 37 -33v-123q0 -34 -34 -34h-138q-34 0 -34 34zM373 277v-8q0 -31 -36 -31h-119q-35 0 -35 33v7q0 25 21.5 53.5t48 51t48 54.5t21.5 64q0 23 -16 35t-57 12q-68 0 -131 -26q-35 -14 -48 20l-34 85q-13 34 20 48q98 44 222 44
q120 0 186 -44t66 -131q0 -47 -16 -85t-39 -62t-46.5 -43.5t-39.5 -38.5t-16 -38z" />
    <glyph glyph-name="at" unicode="@" horiz-adv-x="940" 
d="M525 230l18 110q-22 6 -45 6q-46 0 -69 -35.5t-23 -85.5q0 -69 49 -69q58 0 70 74zM679 -21q19 4 24 -17l7 -32q4 -20 -16 -24q-115 -27 -214 -27q-426 0 -426 344q0 182 123 289t320 107q182 0 287.5 -85.5t105.5 -227.5q0 -126 -63.5 -201t-160.5 -75h-62q-31 0 -44 25
l-17 33q-48 -57 -129 -57q-76 0 -123 43t-47 126q0 57 13 102.5t42 84t81.5 59.5t125.5 21q105 0 179 -37q25 -12 20 -37l-46 -282h14q62 0 94.5 51.5t32.5 144.5q0 111 -76.5 170.5t-227.5 59.5q-161 0 -256.5 -81t-95.5 -234q0 -141 83.5 -202t253.5 -61q100 0 198 20z
" />
    <glyph glyph-name="A" unicode="A" horiz-adv-x="706" 
d="M291 288h121l-57 206h-3zM263 708h180q32 0 43 -32l207 -633q7 -19 -1 -31t-26 -12h-152q-35 0 -44 33l-22 77h-191l-21 -77q-9 -33 -44 -33h-152q-18 0 -26 12t-1 31l207 633q11 32 43 32z" />
    <glyph glyph-name="B" unicode="B" horiz-adv-x="676" 
d="M266 433h73q77 0 77 59q0 31 -16.5 43.5t-58.5 12.5h-75v-115zM357 0h-269q-36 0 -36 36v636q0 36 36 36h258q144 0 212 -43.5t68 -146.5q0 -52 -25.5 -89t-62.5 -52q106 -36 106 -166q0 -211 -287 -211zM266 160h81q45 0 63 14.5t18 48.5q0 33 -19.5 48.5t-64.5 15.5
h-78v-127z" />
    <glyph glyph-name="C" unicode="C" horiz-adv-x="635" 
d="M410 176q50 0 99 20q20 8 31.5 4.5t19.5 -20.5l42 -90q7 -18 3 -27.5t-21 -20.5q-81 -54 -210 -54q-160 0 -250 89.5t-90 276.5q0 188 88 277t247 89q127 0 207 -53q17 -11 21 -20.5t-3 -27.5l-41 -89q-7 -17 -19 -20.5t-32 4.5q-44 18 -96 18q-82 0 -116.5 -40
t-34.5 -138q0 -97 36 -137.5t119 -40.5z" />
    <glyph glyph-name="D" unicode="D" horiz-adv-x="692" 
d="M311 0h-223q-36 0 -36 36v636q0 36 36 36h223q176 0 261.5 -85t85.5 -269t-85.5 -269t-261.5 -85zM301 520h-31v-332h31q73 0 105 35.5t32 130.5t-32 130.5t-105 35.5z" />
    <glyph glyph-name="E" unicode="E" horiz-adv-x="582" 
d="M491 273h-225v-93h246q36 0 36 -36v-108q0 -36 -36 -36h-424q-36 0 -36 36v636q0 36 36 36h418q36 0 36 -36v-108q0 -36 -36 -36h-240v-83h225q35 0 35 -36v-101q0 -35 -35 -35z" />
    <glyph glyph-name="F" unicode="F" horiz-adv-x="568" 
d="M489 249h-221v-213q0 -36 -36 -36h-144q-36 0 -36 36v636q0 36 36 36h414q36 0 36 -36v-108q0 -36 -36 -36h-234v-103h221q35 0 35 -36v-105q0 -35 -35 -35z" />
    <glyph glyph-name="G" unicode="G" horiz-adv-x="700" 
d="M408 437h211q35 0 35 -36v-323q0 -24 -25 -38q-87 -52 -247 -52q-348 0 -348 366t361 366q139 0 221 -55q16 -11 20 -20.5t-2 -27.5l-36 -90q-12 -30 -51 -16q-58 21 -116 21q-96 0 -136 -39t-40 -139q0 -98 38 -138t120 -40q33 0 51 6v98h-56q-35 0 -35 35v86
q0 36 35 36z" />
    <glyph glyph-name="H" unicode="H" horiz-adv-x="700" 
d="M430 36v227h-160v-227q0 -36 -36 -36h-146q-36 0 -36 36v636q0 36 36 36h146q36 0 36 -36v-217h160v217q0 36 36 36h146q36 0 36 -36v-636q0 -36 -36 -36h-146q-36 0 -36 36z" />
    <glyph glyph-name="I" unicode="I" horiz-adv-x="330" 
d="M56 36v636q0 36 36 36h146q36 0 36 -36v-636q0 -36 -36 -36h-146q-36 0 -36 36z" />
    <glyph glyph-name="J" unicode="J" horiz-adv-x="520" 
d="M254 267v405q0 36 36 36h146q36 0 36 -36v-423q0 -259 -260 -259q-107 0 -178 44q-29 17 -18 47l35 95q13 37 46 21q36 -17 73 -17q84 0 84 87z" />
    <glyph glyph-name="K" unicode="K" horiz-adv-x="666" 
d="M270 465l147 210q23 33 53 33h156q18 0 23.5 -14t-6.5 -31l-205 -286l210 -332q11 -17 5 -31t-24 -14h-156q-31 0 -51 33l-152 244v-241q0 -36 -36 -36h-146q-36 0 -36 36v636q0 36 36 36h146q36 0 36 -36v-207z" />
    <glyph glyph-name="L" unicode="L" horiz-adv-x="560" 
d="M270 672v-480h220q36 0 36 -36v-120q0 -36 -36 -36h-402q-36 0 -36 36v636q0 36 36 36h146q36 0 36 -36z" />
    <glyph glyph-name="M" unicode="M" horiz-adv-x="832" 
d="M416 131q-17 0 -26 15l-128 215v-325q0 -36 -36 -36h-138q-36 0 -36 36v636q0 36 36 36h133q29 0 41 -20l154 -265l154 265q12 20 41 20h133q36 0 36 -36v-636q0 -36 -36 -36h-138q-36 0 -36 36v325l-128 -215q-9 -15 -26 -15z" />
    <glyph glyph-name="N" unicode="N" horiz-adv-x="708" 
d="M656 672v-636q0 -36 -36 -36h-139q-31 0 -43 22l-176 320v-306q0 -36 -36 -36h-138q-36 0 -36 36v636q0 36 36 36h139q31 0 43 -22l176 -320v306q0 36 36 36h138q36 0 36 -36z" />
    <glyph glyph-name="O" unicode="O" horiz-adv-x="720" 
d="M360 720q154 0 240 -89.5t86 -276.5t-86 -276.5t-240 -89.5t-240 89.5t-86 276.5t86 276.5t240 89.5zM360 174q53 0 79 42t26 138t-26 138t-79 42t-79 -42t-26 -138t26 -138t79 -42z" />
    <glyph glyph-name="P" unicode="P" horiz-adv-x="672" 
d="M268 368h68q46 0 66 18.5t20 61.5t-20 61.5t-66 18.5h-68v-160zM232 0h-144q-36 0 -36 36v636q0 36 36 36h251q150 0 225.5 -61t75.5 -199t-75.5 -199t-225.5 -61h-71v-152q0 -36 -36 -36z" />
    <glyph glyph-name="Q" unicode="Q" horiz-adv-x="720" 
d="M532 44q22 -2 38 -2q12 0 29 3.5t23 3.5q24 0 24 -26v-89q0 -21 -8.5 -29.5t-31.5 -8.5q-75 0 -154.5 27.5t-136.5 74.5q-134 12 -207.5 100.5t-73.5 259.5q0 185 86 273.5t240 88.5t240 -88.5t86 -273.5q0 -111 -41.5 -190t-112.5 -124zM360 182q53 0 79 41t26 135
q0 93 -26 134.5t-79 41.5t-79 -41.5t-26 -134.5q0 -94 26 -135t79 -41z" />
    <glyph glyph-name="R" unicode="R" horiz-adv-x="678" 
d="M268 380h72q47 0 67.5 18t20.5 56q0 43 -20 58.5t-68 15.5h-72v-148zM88 708h255q151 0 227 -58.5t76 -195.5q0 -151 -128 -211l120 -198q11 -18 5 -31.5t-25 -13.5h-146q-33 0 -50 29l-103 181h-51v-174q0 -36 -36 -36h-144q-36 0 -36 36v636q0 36 36 36z" />
    <glyph glyph-name="S" unicode="S" horiz-adv-x="606" 
d="M578 209q0 -77 -40 -128t-100.5 -71.5t-137.5 -20.5q-151 0 -245 50q-30 15 -19 45l35 93q14 35 46 21q73 -30 142 -30q101 0 101 42q0 18 -23 31t-77 31q-39 13 -65 23.5t-58 30.5t-51 43.5t-32 60t-13 82.5q0 207 273 207q132 0 216 -46q30 -16 19 -45l-34 -88
q-13 -32 -46 -21q-63 21 -132 21q-38 0 -58 -7t-20 -29q0 -18 22.5 -32t76.5 -34l44 -16.5t39 -16t38.5 -19.5l31.5 -22t29 -28t19.5 -33t14.5 -42.5t4 -51.5z" />
    <glyph glyph-name="T" unicode="T" horiz-adv-x="590" 
d="M22 552v120q0 36 36 36h474q36 0 36 -36v-120q0 -36 -36 -36h-128v-480q0 -36 -36 -36h-146q-36 0 -36 36v480h-128q-36 0 -36 36z" />
    <glyph glyph-name="U" unicode="U" horiz-adv-x="690" 
d="M345 -11q-296 0 -296 277v406q0 36 36 36h146q36 0 36 -36v-385q0 -56 18 -81t60 -25t60 25t18 80v386q0 36 36 36h146q36 0 36 -36v-406q0 -277 -296 -277z" />
    <glyph glyph-name="V" unicode="V" horiz-adv-x="696" 
d="M437 0h-178q-32 0 -43 32l-201 633q-6 19 1.5 31t25.5 12h154q36 0 44 -33l73 -290l33 -160h4l33 160l73 290q8 33 44 33h154q18 0 25.5 -12t1.5 -31l-201 -633q-11 -32 -43 -32z" />
    <glyph glyph-name="W" unicode="W" horiz-adv-x="1032" 
d="M454 708h124q37 0 44 -32l54 -240l32 -163h4l31 163l49 239q8 33 44 33h150q38 0 27 -43l-168 -633q-9 -32 -43 -32h-153q-34 0 -43 32l-60 232l-28 126h-4l-28 -126l-60 -232q-9 -32 -43 -32h-153q-34 0 -43 32l-168 633q-11 43 27 43h150q36 0 44 -33l49 -239l31 -163
h4l32 163l54 240q7 32 44 32z" />
    <glyph glyph-name="X" unicode="X" horiz-adv-x="700" 
d="M349 195l-102 -162q-20 -33 -51 -33h-153q-18 0 -24 14t5 31l208 314l-200 304q-11 17 -5 31t24 14h156q31 0 51 -33l93 -152l94 152q21 33 51 33h153q18 0 24 -14t-5 -31l-200 -302l208 -316q11 -17 5 -31t-24 -14h-156q-30 0 -51 33z" />
    <glyph glyph-name="Y" unicode="Y" horiz-adv-x="696" 
d="M457 261v-225q0 -36 -36 -36h-146q-36 0 -36 36v225l-220 402q-9 17 -1.5 31t25.5 14h152q33 0 48 -33l71 -159l32 -87h4l32 87l71 159q15 33 48 33h152q18 0 25.5 -14t-1.5 -31z" />
    <glyph glyph-name="Z" unicode="Z" horiz-adv-x="632" 
d="M42 36v114q0 27 23 55l259 311h-236q-36 0 -36 36v120q0 36 36 36h456q36 0 36 -36v-114q0 -27 -23 -55l-258 -311h253q36 0 36 -36v-120q0 -36 -36 -36h-474q-36 0 -36 36z" />
    <glyph glyph-name="bracketleft" unicode="[" horiz-adv-x="392" 
d="M362 -4v-72q0 -34 -34 -34h-212q-34 0 -34 34v750q0 34 34 34h212q34 0 34 -34v-72q0 -34 -34 -34h-64v-538h64q34 0 34 -34z" />
    <glyph glyph-name="backslash" unicode="\" horiz-adv-x="480" 
d="M205 678l262 -636q8 -18 1 -30t-28 -12h-120q-33 0 -45 30l-262 636q-8 18 -1 30t28 12h120q33 0 45 -30z" />
    <glyph glyph-name="bracketright" unicode="]" horiz-adv-x="392" 
d="M30 -76v72q0 34 34 34h64v538h-64q-34 0 -34 34v72q0 34 34 34h212q34 0 34 -34v-750q0 -34 -34 -34h-212q-34 0 -34 34z" />
    <glyph glyph-name="asciicircum" unicode="^" horiz-adv-x="612" 
d="M248 708h116q33 0 46 -26l154 -295q10 -20 3 -33t-28 -13h-105q-32 0 -45 27l-83 163l-83 -163q-13 -27 -45 -27h-105q-21 0 -28 13t3 33l154 295q13 26 46 26z" />
    <glyph glyph-name="underscore" unicode="_" horiz-adv-x="550" 
d="M502 -132h-454q-34 0 -34 34v34q0 34 34 34h454q34 0 34 -34v-34q0 -34 -34 -34z" />
    <glyph glyph-name="grave" unicode="`" horiz-adv-x="380" 
d="M234 709l32 -87q4 -12 -1.5 -19t-19.5 -7h-77q-25 0 -41 16l-82 84q-6 6 -7.5 14.5t3.5 15t15 6.5h143q27 0 35 -23z" />
    <glyph glyph-name="a" unicode="a" horiz-adv-x="601" 
d="M554 360v-326q0 -34 -34 -34h-116q-28 0 -35 26l-9 29q-52 -63 -166 -63q-74 0 -121 41t-47 122q0 38 10 67t31 48t47 31.5t65.5 19.5t78.5 9.5t94 3.5v15q0 51 -86 51q-61 0 -135 -26q-32 -12 -43 21l-24 74q-10 30 21 43q99 40 215 40q125 0 189.5 -49t64.5 -143z
M352 193v41q-71 -1 -100 -14.5t-29 -49.5q0 -24 14.5 -37.5t40.5 -13.5q74 0 74 74z" />
    <glyph glyph-name="b" unicode="b" horiz-adv-x="644" 
d="M256 271q0 -67 18 -96t55 -29t54.5 28.5t17.5 95.5t-17.5 95.5t-54.5 28.5t-55 -28.5t-18 -94.5zM249 55l-8 -29q-7 -26 -35 -26h-122q-34 0 -34 34v640q0 34 34 34h140q34 0 34 -34v-182q19 28 60.5 44t81.5 16q104 0 158 -70.5t54 -211.5t-54 -211.5t-158 -70.5
q-41 0 -85.5 19t-65.5 48z" />
    <glyph glyph-name="c" unicode="c" horiz-adv-x="532" 
d="M30 270q0 139 77 210.5t212 71.5q47 0 94.5 -11t74.5 -28q30 -19 17 -48l-34 -76q-13 -29 -50 -16q-42 14 -78 14q-102 0 -102 -117t104 -117q43 0 80 16q36 16 50 -16l34 -75q13 -29 -17 -49q-27 -18 -74.5 -29.5t-96.5 -11.5q-136 0 -213.5 71.5t-77.5 210.5z" />
    <glyph glyph-name="d" unicode="d" horiz-adv-x="644" 
d="M388 270q0 66 -18 95t-55 29t-54.5 -28.5t-17.5 -95.5t17.5 -95.5t54.5 -28.5t55 29t18 95zM403 26l-8 29q-21 -29 -65.5 -48t-85.5 -19q-104 0 -158 70.5t-54 211.5t54 211.5t158 70.5q40 0 81.5 -16t60.5 -44v182q0 34 34 34h140q34 0 34 -34v-640q0 -34 -34 -34h-122
q-28 0 -35 26z" />
    <glyph glyph-name="e" unicode="e" horiz-adv-x="600" 
d="M357 128q66 0 131 29q32 13 43 -21l20 -62q9 -27 -21 -43q-84 -43 -193 -43q-148 0 -227.5 72.5t-79.5 209.5q0 134 75 208t203 74q124 0 193 -72t69 -194v-48q0 -34 -34 -34h-301q22 -76 122 -76zM313 412q-39 0 -59.5 -24t-25.5 -76h161v7q0 93 -76 93z" />
    <glyph glyph-name="f" unicode="f" horiz-adv-x="408" 
d="M282 516h74q34 0 34 -34v-78q0 -34 -34 -34h-74v-340q0 -30 -35 -30h-134q-35 0 -35 30v340h-32q-34 0 -34 34v78q0 34 34 34h32v33q0 90 47 129.5t145 39.5q53 0 87 -8q17 -4 25 -11.5t8 -23.5v-70q0 -35 -28 -35q-8 0 -19.5 1t-15.5 1q-26 0 -35.5 -9t-9.5 -31v-16z
" />
    <glyph glyph-name="g" unicode="g" horiz-adv-x="616" 
d="M366 314q0 96 -64 96q-63 0 -63 -96q0 -98 63 -98q64 0 64 98zM568 506v-395q0 -233 -285 -233q-53 0 -111 9t-85 23q-29 14 -21 43l20 74q9 33 43 21q68 -24 133 -24q63 0 88.5 24t25.5 71v23q-42 -60 -135 -60q-95 0 -151 56t-56 176q0 121 54 178.5t145 57.5
q93 0 140 -65l8 29q7 26 35 26h118q34 0 34 -34z" />
    <glyph glyph-name="h" unicode="h" horiz-adv-x="629" 
d="M582 345v-311q0 -34 -34 -34h-140q-34 0 -34 34v271q0 41 -11.5 59t-41.5 18q-63 0 -63 -82v-266q0 -34 -34 -34h-140q-34 0 -34 34v640q0 34 34 34h140q34 0 34 -34v-187q48 65 151 65q91 0 132 -51.5t41 -155.5z" />
    <glyph glyph-name="i" unicode="i" horiz-adv-x="316" 
d="M262 506v-472q0 -34 -34 -34h-140q-34 0 -34 34v472q0 34 34 34h140q34 0 34 -34zM264 674v-53q0 -34 -34 -34h-144q-34 0 -34 34v53q0 34 34 34h144q34 0 34 -34z" />
    <glyph glyph-name="j" unicode="j" horiz-adv-x="340" 
d="M78 71v435q0 34 34 34h140q34 0 34 -34v-454q0 -92 -41.5 -132t-134.5 -40q-49 0 -87 9q-17 4 -25 11.5t-8 23.5v82q0 29 28 29q5 0 14 -1.5t17 -1.5q29 0 29 39zM288 674v-53q0 -34 -34 -34h-144q-34 0 -34 34v53q0 34 34 34h144q34 0 34 -34z" />
    <glyph glyph-name="k" unicode="k" horiz-adv-x="606" 
d="M572 0h-146q-34 0 -53 28l-115 166v-160q0 -34 -34 -34h-140q-34 0 -34 34v640q0 34 34 34h140q34 0 34 -34v-296l106 134q22 28 53 28h142q19 0 24.5 -13.5t-7.5 -29.5l-171 -205l182 -249q12 -17 7 -30t-22 -13z" />
    <glyph glyph-name="l" unicode="l" horiz-adv-x="312" 
d="M260 674v-640q0 -34 -34 -34h-140q-34 0 -34 34v640q0 34 34 34h140q34 0 34 -34z" />
    <glyph glyph-name="m" unicode="m" horiz-adv-x="923" 
d="M564 304v-270q0 -34 -34 -34h-136q-34 0 -34 34v275q0 39 -10 57t-36 18q-30 0 -45 -22t-15 -58v-270q0 -34 -34 -34h-138q-34 0 -34 34v472q0 34 34 34h124q28 0 35 -26l11 -35q58 73 154 73q105 0 143 -77q60 77 166 77q85 0 123 -50t38 -153v-315q0 -34 -34 -34h-138
q-34 0 -34 34v275q0 75 -48 75q-58 0 -58 -80z" />
    <glyph glyph-name="n" unicode="n" horiz-adv-x="627" 
d="M580 346v-312q0 -34 -34 -34h-140q-34 0 -34 34v271q0 41 -11.5 59t-41.5 18q-63 0 -63 -82v-266q0 -34 -34 -34h-140q-34 0 -34 34v472q0 34 34 34h124q28 0 35 -26l11 -35q52 73 155 73q91 0 132 -51.5t41 -154.5z" />
    <glyph glyph-name="o" unicode="o" horiz-adv-x="620" 
d="M310 -12q-130 0 -205 72t-75 210t75 210t205 72t205 -72t75 -210t-75 -210t-205 -72zM310 144q36 0 52.5 30t16.5 96t-16.5 96t-52.5 30t-52.5 -30t-16.5 -96t16.5 -96t52.5 -30z" />
    <glyph glyph-name="p" unicode="p" horiz-adv-x="642" 
d="M254 270q0 -66 18 -95t55 -29t54.5 28.5t17.5 95.5t-17.5 95.5t-54.5 28.5t-55 -29t-18 -95zM239 514l8 -29q21 29 65.5 48t85.5 19q104 0 158 -70.5t54 -211.5t-54 -211.5t-158 -70.5q-40 0 -81.5 16t-60.5 44v-124q0 -34 -34 -34h-140q-34 0 -34 34v582q0 34 34 34h122
q28 0 35 -26z" />
    <glyph glyph-name="q" unicode="q" horiz-adv-x="642" 
d="M388 270q0 66 -18 95t-55 29t-54.5 -28.5t-17.5 -95.5t17.5 -95.5t54.5 -28.5t55 29t18 95zM395 485l8 29q7 26 35 26h122q34 0 34 -34v-582q0 -34 -34 -34h-140q-34 0 -34 34v124q-19 -28 -60.5 -44t-81.5 -16q-104 0 -158 70.5t-54 211.5t54 211.5t158 70.5
q41 0 85.5 -19t65.5 -48z" />
    <glyph glyph-name="r" unicode="r" horiz-adv-x="448" 
d="M82 540h124q27 0 34 -29l12 -52q19 36 58 62.5t87 26.5q18 0 25.5 -7.5t7.5 -24.5v-136q0 -27 -29 -27q-7 0 -20.5 1.5t-23.5 1.5q-49 0 -75 -25t-26 -69v-228q0 -34 -34 -34h-140q-34 0 -34 34v472q0 34 34 34z" />
    <glyph glyph-name="s" unicode="s" horiz-adv-x="500" 
d="M474 154q0 -166 -242 -166q-104 0 -181 30q-30 12 -22 43l19 66q9 32 43 22q54 -16 102 -16q77 0 77 29q0 13 -16 21.5t-56 21.5l-47.5 16t-43 20.5t-42 32t-25 46t-11.5 66.5q0 84 61 125t168 41q102 0 168 -27q30 -12 22 -43l-19 -66q-9 -31 -43 -22q-46 13 -95 13
q-58 0 -58 -29q0 -10 11 -19t24 -14.5t41 -16.5l52.5 -20t43 -22.5t38 -31.5t22 -41.5t9.5 -58.5z" />
    <glyph glyph-name="t" unicode="t" horiz-adv-x="416" 
d="M354 370h-78v-184q0 -25 10.5 -34.5t36.5 -9.5q4 0 16.5 1.5t20.5 1.5q28 0 28 -31v-80q0 -16 -8 -23.5t-25 -11.5q-38 -9 -95 -9q-98 0 -143 39.5t-45 133.5v207h-32q-34 0 -34 34v78q0 34 34 34h34v118q0 30 35 30h130q35 0 35 -30v-118h80q34 0 34 -34v-78
q0 -34 -34 -34z" />
    <glyph glyph-name="u" unicode="u" horiz-adv-x="622" 
d="M46 183v323q0 34 34 34h140q34 0 34 -34v-281q0 -36 10 -53.5t39 -17.5q63 0 63 80v272q0 34 34 34h140q34 0 34 -34v-472q0 -34 -34 -34h-124q-28 0 -35 26l-11 35q-48 -73 -147 -73q-92 0 -134.5 45t-42.5 150z" />
    <glyph glyph-name="v" unicode="v" horiz-adv-x="596" 
d="M374 0h-152q-33 0 -43 27l-168 473q-6 17 1 28.5t25 11.5h142q34 0 41 -31l47 -183l29 -128h4l29 128l47 183q8 31 41 31h142q18 0 25 -11.5t1 -28.5l-168 -473q-10 -27 -43 -27z" />
    <glyph glyph-name="w" unicode="w" horiz-adv-x="888" 
d="M397 540h94q30 0 37 -28l51 -197l21 -107h3l18 107l39 194q6 31 41 31h144q18 0 24.5 -11t1.5 -29l-137 -467q-9 -33 -43 -33h-130q-36 0 -46 34l-44 161l-25 110h-4l-25 -110l-44 -161q-10 -34 -46 -34h-130q-34 0 -43 33l-137 467q-5 18 1.5 29t24.5 11h144
q35 0 41 -31l39 -194l18 -107h3l21 107l51 197q7 28 37 28z" />
    <glyph glyph-name="x" unicode="x" horiz-adv-x="594" 
d="M236 512l63 -103l63 103q16 28 54 28h136q18 0 23 -13t-7 -30l-163 -224l168 -230q12 -17 6.5 -30t-22.5 -13h-142q-38 0 -54 28l-66 109l-68 -109q-16 -28 -54 -28h-136q-18 0 -23 13t7 30l168 230l-163 224q-12 17 -6.5 30t22.5 13h140q38 0 54 -28z" />
    <glyph glyph-name="y" unicode="y" horiz-adv-x="592" 
d="M581 500l-138 -440q-17 -54 -31.5 -84t-40 -54t-62 -33t-94.5 -9q-84 0 -126 11q-17 4 -25 11.5t-8 23.5v80q0 29 28 29q7 0 28 -2.5t38 -2.5q53 0 36 43l-172 427q-7 17 -0.5 28.5t24.5 11.5h144q33 0 42 -31l54 -193l31 -133h4l22 133l38 193q6 31 40 31h140
q18 0 25.5 -11.5t2.5 -28.5z" />
    <glyph glyph-name="z" unicode="z" horiz-adv-x="550" 
d="M510 506v-70q0 -25 -20 -47l-215 -229h207q34 0 34 -34v-92q0 -34 -34 -34h-414q-34 0 -34 34v70q0 24 16 42l219 234h-191q-34 0 -34 34v92q0 34 34 34h398q34 0 34 -34z" />
    <glyph glyph-name="braceleft" unicode="{" horiz-adv-x="392" 
d="M16 255v88q0 34 34 34h13q24 0 35.5 27.5t11.5 98.5q0 125 35.5 165t138.5 40h56q34 0 34 -34v-72q0 -34 -34 -34h-14q-21 0 -27.5 -19.5t-6.5 -71.5q0 -157 -95 -178q95 -21 95 -179q0 -51 6.5 -70.5t27.5 -19.5h14q34 0 34 -34v-72q0 -34 -34 -34h-56q-103 0 -138.5 40
t-35.5 165q0 71 -11.5 98.5t-35.5 27.5h-13q-34 0 -34 34z" />
    <glyph glyph-name="bar" unicode="|" horiz-adv-x="352" 
d="M262 694v-770q0 -34 -34 -34h-104q-34 0 -34 34v770q0 34 34 34h104q34 0 34 -34z" />
    <glyph glyph-name="braceright" unicode="}" horiz-adv-x="392" 
d="M376 343v-88q0 -34 -34 -34h-13q-24 0 -35.5 -27.5t-11.5 -98.5q0 -125 -35.5 -165t-138.5 -40h-56q-34 0 -34 34v72q0 34 34 34h14q21 0 27.5 19.5t6.5 69.5q0 159 95 180q-95 21 -95 179q0 51 -6.5 70.5t-27.5 19.5h-14q-34 0 -34 34v72q0 34 34 34h56q103 0 138.5 -40
t35.5 -165q0 -71 11.5 -98.5t35.5 -27.5h13q34 0 34 -34z" />
    <glyph glyph-name="asciitilde" unicode="~" horiz-adv-x="612" 
d="M169 484q55 0 109 -27l50 -25q30 -15 53 -15q34 0 46 31l5 14q5 14 18 17.5t29 -4.5l63 -33q15 -8 21.5 -19t5.5 -36q-3 -62 -35 -101.5t-91 -39.5q-55 0 -109 27l-50 25q-30 15 -54 15q-33 0 -45 -31l-5 -14q-5 -14 -18 -17.5t-29 4.5l-63 33q-28 15 -27 49
q3 66 35 106.5t91 40.5z" />
    <glyph glyph-name="uni00A0" unicode="&#xa0;" horiz-adv-x="0" 
 />
    <glyph glyph-name="exclamdown" unicode="&#xa1;" horiz-adv-x="338" 
d="M272 506v-123q0 -33 -37 -33h-132q-37 0 -37 33v123q0 34 34 34h138q34 0 34 -34zM121 302h96q33 0 36 -31l38 -403q3 -36 -35 -36h-174q-38 0 -35 36l38 403q3 31 36 31z" />
    <glyph glyph-name="cent" unicode="&#xa2;" horiz-adv-x="560" 
d="M32 270q0 123 63 193t176 85v58q0 34 34 34h56q34 0 34 -34v-58q75 -11 115 -35q30 -19 17 -48l-36 -76q-13 -29 -50 -16q-42 14 -84 14q-114 0 -114 -117t116 -117q49 0 86 16q36 16 50 -16l36 -75q13 -29 -17 -49q-39 -27 -119 -37v-58q0 -34 -34 -34h-56q-34 0 -34 34
v59q-114 15 -176.5 84.5t-62.5 192.5z" />
    <glyph glyph-name="sterling" unicode="&#xa3;" horiz-adv-x="662" 
d="M134 314h-80q-24 0 -24 24v37q0 24 24 24h35q-25 50 -25 104q0 93 68 155t211 62q262 0 262 -205q0 -49 -31 -49h-130q-28 0 -28 23q0 5 1 11.5t1 12.5q0 41 -66 41q-44 0 -61.5 -19.5t-17.5 -55.5q0 -33 15 -80h152q24 0 24 -24v-37q0 -24 -24 -24h-124q7 -30 7 -53
q0 -31 -17 -53.5t-49 -45.5q30 8 60 8q19 0 50 -6t47 -6q50 0 54 49q3 29 40 29h92q19 0 28.5 -9t9.5 -33q0 -101 -34 -151.5t-122 -50.5q-43 0 -107 15.5t-99 15.5q-64 0 -109 -19q-39 -17 -51 1l-69 98q-21 28 7 46q90 56 90 115q0 23 -10 50z" />
    <glyph glyph-name="currency" unicode="&#xa4;" horiz-adv-x="612" 
d="M94 131l33 33q-35 52 -35 120t35 120l-33 33q-17 17 0 34l24 23q18 16 34 0l32 -33q54 35 122 35t122 -35l32 33q16 16 34 0l24 -23q17 -17 0 -34l-33 -33q35 -52 35 -120t-35 -120l33 -33q17 -17 0 -34l-24 -23q-18 -16 -34 0l-32 33q-54 -35 -122 -35t-122 35l-32 -33
q-16 -16 -34 0l-24 23q-17 17 0 34zM389 284q0 39 -22.5 64t-60.5 25t-60.5 -25t-22.5 -64t22.5 -64t60.5 -25t60.5 25t22.5 64z" />
    <glyph glyph-name="yen" unicode="&#xa5;" horiz-adv-x="662" 
d="M440 154v-118q0 -36 -36 -36h-146q-36 0 -36 36v118h-134q-24 0 -24 24v37q0 24 24 24h134v12l-26 51h-108q-24 0 -24 24v37q0 24 24 24h66l-139 276q-9 17 -1.5 31t25.5 14h152q36 0 48 -33l90 -248h4l90 248q12 33 48 33h152q18 0 25.5 -14t-1.5 -31l-139 -276h66
q24 0 24 -24v-37q0 -24 -24 -24h-109l-25 -51v-12h134q24 0 24 -24v-37q0 -24 -24 -24h-134z" />
    <glyph glyph-name="brokenbar" unicode="&#xa6;" horiz-adv-x="352" 
d="M262 694v-270q0 -34 -34 -34h-104q-34 0 -34 34v270q0 34 34 34h104q34 0 34 -34zM262 194v-270q0 -34 -34 -34h-104q-34 0 -34 34v270q0 34 34 34h104q34 0 34 -34z" />
    <glyph glyph-name="section" unicode="&#xa7;" horiz-adv-x="650" 
d="M31 318q0 38 22.5 71t62.5 46q-52 50 -52 121q0 85 64 124.5t192 39.5q131 0 209 -32q30 -12 22 -43l-20 -70q-9 -30 -43 -21q-57 16 -131 16q-89 0 -89 -36q0 -11 7 -20t25.5 -17t30.5 -12l42 -14q125 -40 182 -81.5t57 -116.5q0 -38 -21 -63t-62 -50q57 -42 57 -112
q0 -84 -81 -127t-219 -43q-124 0 -207 34q-30 12 -22 43l20 70q9 31 43 21q56 -18 154 -18q56 0 82 7t26 28q0 19 -22.5 31t-70.5 28q-9 3 -13 4q-134 44 -173 68q-72 44 -72 124zM248 362q-14 -14 -14 -37q0 -27 35 -44.5t126 -46.5q14 14 14 37q0 27 -35 44.5t-126 46.5z
" />
    <glyph glyph-name="dieresis" unicode="&#xa8;" horiz-adv-x="380" 
d="M162 683v-53q0 -34 -34 -34h-100q-34 0 -34 34v53q0 34 34 34h100q34 0 34 -34zM386 683v-53q0 -34 -34 -34h-100q-34 0 -34 34v53q0 34 34 34h100q34 0 34 -34z" />
    <glyph glyph-name="copyright" unicode="&#xa9;" horiz-adv-x="886" 
d="M477 276q30 0 60 12q28 11 38 -12l26 -61q5 -15 2.5 -21.5t-14.5 -14.5q-44 -31 -131 -31q-103 0 -161.5 53.5t-58.5 157.5q0 105 58 158.5t161 53.5q80 0 129 -29q22 -13 12 -36l-26 -61q-10 -21 -38 -12q-30 10 -58 10q-72 0 -72 -84q0 -83 73 -83zM155 354
q0 -124 73.5 -201.5t214.5 -77.5q140 0 214 77.5t74 200.5q0 124 -73.5 202t-214.5 78t-214.5 -77.5t-73.5 -201.5zM60 354q0 101 42.5 182.5t131 132.5t209.5 51t209.5 -51t131 -132.5t42.5 -182.5t-42.5 -182.5t-131 -132.5t-209.5 -51t-209.5 51t-131 132.5t-42.5 182.5z
" />
    <glyph glyph-name="ordfeminine" unicode="&#xaa;" horiz-adv-x="488" 
d="M282 647v29q-51 -1 -73 -11.5t-22 -36.5q0 -38 38 -38q57 0 57 57zM296 514l-6 14q-43 -43 -129 -43q-61 0 -99 32.5t-38 97.5q0 37 12.5 62.5t32.5 41t55 24t70 11t88 3.5v12q0 39 -58 39q-44 0 -111 -23q-31 -10 -40 19l-19 58q-8 26 20 37q75 32 171 32
q203 0 203 -154v-255q0 -30 -31 -30h-89q-22 0 -32 22z" />
    <glyph glyph-name="guillemotleft" unicode="&#xab;" horiz-adv-x="586" 
d="M26 301q0 6 5 15l81 142q13 23 41 23h117q16 0 21.5 -10t-2.5 -24l-85 -147l85 -147q8 -14 2.5 -24t-21.5 -10h-117q-28 0 -41 23l-81 142q-5 9 -5 17zM280 299q0 8 5 17l81 142q13 23 41 23h117q16 0 21.5 -10t-2.5 -24l-85 -147l85 -147q8 -14 2.5 -24t-21.5 -10h-117
q-28 0 -41 23l-81 142q-5 9 -5 15z" />
    <glyph glyph-name="logicalnot" unicode="&#xac;" horiz-adv-x="650" 
d="M584 401v-271q0 -35 -34 -35h-140q-34 0 -34 34v140h-292q-34 0 -34 34v98q0 34 34 34h466q34 0 34 -34z" />
    <glyph glyph-name="uni00AD" unicode="&#xad;" horiz-adv-x="408" 
d="M336 208h-264q-34 0 -34 34v94q0 34 34 34h264q34 0 34 -33v-95q0 -34 -34 -34z" />
    <glyph glyph-name="registered" unicode="&#xae;" horiz-adv-x="480" 
d="M229 553h16q25 0 25 20q0 21 -25 21h-16v-41zM240 720q88 0 138 -51t50 -126t-50 -126t-138 -51t-138 51t-50 126t50 126t138 51zM240 408q70 0 106 37.5t36 97.5t-36 97.5t-106 37.5t-106 -37.5t-36 -97.5t36 -97.5t106 -37.5zM163 461v169q0 14 14 14h69q90 0 90 -71
q0 -40 -37 -58l34 -53q3 -6 1 -10.5t-8 -4.5h-41q-12 0 -18 10l-26 48h-12v-44q0 -14 -14 -14h-38q-14 0 -14 14z" />
    <glyph glyph-name="macron" unicode="&#xaf;" horiz-adv-x="380" 
d="M348 600h-316q-32 0 -32 32v47q0 32 32 32h316q32 0 32 -32v-47q0 -32 -32 -32z" />
    <glyph glyph-name="degree" unicode="&#xb0;" horiz-adv-x="396" 
d="M198 489q31 0 52 20t21 51t-21 51t-52 20t-52 -20t-21 -51t21 -51t52 -20zM198 404q-72 0 -120 43.5t-48 112.5t48 112.5t120 43.5t120 -43.5t48 -112.5t-48 -112.5t-120 -43.5z" />
    <glyph glyph-name="plusminus" unicode="&#xb1;" horiz-adv-x="612" 
d="M528 338h-129v-113q0 -34 -34 -34h-118q-34 0 -34 34v113h-129q-34 0 -34 34v94q0 34 34 34h129v113q0 34 34 34h118q34 0 34 -34v-113h129q34 0 34 -34v-94q0 -34 -34 -34zM528 0h-444q-34 0 -34 34v54q0 34 34 34h444q34 0 34 -34v-54q0 -34 -34 -34z" />
    <glyph glyph-name="two.superior" unicode="&#xb2;" 
d="M168 791q0 -4 0.5 -10.5t0.5 -11.5q0 -23 -27 -23h-73q-26 0 -30 22q-3 15 -3 29q0 59 43.5 96.5t131.5 37.5t132 -38t44 -98q0 -59 -44.5 -109.5t-99.5 -81.5h126q31 0 31 -31v-50q0 -31 -31 -31h-301q-31 0 -31 31v46q0 10 5 15.5t17 12.5q71 40 125.5 89t54.5 97
q0 37 -36 37q-16 0 -25.5 -8.5t-9.5 -20.5z" />
    <glyph glyph-name="three.superior" unicode="&#xb3;" 
d="M205 662h-54q-31 0 -31 31v35q0 31 31 31h50q21 0 29 7t8 24q0 32 -48 32q-46 0 -87 -19q-29 -13 -40 14l-20 51q-9 23 15 34q62 29 155 29q73 0 122 -28.5t49 -89.5q0 -69 -56 -92q64 -27 64 -97q0 -67 -44.5 -103t-127.5 -36q-98 0 -162 31q-26 12 -17 35l20 49
q11 28 41 15q44 -19 97 -19q45 0 45 35q0 31 -39 31z" />
    <glyph glyph-name="acute" unicode="&#xb4;" horiz-adv-x="380" 
d="M114 622l32 87q8 23 35 23h143q16 0 19 -13t-8 -23l-82 -84q-16 -16 -41 -16h-77q-14 0 -19.5 7t-1.5 19z" />
    <glyph glyph-name="mu" unicode="&#xb5;" horiz-adv-x="622" 
d="M576 506v-323q0 -105 -42.5 -150t-134.5 -45q-99 0 -147 73l3 -139q0 -32 -34 -32h-139q-34 0 -34 34v582q0 34 34 34h140q34 0 34 -34v-272q0 -80 63 -80q29 0 39 17.5t10 53.5v281q0 34 34 34h140q34 0 34 -34z" />
    <glyph glyph-name="paragraph" unicode="&#xb6;" horiz-adv-x="582" 
d="M518 612h-32q-27 0 -37.5 -11.5t-10.5 -38.5v-542q0 -72 -26 -104t-102 -32q-54 0 -81 16q-16 9 -16 26v38q0 19 21 19q6 0 20.5 -1.5t22.5 -1.5q37 0 37 54v218h-29q-107 0 -174 57t-67 171t67 171t174 57h233q34 0 34 -34v-28q0 -34 -34 -34z" />
    <glyph glyph-name="periodcentered" unicode="&#xb7;" horiz-adv-x="278" 
d="M40 226v123q0 33 37 33h124q37 0 37 -33v-123q0 -34 -34 -34h-130q-34 0 -34 34z" />
    <glyph glyph-name="cedilla" unicode="&#xb8;" horiz-adv-x="380" 
d="M138 10h58q54 -10 93 -39.5t39 -70.5q0 -42 -31.5 -65.5t-91.5 -23.5q-39 0 -63 8q-18 5 -18 21v43q0 19 21 19h33q42 0 42 31q0 46 -82 77z" />
    <glyph glyph-name="one.superior" unicode="&#xb9;" 
d="M176 782l-51 -23q-25 -11 -38 6l-30 48q-12 19 5 31l105 69q15 11 40 11h86q31 0 31 -31v-370q0 -31 -31 -31h-86q-31 0 -31 31v259z" />
    <glyph glyph-name="ordmasculine" unicode="&#xba;" horiz-adv-x="500" 
d="M250 803q-28 0 -41 -22.5t-13 -72.5t13 -72.5t41 -22.5t41 22.5t13 72.5t-13 72.5t-41 22.5zM250 485q-105 0 -164.5 56.5t-59.5 166.5t59.5 166.5t164.5 56.5t164.5 -56.5t59.5 -166.5t-59.5 -166.5t-164.5 -56.5z" />
    <glyph glyph-name="guillemotright" unicode="&#xbb;" horiz-adv-x="586" 
d="M560 300q0 -7 -5 -16l-81 -142q-13 -23 -41 -23h-117q-16 0 -21.5 10t2.5 24l85 147l-85 147q-8 14 -2.5 24t21.5 10h117q28 0 41 -23l81 -142q5 -9 5 -16zM306 300q0 -7 -5 -16l-81 -142q-13 -23 -41 -23h-117q-16 0 -21.5 10t2.5 24l85 147l-85 147q-8 14 -2.5 24
t21.5 10h117q28 0 41 -23l81 -142q5 -9 5 -16z" />
    <glyph glyph-name="onequarter" unicode="&#xbc;" horiz-adv-x="1020" 
d="M780 674l-370 -640q-19 -34 -50 -34h-74q-37 0 -18 34l370 640q19 34 50 34h74q37 0 18 -34zM176 566l-51 -23q-25 -11 -38 6l-30 48q-12 19 5 31l105 69q15 11 40 11h86q31 0 31 -31v-370q0 -31 -31 -31h-86q-31 0 -31 31v259zM803 294l-87 -102h87v102zM975 80h-26v-50
q0 -31 -31 -31h-84q-31 0 -31 31v50h-172q-31 0 -31 26v59q0 17 11 31l186 220q13 15 34 15h87q31 0 31 -31v-208h26q31 0 31 -31v-50q0 -31 -31 -31z" />
    <glyph glyph-name="onehalf" unicode="&#xbd;" horiz-adv-x="1020" 
d="M750 674l-370 -640q-19 -34 -50 -34h-74q-37 0 -18 34l370 640q19 34 50 34h74q37 0 18 -34zM176 567l-51 -23q-25 -11 -38 6l-30 48q-12 19 5 31l105 69q15 11 40 11h86q31 0 31 -31v-370q0 -31 -31 -31h-86q-31 0 -31 31v259zM760 298q0 12 9.5 20.5t25.5 8.5
q36 0 36 -37q0 -48 -54.5 -97t-125.5 -89q-8 -5 -12 -8t-7 -8t-3 -12v-46q0 -31 31 -31h301q31 0 31 31v50q0 31 -31 31h-126q55 31 99.5 81.5t44.5 109.5q0 60 -44 98t-132 38t-131.5 -37.5t-43.5 -96.5q0 -14 3 -29q4 -22 30 -22h73q27 0 27 23q0 5 -0.5 11.5t-0.5 10.5z
" />
    <glyph glyph-name="threequarters" unicode="&#xbe;" horiz-adv-x="1020" 
d="M793 674l-370 -640q-19 -34 -50 -34h-74q-37 0 -18 34l370 640q19 34 50 34h74q37 0 18 -34zM803 294l-87 -102h87v102zM975 80h-26v-50q0 -31 -31 -31h-84q-31 0 -31 31v50h-172q-31 0 -31 26v59q0 17 11 31l186 220q13 15 34 15h87q31 0 31 -31v-208h26q31 0 31 -31
v-50q0 -31 -31 -31zM205 446h-54q-31 0 -31 31v35q0 31 31 31h50q21 0 29 7t8 24q0 32 -48 32q-46 0 -87 -19q-29 -13 -40 14l-20 51q-9 23 15 34q62 29 155 29q73 0 122 -28.5t49 -89.5q0 -69 -56 -92q64 -27 64 -97q0 -67 -44.5 -103t-127.5 -36q-98 0 -162 31
q-26 12 -17 35l20 49q11 28 41 15q44 -19 97 -19q45 0 45 35q0 31 -39 31z" />
    <glyph glyph-name="questiondown" unicode="&#xbf;" horiz-adv-x="530" 
d="M392 506v-124q0 -32 -37 -32h-132q-37 0 -37 33v123q0 34 34 34h138q34 0 34 -34zM189 269v-8q0 -18 -16 -37t-39.5 -38t-46.5 -43t-39 -62t-16 -85q0 -87 66 -131t186 -44q124 0 222 44q33 14 20 48l-34 85q-14 34 -48 20q-63 -26 -131 -26q-41 0 -57 12t-16 35
q0 32 21.5 64t48 54.5t48 50.5t21.5 53v8q0 33 -35 33h-119q-36 0 -36 -33z" />
    <glyph glyph-name="Agrave" unicode="&#xc0;" horiz-adv-x="706" 
d="M291 288h121l-57 206h-3zM263 708h180q32 0 43 -32l207 -633q7 -19 -1 -31t-26 -12h-152q-35 0 -44 33l-22 77h-191l-21 -77q-9 -33 -44 -33h-152q-18 0 -26 12t-1 31l207 633q11 32 43 32zM386 872l32 -88q4 -12 -1.5 -19t-19.5 -7h-77q-26 0 -42 16l-83 85
q-6 6 -7.5 15t3.5 15.5t15 6.5h144q26 0 36 -24z" />
    <glyph glyph-name="Aacute" unicode="&#xc1;" horiz-adv-x="706" 
d="M291 288h121l-57 206h-3zM263 708h180q32 0 43 -32l207 -633q7 -19 -1 -31t-26 -12h-152q-35 0 -44 33l-22 77h-191l-21 -77q-9 -33 -44 -33h-152q-18 0 -26 12t-1 31l207 633q11 32 43 32zM288 784l32 88q10 24 36 24h144q16 0 19 -13.5t-8 -23.5l-83 -85
q-16 -16 -42 -16h-77q-14 0 -19.5 7t-1.5 19z" />
    <glyph glyph-name="Acircumflex" unicode="&#xc2;" horiz-adv-x="706" 
d="M291 288h121l-57 206h-3zM263 708h180q32 0 43 -32l207 -633q7 -19 -1 -31t-26 -12h-152q-35 0 -44 33l-22 77h-191l-21 -77q-9 -33 -44 -33h-152q-18 0 -26 12t-1 31l207 633q11 32 43 32zM422 773l-69 54l-69 -54q-19 -15 -35 -15h-56q-15 0 -19.5 10.5t4.5 20.5
l92 106q18 21 47 21h72q29 0 47 -21l92 -106q9 -10 4.5 -20.5t-19.5 -10.5h-56q-16 0 -35 15z" />
    <glyph glyph-name="Atilde" unicode="&#xc3;" horiz-adv-x="706" 
d="M291 288h121l-57 206h-3zM263 708h180q32 0 43 -32l207 -633q7 -19 -1 -31t-26 -12h-152q-35 0 -44 33l-22 77h-191l-21 -77q-9 -33 -44 -33h-152q-18 0 -26 12t-1 31l207 633q11 32 43 32zM554 852q0 -47 -24 -72t-68 -25t-81 14l-54 21q-24 10 -46 10t-25 -15l-1 -6
q-4 -21 -29 -21h-42q-17 0 -24.5 8.5t-7.5 31.5q0 48 25 75.5t70 27.5q41 0 78 -14l54 -21q25 -10 45 -10q23 0 26 15l1 6q4 21 29 21h42q32 0 32 -46z" />
    <glyph glyph-name="Adieresis" unicode="&#xc4;" horiz-adv-x="706" 
d="M291 288h121l-57 206h-3zM263 708h180q32 0 43 -32l207 -633q7 -19 -1 -31t-26 -12h-152q-35 0 -44 33l-22 77h-191l-21 -77q-9 -33 -44 -33h-152q-18 0 -26 12t-1 31l207 633q11 32 43 32zM325 845v-53q0 -34 -34 -34h-102q-34 0 -34 34v53q0 34 34 34h102q34 0 34 -34z
M551 845v-53q0 -34 -34 -34h-102q-34 0 -34 34v53q0 34 34 34h102q34 0 34 -34z" />
    <glyph glyph-name="Aring" unicode="&#xc5;" horiz-adv-x="706" 
d="M222 759q0 54 37.5 87.5t93.5 33.5t93.5 -33.5t37.5 -87.5q0 -33 -14 -58q10 -9 16 -25l207 -633q7 -19 -1 -31t-26 -12h-152q-35 0 -44 33l-22 77h-191l-21 -77q-9 -33 -44 -33h-152q-18 0 -26 12t-1 31l207 633q6 18 16 25q-14 25 -14 58zM291 288h121l-57 206h-3z
M300 759q0 -21 13.5 -35t34.5 -16h9q21 2 35 16t14 35q0 22 -15.5 36.5t-37.5 14.5t-37.5 -14.5t-15.5 -36.5z" />
    <glyph glyph-name="AE" unicode="&#xc6;" horiz-adv-x="916" 
d="M825 273h-205v-93h226q36 0 36 -36v-108q0 -36 -36 -36h-404q-36 0 -36 36v74h-156l-23 -77q-11 -33 -45 -33h-152q-18 0 -25.5 12t-0.5 31l228 633q12 32 44 32h564q36 0 36 -36v-108q0 -36 -36 -36h-220v-83h205q35 0 35 -36v-101q0 -35 -35 -35zM290 288h116v240h-36z
" />
    <glyph glyph-name="Ccedilla" unicode="&#xc7;" horiz-adv-x="635" 
d="M410 176q50 0 99 20q20 8 31.5 4.5t19.5 -20.5l42 -90q7 -18 3 -27.5t-21 -20.5q-78 -51 -201 -54q71 -35 71 -93q0 -44 -33 -68.5t-96 -24.5q-41 0 -66 8q-19 6 -19 22v45q0 20 22 20h35q22 0 33 9.5t11 23.5q0 36 -53 66q-254 44 -254 358q0 188 88 277t247 89
q127 0 207 -53q17 -11 21 -20.5t-3 -27.5l-41 -89q-7 -17 -19 -20.5t-32 4.5q-44 18 -96 18q-82 0 -116.5 -40t-34.5 -138q0 -97 36 -137.5t119 -40.5z" />
    <glyph glyph-name="Egrave" unicode="&#xc8;" horiz-adv-x="582" 
d="M491 273h-225v-93h246q36 0 36 -36v-108q0 -36 -36 -36h-424q-36 0 -36 36v636q0 36 36 36h418q36 0 36 -36v-108q0 -36 -36 -36h-240v-83h225q35 0 35 -36v-101q0 -35 -35 -35zM344 872l32 -88q4 -12 -1.5 -19t-19.5 -7h-77q-26 0 -42 16l-83 85q-6 6 -7.5 15t3.5 15.5
t15 6.5h144q26 0 36 -24z" />
    <glyph glyph-name="Eacute" unicode="&#xc9;" horiz-adv-x="582" 
d="M491 273h-225v-93h246q36 0 36 -36v-108q0 -36 -36 -36h-424q-36 0 -36 36v636q0 36 36 36h418q36 0 36 -36v-108q0 -36 -36 -36h-240v-83h225q35 0 35 -36v-101q0 -35 -35 -35zM226 784l32 88q10 24 36 24h144q16 0 19 -13.5t-8 -23.5l-83 -85q-16 -16 -42 -16h-77
q-14 0 -19.5 7t-1.5 19z" />
    <glyph glyph-name="Ecircumflex" unicode="&#xca;" horiz-adv-x="582" 
d="M491 273h-225v-93h246q36 0 36 -36v-108q0 -36 -36 -36h-424q-36 0 -36 36v636q0 36 36 36h418q36 0 36 -36v-108q0 -36 -36 -36h-240v-83h225q35 0 35 -36v-101q0 -35 -35 -35zM370 773l-69 54l-69 -54q-19 -15 -35 -15h-56q-15 0 -19.5 10.5t4.5 20.5l92 106
q18 21 47 21h72q29 0 47 -21l92 -106q9 -10 4.5 -20.5t-19.5 -10.5h-56q-16 0 -35 15z" />
    <glyph glyph-name="Edieresis" unicode="&#xcb;" horiz-adv-x="582" 
d="M491 273h-225v-93h246q36 0 36 -36v-108q0 -36 -36 -36h-424q-36 0 -36 36v636q0 36 36 36h418q36 0 36 -36v-108q0 -36 -36 -36h-240v-83h225q35 0 35 -36v-101q0 -35 -35 -35zM273 845v-53q0 -34 -34 -34h-102q-34 0 -34 34v53q0 34 34 34h102q34 0 34 -34zM499 845
v-53q0 -34 -34 -34h-102q-34 0 -34 34v53q0 34 34 34h102q34 0 34 -34z" />
    <glyph glyph-name="Igrave" unicode="&#xcc;" horiz-adv-x="330" 
d="M56 36v636q0 36 36 36h146q36 0 36 -36v-636q0 -36 -36 -36h-146q-36 0 -36 36zM208 872l32 -88q4 -12 -1.5 -19t-19.5 -7h-77q-26 0 -42 16l-83 85q-6 6 -7.5 15t3.5 15.5t15 6.5h144q26 0 36 -24z" />
    <glyph glyph-name="Iacute" unicode="&#xcd;" horiz-adv-x="330" 
d="M56 36v636q0 36 36 36h146q36 0 36 -36v-636q0 -36 -36 -36h-146q-36 0 -36 36zM100 784l32 88q10 24 36 24h144q16 0 19 -13.5t-8 -23.5l-83 -85q-16 -16 -42 -16h-77q-14 0 -19.5 7t-1.5 19z" />
    <glyph glyph-name="Icircumflex" unicode="&#xce;" horiz-adv-x="330" 
d="M56 36v636q0 36 36 36h146q36 0 36 -36v-636q0 -36 -36 -36h-146q-36 0 -36 36zM234 773l-69 54l-69 -54q-19 -15 -35 -15h-56q-15 0 -19.5 10.5t4.5 20.5l92 106q18 21 47 21h72q29 0 47 -21l92 -106q9 -10 4.5 -20.5t-19.5 -10.5h-56q-16 0 -35 15z" />
    <glyph glyph-name="Idieresis" unicode="&#xcf;" horiz-adv-x="330" 
d="M56 36v636q0 36 36 36h146q36 0 36 -36v-636q0 -36 -36 -36h-146q-36 0 -36 36zM137 845v-53q0 -34 -34 -34h-102q-34 0 -34 34v53q0 34 34 34h102q34 0 34 -34zM363 845v-53q0 -34 -34 -34h-102q-34 0 -34 34v53q0 34 34 34h102q34 0 34 -34z" />
    <glyph glyph-name="Eth" unicode="&#xd0;" horiz-adv-x="694" 
d="M313 0h-223q-36 0 -36 36v268h-28q-24 0 -24 24v53q0 24 24 24h28v267q0 36 36 36h223q176 0 261.5 -85t85.5 -269t-85.5 -269t-261.5 -85zM350 304h-78v-116h31q73 0 105 35.5t32 130.5t-32 130.5t-105 35.5h-31v-115h78q24 0 24 -24v-53q0 -24 -24 -24z" />
    <glyph glyph-name="Ntilde" unicode="&#xd1;" horiz-adv-x="708" 
d="M656 672v-636q0 -36 -36 -36h-139q-31 0 -43 22l-176 320v-306q0 -36 -36 -36h-138q-36 0 -36 36v636q0 36 36 36h139q31 0 43 -22l176 -320v306q0 36 36 36h138q36 0 36 -36zM555 852q0 -47 -24 -72t-68 -25t-81 14l-54 21q-24 10 -46 10t-25 -15l-1 -6q-4 -21 -29 -21
h-42q-17 0 -24.5 8.5t-7.5 31.5q0 48 25 75.5t70 27.5q41 0 78 -14l54 -21q25 -10 45 -10q23 0 26 15l1 6q4 21 29 21h42q32 0 32 -46z" />
    <glyph glyph-name="Ograve" unicode="&#xd2;" horiz-adv-x="720" 
d="M360 720q154 0 240 -89.5t86 -276.5t-86 -276.5t-240 -89.5t-240 89.5t-86 276.5t86 276.5t240 89.5zM360 174q53 0 79 42t26 138t-26 138t-79 42t-79 -42t-26 -138t26 -138t79 -42zM393 872l32 -88q4 -12 -1.5 -19t-19.5 -7h-77q-26 0 -42 16l-83 85q-6 6 -7.5 15
t3.5 15.5t15 6.5h144q26 0 36 -24z" />
    <glyph glyph-name="Oacute" unicode="&#xd3;" horiz-adv-x="720" 
d="M360 720q154 0 240 -89.5t86 -276.5t-86 -276.5t-240 -89.5t-240 89.5t-86 276.5t86 276.5t240 89.5zM360 174q53 0 79 42t26 138t-26 138t-79 42t-79 -42t-26 -138t26 -138t79 -42zM295 784l32 88q10 24 36 24h144q16 0 19 -13.5t-8 -23.5l-83 -85q-16 -16 -42 -16h-77
q-14 0 -19.5 7t-1.5 19z" />
    <glyph glyph-name="Ocircumflex" unicode="&#xd4;" horiz-adv-x="720" 
d="M360 720q154 0 240 -89.5t86 -276.5t-86 -276.5t-240 -89.5t-240 89.5t-86 276.5t86 276.5t240 89.5zM360 174q53 0 79 42t26 138t-26 138t-79 42t-79 -42t-26 -138t26 -138t79 -42zM429 773l-69 54l-69 -54q-19 -15 -35 -15h-56q-15 0 -19.5 10.5t4.5 20.5l92 106
q18 21 47 21h72q29 0 47 -21l92 -106q9 -10 4.5 -20.5t-19.5 -10.5h-56q-16 0 -35 15z" />
    <glyph glyph-name="Otilde" unicode="&#xd5;" horiz-adv-x="720" 
d="M360 720q154 0 240 -89.5t86 -276.5t-86 -276.5t-240 -89.5t-240 89.5t-86 276.5t86 276.5t240 89.5zM360 174q53 0 79 42t26 138t-26 138t-79 42t-79 -42t-26 -138t26 -138t79 -42zM561 852q0 -47 -24 -72t-68 -25t-81 14l-54 21q-24 10 -46 10t-25 -15l-1 -6
q-4 -21 -29 -21h-42q-17 0 -24.5 8.5t-7.5 31.5q0 48 25 75.5t70 27.5q41 0 78 -14l54 -21q25 -10 45 -10q23 0 26 15l1 6q4 21 29 21h42q32 0 32 -46z" />
    <glyph glyph-name="Odieresis" unicode="&#xd6;" horiz-adv-x="720" 
d="M360 720q154 0 240 -89.5t86 -276.5t-86 -276.5t-240 -89.5t-240 89.5t-86 276.5t86 276.5t240 89.5zM360 174q53 0 79 42t26 138t-26 138t-79 42t-79 -42t-26 -138t26 -138t79 -42zM332 845v-53q0 -34 -34 -34h-102q-34 0 -34 34v53q0 34 34 34h102q34 0 34 -34z
M558 845v-53q0 -34 -34 -34h-102q-34 0 -34 34v53q0 34 34 34h102q34 0 34 -34z" />
    <glyph glyph-name="multiply" unicode="&#xd7;" horiz-adv-x="612" 
d="M416 114l-110 110l-110 -110q-24 -24 -48 0l-77 77q-24 24 0 48l110 110l-110 110q-24 24 0 48l77 77q24 24 48 0l110 -110l110 110q24 24 48 0l77 -77q24 -24 0 -48l-110 -110l110 -110q24 -24 0 -48l-77 -77q-24 -24 -48 0z" />
    <glyph glyph-name="Oslash" unicode="&#xd8;" horiz-adv-x="724" 
d="M362 720q98 0 170 -39l18 23q20 26 48 7l35 -24q27 -20 7 -47l-23 -32q71 -93 71 -254q0 -187 -86 -276.5t-240 -89.5q-100 0 -172 39l-18 -23q-21 -26 -48 -7l-35 24q-27 19 -7 47l23 33q-69 93 -69 253q0 187 86 276.5t240 89.5zM362 174q105 0 105 180q0 33 -2 50
l-158 -215q22 -15 55 -15zM257 354q0 -17 2 -49l157 214q-22 15 -54 15q-105 0 -105 -180z" />
    <glyph glyph-name="Ugrave" unicode="&#xd9;" horiz-adv-x="690" 
d="M345 -11q-296 0 -296 277v406q0 36 36 36h146q36 0 36 -36v-385q0 -56 18 -81t60 -25t60 25t18 80v386q0 36 36 36h146q36 0 36 -36v-406q0 -277 -296 -277zM388 872l32 -88q4 -12 -1.5 -19t-19.5 -7h-77q-26 0 -42 16l-83 85q-6 6 -7.5 15t3.5 15.5t15 6.5h144
q26 0 36 -24z" />
    <glyph glyph-name="Uacute" unicode="&#xda;" horiz-adv-x="690" 
d="M345 -11q-296 0 -296 277v406q0 36 36 36h146q36 0 36 -36v-385q0 -56 18 -81t60 -25t60 25t18 80v386q0 36 36 36h146q36 0 36 -36v-406q0 -277 -296 -277zM270 784l32 88q10 24 36 24h144q16 0 19 -13.5t-8 -23.5l-83 -85q-16 -16 -42 -16h-77q-14 0 -19.5 7t-1.5 19z
" />
    <glyph glyph-name="Ucircumflex" unicode="&#xdb;" horiz-adv-x="690" 
d="M345 -11q-296 0 -296 277v406q0 36 36 36h146q36 0 36 -36v-385q0 -56 18 -81t60 -25t60 25t18 80v386q0 36 36 36h146q36 0 36 -36v-406q0 -277 -296 -277zM414 773l-69 54l-69 -54q-19 -15 -35 -15h-56q-15 0 -19.5 10.5t4.5 20.5l92 106q18 21 47 21h72q29 0 47 -21
l92 -106q9 -10 4.5 -20.5t-19.5 -10.5h-56q-16 0 -35 15z" />
    <glyph glyph-name="Udieresis" unicode="&#xdc;" horiz-adv-x="690" 
d="M345 -11q-296 0 -296 277v406q0 36 36 36h146q36 0 36 -36v-385q0 -56 18 -81t60 -25t60 25t18 80v386q0 36 36 36h146q36 0 36 -36v-406q0 -277 -296 -277zM317 845v-53q0 -34 -34 -34h-102q-34 0 -34 34v53q0 34 34 34h102q34 0 34 -34zM543 845v-53q0 -34 -34 -34
h-102q-34 0 -34 34v53q0 34 34 34h102q34 0 34 -34z" />
    <glyph glyph-name="Yacute" unicode="&#xdd;" horiz-adv-x="696" 
d="M457 261v-225q0 -36 -36 -36h-146q-36 0 -36 36v225l-220 402q-9 17 -1.5 31t25.5 14h152q33 0 48 -33l71 -159l32 -87h4l32 87l71 159q15 33 48 33h152q18 0 25.5 -14t-1.5 -31zM283 784l32 88q10 24 36 24h144q16 0 19 -13.5t-8 -23.5l-83 -85q-16 -16 -42 -16h-77
q-14 0 -19.5 7t-1.5 19z" />
    <glyph glyph-name="Thorn" unicode="&#xde;" horiz-adv-x="674" 
d="M232 0h-144q-36 0 -36 36v636q0 36 36 36h144q36 0 36 -36v-46h75q150 0 223.5 -58t73.5 -196t-73.5 -196t-223.5 -58h-75v-82q0 -36 -36 -36zM268 294h72q46 0 66 17.5t20 60.5t-20 60.5t-66 17.5h-72v-156z" />
    <glyph glyph-name="germandbls" unicode="&#xdf;" horiz-adv-x="680" 
d="M323 574q-48 0 -62.5 -25t-14.5 -77v-442q0 -30 -35 -30h-126q-35 0 -35 30v458q0 121 73 176.5t220 55.5q117 0 188 -44t71 -127q0 -35 -14 -64t-31 -44t-31 -30.5t-14 -27.5q0 -10 14 -21.5t33.5 -26t39 -34.5t33.5 -54.5t14 -78.5q0 -180 -204 -180q-133 0 -133 39v76
q0 16 7.5 23t25.5 7q56 0 78 18t22 54q0 22 -20 45.5t-44 40.5t-44 41.5t-20 48.5q0 27 42 69t42 63q0 27 -18 44t-57 17z" />
    <glyph glyph-name="agrave" unicode="&#xe0;" horiz-adv-x="601" 
d="M554 360v-326q0 -34 -34 -34h-116q-28 0 -35 26l-9 29q-52 -63 -166 -63q-74 0 -121 41t-47 122q0 38 10 67t31 48t47 31.5t65.5 19.5t78.5 9.5t94 3.5v15q0 51 -86 51q-61 0 -135 -26q-32 -12 -43 21l-24 74q-10 30 21 43q99 40 215 40q125 0 189.5 -49t64.5 -143z
M352 193v41q-71 -1 -100 -14.5t-29 -49.5q0 -24 14.5 -37.5t40.5 -13.5q74 0 74 74zM343 709l32 -87q4 -12 -1.5 -19t-19.5 -7h-77q-25 0 -41 16l-82 84q-6 6 -7.5 14.5t3.5 15t15 6.5h143q27 0 35 -23z" />
    <glyph glyph-name="aacute" unicode="&#xe1;" horiz-adv-x="601" 
d="M554 360v-326q0 -34 -34 -34h-116q-28 0 -35 26l-9 29q-52 -63 -166 -63q-74 0 -121 41t-47 122q0 38 10 67t31 48t47 31.5t65.5 19.5t78.5 9.5t94 3.5v15q0 51 -86 51q-61 0 -135 -26q-32 -12 -43 21l-24 74q-10 30 21 43q99 40 215 40q125 0 189.5 -49t64.5 -143z
M352 193v41q-71 -1 -100 -14.5t-29 -49.5q0 -24 14.5 -37.5t40.5 -13.5q74 0 74 74zM226 622l32 87q8 23 35 23h143q16 0 19 -13t-8 -23l-82 -84q-16 -16 -41 -16h-77q-14 0 -19.5 7t-1.5 19z" />
    <glyph glyph-name="acircumflex" unicode="&#xe2;" horiz-adv-x="601" 
d="M554 360v-326q0 -34 -34 -34h-116q-28 0 -35 26l-9 29q-52 -63 -166 -63q-74 0 -121 41t-47 122q0 38 10 67t31 48t47 31.5t65.5 19.5t78.5 9.5t94 3.5v15q0 51 -86 51q-61 0 -135 -26q-32 -12 -43 21l-24 74q-10 30 21 43q99 40 215 40q125 0 189.5 -49t64.5 -143z
M352 193v41q-71 -1 -100 -14.5t-29 -49.5q0 -24 14.5 -37.5t40.5 -13.5q74 0 74 74zM365 611l-65 54l-65 -54q-17 -15 -35 -15h-56q-15 0 -19.5 10.5t4.5 20.5l88 106q17 21 47 21h72q30 0 47 -21l88 -106q9 -10 4.5 -20.5t-19.5 -10.5h-56q-18 0 -35 15z" />
    <glyph glyph-name="atilde" unicode="&#xe3;" horiz-adv-x="601" 
d="M554 360v-326q0 -34 -34 -34h-116q-28 0 -35 26l-9 29q-52 -63 -166 -63q-74 0 -121 41t-47 122q0 38 10 67t31 48t47 31.5t65.5 19.5t78.5 9.5t94 3.5v15q0 51 -86 51q-61 0 -135 -26q-32 -12 -43 21l-24 74q-10 30 21 43q99 40 215 40q125 0 189.5 -49t64.5 -143z
M352 193v41q-71 -1 -100 -14.5t-29 -49.5q0 -24 14.5 -37.5t40.5 -13.5q74 0 74 74zM497 689q0 -96 -89 -96q-43 0 -80 14l-54 20q-64 24 -68 -5l-1 -6q-4 -20 -29 -20h-41q-17 0 -24.5 8.5t-7.5 30.5q0 48 23.5 75t68.5 27q40 0 77 -14l54 -20q64 -23 68 5l1 6q4 20 29 20
h41q32 0 32 -45z" />
    <glyph glyph-name="adieresis" unicode="&#xe4;" horiz-adv-x="601" 
d="M554 360v-326q0 -34 -34 -34h-116q-28 0 -35 26l-9 29q-52 -63 -166 -63q-74 0 -121 41t-47 122q0 38 10 67t31 48t47 31.5t65.5 19.5t78.5 9.5t94 3.5v15q0 51 -86 51q-61 0 -135 -26q-32 -12 -43 21l-24 74q-10 30 21 43q99 40 215 40q125 0 189.5 -49t64.5 -143z
M352 193v41q-71 -1 -100 -14.5t-29 -49.5q0 -24 14.5 -37.5t40.5 -13.5q74 0 74 74zM272 683v-53q0 -34 -34 -34h-100q-34 0 -34 34v53q0 34 34 34h100q34 0 34 -34zM496 683v-53q0 -34 -34 -34h-100q-34 0 -34 34v53q0 34 34 34h100q34 0 34 -34z" />
    <glyph glyph-name="aring" unicode="&#xe5;" horiz-adv-x="601" 
d="M554 360v-326q0 -34 -34 -34h-116q-28 0 -35 26l-9 29q-52 -63 -166 -63q-74 0 -121 41t-47 122q0 38 10 67t31 48t47 31.5t65.5 19.5t78.5 9.5t94 3.5v15q0 51 -86 51q-61 0 -135 -26q-32 -12 -43 21l-24 74q-10 30 21 43q99 40 215 40q125 0 189.5 -49t64.5 -143z
M352 193v41q-71 -1 -100 -14.5t-29 -49.5q0 -24 14.5 -37.5t40.5 -13.5q74 0 74 74zM310 658q21 0 36 14t15 35t-15 35t-36 14t-36 -14t-15 -35t15 -35t36 -14zM310 824q54 0 90.5 -32.5t36.5 -84.5t-36.5 -84.5t-90.5 -32.5t-90.5 32.5t-36.5 84.5t36.5 84.5t90.5 32.5z
" />
    <glyph glyph-name="ae" unicode="&#xe6;" horiz-adv-x="906" 
d="M670 128q59 0 124 29q32 14 43 -22l20 -61q9 -27 -21 -43q-84 -43 -186 -43q-153 0 -206 86q-76 -82 -207 -82q-107 0 -159 39t-52 124q0 38 9.5 66.5t31.5 46.5t46.5 29.5t66.5 17t78 7.5t94 3v24q0 51 -86 51q-61 0 -135 -26q-32 -12 -43 21l-24 74q-10 30 21 43
q99 40 208 40q123 0 168 -66q55 66 170 66q113 0 179 -68.5t66 -188.5v-48q0 -34 -34 -34h-288q25 -85 116 -85zM626 412q-38 0 -56 -20t-23 -71h148v7q0 84 -69 84zM352 203v22q-75 -1 -102 -11t-27 -44q0 -24 14.5 -37.5t40.5 -13.5q74 0 74 84z" />
    <glyph glyph-name="ccedilla" unicode="&#xe7;" horiz-adv-x="532" 
d="M30 270q0 139 77 210.5t212 71.5q47 0 94.5 -11t74.5 -28q30 -19 17 -48l-34 -76q-13 -29 -50 -16q-42 14 -78 14q-102 0 -102 -117t104 -117q43 0 80 16q36 16 50 -16l34 -75q13 -29 -17 -49q-53 -37 -153 -40q67 -35 67 -89q0 -42 -31.5 -65.5t-91.5 -23.5q-39 0 -63 8
q-18 5 -18 21v43q0 19 21 19h33q42 0 42 31q0 33 -46 60q-105 17 -163.5 87t-58.5 190z" />
    <glyph glyph-name="egrave" unicode="&#xe8;" horiz-adv-x="600" 
d="M357 128q66 0 131 29q32 13 43 -21l20 -62q9 -27 -21 -43q-84 -43 -193 -43q-148 0 -227.5 72.5t-79.5 209.5q0 134 75 208t203 74q124 0 193 -72t69 -194v-48q0 -34 -34 -34h-301q22 -76 122 -76zM313 412q-39 0 -59.5 -24t-25.5 -76h161v7q0 93 -76 93zM342 709l32 -87
q4 -12 -1.5 -19t-19.5 -7h-77q-25 0 -41 16l-82 84q-6 6 -7.5 14.5t3.5 15t15 6.5h143q27 0 35 -23z" />
    <glyph glyph-name="eacute" unicode="&#xe9;" horiz-adv-x="600" 
d="M357 128q66 0 131 29q32 13 43 -21l20 -62q9 -27 -21 -43q-84 -43 -193 -43q-148 0 -227.5 72.5t-79.5 209.5q0 134 75 208t203 74q124 0 193 -72t69 -194v-48q0 -34 -34 -34h-301q22 -76 122 -76zM313 412q-39 0 -59.5 -24t-25.5 -76h161v7q0 93 -76 93zM225 622l32 87
q8 23 35 23h143q16 0 19 -13t-8 -23l-82 -84q-16 -16 -41 -16h-77q-14 0 -19.5 7t-1.5 19z" />
    <glyph glyph-name="ecircumflex" unicode="&#xea;" horiz-adv-x="600" 
d="M357 128q66 0 131 29q32 13 43 -21l20 -62q9 -27 -21 -43q-84 -43 -193 -43q-148 0 -227.5 72.5t-79.5 209.5q0 134 75 208t203 74q124 0 193 -72t69 -194v-48q0 -34 -34 -34h-301q22 -76 122 -76zM313 412q-39 0 -59.5 -24t-25.5 -76h161v7q0 93 -76 93zM369 611l-65 54
l-65 -54q-17 -15 -35 -15h-56q-15 0 -19.5 10.5t4.5 20.5l88 106q17 21 47 21h72q30 0 47 -21l88 -106q9 -10 4.5 -20.5t-19.5 -10.5h-56q-18 0 -35 15z" />
    <glyph glyph-name="edieresis" unicode="&#xeb;" horiz-adv-x="600" 
d="M357 128q66 0 131 29q32 13 43 -21l20 -62q9 -27 -21 -43q-84 -43 -193 -43q-148 0 -227.5 72.5t-79.5 209.5q0 134 75 208t203 74q124 0 193 -72t69 -194v-48q0 -34 -34 -34h-301q22 -76 122 -76zM313 412q-39 0 -59.5 -24t-25.5 -76h161v7q0 93 -76 93zM276 683v-53
q0 -34 -34 -34h-100q-34 0 -34 34v53q0 34 34 34h100q34 0 34 -34zM500 683v-53q0 -34 -34 -34h-100q-34 0 -34 34v53q0 34 34 34h100q34 0 34 -34z" />
    <glyph glyph-name="igrave" unicode="&#xec;" horiz-adv-x="320" 
d="M264 506v-472q0 -34 -34 -34h-140q-34 0 -34 34v472q0 34 34 34h140q34 0 34 -34zM192 709l32 -87q4 -12 -1.5 -19t-19.5 -7h-77q-25 0 -41 16l-82 84q-6 6 -7.5 14.5t3.5 15t15 6.5h143q27 0 35 -23z" />
    <glyph glyph-name="iacute" unicode="&#xed;" horiz-adv-x="320" 
d="M264 506v-472q0 -34 -34 -34h-140q-34 0 -34 34v472q0 34 34 34h140q34 0 34 -34zM96 622l32 87q8 23 35 23h143q16 0 19 -13t-8 -23l-82 -84q-16 -16 -41 -16h-77q-14 0 -19.5 7t-1.5 19z" />
    <glyph glyph-name="icircumflex" unicode="&#xee;" horiz-adv-x="320" 
d="M264 506v-472q0 -34 -34 -34h-140q-34 0 -34 34v472q0 34 34 34h140q34 0 34 -34zM225 611l-65 54l-65 -54q-17 -15 -35 -15h-56q-15 0 -19.5 10.5t4.5 20.5l88 106q17 21 47 21h72q30 0 47 -21l88 -106q9 -10 4.5 -20.5t-19.5 -10.5h-56q-18 0 -35 15z" />
    <glyph glyph-name="idieresis" unicode="&#xef;" horiz-adv-x="320" 
d="M264 506v-472q0 -34 -34 -34h-140q-34 0 -34 34v472q0 34 34 34h140q34 0 34 -34zM132 683v-53q0 -34 -34 -34h-100q-34 0 -34 34v53q0 34 34 34h100q34 0 34 -34zM356 683v-53q0 -34 -34 -34h-100q-34 0 -34 34v53q0 34 34 34h100q34 0 34 -34z" />
    <glyph glyph-name="eth" unicode="&#xf0;" horiz-adv-x="622" 
d="M550 571h-50q90 -125 90 -295q0 -145 -74 -216.5t-206 -71.5q-130 0 -205 71.5t-75 205.5q0 131 75 201.5t187 70.5q53 0 81 -16q-14 24 -34 50h-128q-24 0 -24 24v33q0 24 24 24h58l-40 31q-10 8 -7 19.5t15 11.5h129q24 0 40 -17l38 -45h106q24 0 24 -24v-33
q0 -24 -24 -24zM310 144q69 0 69 121q0 131 -69 131t-69 -131q0 -63 16.5 -92t52.5 -29z" />
    <glyph glyph-name="ntilde" unicode="&#xf1;" horiz-adv-x="627" 
d="M580 346v-312q0 -34 -34 -34h-140q-34 0 -34 34v271q0 41 -11.5 59t-41.5 18q-63 0 -63 -82v-266q0 -34 -34 -34h-140q-34 0 -34 34v472q0 34 34 34h124q28 0 35 -26l11 -35q52 73 155 73q91 0 132 -51.5t41 -154.5zM510 689q0 -96 -89 -96q-43 0 -80 14l-54 20
q-64 24 -68 -5l-1 -6q-4 -20 -29 -20h-41q-17 0 -24.5 8.5t-7.5 30.5q0 48 23.5 75t68.5 27q40 0 77 -14l54 -20q64 -23 68 5l1 6q4 20 29 20h41q32 0 32 -45z" />
    <glyph glyph-name="ograve" unicode="&#xf2;" horiz-adv-x="620" 
d="M310 -12q130 0 205 72t75 210t-75 210t-205 72t-205 -72t-75 -210t75 -210t205 -72zM310 144q-36 0 -52.5 30t-16.5 96t16.5 96t52.5 30t52.5 -30t16.5 -96t-16.5 -96t-52.5 -30zM342 709l32 -87q4 -12 -1.5 -19t-19.5 -7h-77q-25 0 -41 16l-82 84q-6 6 -7.5 14.5t3.5 15
t15 6.5h143q27 0 35 -23z" />
    <glyph glyph-name="oacute" unicode="&#xf3;" horiz-adv-x="620" 
d="M310 -12q130 0 205 72t75 210t-75 210t-205 72t-205 -72t-75 -210t75 -210t205 -72zM310 144q-36 0 -52.5 30t-16.5 96t16.5 96t52.5 30t52.5 -30t16.5 -96t-16.5 -96t-52.5 -30zM245 622l32 87q8 23 35 23h143q16 0 19 -13t-8 -23l-82 -84q-16 -16 -41 -16h-77
q-14 0 -19.5 7t-1.5 19z" />
    <glyph glyph-name="ocircumflex" unicode="&#xf4;" horiz-adv-x="620" 
d="M310 -12q130 0 205 72t75 210t-75 210t-205 72t-205 -72t-75 -210t75 -210t205 -72zM310 144q-36 0 -52.5 30t-16.5 96t16.5 96t52.5 30t52.5 -30t16.5 -96t-16.5 -96t-52.5 -30zM375 611l-65 54l-65 -54q-17 -15 -35 -15h-56q-15 0 -19.5 10.5t4.5 20.5l88 106
q17 21 47 21h72q30 0 47 -21l88 -106q9 -10 4.5 -20.5t-19.5 -10.5h-56q-18 0 -35 15z" />
    <glyph glyph-name="otilde" unicode="&#xf5;" horiz-adv-x="620" 
d="M310 -12q-130 0 -205 72t-75 210t75 210t205 72t205 -72t75 -210t-75 -210t-205 -72zM310 144q36 0 52.5 30t16.5 96t-16.5 96t-52.5 30t-52.5 -30t-16.5 -96t16.5 -96t52.5 -30zM507 689q0 -96 -89 -96q-43 0 -80 14l-54 20q-64 24 -68 -5l-1 -6q-4 -20 -29 -20h-41
q-17 0 -24.5 8.5t-7.5 30.5q0 48 23.5 75t68.5 27q40 0 77 -14l54 -20q64 -23 68 5l1 6q4 20 29 20h41q32 0 32 -45z" />
    <glyph glyph-name="odieresis" unicode="&#xf6;" horiz-adv-x="620" 
d="M310 -12q130 0 205 72t75 210t-75 210t-205 72t-205 -72t-75 -210t75 -210t205 -72zM310 144q-36 0 -52.5 30t-16.5 96t16.5 96t52.5 30t52.5 -30t16.5 -96t-16.5 -96t-52.5 -30zM282 683v-53q0 -34 -34 -34h-100q-34 0 -34 34v53q0 34 34 34h100q34 0 34 -34zM506 683
v-53q0 -34 -34 -34h-100q-34 0 -34 34v53q0 34 34 34h100q34 0 34 -34z" />
    <glyph glyph-name="divide" unicode="&#xf7;" horiz-adv-x="612" 
d="M528 278h-444q-34 0 -34 34v74q0 34 34 34h444q34 0 34 -34v-74q0 -34 -34 -34zM212 83v109q0 33 37 33h114q37 0 37 -33v-109q0 -34 -34 -34h-120q-34 0 -34 34zM212 507v109q0 33 37 33h114q37 0 37 -33v-109q0 -34 -35 -34h-119q-34 0 -34 34z" />
    <glyph glyph-name="oslash" unicode="&#xf8;" horiz-adv-x="624" 
d="M312 -12q-94 0 -158 37l-21 -23q-20 -23 -45 -3l-25 23q-24 21 -3 44l21 23q-49 69 -49 181q0 138 75 210t205 72q91 0 157 -37l22 24q22 25 45 3l25 -23q24 -22 3 -44l-22 -24q50 -70 50 -181q0 -138 -75 -210t-205 -72zM312 396q-36 0 -52.5 -30t-16.5 -96q0 -11 1 -19
l114 125q-16 20 -46 20zM312 144q36 0 52.5 30t16.5 96q0 13 -1 20l-114 -126q16 -20 46 -20z" />
    <glyph glyph-name="ugrave" unicode="&#xf9;" horiz-adv-x="622" 
d="M46 183v323q0 34 34 34h140q34 0 34 -34v-281q0 -36 10 -53.5t39 -17.5q63 0 63 80v272q0 34 34 34h140q34 0 34 -34v-472q0 -34 -34 -34h-124q-28 0 -35 26l-11 35q-48 -73 -147 -73q-92 0 -134.5 45t-42.5 150zM343 709l32 -87q4 -12 -1.5 -19t-19.5 -7h-77
q-25 0 -41 16l-82 84q-6 6 -7.5 14.5t3.5 15t15 6.5h143q27 0 35 -23z" />
    <glyph glyph-name="uacute" unicode="&#xfa;" horiz-adv-x="622" 
d="M46 183v323q0 34 34 34h140q34 0 34 -34v-281q0 -36 10 -53.5t39 -17.5q63 0 63 80v272q0 34 34 34h140q34 0 34 -34v-472q0 -34 -34 -34h-124q-28 0 -35 26l-11 35q-48 -73 -147 -73q-92 0 -134.5 45t-42.5 150zM246 622l32 87q8 23 35 23h143q16 0 19 -13t-8 -23
l-82 -84q-16 -16 -41 -16h-77q-14 0 -19.5 7t-1.5 19z" />
    <glyph glyph-name="ucircumflex" unicode="&#xfb;" horiz-adv-x="622" 
d="M46 183v323q0 34 34 34h140q34 0 34 -34v-281q0 -36 10 -53.5t39 -17.5q63 0 63 80v272q0 34 34 34h140q34 0 34 -34v-472q0 -34 -34 -34h-124q-28 0 -35 26l-11 35q-48 -73 -147 -73q-92 0 -134.5 45t-42.5 150zM376 611l-65 54l-65 -54q-17 -15 -35 -15h-56
q-15 0 -19.5 10.5t4.5 20.5l88 106q17 21 47 21h72q30 0 47 -21l88 -106q9 -10 4.5 -20.5t-19.5 -10.5h-56q-18 0 -35 15z" />
    <glyph glyph-name="udieresis" unicode="&#xfc;" horiz-adv-x="622" 
d="M46 183v323q0 34 34 34h140q34 0 34 -34v-281q0 -36 10 -53.5t39 -17.5q63 0 63 80v272q0 34 34 34h140q34 0 34 -34v-472q0 -34 -34 -34h-124q-28 0 -35 26l-11 35q-48 -73 -147 -73q-92 0 -134.5 45t-42.5 150zM283 683v-53q0 -34 -34 -34h-100q-34 0 -34 34v53
q0 34 34 34h100q34 0 34 -34zM507 683v-53q0 -34 -34 -34h-100q-34 0 -34 34v53q0 34 34 34h100q34 0 34 -34z" />
    <glyph glyph-name="yacute" unicode="&#xfd;" horiz-adv-x="592" 
d="M581 500l-138 -440q-17 -54 -31.5 -84t-40 -54t-62 -33t-94.5 -9q-84 0 -126 11q-17 4 -25 11.5t-8 23.5v80q0 29 28 29q7 0 28 -2.5t38 -2.5q53 0 36 43l-172 427q-7 17 -0.5 28.5t24.5 11.5h144q33 0 42 -31l54 -193l31 -133h4l22 133l38 193q6 31 40 31h140
q18 0 25.5 -11.5t2.5 -28.5zM221 622l32 87q8 23 35 23h143q16 0 19 -13t-8 -23l-82 -84q-16 -16 -41 -16h-77q-14 0 -19.5 7t-1.5 19z" />
    <glyph glyph-name="thorn" unicode="&#xfe;" horiz-adv-x="642" 
d="M82 708h140q34 0 34 -34v-182q19 28 60.5 44t81.5 16q104 0 158 -70.5t54 -210.5q0 -283 -212 -283q-40 0 -81.5 16t-60.5 44v-124q0 -34 -34 -34h-140q-34 0 -34 34v750q0 34 34 34zM254 270q0 -66 18 -95t55 -29t54.5 28.5t17.5 95.5t-17.5 95.5t-54.5 28.5t-55 -29
t-18 -95z" />
    <glyph glyph-name="ydieresis" unicode="&#xff;" horiz-adv-x="592" 
d="M581 500l-138 -440q-17 -54 -31.5 -84t-40 -54t-62 -33t-94.5 -9q-84 0 -126 11q-17 4 -25 11.5t-8 23.5v80q0 29 28 29q7 0 28 -2.5t38 -2.5q53 0 36 43l-172 427q-7 17 -0.5 28.5t24.5 11.5h144q33 0 42 -31l54 -193l31 -133h4l22 133l38 193q6 31 40 31h140
q18 0 25.5 -11.5t2.5 -28.5zM268 683v-53q0 -34 -34 -34h-100q-34 0 -34 34v53q0 34 34 34h100q34 0 34 -34zM492 683v-53q0 -34 -34 -34h-100q-34 0 -34 34v53q0 34 34 34h100q34 0 34 -34z" />
    <glyph glyph-name="Amacron" unicode="&#x100;" horiz-adv-x="706" 
d="M291 288h121l-57 206h-3zM263 708h180q32 0 43 -32l207 -633q7 -19 -1 -31t-26 -12h-152q-35 0 -44 33l-22 77h-191l-21 -77q-9 -33 -44 -33h-152q-18 0 -26 12t-1 31l207 633q11 32 43 32zM515 758h-324q-32 0 -32 32v49q0 32 32 32h324q32 0 32 -32v-49q0 -32 -32 -32z
" />
    <glyph glyph-name="amacron" unicode="&#x101;" horiz-adv-x="601" 
d="M554 360v-326q0 -34 -34 -34h-116q-28 0 -35 26l-9 29q-52 -63 -166 -63q-74 0 -121 41t-47 122q0 38 10 67t31 48t47 31.5t65.5 19.5t78.5 9.5t94 3.5v15q0 51 -86 51q-61 0 -135 -26q-32 -12 -43 21l-24 74q-10 30 21 43q99 40 215 40q125 0 189.5 -49t64.5 -143z
M352 193v41q-71 -1 -100 -14.5t-29 -49.5q0 -24 14.5 -37.5t40.5 -13.5q74 0 74 74zM458 600h-316q-32 0 -32 32v47q0 32 32 32h316q32 0 32 -32v-47q0 -32 -32 -32z" />
    <glyph glyph-name="Abreve" unicode="&#x102;" horiz-adv-x="706" 
d="M291 288h121l-57 206h-3zM263 708h180q32 0 43 -32l207 -633q7 -19 -1 -31t-26 -12h-152q-35 0 -44 33l-22 77h-191l-21 -77q-9 -33 -44 -33h-152q-18 0 -26 12t-1 31l207 633q11 32 43 32zM353 752q-88 0 -134 43t-46 103q0 26 26 26h52q25 0 30 -25q10 -53 72 -53
t72 53q5 25 30 25h52q26 0 26 -26q0 -60 -46 -103t-134 -43z" />
    <glyph glyph-name="abreve" unicode="&#x103;" horiz-adv-x="601" 
d="M554 360v-326q0 -34 -34 -34h-116q-28 0 -35 26l-9 29q-52 -63 -166 -63q-74 0 -121 41t-47 122q0 38 10 67t31 48t47 31.5t65.5 19.5t78.5 9.5t94 3.5v15q0 51 -86 51q-61 0 -135 -26q-32 -12 -43 21l-24 74q-10 30 21 43q99 40 215 40q125 0 189.5 -49t64.5 -143z
M352 193v41q-71 -1 -100 -14.5t-29 -49.5q0 -24 14.5 -37.5t40.5 -13.5q74 0 74 74zM300 590q-88 0 -133 42t-45 102q0 26 26 26h48q25 0 30 -25q10 -53 74 -53t74 53q5 25 30 25h48q26 0 26 -26q0 -60 -45 -102t-133 -42z" />
    <glyph glyph-name="Aogonek" unicode="&#x104;" horiz-adv-x="706" 
d="M263 708h180q32 0 43 -32l207 -633q7 -19 -1 -31t-26 -12h-33q-45 -28 -45 -65q0 -34 43 -34q10 0 19 2t13 2q13 0 18 -14l13 -42q5 -14 -13 -26q-32 -21 -93 -21q-119 0 -119 86q0 35 26.5 65.5t64.5 46.5h-46q-35 0 -44 33l-22 77h-191l-21 -77q-9 -33 -44 -33h-152
q-18 0 -26 12t-1 31l207 633q11 32 43 32zM291 288h121l-57 206h-3z" />
    <glyph glyph-name="aogonek" unicode="&#x105;" horiz-adv-x="601" 
d="M554 360v-326q0 -34 -34 -34h-18q-43 -29 -43 -62q0 -32 40 -32q9 0 18 2t13 2q14 0 17 -14l12 -40q4 -15 -12 -25q-32 -20 -89 -20q-112 0 -112 82q0 33 25.5 62t60.5 45h-28q-28 0 -35 26l-9 29q-52 -63 -166 -63q-74 0 -121 41t-47 122q0 38 10 67t31 48t47 31.5
t65.5 19.5t78.5 9.5t94 3.5v15q0 51 -86 51q-61 0 -135 -26q-32 -12 -43 21l-24 74q-10 30 21 43q99 40 215 40q125 0 189.5 -49t64.5 -143zM352 193v41q-71 -1 -100 -14.5t-29 -49.5q0 -24 14.5 -37.5t40.5 -13.5q74 0 74 74z" />
    <glyph glyph-name="Cacute" unicode="&#x106;" horiz-adv-x="635" 
d="M410 176q50 0 99 20q20 8 31.5 4.5t19.5 -20.5l42 -90q7 -18 3 -27.5t-21 -20.5q-81 -54 -210 -54q-160 0 -250 89.5t-90 276.5q0 188 88 277t247 89q127 0 207 -53q17 -11 21 -20.5t-3 -27.5l-41 -89q-7 -17 -19 -20.5t-32 4.5q-44 18 -96 18q-82 0 -116.5 -40
t-34.5 -138q0 -97 36 -137.5t119 -40.5zM282 784l32 88q10 24 36 24h144q16 0 19 -13.5t-8 -23.5l-83 -85q-16 -16 -42 -16h-77q-14 0 -19.5 7t-1.5 19z" />
    <glyph glyph-name="cacute" unicode="&#x107;" horiz-adv-x="532" 
d="M30 270q0 139 77 210.5t212 71.5q47 0 94.5 -11t74.5 -28q30 -19 17 -48l-34 -76q-13 -29 -50 -16q-42 14 -78 14q-102 0 -102 -117t104 -117q43 0 80 16q36 16 50 -16l34 -75q13 -29 -17 -49q-27 -18 -74.5 -29.5t-96.5 -11.5q-136 0 -213.5 71.5t-77.5 210.5zM221 622
l32 87q8 23 35 23h143q16 0 19 -13t-8 -23l-82 -84q-16 -16 -41 -16h-77q-14 0 -19.5 7t-1.5 19z" />
    <glyph glyph-name="Ccircumflex" unicode="&#x108;" horiz-adv-x="635" 
d="M410 176q50 0 99 20q20 8 31.5 4.5t19.5 -20.5l42 -90q7 -18 3 -27.5t-21 -20.5q-81 -54 -210 -54q-160 0 -250 89.5t-90 276.5q0 188 88 277t247 89q127 0 207 -53q17 -11 21 -20.5t-3 -27.5l-41 -89q-7 -17 -19 -20.5t-32 4.5q-44 18 -96 18q-82 0 -116.5 -40
t-34.5 -138q0 -97 36 -137.5t119 -40.5zM430 773l-69 54l-69 -54q-19 -15 -35 -15h-56q-15 0 -19.5 10.5t4.5 20.5l92 106q18 21 47 21h72q29 0 47 -21l92 -106q9 -10 4.5 -20.5t-19.5 -10.5h-56q-16 0 -35 15z" />
    <glyph glyph-name="ccircumflex" unicode="&#x109;" horiz-adv-x="532" 
d="M30 270q0 139 77 210.5t212 71.5q47 0 94.5 -11t74.5 -28q30 -19 17 -48l-34 -76q-13 -29 -50 -16q-42 14 -78 14q-102 0 -102 -117t104 -117q43 0 80 16q36 16 50 -16l34 -75q13 -29 -17 -49q-27 -18 -74.5 -29.5t-96.5 -11.5q-136 0 -213.5 71.5t-77.5 210.5zM361 611
l-65 54l-65 -54q-17 -15 -35 -15h-56q-15 0 -19.5 10.5t4.5 20.5l88 106q17 21 47 21h72q30 0 47 -21l88 -106q9 -10 4.5 -20.5t-19.5 -10.5h-56q-18 0 -35 15z" />
    <glyph glyph-name="Cdotaccent" unicode="&#x10a;" horiz-adv-x="635" 
d="M410 176q50 0 99 20q20 8 31.5 4.5t19.5 -20.5l42 -90q7 -18 3 -27.5t-21 -20.5q-81 -54 -210 -54q-160 0 -250 89.5t-90 276.5q0 188 88 277t247 89q127 0 207 -53q17 -11 21 -20.5t-3 -27.5l-41 -89q-7 -17 -19 -20.5t-32 4.5q-44 18 -96 18q-82 0 -116.5 -40
t-34.5 -138q0 -97 36 -137.5t119 -40.5zM453 859v-69q0 -34 -34 -34h-128q-34 0 -34 34v69q0 34 34 34h128q34 0 34 -34z" />
    <glyph glyph-name="cdotaccent" unicode="&#x10b;" horiz-adv-x="532" 
d="M30 270q0 139 77 210.5t212 71.5q47 0 94.5 -11t74.5 -28q30 -19 17 -48l-34 -76q-13 -29 -50 -16q-42 14 -78 14q-102 0 -102 -117t104 -117q43 0 80 16q36 16 50 -16l34 -75q13 -29 -17 -49q-27 -18 -74.5 -29.5t-96.5 -11.5q-136 0 -213.5 71.5t-77.5 210.5zM394 692
v-65q0 -34 -34 -34h-128q-34 0 -34 34v65q0 34 34 34h128q34 0 34 -34z" />
    <glyph glyph-name="Ccaron" unicode="&#x10c;" horiz-adv-x="635" 
d="M410 176q50 0 99 20q20 8 31.5 4.5t19.5 -20.5l42 -90q7 -18 3 -27.5t-21 -20.5q-81 -54 -210 -54q-160 0 -250 89.5t-90 276.5q0 188 88 277t247 89q127 0 207 -53q17 -11 21 -20.5t-3 -27.5l-41 -89q-7 -17 -19 -20.5t-32 4.5q-44 18 -96 18q-82 0 -116.5 -40
t-34.5 -138q0 -97 36 -137.5t119 -40.5zM361 847l69 54q19 15 35 15h56q15 0 19.5 -10.5t-4.5 -20.5l-92 -106q-18 -21 -47 -21h-72q-29 0 -47 21l-92 106q-9 10 -4.5 20.5t19.5 10.5h56q16 0 35 -15z" />
    <glyph glyph-name="ccaron" unicode="&#x10d;" horiz-adv-x="532" 
d="M30 270q0 139 77 210.5t212 71.5q47 0 94.5 -11t74.5 -28q30 -19 17 -48l-34 -76q-13 -29 -50 -16q-42 14 -78 14q-102 0 -102 -117t104 -117q43 0 80 16q36 16 50 -16l34 -75q13 -29 -17 -49q-27 -18 -74.5 -29.5t-96.5 -11.5q-136 0 -213.5 71.5t-77.5 210.5zM294 685
l65 54q17 15 35 15h56q15 0 19.5 -10.5t-4.5 -20.5l-88 -106q-17 -21 -47 -21h-72q-30 0 -47 21l-88 106q-9 10 -4.5 20.5t19.5 10.5h56q18 0 35 -15z" />
    <glyph glyph-name="Dcaron" unicode="&#x10e;" horiz-adv-x="692" 
d="M311 0h-223q-36 0 -36 36v636q0 36 36 36h223q176 0 261.5 -85t85.5 -269t-85.5 -269t-261.5 -85zM301 520h-31v-332h31q73 0 105 35.5t32 130.5t-32 130.5t-105 35.5zM313 847l69 54q19 15 35 15h56q15 0 19.5 -10.5t-4.5 -20.5l-92 -106q-18 -21 -47 -21h-72
q-29 0 -47 21l-92 106q-9 10 -4.5 20.5t19.5 10.5h56q16 0 35 -15z" />
    <glyph glyph-name="dcaron" unicode="&#x10f;" horiz-adv-x="836" 
d="M388 270q0 66 -18 95t-55 29t-54.5 -28.5t-17.5 -95.5t17.5 -95.5t54.5 -28.5t55 29t18 95zM403 26l-8 29q-21 -29 -65.5 -48t-85.5 -19q-104 0 -158 70.5t-54 211.5t54 211.5t158 70.5q40 0 81.5 -16t60.5 -44v182q0 34 34 34h140q34 0 34 -34v-640q0 -34 -34 -34h-122
q-28 0 -35 26zM826 550l-64 -114q-10 -17 -29 -17h-40q-12 0 -16 8.5t0 18.5l43 106h-42q-34 0 -34 34v109q0 33 37 33h118q37 0 37 -33v-102q0 -27 -10 -43z" />
    <glyph glyph-name="Dcroat" unicode="&#x110;" horiz-adv-x="694" 
d="M313 0h-223q-36 0 -36 36v268h-28q-24 0 -24 24v53q0 24 24 24h28v267q0 36 36 36h223q176 0 261.5 -85t85.5 -269t-85.5 -269t-261.5 -85zM350 304h-78v-116h31q73 0 105 35.5t32 130.5t-32 130.5t-105 35.5h-31v-115h78q24 0 24 -24v-53q0 -24 -24 -24z" />
    <glyph glyph-name="dcroat" unicode="&#x111;" horiz-adv-x="644" 
d="M403 26l-8 29q-21 -29 -65.5 -48t-85.5 -19q-104 0 -158 70.5t-54 211.5t54 211.5t158 70.5q40 0 81.5 -16t60.5 -44v93h-107q-24 0 -24 24v33q0 24 24 24h107v8q0 34 34 34h140q34 0 34 -34v-8h26q24 0 24 -24v-33q0 -24 -24 -24h-26v-551q0 -34 -34 -34h-122
q-28 0 -35 26zM388 270q0 66 -18 95t-55 29t-54.5 -28.5t-17.5 -95.5t17.5 -95.5t54.5 -28.5t55 29t18 95z" />
    <glyph glyph-name="Emacron" unicode="&#x112;" horiz-adv-x="582" 
d="M491 273h-225v-93h246q36 0 36 -36v-108q0 -36 -36 -36h-424q-36 0 -36 36v636q0 36 36 36h418q36 0 36 -36v-108q0 -36 -36 -36h-240v-83h225q35 0 35 -36v-101q0 -35 -35 -35zM463 758h-324q-32 0 -32 32v49q0 32 32 32h324q32 0 32 -32v-49q0 -32 -32 -32z" />
    <glyph glyph-name="emacron" unicode="&#x113;" horiz-adv-x="600" 
d="M357 128q66 0 131 29q32 13 43 -21l20 -62q9 -27 -21 -43q-84 -43 -193 -43q-148 0 -227.5 72.5t-79.5 209.5q0 134 75 208t203 74q124 0 193 -72t69 -194v-48q0 -34 -34 -34h-301q22 -76 122 -76zM313 412q-39 0 -59.5 -24t-25.5 -76h161v7q0 93 -76 93zM466 600h-316
q-32 0 -32 32v47q0 32 32 32h316q32 0 32 -32v-47q0 -32 -32 -32z" />
    <glyph glyph-name="Ebreve" unicode="&#x114;" horiz-adv-x="582" 
d="M491 273h-225v-93h246q36 0 36 -36v-108q0 -36 -36 -36h-424q-36 0 -36 36v636q0 36 36 36h418q36 0 36 -36v-108q0 -36 -36 -36h-240v-83h225q35 0 35 -36v-101q0 -35 -35 -35zM301 752q-88 0 -134 43t-46 103q0 26 26 26h52q25 0 30 -25q10 -53 72 -53t72 53
q5 25 30 25h52q26 0 26 -26q0 -60 -46 -103t-134 -43z" />
    <glyph glyph-name="ebreve" unicode="&#x115;" horiz-adv-x="600" 
d="M357 128q66 0 131 29q32 13 43 -21l20 -62q9 -27 -21 -43q-84 -43 -193 -43q-148 0 -227.5 72.5t-79.5 209.5q0 134 75 208t203 74q124 0 193 -72t69 -194v-48q0 -34 -34 -34h-301q22 -76 122 -76zM313 412q-39 0 -59.5 -24t-25.5 -76h161v7q0 93 -76 93zM308 590
q-88 0 -133 42t-45 102q0 26 26 26h48q25 0 30 -25q10 -53 74 -53t74 53q5 25 30 25h48q26 0 26 -26q0 -60 -45 -102t-133 -42z" />
    <glyph glyph-name="Edotaccent" unicode="&#x116;" horiz-adv-x="582" 
d="M491 273h-225v-93h246q36 0 36 -36v-108q0 -36 -36 -36h-424q-36 0 -36 36v636q0 36 36 36h418q36 0 36 -36v-108q0 -36 -36 -36h-240v-83h225q35 0 35 -36v-101q0 -35 -35 -35zM399 859v-69q0 -34 -34 -34h-128q-34 0 -34 34v69q0 34 34 34h128q34 0 34 -34z" />
    <glyph glyph-name="edotaccent" unicode="&#x117;" horiz-adv-x="600" 
d="M357 128q66 0 131 29q32 13 43 -21l20 -62q9 -27 -21 -43q-84 -43 -193 -43q-148 0 -227.5 72.5t-79.5 209.5q0 134 75 208t203 74q124 0 193 -72t69 -194v-48q0 -34 -34 -34h-301q22 -76 122 -76zM313 412q-39 0 -59.5 -24t-25.5 -76h161v7q0 93 -76 93zM406 692v-65
q0 -34 -34 -34h-128q-34 0 -34 34v65q0 34 34 34h128q34 0 34 -34z" />
    <glyph glyph-name="Eogonek" unicode="&#x118;" horiz-adv-x="582" 
d="M491 273h-225v-93h246q36 0 36 -36v-108q0 -36 -36 -36h-32q-45 -28 -45 -65q0 -34 43 -34q10 0 19 2t13 2q13 0 18 -14l13 -42q5 -14 -13 -26q-32 -21 -93 -21q-119 0 -119 86q0 35 26.5 65.5t64.5 46.5h-319q-36 0 -36 36v636q0 36 36 36h418q36 0 36 -36v-108
q0 -36 -36 -36h-240v-83h225q35 0 35 -36v-101q0 -35 -35 -35z" />
    <glyph glyph-name="eogonek" unicode="&#x119;" horiz-adv-x="600" 
d="M357 128q66 0 131 29q32 13 43 -21l20 -62q9 -27 -21 -43q-36 -18 -71 -28q-49 -28 -49 -65q0 -32 40 -32q9 0 18 2t13 2q13 0 17 -14l12 -40q4 -15 -12 -25q-32 -20 -89 -20q-112 0 -112 82q0 55 65 96q-8 -1 -25 -1q-148 0 -227.5 72.5t-79.5 209.5q0 134 75 208
t203 74q124 0 193 -72t69 -194v-48q0 -34 -34 -34h-301q22 -76 122 -76zM313 412q-39 0 -59.5 -24t-25.5 -76h161v7q0 93 -76 93z" />
    <glyph glyph-name="Ecaron" unicode="&#x11a;" horiz-adv-x="582" 
d="M491 273h-225v-93h246q36 0 36 -36v-108q0 -36 -36 -36h-424q-36 0 -36 36v636q0 36 36 36h418q36 0 36 -36v-108q0 -36 -36 -36h-240v-83h225q35 0 35 -36v-101q0 -35 -35 -35zM301 847l69 54q19 15 35 15h56q15 0 19.5 -10.5t-4.5 -20.5l-92 -106q-18 -21 -47 -21h-72
q-29 0 -47 21l-92 106q-9 10 -4.5 20.5t19.5 10.5h56q16 0 35 -15z" />
    <glyph glyph-name="ecaron" unicode="&#x11b;" horiz-adv-x="600" 
d="M357 128q66 0 131 29q32 13 43 -21l20 -62q9 -27 -21 -43q-84 -43 -193 -43q-148 0 -227.5 72.5t-79.5 209.5q0 134 75 208t203 74q124 0 193 -72t69 -194v-48q0 -34 -34 -34h-301q22 -76 122 -76zM313 412q-39 0 -59.5 -24t-25.5 -76h161v7q0 93 -76 93zM308 685l65 54
q17 15 35 15h56q15 0 19.5 -10.5t-4.5 -20.5l-88 -106q-17 -21 -47 -21h-72q-30 0 -47 21l-88 106q-9 10 -4.5 20.5t19.5 10.5h56q18 0 35 -15z" />
    <glyph glyph-name="Gcircumflex" unicode="&#x11c;" horiz-adv-x="700" 
d="M408 437h211q35 0 35 -36v-323q0 -24 -25 -38q-87 -52 -247 -52q-348 0 -348 366t361 366q139 0 221 -55q16 -11 20 -20.5t-2 -27.5l-36 -90q-12 -30 -51 -16q-58 21 -116 21q-96 0 -136 -39t-40 -139q0 -98 38 -138t120 -40q33 0 51 6v98h-56q-35 0 -35 35v86
q0 36 35 36zM439 773l-69 54l-69 -54q-19 -15 -35 -15h-56q-15 0 -19.5 10.5t4.5 20.5l92 106q18 21 47 21h72q29 0 47 -21l92 -106q9 -10 4.5 -20.5t-19.5 -10.5h-56q-16 0 -35 15z" />
    <glyph glyph-name="gcircumflex" unicode="&#x11d;" horiz-adv-x="616" 
d="M366 314q0 96 -64 96q-63 0 -63 -96q0 -98 63 -98q64 0 64 98zM568 506v-395q0 -233 -285 -233q-53 0 -111 9t-85 23q-29 14 -21 43l20 74q9 33 43 21q68 -24 133 -24q63 0 88.5 24t25.5 71v23q-42 -60 -135 -60q-95 0 -151 56t-56 176q0 121 54 178.5t145 57.5
q93 0 140 -65l8 29q7 26 35 26h118q34 0 34 -34zM373 611l-65 54l-65 -54q-17 -15 -35 -15h-56q-15 0 -19.5 10.5t4.5 20.5l88 106q17 21 47 21h72q30 0 47 -21l88 -106q9 -10 4.5 -20.5t-19.5 -10.5h-56q-18 0 -35 15z" />
    <glyph glyph-name="Gbreve" unicode="&#x11e;" horiz-adv-x="700" 
d="M408 437h211q35 0 35 -36v-323q0 -24 -25 -38q-87 -52 -247 -52q-348 0 -348 366t361 366q139 0 221 -55q16 -11 20 -20.5t-2 -27.5l-36 -90q-12 -30 -51 -16q-58 21 -116 21q-96 0 -136 -39t-40 -139q0 -98 38 -138t120 -40q33 0 51 6v98h-56q-35 0 -35 35v86
q0 36 35 36zM370 752q-88 0 -134 43t-46 103q0 26 26 26h52q25 0 30 -25q10 -53 72 -53t72 53q5 25 30 25h52q26 0 26 -26q0 -60 -46 -103t-134 -43z" />
    <glyph glyph-name="gbreve" unicode="&#x11f;" horiz-adv-x="616" 
d="M366 314q0 96 -64 96q-63 0 -63 -96q0 -98 63 -98q64 0 64 98zM568 506v-395q0 -233 -285 -233q-53 0 -111 9t-85 23q-29 14 -21 43l20 74q9 33 43 21q68 -24 133 -24q63 0 88.5 24t25.5 71v23q-42 -60 -135 -60q-95 0 -151 56t-56 176q0 121 54 178.5t145 57.5
q93 0 140 -65l8 29q7 26 35 26h118q34 0 34 -34zM308 590q-88 0 -133 42t-45 102q0 26 26 26h48q25 0 30 -25q10 -53 74 -53t74 53q5 25 30 25h48q26 0 26 -26q0 -60 -45 -102t-133 -42z" />
    <glyph glyph-name="Gdotaccent" unicode="&#x120;" horiz-adv-x="700" 
d="M408 437h211q35 0 35 -36v-323q0 -24 -25 -38q-87 -52 -247 -52q-348 0 -348 366t361 366q139 0 221 -55q16 -11 20 -20.5t-2 -27.5l-36 -90q-12 -30 -51 -16q-58 21 -116 21q-96 0 -136 -39t-40 -139q0 -98 38 -138t120 -40q33 0 51 6v98h-56q-35 0 -35 35v86
q0 36 35 36zM468 859v-69q0 -34 -34 -34h-128q-34 0 -34 34v69q0 34 34 34h128q34 0 34 -34z" />
    <glyph glyph-name="gdotaccent" unicode="&#x121;" horiz-adv-x="616" 
d="M366 314q0 96 -64 96q-63 0 -63 -96q0 -98 63 -98q64 0 64 98zM568 506v-395q0 -233 -285 -233q-53 0 -111 9t-85 23q-29 14 -21 43l20 74q9 33 43 21q68 -24 133 -24q63 0 88.5 24t25.5 71v23q-42 -60 -135 -60q-95 0 -151 56t-56 176q0 121 54 178.5t145 57.5
q93 0 140 -65l8 29q7 26 35 26h118q34 0 34 -34zM406 692v-65q0 -34 -34 -34h-128q-34 0 -34 34v65q0 34 34 34h128q34 0 34 -34z" />
    <glyph glyph-name="Gcommaaccent" unicode="&#x122;" horiz-adv-x="700" 
d="M408 437h211q35 0 35 -36v-323q0 -24 -25 -38q-87 -52 -247 -52q-348 0 -348 366t361 366q139 0 221 -55q16 -11 20 -20.5t-2 -27.5l-36 -90q-12 -30 -51 -16q-58 21 -116 21q-96 0 -136 -39t-40 -139q0 -98 38 -138t120 -40q33 0 51 6v98h-56q-35 0 -35 35v86
q0 36 35 36zM467 -201l-55 -110q-10 -18 -26 -18h-31q-24 0 -17 24l28 101h-32q-30 0 -30 30v97q0 29 32 29h108q32 0 32 -29v-85q0 -20 -9 -39z" />
    <glyph glyph-name="gcommaaccent" unicode="&#x123;" horiz-adv-x="616" 
d="M366 314q0 96 -64 96q-63 0 -63 -96q0 -98 63 -98q64 0 64 98zM568 506v-395q0 -233 -285 -233q-53 0 -111 9t-85 23q-29 14 -21 43l20 74q9 33 43 21q68 -24 133 -24q63 0 88.5 24t25.5 71v23q-42 -60 -135 -60q-95 0 -151 56t-56 176q0 121 54 178.5t145 57.5
q93 0 140 -65l8 29q7 26 35 26h118q34 0 34 -34zM235 755l52 105q9 17 24 17h30q23 0 16 -23l-27 -96h31q28 0 28 -28v-93q0 -27 -30 -27h-102q-30 0 -30 27v81q0 21 8 37z" />
    <glyph glyph-name="Hcircumflex" unicode="&#x124;" horiz-adv-x="700" 
d="M430 36v227h-160v-227q0 -36 -36 -36h-146q-36 0 -36 36v636q0 36 36 36h146q36 0 36 -36v-217h160v217q0 36 36 36h146q36 0 36 -36v-636q0 -36 -36 -36h-146q-36 0 -36 36zM381 773l-69 54l-69 -54q-19 -15 -35 -15h-56q-15 0 -19.5 10.5t4.5 20.5l92 106q18 21 47 21
h72q29 0 47 -21l92 -106q9 -10 4.5 -20.5t-19.5 -10.5h-56q-16 0 -35 15z" />
    <glyph glyph-name="hcircumflex" unicode="&#x125;" horiz-adv-x="629" 
d="M582 345v-311q0 -34 -34 -34h-140q-34 0 -34 34v271q0 41 -11.5 59t-41.5 18q-63 0 -63 -82v-266q0 -34 -34 -34h-140q-34 0 -34 34v640q0 34 34 34h140q34 0 34 -34v-187q48 65 151 65q91 0 132 -51.5t41 -155.5zM362 773l-69 54l-69 -54q-19 -15 -35 -15h-56
q-15 0 -19.5 10.5t4.5 20.5l92 106q18 21 47 21h72q29 0 47 -21l92 -106q9 -10 4.5 -20.5t-19.5 -10.5h-56q-16 0 -35 15z" />
    <glyph glyph-name="Hbar" unicode="&#x126;" horiz-adv-x="700" 
d="M430 36v227h-160v-227q0 -36 -36 -36h-146q-36 0 -36 36v499h-28q-24 0 -24 24v33q0 24 24 24h28v56q0 36 36 36h146q36 0 36 -36v-56h160v56q0 36 36 36h146q36 0 36 -36v-56h28q24 0 24 -24v-33q0 -24 -24 -24h-28v-499q0 -36 -36 -36h-146q-36 0 -36 36zM270 455h160
v80h-160v-80z" />
    <glyph glyph-name="hbar" unicode="&#x127;" horiz-adv-x="629" 
d="M24 585q-24 0 -24 24v33q0 24 24 24h341q24 0 24 -24v-33q0 -24 -24 -24h-341z" />
    <glyph glyph-name="Itilde" unicode="&#x128;" horiz-adv-x="330" 
d="M56 36v636q0 36 36 36h146q36 0 36 -36v-636q0 -36 -36 -36h-146q-36 0 -36 36zM366 852q0 -47 -24 -72t-68 -25t-81 14l-54 21q-24 10 -46 10t-25 -15l-1 -6q-4 -21 -29 -21h-42q-17 0 -24.5 8.5t-7.5 31.5q0 48 25 75.5t70 27.5q41 0 78 -14l54 -21q25 -10 45 -10
q23 0 26 15l1 6q4 21 29 21h42q32 0 32 -46z" />
    <glyph glyph-name="itilde" unicode="&#x129;" horiz-adv-x="320" 
d="M264 506v-472q0 -34 -34 -34h-140q-34 0 -34 34v472q0 34 34 34h140q34 0 34 -34zM357 689q0 -96 -89 -96q-43 0 -80 14l-54 20q-64 24 -68 -5l-1 -6q-4 -20 -29 -20h-41q-17 0 -24.5 8.5t-7.5 30.5q0 48 23.5 75t68.5 27q40 0 77 -14l54 -20q64 -23 68 5l1 6q4 20 29 20
h41q32 0 32 -45z" />
    <glyph glyph-name="Imacron" unicode="&#x12a;" horiz-adv-x="330" 
d="M56 36v636q0 36 36 36h146q36 0 36 -36v-636q0 -36 -36 -36h-146q-36 0 -36 36zM327 758h-324q-32 0 -32 32v49q0 32 32 32h324q32 0 32 -32v-49q0 -32 -32 -32z" />
    <glyph glyph-name="imacron" unicode="&#x12b;" horiz-adv-x="320" 
d="M264 506v-472q0 -34 -34 -34h-140q-34 0 -34 34v472q0 34 34 34h140q34 0 34 -34zM318 600h-316q-32 0 -32 32v47q0 32 32 32h316q32 0 32 -32v-47q0 -32 -32 -32z" />
    <glyph glyph-name="Ibreve" unicode="&#x12c;" horiz-adv-x="330" 
d="M56 36v636q0 36 36 36h146q36 0 36 -36v-636q0 -36 -36 -36h-146q-36 0 -36 36zM165 752q-88 0 -134 43t-46 103q0 26 26 26h52q25 0 30 -25q10 -53 72 -53t72 53q5 25 30 25h52q26 0 26 -26q0 -60 -46 -103t-134 -43z" />
    <glyph glyph-name="ibreve" unicode="&#x12d;" horiz-adv-x="320" 
d="M264 506v-472q0 -34 -34 -34h-140q-34 0 -34 34v472q0 34 34 34h140q34 0 34 -34zM160 590q-88 0 -133 42t-45 102q0 26 26 26h48q25 0 30 -25q10 -53 74 -53t74 53q5 25 30 25h48q26 0 26 -26q0 -60 -45 -102t-133 -42z" />
    <glyph glyph-name="Iogonek" unicode="&#x12e;" horiz-adv-x="330" 
d="M56 36v636q0 36 36 36h146q36 0 36 -36v-636q0 -36 -36 -36h-22q-45 -28 -45 -65q0 -34 43 -34q10 0 19 2t13 2q13 0 18 -14l13 -42q5 -14 -13 -26q-32 -21 -93 -21q-119 0 -119 86q0 35 26.5 65.5t64.5 46.5h-51q-36 0 -36 36z" />
    <glyph glyph-name="iogonek" unicode="&#x12f;" horiz-adv-x="316" 
d="M262 506v-472q0 -34 -34 -34h-22q-43 -29 -43 -62q0 -32 40 -32q9 0 18 2t13 2q14 0 17 -14l12 -40q4 -15 -12 -25q-32 -20 -89 -20q-112 0 -112 82q0 33 25.5 62t60.5 45h-48q-34 0 -34 34v472q0 34 34 34h140q34 0 34 -34zM264 674v-53q0 -34 -34 -34h-144
q-34 0 -34 34v53q0 34 34 34h144q34 0 34 -34z" />
    <glyph glyph-name="Idotaccent" unicode="&#x130;" horiz-adv-x="330" 
d="M56 36v636q0 36 36 36h146q36 0 36 -36v-636q0 -36 -36 -36h-146q-36 0 -36 36zM263 859v-69q0 -34 -34 -34h-128q-34 0 -34 34v69q0 34 34 34h128q34 0 34 -34z" />
    <glyph glyph-name="dotlessi" unicode="&#x131;" horiz-adv-x="320" 
d="M264 506v-472q0 -34 -34 -34h-140q-34 0 -34 34v472q0 34 34 34h140q34 0 34 -34z" />
    <glyph glyph-name="IJ" unicode="&#x132;" horiz-adv-x="850" 
d="M56 36v636q0 36 36 36h146q36 0 36 -36v-636q0 -36 -36 -36h-146q-36 0 -36 36zM584 267v405q0 36 36 36h146q36 0 36 -36v-423q0 -259 -260 -259q-107 0 -178 44q-29 17 -18 47l35 95q13 37 46 21q36 -17 73 -17q84 0 84 87z" />
    <glyph glyph-name="ij" unicode="&#x133;" horiz-adv-x="646" 
d="M262 506v-472q0 -34 -34 -34h-140q-34 0 -34 34v472q0 34 34 34h140q34 0 34 -34zM264 674v-53q0 -34 -34 -34h-144q-34 0 -34 34v53q0 34 34 34h144q34 0 34 -34zM384 181v325q0 34 34 34h140q34 0 34 -34v-344q0 -92 -41.5 -132t-134.5 -40q-49 0 -87 9q-17 4 -25 11.5
t-8 23.5v82q0 29 28 29q5 0 14 -1.5t17 -1.5q29 0 29 39zM594 674v-53q0 -34 -34 -34h-144q-34 0 -34 34v53q0 34 34 34h144q34 0 34 -34z" />
    <glyph glyph-name="Jcircumflex" unicode="&#x134;" horiz-adv-x="520" 
d="M254 267v405q0 36 36 36h146q36 0 36 -36v-423q0 -259 -260 -259q-107 0 -178 44q-29 17 -18 47l35 95q13 37 46 21q36 -17 73 -17q84 0 84 87zM329 773l-69 54l-69 -54q-19 -15 -35 -15h-56q-15 0 -19.5 10.5t4.5 20.5l92 106q18 21 47 21h72q29 0 47 -21l92 -106
q9 -10 4.5 -20.5t-19.5 -10.5h-56q-16 0 -35 15z" />
    <glyph glyph-name="jcircumflex" unicode="&#x135;" horiz-adv-x="340" 
d="M78 71v435q0 34 34 34h140q34 0 34 -34v-455q0 -91 -41.5 -131t-134.5 -40q-49 0 -87 9q-17 4 -25 11.5t-8 23.5v82q0 29 28 29q4 0 15 -1t16 -1q16 0 22.5 8.5t6.5 29.5zM235 611l-65 54l-65 -54q-17 -15 -35 -15h-56q-15 0 -19.5 10.5t4.5 20.5l88 106q17 21 47 21h72
q30 0 47 -21l88 -106q9 -10 4.5 -20.5t-19.5 -10.5h-56q-18 0 -35 15z" />
    <glyph glyph-name="Kcommaaccent" unicode="&#x136;" horiz-adv-x="666" 
d="M270 465l147 210q23 33 53 33h156q18 0 23.5 -14t-6.5 -31l-205 -286l210 -332q11 -17 5 -31t-24 -14h-156q-31 0 -51 33l-152 244v-241q0 -36 -36 -36h-146q-36 0 -36 36v636q0 36 36 36h146q36 0 36 -36v-207zM430 -201l-55 -110q-10 -18 -26 -18h-31q-24 0 -17 24
l28 101h-32q-30 0 -30 30v97q0 29 32 29h108q32 0 32 -29v-85q0 -20 -9 -39z" />
    <glyph glyph-name="kcommaaccent" unicode="&#x137;" horiz-adv-x="606" 
d="M572 0h-146q-34 0 -53 28l-115 166v-160q0 -34 -34 -34h-140q-34 0 -34 34v640q0 34 34 34h140q34 0 34 -34v-296l106 134q22 28 53 28h142q19 0 24.5 -13.5t-7.5 -29.5l-171 -205l182 -249q12 -17 7 -30t-22 -13zM396 -193l-52 -105q-9 -17 -24 -17h-30q-23 0 -16 23
l27 96h-31q-28 0 -28 28v93q0 27 30 27h102q30 0 30 -27v-81q0 -21 -8 -37z" />
    <glyph glyph-name="kgreenlandic" unicode="&#x138;" horiz-adv-x="606" 
d="M572 0h-146q-34 0 -53 28l-115 166v-165q0 -29 -29 -29h-145q-34 0 -34 34v472q0 34 34 34h140q34 0 34 -34v-128l106 134q22 28 53 28h142q19 0 24.5 -13.5t-7.5 -29.5l-171 -205l182 -249q12 -17 7 -30t-22 -13z" />
    <glyph glyph-name="Lacute" unicode="&#x139;" horiz-adv-x="560" 
d="M270 672v-480h220q36 0 36 -36v-120q0 -36 -36 -36h-402q-36 0 -36 36v636q0 36 36 36h146q36 0 36 -36zM105 784l32 88q10 24 36 24h144q16 0 19 -13.5t-8 -23.5l-83 -85q-16 -16 -42 -16h-77q-14 0 -19.5 7t-1.5 19z" />
    <glyph glyph-name="lacute" unicode="&#x13a;" horiz-adv-x="312" 
d="M260 674v-640q0 -34 -34 -34h-140q-34 0 -34 34v640q0 34 34 34h140q34 0 34 -34zM91 784l32 88q10 24 36 24h144q16 0 19 -13.5t-8 -23.5l-83 -85q-16 -16 -42 -16h-77q-14 0 -19.5 7t-1.5 19z" />
    <glyph glyph-name="Lcommaaccent" unicode="&#x13b;" horiz-adv-x="560" 
d="M270 672v-480h220q36 0 36 -36v-120q0 -36 -36 -36h-402q-36 0 -36 36v636q0 36 36 36h146q36 0 36 -36zM377 -201l-55 -110q-10 -18 -26 -18h-31q-24 0 -17 24l28 101h-32q-30 0 -30 30v97q0 29 32 29h108q32 0 32 -29v-85q0 -20 -9 -39z" />
    <glyph glyph-name="lcommaaccent" unicode="&#x13c;" horiz-adv-x="312" 
d="M260 674v-640q0 -34 -34 -34h-140q-34 0 -34 34v640q0 34 34 34h140q34 0 34 -34zM229 -193l-52 -105q-9 -17 -24 -17h-30q-23 0 -16 23l27 96h-31q-28 0 -28 28v93q0 27 30 27h102q30 0 30 -27v-81q0 -21 -8 -37z" />
    <glyph glyph-name="Lcaron" unicode="&#x13d;" horiz-adv-x="560" 
d="M270 672v-480h220q36 0 36 -36v-120q0 -36 -36 -36h-402q-36 0 -36 36v636q0 36 36 36h146q36 0 36 -36zM522 551l-64 -114q-10 -17 -29 -17h-40q-12 0 -16 8.5t0 18.5l43 106h-42q-34 0 -34 34v109q0 33 37 33h118q37 0 37 -33v-102q0 -27 -10 -43z" />
    <glyph glyph-name="lcaron" unicode="&#x13e;" horiz-adv-x="504" 
d="M260 674v-640q0 -34 -34 -34h-140q-34 0 -34 34v640q0 34 34 34h140q34 0 34 -34zM494 550l-64 -114q-10 -17 -29 -17h-40q-12 0 -16 8.5t0 18.5l43 106h-42q-34 0 -34 34v109q0 33 37 33h118q37 0 37 -33v-102q0 -27 -10 -43z" />
    <glyph glyph-name="Ldot" unicode="&#x13f;" horiz-adv-x="570" 
d="M270 672v-480h220q36 0 36 -36v-120q0 -36 -36 -36h-402q-36 0 -36 36v636q0 36 36 36h146q36 0 36 -36zM352 307v123q0 33 37 33h124q37 0 37 -33v-123q0 -34 -34 -34h-130q-34 0 -34 34z" />
    <glyph glyph-name="ldot" unicode="&#x140;" horiz-adv-x="500" 
d="M260 674v-640q0 -34 -34 -34h-140q-34 0 -34 34v640q0 34 34 34h140q34 0 34 -34zM302 242v123q0 33 37 33h124q37 0 37 -33v-123q0 -34 -34 -34h-130q-34 0 -34 34z" />
    <glyph glyph-name="Lslash" unicode="&#x141;" horiz-adv-x="562" 
d="M272 672v-179l87 51q23 14 35 -9l17 -32q12 -22 -9 -34l-130 -76v-201h220q36 0 36 -36v-120q0 -36 -36 -36h-402q-36 0 -36 36v230l-5 -3q-23 -14 -35 9l-17 32q-12 22 9 34l48 28v306q0 36 36 36h146q36 0 36 -36z" />
    <glyph glyph-name="lslash" unicode="&#x142;" horiz-adv-x="316" 
d="M262 674v-186l5 3q23 14 35 -9l17 -32q12 -22 -9 -34l-48 -28v-354q0 -34 -34 -34h-140q-34 0 -34 34v232l-5 -3q-23 -14 -35 9l-17 32q-12 22 9 34l48 28v308q0 34 34 34h140q34 0 34 -34z" />
    <glyph glyph-name="Nacute" unicode="&#x143;" horiz-adv-x="708" 
d="M656 672v-636q0 -36 -36 -36h-139q-31 0 -43 22l-176 320v-306q0 -36 -36 -36h-138q-36 0 -36 36v636q0 36 36 36h139q31 0 43 -22l176 -320v306q0 36 36 36h138q36 0 36 -36zM269 784l32 88q10 24 36 24h144q16 0 19 -13.5t-8 -23.5l-83 -85q-16 -16 -42 -16h-77
q-14 0 -19.5 7t-1.5 19z" />
    <glyph glyph-name="nacute" unicode="&#x144;" horiz-adv-x="627" 
d="M580 346v-312q0 -34 -34 -34h-140q-34 0 -34 34v271q0 41 -11.5 59t-41.5 18q-63 0 -63 -82v-266q0 -34 -34 -34h-140q-34 0 -34 34v472q0 34 34 34h124q28 0 35 -26l11 -35q52 73 155 73q91 0 132 -51.5t41 -154.5zM229 622l32 87q8 23 35 23h143q16 0 19 -13t-8 -23
l-82 -84q-16 -16 -41 -16h-77q-14 0 -19.5 7t-1.5 19z" />
    <glyph glyph-name="Ncommaaccent" unicode="&#x145;" horiz-adv-x="708" 
d="M656 672v-636q0 -36 -36 -36h-139q-31 0 -43 22l-176 320v-306q0 -36 -36 -36h-138q-36 0 -36 36v636q0 36 36 36h139q31 0 43 -22l176 -320v306q0 36 36 36h138q36 0 36 -36zM398 -201l-55 -110q-10 -18 -26 -18h-31q-24 0 -17 24l28 101h-32q-30 0 -30 30v97
q0 29 32 29h108q32 0 32 -29v-85q0 -20 -9 -39z" />
    <glyph glyph-name="ncommaaccent" unicode="&#x146;" horiz-adv-x="627" 
d="M580 346v-312q0 -34 -34 -34h-140q-34 0 -34 34v271q0 41 -11.5 59t-41.5 18q-63 0 -63 -82v-266q0 -34 -34 -34h-140q-34 0 -34 34v472q0 34 34 34h124q28 0 35 -26l11 -35q52 73 155 73q91 0 132 -51.5t41 -154.5zM386 -193l-52 -105q-9 -17 -24 -17h-30q-23 0 -16 23
l27 96h-31q-28 0 -28 28v93q0 27 30 27h102q30 0 30 -27v-81q0 -21 -8 -37z" />
    <glyph glyph-name="Ncaron" unicode="&#x147;" horiz-adv-x="708" 
d="M656 672v-636q0 -36 -36 -36h-139q-31 0 -43 22l-176 320v-306q0 -36 -36 -36h-138q-36 0 -36 36v636q0 36 36 36h139q31 0 43 -22l176 -320v306q0 36 36 36h138q36 0 36 -36zM321 847l69 54q19 15 35 15h56q15 0 19.5 -10.5t-4.5 -20.5l-92 -106q-18 -21 -47 -21h-72
q-29 0 -47 21l-92 106q-9 10 -4.5 20.5t19.5 10.5h56q16 0 35 -15z" />
    <glyph glyph-name="ncaron" unicode="&#x148;" horiz-adv-x="627" 
d="M580 346v-312q0 -34 -34 -34h-140q-34 0 -34 34v271q0 41 -11.5 59t-41.5 18q-63 0 -63 -82v-266q0 -34 -34 -34h-140q-34 0 -34 34v472q0 34 34 34h124q28 0 35 -26l11 -35q52 73 155 73q91 0 132 -51.5t41 -154.5zM313 685l65 54q17 15 35 15h56q15 0 19.5 -10.5
t-4.5 -20.5l-88 -106q-17 -21 -47 -21h-72q-30 0 -47 21l-88 106q-9 10 -4.5 20.5t19.5 10.5h56q18 0 35 -15z" />
    <glyph glyph-name="napostrophe" unicode="&#x149;" horiz-adv-x="813" 
d="M766 346v-312q0 -34 -34 -34h-140q-34 0 -34 34v271q0 41 -11.5 59t-41.5 18q-63 0 -63 -82v-266q0 -34 -34 -34h-140q-34 0 -34 34v472q0 34 34 34h124q28 0 35 -26l11 -35q52 73 155 73q91 0 132 -51.5t41 -154.5zM182 566l-64 -114q-10 -17 -29 -17h-40q-12 0 -16 8.5
t0 18.5l43 106h-42q-34 0 -34 34v109q0 33 37 33h118q37 0 37 -33v-102q0 -27 -10 -43z" />
    <glyph glyph-name="Eng" unicode="&#x14a;" horiz-adv-x="708" 
d="M656 672v-621q0 -91 -41.5 -131t-134.5 -40q-55 0 -93 9q-17 4 -25 11.5t-8 23.5v82q0 29 28 29q5 0 15.5 -1.5t18.5 -1.5q31 0 32 38l-186 272v-306q0 -36 -36 -36h-138q-36 0 -36 36v636q0 36 36 36h139q31 0 43 -22l176 -310v296q0 36 36 36h138q36 0 36 -36z" />
    <glyph glyph-name="eng" unicode="&#x14b;" horiz-adv-x="627" 
d="M372 71v234q0 41 -11.5 59t-41.5 18q-63 0 -63 -82v-266q0 -34 -34 -34h-140q-34 0 -34 34v472q0 34 34 34h124q28 0 35 -26l11 -35q52 73 155 73q91 0 132 -51.5t41 -155.5v-294q0 -91 -40.5 -131t-133.5 -40q-47 0 -85 9q-17 4 -25 11.5t-8 23.5v82q0 29 28 29
q6 0 14 -0.5t12 -0.5q30 0 30 37z" />
    <glyph glyph-name="Omacron" unicode="&#x14c;" horiz-adv-x="720" 
d="M360 720q154 0 240 -89.5t86 -276.5t-86 -276.5t-240 -89.5t-240 89.5t-86 276.5t86 276.5t240 89.5zM360 174q53 0 79 42t26 138t-26 138t-79 42t-79 -42t-26 -138t26 -138t79 -42zM522 758h-324q-32 0 -32 32v49q0 32 32 32h324q32 0 32 -32v-49q0 -32 -32 -32z" />
    <glyph glyph-name="omacron" unicode="&#x14d;" horiz-adv-x="620" 
d="M310 -12q130 0 205 72t75 210t-75 210t-205 72t-205 -72t-75 -210t75 -210t205 -72zM310 144q-36 0 -52.5 30t-16.5 96t16.5 96t52.5 30t52.5 -30t16.5 -96t-16.5 -96t-52.5 -30zM468 600h-316q-32 0 -32 32v47q0 32 32 32h316q32 0 32 -32v-47q0 -32 -32 -32z" />
    <glyph glyph-name="Obreve" unicode="&#x14e;" horiz-adv-x="720" 
d="M360 720q154 0 240 -89.5t86 -276.5t-86 -276.5t-240 -89.5t-240 89.5t-86 276.5t86 276.5t240 89.5zM360 174q53 0 79 42t26 138t-26 138t-79 42t-79 -42t-26 -138t26 -138t79 -42zM360 752q-88 0 -134 43t-46 103q0 26 26 26h52q25 0 30 -25q10 -53 72 -53t72 53
q5 25 30 25h52q26 0 26 -26q0 -60 -46 -103t-134 -43z" />
    <glyph glyph-name="obreve" unicode="&#x14f;" horiz-adv-x="620" 
d="M310 -12q-130 0 -205 72t-75 210t75 210t205 72t205 -72t75 -210t-75 -210t-205 -72zM310 144q36 0 52.5 30t16.5 96t-16.5 96t-52.5 30t-52.5 -30t-16.5 -96t16.5 -96t52.5 -30zM310 590q-88 0 -133 42t-45 102q0 26 26 26h48q25 0 30 -25q10 -53 74 -53t74 53
q5 25 30 25h48q26 0 26 -26q0 -60 -45 -102t-133 -42z" />
    <glyph glyph-name="Ohungarumlaut" unicode="&#x150;" horiz-adv-x="720" 
d="M360 720q154 0 240 -89.5t86 -276.5t-86 -276.5t-240 -89.5t-240 89.5t-86 276.5t86 276.5t240 89.5zM360 174q53 0 79 42t26 138t-26 138t-79 42t-79 -42t-26 -138t26 -138t79 -42zM189 792l28 92q8 24 35 24h137q16 0 20.5 -14t-5.5 -24l-77 -89q-14 -17 -42 -17h-72
q-15 0 -21.5 8t-2.5 20zM411 792l29 92q7 24 35 24h136q16 0 20.5 -13.5t-5.5 -24.5l-76 -89q-14 -17 -43 -17h-72q-15 0 -21.5 8t-2.5 20z" />
    <glyph glyph-name="ohungarumlaut" unicode="&#x151;" horiz-adv-x="620" 
d="M310 -12q130 0 205 72t75 210t-75 210t-205 72t-205 -72t-75 -210t75 -210t205 -72zM310 144q-36 0 -52.5 30t-16.5 96t16.5 96t52.5 30t52.5 -30t16.5 -96t-16.5 -96t-52.5 -30zM139 622l27 87q7 23 33 23h129q16 0 20 -13t-6 -23l-72 -84q-13 -16 -40 -16h-68
q-14 0 -20.5 7.5t-2.5 18.5zM349 622l27 87q7 23 33 23h129q16 0 20 -13t-6 -23l-72 -84q-13 -16 -40 -16h-68q-14 0 -20 7.5t-3 18.5z" />
    <glyph glyph-name="OE" unicode="&#x152;" horiz-adv-x="936" 
d="M845 273h-201v-93h222q36 0 36 -36v-108q0 -36 -36 -36h-467q-176 0 -261.5 85t-85.5 269t85.5 269t261.5 85h461q36 0 36 -36v-108q0 -36 -36 -36h-216v-83h201q35 0 35 -36v-101q0 -35 -35 -35zM430 520h-21q-73 0 -105 -35.5t-32 -130.5t32 -130.5t105 -35.5h21v332z
" />
    <glyph glyph-name="oe" unicode="&#x153;" horiz-adv-x="930" 
d="M693 128q60 0 125 29q32 13 43 -21l20 -62q9 -27 -21 -43q-84 -43 -187 -43q-58 0 -109 19t-82 50q-66 -69 -179 -69q-127 0 -200 72t-73 210t72 210t194 72t184 -66q59 66 175 66q113 0 179 -72.5t66 -193.5v-48q0 -34 -34 -34h-289q22 -76 116 -76zM308 144
q36 0 53.5 30t17.5 96t-17.5 96t-53.5 30t-51.5 -29.5t-15.5 -96.5t15.5 -96.5t51.5 -29.5zM649 412q-36 0 -55 -24t-24 -76h149v7q0 93 -70 93z" />
    <glyph glyph-name="Racute" unicode="&#x154;" horiz-adv-x="678" 
d="M268 380h72q47 0 67.5 18t20.5 56q0 43 -20 58.5t-68 15.5h-72v-148zM88 708h255q151 0 227 -58.5t76 -195.5q0 -151 -128 -211l120 -198q11 -18 5 -31.5t-25 -13.5h-146q-33 0 -50 29l-103 181h-51v-174q0 -36 -36 -36h-144q-36 0 -36 36v636q0 36 36 36zM264 784l32 88
q10 24 36 24h144q16 0 19 -13.5t-8 -23.5l-83 -85q-16 -16 -42 -16h-77q-14 0 -19.5 7t-1.5 19z" />
    <glyph glyph-name="racute" unicode="&#x155;" horiz-adv-x="448" 
d="M82 540h124q27 0 34 -29l12 -52q19 36 58 62.5t87 26.5q18 0 25.5 -7.5t7.5 -24.5v-136q0 -27 -29 -27q-7 0 -20.5 1.5t-23.5 1.5q-49 0 -75 -25t-26 -69v-228q0 -34 -34 -34h-140q-34 0 -34 34v472q0 34 34 34zM150 622l32 87q8 23 35 23h143q16 0 19 -13t-8 -23
l-82 -84q-16 -16 -41 -16h-77q-14 0 -19.5 7t-1.5 19z" />
    <glyph glyph-name="Rcommaaccent" unicode="&#x156;" horiz-adv-x="678" 
d="M268 380h72q47 0 67.5 18t20.5 56q0 43 -20 58.5t-68 15.5h-72v-148zM88 708h255q151 0 227 -58.5t76 -195.5q0 -151 -128 -211l120 -198q11 -18 5 -31.5t-25 -13.5h-146q-33 0 -50 29l-103 181h-51v-174q0 -36 -36 -36h-144q-36 0 -36 36v636q0 36 36 36zM416 -201
l-55 -110q-10 -18 -26 -18h-31q-24 0 -17 24l28 101h-32q-30 0 -30 30v97q0 29 32 29h108q32 0 32 -29v-85q0 -20 -9 -39z" />
    <glyph glyph-name="rcommaaccent" unicode="&#x157;" horiz-adv-x="448" 
d="M82 540h124q27 0 34 -29l12 -52q19 36 58 62.5t87 26.5q18 0 25.5 -7.5t7.5 -24.5v-136q0 -27 -29 -27q-7 0 -20.5 1.5t-23.5 1.5q-49 0 -75 -25t-26 -69v-228q0 -34 -34 -34h-140q-34 0 -34 34v472q0 34 34 34zM225 -193l-52 -105q-9 -17 -24 -17h-30q-23 0 -16 23
l27 96h-31q-28 0 -28 28v93q0 27 30 27h102q30 0 30 -27v-81q0 -21 -8 -37z" />
    <glyph glyph-name="Rcaron" unicode="&#x158;" horiz-adv-x="678" 
d="M268 380h72q47 0 67.5 18t20.5 56q0 43 -20 58.5t-68 15.5h-72v-148zM88 708h255q151 0 227 -58.5t76 -195.5q0 -151 -128 -211l120 -198q11 -18 5 -31.5t-25 -13.5h-146q-33 0 -50 29l-103 181h-51v-174q0 -36 -36 -36h-144q-36 0 -36 36v636q0 36 36 36zM333 847l69 54
q19 15 35 15h56q15 0 19.5 -10.5t-4.5 -20.5l-92 -106q-18 -21 -47 -21h-72q-29 0 -47 21l-92 106q-9 10 -4.5 20.5t19.5 10.5h56q16 0 35 -15z" />
    <glyph glyph-name="rcaron" unicode="&#x159;" horiz-adv-x="448" 
d="M82 540h124q27 0 34 -29l12 -52q19 36 58 62.5t87 26.5q18 0 25.5 -7.5t7.5 -24.5v-136q0 -27 -29 -27q-7 0 -20.5 1.5t-23.5 1.5q-49 0 -75 -25t-26 -69v-228q0 -34 -34 -34h-140q-34 0 -34 34v472q0 34 34 34zM224 685l65 54q17 15 35 15h56q15 0 19.5 -10.5
t-4.5 -20.5l-88 -106q-17 -21 -47 -21h-72q-30 0 -47 21l-88 106q-9 10 -4.5 20.5t19.5 10.5h56q18 0 35 -15z" />
    <glyph glyph-name="Sacute" unicode="&#x15a;" horiz-adv-x="606" 
d="M578 209q0 -77 -40 -128t-100.5 -71.5t-137.5 -20.5q-151 0 -245 50q-30 15 -19 45l35 93q14 35 46 21q73 -30 142 -30q101 0 101 42q0 18 -23 31t-77 31q-39 13 -65 23.5t-58 30.5t-51 43.5t-32 60t-13 82.5q0 207 273 207q132 0 216 -46q30 -16 19 -45l-34 -88
q-13 -32 -46 -21q-63 21 -132 21q-38 0 -58 -7t-20 -29q0 -18 22.5 -32t76.5 -34l44 -16.5t39 -16t38.5 -19.5l31.5 -22t29 -28t19.5 -33t14.5 -42.5t4 -51.5zM228 784l32 88q10 24 36 24h144q16 0 19 -13.5t-8 -23.5l-83 -85q-16 -16 -42 -16h-77q-14 0 -19.5 7t-1.5 19z
" />
    <glyph glyph-name="sacute" unicode="&#x15b;" horiz-adv-x="500" 
d="M474 154q0 -166 -242 -166q-104 0 -181 30q-30 12 -22 43l19 66q9 32 43 22q54 -16 102 -16q77 0 77 29q0 13 -16 21.5t-56 21.5l-47.5 16t-43 20.5t-42 32t-25 46t-11.5 66.5q0 84 61 125t168 41q102 0 168 -27q30 -12 22 -43l-19 -66q-9 -31 -43 -22q-46 13 -95 13
q-58 0 -58 -29q0 -10 11 -19t24 -14.5t41 -16.5l52.5 -20t43 -22.5t38 -31.5t22 -41.5t9.5 -58.5zM181 622l32 87q8 23 35 23h143q16 0 19 -13t-8 -23l-82 -84q-16 -16 -41 -16h-77q-14 0 -19.5 7t-1.5 19z" />
    <glyph glyph-name="Scircumflex" unicode="&#x15c;" horiz-adv-x="606" 
d="M578 209q0 -77 -40 -128t-100.5 -71.5t-137.5 -20.5q-151 0 -245 50q-30 15 -19 45l35 93q14 35 46 21q73 -30 142 -30q101 0 101 42q0 18 -23 31t-77 31q-39 13 -65 23.5t-58 30.5t-51 43.5t-32 60t-13 82.5q0 207 273 207q132 0 216 -46q30 -16 19 -45l-34 -88
q-13 -32 -46 -21q-63 21 -132 21q-38 0 -58 -7t-20 -29q0 -18 22.5 -32t76.5 -34l44 -16.5t39 -16t38.5 -19.5l31.5 -22t29 -28t19.5 -33t14.5 -42.5t4 -51.5zM372 773l-69 54l-69 -54q-19 -15 -35 -15h-56q-15 0 -19.5 10.5t4.5 20.5l92 106q18 21 47 21h72q29 0 47 -21
l92 -106q9 -10 4.5 -20.5t-19.5 -10.5h-56q-16 0 -35 15z" />
    <glyph glyph-name="scircumflex" unicode="&#x15d;" horiz-adv-x="500" 
d="M474 154q0 -166 -242 -166q-104 0 -181 30q-30 12 -22 43l19 66q9 32 43 22q54 -16 102 -16q77 0 77 29q0 13 -16 21.5t-56 21.5l-47.5 16t-43 20.5t-42 32t-25 46t-11.5 66.5q0 84 61 125t168 41q102 0 168 -27q30 -12 22 -43l-19 -66q-9 -31 -43 -22q-46 13 -95 13
q-58 0 -58 -29q0 -10 11 -19t24 -14.5t41 -16.5l52.5 -20t43 -22.5t38 -31.5t22 -41.5t9.5 -58.5zM315 611l-65 54l-65 -54q-17 -15 -35 -15h-56q-15 0 -19.5 10.5t4.5 20.5l88 106q17 21 47 21h72q30 0 47 -21l88 -106q9 -10 4.5 -20.5t-19.5 -10.5h-56q-18 0 -35 15z" />
    <glyph glyph-name="Scedilla" unicode="&#x15e;" horiz-adv-x="606" 
d="M578 209q0 -102 -65 -155.5t-170 -62.5q77 -36 77 -96q0 -44 -33 -68.5t-96 -24.5q-41 0 -66 8q-19 6 -19 22v45q0 20 22 20h35q22 0 33 9.5t11 23.5q0 35 -44 60q-129 7 -208 49q-30 15 -19 45l35 93q14 35 46 21q73 -30 142 -30q101 0 101 42q0 18 -23 31t-77 31
q-39 13 -65 23.5t-58 30.5t-51 43.5t-32 60t-13 82.5q0 207 273 207q132 0 216 -46q30 -16 19 -45l-34 -88q-13 -32 -46 -21q-63 21 -132 21q-38 0 -58 -7t-20 -29q0 -18 22.5 -32t76.5 -34l44 -16.5t39 -16t38.5 -19.5l31.5 -22t29 -28t19.5 -33t14.5 -42.5t4 -51.5z" />
    <glyph glyph-name="scedilla" unicode="&#x15f;" horiz-adv-x="500" 
d="M474 154q0 -146 -184 -163q72 -35 72 -91q0 -42 -31.5 -65.5t-91.5 -23.5q-39 0 -63 8q-18 5 -18 21v43q0 19 21 19h33q42 0 42 31t-38 55q-96 3 -165 30q-30 12 -22 43l19 66q9 32 43 22q54 -16 102 -16q77 0 77 29q0 13 -16 21.5t-56 21.5l-47.5 16t-43 20.5t-42 32
t-25 46t-11.5 66.5q0 84 61 125t168 41q102 0 168 -27q30 -12 22 -43l-19 -66q-9 -31 -43 -22q-46 13 -95 13q-58 0 -58 -29q0 -10 11 -19t24 -14.5t41 -16.5l52.5 -20t43 -22.5t38 -31.5t22 -41.5t9.5 -58.5z" />
    <glyph glyph-name="Scaron" unicode="&#x160;" horiz-adv-x="606" 
d="M578 209q0 -77 -40 -128t-100.5 -71.5t-137.5 -20.5q-151 0 -245 50q-30 15 -19 45l35 93q14 35 46 21q73 -30 142 -30q101 0 101 42q0 18 -23 31t-77 31q-39 13 -65 23.5t-58 30.5t-51 43.5t-32 60t-13 82.5q0 207 273 207q132 0 216 -46q30 -16 19 -45l-34 -88
q-13 -32 -46 -21q-63 21 -132 21q-38 0 -58 -7t-20 -29q0 -18 22.5 -32t76.5 -34l44 -16.5t39 -16t38.5 -19.5l31.5 -22t29 -28t19.5 -33t14.5 -42.5t4 -51.5zM299 847l69 54q19 15 35 15h56q15 0 19.5 -10.5t-4.5 -20.5l-92 -106q-18 -21 -47 -21h-72q-29 0 -47 21l-92 106
q-9 10 -4.5 20.5t19.5 10.5h56q16 0 35 -15z" />
    <glyph glyph-name="scaron" unicode="&#x161;" horiz-adv-x="500" 
d="M474 154q0 -166 -242 -166q-104 0 -181 30q-30 12 -22 43l19 66q9 32 43 22q54 -16 102 -16q77 0 77 29q0 13 -16 21.5t-56 21.5l-47.5 16t-43 20.5t-42 32t-25 46t-11.5 66.5q0 84 61 125t168 41q102 0 168 -27q30 -12 22 -43l-19 -66q-9 -31 -43 -22q-46 13 -95 13
q-58 0 -58 -29q0 -10 11 -19t24 -14.5t41 -16.5l52.5 -20t43 -22.5t38 -31.5t22 -41.5t9.5 -58.5zM250 685l65 54q17 15 35 15h56q15 0 19.5 -10.5t-4.5 -20.5l-88 -106q-17 -21 -47 -21h-72q-30 0 -47 21l-88 106q-9 10 -4.5 20.5t19.5 10.5h56q18 0 35 -15z" />
    <glyph glyph-name="Tcommaaccent" unicode="&#x162;" horiz-adv-x="590" 
d="M22 552v120q0 36 36 36h474q36 0 36 -36v-120q0 -36 -36 -36h-128v-480q0 -36 -36 -36h-146q-36 0 -36 36v480h-128q-36 0 -36 36zM372 -201l-55 -110q-10 -18 -26 -18h-31q-24 0 -17 24l28 101h-32q-30 0 -30 30v97q0 29 32 29h108q32 0 32 -29v-85q0 -20 -9 -39z" />
    <glyph glyph-name="tcommaaccent" unicode="&#x163;" horiz-adv-x="416" 
d="M354 370h-78v-184q0 -25 10.5 -34.5t36.5 -9.5q4 0 16.5 1.5t20.5 1.5q28 0 28 -31v-80q0 -16 -8 -23.5t-25 -11.5q-38 -9 -95 -9q-98 0 -143 39.5t-45 133.5v207h-32q-34 0 -34 34v78q0 34 34 34h34v118q0 30 35 30h130q35 0 35 -30v-118h80q34 0 34 -34v-78
q0 -34 -34 -34zM297 -193l-52 -105q-9 -17 -24 -17h-30q-23 0 -16 23l27 96h-31q-28 0 -28 28v93q0 27 30 27h102q30 0 30 -27v-81q0 -21 -8 -37z" />
    <glyph glyph-name="Tcaron" unicode="&#x164;" horiz-adv-x="590" 
d="M22 552v120q0 36 36 36h474q36 0 36 -36v-120q0 -36 -36 -36h-128v-480q0 -36 -36 -36h-146q-36 0 -36 36v480h-128q-36 0 -36 36zM295 847l69 54q19 15 35 15h56q15 0 19.5 -10.5t-4.5 -20.5l-92 -106q-18 -21 -47 -21h-72q-29 0 -47 21l-92 106q-9 10 -4.5 20.5
t19.5 10.5h56q16 0 35 -15z" />
    <glyph glyph-name="tcaron" unicode="&#x165;" horiz-adv-x="598" 
d="M354 370h-78v-184q0 -25 10.5 -34.5t36.5 -9.5q4 0 16.5 1.5t20.5 1.5q28 0 28 -31v-80q0 -16 -8 -23.5t-25 -11.5q-38 -9 -95 -9q-98 0 -143 39.5t-45 133.5v207h-32q-34 0 -34 34v78q0 34 34 34h34v118q0 30 35 30h130q35 0 35 -30v-118h80q34 0 34 -34v-78
q0 -34 -34 -34zM588 550l-64 -114q-10 -17 -29 -17h-40q-12 0 -16 8.5t0 18.5l43 106h-42q-34 0 -34 34v109q0 33 37 33h118q37 0 37 -33v-102q0 -27 -10 -43z" />
    <glyph glyph-name="Tbar" unicode="&#x166;" horiz-adv-x="590" 
d="M22 552v120q0 36 36 36h474q36 0 36 -36v-120q0 -36 -36 -36h-128v-160h76q24 0 24 -24v-53q0 -24 -24 -24h-76v-219q0 -36 -36 -36h-146q-36 0 -36 36v219h-76q-24 0 -24 24v53q0 24 24 24h76v160h-128q-36 0 -36 36z" />
    <glyph glyph-name="tbar" unicode="&#x167;" horiz-adv-x="416" 
d="M354 370h-78v-64h68q24 0 24 -24v-43q0 -24 -24 -24h-68v-29q0 -25 10.5 -34.5t36.5 -9.5q4 0 16.5 1.5t20.5 1.5q28 0 28 -31v-80q0 -16 -8 -23.5t-25 -11.5q-38 -9 -95 -9q-98 0 -143 39t-45 135v51h-42q-24 0 -24 24v43q0 24 24 24h42v64h-32q-34 0 -34 34v78
q0 34 34 34h34v118q0 30 35 30h130q35 0 35 -30v-118h80q34 0 34 -34v-78q0 -34 -34 -34z" />
    <glyph glyph-name="Utilde" unicode="&#x168;" horiz-adv-x="690" 
d="M345 -11q-296 0 -296 277v406q0 36 36 36h146q36 0 36 -36v-385q0 -56 18 -81t60 -25t60 25t18 80v386q0 36 36 36h146q36 0 36 -36v-406q0 -277 -296 -277zM546 852q0 -47 -24 -72t-68 -25t-81 14l-54 21q-24 10 -46 10t-25 -15l-1 -6q-4 -21 -29 -21h-42
q-17 0 -24.5 8.5t-7.5 31.5q0 48 25 75.5t70 27.5q41 0 78 -14l54 -21q25 -10 45 -10q23 0 26 15l1 6q4 21 29 21h42q32 0 32 -46z" />
    <glyph glyph-name="utilde" unicode="&#x169;" horiz-adv-x="622" 
d="M46 183v323q0 34 34 34h140q34 0 34 -34v-281q0 -36 10 -53.5t39 -17.5q63 0 63 80v272q0 34 34 34h140q34 0 34 -34v-472q0 -34 -34 -34h-124q-28 0 -35 26l-11 35q-48 -73 -147 -73q-92 0 -134.5 45t-42.5 150zM508 689q0 -96 -89 -96q-43 0 -80 14l-54 20
q-64 24 -68 -5l-1 -6q-4 -20 -29 -20h-41q-17 0 -24.5 8.5t-7.5 30.5q0 48 23.5 75t68.5 27q40 0 77 -14l54 -20q64 -23 68 5l1 6q4 20 29 20h41q32 0 32 -45z" />
    <glyph glyph-name="Umacron" unicode="&#x16a;" horiz-adv-x="690" 
d="M345 -11q-296 0 -296 277v406q0 36 36 36h146q36 0 36 -36v-385q0 -56 18 -81t60 -25t60 25t18 80v386q0 36 36 36h146q36 0 36 -36v-406q0 -277 -296 -277zM507 758h-324q-32 0 -32 32v49q0 32 32 32h324q32 0 32 -32v-49q0 -32 -32 -32z" />
    <glyph glyph-name="umacron" unicode="&#x16b;" horiz-adv-x="622" 
d="M46 183v323q0 34 34 34h140q34 0 34 -34v-281q0 -36 10 -53.5t39 -17.5q63 0 63 80v272q0 34 34 34h140q34 0 34 -34v-472q0 -34 -34 -34h-124q-28 0 -35 26l-11 35q-48 -73 -147 -73q-92 0 -134.5 45t-42.5 150zM469 600h-316q-32 0 -32 32v47q0 32 32 32h316
q32 0 32 -32v-47q0 -32 -32 -32z" />
    <glyph glyph-name="Ubreve" unicode="&#x16c;" horiz-adv-x="690" 
d="M345 -11q-296 0 -296 277v406q0 36 36 36h146q36 0 36 -36v-385q0 -56 18 -81t60 -25t60 25t18 80v386q0 36 36 36h146q36 0 36 -36v-406q0 -277 -296 -277zM345 752q-88 0 -134 43t-46 103q0 26 26 26h52q25 0 30 -25q10 -53 72 -53t72 53q5 25 30 25h52q26 0 26 -26
q0 -60 -46 -103t-134 -43z" />
    <glyph glyph-name="ubreve" unicode="&#x16d;" horiz-adv-x="622" 
d="M46 183v323q0 34 34 34h140q34 0 34 -34v-281q0 -36 10 -53.5t39 -17.5q63 0 63 80v272q0 34 34 34h140q34 0 34 -34v-472q0 -34 -34 -34h-124q-28 0 -35 26l-11 35q-48 -73 -147 -73q-92 0 -134.5 45t-42.5 150zM311 590q-88 0 -133 42t-45 102q0 26 26 26h48
q25 0 30 -25q10 -53 74 -53t74 53q5 25 30 25h48q26 0 26 -26q0 -60 -45 -102t-133 -42z" />
    <glyph glyph-name="Uring" unicode="&#x16e;" horiz-adv-x="690" 
d="M345 -11q-296 0 -296 277v406q0 36 36 36h146q36 0 36 -36v-385q0 -56 18 -81t60 -25t60 25t18 80v386q0 36 36 36h146q36 0 36 -36v-406q0 -277 -296 -277zM292 849q0 -22 15.5 -36.5t37.5 -14.5t37.5 14.5t15.5 36.5t-15.5 36.5t-37.5 14.5t-37.5 -14.5t-15.5 -36.5z
M214 849q0 54 37.5 87.5t93.5 33.5t93.5 -33.5t37.5 -87.5t-37.5 -87.5t-93.5 -33.5t-93.5 33.5t-37.5 87.5z" />
    <glyph glyph-name="uring" unicode="&#x16f;" horiz-adv-x="622" 
d="M46 183v323q0 34 34 34h140q34 0 34 -34v-281q0 -36 10 -53.5t39 -17.5q63 0 63 80v272q0 34 34 34h140q34 0 34 -34v-472q0 -34 -34 -34h-124q-28 0 -35 26l-11 35q-48 -73 -147 -73q-92 0 -134.5 45t-42.5 150zM311 658q21 0 36 14t15 35t-15 35t-36 14t-36 -14
t-15 -35t15 -35t36 -14zM311 824q54 0 90.5 -32.5t36.5 -84.5t-36.5 -84.5t-90.5 -32.5t-90.5 32.5t-36.5 84.5t36.5 84.5t90.5 32.5z" />
    <glyph glyph-name="Uhungarumlaut" unicode="&#x170;" horiz-adv-x="690" 
d="M345 -11q-296 0 -296 277v406q0 36 36 36h146q36 0 36 -36v-385q0 -56 18 -81t60 -25t60 25t18 80v386q0 36 36 36h146q36 0 36 -36v-406q0 -277 -296 -277zM160 792l28 92q8 24 35 24h137q16 0 20.5 -14t-5.5 -24l-77 -89q-14 -17 -42 -17h-72q-15 0 -21.5 8t-2.5 20z
M382 792l29 92q7 24 35 24h136q16 0 20.5 -13.5t-5.5 -24.5l-76 -89q-14 -17 -43 -17h-72q-15 0 -21.5 8t-2.5 20z" />
    <glyph glyph-name="uhungarumlaut" unicode="&#x171;" horiz-adv-x="622" 
d="M46 183v323q0 34 34 34h140q34 0 34 -34v-281q0 -36 10 -53.5t39 -17.5q63 0 63 80v272q0 34 34 34h140q34 0 34 -34v-472q0 -34 -34 -34h-124q-28 0 -35 26l-11 35q-48 -73 -147 -73q-92 0 -134.5 45t-42.5 150zM136 622l27 87q7 23 33 23h129q16 0 20 -13t-6 -23
l-72 -84q-13 -16 -40 -16h-68q-14 0 -20.5 7.5t-2.5 18.5zM346 622l27 87q7 23 33 23h129q16 0 20 -13t-6 -23l-72 -84q-13 -16 -40 -16h-68q-14 0 -20 7.5t-3 18.5z" />
    <glyph glyph-name="Uogonek" unicode="&#x172;" horiz-adv-x="690" 
d="M641 266q0 -248 -236 -274q-34 -26 -34 -57q0 -34 43 -34q10 0 19 2t13 2q13 0 18 -14l13 -42q5 -14 -13 -26q-32 -21 -93 -21q-119 0 -119 86q0 60 70 102q-273 9 -273 276v406q0 36 36 36h146q36 0 36 -36v-385q0 -56 18 -81t60 -25t60 25t18 80v386q0 36 36 36h146
q36 0 36 -36v-406z" />
    <glyph glyph-name="uogonek" unicode="&#x173;" horiz-adv-x="622" 
d="M46 183v323q0 34 34 34h140q34 0 34 -34v-281q0 -36 10 -53.5t39 -17.5q63 0 63 80v272q0 34 34 34h140q34 0 34 -34v-472q0 -34 -34 -34h-20q-43 -29 -43 -62q0 -32 40 -32q9 0 18 2t13 2q14 0 17 -14l12 -40q4 -15 -12 -25q-32 -20 -89 -20q-112 0 -112 82
q0 33 25.5 62t60.5 45h-34q-28 0 -35 26l-11 35q-48 -73 -147 -73q-92 0 -134.5 45t-42.5 150z" />
    <glyph glyph-name="Wcircumflex" unicode="&#x174;" horiz-adv-x="1032" 
d="M454 708h124q37 0 44 -32l54 -240l32 -163h4l31 163l49 239q8 33 44 33h150q38 0 27 -43l-168 -633q-9 -32 -43 -32h-153q-34 0 -43 32l-60 232l-28 126h-4l-28 -126l-60 -232q-9 -32 -43 -32h-153q-34 0 -43 32l-168 633q-11 43 27 43h150q36 0 44 -33l49 -239l31 -163
h4l32 163l54 240q7 32 44 32zM585 773l-69 54l-69 -54q-19 -15 -35 -15h-56q-15 0 -19.5 10.5t4.5 20.5l92 106q18 21 47 21h72q29 0 47 -21l92 -106q9 -10 4.5 -20.5t-19.5 -10.5h-56q-16 0 -35 15z" />
    <glyph glyph-name="wcircumflex" unicode="&#x175;" horiz-adv-x="888" 
d="M397 540h94q30 0 37 -28l51 -197l21 -107h3l18 107l39 194q6 31 41 31h144q18 0 24.5 -11t1.5 -29l-137 -467q-9 -33 -43 -33h-130q-36 0 -46 34l-44 161l-25 110h-4l-25 -110l-44 -161q-10 -34 -46 -34h-130q-34 0 -43 33l-137 467q-5 18 1.5 29t24.5 11h144
q35 0 41 -31l39 -194l18 -107h3l21 107l51 197q7 28 37 28zM509 611l-65 54l-65 -54q-17 -15 -35 -15h-56q-15 0 -19.5 10.5t4.5 20.5l88 106q17 21 47 21h72q30 0 47 -21l88 -106q9 -10 4.5 -20.5t-19.5 -10.5h-56q-18 0 -35 15z" />
    <glyph glyph-name="Ycircumflex" unicode="&#x176;" horiz-adv-x="696" 
d="M457 261v-225q0 -36 -36 -36h-146q-36 0 -36 36v225l-220 402q-9 17 -1.5 31t25.5 14h152q33 0 48 -33l71 -159l32 -87h4l32 87l71 159q15 33 48 33h152q18 0 25.5 -14t-1.5 -31zM417 773l-69 54l-69 -54q-19 -15 -35 -15h-56q-15 0 -19.5 10.5t4.5 20.5l92 106
q18 21 47 21h72q29 0 47 -21l92 -106q9 -10 4.5 -20.5t-19.5 -10.5h-56q-16 0 -35 15z" />
    <glyph glyph-name="ycircumflex" unicode="&#x177;" horiz-adv-x="592" 
d="M581 500l-138 -440q-17 -54 -31.5 -84t-40 -54t-62 -33t-94.5 -9q-84 0 -126 11q-17 4 -25 11.5t-8 23.5v80q0 29 28 29q7 0 28 -2.5t38 -2.5q53 0 36 43l-172 427q-7 17 -0.5 28.5t24.5 11.5h144q33 0 42 -31l54 -193l31 -133h4l22 133l38 193q6 31 40 31h140
q18 0 25.5 -11.5t2.5 -28.5zM361 611l-65 54l-65 -54q-17 -15 -35 -15h-56q-15 0 -19.5 10.5t4.5 20.5l88 106q17 21 47 21h72q30 0 47 -21l88 -106q9 -10 4.5 -20.5t-19.5 -10.5h-56q-18 0 -35 15z" />
    <glyph glyph-name="Ydieresis" unicode="&#x178;" horiz-adv-x="696" 
d="M457 261v-225q0 -36 -36 -36h-146q-36 0 -36 36v225l-220 402q-9 17 -1.5 31t25.5 14h152q33 0 48 -33l71 -159l32 -87h4l32 87l71 159q15 33 48 33h152q18 0 25.5 -14t-1.5 -31zM320 845v-53q0 -34 -34 -34h-102q-34 0 -34 34v53q0 34 34 34h102q34 0 34 -34zM546 845
v-53q0 -34 -34 -34h-102q-34 0 -34 34v53q0 34 34 34h102q34 0 34 -34z" />
    <glyph glyph-name="Zacute" unicode="&#x179;" horiz-adv-x="632" 
d="M42 36v114q0 27 23 55l259 311h-236q-36 0 -36 36v120q0 36 36 36h456q36 0 36 -36v-114q0 -27 -23 -55l-258 -311h253q36 0 36 -36v-120q0 -36 -36 -36h-474q-36 0 -36 36zM241 784l32 88q10 24 36 24h144q16 0 19 -13.5t-8 -23.5l-83 -85q-16 -16 -42 -16h-77
q-14 0 -19.5 7t-1.5 19z" />
    <glyph glyph-name="zacute" unicode="&#x17a;" horiz-adv-x="550" 
d="M510 506v-70q0 -25 -20 -47l-215 -229h207q34 0 34 -34v-92q0 -34 -34 -34h-414q-34 0 -34 34v70q0 24 16 42l219 234h-191q-34 0 -34 34v92q0 34 34 34h398q34 0 34 -34zM200 622l32 87q8 23 35 23h143q16 0 19 -13t-8 -23l-82 -84q-16 -16 -41 -16h-77q-14 0 -19.5 7
t-1.5 19z" />
    <glyph glyph-name="Zdotaccent" unicode="&#x17b;" horiz-adv-x="632" 
d="M42 36v114q0 27 23 55l259 311h-236q-36 0 -36 36v120q0 36 36 36h456q36 0 36 -36v-114q0 -27 -23 -55l-258 -311h253q36 0 36 -36v-120q0 -36 -36 -36h-474q-36 0 -36 36zM414 859v-69q0 -34 -34 -34h-128q-34 0 -34 34v69q0 34 34 34h128q34 0 34 -34z" />
    <glyph glyph-name="zdotaccent" unicode="&#x17c;" horiz-adv-x="550" 
d="M510 506v-70q0 -25 -20 -47l-215 -229h207q34 0 34 -34v-92q0 -34 -34 -34h-414q-34 0 -34 34v70q0 24 16 42l219 234h-191q-34 0 -34 34v92q0 34 34 34h398q34 0 34 -34zM373 692v-65q0 -34 -34 -34h-128q-34 0 -34 34v65q0 34 34 34h128q34 0 34 -34z" />
    <glyph glyph-name="Zcaron" unicode="&#x17d;" horiz-adv-x="632" 
d="M42 36v114q0 27 23 55l259 311h-236q-36 0 -36 36v120q0 36 36 36h456q36 0 36 -36v-114q0 -27 -23 -55l-258 -311h253q36 0 36 -36v-120q0 -36 -36 -36h-474q-36 0 -36 36zM316 847l69 54q19 15 35 15h56q15 0 19.5 -10.5t-4.5 -20.5l-92 -106q-18 -21 -47 -21h-72
q-29 0 -47 21l-92 106q-9 10 -4.5 20.5t19.5 10.5h56q16 0 35 -15z" />
    <glyph glyph-name="zcaron" unicode="&#x17e;" horiz-adv-x="550" 
d="M510 506v-70q0 -25 -20 -47l-215 -229h207q34 0 34 -34v-92q0 -34 -34 -34h-414q-34 0 -34 34v70q0 24 16 42l219 234h-191q-34 0 -34 34v92q0 34 34 34h398q34 0 34 -34zM275 685l65 54q17 15 35 15h56q15 0 19.5 -10.5t-4.5 -20.5l-88 -106q-17 -21 -47 -21h-72
q-30 0 -47 21l-88 106q-9 10 -4.5 20.5t19.5 10.5h56q18 0 35 -15z" />
    <glyph glyph-name="longs" unicode="&#x17f;" horiz-adv-x="382" 
d="M274 532v-502q0 -30 -35 -30h-126q-35 0 -35 30v340h-32q-34 0 -34 34v78q0 34 34 34h32v33q0 90 45 129.5t142 39.5q50 0 84 -8q17 -4 25 -11.5t8 -23.5v-70q0 -35 -28 -35q-8 0 -19.5 1t-15.5 1q-26 0 -35.5 -9t-9.5 -31z" />
    <glyph glyph-name="florin" unicode="&#x192;" horiz-adv-x="650" 
d="M447 532l-17 -134h104q24 0 21 -25l-5 -37q-3 -23 -27 -23h-104l-33 -262q-11 -91 -57.5 -131t-139.5 -40q-51 0 -87 9q-17 4 -24 11.5t-5 23.5l11 82q4 29 31 29q5 0 14.5 -1.5t17.5 -1.5q28 0 34 39l30 242h-82q-24 0 -21 25l5 37q3 23 27 23h82l19 151
q11 90 62.5 129.5t149.5 39.5q63 0 99 -9q17 -4 24 -11.5t5 -23.5l-9 -70q-5 -35 -32 -35q-8 0 -21.5 1.5t-17.5 1.5q-50 0 -54 -40z" />
    <glyph glyph-name="Aringacute" unicode="&#x1fa;" horiz-adv-x="706" 
d="M222 759q0 79 73 109l26 72q10 24 36 24h144q16 0 19 -13.5t-8 -23.5l-73 -75q45 -35 45 -93q0 -33 -14 -58q10 -9 16 -25l207 -633q7 -19 -1 -31t-26 -12h-152q-35 0 -44 33l-22 77h-191l-21 -77q-9 -33 -44 -33h-152q-18 0 -26 12t-1 31l207 633q6 18 16 25
q-14 25 -14 58zM291 288h121l-57 206h-3zM300 759q0 -22 15.5 -36.5t37.5 -14.5t37.5 14.5t15.5 36.5t-15.5 36.5t-37.5 14.5t-37.5 -14.5t-15.5 -36.5z" />
    <glyph glyph-name="aringacute" unicode="&#x1fb;" horiz-adv-x="601" 
d="M554 360v-326q0 -34 -34 -34h-116q-28 0 -35 26l-9 29q-52 -63 -166 -63q-74 0 -121 41t-47 122q0 38 10 67t31 48t47 31.5t65.5 19.5t78.5 9.5t94 3.5v15q0 51 -86 51q-61 0 -135 -26q-32 -12 -43 21l-24 74q-10 30 21 43q99 40 215 40q125 0 189.5 -49t64.5 -143z
M173 707q0 71 63 103l29 77q8 23 35 23h143q16 0 19 -13t-8 -23l-73 -75q46 -33 46 -92q0 -52 -36.5 -84.5t-90.5 -32.5t-90.5 32.5t-36.5 84.5zM352 193v41q-71 -1 -100 -14.5t-29 -49.5q0 -24 14.5 -37.5t40.5 -13.5q74 0 74 74zM300 658q21 0 36 14t15 35t-15 35t-36 14
t-36 -14t-15 -35t15 -35t36 -14z" />
    <glyph glyph-name="AEacute" unicode="&#x1fc;" horiz-adv-x="916" 
d="M825 273h-205v-93h226q36 0 36 -36v-108q0 -36 -36 -36h-404q-36 0 -36 36v74h-156l-23 -77q-11 -33 -45 -33h-152q-18 0 -25.5 12t-0.5 31l228 633q12 32 44 32h564q36 0 36 -36v-108q0 -36 -36 -36h-220v-83h205q35 0 35 -36v-101q0 -35 -35 -35zM290 288h116v240h-36z
M383 784l32 88q10 24 36 24h144q16 0 19 -13.5t-8 -23.5l-83 -85q-16 -16 -42 -16h-77q-14 0 -19.5 7t-1.5 19z" />
    <glyph glyph-name="aeacute" unicode="&#x1fd;" horiz-adv-x="906" 
d="M670 128q59 0 124 29q32 14 43 -22l20 -61q9 -27 -21 -43q-84 -43 -186 -43q-153 0 -206 86q-76 -82 -207 -82q-107 0 -159 39t-52 124q0 38 9.5 66.5t31.5 46.5t46.5 29.5t66.5 17t78 7.5t94 3v24q0 51 -86 51q-61 0 -135 -26q-32 -12 -43 21l-24 74q-10 30 21 43
q99 40 208 40q123 0 168 -66q55 66 170 66q113 0 179 -68.5t66 -188.5v-48q0 -34 -34 -34h-288q25 -85 116 -85zM626 412q-38 0 -56 -20t-23 -71h148v7q0 84 -69 84zM352 203v22q-75 -1 -102 -11t-27 -44q0 -24 14.5 -37.5t40.5 -13.5q74 0 74 84zM369 622l32 87q8 23 35 23
h143q16 0 19 -13t-8 -23l-82 -84q-16 -16 -41 -16h-77q-14 0 -19.5 7t-1.5 19z" />
    <glyph glyph-name="Oslashacute" unicode="&#x1fe;" horiz-adv-x="724" 
d="M362 720q98 0 170 -39l18 23q20 26 48 7l35 -24q27 -20 7 -47l-23 -32q71 -93 71 -254q0 -187 -86 -276.5t-240 -89.5q-100 0 -172 39l-18 -23q-21 -26 -48 -7l-35 24q-27 19 -7 47l23 33q-69 93 -69 253q0 187 86 276.5t240 89.5zM362 174q105 0 105 180q0 33 -2 50
l-158 -215q22 -15 55 -15zM257 354q0 -17 2 -49l157 214q-22 15 -54 15q-105 0 -105 -180zM297 784l32 88q10 24 36 24h144q16 0 19 -13.5t-8 -23.5l-83 -85q-16 -16 -42 -16h-77q-14 0 -19.5 7t-1.5 19z" />
    <glyph glyph-name="oslashacute" unicode="&#x1ff;" horiz-adv-x="624" 
d="M312 -12q130 0 205 72t75 210q0 111 -50 181l22 24q21 22 -3 44l-25 23q-23 22 -45 -3l-22 -24q-66 37 -157 37q-130 0 -205 -72t-75 -210q0 -112 49 -181l-21 -23q-21 -23 3 -44l25 -23q25 -20 45 3l21 23q64 -37 158 -37zM312 396q30 0 46 -20l-114 -125q-1 8 -1 19
q0 66 16.5 96t52.5 30zM312 144q-30 0 -46 20l114 126q1 -7 1 -20q0 -66 -16.5 -96t-52.5 -30zM238 622l32 87q8 23 35 23h143q16 0 19 -13t-8 -23l-82 -84q-16 -16 -41 -16h-77q-14 0 -19.5 7t-1.5 19z" />
    <glyph glyph-name="Scommaaccent" unicode="&#x218;" horiz-adv-x="606" 
d="M578 209q0 -77 -40 -128t-100.5 -71.5t-137.5 -20.5q-151 0 -245 50q-30 15 -19 45l35 93q14 35 46 21q73 -30 142 -30q101 0 101 42q0 18 -23 31t-77 31q-39 13 -65 23.5t-58 30.5t-51 43.5t-32 60t-13 82.5q0 207 273 207q132 0 216 -46q30 -16 19 -45l-34 -88
q-13 -32 -46 -21q-63 21 -132 21q-38 0 -58 -7t-20 -29q0 -18 22.5 -32t76.5 -34l44 -16.5t39 -16t38.5 -19.5l31.5 -22t29 -28t19.5 -33t14.5 -42.5t4 -51.5zM380 -201l-55 -110q-10 -18 -26 -18h-31q-24 0 -17 24l28 101h-32q-30 0 -30 30v97q0 29 32 29h108q32 0 32 -29
v-85q0 -20 -9 -39z" />
    <glyph glyph-name="scommaaccent" unicode="&#x219;" horiz-adv-x="500" 
d="M474 154q0 -166 -242 -166q-104 0 -181 30q-30 12 -22 43l19 66q9 32 43 22q54 -16 102 -16q77 0 77 29q0 13 -16 21.5t-56 21.5l-47.5 16t-43 20.5t-42 32t-25 46t-11.5 66.5q0 84 61 125t168 41q102 0 168 -27q30 -12 22 -43l-19 -66q-9 -31 -43 -22q-46 13 -95 13
q-58 0 -58 -29q0 -10 11 -19t24 -14.5t41 -16.5l52.5 -20t43 -22.5t38 -31.5t22 -41.5t9.5 -58.5zM323 -193l-52 -105q-9 -17 -24 -17h-30q-23 0 -16 23l27 96h-31q-28 0 -28 28v93q0 27 30 27h102q30 0 30 -27v-81q0 -21 -8 -37z" />
    <glyph glyph-name="uni021A" unicode="&#x21a;" horiz-adv-x="590" 
d="M22 552v120q0 36 36 36h474q36 0 36 -36v-120q0 -36 -36 -36h-128v-480q0 -36 -36 -36h-146q-36 0 -36 36v480h-128q-36 0 -36 36zM372 -201l-55 -110q-10 -18 -26 -18h-31q-24 0 -17 24l28 101h-32q-30 0 -30 30v97q0 29 32 29h108q32 0 32 -29v-85q0 -20 -9 -39z" />
    <glyph glyph-name="uni021B" unicode="&#x21b;" horiz-adv-x="416" 
d="M354 370h-78v-184q0 -25 10.5 -34.5t36.5 -9.5q4 0 16.5 1.5t20.5 1.5q28 0 28 -31v-80q0 -16 -8 -23.5t-25 -11.5q-38 -9 -95 -9q-98 0 -143 39.5t-45 133.5v207h-32q-34 0 -34 34v78q0 34 34 34h34v118q0 30 35 30h130q35 0 35 -30v-118h80q34 0 34 -34v-78
q0 -34 -34 -34zM297 -193l-52 -105q-9 -17 -24 -17h-30q-23 0 -16 23l27 96h-31q-28 0 -28 28v93q0 27 30 27h102q30 0 30 -27v-81q0 -21 -8 -37z" />
    <glyph glyph-name="dotlessj" unicode="&#x237;" horiz-adv-x="340" 
d="M78 71v435q0 34 34 34h140q34 0 34 -34v-455q0 -91 -41.5 -131t-134.5 -40q-49 0 -87 9q-17 4 -25 11.5t-8 23.5v82q0 29 28 29q4 0 15 -1t16 -1q16 0 22.5 8.5t6.5 29.5z" />
    <glyph glyph-name="circumflex" unicode="&#x2c6;" horiz-adv-x="380" 
d="M255 611l-65 54l-65 -54q-17 -15 -35 -15h-56q-15 0 -19.5 10.5t4.5 20.5l88 106q17 21 47 21h72q30 0 47 -21l88 -106q9 -10 4.5 -20.5t-19.5 -10.5h-56q-18 0 -35 15z" />
    <glyph glyph-name="caron" unicode="&#x2c7;" horiz-adv-x="380" 
d="M190 685l65 54q17 15 35 15h56q15 0 19.5 -10.5t-4.5 -20.5l-88 -106q-17 -21 -47 -21h-72q-30 0 -47 21l-88 106q-9 10 -4.5 20.5t19.5 10.5h56q18 0 35 -15z" />
    <glyph glyph-name="uni02C9" unicode="&#x2c9;" horiz-adv-x="380" 
d="M348 600h-316q-32 0 -32 32v47q0 32 32 32h316q32 0 32 -32v-47q0 -32 -32 -32z" />
    <glyph glyph-name="breve" unicode="&#x2d8;" horiz-adv-x="380" 
d="M190 590q-88 0 -133 42t-45 102q0 26 26 26h48q25 0 30 -25q10 -53 74 -53t74 53q5 25 30 25h48q26 0 26 -26q0 -60 -45 -102t-133 -42z" />
    <glyph glyph-name="dotaccent" unicode="&#x2d9;" horiz-adv-x="380" 
d="M288 692v-65q0 -34 -34 -34h-128q-34 0 -34 34v65q0 34 34 34h128q34 0 34 -34z" />
    <glyph glyph-name="ring" unicode="&#x2da;" horiz-adv-x="380" 
d="M190 658q21 0 36 14t15 35t-15 35t-36 14t-36 -14t-15 -35t15 -35t36 -14zM190 824q54 0 90.5 -32.5t36.5 -84.5t-36.5 -84.5t-90.5 -32.5t-90.5 32.5t-36.5 84.5t36.5 84.5t90.5 32.5z" />
    <glyph glyph-name="ogonek" unicode="&#x2db;" horiz-adv-x="380" 
d="M198 10h58q-61 -30 -61 -72q0 -32 40 -32q9 0 18 2t13 2q14 0 17 -14l12 -40q4 -15 -12 -25q-32 -20 -89 -20q-112 0 -112 82q0 41 37 74.5t79 42.5z" />
    <glyph glyph-name="tilde" unicode="&#x2dc;" horiz-adv-x="380" 
d="M387 689q0 -96 -89 -96q-43 0 -80 14l-54 20q-64 24 -68 -5l-1 -6q-4 -20 -29 -20h-41q-17 0 -24.5 8.5t-7.5 30.5q0 48 23.5 75t68.5 27q40 0 77 -14l54 -20q64 -23 68 5l1 6q4 20 29 20h41q32 0 32 -45z" />
    <glyph glyph-name="hungarumlaut" unicode="&#x2dd;" horiz-adv-x="380" 
d="M22 622l27 87q7 23 33 23h129q16 0 20 -13t-6 -23l-72 -84q-13 -16 -40 -16h-68q-14 0 -20.5 7.5t-2.5 18.5zM232 622l27 87q7 23 33 23h129q16 0 20 -13t-6 -23l-72 -84q-13 -16 -40 -16h-68q-14 0 -20 7.5t-3 18.5z" />
    <glyph glyph-name="uni037E" unicode="&#x37e;" horiz-adv-x="278" 
d="M40 214v123q0 33 37 33h124q37 0 37 -33v-123q0 -34 -34 -34h-130q-34 0 -34 34z" />
    <glyph glyph-name="uni0394" unicode="&#x394;" horiz-adv-x="700" 
d="M253 708h194q16 0 22.5 -5t10.5 -18l186 -649q11 -36 -24 -36h-584q-35 0 -24 36l186 649q4 13 10.5 18t22.5 5zM348 528l-83 -365h170l-83 365h-4z" />
    <glyph glyph-name="uni03A9" unicode="&#x3a9;" horiz-adv-x="806" 
d="M403 720q169 0 262 -82t93 -223q0 -92 -44.5 -154.5t-111.5 -96.5v-21l96 16q41 6 41 -29v-98q0 -32 -36 -32h-265v151q0 20 18 31q91 56 91 193q0 83 -38.5 125.5t-105.5 42.5t-105.5 -42.5t-38.5 -125.5q0 -137 91 -193q18 -11 18 -31v-151h-265q-36 0 -36 32v98
q0 35 41 29l96 -16v21q-67 34 -111.5 96.5t-44.5 154.5q0 141 93.5 223t261.5 82z" />
    <glyph glyph-name="uni03BC" unicode="&#x3bc;" horiz-adv-x="622" 
d="M576 506v-323q0 -105 -42.5 -150t-134.5 -45q-99 0 -147 73l3 -139q0 -32 -34 -32h-139q-34 0 -34 34v582q0 34 34 34h140q34 0 34 -34v-272q0 -80 63 -80q29 0 39 17.5t10 53.5v281q0 34 34 34h140q34 0 34 -34z" />
    <glyph glyph-name="pi" unicode="&#x3c0;" horiz-adv-x="770" 
d="M614 374v-188q0 -25 10.5 -34.5t36.5 -9.5q4 0 16.5 1.5t20.5 1.5q28 0 28 -31v-80q0 -16 -8 -23.5t-25 -11.5q-38 -9 -91 -9q-98 0 -141 39t-43 134v211h-85l-65 -343q-6 -31 -39 -31h-129q-18 0 -26.5 8t-5.5 23l68 343h-70q-34 0 -34 34v98q0 34 34 34h626
q34 0 34 -34v-98q0 -34 -34 -34h-78z" />
    <glyph glyph-name="Wgrave" unicode="&#x1e80;" horiz-adv-x="1032" 
d="M454 708h124q37 0 44 -32l54 -240l32 -163h4l31 163l49 239q8 33 44 33h150q38 0 27 -43l-168 -633q-9 -32 -43 -32h-153q-34 0 -43 32l-60 232l-28 126h-4l-28 -126l-60 -232q-9 -32 -43 -32h-153q-34 0 -43 32l-168 633q-11 43 27 43h150q36 0 44 -33l49 -239l31 -163
h4l32 163l54 240q7 32 44 32zM549 872l32 -88q4 -12 -1.5 -19t-19.5 -7h-77q-26 0 -42 16l-83 85q-6 6 -7.5 15t3.5 15.5t15 6.5h144q26 0 36 -24z" />
    <glyph glyph-name="wgrave" unicode="&#x1e81;" horiz-adv-x="888" 
d="M397 540h94q30 0 37 -28l51 -197l21 -107h3l18 107l39 194q6 31 41 31h144q18 0 24.5 -11t1.5 -29l-137 -467q-9 -33 -43 -33h-130q-36 0 -46 34l-44 161l-25 110h-4l-25 -110l-44 -161q-10 -34 -46 -34h-130q-34 0 -43 33l-137 467q-5 18 1.5 29t24.5 11h144
q35 0 41 -31l39 -194l18 -107h3l21 107l51 197q7 28 37 28zM476 709l32 -87q4 -12 -1.5 -19t-19.5 -7h-77q-25 0 -41 16l-82 84q-6 6 -7.5 14.5t3.5 15t15 6.5h143q27 0 35 -23z" />
    <glyph glyph-name="Wacute" unicode="&#x1e82;" horiz-adv-x="1032" 
d="M454 708h124q37 0 44 -32l54 -240l32 -163h4l31 163l49 239q8 33 44 33h150q38 0 27 -43l-168 -633q-9 -32 -43 -32h-153q-34 0 -43 32l-60 232l-28 126h-4l-28 -126l-60 -232q-9 -32 -43 -32h-153q-34 0 -43 32l-168 633q-11 43 27 43h150q36 0 44 -33l49 -239l31 -163
h4l32 163l54 240q7 32 44 32zM451 784l32 88q10 24 36 24h144q16 0 19 -13.5t-8 -23.5l-83 -85q-16 -16 -42 -16h-77q-14 0 -19.5 7t-1.5 19z" />
    <glyph glyph-name="wacute" unicode="&#x1e83;" horiz-adv-x="888" 
d="M397 540h94q30 0 37 -28l51 -197l21 -107h3l18 107l39 194q6 31 41 31h144q18 0 24.5 -11t1.5 -29l-137 -467q-9 -33 -43 -33h-130q-36 0 -46 34l-44 161l-25 110h-4l-25 -110l-44 -161q-10 -34 -46 -34h-130q-34 0 -43 33l-137 467q-5 18 1.5 29t24.5 11h144
q35 0 41 -31l39 -194l18 -107h3l21 107l51 197q7 28 37 28zM379 622l32 87q8 23 35 23h143q16 0 19 -13t-8 -23l-82 -84q-16 -16 -41 -16h-77q-14 0 -19.5 7t-1.5 19z" />
    <glyph glyph-name="Wdieresis" unicode="&#x1e84;" horiz-adv-x="1032" 
d="M454 708h124q37 0 44 -32l54 -240l32 -163h4l31 163l49 239q8 33 44 33h150q38 0 27 -43l-168 -633q-9 -32 -43 -32h-153q-34 0 -43 32l-60 232l-28 126h-4l-28 -126l-60 -232q-9 -32 -43 -32h-153q-34 0 -43 32l-168 633q-11 43 27 43h150q36 0 44 -33l49 -239l31 -163
h4l32 163l54 240q7 32 44 32zM488 845v-53q0 -34 -34 -34h-102q-34 0 -34 34v53q0 34 34 34h102q34 0 34 -34zM714 845v-53q0 -34 -34 -34h-102q-34 0 -34 34v53q0 34 34 34h102q34 0 34 -34z" />
    <glyph glyph-name="wdieresis" unicode="&#x1e85;" horiz-adv-x="888" 
d="M397 540h94q30 0 37 -28l51 -197l21 -107h3l18 107l39 194q6 31 41 31h144q18 0 24.5 -11t1.5 -29l-137 -467q-9 -33 -43 -33h-130q-36 0 -46 34l-44 161l-25 110h-4l-25 -110l-44 -161q-10 -34 -46 -34h-130q-34 0 -43 33l-137 467q-5 18 1.5 29t24.5 11h144
q35 0 41 -31l39 -194l18 -107h3l21 107l51 197q7 28 37 28zM416 683v-53q0 -34 -34 -34h-100q-34 0 -34 34v53q0 34 34 34h100q34 0 34 -34zM640 683v-53q0 -34 -34 -34h-100q-34 0 -34 34v53q0 34 34 34h100q34 0 34 -34z" />
    <glyph glyph-name="Ygrave" unicode="&#x1ef2;" horiz-adv-x="696" 
d="M457 261v-225q0 -36 -36 -36h-146q-36 0 -36 36v225l-220 402q-9 17 -1.5 31t25.5 14h152q33 0 48 -33l71 -159l32 -87h4l32 87l71 159q15 33 48 33h152q18 0 25.5 -14t-1.5 -31zM381 872l32 -88q4 -12 -1.5 -19t-19.5 -7h-77q-26 0 -42 16l-83 85q-6 6 -7.5 15t3.5 15.5
t15 6.5h144q26 0 36 -24z" />
    <glyph glyph-name="ygrave" unicode="&#x1ef3;" horiz-adv-x="592" 
d="M581 500l-138 -440q-17 -54 -31.5 -84t-40 -54t-62 -33t-94.5 -9q-84 0 -126 11q-17 4 -25 11.5t-8 23.5v80q0 29 28 29q7 0 28 -2.5t38 -2.5q53 0 36 43l-172 427q-7 17 -0.5 28.5t24.5 11.5h144q33 0 42 -31l54 -193l31 -133h4l22 133l38 193q6 31 40 31h140
q18 0 25.5 -11.5t2.5 -28.5zM338 709l32 -87q4 -12 -1.5 -19t-19.5 -7h-77q-25 0 -41 16l-82 84q-6 6 -7.5 14.5t3.5 15t15 6.5h143q27 0 35 -23z" />
    <glyph glyph-name="figuredash" unicode="&#x2012;" horiz-adv-x="630" 
d="M547 221h-464q-29 0 -29 28v80q0 28 29 28h464q29 0 29 -29v-79q0 -28 -29 -28z" />
    <glyph glyph-name="endash" unicode="&#x2013;" horiz-adv-x="558" 
d="M486 208h-414q-34 0 -34 34v94q0 34 34 34h414q34 0 34 -34v-94q0 -34 -34 -34z" />
    <glyph glyph-name="emdash" unicode="&#x2014;" horiz-adv-x="786" 
d="M714 208h-642q-34 0 -34 34v94q0 34 34 34h642q34 0 34 -34v-94q0 -34 -34 -34z" />
    <glyph glyph-name="quoteleft" unicode="&#x2018;" horiz-adv-x="280" 
d="M56 583l64 114q10 17 29 17h40q12 0 16 -8.5t0 -18.5l-43 -106h42q34 0 34 -34v-109q0 -33 -37 -33h-118q-37 0 -37 33v102q0 26 10 43z" />
    <glyph glyph-name="quoteright" unicode="&#x2019;" horiz-adv-x="280" 
d="M224 536l-64 -114q-10 -17 -29 -17h-40q-12 0 -16 8.5t0 18.5l43 106h-42q-34 0 -34 34v109q0 33 37 33h118q37 0 37 -33v-102q0 -27 -10 -43z" />
    <glyph glyph-name="quotesinglbase" unicode="&#x201a;" horiz-adv-x="280" 
d="M224 -2l-64 -114q-10 -17 -29 -17h-40q-12 0 -16 8.5t0 18.5l43 106h-42q-34 0 -34 34v109q0 33 37 33h118q37 0 37 -33v-102q0 -27 -10 -43z" />
    <glyph glyph-name="quotedblleft" unicode="&#x201c;" horiz-adv-x="526" 
d="M302 583l64 114q10 17 29 17h40q12 0 16 -8.5t0 -18.5l-43 -106h42q34 0 34 -34v-109q0 -33 -37 -33h-118q-37 0 -37 33v102q0 27 10 43zM56 583l64 114q10 17 29 17h40q12 0 16 -8.5t0 -18.5l-43 -106h42q34 0 34 -34v-109q0 -33 -37 -33h-118q-37 0 -37 33v102
q0 26 10 43z" />
    <glyph glyph-name="quotedblright" unicode="&#x201d;" horiz-adv-x="526" 
d="M224 536l-64 -114q-10 -17 -29 -17h-40q-12 0 -16 8.5t0 18.5l43 106h-42q-34 0 -34 34v109q0 33 37 33h118q37 0 37 -33v-102q0 -27 -10 -43zM470 536l-64 -114q-10 -17 -29 -17h-40q-12 0 -16 8.5t0 18.5l43 106h-42q-34 0 -34 34v109q0 33 37 33h118q37 0 37 -33v-102
q0 -27 -10 -43z" />
    <glyph glyph-name="quotedblbase" unicode="&#x201e;" horiz-adv-x="526" 
d="M224 -2l-64 -114q-10 -17 -29 -17h-40q-12 0 -16 8.5t0 18.5l43 106h-42q-34 0 -34 34v109q0 33 37 33h118q37 0 37 -33v-102q0 -27 -10 -43zM470 -2l-64 -114q-10 -17 -29 -17h-40q-12 0 -16 8.5t0 18.5l43 106h-42q-34 0 -34 34v109q0 33 37 33h118q37 0 37 -33v-102
q0 -27 -10 -43z" />
    <glyph glyph-name="dagger" unicode="&#x2020;" horiz-adv-x="568" 
d="M540 516v-102q0 -34 -34 -34h-118v-456q0 -34 -34 -34h-140q-34 0 -34 34v456h-118q-34 0 -34 34v102q0 34 34 34h118v124q0 34 34 34h140q34 0 34 -34v-124h118q34 0 34 -34z" />
    <glyph glyph-name="daggerdbl" unicode="&#x2021;" horiz-adv-x="568" 
d="M540 184v-102q0 -34 -34 -34h-118v-124q0 -34 -34 -34h-140q-34 0 -34 34v124h-118q-34 0 -34 34v102q0 34 34 34h118v162h-118q-34 0 -34 34v102q0 34 34 34h118v124q0 34 34 34h140q34 0 34 -34v-124h118q34 0 34 -34v-102q0 -34 -34 -34h-118v-162h118q34 0 34 -34z
" />
    <glyph glyph-name="bullet" unicode="&#x2022;" horiz-adv-x="452" 
d="M226 116q-68 0 -115 47t-47 115t47 115t115 47t115 -47t47 -115t-47 -115t-115 -47z" />
    <glyph glyph-name="onedotenleader" unicode="&#x2024;" horiz-adv-x="278" 
d="M40 34v123q0 33 37 33h124q37 0 37 -33v-123q0 -34 -34 -34h-130q-34 0 -34 34z" />
    <glyph glyph-name="twodotenleader" unicode="&#x2025;" horiz-adv-x="556" 
d="M318 34v123q0 33 37 33h124q37 0 37 -33v-123q0 -34 -34 -34h-130q-34 0 -34 34zM40 34v123q0 33 37 33h124q37 0 37 -33v-123q0 -34 -34 -34h-130q-34 0 -34 34z" />
    <glyph glyph-name="ellipsis" unicode="&#x2026;" horiz-adv-x="834" 
d="M40 34v123q0 33 37 33h124q37 0 37 -33v-123q0 -34 -34 -34h-130q-34 0 -34 34zM318 34v123q0 33 37 33h124q37 0 37 -33v-123q0 -34 -34 -34h-130q-34 0 -34 34zM596 34v123q0 33 37 33h124q37 0 37 -33v-123q0 -34 -34 -34h-130q-34 0 -34 34z" />
    <glyph glyph-name="perthousand" unicode="&#x2030;" horiz-adv-x="1448" 
d="M756 674l-370 -640q-19 -34 -50 -34h-74q-37 0 -18 34l370 640q19 34 50 34h74q37 0 18 -34zM30 503q0 99 52.5 156t141.5 57t141.5 -57t52.5 -156t-52.5 -156t-141.5 -57t-141.5 57t-52.5 156zM267 503q0 52 -10 75t-33 23t-33 -23t-10 -75t10 -75t33 -23t33 23t10 75z
M582 205q0 99 52.5 156t141.5 57t141.5 -57t52.5 -156t-52.5 -156t-141.5 -57t-141.5 57t-52.5 156zM819 205q0 52 -10 75t-33 23t-33 -23t-10 -75t10 -75t33 -23t33 23t10 75zM1020 205q0 99 52.5 156t141.5 57t141.5 -57t52.5 -156t-52.5 -156t-141.5 -57t-141.5 57
t-52.5 156zM1257 205q0 52 -10 75t-33 23t-33 -23t-10 -75t10 -75t33 -23t33 23t10 75z" />
    <glyph glyph-name="guilsinglleft" unicode="&#x2039;" horiz-adv-x="332" 
d="M26 299q0 8 5 17l81 142q13 23 41 23h117q16 0 21.5 -10t-2.5 -24l-85 -147l85 -147q8 -14 2.5 -24t-21.5 -10h-117q-28 0 -41 23l-81 142q-5 9 -5 15z" />
    <glyph glyph-name="guilsinglright" unicode="&#x203a;" horiz-adv-x="332" 
d="M305 299q0 -8 -3 -13l-82 -144q-13 -23 -41 -23h-117q-16 0 -21.5 10t2.5 24l85 147l-85 147q-8 14 -2.5 24t21.5 10h117q28 0 41 -23l81 -142q4 -7 4 -17z" />
    <glyph glyph-name="exclamdbl" unicode="&#x203c;" horiz-adv-x="668" 
d="M66 34v123q0 33 37 33h132q37 0 37 -33v-123q0 -34 -34 -34h-138q-34 0 -34 34zM217 238h-96q-33 0 -36 31l-38 403q-3 36 35 36h174q38 0 35 -36l-38 -403q-3 -31 -36 -31zM396 34v123q0 33 37 33h132q37 0 37 -33v-123q0 -34 -34 -34h-138q-34 0 -34 34zM547 238h-96
q-33 0 -36 31l-38 403q-3 36 35 36h174q38 0 35 -36l-38 -403q-3 -31 -36 -31z" />
    <glyph glyph-name="fraction" unicode="&#x2044;" horiz-adv-x="86" 
d="M299 674l-370 -640q-19 -34 -50 -34h-74q-37 0 -18 34l370 640q19 34 50 34h74q37 0 18 -34z" />
    <glyph glyph-name="zero.superior" unicode="&#x2070;" 
d="M219 485q-89 0 -142 56.5t-53 166.5t53 166.5t142 56.5t142 -56.5t53 -166.5t-53 -166.5t-142 -56.5zM219 605q44 0 44 103t-44 103t-44 -103t44 -103z" />
    <glyph glyph-name="four.superior" unicode="&#x2074;" 
d="M221 787l-87 -102h87v102zM393 573h-26v-50q0 -31 -31 -31h-84q-31 0 -31 31v50h-172q-31 0 -31 26v59q0 17 11 31l186 220q13 15 34 15h87q31 0 31 -31v-208h26q31 0 31 -31v-50q0 -31 -31 -31z" />
    <glyph glyph-name="five.superior" unicode="&#x2075;" 
d="M394 632q0 -69 -46 -108t-132 -39q-104 0 -161 31q-15 8 -18.5 14.5t1.5 20.5l20 49q12 27 41 15q44 -19 95 -19q56 0 56 44q0 41 -47 41q-24 0 -47 -7q-23 -6 -42 0l-41 12q-13 4 -17 10t-3 19q12 111 12 179q0 30 32 30h243q31 0 31 -31v-50q0 -31 -31 -31h-157
q0 -28 -3 -48q30 4 53 4q161 0 161 -136z" />
    <glyph glyph-name="six.superior" unicode="&#x2076;" 
d="M321 814q-40 8 -56 8q-42 0 -61 -15.5t-24 -48.5q31 21 81 21q71 0 108 -35.5t37 -100.5q0 -71 -48 -114.5t-129 -43.5q-99 0 -146 60t-47 143q0 243 211 243q63 0 104 -18q23 -9 18 -30l-12 -51q-6 -24 -36 -18zM229 596q21 0 33 13.5t12 36.5q0 22 -12 35.5t-33 13.5
q-48 0 -48 -49q0 -50 48 -50z" />
    <glyph glyph-name="seven.superior" unicode="&#x2077;" 
d="M390 894v-38q0 -21 -18 -43q-43 -58 -79.5 -138.5t-43.5 -150.5q-3 -32 -32 -32h-87q-31 0 -31 28q0 62 40.5 143.5t95.5 148.5h-160q-31 0 -31 31v50q0 31 31 31h281q34 0 34 -30z" />
    <glyph glyph-name="eight.superior" unicode="&#x2078;" 
d="M219 485q-89 0 -136.5 34t-47.5 93q0 73 70 104q-62 30 -62 95q0 58 47.5 89t128.5 31t128.5 -31t47.5 -89q0 -65 -62 -95q70 -31 70 -104q0 -59 -47.5 -93t-136.5 -34zM219 680q-40 -13 -40 -56q0 -39 40 -39t40 39q0 43 -40 56zM219 749q35 16 35 51q0 33 -35 33
t-35 -33q0 -35 35 -51z" />
    <glyph glyph-name="nine.superior" unicode="&#x2079;" 
d="M117 602q40 -8 56 -8q42 0 61 15.5t24 48.5q-31 -21 -81 -21q-71 0 -108 35.5t-37 100.5q0 71 48 114.5t129 43.5q99 0 146 -60t47 -143q0 -243 -211 -243q-63 0 -104 18q-23 9 -18 30l12 51q6 24 36 18zM209 820q-21 0 -33 -13.5t-12 -36.5q0 -22 12 -35.5t33 -13.5
q48 0 48 49q0 50 -48 50z" />
    <glyph glyph-name="parenleft.superior" unicode="&#x207d;" horiz-adv-x="264" 
d="M36 708q0 59 25 121t58 92q16 14 34 14h66q15 0 19.5 -10.5t-2.5 -19.5q-50 -79 -50 -197t50 -197q7 -9 2.5 -19.5t-19.5 -10.5h-66q-18 0 -34 14q-33 30 -58 92t-25 121z" />
    <glyph glyph-name="parenright.superior" unicode="&#x207e;" horiz-adv-x="264" 
d="M228 708q0 -59 -25 -121t-58 -92q-16 -14 -34 -14h-66q-15 0 -19.5 10.5t2.5 19.5q50 79 50 197t-50 197q-7 9 -2.5 19.5t19.5 10.5h66q18 0 34 -14q33 -30 58 -92t25 -121z" />
    <glyph glyph-name="n.superior" unicode="&#x207f;" horiz-adv-x="508" 
d="M72 924h94q26 0 33 -23l6 -20q38 50 125 50q73 0 105.5 -42.5t32.5 -126.5v-240q0 -30 -30 -30h-108q-30 0 -30 30v209q0 33 -9.5 47.5t-32.5 14.5q-48 0 -48 -67v-204q0 -30 -30 -30h-108q-30 0 -30 30v372q0 30 30 30z" />
    <glyph glyph-name="zero.inferior" unicode="&#x2080;" 
d="M219 -223q-89 0 -142 56.5t-53 166.5t53 166.5t142 56.5t142 -56.5t53 -166.5t-53 -166.5t-142 -56.5zM219 -103q44 0 44 103t-44 103t-44 -103t44 -103z" />
    <glyph glyph-name="one.inferior" unicode="&#x2081;" 
d="M176 74l-51 -23q-25 -11 -38 6l-30 48q-12 19 5 31l105 69q15 11 40 11h86q31 0 31 -31v-370q0 -31 -31 -31h-86q-31 0 -31 31v259z" />
    <glyph glyph-name="two.inferior" unicode="&#x2082;" 
d="M168 83q0 -4 0.5 -10.5t0.5 -11.5q0 -23 -27 -23h-73q-26 0 -30 22q-3 15 -3 29q0 59 43.5 96.5t131.5 37.5t132 -38t44 -98q0 -59 -44.5 -109.5t-99.5 -81.5h126q31 0 31 -31v-50q0 -31 -31 -31h-301q-31 0 -31 31v46q0 10 5 15.5t17 12.5q71 40 125.5 89t54.5 97
q0 37 -36 37q-16 0 -25.5 -8.5t-9.5 -20.5z" />
    <glyph glyph-name="three.inferior" unicode="&#x2083;" 
d="M205 -46h-54q-31 0 -31 31v35q0 31 31 31h50q21 0 29 7t8 24q0 32 -48 32q-46 0 -87 -19q-29 -13 -40 14l-20 51q-9 23 15 34q62 29 155 29q73 0 122 -28.5t49 -89.5q0 -69 -56 -92q64 -27 64 -97q0 -67 -44.5 -103t-127.5 -36q-98 0 -162 31q-26 12 -17 35l20 49
q11 28 41 15q44 -19 97 -19q45 0 45 35q0 31 -39 31z" />
    <glyph glyph-name="four.inferior" unicode="&#x2084;" 
d="M221 79l-87 -102h87v102zM393 -135h-26v-50q0 -31 -31 -31h-84q-31 0 -31 31v50h-172q-31 0 -31 26v59q0 17 11 31l186 220q13 15 34 15h87q31 0 31 -31v-208h26q31 0 31 -31v-50q0 -31 -31 -31z" />
    <glyph glyph-name="five.inferior" unicode="&#x2085;" 
d="M394 -76q0 -69 -46 -108t-132 -39q-104 0 -161 31q-15 8 -18.5 14.5t1.5 20.5l20 49q12 27 41 15q44 -19 95 -19q56 0 56 44q0 41 -47 41q-24 0 -47 -7q-23 -6 -42 0l-41 12q-13 4 -17 10t-3 19q12 111 12 179q0 30 32 30h243q31 0 31 -31v-50q0 -31 -31 -31h-157
q0 -28 -3 -48q30 4 53 4q161 0 161 -136z" />
    <glyph glyph-name="six.inferior" unicode="&#x2086;" 
d="M321 106q-40 8 -56 8q-42 0 -61 -15.5t-24 -48.5q31 21 81 21q71 0 108 -35.5t37 -100.5q0 -71 -48 -114.5t-129 -43.5q-99 0 -146 60t-47 143q0 243 211 243q63 0 104 -18q23 -9 18 -30l-12 -51q-6 -24 -36 -18zM229 -112q21 0 33 13.5t12 36.5q0 22 -12 35.5t-33 13.5
q-48 0 -48 -49q0 -50 48 -50z" />
    <glyph glyph-name="seven.inferior" unicode="&#x2087;" 
d="M390 186v-38q0 -21 -18 -43q-43 -58 -79.5 -138.5t-43.5 -150.5q-3 -32 -32 -32h-87q-31 0 -31 28q0 62 40.5 143.5t95.5 148.5h-160q-31 0 -31 31v50q0 31 31 31h281q34 0 34 -30z" />
    <glyph glyph-name="eight.inferior" unicode="&#x2088;" 
d="M219 -223q-89 0 -136.5 34t-47.5 93q0 73 70 104q-62 30 -62 95q0 58 47.5 89t128.5 31t128.5 -31t47.5 -89q0 -65 -62 -95q70 -31 70 -104q0 -59 -47.5 -93t-136.5 -34zM219 -28q-40 -13 -40 -56q0 -39 40 -39t40 39q0 43 -40 56zM219 41q35 16 35 51q0 33 -35 33
t-35 -33q0 -35 35 -51z" />
    <glyph glyph-name="nine.inferior" unicode="&#x2089;" 
d="M117 -106q40 -8 56 -8q42 0 61 15.5t24 48.5q-31 -21 -81 -21q-71 0 -108 35.5t-37 100.5q0 71 48 114.5t129 43.5q99 0 146 -60t47 -143q0 -243 -211 -243q-63 0 -104 18q-23 9 -18 30l12 51q6 24 36 18zM209 112q-21 0 -33 -13.5t-12 -36.5q0 -22 12 -35.5t33 -13.5
q48 0 48 49q0 50 -48 50z" />
    <glyph glyph-name="parenleft.inferior" unicode="&#x208d;" horiz-adv-x="264" 
d="M36 0q0 59 25 121t58 92q16 14 34 14h66q15 0 19.5 -10.5t-2.5 -19.5q-50 -79 -50 -197t50 -197q7 -9 2.5 -19.5t-19.5 -10.5h-66q-18 0 -34 14q-33 30 -58 92t-25 121z" />
    <glyph glyph-name="parenright.inferior" unicode="&#x208e;" horiz-adv-x="264" 
d="M228 0q0 -59 -25 -121t-58 -92q-16 -14 -34 -14h-66q-15 0 -19.5 10.5t2.5 19.5q50 79 50 197t-50 197q-7 9 -2.5 19.5t19.5 10.5h66q18 0 34 -14q33 -30 58 -92t25 -121z" />
    <glyph glyph-name="Euro" unicode="&#x20ac;" horiz-adv-x="662" 
d="M38 330h41q-2 14 -2 24t2 24h-41q-24 0 -24 24v37q0 24 24 24h50q25 131 109 194t213 63q122 0 201 -53q17 -11 21 -20.5t-3 -27.5l-41 -89q-7 -17 -19 -20.5t-32 4.5q-44 18 -97 18q-92 0 -123 -69h211q12 0 17 -7.5t-1 -20.5l-17 -37q-9 -20 -33 -20h-193q-1 -8 -1 -24
q0 -17 1 -24h166q12 0 16.5 -8t-0.5 -20l-17 -37q-9 -20 -33 -20h-115q30 -69 123 -69q52 0 98 19q20 8 32 4.5t19 -20.5l41 -89q7 -18 3 -27.5t-21 -20.5q-81 -54 -202 -54q-129 0 -213.5 63t-109.5 194h-50q-24 0 -24 24v37q0 24 24 24z" />
    <glyph glyph-name="afii61289" unicode="&#x2113;" horiz-adv-x="500" 
d="M350 142q7 0 20.5 3t20.5 3q21 0 25 -27l13 -76q5 -27 -27 -40q-38 -15 -111 -15q-93 0 -143.5 42.5t-50.5 145.5v17l-43 -10q-19 -4 -23 11l-17 73q-4 19 10 23l73 21v149q0 258 206 258q90 0 129.5 -50t39.5 -130q0 -168 -179 -269v-68q0 -35 14 -48t43 -13zM293 484
v-75q63 55 63 134q0 51 -28 51q-19 0 -27 -25t-8 -85z" />
    <glyph glyph-name="trademark" unicode="&#x2122;" horiz-adv-x="824" 
d="M304 606h-63v-205q0 -26 -27 -26h-70q-27 0 -27 26v205h-63q-26 0 -26 27v48q0 27 26 27h250q26 0 26 -27v-48q0 -27 -26 -27zM574 444q-12 0 -21 14l-56 85v-142q0 -26 -27 -26h-67q-27 0 -27 26v280q0 27 26 27h73q18 0 29 -16l70 -107l70 107q11 16 29 16h73
q26 0 26 -27v-280q0 -26 -27 -26h-67q-27 0 -27 26v142l-56 -85q-9 -14 -21 -14z" />
    <glyph glyph-name="Omega" unicode="&#x2126;" horiz-adv-x="806" 
d="M403 720q169 0 262 -82t93 -223q0 -92 -44.5 -154.5t-111.5 -96.5v-21l96 16q41 6 41 -29v-98q0 -32 -36 -32h-265v151q0 20 18 31q91 56 91 193q0 83 -38.5 125.5t-105.5 42.5t-105.5 -42.5t-38.5 -125.5q0 -137 91 -193q18 -11 18 -31v-151h-265q-36 0 -36 32v98
q0 35 41 29l96 -16v21q-67 34 -111.5 96.5t-44.5 154.5q0 141 93.5 223t261.5 82z" />
    <glyph glyph-name="estimated" unicode="&#x212e;" horiz-adv-x="856" 
d="M820 335h-628q-5 0 -5 -4v-185q0 -19 8 -29q83 -96 240 -96q158 0 252 109h58q-55 -65 -136 -102t-175 -37q-165 0 -279.5 105t-114.5 253q0 150 112.5 254.5t277.5 104.5t277.5 -104.5t112.5 -254.5v-14zM673 365v186q0 24 -11 36q-93 91 -231 91q-141 0 -235 -97
q-9 -9 -9 -29v-187q0 -6 5 -6h476q5 0 5 6z" />
    <glyph glyph-name="onethird" unicode="&#x2153;" horiz-adv-x="1000" 
d="M730 674l-370 -640q-19 -34 -50 -34h-74q-37 0 -18 34l370 640q19 34 50 34h74q37 0 18 -34zM713 169h54q39 0 39 -31q0 -35 -45 -35q-53 0 -97 19q-30 13 -41 -15l-20 -49q-9 -23 17 -35q64 -31 162 -31q83 0 127.5 36t44.5 103q0 70 -64 97q56 23 56 92q0 61 -49 89.5
t-122 28.5q-93 0 -155 -29q-24 -11 -15 -34l20 -51q11 -27 40 -14q41 19 87 19q48 0 48 -32q0 -17 -8 -24t-29 -7h-50q-31 0 -31 -31v-35q0 -31 31 -31zM176 566l-51 -23q-25 -11 -38 6l-30 48q-12 19 5 31l105 69q15 11 40 11h86q31 0 31 -31v-370q0 -31 -31 -31h-86
q-31 0 -31 31v259z" />
    <glyph glyph-name="twothirds" unicode="&#x2154;" horiz-adv-x="1000" 
d="M168 575q0 -4 0.5 -10.5t0.5 -11.5q0 -23 -27 -23h-73q-26 0 -30 22q-3 15 -3 29q0 59 43.5 96.5t131.5 37.5t132 -38t44 -98q0 -59 -44.5 -109.5t-99.5 -81.5h126q31 0 31 -31v-50q0 -31 -31 -31h-301q-31 0 -31 31v46q0 10 5 15.5t17 12.5q71 40 125.5 89t54.5 97
q0 37 -36 37q-16 0 -25.5 -8.5t-9.5 -20.5zM763 674l-370 -640q-19 -34 -50 -34h-74q-37 0 -18 34l370 640q19 34 50 34h74q37 0 18 -34zM767 169h-54q-31 0 -31 31v35q0 31 31 31h50q21 0 29 7t8 24q0 32 -48 32q-46 0 -87 -19q-29 -13 -40 14l-20 51q-9 23 15 34
q62 29 155 29q73 0 122 -28.5t49 -89.5q0 -69 -56 -92q64 -27 64 -97q0 -67 -44.5 -103t-127.5 -36q-98 0 -162 31q-26 12 -17 35l20 49q11 28 41 15q44 -19 97 -19q45 0 45 35q0 31 -39 31z" />
    <glyph glyph-name="oneeighth" unicode="&#x215b;" horiz-adv-x="1000" 
d="M740 674l-370 -640q-19 -34 -50 -34h-74q-37 0 -18 34l370 640q19 34 50 34h74q37 0 18 -34zM781 -8q89 0 136.5 34t47.5 93q0 73 -70 104q62 30 62 95q0 58 -47.5 89t-128.5 31t-128.5 -31t-47.5 -89q0 -65 62 -95q-70 -31 -70 -104q0 -59 47.5 -93t136.5 -34zM781 187
q40 -13 40 -56q0 -39 -40 -39t-40 39q0 43 40 56zM781 256q-35 16 -35 51q0 33 35 33t35 -33q0 -35 -35 -51zM176 566l-51 -23q-25 -11 -38 6l-30 48q-12 19 5 31l105 69q15 11 40 11h86q31 0 31 -31v-370q0 -31 -31 -31h-86q-31 0 -31 31v259z" />
    <glyph glyph-name="threeeighths" unicode="&#x215c;" horiz-adv-x="1000" 
d="M205 446h-54q-31 0 -31 31v35q0 31 31 31h50q21 0 29 7t8 24q0 32 -48 32q-46 0 -87 -19q-29 -13 -40 14l-20 51q-9 23 15 34q62 29 155 29q73 0 122 -28.5t49 -89.5q0 -69 -56 -92q64 -27 64 -97q0 -67 -44.5 -103t-127.5 -36q-98 0 -162 31q-26 12 -17 35l20 49
q11 28 41 15q44 -19 97 -19q45 0 45 35q0 31 -39 31zM752 674l-370 -640q-19 -34 -50 -34h-74q-37 0 -18 34l370 640q19 34 50 34h74q37 0 18 -34zM781 -8q-89 0 -136.5 34t-47.5 93q0 73 70 104q-62 30 -62 95q0 58 47.5 89t128.5 31t128.5 -31t47.5 -89q0 -65 -62 -95
q70 -31 70 -104q0 -59 -47.5 -93t-136.5 -34zM781 187q-40 -13 -40 -56q0 -39 40 -39t40 39q0 43 -40 56zM781 256q35 16 35 51q0 33 -35 33t-35 -33q0 -35 35 -51z" />
    <glyph glyph-name="fiveeighths" unicode="&#x215d;" horiz-adv-x="1000" 
d="M394 416q0 -69 -46 -108t-132 -39q-104 0 -161 31q-15 8 -18.5 14.5t1.5 20.5l20 49q12 27 41 15q44 -19 95 -19q56 0 56 44q0 41 -47 41q-24 0 -47 -7q-23 -6 -42 0l-41 12q-13 4 -17 10t-3 19q12 111 12 179q0 30 32 30h243q31 0 31 -31v-50q0 -31 -31 -31h-157
q0 -28 -3 -48q30 4 53 4q161 0 161 -136zM752 674l-370 -640q-19 -34 -50 -34h-74q-37 0 -18 34l370 640q19 34 50 34h74q37 0 18 -34zM781 -8q-89 0 -136.5 34t-47.5 93q0 73 70 104q-62 30 -62 95q0 58 47.5 89t128.5 31t128.5 -31t47.5 -89q0 -65 -62 -95q70 -31 70 -104
q0 -59 -47.5 -93t-136.5 -34zM781 187q-40 -13 -40 -56q0 -39 40 -39t40 39q0 43 -40 56zM781 256q35 16 35 51q0 33 -35 33t-35 -33q0 -35 35 -51z" />
    <glyph glyph-name="seveneighths" unicode="&#x215e;" horiz-adv-x="1000" 
d="M390 678v-38q0 -21 -18 -43q-43 -58 -79.5 -138.5t-43.5 -150.5q-3 -32 -32 -32h-87q-31 0 -31 28q0 62 40.5 143.5t95.5 148.5h-160q-31 0 -31 31v50q0 31 31 31h281q34 0 34 -30zM704 674l-370 -640q-19 -34 -50 -34h-74q-37 0 -18 34l370 640q19 34 50 34h74
q37 0 18 -34zM781 -8q-89 0 -136.5 34t-47.5 93q0 73 70 104q-62 30 -62 95q0 58 47.5 89t128.5 31t128.5 -31t47.5 -89q0 -65 -62 -95q70 -31 70 -104q0 -59 -47.5 -93t-136.5 -34zM781 187q-40 -13 -40 -56q0 -39 40 -39t40 39q0 43 -40 56zM781 256q35 16 35 51
q0 33 -35 33t-35 -33q0 -35 35 -51z" />
    <glyph glyph-name="arrowleft" unicode="&#x2190;" horiz-adv-x="680" 
d="M446 491l-129 -141l263 5q34 0 34 -30v-110q0 -30 -34 -30l-263 5l129 -141q10 -10 6.5 -22t-18.5 -12h-148q-24 0 -38 16l-189 219q-9 9 -9 20q0 10 9 20l189 219q14 16 38 16h148q15 0 18.5 -12t-6.5 -22z" />
    <glyph glyph-name="arrowup" unicode="&#x2191;" horiz-adv-x="680" 
d="M561 168l-141 129l5 -263q0 -34 -30 -34h-110q-30 0 -30 34l5 263l-141 -129q-10 -10 -22 -6.5t-12 18.5v148q0 24 16 38l219 189q10 9 20 9q11 0 20 -9l219 -189q16 -14 16 -38v-148q0 -15 -12 -18.5t-22 6.5z" />
    <glyph glyph-name="arrowright" unicode="&#x2192;" horiz-adv-x="680" 
d="M363 350l-129 141q-10 10 -6.5 22t18.5 12h148q24 0 38 -16l189 -219q9 -10 9 -20t-9 -20l-189 -219q-14 -16 -38 -16h-148q-15 0 -18.5 12t6.5 22l129 141l-263 -5q-34 0 -34 30v110q0 30 34 30z" />
    <glyph glyph-name="arrowdown" unicode="&#x2193;" horiz-adv-x="680" 
d="M119 372l141 -129l-5 263q0 34 30 34h110q30 0 30 -34l-5 -263l141 129q10 10 22 6.5t12 -18.5v-148q0 -24 -16 -38l-219 -189q-9 -9 -20 -9q-10 0 -20 9l-219 189q-16 14 -16 38v148q0 15 12 18.5t22 -6.5z" />
    <glyph glyph-name="arrowboth" unicode="&#x2194;" horiz-adv-x="1080" 
d="M763 350l-129 141q-10 10 -6.5 22t18.5 12h148q24 0 38 -16l189 -219q9 -11 9 -20q0 -11 -9 -20l-189 -219q-14 -16 -38 -16h-148q-15 0 -18.5 12t6.5 22l129 141l-223 -5l-223 5l129 -141q10 -10 6.5 -22t-18.5 -12h-148q-24 0 -38 16l-189 219q-9 9 -9 20q0 10 9 20
l189 219q14 16 38 16h148q15 0 18.5 -12t-6.5 -22l-129 -141l223 5z" />
    <glyph glyph-name="arrowupdn" unicode="&#x2195;" horiz-adv-x="680" 
d="M420 47l141 129q11 10 22.5 6.5t11.5 -18.5v-148q0 -24 -16 -38l-219 -189q-10 -9 -20 -9q-11 0 -20 9l-219 189q-16 14 -16 38v148q0 15 12 18.5t22 -6.5l141 -129l-5 223l5 223l-141 -129q-10 -10 -22 -6.5t-12 18.5v148q0 24 16 38l219 189q9 9 20 9q10 0 20 -9
l219 -189q16 -14 16 -38v-148q0 -15 -12 -18.5t-22 6.5l-141 129l5 -223z" />
    <glyph glyph-name="arrowupleft" unicode="&#x2196;" horiz-adv-x="680" 
d="M566 350l-191 -9l189 -182q24 -25 3 -46l-77 -77q-22 -22 -46 3l-182 189l-9 -191q-1 -14 -11 -19.5t-21 4.5l-105 104q-17 17 -15 38l21 289q2 14 8 20q7 7 20 8l289 21q21 2 38 -15l104 -105q10 -11 4.5 -21t-19.5 -11z" />
    <glyph glyph-name="arrowupright" unicode="&#x2197;" horiz-adv-x="680" 
d="M305 341l-191 9q-14 1 -19.5 11t4.5 21l104 105q17 17 38 15l289 -21q14 -1 20 -8q8 -8 8 -20l21 -289q2 -21 -15 -38l-105 -104q-11 -10 -21 -4.5t-11 19.5l-9 191l-182 -189q-24 -25 -46 -3l-77 77q-21 21 3 46z" />
    <glyph glyph-name="arrowdownright" unicode="&#x2198;" horiz-adv-x="680" 
d="M114 152l191 9l-189 182q-24 25 -3 46l77 77q22 22 46 -3l182 -189l9 191q1 14 11 19.5t21 -4.5l105 -104q17 -17 15 -38l-21 -289q0 -12 -8 -20q-6 -7 -20 -8l-289 -21q-21 -2 -38 15l-104 105q-10 11 -4.5 21t19.5 11z" />
    <glyph glyph-name="arrowdownleft" unicode="&#x2199;" horiz-adv-x="680" 
d="M375 161l191 -9q14 -1 19.5 -11t-4.5 -21l-104 -105q-17 -17 -38 -15l-289 21q-13 1 -20 8t-8 20l-21 289q-2 21 15 38l105 104q11 10 21 4.5t11 -19.5l9 -191l182 189q24 25 46 3l77 -77q21 -21 -3 -46z" />
    <glyph glyph-name="partialdiff" unicode="&#x2202;" horiz-adv-x="668" 
d="M198 543q-40 -9 -46 26l-13 82q-5 31 30 44q70 25 146 25q313 0 313 -340q0 -62 -10 -117.5t-34 -106.5t-59.5 -88t-89 -58.5t-120.5 -21.5q-133 0 -207 66.5t-74 171.5q0 113 69 178t188 65q87 0 139 -35q1 9 -1 25q-13 95 -136 95q-45 0 -95 -11zM312 156
q53 0 81.5 29.5t28.5 69.5q0 77 -91 77q-48 0 -78 -25t-30 -73q0 -37 24 -57.5t65 -20.5z" />
    <glyph glyph-name="Delta" unicode="&#x2206;" horiz-adv-x="700" 
d="M253 708h194q16 0 22.5 -5t10.5 -18l186 -649q11 -36 -24 -36h-584q-35 0 -24 36l186 649q4 13 10.5 18t22.5 5zM348 528l-83 -365h170l-83 365h-4z" />
    <glyph glyph-name="product" unicode="&#x220f;" horiz-adv-x="840" 
d="M32 570v104q0 34 34 34h708q34 0 34 -34v-104q0 -34 -34 -34h-71v-502q0 -34 -34 -34h-140q-34 0 -34 34v502h-150v-502q0 -34 -34 -34h-140q-34 0 -34 34v502h-71q-34 0 -34 34z" />
    <glyph glyph-name="summation" unicode="&#x2211;" horiz-adv-x="628" 
d="M459 250l-182 -188h277q34 0 34 -33v-105q0 -34 -34 -34h-476q-34 0 -34 34v92q0 39 25 65l208 219l-203 218q-24 27 -24 64v92q0 34 34 34h463q34 0 34 -34v-104q0 -34 -34 -34h-264l177 -186q8 -8 8 -25v-49q0 -16 -9 -26z" />
    <glyph glyph-name="minus" unicode="&#x2212;" horiz-adv-x="612" 
d="M520 268h-428q-34 0 -34 34v94q0 34 34 34h428q34 0 34 -34v-94q0 -34 -34 -34z" />
    <glyph glyph-name="uni2215" unicode="&#x2215;" horiz-adv-x="86" 
d="M299 674l-370 -640q-19 -34 -50 -34h-74q-37 0 -18 34l370 640q19 34 50 34h74q37 0 18 -34z" />
    <glyph glyph-name="uni2219" unicode="&#x2219;" horiz-adv-x="278" 
d="M40 226v123q0 33 37 33h124q37 0 37 -33v-123q0 -34 -34 -34h-130q-34 0 -34 34z" />
    <glyph glyph-name="radical" unicode="&#x221a;" horiz-adv-x="802" 
d="M491 -70h-180q-33 0 -45 33l-143 381h-65q-34 0 -34 34v86q0 34 34 34h196q20 0 29 -6.5t14 -24.5l94 -320h5l135 594q7 28 39 28h154q36 0 26 -34l-216 -771q-9 -34 -43 -34z" />
    <glyph glyph-name="infinity" unicode="&#x221e;" horiz-adv-x="742" 
d="M366 483q63 50 145 50q102 0 148.5 -49t46.5 -132q0 -33 -10 -63.5t-31 -58t-61 -44t-93 -16.5q-46 0 -81.5 15t-53.5 36q-63 -50 -147 -50q-100 0 -146.5 49t-46.5 132q0 33 10 63.5t31 58t61 44t93 16.5q46 0 81.5 -15t53.5 -36zM303 345l18 76q-17 25 -63 25
q-82 0 -82 -110q0 -29 15 -45t42 -16q54 0 70 70zM439 359l-18 -76q17 -25 63 -25q82 0 82 110q0 29 -15 45t-42 16q-54 0 -70 -70z" />
    <glyph glyph-name="integral" unicode="&#x222b;" horiz-adv-x="512" 
d="M152 71v476q0 91 41.5 131t134.5 40q49 0 87 -9q17 -4 25 -11.5t8 -23.5v-82q0 -29 -28 -29q-5 0 -14 1.5t-17 1.5q-29 0 -29 -39v-476q0 -91 -41.5 -131t-134.5 -40q-49 0 -87 9q-17 4 -25 11.5t-8 23.5v82q0 29 28 29q5 0 14 -1.5t17 -1.5q29 0 29 39z" />
    <glyph glyph-name="approxequal" unicode="&#x2248;" horiz-adv-x="612" 
d="M539 254q0 -56 -27.5 -87t-78.5 -31q-47 0 -94 17l-64 23q-30 12 -53 12q-24 0 -27 -18l-1 -7q-3 -26 -34 -23h-49q-38 0 -38 56q0 57 28 88.5t81 31.5q44 0 91 -17l64 -23q33 -12 52 -12q25 0 28 18l1 7q4 23 34 23h49q38 0 38 -58zM539 499q0 -56 -27.5 -87t-78.5 -31
q-47 0 -94 17l-64 23q-34 12 -52 12q-25 0 -28 -18l-1 -7q-4 -23 -34 -23h-49q-38 0 -38 56q0 57 28 88.5t81 31.5q46 0 91 -17l64 -23q36 -12 53 -12q24 0 27 18l1 7q4 23 34 23h49q38 0 38 -58z" />
    <glyph glyph-name="notequal" unicode="&#x2260;" horiz-adv-x="612" 
d="M518 150h-220l-47 -116q-13 -34 -42 -34h-81q-38 0 -25 34l47 116h-56q-34 0 -34 34v84q0 34 34 34h117l38 94h-155q-34 0 -34 34v84q0 34 34 34h216l51 126q13 34 43 34h80q38 0 25 -34l-51 -126h60q34 0 34 -34v-84q0 -34 -34 -34h-121l-38 -94h159q34 0 34 -34v-84
q0 -34 -34 -34z" />
    <glyph glyph-name="lessequal" unicode="&#x2264;" horiz-adv-x="612" 
d="M64 446q0 21 16 33l325 248q25 20 48 -5l77 -82q11 -13 9 -26t-14 -22l-199 -147l199 -147q13 -10 14.5 -23.5t-9.5 -24.5l-77 -82q-23 -25 -48 -5l-325 248q-16 12 -16 35zM500 0h-398q-34 0 -34 34v54q0 34 34 34h398q34 0 34 -34v-54q0 -34 -34 -34z" />
    <glyph glyph-name="greaterequal" unicode="&#x2265;" horiz-adv-x="612" 
d="M550 445q0 -23 -16 -34l-325 -248q-25 -19 -48 5l-77 82q-11 12 -9 25.5t14 22.5l199 147l-199 147q-12 9 -14 22.5t9 25.5l77 82q19 16 27 15.5t21 -10.5l325 -248q16 -12 16 -34zM512 0h-398q-34 0 -34 34v54q0 34 34 34h398q34 0 34 -34v-54q0 -34 -34 -34z" />
    <glyph glyph-name="lozenge" unicode="&#x25ca;" horiz-adv-x="700" 
d="M350 213l111 141l-111 141l-111 -141zM350 -15q-15 0 -27 15l-272 338q-8 10 -8 16t8 16l272 338q12 15 27 15t27 -15l272 -338q8 -10 8 -16t-8 -16l-272 -338q-12 -15 -27 -15z" />
    <glyph glyph-name="uniE000" unicode="&#xe000;" horiz-adv-x="500" 
 />
    <glyph glyph-name="Q.alt" unicode="&#xe001;" horiz-adv-x="720" 
d="M247 -74l11 77q-102 26 -163 114t-61 237q0 187 86 276.5t240 89.5t240 -89.5t86 -276.5q0 -149 -61 -237t-163 -114l12 -77q6 -36 -34 -36h-159q-39 0 -34 36zM360 174q53 0 79 42t26 138t-26 138t-79 42t-79 -42t-26 -138t26 -138t79 -42z" />
    <glyph glyph-name="a.alt" unicode="&#xe002;" horiz-adv-x="638" 
d="M384 270q0 66 -17.5 95t-53.5 29t-53 -29t-17 -95t17 -95t53 -29t53.5 29t17.5 95zM590 506v-472q0 -34 -34 -34h-122q-28 0 -35 26l-8 29q-21 -29 -65 -48t-84 -19q-102 0 -156 71t-54 211t54 211t156 71q40 0 84 -19t65 -48l8 29q7 26 35 26h122q34 0 34 -34z" />
    <glyph glyph-name="u.alt" unicode="&#xe003;" horiz-adv-x="618" 
d="M309 -12q-126 0 -194.5 58.5t-68.5 177.5v282q0 34 34 34h140q34 0 34 -34v-272q0 -40 12 -59t43 -19t43 19t12 59v272q0 34 34 34h140q34 0 34 -34v-282q0 -119 -68.5 -177.5t-194.5 -58.5z" />
    <glyph glyph-name="y.alt" unicode="&#xe004;" horiz-adv-x="612" 
d="M372 126v21q-21 -27 -59 -46t-85 -19q-89 0 -135.5 46t-46.5 149v229q0 34 34 34h140q34 0 34 -34v-192q0 -36 9.5 -53.5t34.5 -17.5q58 0 58 80v183q0 34 34 34h140q34 0 34 -34v-393q0 -110 -73 -172.5t-209 -62.5q-54 0 -113 10t-86 24q-29 15 -21 43l20 74
q9 33 43 21q73 -26 123 -26q69 0 96.5 23.5t27.5 78.5z" />
    <glyph glyph-name="j.alt" unicode="&#xe005;" horiz-adv-x="316" 
d="M262 506v-582q0 -34 -34 -34h-140q-34 0 -34 34v582q0 34 34 34h140q34 0 34 -34zM264 674v-53q0 -34 -34 -34h-144q-34 0 -34 34v53q0 34 34 34h144q34 0 34 -34z" />
    <glyph glyph-name="agrave.alt" unicode="&#xe006;" horiz-adv-x="638" 
d="M384 270q0 66 -17.5 95t-53.5 29t-53 -29t-17 -95t17 -95t53 -29t53.5 29t17.5 95zM590 506v-472q0 -34 -34 -34h-122q-28 0 -35 26l-8 29q-21 -29 -65 -48t-84 -19q-102 0 -156 71t-54 211t54 211t156 71q40 0 84 -19t65 -48l8 29q7 26 35 26h122q34 0 34 -34zM391 709
l32 -87q4 -12 -1.5 -19t-19.5 -7h-77q-25 0 -41 16l-82 84q-6 6 -7.5 14.5t3.5 15t15 6.5h143q27 0 35 -23z" />
    <glyph glyph-name="aacute.alt" unicode="&#xe007;" horiz-adv-x="638" 
d="M384 270q0 66 -17.5 95t-53.5 29t-53 -29t-17 -95t17 -95t53 -29t53.5 29t17.5 95zM590 506v-472q0 -34 -34 -34h-122q-28 0 -35 26l-8 29q-21 -29 -65 -48t-84 -19q-102 0 -156 71t-54 211t54 211t156 71q40 0 84 -19t65 -48l8 29q7 26 35 26h122q34 0 34 -34zM235 622
l32 87q8 23 35 23h143q16 0 19 -13t-8 -23l-82 -84q-16 -16 -41 -16h-77q-14 0 -19.5 7t-1.5 19z" />
    <glyph glyph-name="acircumflex.alt" unicode="&#xe008;" horiz-adv-x="638" 
d="M384 270q0 66 -17.5 95t-53.5 29t-53 -29t-17 -95t17 -95t53 -29t53.5 29t17.5 95zM590 506v-472q0 -34 -34 -34h-122q-28 0 -35 26l-8 29q-21 -29 -65 -48t-84 -19q-102 0 -156 71t-54 211t54 211t156 71q40 0 84 -19t65 -48l8 29q7 26 35 26h122q34 0 34 -34zM384 611
l-65 54l-65 -54q-17 -15 -35 -15h-56q-15 0 -19.5 10.5t4.5 20.5l88 106q17 21 47 21h72q30 0 47 -21l88 -106q9 -10 4.5 -20.5t-19.5 -10.5h-56q-18 0 -35 15z" />
    <glyph glyph-name="atilde.alt" unicode="&#xe009;" horiz-adv-x="638" 
d="M384 270q0 66 -17.5 95t-53.5 29t-53 -29t-17 -95t17 -95t53 -29t53.5 29t17.5 95zM590 506v-472q0 -34 -34 -34h-122q-28 0 -35 26l-8 29q-21 -29 -65 -48t-84 -19q-102 0 -156 71t-54 211t54 211t156 71q40 0 84 -19t65 -48l8 29q7 26 35 26h122q34 0 34 -34zM516 689
q0 -96 -89 -96q-43 0 -80 14l-54 20q-64 24 -68 -5l-1 -6q-4 -20 -29 -20h-41q-17 0 -24.5 8.5t-7.5 30.5q0 48 23.5 75t68.5 27q40 0 77 -14l54 -20q64 -23 68 5l1 6q4 20 29 20h41q32 0 32 -45z" />
    <glyph glyph-name="adieresis.alt" unicode="&#xe00a;" horiz-adv-x="638" 
d="M384 270q0 66 -17.5 95t-53.5 29t-53 -29t-17 -95t17 -95t53 -29t53.5 29t17.5 95zM590 506v-472q0 -34 -34 -34h-122q-28 0 -35 26l-8 29q-21 -29 -65 -48t-84 -19q-102 0 -156 71t-54 211t54 211t156 71q40 0 84 -19t65 -48l8 29q7 26 35 26h122q34 0 34 -34zM291 683
v-53q0 -34 -34 -34h-100q-34 0 -34 34v53q0 34 34 34h100q34 0 34 -34zM515 683v-53q0 -34 -34 -34h-100q-34 0 -34 34v53q0 34 34 34h100q34 0 34 -34z" />
    <glyph glyph-name="amacron.alt" unicode="&#xe00b;" horiz-adv-x="638" 
d="M384 270q0 66 -17.5 95t-53.5 29t-53 -29t-17 -95t17 -95t53 -29t53.5 29t17.5 95zM590 506v-472q0 -34 -34 -34h-122q-28 0 -35 26l-8 29q-21 -29 -65 -48t-84 -19q-102 0 -156 71t-54 211t54 211t156 71q40 0 84 -19t65 -48l8 29q7 26 35 26h122q34 0 34 -34zM477 600
h-316q-32 0 -32 32v47q0 32 32 32h316q32 0 32 -32v-47q0 -32 -32 -32z" />
    <glyph glyph-name="abreve.alt" unicode="&#xe00c;" horiz-adv-x="638" 
d="M384 270q0 66 -17.5 95t-53.5 29t-53 -29t-17 -95t17 -95t53 -29t53.5 29t17.5 95zM590 506v-472q0 -34 -34 -34h-122q-28 0 -35 26l-8 29q-21 -29 -65 -48t-84 -19q-102 0 -156 71t-54 211t54 211t156 71q40 0 84 -19t65 -48l8 29q7 26 35 26h122q34 0 34 -34zM319 590
q-88 0 -133 42t-45 102q0 26 26 26h48q25 0 30 -25q10 -53 74 -53t74 53q5 25 30 25h48q26 0 26 -26q0 -60 -45 -102t-133 -42z" />
    <glyph glyph-name="aring.alt" unicode="&#xe00d;" horiz-adv-x="638" 
d="M384 270q0 66 -17.5 95t-53.5 29t-53 -29t-17 -95t17 -95t53 -29t53.5 29t17.5 95zM590 506v-472q0 -34 -34 -34h-122q-28 0 -35 26l-8 29q-21 -29 -65 -48t-84 -19q-102 0 -156 71t-54 211t54 211t156 71q40 0 84 -19t65 -48l8 29q7 26 35 26h122q34 0 34 -34zM319 658
q21 0 36 14t15 35t-15 35t-36 14t-36 -14t-15 -35t15 -35t36 -14zM319 824q54 0 90.5 -32.5t36.5 -84.5t-36.5 -84.5t-90.5 -32.5t-90.5 32.5t-36.5 84.5t36.5 84.5t90.5 32.5z" />
    <glyph glyph-name="aringacute.alt" unicode="&#xe00e;" horiz-adv-x="638" 
d="M590 506v-472q0 -34 -34 -34h-122q-28 0 -35 26l-8 29q-21 -29 -65 -48t-84 -19q-102 0 -156 71t-54 211t54 211t156 71q40 0 84 -19t65 -48l8 29q7 26 35 26h122q34 0 34 -34zM191 707q0 71 63 103l29 77q8 23 35 23h143q16 0 19 -13t-8 -23l-73 -75q46 -33 46 -92
q0 -52 -36.5 -84.5t-90.5 -32.5t-90.5 32.5t-36.5 84.5zM384 270q0 66 -17.5 95t-53.5 29t-53 -29t-17 -95t17 -95t53 -29t53.5 29t17.5 95zM318 658q21 0 36 14t15 35t-15 35t-36 14t-36 -14t-15 -35t15 -35t36 -14z" />
    <glyph glyph-name="aogonek.alt" unicode="&#xe00f;" horiz-adv-x="638" 
d="M590 506v-472q0 -34 -34 -34h-26q-43 -29 -43 -62q0 -32 40 -32q9 0 18 2t13 2q14 0 17 -14l12 -40q4 -15 -12 -25q-32 -20 -89 -20q-112 0 -112 82q0 33 25.5 62t60.5 45h-26q-28 0 -35 26l-8 29q-21 -29 -65 -48t-84 -19q-102 0 -156 71t-54 211t54 211t156 71
q40 0 84 -19t65 -48l8 29q7 26 35 26h122q34 0 34 -34zM384 270q0 66 -17.5 95t-53.5 29t-53 -29t-17 -95t17 -95t53 -29t53.5 29t17.5 95z" />
    <glyph glyph-name="ij.alt" unicode="&#xe010;" horiz-adv-x="620" 
d="M262 506v-472q0 -34 -34 -34h-140q-34 0 -34 34v472q0 34 34 34h140q34 0 34 -34zM264 674v-53q0 -34 -34 -34h-144q-34 0 -34 34v53q0 34 34 34h144q34 0 34 -34zM566 506v-582q0 -34 -34 -34h-140q-34 0 -34 34v582q0 34 34 34h140q34 0 34 -34zM568 674v-53
q0 -34 -34 -34h-144q-34 0 -34 34v53q0 34 34 34h144q34 0 34 -34z" />
    <glyph glyph-name="jcircumflex.alt" unicode="&#xe011;" horiz-adv-x="316" 
d="M262 506v-582q0 -34 -34 -34h-140q-34 0 -34 34v582q0 34 34 34h140q34 0 34 -34zM223 611l-65 54l-65 -54q-17 -15 -35 -15h-56q-15 0 -19.5 10.5t4.5 20.5l88 106q17 21 47 21h72q30 0 47 -21l88 -106q9 -10 4.5 -20.5t-19.5 -10.5h-56q-18 0 -35 15z" />
    <glyph glyph-name="dotlessj.alt" unicode="&#xe012;" horiz-adv-x="316" 
d="M262 506v-582q0 -34 -34 -34h-140q-34 0 -34 34v582q0 34 34 34h140q34 0 34 -34z" />
    <glyph glyph-name="ugrave.alt" unicode="&#xe013;" horiz-adv-x="618" 
d="M309 -12q-126 0 -194.5 58.5t-68.5 177.5v282q0 34 34 34h140q34 0 34 -34v-272q0 -40 12 -59t43 -19t43 19t12 59v272q0 34 34 34h140q34 0 34 -34v-282q0 -119 -68.5 -177.5t-194.5 -58.5zM341 709l32 -87q4 -12 -1.5 -19t-19.5 -7h-77q-25 0 -41 16l-82 84
q-6 6 -7.5 14.5t3.5 15t15 6.5h143q27 0 35 -23z" />
    <glyph glyph-name="uacute.alt" unicode="&#xe014;" horiz-adv-x="618" 
d="M309 -12q-126 0 -194.5 58.5t-68.5 177.5v282q0 34 34 34h140q34 0 34 -34v-272q0 -40 12 -59t43 -19t43 19t12 59v272q0 34 34 34h140q34 0 34 -34v-282q0 -119 -68.5 -177.5t-194.5 -58.5zM245 622l32 87q8 23 35 23h143q16 0 19 -13t-8 -23l-82 -84q-16 -16 -41 -16
h-77q-14 0 -19.5 7t-1.5 19z" />
    <glyph glyph-name="ucircumflex.alt" unicode="&#xe015;" horiz-adv-x="618" 
d="M309 -12q-126 0 -194.5 58.5t-68.5 177.5v282q0 34 34 34h140q34 0 34 -34v-272q0 -40 12 -59t43 -19t43 19t12 59v272q0 34 34 34h140q34 0 34 -34v-282q0 -119 -68.5 -177.5t-194.5 -58.5zM374 611l-65 54l-65 -54q-17 -15 -35 -15h-56q-15 0 -19.5 10.5t4.5 20.5
l88 106q17 21 47 21h72q30 0 47 -21l88 -106q9 -10 4.5 -20.5t-19.5 -10.5h-56q-18 0 -35 15z" />
    <glyph glyph-name="utilde.alt" unicode="&#xe016;" horiz-adv-x="618" 
d="M309 -12q-126 0 -194.5 58.5t-68.5 177.5v282q0 34 34 34h140q34 0 34 -34v-272q0 -40 12 -59t43 -19t43 19t12 59v272q0 34 34 34h140q34 0 34 -34v-282q0 -119 -68.5 -177.5t-194.5 -58.5zM506 689q0 -96 -89 -96q-43 0 -80 14l-54 20q-64 24 -68 -5l-1 -6
q-4 -20 -29 -20h-41q-17 0 -24.5 8.5t-7.5 30.5q0 48 23.5 75t68.5 27q40 0 77 -14l54 -20q64 -23 68 5l1 6q4 20 29 20h41q32 0 32 -45z" />
    <glyph glyph-name="udieresis.alt" unicode="&#xe017;" horiz-adv-x="618" 
d="M309 -12q-126 0 -194.5 58.5t-68.5 177.5v282q0 34 34 34h140q34 0 34 -34v-272q0 -40 12 -59t43 -19t43 19t12 59v272q0 34 34 34h140q34 0 34 -34v-282q0 -119 -68.5 -177.5t-194.5 -58.5zM281 683v-53q0 -34 -34 -34h-100q-34 0 -34 34v53q0 34 34 34h100q34 0 34 -34
zM505 683v-53q0 -34 -34 -34h-100q-34 0 -34 34v53q0 34 34 34h100q34 0 34 -34z" />
    <glyph glyph-name="umacron.alt" unicode="&#xe018;" horiz-adv-x="618" 
d="M309 -12q-126 0 -194.5 58.5t-68.5 177.5v282q0 34 34 34h140q34 0 34 -34v-272q0 -40 12 -59t43 -19t43 19t12 59v272q0 34 34 34h140q34 0 34 -34v-282q0 -119 -68.5 -177.5t-194.5 -58.5zM467 600h-316q-32 0 -32 32v47q0 32 32 32h316q32 0 32 -32v-47q0 -32 -32 -32
z" />
    <glyph glyph-name="ubreve.alt" unicode="&#xe019;" horiz-adv-x="618" 
d="M309 -12q-126 0 -194.5 58.5t-68.5 177.5v282q0 34 34 34h140q34 0 34 -34v-272q0 -40 12 -59t43 -19t43 19t12 59v272q0 34 34 34h140q34 0 34 -34v-282q0 -119 -68.5 -177.5t-194.5 -58.5zM309 590q-88 0 -133 42t-45 102q0 26 26 26h48q25 0 30 -25q10 -53 74 -53
t74 53q5 25 30 25h48q26 0 26 -26q0 -60 -45 -102t-133 -42z" />
    <glyph glyph-name="uring.alt" unicode="&#xe01a;" horiz-adv-x="618" 
d="M309 -12q-126 0 -194.5 58.5t-68.5 177.5v282q0 34 34 34h140q34 0 34 -34v-272q0 -40 12 -59t43 -19t43 19t12 59v272q0 34 34 34h140q34 0 34 -34v-282q0 -119 -68.5 -177.5t-194.5 -58.5zM309 658q21 0 36 14t15 35t-15 35t-36 14t-36 -14t-15 -35t15 -35t36 -14z
M309 824q54 0 90.5 -32.5t36.5 -84.5t-36.5 -84.5t-90.5 -32.5t-90.5 32.5t-36.5 84.5t36.5 84.5t90.5 32.5z" />
    <glyph glyph-name="uhungarumlaut.alt" unicode="&#xe01b;" horiz-adv-x="618" 
d="M309 -12q-126 0 -194.5 58.5t-68.5 177.5v282q0 34 34 34h140q34 0 34 -34v-272q0 -40 12 -59t43 -19t43 19t12 59v272q0 34 34 34h140q34 0 34 -34v-282q0 -119 -68.5 -177.5t-194.5 -58.5zM130 622l27 87q7 23 33 23h129q16 0 20 -13t-6 -23l-72 -84q-13 -16 -40 -16
h-68q-14 0 -20.5 7.5t-2.5 18.5zM340 622l27 87q7 23 33 23h129q16 0 20 -13t-6 -23l-72 -84q-13 -16 -40 -16h-68q-14 0 -20 7.5t-3 18.5z" />
    <glyph glyph-name="ydieresis.alt" unicode="&#xe01c;" horiz-adv-x="612" 
d="M372 126v21q-21 -27 -59 -46t-85 -19q-89 0 -135.5 46t-46.5 149v229q0 34 34 34h140q34 0 34 -34v-192q0 -36 9.5 -53.5t34.5 -17.5q58 0 58 80v183q0 34 34 34h140q34 0 34 -34v-393q0 -110 -73 -172.5t-209 -62.5q-54 0 -113 10t-86 24q-29 15 -21 43l20 74
q9 33 43 21q73 -26 123 -26q69 0 96.5 23.5t27.5 78.5zM278 683v-53q0 -34 -34 -34h-100q-34 0 -34 34v53q0 34 34 34h100q34 0 34 -34zM502 683v-53q0 -34 -34 -34h-100q-34 0 -34 34v53q0 34 34 34h100q34 0 34 -34z" />
    <glyph glyph-name="yacute.alt" unicode="&#xe01d;" horiz-adv-x="612" 
d="M372 126v21q-21 -27 -59 -46t-85 -19q-89 0 -135.5 46t-46.5 149v229q0 34 34 34h140q34 0 34 -34v-192q0 -36 9.5 -53.5t34.5 -17.5q58 0 58 80v183q0 34 34 34h140q34 0 34 -34v-393q0 -110 -73 -172.5t-209 -62.5q-54 0 -113 10t-86 24q-29 15 -21 43l20 74
q9 33 43 21q73 -26 123 -26q69 0 96.5 23.5t27.5 78.5zM232 622l32 87q8 23 35 23h143q16 0 19 -13t-8 -23l-82 -84q-16 -16 -41 -16h-77q-14 0 -19.5 7t-1.5 19z" />
    <glyph glyph-name="ycircumflex.alt" unicode="&#xe01e;" horiz-adv-x="612" 
d="M372 126v21q-21 -27 -59 -46t-85 -19q-89 0 -135.5 46t-46.5 149v229q0 34 34 34h140q34 0 34 -34v-192q0 -36 9.5 -53.5t34.5 -17.5q58 0 58 80v183q0 34 34 34h140q34 0 34 -34v-393q0 -110 -73 -172.5t-209 -62.5q-54 0 -113 10t-86 24q-29 15 -21 43l20 74
q9 33 43 21q73 -26 123 -26q69 0 96.5 23.5t27.5 78.5zM371 611l-65 54l-65 -54q-17 -15 -35 -15h-56q-15 0 -19.5 10.5t4.5 20.5l88 106q17 21 47 21h72q30 0 47 -21l88 -106q9 -10 4.5 -20.5t-19.5 -10.5h-56q-18 0 -35 15z" />
    <glyph glyph-name="ygrave.alt" unicode="&#xe01f;" horiz-adv-x="612" 
d="M372 126v21q-21 -27 -59 -46t-85 -19q-89 0 -135.5 46t-46.5 149v229q0 34 34 34h140q34 0 34 -34v-192q0 -36 9.5 -53.5t34.5 -17.5q58 0 58 80v183q0 34 34 34h140q34 0 34 -34v-393q0 -110 -73 -172.5t-209 -62.5q-54 0 -113 10t-86 24q-29 15 -21 43l20 74
q9 33 43 21q73 -26 123 -26q69 0 96.5 23.5t27.5 78.5zM338 709l32 -87q4 -12 -1.5 -19t-19.5 -7h-77q-25 0 -41 16l-82 84q-6 6 -7.5 14.5t3.5 15t15 6.5h143q27 0 35 -23z" />
    <glyph glyph-name="i.dot" unicode="&#xe020;" horiz-adv-x="316" 
d="M262 506v-472q0 -34 -34 -34h-140q-34 0 -34 34v472q0 34 34 34h140q34 0 34 -34zM264 674v-53q0 -34 -34 -34h-144q-34 0 -34 34v53q0 34 34 34h144q34 0 34 -34z" />
    <glyph glyph-name="dollar.old" unicode="&#xe021;" horiz-adv-x="566" 
d="M339 655v-58q98 -8 150 -36q23 -13 15 -37l-30 -83q-9 -25 -40 -16q-71 20 -131 20q-56 0 -56 -25q0 -16 16.5 -24.5t82.5 -31.5q35 -12 54.5 -20t48 -24.5t44 -34.5t27.5 -47t12 -65q0 -162 -193 -182v-54q0 -27 -26 -27h-58q-26 0 -26 27v53q-119 8 -181 42
q-26 14 -17 37l32 89q10 26 39 14q68 -28 150 -28q18 0 26.5 0.5t20.5 2.5t17.5 8t5.5 15q0 16 -16.5 24.5t-69.5 26.5q-51 17 -79.5 30t-60 37t-45.5 59t-14 85q0 147 192 165v58q0 27 26 27h58q26 0 26 -27z" />
    <glyph glyph-name="cent.old" unicode="&#xe022;" horiz-adv-x="568" 
d="M34 294q0 270 241 302v59q0 27 26 27h58q26 0 26 -27v-58q84 -9 135 -39q26 -15 16 -40l-38 -89q-10 -26 -40 -14q-40 17 -94 17q-62 0 -90 -34t-28 -104t28.5 -104t91.5 -34q56 0 96 17q30 12 40 -14l38 -89q10 -24 -16 -40q-47 -29 -139 -39v-54q0 -27 -26 -27h-58
q-26 0 -26 27v55q-241 32 -241 302z" />
    <glyph glyph-name="sterling.old" unicode="&#xe023;" horiz-adv-x="604" 
d="M112 246h-67q-21 0 -21 20v40q0 20 21 20h26q-25 45 -25 91q0 81 70 132t185 51q257 0 257 -184q0 -47 -27 -47h-123q-23 0 -23 17q0 4 1 10.5t1 11.5q0 37 -61 37q-38 0 -54 -15.5t-16 -46.5q0 -28 12 -57h129q21 0 21 -20v-40q0 -20 -21 -20h-102q1 -4 1 -12
q0 -56 -51 -92q22 7 50 7q18 0 42.5 -3t37.5 -3q46 0 51 41q1 14 7.5 19t22.5 5h94q17 0 24.5 -6.5t7.5 -26.5q0 -89 -28 -138t-103 -49q-38 0 -104.5 11t-99.5 11q-63 0 -108 -16q-14 -6 -23 -6t-16 10l-58 82q-16 25 6 39q27 17 47.5 47t20.5 53q0 15 -4 27z" />
    <glyph glyph-name="yen.old" unicode="&#xe024;" horiz-adv-x="610" 
d="M523 118h-113v-86q0 -32 -31 -32h-148q-31 0 -31 31v87h-113q-21 0 -21 20v38q0 20 21 20h113v12l-22 40h-91q-21 0 -21 20v38q0 20 21 20h49l-123 230q-8 13 -3.5 24.5t23.5 11.5h146q30 0 39 -23l86 -222h2l86 222q9 23 39 23h146q19 0 23.5 -11.5t-3.5 -24.5
l-124 -230h50q21 0 21 -20v-38q0 -20 -21 -20h-92l-21 -40v-12h113q21 0 21 -20v-38q0 -20 -21 -20z" />
    <glyph glyph-name="Euro.old" unicode="&#xe025;" horiz-adv-x="596" 
d="M25 274h33q-1 7 -1 20q0 14 1 20h-33q-21 0 -21 20v34q0 20 21 20h42q45 212 296 212q50 0 103.5 -12.5t81.5 -29.5q26 -17 16 -40l-40 -86q-12 -25 -40 -14q-43 18 -92 18q-72 0 -101 -48h168q11 0 15 -7t-1 -17l-16 -34q-7 -16 -31 -16h-156q-1 -7 -1 -20q0 -12 1 -20
h136q11 0 15 -7t-1 -17l-16 -34q-7 -16 -31 -16h-82q30 -48 103 -48q51 0 94 18q28 11 40 -14l40 -86q10 -23 -16 -40q-28 -17 -82 -29.5t-104 -12.5q-254 0 -299 212h-42q-21 0 -21 20v34q0 20 21 20z" />
    <glyph glyph-name="zero.old" unicode="&#xe026;" horiz-adv-x="658" 
d="M329 600q133 0 213 -77.5t80 -228.5t-80 -228.5t-213 -77.5t-213 77.5t-80 228.5t80 228.5t213 77.5zM329 152q81 0 81 142t-81 142t-81 -142t81 -142z" />
    <glyph glyph-name="one.old" unicode="&#xe027;" horiz-adv-x="600" 
d="M537 0h-438q-35 0 -35 35v95q0 35 35 35h120v227l-66 -30q-30 -14 -43 5l-52 71q-9 12 -7 23.5t11 17.5l140 98q24 15 47 15h145q35 0 35 -35v-392h108q35 0 35 -35v-95q0 -35 -35 -35z" />
    <glyph glyph-name="two.old" unicode="&#xe028;" horiz-adv-x="606" 
d="M44 30v92q0 21 24 34l49.5 25.5l55 28.5l51.5 29t50 33t38.5 33t28.5 36.5t9 37.5q0 57 -58 57q-30 0 -45.5 -14.5t-15.5 -33.5q0 -11 1.5 -22t1.5 -15q0 -25 -25 -25h-140q-21 0 -29 26q-4 13 -4 41q0 88 64.5 147.5t197.5 59.5q130 0 196 -53.5t66 -136.5
q0 -47 -18 -86t-54 -69.5t-64 -48t-74 -41.5h189q35 0 35 -35v-95q0 -35 -35 -35h-464q-31 0 -31 30z" />
    <glyph glyph-name="three.old" unicode="&#xe029;" horiz-adv-x="588" 
d="M183 329h69q42 0 60.5 13t18.5 40q0 54 -85 54q-67 0 -134 -28q-33 -15 -47 20l-32 79q-12 31 19 47q34 19 98 32.5t137 13.5q49 0 90 -8.5t78.5 -28t58.5 -57.5t21 -91q0 -108 -93 -147q47 -14 77.5 -57t30.5 -106q0 -108 -73.5 -167.5t-210.5 -59.5q-120 0 -228 50
q-32 14 -19 47l32 83q14 35 47 20q76 -33 144 -33q57 0 79.5 16t22.5 53q0 33 -20 47.5t-65 14.5h-76q-36 0 -36 35v83q0 35 36 35z" />
    <glyph glyph-name="four.old" unicode="&#xe02a;" horiz-adv-x="670" 
d="M349 391l-159 -204h159v204zM378 592h144q35 0 35 -35v-370h58q35 0 35 -35v-95q0 -35 -35 -35h-58v-97q0 -35 -35 -35h-138q-35 0 -35 35v97h-288q-35 0 -35 35v92q0 29 13 45l299 380q14 18 40 18z" />
    <glyph glyph-name="five.old" unicode="&#xe02b;" horiz-adv-x="606" 
d="M504 427h-261q-2 -50 -9 -100q43 12 95 12q241 0 241 -217q0 -244 -289 -244q-144 0 -229 50q-32 19 -20 47l33 83q14 37 47 20q68 -35 150 -35q55 0 78.5 20t23.5 59q0 76 -87 76q-35 0 -66.5 -9.5t-41.5 -9.5q-5 0 -20 5l-74 20q-24 6 -21 32q6 51 13 166t7 149
q0 41 37 41h393q35 0 35 -35v-95q0 -35 -35 -35z" />
    <glyph glyph-name="six.old" unicode="&#xe02c;" horiz-adv-x="634" 
d="M244 695q16 13 36 13h172q12 0 15 -9.5t-7 -18.5q-104 -91 -146 -184q21 7 56 7q103 0 167.5 -67t64.5 -187q0 -122 -76 -191.5t-200 -69.5q-135 0 -212.5 73.5t-77.5 219.5q0 106 60.5 221t147.5 193zM244 249q0 -48 21 -73.5t57 -25.5q74 0 74 99t-74 99
q-36 0 -57 -25.5t-21 -73.5z" />
    <glyph glyph-name="seven.old" unicode="&#xe02d;" horiz-adv-x="572" 
d="M63 592h442q35 0 35 -35v-80q0 -10 -3.5 -19.5t-7 -14.5t-9.5 -12t-7 -9q-70 -94 -126 -227t-70 -262q-2 -19 -10.5 -28t-27.5 -9h-141q-17 0 -26.5 11t-8.5 27q8 119 73 261.5t145 231.5h-258q-35 0 -35 35v95q0 35 35 35z" />
    <glyph glyph-name="eight.old" unicode="&#xe02e;" horiz-adv-x="654" 
d="M327 -12q-143 0 -218 54.5t-75 151.5q0 68 36 111.5t95 61.5q-52 17 -82.5 60.5t-30.5 99.5q0 95 73 144t202 49t202 -49t73 -144q0 -56 -30.5 -99.5t-82.5 -60.5q59 -18 95 -61.5t36 -111.5q0 -97 -74.5 -151.5t-218.5 -54.5zM327 579q-35 0 -53 -16.5t-18 -45.5
q0 -69 71 -91q71 22 71 91q0 29 -18 45.5t-53 16.5zM327 306q-42 -13 -64 -40t-22 -61q0 -32 22.5 -49.5t63.5 -17.5t64 17.5t23 49.5q0 34 -22.5 61t-64.5 40z" />
    <glyph glyph-name="nine.old" unicode="&#xe02f;" horiz-adv-x="634" 
d="M390 -108q-16 -13 -36 -13h-172q-12 0 -15 9.5t7 18.5q104 91 146 184q-21 -7 -56 -7q-103 0 -167.5 67t-64.5 187q0 122 76 191.5t200 69.5q135 0 212.5 -73.5t77.5 -219.5q0 -106 -60.5 -221t-147.5 -193zM390 338q0 48 -21 73.5t-57 25.5q-74 0 -74 -99t74 -99
q36 0 57 25.5t21 73.5z" />
    <glyph glyph-name="dollar.tab" unicode="&#xe030;" horiz-adv-x="650" 
d="M396 774v-58q104 -12 163 -44q30 -16 19 -45l-34 -88q-13 -32 -46 -21q-66 22 -141 22q-90 0 -90 -36q0 -18 26 -32t85 -34l52 -18t46.5 -18.5t44.5 -23.5t35 -28.5t30 -36.5t17 -45.5t7 -58.5q0 -93 -58 -145.5t-152 -67.5v-62q0 -34 -34 -34h-56q-34 0 -34 34v57
q-129 7 -211 50q-30 15 -19 45l35 93q14 35 46 21q78 -32 152 -32q113 0 113 42q0 18 -27 31t-85 31q-51 15 -85 30.5t-71 42.5t-56 69t-19 98q0 181 223 204v58q0 34 34 34h56q34 0 34 -34z" />
    <glyph glyph-name="cent.tab" unicode="&#xe031;" horiz-adv-x="650" 
d="M76 270q0 123 63 193t176 85v58q0 34 34 34h56q34 0 34 -34v-58q75 -11 115 -35q30 -19 17 -48l-36 -76q-13 -29 -50 -16q-42 14 -84 14q-114 0 -114 -117t116 -117q49 0 86 16q36 16 50 -16l36 -75q13 -29 -17 -49q-39 -27 -119 -37v-58q0 -34 -34 -34h-56q-34 0 -34 34
v59q-114 15 -176.5 84.5t-62.5 192.5z" />
    <glyph glyph-name="sterling.tab" unicode="&#xe032;" horiz-adv-x="650" 
d="M128 314h-80q-24 0 -24 24v37q0 24 24 24h35q-25 50 -25 104q0 93 68 155t211 62q262 0 262 -205q0 -49 -31 -49h-130q-28 0 -28 23q0 5 1 11.5t1 12.5q0 41 -66 41q-44 0 -61.5 -19.5t-17.5 -55.5q0 -33 15 -80h152q24 0 24 -24v-37q0 -24 -24 -24h-124q7 -30 7 -53
q0 -31 -17 -53.5t-49 -45.5q30 8 60 8q19 0 50 -6t47 -6q50 0 54 49q3 29 40 29h92q19 0 28.5 -9t9.5 -33q0 -101 -34 -151.5t-122 -50.5q-43 0 -107 15.5t-99 15.5q-64 0 -109 -19q-39 -17 -51 1l-69 98q-21 28 7 46q90 56 90 115q0 23 -10 50z" />
    <glyph glyph-name="yen.tab" unicode="&#xe033;" horiz-adv-x="650" 
d="M434 154v-118q0 -36 -36 -36h-146q-36 0 -36 36v118h-134q-24 0 -24 24v37q0 24 24 24h134v12l-26 51h-108q-24 0 -24 24v37q0 24 24 24h66l-139 276q-9 17 -1.5 31t25.5 14h152q36 0 48 -33l90 -248h4l90 248q12 33 48 33h152q18 0 25.5 -14t-1.5 -31l-139 -276h66
q24 0 24 -24v-37q0 -24 -24 -24h-109l-25 -51v-12h134q24 0 24 -24v-37q0 -24 -24 -24h-134z" />
    <glyph glyph-name="Euro.tab" unicode="&#xe034;" horiz-adv-x="650" 
d="M34 330h41q-2 14 -2 24t2 24h-41q-24 0 -24 24v37q0 24 24 24h50q25 131 109 194t213 63q122 0 201 -53q17 -11 21 -20.5t-3 -27.5l-41 -89q-7 -17 -19 -20.5t-32 4.5q-44 18 -97 18q-92 0 -123 -69h211q12 0 17 -7.5t-1 -20.5l-17 -37q-9 -20 -33 -20h-193q-1 -8 -1 -24
q0 -17 1 -24h166q12 0 16.5 -8t-0.5 -20l-17 -37q-9 -20 -33 -20h-115q30 -69 123 -69q52 0 98 19q20 8 32 4.5t19 -20.5l41 -89q7 -18 3 -27.5t-21 -20.5q-81 -54 -202 -54q-129 0 -213.5 63t-109.5 194h-50q-24 0 -24 24v37q0 24 24 24z" />
    <glyph glyph-name="zero.tab" unicode="&#xe035;" horiz-adv-x="650" 
d="M325 720q140 0 221.5 -92t81.5 -274t-81.5 -274t-221.5 -92t-221.5 92t-81.5 273q0 182 81.5 274.5t221.5 92.5zM325 170q44 0 65 44t21 140t-21 140t-65 44t-65 -44t-21 -140t21 -140t65 -44z" />
    <glyph glyph-name="one.tab" unicode="&#xe036;" horiz-adv-x="650" 
d="M274 36v459l-89 -45q-28 -14 -44 7l-59 82q-17 25 5 40l167 113q23 16 55 16h143q36 0 36 -36v-636q0 -36 -36 -36h-142q-36 0 -36 36z" />
    <glyph glyph-name="two.tab" unicode="&#xe037;" horiz-adv-x="650" 
d="M243 493q0 -14 2 -27.5t2 -17.5q0 -30 -30 -30h-132q-27 0 -34 31q-5 20 -5 49q0 101 65.5 161.5t201.5 60.5q145 0 213 -62.5t68 -158.5q0 -53 -23.5 -104.5t-63.5 -93.5t-82 -73.5t-89 -57.5h230q36 0 36 -36v-98q0 -36 -36 -36h-484q-36 0 -36 36v82q0 16 6.5 24.5
t21.5 16.5q56 30 104 62t97 74t77.5 89.5t28.5 94.5q0 71 -71 71q-36 0 -51.5 -17t-15.5 -40z" />
    <glyph glyph-name="three.tab" unicode="&#xe038;" horiz-adv-x="650" 
d="M213 439h78q43 0 61.5 12.5t18.5 41.5q0 59 -88 59q-77 0 -150 -30q-35 -14 -48 20l-33 81q-13 34 20 48q107 48 243 48q48 0 91.5 -9t84 -28.5t64.5 -58t24 -90.5q0 -112 -99 -156q50 -15 82 -56.5t32 -105.5q0 -110 -70.5 -168t-212.5 -58q-139 0 -247 51
q-32 15 -20 48l33 84q14 35 48 20q76 -33 156 -33q59 0 81 15t22 50q0 59 -86 59h-85q-36 0 -36 36v84q0 36 36 36z" />
    <glyph glyph-name="four.tab" unicode="&#xe039;" horiz-adv-x="650" 
d="M520 0h-141q-36 0 -36 36v96h-301q-36 0 -36 36v94q0 28 14 45l312 383q14 18 41 18h146q36 0 36 -36v-372h59q36 0 36 -36v-96q0 -36 -36 -36h-59v-96q0 -36 -35 -36zM343 504l-168 -204h168v204z" />
    <glyph glyph-name="five.tab" unicode="&#xe03a;" horiz-adv-x="650" 
d="M604 234q0 -245 -304 -245q-130 0 -234 51q-32 15 -20 48l33 84q14 36 48 20q76 -33 160 -33q57 0 82 18t25 57q0 75 -92 75q-36 0 -70 -9.5t-44 -9.5q-5 0 -20 5l-76 21q-24 6 -21 32q6 52 13 168.5t7 150.5q0 41 38 41h400q36 0 36 -36v-98q0 -36 -36 -36h-266
q-2 -46 -9 -97q45 12 101 12q249 0 249 -219z" />
    <glyph glyph-name="six.tab" unicode="&#xe03b;" horiz-adv-x="650" 
d="M480 543q-50 11 -94 11q-79 0 -111.5 -28t-34.5 -87q58 38 143 38q115 0 176 -62.5t61 -169.5q0 -113 -75.5 -185t-199.5 -72q-158 0 -233.5 88.5t-75.5 242.5q0 203 76 302t256 99q84 0 152 -25q34 -13 27 -44l-19 -82q-5 -18 -15.5 -24t-32.5 -2zM343 158q42 0 66.5 25
t24.5 67q0 39 -25 62t-71 23q-96 0 -96 -86q0 -91 101 -91z" />
    <glyph glyph-name="seven.tab" unicode="&#xe03c;" horiz-adv-x="650" 
d="M137 34q15 123 82.5 268.5t146.5 235.5h-276q-36 0 -36 36v98q0 36 36 36h466q36 0 36 -36v-81q0 -10 -3.5 -20t-7 -14.5t-10 -12t-7.5 -9.5q-74 -99 -134.5 -236t-74.5 -265q-2 -19 -9.5 -26.5t-27.5 -7.5h-145q-19 0 -28.5 9t-7.5 25z" />
    <glyph glyph-name="eight.tab" unicode="&#xe03d;" horiz-adv-x="650" 
d="M325 -12q-147 0 -222.5 54t-75.5 152q0 132 133 172q-53 18 -84 61t-31 99q0 97 74 145.5t206 48.5t206 -48.5t74 -145.5q0 -56 -31 -99t-84 -61q133 -40 133 -172q0 -98 -75.5 -152t-222.5 -54zM325 574q-72 0 -72 -60q0 -34 17 -55.5t55 -34.5q38 13 55 34.5t17 55.5
q0 60 -72 60zM325 306q-88 -27 -88 -98q0 -66 88 -66t88 66q0 71 -88 98z" />
    <glyph glyph-name="nine.tab" unicode="&#xe03e;" horiz-adv-x="650" 
d="M170 165q49 -11 94 -11q79 0 111.5 28t34.5 87q-58 -38 -143 -38q-115 0 -176 62.5t-61 169.5q0 113 75.5 185t199.5 72q158 0 233.5 -88.5t75.5 -242.5q0 -203 -76 -302t-256 -99q-84 0 -152 25q-34 13 -27 44l19 82q5 18 15.5 24t32.5 2zM307 550q-42 0 -66.5 -25
t-24.5 -67q0 -39 25 -62t71 -23q96 0 96 86q0 91 -101 91z" />
    <glyph glyph-name="dollar.tabold" unicode="&#xe03f;" horiz-adv-x="650" 
d="M385 655v-58q98 -8 150 -36q23 -13 15 -37l-30 -83q-9 -25 -40 -16q-71 20 -131 20q-56 0 -56 -25q0 -16 16.5 -24.5t82.5 -31.5q35 -12 54.5 -20t48 -24.5t44 -34.5t27.5 -47t12 -65q0 -162 -193 -182v-54q0 -27 -26 -27h-58q-26 0 -26 27v53q-119 8 -181 42
q-26 14 -17 37l32 89q10 26 39 14q68 -28 150 -28q18 0 26.5 0.5t20.5 2.5t17.5 8t5.5 15q0 16 -16.5 24.5t-69.5 26.5q-51 17 -79.5 30t-60 37t-45.5 59t-14 85q0 147 192 165v58q0 27 26 27h58q26 0 26 -27z" />
    <glyph glyph-name="cent.tabold" unicode="&#xe040;" horiz-adv-x="650" 
d="M80 294q0 270 241 302v59q0 27 26 27h58q26 0 26 -27v-58q84 -9 135 -39q26 -15 16 -40l-38 -89q-10 -26 -40 -14q-40 17 -94 17q-62 0 -90 -34t-28 -104t28.5 -104t91.5 -34q56 0 96 17q30 12 40 -14l38 -89q10 -24 -16 -40q-47 -29 -139 -39v-54q0 -27 -26 -27h-58
q-26 0 -26 27v55q-241 32 -241 302z" />
    <glyph glyph-name="sterling.tabold" unicode="&#xe041;" horiz-adv-x="650" 
d="M138 246h-67q-21 0 -21 20v40q0 20 21 20h26q-25 45 -25 91q0 81 70 132t185 51q257 0 257 -184q0 -47 -27 -47h-123q-23 0 -23 17q0 4 1 10.5t1 11.5q0 37 -61 37q-38 0 -54 -15.5t-16 -46.5q0 -28 12 -57h129q21 0 21 -20v-40q0 -20 -21 -20h-102q1 -4 1 -12
q0 -56 -51 -92q22 7 50 7q18 0 42.5 -3t37.5 -3q46 0 51 41q1 14 7.5 19t22.5 5h94q17 0 24.5 -6.5t7.5 -26.5q0 -89 -28 -138t-103 -49q-38 0 -104.5 11t-99.5 11q-63 0 -108 -16q-14 -6 -23 -6t-16 10l-58 82q-16 25 6 39q27 17 47.5 47t20.5 53q0 15 -4 27z" />
    <glyph glyph-name="yen.tabold" unicode="&#xe042;" horiz-adv-x="650" 
d="M543 118h-113v-86q0 -32 -31 -32h-148q-31 0 -31 31v87h-113q-21 0 -21 20v38q0 20 21 20h113v12l-22 40h-91q-21 0 -21 20v38q0 20 21 20h49l-123 230q-8 13 -3.5 24.5t23.5 11.5h146q30 0 39 -23l86 -222h2l86 222q9 23 39 23h146q19 0 23.5 -11.5t-3.5 -24.5
l-124 -230h50q21 0 21 -20v-38q0 -20 -21 -20h-92l-21 -40v-12h113q21 0 21 -20v-38q0 -20 -21 -20z" />
    <glyph glyph-name="Euro.tabold" unicode="&#xe043;" horiz-adv-x="650" 
d="M45 274h33q-1 7 -1 20q0 14 1 20h-33q-21 0 -21 20v34q0 20 21 20h42q45 212 296 212q50 0 103.5 -12.5t81.5 -29.5q26 -17 16 -40l-40 -86q-12 -25 -40 -14q-43 18 -92 18q-72 0 -101 -48h168q11 0 15 -7t-1 -17l-16 -34q-7 -16 -31 -16h-156q-1 -7 -1 -20q0 -12 1 -20
h136q11 0 15 -7t-1 -17l-16 -34q-7 -16 -31 -16h-82q30 -48 103 -48q51 0 94 18q28 11 40 -14l40 -86q10 -23 -16 -40q-28 -17 -82 -29.5t-104 -12.5q-254 0 -299 212h-42q-21 0 -21 20v34q0 20 21 20z" />
    <glyph glyph-name="zero.tabold" unicode="&#xe044;" horiz-adv-x="650" 
d="M325 600q133 0 213 -77.5t80 -228.5t-80 -228.5t-213 -77.5t-213 77.5t-80 228.5t80 228.5t213 77.5zM325 152q81 0 81 142t-81 142t-81 -142t81 -142z" />
    <glyph glyph-name="one.tabold" unicode="&#xe045;" horiz-adv-x="650" 
d="M557 0h-438q-35 0 -35 35v95q0 35 35 35h120v227l-66 -30q-30 -14 -43 5l-52 71q-9 12 -7 23.5t11 17.5l140 98q24 15 47 15h145q35 0 35 -35v-392h108q35 0 35 -35v-95q0 -35 -35 -35z" />
    <glyph glyph-name="two.tabold" unicode="&#xe046;" horiz-adv-x="650" 
d="M64 30v92q0 21 24 34l49.5 25.5l55 28.5l51.5 29t50 33t38.5 33t28.5 36.5t9 37.5q0 57 -58 57q-30 0 -45.5 -14.5t-15.5 -33.5q0 -11 1.5 -22t1.5 -15q0 -25 -25 -25h-140q-21 0 -29 26q-4 13 -4 41q0 88 64.5 147.5t197.5 59.5q130 0 196 -53.5t66 -136.5
q0 -47 -18 -86t-54 -69.5t-64 -48t-74 -41.5h189q35 0 35 -35v-95q0 -35 -35 -35h-464q-31 0 -31 30z" />
    <glyph glyph-name="three.tabold" unicode="&#xe047;" horiz-adv-x="650" 
d="M217 329h69q42 0 60.5 13t18.5 40q0 54 -85 54q-68 0 -134 -28q-33 -15 -47 20l-32 79q-12 31 19 47q34 19 98 32.5t137 13.5q49 0 90 -8.5t78.5 -28t58.5 -57.5t21 -91q0 -108 -93 -147q47 -14 77.5 -57t30.5 -106q0 -108 -73.5 -167.5t-210.5 -59.5q-120 0 -228 50
q-32 14 -19 47l32 83q14 35 47 20q76 -33 144 -33q57 0 79.5 16t22.5 53q0 33 -20 47.5t-65 14.5h-76q-36 0 -36 35v83q0 35 36 35z" />
    <glyph glyph-name="four.tabold" unicode="&#xe048;" horiz-adv-x="650" 
d="M339 391l-159 -204h159v204zM368 592h144q35 0 35 -35v-370h58q35 0 35 -35v-95q0 -35 -35 -35h-58v-97q0 -35 -35 -35h-138q-35 0 -35 35v97h-288q-35 0 -35 35v92q0 29 13 45l299 380q14 18 40 18z" />
    <glyph glyph-name="five.tabold" unicode="&#xe049;" horiz-adv-x="650" 
d="M526 427h-261q-2 -50 -9 -100q43 12 95 12q241 0 241 -217q0 -244 -289 -244q-144 0 -229 50q-32 19 -20 47l33 83q14 37 47 20q68 -35 150 -35q55 0 78.5 20t23.5 59q0 76 -87 76q-35 0 -66.5 -9.5t-41.5 -9.5q-5 0 -20 5l-74 20q-24 6 -21 32q6 51 13 166t7 149
q0 41 37 41h393q35 0 35 -35v-95q0 -35 -35 -35z" />
    <glyph glyph-name="six.tabold" unicode="&#xe04a;" horiz-adv-x="650" 
d="M252 695q16 13 36 13h172q12 0 15 -9.5t-7 -18.5q-104 -91 -146 -184q21 7 56 7q103 0 167.5 -67t64.5 -187q0 -122 -76 -191.5t-200 -69.5q-135 0 -212.5 73.5t-77.5 219.5q0 106 60.5 221t147.5 193zM252 249q0 -48 21 -73.5t57 -25.5q74 0 74 99t-74 99
q-36 0 -57 -25.5t-21 -73.5z" />
    <glyph glyph-name="seven.tabold" unicode="&#xe04b;" horiz-adv-x="650" 
d="M103 592h442q35 0 35 -35v-80q0 -10 -3.5 -19.5t-7 -14.5t-9.5 -12t-7 -9q-70 -94 -126 -227t-70 -262q-2 -19 -10.5 -28t-27.5 -9h-141q-17 0 -26.5 11t-8.5 27q8 119 73 261.5t145 231.5h-258q-35 0 -35 35v95q0 35 35 35z" />
    <glyph glyph-name="eight.tabold" unicode="&#xe04c;" horiz-adv-x="650" 
d="M325 -12q-143 0 -218 54.5t-75 151.5q0 68 36 111.5t95 61.5q-52 17 -82.5 60.5t-30.5 99.5q0 95 73 144t202 49t202 -49t73 -144q0 -56 -30.5 -99.5t-82.5 -60.5q59 -18 95 -61.5t36 -111.5q0 -97 -74.5 -151.5t-218.5 -54.5zM325 579q-35 0 -53 -16.5t-18 -45.5
q0 -69 71 -91q71 22 71 91q0 29 -18 45.5t-53 16.5zM325 306q-42 -13 -64 -40t-22 -61q0 -32 22.5 -49.5t63.5 -17.5t64 17.5t23 49.5q0 34 -22.5 61t-64.5 40z" />
    <glyph glyph-name="nine.tabold" unicode="&#xe04d;" horiz-adv-x="650" 
d="M398 -108q-16 -13 -36 -13h-172q-12 0 -15 9.5t7 18.5q104 91 146 184q-21 -7 -56 -7q-103 0 -167.5 67t-64.5 187q0 122 76 191.5t200 69.5q135 0 212.5 -73.5t77.5 -219.5q0 -106 -60.5 -221t-147.5 -193zM398 338q0 48 -21 73.5t-57 25.5q-74 0 -74 -99t74 -99
q36 0 57 25.5t21 73.5z" />
    <glyph glyph-name="ampersand.alt" unicode="&#xe04e;" horiz-adv-x="784" 
d="M670 170h-59q-11 -33 -29.5 -61.5t-49 -57.5t-79 -46t-108.5 -17q-58 0 -109.5 15.5t-98 49t-74 96t-27.5 147.5q0 145 79 224.5t204 79.5q87 0 135.5 -41t48.5 -99q0 -18 -6 -37q67 60 94 180q5 23 31 18l118 -22q24 -5 19 -30q-37 -160 -189 -253h100q34 0 34 -34v-78
q0 -34 -34 -34zM249 214q22 -69 100 -69q55 0 98.5 40.5t59.5 97.5q-107 -50 -258 -69zM332 449q-82 0 -82 -129q68 11 96.5 32t28.5 57q0 40 -43 40z" />
    <glyph glyph-name="at.cap" unicode="&#xe04f;" horiz-adv-x="940" 
d="M525 335l18 110q-22 6 -45 6q-46 0 -69 -35.5t-23 -85.5q0 -69 49 -69q58 0 70 74zM679 84q19 4 24 -17l7 -32q4 -20 -16 -24q-115 -27 -214 -27q-426 0 -426 344q0 182 123 289t320 107q182 0 287.5 -85.5t105.5 -227.5q0 -126 -63.5 -201t-160.5 -75h-62q-31 0 -44 25
l-17 33q-48 -57 -129 -57q-76 0 -123 43t-47 126q0 57 13 102.5t42 84t81.5 59.5t125.5 21q105 0 179 -37q25 -12 20 -37l-46 -282h14q62 0 94.5 51.5t32.5 144.5q0 111 -76.5 170.5t-227.5 59.5q-161 0 -256.5 -81t-95.5 -234q0 -141 83.5 -202t253.5 -61q100 0 198 20z
" />
    <glyph glyph-name="paragraph.cap" unicode="&#xe050;" horiz-adv-x="582" 
d="M518 612h-32q-27 0 -37.5 -11.5t-10.5 -38.5v-434q0 -73 -28.5 -104.5t-107.5 -31.5q-48 0 -70 9q-19 9 -19 33v38q0 19 21 19q6 0 20.5 -1.5t22.5 -1.5q37 0 37 54v110h-29q-107 0 -174 57t-67 171t67 171t174 57h233q34 0 34 -34v-28q0 -34 -34 -34z" />
    <glyph glyph-name="registered.cap" unicode="&#xe051;" horiz-adv-x="886" 
d="M155 354q0 -124 73.5 -201.5t214.5 -77.5t214.5 77.5t73.5 201.5t-73.5 201.5t-214.5 77.5t-214.5 -77.5t-73.5 -201.5zM418 376h33q27 0 37.5 9.5t10.5 30.5q0 24 -10 31.5t-38 7.5h-33v-79zM301 561h154q182 0 182 -145q0 -45 -20 -76.5t-54 -43.5l68 -109
q7 -11 3.5 -20t-16.5 -9h-91q-20 0 -30 18l-56 100h-23v-96q0 -22 -22 -22h-95q-22 0 -22 22v359q0 22 22 22zM60 354q0 101 42.5 182.5t131 132.5t209.5 51t209.5 -51t131 -132.5t42.5 -182.5t-42.5 -182.5t-131 -132.5t-209.5 -51t-209.5 51t-131 132.5t-42.5 182.5z" />
    <glyph glyph-name="questiondown.cap" unicode="&#xe052;" horiz-adv-x="570" 
d="M398 674v-123q0 -33 -37 -33h-132q-37 0 -37 33v123q0 34 34 34h138q34 0 34 -34zM195 439v-8q0 -19 -16 -38t-39.5 -38.5t-46.5 -43.5t-39 -62t-16 -85q0 -87 66 -131t186 -44q124 0 222 44q33 14 20 48l-34 85q-13 34 -48 20q-63 -26 -131 -26q-41 0 -57 12t-16 35
q0 32 21.5 64t48 54.5t48 51t21.5 53.5v7q0 33 -35 33h-119q-36 0 -36 -31z" />
    <glyph glyph-name="exclamdown.cap" unicode="&#xe053;" horiz-adv-x="338" 
d="M66 551v123q0 34 34 34h138q34 0 34 -34v-123q0 -33 -37 -33h-132q-37 0 -37 33zM121 470h96q33 0 36 -31l38 -403q3 -36 -35 -36h-174q-38 0 -35 36l38 403q3 31 36 31z" />
    <glyph glyph-name="parenleft.cap" unicode="&#xe054;" horiz-adv-x="392" 
d="M60 354q0 191 149 348q14 16 36 16h95q17 0 22 -12.5t-5 -26.5q-103 -162 -103 -325t103 -325q10 -14 5 -26.5t-22 -12.5h-95q-22 0 -36 16q-149 157 -149 348z" />
    <glyph glyph-name="parenright.cap" unicode="&#xe055;" horiz-adv-x="392" 
d="M332 354q0 -191 -149 -348q-14 -16 -36 -16h-95q-17 0 -22 12.5t5 26.5q103 162 103 325t-103 325q-10 14 -5 26.5t22 12.5h95q22 0 36 -16q149 -157 149 -348z" />
    <glyph glyph-name="bracketleft.cap" unicode="&#xe056;" horiz-adv-x="392" 
d="M362 106v-72q0 -34 -34 -34h-212q-34 0 -34 34v640q0 34 34 34h212q34 0 34 -34v-72q0 -34 -34 -34h-64v-428h64q34 0 34 -34z" />
    <glyph glyph-name="bracketright.cap" unicode="&#xe057;" horiz-adv-x="392" 
d="M30 34v72q0 34 34 34h64v428h-64q-34 0 -34 34v72q0 34 34 34h212q34 0 34 -34v-640q0 -34 -34 -34h-212q-34 0 -34 34z" />
    <glyph glyph-name="braceleft.cap" unicode="&#xe058;" horiz-adv-x="392" 
d="M18 310v88q0 34 34 34h13q24 0 35.5 20.5t11.5 70.5q0 111 36 148t138 37h52q34 0 34 -34v-72q0 -34 -34 -34h-12q-21 0 -26.5 -16t-5.5 -54q0 -55 -23.5 -94t-71.5 -50q48 -11 71.5 -50t23.5 -94q0 -38 5.5 -54t26.5 -16h12q34 0 34 -34v-72q0 -34 -34 -34h-54
q-102 0 -137 37t-35 148q0 50 -11.5 70.5t-35.5 20.5h-13q-34 0 -34 34z" />
    <glyph glyph-name="braceright.cap" unicode="&#xe059;" horiz-adv-x="392" 
d="M374 398v-88q0 -34 -34 -34h-13q-24 0 -35.5 -20.5t-11.5 -70.5q0 -111 -35 -148t-137 -37h-54q-34 0 -34 34v72q0 34 34 34h12q21 0 26.5 16t5.5 54q0 55 23.5 94t71.5 50q-48 11 -71.5 50t-23.5 94q0 38 -5.5 54t-26.5 16h-12q-34 0 -34 34v72q0 34 34 34h52
q102 0 138 -37t36 -148q0 -50 11.5 -70.5t35.5 -20.5h13q34 0 34 -34z" />
    <glyph glyph-name="guillemotleft.cap" unicode="&#xe05a;" horiz-adv-x="586" 
d="M26 355q0 6 5 15l81 142q13 23 41 23h117q16 0 21.5 -10t-2.5 -24l-85 -147l85 -147q8 -14 2.5 -24t-21.5 -10h-117q-28 0 -41 23l-81 142q-5 9 -5 17zM280 353q0 8 5 17l81 142q13 23 41 23h117q16 0 21.5 -10t-2.5 -24l-85 -147l85 -147q8 -14 2.5 -24t-21.5 -10h-117
q-28 0 -41 23l-81 142q-5 9 -5 15z" />
    <glyph glyph-name="guillemotright.cap" unicode="&#xe05b;" horiz-adv-x="586" 
d="M560 354q0 -7 -5 -16l-81 -142q-13 -23 -41 -23h-117q-16 0 -21.5 10t2.5 24l85 147l-85 147q-8 14 -2.5 24t21.5 10h117q28 0 41 -23l81 -142q5 -9 5 -16zM306 354q0 -7 -5 -16l-81 -142q-13 -23 -41 -23h-117q-16 0 -21.5 10t2.5 24l85 147l-85 147q-8 14 -2.5 24
t21.5 10h117q28 0 41 -23l81 -142q5 -9 5 -16z" />
    <glyph glyph-name="guilsinglleft.cap" unicode="&#xe05c;" horiz-adv-x="332" 
d="M26 353q0 8 5 17l81 142q13 23 41 23h117q16 0 21.5 -10t-2.5 -24l-85 -147l85 -147q8 -14 2.5 -24t-21.5 -10h-117q-28 0 -41 23l-81 142q-5 9 -5 15z" />
    <glyph glyph-name="guilsinglright.cap" unicode="&#xe05d;" horiz-adv-x="332" 
d="M305 353q0 -8 -3 -13l-82 -144q-13 -23 -41 -23h-117q-16 0 -21.5 10t2.5 24l85 147l-85 147q-8 14 -2.5 24t21.5 10h117q28 0 41 -23l81 -142q4 -7 4 -17z" />
    <glyph glyph-name="hyphen.cap" unicode="&#xe05e;" horiz-adv-x="408" 
d="M336 273h-264q-34 0 -34 34v94q0 34 34 34h264q34 0 34 -33v-95q0 -34 -34 -34z" />
    <glyph glyph-name="endash.cap" unicode="&#xe05f;" horiz-adv-x="558" 
d="M486 273h-414q-34 0 -34 34v94q0 34 34 34h414q34 0 34 -34v-94q0 -34 -34 -34z" />
    <glyph glyph-name="emdash.cap" unicode="&#xe060;" horiz-adv-x="786" 
d="M714 273h-642q-34 0 -34 34v94q0 34 34 34h642q34 0 34 -34v-94q0 -34 -34 -34z" />
    <glyph glyph-name="periodcentered.cap" unicode="&#xe061;" horiz-adv-x="278" 
d="M40 293v123q0 33 37 33h124q37 0 37 -33v-123q0 -34 -34 -34h-130q-34 0 -34 34z" />
    <glyph glyph-name="bullet.cap" unicode="&#xe062;" horiz-adv-x="452" 
d="M226 192q-68 0 -115 47t-47 115t47 115t115 47t115 -47t47 -115t-47 -115t-115 -47z" />
    <glyph glyph-name="bar.cap" unicode="&#xe063;" horiz-adv-x="352" 
d="M262 739v-770q0 -34 -34 -34h-104q-34 0 -34 34v770q0 34 34 34h104q34 0 34 -34z" />
    <glyph glyph-name="brokenbar.cap" unicode="&#xe064;" horiz-adv-x="352" 
d="M262 739v-270q0 -34 -34 -34h-104q-34 0 -34 34v270q0 34 34 34h104q34 0 34 -34zM262 239v-270q0 -34 -34 -34h-104q-34 0 -34 34v270q0 34 34 34h104q34 0 34 -34z" />
    <glyph glyph-name="arrowleft.cap" unicode="&#xe065;" horiz-adv-x="680" 
d="M446 575l-129 -141l263 5q34 0 34 -30v-110q0 -30 -34 -30l-263 5l129 -141q10 -10 6.5 -22t-18.5 -12h-148q-24 0 -38 16l-189 219q-9 9 -9 20q0 10 9 20l189 219q14 16 38 16h148q15 0 18.5 -12t-6.5 -22z" />
    <glyph glyph-name="arrowup.cap" unicode="&#xe066;" horiz-adv-x="680" 
d="M561 252l-141 129l5 -263q0 -34 -30 -34h-110q-30 0 -30 34l5 263l-141 -129q-10 -10 -22 -6.5t-12 18.5v148q0 24 16 38l219 189q10 9 20 9q11 0 20 -9l219 -189q16 -14 16 -38v-148q0 -15 -12 -18.5t-22 6.5z" />
    <glyph glyph-name="arrowright.cap" unicode="&#xe067;" horiz-adv-x="680" 
d="M363 434l-129 141q-10 10 -6.5 22t18.5 12h148q24 0 38 -16l189 -219q9 -10 9 -20t-9 -20l-189 -219q-14 -16 -38 -16h-148q-15 0 -18.5 12t6.5 22l129 141l-263 -5q-34 0 -34 30v110q0 30 34 30z" />
    <glyph glyph-name="arrowdown.cap" unicode="&#xe068;" horiz-adv-x="680" 
d="M119 456l141 -129l-5 263q0 34 30 34h110q30 0 30 -34l-5 -263l141 129q10 10 22 6.5t12 -18.5v-148q0 -24 -16 -38l-219 -189q-9 -9 -20 -9q-10 0 -20 9l-219 189q-16 14 -16 38v148q0 15 12 18.5t22 -6.5z" />
    <glyph glyph-name="arrowboth.cap" unicode="&#xe069;" horiz-adv-x="1080" 
d="M763 434l-129 141q-10 10 -6.5 22t18.5 12h148q24 0 38 -16l189 -219q9 -11 9 -20q0 -11 -9 -20l-189 -219q-14 -16 -38 -16h-148q-15 0 -18.5 12t6.5 22l129 141l-223 -5l-223 5l129 -141q10 -10 6.5 -22t-18.5 -12h-148q-24 0 -38 16l-189 219q-9 9 -9 20q0 10 9 20
l189 219q14 16 38 16h148q15 0 18.5 -12t-6.5 -22l-129 -141l223 5z" />
    <glyph glyph-name="arrowupdn.cap" unicode="&#xe06a;" horiz-adv-x="680" 
d="M420 131l141 129q11 10 22.5 6.5t11.5 -18.5v-148q0 -24 -16 -38l-219 -189q-10 -9 -20 -9q-11 0 -20 9l-219 189q-16 14 -16 38v148q0 15 12 18.5t22 -6.5l141 -129l-5 223l5 223l-141 -129q-10 -10 -22 -6.5t-12 18.5v148q0 24 16 38l219 189q9 9 20 9q10 0 20 -9
l219 -189q16 -14 16 -38v-148q0 -15 -12 -18.5t-22 6.5l-141 129l5 -223z" />
    </font>
</defs>
</svg>
