<?xml version="1.0" standalone="no"?>
<!DOCTYPE svg PUBLIC "-//W3C//DTD SVG 1.1//EN" "http://www.w3.org/Graphics/SVG/1.1/DTD/svg11.dtd" >
<svg>
<metadata>
Created by FontForge 20090622 at Wed Feb 21 18:05:52 2018
 By deploy user
&#194;&#169; 2012, 2013, 2014, 2015 by Stawix Ruecha &#38; Foundry. All rights reserved.
</metadata>
<defs>
<font id="AmsiPro-Light" horiz-adv-x="413" >
  <font-face 
    font-family="AmsiPro-Light"
    font-weight="400"
    font-stretch="normal"
    units-per-em="1000"
    panose-1="2 11 10 6 2 2 1 1 1 4"
    ascent="853"
    descent="-147"
    x-height="513"
    cap-height="701"
    bbox="-210.24 -285 1249 1044"
    underline-thickness="35"
    underline-position="-66"
    unicode-range="U+0020-U+FB4E"
  />
<missing-glyph horiz-adv-x="492" 
d="M0 690h492v-690h-492v690zM443 94v503l-168 -252zM49 597v-503l168 251zM246 389l168 252h-335zM246 301l-167 -252h334z" />
    <glyph glyph-name="f_f" unicode="ff" horiz-adv-x="620" 
d="M455 513h127q13 0 13 -13v-28q0 -12 -13 -12h-127v-448q0 -12 -11 -12h-35q-12 0 -12 12v448h-226v-448q0 -12 -11 -12h-35q-12 0 -12 12v448h-76q-12 0 -12 12v28q0 13 12 13h76v52q0 70 33.5 106.5t97.5 36.5q39 0 66 -10q8 -3 8 -12l-1 -27q0 -13 -12 -9q-24 6 -54 6
q-80 0 -80 -93v-50h226v52q0 70 33.5 106.5t97.5 36.5q39 0 66 -10q8 -3 8 -12l-1 -27q0 -13 -12 -9q-24 6 -54 6q-80 0 -80 -93v-50z" />
    <glyph glyph-name="fi" unicode="fi" horiz-adv-x="541" 
d="M456 500v-488q0 -12 -12 -12h-34q-13 0 -13 12v448h-226v-448q0 -12 -11 -12h-35q-12 0 -12 12v448h-76q-12 0 -12 12v28q0 13 12 13h76v50q0 72 33 108.5t96 36.5q48 0 68 -10q8 -5 8 -12l-1 -27q0 -12 -13 -9q-30 6 -55 6q-78 0 -78 -96v-47h273q12 0 12 -13zM455 690
v-84q0 -11 -12 -11h-32q-12 0 -12 11v84q0 11 12 11h32q12 0 12 -11z" />
    <glyph glyph-name="fl" unicode="fl" horiz-adv-x="540" 
d="M455 678v-666q0 -12 -11 -12h-35q-12 0 -12 12v638q-40 8 -98 8q-71 0 -99.5 -26t-28.5 -80v-39h104q12 0 12 -13v-28q0 -12 -12 -12h-104v-448q0 -12 -11 -12h-35q-12 0 -12 12v448h-76q-12 0 -12 12v28q0 13 12 13h76v40q0 78 42 117.5t144 39.5q93 0 144 -17
q12 -4 12 -15z" />
    <glyph glyph-name="f_f_i" unicode="ffi" horiz-adv-x="824" 
d="M740 500v-488q0 -12 -12 -12h-35q-11 0 -11 12v448h-227v-448q0 -12 -11 -12h-35q-12 0 -12 12v448h-226v-448q0 -12 -11 -12h-35q-12 0 -12 12v448h-76q-12 0 -12 12v28q0 13 12 13h76v52q0 70 33.5 106.5t97.5 36.5q39 0 66 -10q8 -3 8 -12l-1 -27q0 -13 -12 -9
q-24 6 -54 6q-80 0 -80 -93v-50h226v52q0 70 33.5 106.5t97.5 36.5q39 0 66 -10q8 -3 8 -12l-1 -27q0 -13 -12 -9q-24 6 -54 6q-80 0 -80 -93v-50h273q12 0 12 -13zM739 690v-84q0 -11 -12 -11h-32q-13 0 -13 11v84q0 11 13 11h32q12 0 12 -11z" />
    <glyph glyph-name="f_f_l" unicode="ffl" horiz-adv-x="824" 
d="M455 460v-448q0 -12 -11 -12h-35q-12 0 -12 12v448h-226v-448q0 -12 -11 -12h-35q-12 0 -12 12v448h-76q-12 0 -12 12v28q0 13 12 13h76v52q0 70 33.5 106.5t97.5 36.5q39 0 66 -10q8 -3 8 -12l-1 -27q0 -13 -12 -9q-24 6 -54 6q-80 0 -80 -93v-50h226v40q0 79 41.5 118
t144.5 39q92 0 143 -17q13 -4 13 -16v-665q0 -12 -11 -12h-35q-12 0 -12 12v638q-40 8 -98 8q-72 0 -100 -25.5t-28 -80.5v-39h104q12 0 12 -13v-28q0 -12 -12 -12h-104z" />
    <glyph glyph-name="f_b" unicode="fb" horiz-adv-x="924" 
d="M455 257q0 -104 47.5 -159.5t133.5 -55.5q175 0 175 215q0 216 -175 216q-86 0 -133.5 -56t-47.5 -160zM455 678v-267q22 54 72.5 84t118.5 30q106 0 165.5 -69t59.5 -199t-59.5 -198.5t-165.5 -68.5q-69 0 -119 28.5t-72 83.5v-90q0 -12 -12 -12h-34q-12 0 -12 12v638
q-40 8 -98 8q-71 0 -99.5 -26t-28.5 -80v-39h104q12 0 12 -13v-28q0 -12 -12 -12h-104v-448q0 -12 -11 -12h-35q-12 0 -12 12v448h-76q-12 0 -12 12v28q0 13 12 13h76v40q0 79 42 118t145 39q92 0 143 -17q12 -4 12 -15z" />
    <glyph glyph-name="f_f_b" unicode="ffb" horiz-adv-x="1209" 
d="M739 257q0 -104 47 -159.5t134 -55.5q175 0 175 215q0 216 -175 216q-87 0 -134 -56t-47 -160zM739 678v-267q22 54 72 84t117 30q107 0 167 -69t60 -199t-59.5 -198.5t-166.5 -68.5q-68 0 -117.5 28.5t-72.5 83.5v-90q0 -12 -13 -12h-33q-12 0 -12 12v638q-40 8 -98 8
q-72 0 -100 -25.5t-28 -80.5v-39h104q13 0 13 -13v-28q0 -12 -13 -12h-104v-448q0 -12 -11 -12h-35q-12 0 -12 12v448h-226v-448q0 -12 -11 -12h-35q-12 0 -12 12v448h-76q-12 0 -12 12v28q0 13 12 13h76v52q0 70 33.5 106.5t97.5 36.5q39 0 66 -10q8 -3 8 -12l-1 -27
q0 -13 -12 -9q-24 6 -54 6q-80 0 -80 -93v-50h226v40q0 79 41.5 118t144.5 39q92 0 143 -17q13 -4 13 -15z" />
    <glyph glyph-name="f_h" unicode="fh" horiz-adv-x="902" 
d="M455 678v-256q18 42 64 72.5t122 30.5q90 0 136.5 -48.5t46.5 -134.5v-330q0 -12 -12 -12h-34q-12 0 -12 12v322q0 136 -139 136q-77 0 -124.5 -45t-47.5 -114v-299q0 -12 -11 -12h-35q-12 0 -12 12v638q-40 8 -98 8q-71 0 -99.5 -26t-28.5 -80v-39h104q12 0 12 -13v-28
q0 -12 -12 -12h-104v-448q0 -12 -11 -12h-35q-12 0 -12 12v448h-76q-12 0 -12 12v28q0 13 12 13h76v40q0 79 42 118t145 39q92 0 143 -17q12 -4 12 -15z" />
    <glyph glyph-name="f_f_h" unicode="ffh" horiz-adv-x="1186" 
d="M739 678v-256q18 41 64 72t121 31q90 0 137 -49t47 -135v-329q0 -12 -12 -12h-34q-13 0 -13 12v322q0 136 -138 136q-77 0 -124.5 -45t-47.5 -114v-299q0 -12 -11 -12h-35q-12 0 -12 12v638q-40 8 -98 8q-72 0 -100 -25.5t-28 -80.5v-39h104q13 0 13 -13v-28
q0 -12 -13 -12h-104v-448q0 -12 -11 -12h-35q-12 0 -12 12v448h-226v-448q0 -12 -11 -12h-35q-12 0 -12 12v448h-76q-12 0 -12 12v28q0 13 12 13h76v52q0 70 33 106.5t96 36.5q41 0 68 -10q8 -3 8 -12l-1 -27q0 -13 -12 -9q-24 6 -54 6q-80 0 -80 -93v-50h226v40
q0 79 41.5 118t144.5 39q92 0 143 -17q13 -4 13 -15z" />
    <glyph glyph-name="f_j" unicode="fj" horiz-adv-x="541" 
d="M458 500v-487q0 -65 -24.5 -96t-79.5 -31q-32 0 -58 8q-9 2 -9 12l1 29q0 12 13 9q22 -5 43 -5q30 0 42.5 19t12.5 62v440h-228v-448q0 -12 -11 -12h-35q-12 0 -12 12v448h-76q-12 0 -12 12v28q0 13 12 13h76v52q0 70 33.5 106.5t97.5 36.5q39 0 66 -10q8 -3 8 -12
l-1 -27q0 -13 -12 -9q-24 6 -54 6q-80 0 -80 -93v-50h275q12 0 12 -13zM457 690v-84q0 -11 -12 -11h-32q-12 0 -12 11v84q0 11 12 11h32q12 0 12 -11z" />
    <glyph glyph-name="f_f_j" unicode="ffj" horiz-adv-x="825" 
d="M742 500v-487q0 -65 -24.5 -96t-79.5 -31q-31 0 -59 8q-8 1 -8 12l1 29q0 12 13 9q33 -5 42 -5q30 0 43.5 19t13.5 61v441h-229v-448q0 -12 -11 -12h-35q-12 0 -12 12v448h-226v-448q0 -12 -11 -12h-35q-12 0 -12 12v448h-76q-12 0 -12 12v28q0 13 12 13h76v52
q0 70 33.5 106.5t97.5 36.5q39 0 66 -10q8 -3 8 -12l-1 -27q0 -13 -12 -9q-24 6 -54 6q-80 0 -80 -93v-50h226v52q0 70 33.5 106.5t97.5 36.5q39 0 66 -10q8 -3 8 -12l-1 -27q0 -13 -12 -9q-24 6 -54 6q-80 0 -80 -93v-50h274q13 0 13 -13zM740 690v-84q0 -11 -11 -11h-33
q-12 0 -12 11v84q0 11 12 11h33q11 0 11 -11z" />
    <glyph glyph-name="f_k" unicode="fk" horiz-adv-x="793" 
d="M456 678v-354l233 183q9 6 17 6h51q7 0 8.5 -5.5t-4.5 -10.5l-269 -209l281 -273q5 -5 2.5 -10t-8.5 -5h-51q-9 0 -17 8l-243 239v-235q0 -12 -11 -12h-36q-12 0 -12 12v638q-40 8 -98 8q-71 0 -99.5 -26t-28.5 -80v-39h104q12 0 12 -13v-28q0 -12 -12 -12h-104v-448
q-1 -12 -11 -12h-35q-12 0 -12 12v448h-76q-12 0 -12 12v28q0 13 12 13h76v40q0 79 42 118t145 39q92 0 143 -17q13 -4 13 -15z" />
    <glyph glyph-name="f_f_k" unicode="ffk" horiz-adv-x="1076" 
d="M681 12v638q-40 8 -98 8q-72 0 -100 -25.5t-28 -80.5v-39h104q12 0 12 -13v-28q0 -12 -12 -12h-104v-448q0 -12 -11 -12h-35q-12 0 -12 12v448h-226v-448q0 -12 -11 -12h-35q-12 0 -12 12v448h-76q-12 0 -12 12v28q0 13 12 13h76v52q0 70 33.5 106.5t97.5 36.5
q39 0 66 -10q8 -3 8 -12l-1 -27q0 -13 -12 -9q-24 6 -54 6q-80 0 -80 -93v-50h226v40q0 79 41.5 118t144.5 39q93 0 144 -17q13 -4 13 -15v-354l233 183q8 6 17 6h51q6 0 8 -5.5t-4 -10.5l-269 -209l280 -273q5 -5 3 -10t-8 -5h-51q-9 0 -17 8l-243 239v-235q0 -12 -12 -12
h-35q-12 0 -12 12z" />
    <glyph glyph-name="f_t" unicode="ft" horiz-adv-x="639" 
d="M171 513h228v133q0 12 11 12h33q12 0 12 -12v-133h141q12 0 12 -13v-28q0 -12 -12 -12h-141v-306q0 -62 18.5 -84.5t71.5 -22.5q19 0 52 7q11 2 13 -10l3 -28q1 -9 -9 -12q-38 -10 -69 -10q-75 0 -106.5 35t-31.5 119v312h-226v-448q0 -12 -11 -12h-35q-12 0 -12 12v448
h-76q-12 0 -12 12v28q0 13 12 13h76v52q0 70 33.5 106.5t97.5 36.5q39 0 66 -10q8 -3 8 -12l-1 -27q0 -13 -12 -9q-24 6 -54 6q-80 0 -80 -93v-50z" />
    <glyph glyph-name="f_f_t" unicode="fft" horiz-adv-x="923" 
d="M397 513v52q0 70 33.5 106.5t97.5 36.5q41 0 66 -10q8 -3 8 -12l-1 -27q0 -13 -12 -9q-24 6 -54 6q-80 0 -80 -93v-50h227v133q0 12 12 12h32q13 0 13 -12v-133h141q11 0 11 -12v-29q0 -12 -11 -12h-141v-306q0 -62 18.5 -84.5t70.5 -22.5q17 0 50 7q10 1 13 -10l7 -27
q2 -9 -8 -12q-26 -11 -71 -11q-75 0 -106.5 35t-31.5 119v312h-226v-448q0 -12 -11 -12h-35q-12 0 -12 12v448h-226v-448q0 -12 -11 -12h-35q-12 0 -12 12v448h-76q-12 0 -12 12v28q0 13 12 13h76v52q0 70 33.5 106.5t97.5 36.5q39 0 66 -10q8 -3 8 -12l-1 -27q0 -13 -12 -9
q-24 6 -54 6q-80 0 -80 -93v-50h226z" />
    <glyph glyph-name="t_t" unicode="tt" horiz-adv-x="634" 
d="M591 460h-142v-306q0 -62 19 -84.5t71 -22.5q15 0 50 7q10 1 13 -10l7 -27q2 -9 -8 -12q-26 -11 -71 -11q-76 0 -107 35t-31 118v313h-229v-306q0 -62 19 -84.5t71 -22.5q15 0 50 7q9 2 12 -10l8 -27q2 -9 -8 -12q-27 -11 -71 -11q-76 0 -107 35t-31 119v312h-78
q-12 0 -12 12v28q0 13 12 13h79v133q0 12 12 12h32q12 0 12 -12v-133h230v133q0 12 12 12h32q12 0 12 -12v-133h142q11 0 11 -13v-28q0 -12 -11 -12z" />
    <glyph glyph-name="t_t_f" unicode="ttf" horiz-adv-x="905" 
d="M449 460v-306q0 -62 19 -84.5t71 -22.5q20 0 50 7q11 2 13 -10l5 -28q1 -9 -9 -12q-38 -10 -68 -10q-75 0 -106.5 35t-31.5 118v313h-229v-306q0 -62 19 -84.5t71 -22.5q15 0 50 7q9 1 12 -10l6 -27q2 -9 -8 -12q-27 -11 -69 -11q-76 0 -107 35t-31 119v312h-78
q-12 0 -12 12v28q0 13 12 13h79v133q0 12 12 12h32q12 0 12 -12v-133h230v133q0 12 12 12h32q12 0 12 -12v-133h233v52q0 70 33.5 106.5t96.5 36.5q40 0 67 -10q7 -4 7 -12l-1 -27q0 -13 -12 -9q-24 6 -54 6q-79 0 -79 -93v-50h127q12 0 12 -13v-28q0 -12 -12 -12h-127v-448
q0 -12 -12 -12h-35q-11 0 -11 12v448h-233z" />
    <glyph glyph-name=".notdef" horiz-adv-x="492" 
d="M0 690h492v-690h-492v690zM443 94v503l-168 -252zM49 597v-503l168 251zM246 389l168 252h-335zM246 301l-167 -252h334z" />
    <glyph glyph-name=".null" horiz-adv-x="0" 
 />
    <glyph glyph-name="nonmarkingreturn" horiz-adv-x="333" 
 />
    <glyph glyph-name="space" unicode=" " horiz-adv-x="304" 
 />
    <glyph glyph-name="exclam" unicode="!" horiz-adv-x="276" 
d="M98 12v71q0 11 11 11h58q11 0 11 -11v-71q0 -12 -11 -12h-58q-11 0 -11 12zM151 190h-26q-12 0 -12 13l-11 486q0 12 12 12h48q12 0 12 -12l-11 -486q0 -13 -12 -13z" />
    <glyph glyph-name="quotedbl" unicode="&#x22;" horiz-adv-x="309" 
d="M115 621l-12 -140h-30l-12 140q-3 27 -3 64q0 31 30 31t30 -31q0 -37 -3 -64zM248 621l-11 -140h-31l-12 140q-3 54 -3 64q0 31 30 31t30 -31q0 -37 -3 -64z" />
    <glyph glyph-name="numbersign" unicode="#" horiz-adv-x="633" 
d="M551 689l-50 -187h100q12 0 12 -12v-24q0 -12 -12 -12h-113l-57 -211h97q12 0 12 -12v-24q0 -12 -12 -12h-110l-51 -195q-3 -13 -14 -10l-27 8q-11 4 -8 15l48 182h-182l-51 -195q-3 -13 -15 -10l-26 8q-12 3 -9 15l49 182h-100q-13 0 -13 12v24q0 12 13 12h113l56 211
h-96q-12 0 -12 12v24q0 12 12 12h109l53 200q3 11 14 8l27 -6q12 -2 8 -15l-49 -187h181l53 200q3 12 15 8l26 -6q12 -3 9 -15zM254 454l-58 -211h183l56 211h-181z" />
    <glyph glyph-name="dollar" unicode="$" horiz-adv-x="553" 
d="M308 790v-79q88 -1 157 -30q11 -6 7 -15l-11 -32q-4 -11 -16 -7q-66 28 -148 28q-86 0 -131 -32.5t-45 -84.5q0 -19 4 -35t15.5 -29.5t19.5 -22t29 -19l30 -15t37 -15.5t37 -15q105 -43 141 -70q73 -53 73 -143q0 -79 -53.5 -124.5t-143.5 -54.5v-83q0 -12 -12 -12h-24
q-12 0 -12 12v79q-125 0 -202 33q-13 6 -10 15l11 32q4 11 17 6q78 -30 178 -30q85 0 137 32t52 95q0 16 -2.5 30t-10.5 26.5l-13.5 21t-20.5 18.5t-22 15.5t-27.5 14.5l-27.5 12t-32 13t-31 12q-98 39 -130 62q-70 50 -70 139q0 72 52 118.5t149 53.5v80q0 11 13 11h24
q12 0 12 -11z" />
    <glyph glyph-name="percent" unicode="%" horiz-adv-x="903" 
d="M695 689l-428 -679q-7 -10 -17 -10h-35q-14 0 -7 13l427 679q5 9 18 9h36q13 0 6 -12zM48 503q0 99 42 152t116 53q73 0 115.5 -53t42.5 -152t-42 -152t-116 -53t-116 52.5t-42 152.5zM311 503q0 75 -27.5 115.5t-77.5 40.5q-51 0 -78.5 -40.5t-27.5 -115.5
q0 -76 27.5 -116t78.5 -40t78 40t27 116zM539 199q0 99 42.5 152t116.5 53t116 -53t42 -152t-42.5 -152t-116.5 -53q-73 0 -115.5 53t-42.5 152zM803 199q0 76 -27 116t-78 40q-105 0 -105 -156t105 -156q51 0 78 40t27 116z" />
    <glyph glyph-name="ampersand" unicode="&#x26;" horiz-adv-x="715" 
d="M648 261q0 -90 -44 -151l91 -97q3 -5 1 -9t-7 -4h-43q-12 0 -29 17l-48 53q-77 -78 -234 -78q-130 0 -208 58t-78 157q0 82 51.5 139.5t141.5 76.5l-23 25q-34 37 -49 65.5t-15 65.5q0 133 179 133q76 0 129 -24q15 -6 10 -15l-11 -25q-6 -12 -19 -6q-45 19 -106 19
q-127 0 -127 -82q0 -22 10.5 -43t20 -32.5t35.5 -39.5l290 -313q29 43 29 112q0 15 -5 35.5t-5 23.5q-1 13 11 13h30q10 0 14 -11q8 -29 8 -63zM336 46q136 0 196 63l-253 273q-83 -15 -125 -60.5t-42 -113.5q0 -70 62 -116t162 -46z" />
    <glyph glyph-name="quotesingle" unicode="'" horiz-adv-x="177" 
d="M115 621l-12 -140h-30l-12 140q-3 27 -3 64q0 31 30 31t30 -31q0 -37 -3 -64z" />
    <glyph glyph-name="parenleft" unicode="(" horiz-adv-x="353" 
d="M95 297q0 116 47.5 222.5t115.5 182.5q5 8 16 8h30q6 0 7.5 -4t-1.5 -7q-67 -76 -110.5 -183.5t-43.5 -218.5q0 -110 43.5 -216.5t110.5 -184.5q6 -13 -6 -13h-30q-10 0 -16 8q-69 76 -116 183t-47 223z" />
    <glyph glyph-name="parenright" unicode=")" horiz-adv-x="353" 
d="M259 297q0 -115 -47 -222t-115 -184q-8 -8 -17 -8h-30q-12 0 -6 13q67 75 110.5 182.5t43.5 218.5t-43.5 218.5t-110.5 183.5q-3 3 -1.5 7t7.5 4h30q10 0 17 -8q68 -76 115 -182.5t47 -222.5z" />
    <glyph glyph-name="asterisk" unicode="*" horiz-adv-x="388" 
d="M195 377q-13 0 -17.5 5.5t-4.5 20.5q0 10 1.5 29.5t4 46.5t3.5 41l-49.5 -34t-48.5 -32q-22 -14 -33 5q-6 12 -3.5 18t15.5 15q11 6 51 24.5l55 25.5l-55.5 26.5t-50.5 25.5q-24 13 -12 32q10 18 33 5q11 -6 46.5 -31l50.5 -35q-1 14 -3.5 41t-4 46.5t-1.5 29.5
q0 15 4 20.5t17 5.5t17 -5.5t4 -20.5q0 -10 -8 -117l98 66q22 13 33 -5q11 -20 -12 -33q-11 -7 -52.5 -25.5t-53.5 -24.5q19 -10 57.5 -28t48.5 -23q22 -14 12 -32q-11 -20 -33 -6q-12 7 -49 33t-48 33q1 -14 3.5 -41t4 -46.5t1.5 -29.5q0 -14 -4.5 -20t-16.5 -6z" />
    <glyph glyph-name="plus" unicode="+" horiz-adv-x="582" 
d="M509 320h-191v-192q0 -11 -11 -11h-31q-13 0 -13 11v192h-190q-12 0 -12 11v29q0 11 12 11h190v190q0 12 13 12h31q11 0 11 -12v-190h191q12 0 12 -11v-29q0 -11 -12 -11z" />
    <glyph glyph-name="comma" unicode="," horiz-adv-x="215" 
d="M144 0l-31 -103q-3 -9 -12 -9h-16q-10 0 -7 12l21 100h-18q-12 0 -12 12v69q0 12 12 12h53q12 0 12 -12v-65q0 -10 -2 -16z" />
    <glyph glyph-name="hyphen" unicode="-" horiz-adv-x="390" 
d="M333 233h-278q-11 0 -11 11v29q0 11 12 11h277q12 0 12 -11v-29q0 -11 -12 -11z" />
    <glyph glyph-name="period" unicode="." horiz-adv-x="215" 
d="M69 12v69q0 12 12 12h53q12 0 12 -12v-69q0 -12 -11 -12h-54q-12 0 -12 12z" />
    <glyph glyph-name="slash" unicode="/" horiz-adv-x="418" 
d="M12 14l334 676q6 11 18 11h33q16 0 9 -14l-335 -675q-6 -12 -17 -12h-33q-16 0 -9 14z" />
    <glyph glyph-name="zero" unicode="0" horiz-adv-x="665" 
d="M332 712q131 0 200.5 -93.5t69.5 -266.5q0 -174 -69.5 -267.5t-200.5 -93.5t-200.5 93.5t-69.5 266.5q0 174 69.5 267.5t200.5 93.5zM332 47q104 0 156 78.5t52 225.5q0 148 -52 226t-156 78q-207 0 -207 -304q0 -148 51.5 -226t155.5 -78z" />
    <glyph glyph-name="one" unicode="1" horiz-adv-x="436" 
d="M237 13v615l-156 -112q-9 -6 -15 2l-22 25q-7 7 2 13l185 140q6 5 16 5h40q12 0 12 -12v-676q0 -13 -12 -13h-37q-13 0 -13 13z" />
    <glyph glyph-name="two" unicode="2" horiz-adv-x="617" 
d="M130 524q0 -12 2.5 -30.5t2.5 -23.5q0 -11 -12 -11h-33q-10 0 -13 13q-6 19 -6 55q0 79 56.5 132t170.5 53q123 0 179 -57.5t56 -153.5q0 -52 -25 -107.5t-62 -101t-89 -93t-95.5 -79.5t-91.5 -64h361q13 0 13 -13v-30q0 -13 -13 -13h-451q-13 0 -13 13v25q0 10 9 17
q394 256 394 444q0 157 -172 157q-90 0 -129 -37t-39 -95z" />
    <glyph glyph-name="three" unicode="3" horiz-adv-x="565" 
d="M193 393h72q72 0 113 33.5t41 101.5q0 62 -43 95t-121 33q-97 0 -179 -34q-10 -5 -14 6l-13 31q-3 8 9 13q84 40 197 40q106 0 166 -47t60 -132q0 -129 -114 -161q57 -12 95.5 -54t38.5 -120q0 -102 -65.5 -154.5t-184.5 -52.5q-118 0 -202 40q-11 3 -8 12l12 33
q3 11 15 7q86 -37 183 -37q89 0 138 39t49 113q0 141 -172 141h-73q-13 0 -13 12v30q0 12 13 12z" />
    <glyph glyph-name="four" unicode="4" horiz-adv-x="640" 
d="M483 0h-37q-12 0 -12 13v152h-378q-12 0 -12 13v31q0 9 6 16l378 467q8 9 16 9h39q12 0 12 -12v-470h111q13 0 13 -12v-29q0 -13 -13 -13h-111v-152q0 -13 -12 -13zM435 614l-322 -395h322v395z" />
    <glyph glyph-name="five" unicode="5" horiz-adv-x="579" 
d="M521 216q0 -109 -66.5 -167t-187.5 -58q-124 0 -211 40q-12 7 -8 16l13 30q4 11 15 7q83 -38 187 -38q97 0 146 43.5t49 126.5q0 78 -42.5 119t-139.5 41q-58 0 -111.5 -15.5t-55.5 -15.5q-6 0 -13 3l-17 6q-8 3 -7 15q19 168 21 319q0 13 14 13h360q13 0 13 -12v-30
q0 -13 -13 -13h-322q-2 -113 -16 -245q70 29 153 29q121 0 180 -56.5t59 -157.5z" />
    <glyph glyph-name="six" unicode="6" horiz-adv-x="626" 
d="M473 633q-56 24 -119 24q-115 0 -175.5 -89.5t-55.5 -252.5q13 60 69 106t149 46q116 0 174 -64.5t58 -164.5q0 -111 -63.5 -179t-176.5 -68q-131 0 -201 91t-70 247q0 175 73 279t215 104q78 0 141 -27q12 -5 9 -13l-12 -32q-4 -11 -15 -7zM332 46q84 0 131.5 53
t47.5 138q0 77 -43 127t-134 50q-89 0 -140 -54.5t-51 -130.5q0 -67 51 -125t138 -58z" />
    <glyph glyph-name="seven" unicode="7" horiz-adv-x="554" 
d="M171 12q11 148 91 332t171 302h-373q-12 0 -12 13v30q0 12 12 12h430q12 0 12 -12v-28q0 -6 -10 -20q-100 -148 -176 -319.5t-81 -309.5q0 -12 -13 -12h-39q-13 0 -12 12z" />
    <glyph glyph-name="eight" unicode="8" horiz-adv-x="608" 
d="M304 -9q-118 0 -184 52t-66 135q0 78 52.5 124t137.5 63q-77 20 -124 64t-47 111q0 78 58.5 125t172.5 47q113 0 172 -47.5t59 -124.5q0 -67 -47.5 -111t-123.5 -64q84 -17 136.5 -63t52.5 -124q0 -83 -65.5 -135t-183.5 -52zM304 659q-85 0 -128 -32t-43 -87
q0 -57 43.5 -93t127.5 -57q84 21 127.5 57t43.5 93q0 55 -43.5 87t-127.5 32zM304 338q-189 -37 -189 -157q0 -61 49.5 -99t139.5 -38q89 0 138.5 38t49.5 99q0 120 -188 157z" />
    <glyph glyph-name="nine" unicode="9" horiz-adv-x="626" 
d="M156 68q60 -24 119 -24q113 0 174 87.5t57 249.5q-12 -56 -69 -101.5t-152 -45.5q-115 0 -173.5 65t-58.5 165q0 111 63.5 179t176.5 68q131 0 201 -91.5t70 -247.5q0 -175 -72 -278.5t-213 -103.5q-83 0 -142 27q-11 4 -8 13l12 31q4 11 15 7zM295 655q-85 0 -132.5 -53
t-47.5 -137q0 -77 43.5 -127t134.5 -50q89 0 140 54t51 130q0 71 -50.5 127t-138.5 56z" />
    <glyph glyph-name="colon" unicode=":" horiz-adv-x="246" 
d="M84 12v69q0 12 12 12h53q12 0 12 -12v-69q0 -12 -12 -12h-53q-12 0 -12 12zM84 431v70q0 12 12 12h53q12 0 12 -13v-69q0 -11 -12 -11h-53q-12 0 -12 11z" />
    <glyph glyph-name="semicolon" unicode=";" horiz-adv-x="246" 
d="M84 431v69q0 13 13 13h52q12 0 12 -13v-69q0 -11 -12 -11h-53q-12 0 -12 11zM159 0l-31 -103q-3 -9 -12 -9h-15q-10 0 -8 12l21 100h-18q-12 0 -12 12v69q0 12 12 12h53q12 0 12 -12v-65q0 -10 -2 -16z" />
    <glyph glyph-name="less" unicode="&#x3c;" horiz-adv-x="582" 
d="M66 346q0 9 8 14l385 282q9 8 17 0l19 -24q7 -9 -2 -16l-355 -256l355 -256q9 -8 2 -16l-19 -25q-6 -9 -16 -2l-386 283q-8 7 -8 16z" />
    <glyph glyph-name="equal" unicode="=" horiz-adv-x="582" 
d="M499 415h-416q-11 0 -11 11v28q0 11 12 11h415q11 0 11 -11v-28q0 -11 -11 -11zM499 226h-416q-11 0 -11 12v28q0 11 12 11h415q11 0 11 -11v-28q0 -12 -11 -12z" />
    <glyph glyph-name="greater" unicode="&#x3e;" horiz-adv-x="582" 
d="M517 346q0 -10 -9 -16l-387 -283q-10 -8 -16 2l-17 25q-8 9 2 16l356 256l-356 256q-9 6 -2 16l17 24q6 9 16 2l387 -284q9 -8 9 -14z" />
    <glyph glyph-name="question" unicode="?" horiz-adv-x="514" 
d="M207 12v71q0 11 12 11h57q12 0 12 -11v-71q0 -12 -12 -12h-57q-12 0 -12 12zM277 240v-38q0 -12 -12 -12h-32q-12 0 -12 13v37q0 33 18 64t44.5 56l52.5 51t44 59t18 70q0 116 -161 116q-88 0 -174 -36q-11 -4 -16 6l-12 32q-2 8 8 13q80 41 197 41q110 0 165 -46.5
t55 -123.5q0 -44 -19 -81.5t-46 -63.5l-53.5 -49.5t-45.5 -51t-19 -56.5z" />
    <glyph glyph-name="at" unicode="@" horiz-adv-x="916" 
d="M580 239l28 156q-45 18 -103 18q-95 0 -149 -59t-54 -152q0 -57 29 -89.5t87 -32.5q134 0 162 159zM658 -31q8 2 11 -6l8 -23q1 -5 -6 -8q-82 -40 -216 -40q-198 0 -293.5 78t-95.5 240q0 171 111.5 279.5t306.5 108.5q83 0 147.5 -16.5t105 -44.5t66.5 -68t36.5 -82.5
t10.5 -92.5q0 -119 -54.5 -188.5t-168.5 -69.5h-51q-6 0 -10 2.5t-3 8.5l10 78q-49 -93 -161 -93q-80 0 -123 45t-43 122q0 111 69 186t192 75q79 0 153 -30q8 -4 7 -11l-60 -339h25q93 0 132.5 56t39.5 159q0 261 -321 261q-174 0 -272.5 -95.5t-98.5 -250.5
q0 -142 81.5 -209.5t261.5 -67.5q125 0 203 36z" />
    <glyph glyph-name="A" unicode="A" horiz-adv-x="656" 
d="M186 255h283l-140 380h-2zM305 701h46q12 0 16 -13l259 -675q4 -13 -10 -13h-41q-10 0 -15 11l-71 187h-322l-72 -187q-5 -11 -14 -11h-42q-13 0 -9 13l258 675q6 13 17 13z" />
    <glyph glyph-name="B" unicode="B" horiz-adv-x="682" 
d="M155 392h195q102 0 144 30t42 98q0 67 -44 95.5t-148 28.5h-189v-252zM346 0h-240q-13 0 -13 13v676q0 12 13 12h240q130 0 190.5 -43t60.5 -134q0 -70 -31.5 -108t-82.5 -48q139 -23 139 -172q0 -104 -66.5 -150t-209.5 -46zM155 57h187q120 0 169.5 31.5t49.5 110.5
q0 73 -46 105t-162 32h-198v-279z" />
    <glyph glyph-name="C" unicode="C" horiz-adv-x="597" 
d="M377 47q78 0 144 35q11 6 17 -8l13 -30q3 -8 -9 -14q-70 -40 -172 -40q-150 0 -230 94t-80 267q0 172 79 266.5t226 94.5q103 0 169 -39q13 -6 9 -14l-12 -30q-5 -13 -17 -7q-60 32 -141 32q-123 0 -186 -77.5t-63 -225.5q0 -149 63.5 -226.5t189.5 -77.5z" />
    <glyph glyph-name="D" unicode="D" horiz-adv-x="672" 
d="M271 0h-165q-13 0 -13 13v676q0 12 12 12h165q171 0 257.5 -78t86.5 -265q0 -198 -86 -278t-257 -80zM270 643h-115v-585h116q69 0 118 13.5t86.5 46t56 92t18.5 148.5q0 161 -69 223t-211 62z" />
    <glyph glyph-name="E" unicode="E" horiz-adv-x="543" 
d="M464 331h-309v-274h322q13 0 13 -12v-32q0 -13 -13 -13h-371q-13 0 -13 13v676q0 12 12 12h369q13 0 13 -12v-32q0 -13 -13 -13h-319v-257h309q12 0 12 -13v-30q0 -13 -12 -13z" />
    <glyph glyph-name="F" unicode="F" horiz-adv-x="529" 
d="M467 326h-312v-313q0 -13 -13 -13h-36q-13 0 -13 13v676q0 12 13 12h367q12 0 12 -11v-33q0 -13 -12 -13h-318v-263h312q13 0 13 -13v-30q0 -12 -13 -12z" />
    <glyph glyph-name="G" unicode="G" horiz-adv-x="690" 
d="M384 395h214q13 0 13 -13v-318q0 -17 -16 -28q-77 -46 -205 -46q-330 0 -330 361t332 361q103 0 183 -42q13 -6 10 -14l-13 -30q-5 -13 -17 -7q-70 35 -160 35q-139 0 -205 -74.5t-66 -228.5q0 -155 66 -229.5t203 -74.5q93 0 157 33v259h-166q-13 0 -13 12v31
q0 13 13 13z" />
    <glyph glyph-name="H" unicode="H" horiz-adv-x="698" 
d="M543 13v317h-388v-317q0 -13 -13 -13h-36q-13 0 -13 13v676q0 12 13 12h36q13 0 13 -12v-301h388v301q0 12 13 12h37q12 0 12 -12v-676q0 -13 -12 -13h-37q-13 0 -13 13z" />
    <glyph glyph-name="I" unicode="I" horiz-adv-x="262" 
d="M100 13v676q0 12 12 12h37q13 0 13 -12v-676q0 -13 -13 -13h-37q-12 0 -12 13z" />
    <glyph glyph-name="J" unicode="J" horiz-adv-x="467" 
d="M317 208v481q0 12 13 12h37q12 0 12 -12v-486q0 -214 -194 -214q-90 0 -149 36q-13 9 -9 18l12 31q6 12 16 6q56 -34 126 -34q136 0 136 162z" />
    <glyph glyph-name="K" unicode="K" horiz-adv-x="596" 
d="M155 405l323 287q10 9 21 9h47q8 0 10.5 -5.5t-2.5 -10.5l-350 -310l358 -358q3 -3 4 -7t-2 -7t-8 -3h-49q-11 0 -22 11l-330 328v-326q0 -13 -13 -13h-36q-13 0 -13 13v676q0 12 13 12h36q13 0 13 -12v-284z" />
    <glyph glyph-name="L" unicode="L" horiz-adv-x="527" 
d="M155 689v-631h316q13 0 13 -12v-33q0 -13 -13 -13h-365q-13 0 -13 13v676q0 12 13 12h36q13 0 13 -12z" />
    <glyph glyph-name="M" unicode="M" horiz-adv-x="794" 
d="M397 208q-11 0 -17 9l-225 376v-580q0 -13 -13 -13h-36q-13 0 -13 13v676q0 12 13 12h39q12 0 16 -8l236 -391l236 391q4 8 16 8h39q12 0 12 -12v-676q0 -13 -12 -13h-37q-12 0 -12 13v580l-225 -376q-6 -9 -17 -9z" />
    <glyph glyph-name="N" unicode="N" horiz-adv-x="699" 
d="M606 690v-677q0 -13 -13 -13h-39q-11 0 -18 10l-382 589v-586q0 -13 -12 -13h-36q-13 0 -13 13v676q0 12 13 12h38q14 0 20 -9l381 -590v587q0 12 13 12h35q13 0 13 -11z" />
    <glyph glyph-name="O" unicode="O" horiz-adv-x="706" 
d="M353 712q144 0 219.5 -94t75.5 -267q0 -174 -75.5 -267.5t-220.5 -93.5q-143 0 -218.5 93.5t-75.5 267.5q0 173 75.5 267t219.5 94zM353 47q116 0 173.5 78t57.5 226t-57.5 226t-173.5 78q-115 0 -173 -78t-58 -226t58 -226t173 -78z" />
    <glyph glyph-name="P" unicode="P" horiz-adv-x="637" 
d="M155 280h133q120 0 172 41t52 140q0 100 -52 141.5t-172 41.5h-133v-364zM142 0h-36q-13 0 -13 13v675q0 13 12 13h183q151 0 219 -56t68 -184q0 -127 -68.5 -183t-218.5 -56h-133v-209q0 -13 -13 -13z" />
    <glyph glyph-name="Q" unicode="Q" horiz-adv-x="706" 
d="M403 1q64 -33 152 -33q6 0 16 0.5t14 0.5q17 0 17 -11v-28q0 -9 -6 -12t-25 -3q-147 0 -243 78q-132 8 -201 100t-69 258q0 173 75.5 267t219.5 94t220.5 -94t75.5 -267q-1 -149 -65 -241.5t-181 -108.5zM353 47q116 0 173.5 78t57.5 226q0 147 -57.5 225.5t-174.5 78.5
q-115 0 -172.5 -78t-57.5 -226t58 -226t173 -78z" />
    <glyph glyph-name="R" unicode="R" horiz-adv-x="641" 
d="M155 315h140q120 0 170.5 38.5t50.5 125.5q0 88 -51 126.5t-168 38.5h-142v-329zM106 701h192q146 0 214 -53.5t68 -168.5q0 -195 -215 -215l214 -247q5 -5 3 -11t-10 -6h-43q-11 0 -19 10l-214 248h-141v-245q0 -13 -13 -13h-36q-13 0 -13 13v676q0 12 13 12z" />
    <glyph glyph-name="S" unicode="S" horiz-adv-x="546" 
d="M498 173q0 -86 -65.5 -134t-181.5 -48q-120 0 -192 31q-13 6 -10 15l12 32q4 12 15 7q72 -29 173 -29q88 0 137.5 34t49.5 94q0 32 -12 56t-39 42.5t-49 29.5t-63 28q-4 1 -6 2l-5 2.5t-6 2.5q-41 17 -60 25.5t-50 27t-45.5 36.5t-26 46.5t-11.5 64.5q0 82 56 128t173 46
q100 0 167 -29q12 -4 9 -14l-12 -31q-3 -12 -16 -7q-60 24 -144 24q-171 0 -171 -117q0 -17 4 -31.5t8.5 -25t16.5 -21.5l19 -17t25 -15l26.5 -13t31.5 -13.5t31 -13.5q31 -13 35.5 -15l32.5 -14.5t34.5 -17t28 -18t28 -22t20.5 -24t18.5 -30t9 -34t4.5 -40.5z" />
    <glyph glyph-name="T" unicode="T" horiz-adv-x="534" 
d="M32 656v33q0 12 12 12h446q12 0 12 -12v-33q0 -13 -12 -13h-192v-630q0 -13 -13 -13h-36q-13 0 -13 13v630h-191q-13 0 -13 13z" />
    <glyph glyph-name="U" unicode="U" horiz-adv-x="686" 
d="M343 -12q-129 0 -192.5 66.5t-63.5 190.5v444q0 12 13 12h36q13 0 13 -12v-440q0 -204 194 -204t194 204v440q0 12 12 12h37q12 0 12 -12v-444q0 -124 -63 -190.5t-192 -66.5z" />
    <glyph glyph-name="V" unicode="V" horiz-adv-x="645" 
d="M346 0h-47q-13 0 -18 13l-242 674q-5 14 9 14h41q10 0 15 -12l161 -449l57 -174h1l57 175l162 448q3 12 15 12h40q15 0 10 -14l-243 -674q-5 -13 -18 -13z" />
    <glyph glyph-name="W" unicode="W" horiz-adv-x="1014" 
d="M486 701h42q14 0 17 -12l125 -427l55 -198h2l51 193l126 432q3 12 15 12h39q14 0 10 -15l-198 -672q-4 -14 -18 -14h-50q-14 0 -18 13l-129 430l-47 171h-2l-47 -171l-129 -430q-4 -13 -18 -13h-50q-14 0 -18 14l-197 672q-4 15 9 15h40q11 0 14 -12l126 -432l51 -192h2
l54 197l126 427q3 12 17 12z" />
    <glyph glyph-name="X" unicode="X" horiz-adv-x="617" 
d="M309 305l-204 -294q-8 -11 -20 -11h-42q-6 0 -8.5 5t1.5 9l238 339l-233 334q-3 5 -1 9.5t9 4.5h43q11 0 17 -10l200 -288l198 288q7 10 18 10h43q6 0 8.5 -4.5t-0.5 -9.5l-234 -334l239 -339q3 -4 1 -9t-8 -5h-41q-13 0 -20 11z" />
    <glyph glyph-name="Y" unicode="Y" horiz-adv-x="625" 
d="M344 262v-249q0 -13 -13 -13h-37q-12 0 -12 13v249l-246 425q-3 5 -1 9.5t9 4.5h41q11 0 17 -11l151 -264l59 -110l60 110l151 264q5 11 17 11h41q15 0 8 -14z" />
    <glyph glyph-name="Z" unicode="Z" horiz-adv-x="583" 
d="M60 13v31q0 9 8 23l376 576h-364q-12 0 -12 13v33q0 12 12 12h422q12 0 12 -12v-32q0 -11 -7 -22l-374 -577h374q13 0 13 -12v-33q0 -13 -13 -13h-435q-12 0 -12 13z" />
    <glyph glyph-name="bracketleft" unicode="[" horiz-adv-x="353" 
d="M298 -73v-25q0 -12 -12 -12h-152q-12 0 -12 12v788q0 11 12 11h152q12 0 12 -11v-26q0 -12 -12 -12h-107v-713h107q12 0 12 -12z" />
    <glyph glyph-name="backslash" unicode="\" horiz-adv-x="418" 
d="M71 690l335 -676q7 -14 -9 -14h-33q-12 0 -18 12l-334 675q-6 14 9 14h33q12 0 17 -11z" />
    <glyph glyph-name="bracketright" unicode="]" horiz-adv-x="355" 
d="M57 -98v25q0 12 12 12h107v713h-107q-12 0 -12 12v26q0 11 12 11h152q12 0 12 -11v-788q0 -12 -12 -12h-152q-12 0 -12 12z" />
    <glyph glyph-name="asciicircum" unicode="^" horiz-adv-x="582" 
d="M276 701h30q12 0 17 -10l196 -336q8 -15 -9 -15h-35q-11 0 -18 11l-166 290l-166 -290q-7 -11 -18 -11h-35q-7 0 -9.5 4t1.5 11l196 336q5 10 16 10z" />
    <glyph glyph-name="underscore" unicode="_" horiz-adv-x="475" 
d="M441 -89h-406q-12 0 -12 12v20q0 11 12 11h406q11 0 11 -11v-20q0 -12 -11 -12z" />
    <glyph glyph-name="grave" unicode="`" horiz-adv-x="331" 
d="M172 687l62 -90q3 -4 1.5 -8t-7.5 -4h-21q-9 0 -19 8l-93 89q-5 4 -3.5 9.5t8.5 5.5h52q12 0 20 -10z" />
    <glyph glyph-name="a" unicode="a" horiz-adv-x="545" 
d="M468 344v-332q0 -12 -12 -12h-32q-11 0 -11 12v83q-51 -104 -198 -104q-82 0 -127 39t-45 105q0 35 12 61.5t37 44.5t54.5 29.5t75 18.5t88 10t101.5 4v39q0 68 -32.5 99t-108.5 31q-83 0 -164 -34q-12 -5 -15 7l-9 29q-3 9 7 14q85 37 185 37q102 0 148 -45t46 -136z
M411 198v58q-54 -2 -84 -3.5t-72 -6t-65 -12.5t-46.5 -20.5t-33.5 -31.5t-10 -45q0 -43 31.5 -70t92.5 -27q89 0 138 45t49 113z" />
    <glyph glyph-name="b" unicode="b" horiz-adv-x="614" 
d="M145 257q0 -105 46.5 -160t133.5 -55q175 0 175 215q0 216 -175 216q-87 0 -133.5 -55.5t-46.5 -160.5zM144 101v-89q0 -12 -11 -12h-34q-13 0 -13 12v678q0 11 13 11h34q12 0 12 -11v-278q22 54 72 83.5t118 29.5q106 0 165.5 -69t59.5 -199t-59.5 -198.5t-165.5 -68.5
q-146 0 -191 111z" />
    <glyph glyph-name="c" unicode="c" horiz-adv-x="490" 
d="M54 258q0 127 64 197t174 70q86 0 140 -31q12 -7 8 -15l-12 -28q-4 -12 -17 -6q-49 26 -113 26q-88 0 -136 -54t-48 -159t48 -160t133 -55q71 0 123 30q11 5 15 -6l12 -29q3 -8 -9 -14q-57 -34 -140 -34q-112 0 -177 70.5t-65 197.5z" />
    <glyph glyph-name="d" unicode="d" horiz-adv-x="614" 
d="M470 257q0 104 -47.5 160t-133.5 56q-175 0 -175 -216q0 -215 175 -215q86 0 133.5 55.5t47.5 159.5zM470 12v89q-46 -111 -191 -111q-106 0 -165.5 68.5t-59.5 198.5t59.5 199t165.5 69q68 0 118 -29.5t72 -83.5v278q0 11 12 11h34q13 0 13 -11v-678q0 -12 -13 -12h-34
q-11 0 -11 12z" />
    <glyph glyph-name="e" unicode="e" horiz-adv-x="556" 
d="M309 39q77 0 137 33q11 6 17 -7l10 -26q3 -9 -8 -14q-70 -37 -159 -37q-119 0 -185.5 71.5t-66.5 196.5q0 128 61 198.5t169 70.5q105 0 162 -66.5t57 -175.5v-41q0 -12 -13 -12h-378q4 -88 55.5 -139.5t141.5 -51.5zM284 474q-164 0 -172 -195h334v8q0 85 -41 136
t-121 51z" />
    <glyph glyph-name="f" unicode="f" horiz-adv-x="336" 
d="M171 513h128q11 0 11 -13v-28q0 -12 -11 -12h-128v-448q0 -12 -11 -12h-35q-12 0 -12 12v448h-76q-12 0 -12 12v28q0 13 12 13h76v52q0 70 33.5 106.5t97.5 36.5q39 0 66 -10q8 -3 8 -12l-1 -27q0 -13 -12 -9q-24 6 -54 6q-80 0 -80 -93v-50z" />
    <glyph glyph-name="g" unicode="g" horiz-adv-x="581" 
d="M440 290q0 91 -43.5 137.5t-121.5 46.5q-162 0 -162 -191q0 -190 162 -190q77 0 121 51.5t44 145.5zM498 500v-428q0 -94 -58.5 -144t-161.5 -50t-171 32q-9 6 -7 12l11 29q3 12 14 8q68 -29 152 -29q77 0 120 37t43 109v71q-20 -49 -66.5 -76.5t-107.5 -27.5
q-97 0 -154.5 61t-57.5 179t56.5 180t153.5 62q60 0 108.5 -27t67.5 -73v76q0 12 13 12h33q12 0 12 -13z" />
    <glyph glyph-name="h" unicode="h" horiz-adv-x="591" 
d="M513 342v-330q0 -12 -11 -12h-35q-12 0 -12 12v322q0 136 -139 136q-77 0 -124 -45t-47 -114v-299q0 -12 -12 -12h-34q-13 0 -13 12v678q0 11 13 11h34q12 0 12 -11v-268q17 41 63.5 72t121.5 31q90 0 136.5 -48.5t46.5 -134.5z" />
    <glyph glyph-name="i" unicode="i" horiz-adv-x="227" 
d="M143 500v-488q0 -12 -12 -12h-35q-11 0 -11 12v488q0 13 11 13h35q12 0 12 -13zM143 681v-83q0 -12 -12 -12h-35q-11 0 -11 12v83q0 12 11 12h35q12 0 12 -12z" />
    <glyph glyph-name="j" unicode="j" horiz-adv-x="236" 
d="M94 19v481q0 13 11 13h35q12 0 12 -13v-487q0 -65 -24.5 -96t-79.5 -31q-36 0 -57 7q-10 1 -10 12l1 30q0 11 13 9q25 -5 43 -5q30 0 43 19t13 61zM152 681v-83q0 -12 -12 -12h-35q-11 0 -11 12v83q0 12 11 12h35q12 0 12 -12z" />
    <glyph glyph-name="k" unicode="k" horiz-adv-x="482" 
d="M456 0h-51q-9 0 -17 8l-243 239v-235q0 -12 -12 -12h-34q-13 0 -13 12v678q0 11 13 11h34q12 0 12 -11v-366l233 183q8 6 17 6h51q7 0 8.5 -5.5t-4.5 -10.5l-269 -209l281 -273q5 -5 2.5 -10t-8.5 -5z" />
    <glyph glyph-name="l" unicode="l" horiz-adv-x="227" 
d="M143 690v-678q0 -12 -12 -12h-35q-11 0 -11 12v678q0 11 11 11h35q12 0 12 -11z" />
    <glyph glyph-name="m" unicode="m" horiz-adv-x="897" 
d="M480 325v-313q0 -12 -12 -12h-34q-12 0 -12 12v328q0 130 -122 130q-71 0 -115 -42.5t-44 -110.5v-305q0 -12 -12 -12h-34q-13 0 -13 12v488q0 13 13 13h34q12 0 12 -12v-77q14 40 57.5 70.5t113.5 30.5q128 0 156 -105q46 105 183 105q83 0 125.5 -48t42.5 -131v-334
q0 -12 -12 -12h-34q-12 0 -12 12v327q0 131 -123 131q-69 0 -113.5 -41t-44.5 -104z" />
    <glyph glyph-name="n" unicode="n" horiz-adv-x="583" 
d="M505 342v-330q0 -12 -12 -12h-34q-12 0 -12 12v323q0 135 -137 135q-76 0 -123 -44t-47 -114v-300q0 -12 -12 -12h-35q-11 0 -11 12v488q0 13 11 13h34q12 0 12 -12l1 -78q48 102 183 102q90 0 136 -48.5t46 -134.5z" />
    <glyph glyph-name="o" unicode="o" horiz-adv-x="583" 
d="M291 -10q-112 0 -174.5 70t-62.5 197q0 128 62.5 198t174.5 70t175 -70t63 -198q0 -127 -63 -197t-175 -70zM291 42q86 0 132 54.5t46 160.5t-46 161t-132 55t-131.5 -55t-45.5 -161t45.5 -160.5t131.5 -54.5z" />
    <glyph glyph-name="p" unicode="p" horiz-adv-x="610" 
d="M141 257q0 -104 47 -159.5t133 -55.5q175 0 175 215q0 216 -175 216q-86 0 -133 -56t-47 -160zM140 501v-89q22 54 72.5 83.5t118.5 29.5q106 0 165.5 -69t59.5 -199t-59.5 -198.5t-165.5 -68.5q-146 0 -190 111v-199q0 -12 -12 -12h-34q-13 0 -13 12v598q0 13 13 13h33
q12 0 12 -12z" />
    <glyph glyph-name="q" unicode="q" horiz-adv-x="610" 
d="M470 257q0 104 -47.5 160t-133.5 56q-175 0 -175 -216q0 -215 175 -215q86 0 133.5 55.5t47.5 159.5zM470 412v89q0 12 11 12h34q13 0 13 -13v-598q0 -12 -13 -12h-34q-12 0 -12 12v197q-44 -109 -190 -109q-106 0 -165.5 68.5t-59.5 198.5t59.5 199t165.5 69
q68 0 118.5 -29.5t72.5 -83.5z" />
    <glyph glyph-name="r" unicode="r" horiz-adv-x="358" 
d="M95 513h34q12 0 12 -12v-110q16 45 61.5 84.5t112.5 39.5q10 0 10 -9v-43q0 -11 -11 -11q-1 0 -7 1t-12 1q-62 0 -108 -59.5t-46 -133.5v-249q0 -12 -12 -12h-34q-13 0 -13 12v488q0 13 13 13z" />
    <glyph glyph-name="s" unicode="s" horiz-adv-x="453" 
d="M406 129q0 -139 -189 -139q-96 0 -165 29q-11 5 -9 12l10 29q4 12 14 7q65 -26 146 -26q69 0 102 21t33 67q0 23 -9 40t-32.5 31t-42 21.5t-58.5 22.5q-5 2 -23.5 8.5t-24.5 9l-21.5 9t-21.5 10.5l-18 12t-17 14.5l-13 16.5t-11.5 20t-6 23.5t-2.5 28.5q0 129 173 129
q91 0 154 -29q10 -5 7 -13l-9 -27q-3 -10 -14 -7q-62 25 -132 25q-64 0 -93 -18.5t-29 -59.5q0 -18 7.5 -33t16 -24t30.5 -20t35.5 -16t46.5 -16q39 -14 64 -26t51 -30.5t38.5 -43.5t12.5 -58z" />
    <glyph glyph-name="t" unicode="t" horiz-adv-x="348" 
d="M304 460h-141v-306q0 -62 19 -84.5t71 -22.5q15 0 50 7q9 1 12 -10l8 -27q2 -9 -8 -12q-27 -11 -71 -11q-76 0 -107 35t-31 119v312h-78q-12 0 -12 12v28q0 13 12 13h79v133q0 12 12 12h32q12 0 12 -12v-133h141q12 0 12 -13v-28q0 -12 -12 -12z" />
    <glyph glyph-name="u" unicode="u" horiz-adv-x="575" 
d="M75 176v324q0 13 12 13h34q12 0 12 -13v-315q0 -141 135 -141q73 0 119.5 43t46.5 113v300q0 13 12 13h35q11 0 11 -13v-488q0 -12 -11 -12h-35q-12 0 -12 12v79q-18 -41 -61 -71t-117 -30q-91 0 -136 49t-45 137z" />
    <glyph glyph-name="v" unicode="v" horiz-adv-x="488" 
d="M265 0h-42q-10 0 -15 11l-178 488q-5 14 9 14h37q10 0 13 -12l99 -271l55 -166h2l55 166l99 271q3 12 13 12h38q14 0 9 -14l-179 -488q-5 -11 -15 -11z" />
    <glyph glyph-name="w" unicode="w" horiz-adv-x="796" 
d="M379 513h37q11 0 14 -12l112 -344l27 -96h2l24 96l103 344q3 12 13 12h37q14 0 10 -14l-150 -488q-3 -11 -15 -11h-42q-12 0 -15 11l-107 326l-30 104h-2l-29 -104l-107 -326q-3 -11 -15 -11h-42q-11 0 -14 11l-152 488q-4 14 10 14h37q10 0 13 -12l104 -344l24 -96h2
l27 96l111 344q3 12 13 12z" />
    <glyph glyph-name="x" unicode="x" horiz-adv-x="486" 
d="M98 504l146 -199l144 199q5 9 16 9h41q6 0 8 -4.5t-2 -10.5l-176 -238l182 -246q4 -4 2 -9t-8 -5h-43q-9 0 -15 8l-150 208l-150 -208q-5 -8 -15 -8h-44q-5 0 -7 4.5t2 9.5l181 246l-176 238q-4 6 -2.5 10.5t7.5 4.5h44q8 0 15 -9z" />
    <glyph glyph-name="y" unicode="y" horiz-adv-x="486" 
d="M458 499l-167 -479q-24 -73 -57 -103.5t-95 -30.5q-37 0 -67 10q-12 4 -9 12l8 29q3 10 14 8q38 -7 51 -7q47 0 68.5 30.5t8.5 64.5l-182 466q-5 14 8 14h37q9 0 14 -12l105 -274l58 -164h2l52 164l92 274q3 12 13 12h37q14 0 9 -14z" />
    <glyph glyph-name="z" unicode="z" horiz-adv-x="480" 
d="M426 500v-23q0 -9 -5 -17l-294 -407h286q13 0 13 -11v-30q0 -12 -13 -12h-349q-12 0 -12 12v24q0 8 5 16l295 407h-282q-12 0 -12 12v29q0 13 12 13h344q12 0 12 -13z" />
    <glyph glyph-name="braceleft" unicode="{" horiz-adv-x="353" 
d="M47 280v31q0 12 12 12h17q37 0 53.5 45.5t16.5 142.5q0 107 24.5 148.5t98.5 41.5h33q13 0 13 -11v-27q0 -12 -13 -12h-23q-49 0 -63.5 -32t-14.5 -116q0 -187 -71 -207q71 -22 71 -207q0 -84 14.5 -116.5t63.5 -32.5h23q13 0 13 -12v-26q0 -12 -13 -12h-33
q-74 0 -98.5 42t-24.5 149q0 96 -16.5 142t-53.5 46h-17q-12 0 -12 11z" />
    <glyph glyph-name="bar" unicode="|" horiz-adv-x="262" 
d="M159 708v-806q0 -12 -12 -12h-32q-12 0 -12 12v806q0 12 12 12h32q12 0 12 -12z" />
    <glyph glyph-name="braceright" unicode="}" horiz-adv-x="353" 
d="M306 311v-31q0 -11 -11 -11h-17q-37 0 -53.5 -46t-16.5 -142q0 -106 -25 -148.5t-98 -42.5h-34q-13 0 -13 12v26q0 12 13 12h24q49 0 63 32.5t14 116.5q0 185 72 207q-72 21 -72 207q0 84 -14 116t-63 32h-24q-13 0 -13 12v27q0 11 13 11h34q73 0 98 -42t25 -148
q0 -97 16.5 -142.5t53.5 -45.5h17q11 0 11 -12z" />
    <glyph glyph-name="asciitilde" unicode="~" horiz-adv-x="580" 
d="M176 415q37 0 95 -23l46 -18q55 -21 75 -21q30 0 50 31q7 8 10 22q4 12 18 5l21 -10q10 -4 7 -19q-8 -40 -33.5 -63.5t-60.5 -23.5q-37 0 -95 23l-46 19q-51 20 -74 20q-33 0 -52 -31q-6 -10 -9 -22q-4 -12 -18 -5l-21 10q-10 4 -8 18q7 41 33 64.5t62 23.5z" />
    <glyph glyph-name="uni00A0" unicode="&#xa0;" horiz-adv-x="0" 
 />
    <glyph glyph-name="exclamdown" unicode="&#xa1;" horiz-adv-x="272" 
d="M176 500v-70q0 -12 -11 -12h-57q-12 0 -12 12v70q0 13 11 13h58q11 0 11 -13zM122 322h28q11 0 11 -13l11 -407q0 -12 -12 -12h-48q-12 0 -12 12l11 407q0 13 11 13z" />
    <glyph glyph-name="cent" unicode="&#xa2;" horiz-adv-x="507" 
d="M54 256q0 119 59.5 189.5t161.5 78.5v76q0 13 12 13h24q12 0 12 -13v-77q74 -3 125 -32q10 -6 7 -13l-12 -28q-4 -13 -16 -6q-49 27 -121 27q-91 0 -141.5 -55t-50.5 -160t49 -159t142 -54q75 0 128 29q10 6 16 -6l11 -28q2 -8 -8 -14q-50 -29 -129 -33v-79
q0 -12 -12 -12h-24q-12 0 -12 12v79q-104 8 -162.5 77t-58.5 188z" />
    <glyph glyph-name="sterling" unicode="&#xa3;" horiz-adv-x="664" 
d="M175 330h-108q-11 0 -11 12v25q0 11 11 11h87q-48 84 -48 139q0 82 63.5 138.5t183.5 56.5q112 0 170 -48t58 -124q0 -41 -15 -41h-30q-12 0 -12 11q0 5 1 14t1 15q0 50 -44 83.5t-127 33.5q-89 0 -138.5 -41t-49.5 -100q0 -47 50 -137h221q12 0 12 -11v-25
q0 -12 -12 -12h-201q35 -61 35 -108q0 -50 -29 -95.5t-84 -69.5q45 14 98 14q41 0 105 -11.5t104 -11.5q58 0 77.5 28t20.5 83q0 14 13 14h27q14 0 14 -16q0 -80 -30.5 -122t-111.5 -42q-50 0 -117 13.5t-115 13.5q-89 0 -155 -28q-12 -4 -16 2l-18 31q-6 8 3 13
q154 85 154 186q0 45 -37 106z" />
    <glyph glyph-name="currency" unicode="&#xa4;" horiz-adv-x="631" 
d="M86 86l57 56q-46 54 -46 141t46 139l-57 58q-8 8 0 17l16 16q10 8 17 0l59 -60q53 40 137 40q86 0 137 -41l61 61q8 8 16 0l16 -16q9 -9 0 -17l-59 -59q46 -54 46 -138q0 -87 -46 -139l59 -58q9 -8 0 -17l-16 -16q-8 -8 -16 0l-61 60q-50 -40 -137 -40q-86 0 -137 40
l-59 -60q-8 -9 -17 0l-16 16q-8 9 0 17zM482 283q0 77 -44 119t-123 42t-123.5 -42t-44.5 -119t44.5 -119t123.5 -42t123 42t44 119z" />
    <glyph glyph-name="yen" unicode="&#xa5;" horiz-adv-x="634" 
d="M349 184v-171q0 -13 -13 -13h-37q-13 0 -13 13v171h-204q-11 0 -11 12v24q0 11 11 11h204v28l-44 72h-160q-11 0 -11 11v24q0 11 11 11h136l-186 310q-8 14 8 14h41q11 0 17 -11l219 -372h1l219 372q7 11 17 11h40q16 0 8 -14l-186 -310h136q12 0 12 -11v-24
q0 -11 -12 -11h-160l-43 -72v-28h203q12 0 12 -11v-24q0 -12 -12 -12h-203z" />
    <glyph glyph-name="brokenbar" unicode="&#xa6;" horiz-adv-x="262" 
d="M159 708v-306q0 -12 -12 -12h-32q-12 0 -12 12v306q0 12 12 12h32q12 0 12 -12zM159 208v-306q0 -12 -12 -12h-32q-12 0 -12 12v306q0 12 12 12h32q12 0 12 -12z" />
    <glyph glyph-name="section" unicode="&#xa7;" horiz-adv-x="706" 
d="M111 314q-1 51 39.5 89.5t111.5 44.5q-38 19 -58.5 32.5t-38.5 38.5t-18 55q0 69 50 102.5t167 33.5q90 0 178 -22q13 -3 13 -14v-27q0 -14 -15 -9q-73 20 -168 20q-91 0 -127.5 -22t-36.5 -66q0 -35 39.5 -59.5t145.5 -66.5q52 -20 80 -33t60 -33.5t46 -45t14 -55.5
q0 -46 -41.5 -79.5t-115.5 -44.5q128 -55 128 -132q0 -136 -238 -136q-123 0 -168 15q-13 4 -13 17v26q0 13 15 10q96 -16 161 -16q182 0 182 87q0 20 -11.5 36.5t-37 31t-43.5 23t-55 22.5l-48 18q-116 47 -145 66q-51 35 -52 93zM320 416q-70 -1 -111 -29.5t-41 -70.5
q0 -38 37.5 -60.5t134.5 -57.5l40 -14q66 3 111 30.5t46 58.5q0 23 -14.5 43t-48.5 37.5t-65.5 30t-88.5 32.5z" />
    <glyph glyph-name="dieresis" unicode="&#xa8;" horiz-adv-x="331" 
d="M109 669v-72q0 -12 -11 -12h-39q-12 0 -12 12v72q0 12 12 12h39q11 0 11 -12zM283 669v-72q0 -12 -11 -12h-39q-12 0 -12 12v72q0 12 12 12h39q11 0 11 -12z" />
    <glyph glyph-name="copyright" unicode="&#xa9;" horiz-adv-x="843" 
d="M439 192q61 0 101 23q10 5 12 -5l11 -26q2 -6 -6 -11q-50 -28 -123 -28q-90 0 -146 54.5t-56 154.5t56 153.5t147 53.5q71 0 119 -28q8 -4 6 -10l-11 -26q-4 -11 -12 -6q-37 23 -96 23q-71 0 -113 -42t-42 -118t42 -119t111 -43zM101 351q0 -136 83.5 -228t236.5 -92
q154 0 237.5 92t83.5 228t-83.5 228t-237.5 92q-153 0 -236.5 -92t-83.5 -228zM59 351q0 99 39.5 179t123 131t199.5 51q88 0 158.5 -29t114.5 -79.5t67.5 -115t23.5 -137.5t-23.5 -137.5t-67.5 -115t-114.5 -79.5t-158.5 -29q-116 0 -199.5 51t-123 131t-39.5 179z" />
    <glyph glyph-name="ordfeminine" unicode="&#xaa;" horiz-adv-x="455" 
d="M341 649v46q-52 -1 -85.5 -2.5t-69 -7.5t-56 -16.5t-33.5 -28.5t-13 -43q0 -32 25.5 -52t75.5 -20q75 0 115.5 35t40.5 89zM341 502v54q-15 -29 -54.5 -52t-108.5 -23t-107.5 32t-38.5 83q0 31 10.5 54.5t33 38.5t47 24.5t64.5 14.5t72 7t82 3v35q0 54 -26.5 77t-89.5 23
q-70 0 -137 -29q-11 -5 -15 6l-10 26q-3 8 7 12q73 33 155 33q168 0 168 -145v-274q0 -15 -14 -15h-23q-15 0 -15 15z" />
    <glyph glyph-name="guillemotleft" unicode="&#xab;" horiz-adv-x="392" 
d="M40 265q0 4 1 7l84 133q5 10 16 10h30q7 0 9 -4.5t-2 -9.5l-85 -136l85 -135q4 -5 2 -9t-9 -4h-30q-10 0 -16 9l-84 133q-1 3 -1 6zM195 265q0 4 1 7l84 133q5 10 16 10h30q16 0 7 -14l-85 -135l85 -136q8 -13 -7 -13h-30q-10 0 -16 9l-84 133q-1 2 -1 6z" />
    <glyph glyph-name="logicalnot" unicode="&#xac;" horiz-adv-x="584" 
d="M500 362v-198q0 -12 -12 -12h-33q-12 0 -12 12v157h-371q-12 0 -12 12v29q0 12 12 12h416q12 0 12 -12z" />
    <glyph glyph-name="uni00AD" unicode="&#xad;" horiz-adv-x="389" 
d="M333 233h-278q-11 0 -11 11v29q0 11 12 11h277q12 0 12 -11v-29q0 -11 -12 -11z" />
    <glyph glyph-name="registered" unicode="&#xae;" horiz-adv-x="460" 
d="M194 535h35q34 0 47 8t13 29q0 20 -12.5 29t-43.5 9h-39v-75zM230 712q84 0 126.5 -50.5t42.5 -126.5t-42.5 -126.5t-126.5 -50.5t-126.5 50.5t-42.5 126.5t42.5 126.5t126.5 50.5zM230 384q72 0 107.5 43t35.5 108q0 66 -35.5 109t-107.5 43q-73 0 -108 -43t-35 -109
t35 -108.5t108 -42.5zM164 446v184q0 6 7 6h65q40 0 61.5 -16.5t21.5 -47.5q0 -53 -53 -60l51 -65q6 -8 -4 -8h-21q-5 0 -9 5l-50 66h-39v-64q0 -7 -6 -7h-17q-7 0 -7 7z" />
    <glyph glyph-name="macron" unicode="&#xaf;" horiz-adv-x="331" 
d="M299 593h-268q-11 0 -11 11v20q0 12 11 12h268q12 0 12 -12v-20q0 -11 -12 -11z" />
    <glyph glyph-name="degree" unicode="&#xb0;" horiz-adv-x="355" 
d="M178 489q41 0 65 25t24 66q0 40 -24 65t-65 25t-65.5 -25t-24.5 -65q0 -41 24 -66t66 -25zM178 448q-61 0 -97 37t-36 95t36 94.5t97 36.5t97 -36.5t36 -94.5t-36 -95t-97 -37z" />
    <glyph glyph-name="plusminus" unicode="&#xb1;" horiz-adv-x="582" 
d="M509 333h-191v-192q0 -11 -11 -11h-31q-13 0 -13 11v192h-190q-12 0 -12 11v28q0 11 12 11h190v189q0 13 13 13h31q11 0 11 -13v-189h191q12 0 12 -11v-28q0 -11 -12 -11zM509 0h-436q-12 0 -12 12v23q0 12 12 12h436q12 0 12 -12v-23q0 -12 -12 -12z" />
    <glyph glyph-name="two.superior" unicode="&#xb2;" 
d="M106 798q0 -4 1 -14t1 -16q0 -14 -14 -14h-24q-10 0 -13 12q-3 10 -3 34q0 54 35 87t113 33q150 0 150 -129q0 -119 -215 -255h211q14 0 14 -14v-21q0 -14 -14 -14h-281q-14 0 -14 14v19q0 9 9 15q123 85 167 129q69 68 69 125q0 39 -21.5 61t-75.5 22q-95 0 -95 -74z
" />
    <glyph glyph-name="three.superior" unicode="&#xb3;" 
d="M194 684h-47q-14 0 -14 14v20q0 14 14 14h48q42 0 66 18t24 54q0 68 -104 68q-50 0 -104 -21q-15 -5 -19 7l-9 21q-4 9 9 16q54 25 128 25t113.5 -28.5t39.5 -83.5q0 -68 -64 -94q74 -27 74 -105q0 -62 -42.5 -94.5t-118.5 -32.5q-80 0 -134 26q-13 7 -10 15l9 22
q5 14 17 9q58 -24 114 -24q52 0 81 21t29 59q0 74 -100 74z" />
    <glyph glyph-name="acute" unicode="&#xb4;" horiz-adv-x="331" 
d="M97 597l62 90q7 10 20 10h52q7 0 8.5 -5.5t-3.5 -9.5l-93 -89q-10 -8 -19 -8h-20q-6 0 -8 4t1 8z" />
    <glyph glyph-name="mu" unicode="&#xb5;" horiz-adv-x="579" 
d="M501 500v-325q0 -88 -45 -137.5t-137 -49.5q-132 0 -178 101v-187q0 -12 -12 -12h-34q-13 0 -13 12v598q0 13 13 13h34q12 0 12 -13v-302q0 -70 47 -113t119 -43q135 0 135 141v317q0 13 12 13h35q12 0 12 -13z" />
    <glyph glyph-name="paragraph" unicode="&#xb6;" horiz-adv-x="501" 
d="M477 656h-39q-30 0 -42.5 -12t-12.5 -44v-603q0 -111 -99 -111q-28 0 -59 9q-9 4 -8 12l3 22q2 9 13 8q35 -5 41 -5q56 0 56 71v276h-33q-109 0 -178 56.5t-69 154.5q0 99 65.5 155t176.5 56h185q13 0 13 -11v-22q0 -12 -13 -12z" />
    <glyph glyph-name="periodcentered" unicode="&#xb7;" horiz-adv-x="215" 
d="M69 223v69q0 12 12 12h53q12 0 12 -12v-69q0 -12 -11 -12h-54q-12 0 -12 12z" />
    <glyph glyph-name="cedilla" unicode="&#xb8;" horiz-adv-x="331" 
d="M140 8h35q43 -10 71 -35t28 -56q0 -64 -92 -64q-26 0 -33 3q-8 3 -8 10v19q0 7 9 7h26q54 0 54 32q0 49 -90 84z" />
    <glyph glyph-name="one.superior" unicode="&#xb9;" 
d="M207 845l-90 -61q-13 -9 -21 3l-13 19q-7 10 4 18l117 85q8 6 18 6h23q14 0 14 -14v-400q0 -14 -14 -14h-24q-14 0 -14 14v344z" />
    <glyph glyph-name="ordmasculine" unicode="&#xba;" horiz-adv-x="476" 
d="M238 873q-69 0 -106.5 -44t-37.5 -128t37.5 -127t106.5 -43t106 43t37 127t-37 128t-106 44zM238 482q-95 0 -147.5 56.5t-52.5 162.5t52.5 163t147.5 57t147 -57t52 -163t-52.5 -162.5t-146.5 -56.5z" />
    <glyph glyph-name="guillemotright" unicode="&#xbb;" horiz-adv-x="392" 
d="M353 265q0 -3 -2 -6l-84 -133q-5 -9 -15 -9h-31q-14 0 -6 13l85 135l-85 136q-4 6 -2 10t8 4h31q10 0 15 -10l84 -133q2 -3 2 -7zM198 265q0 -3 -2 -6l-84 -133q-6 -9 -15 -9h-30q-15 0 -7 13l85 135l-85 136q-9 14 7 14h30q10 0 15 -10l84 -133q2 -3 2 -7z" />
    <glyph glyph-name="onequarter" unicode="&#xbc;" horiz-adv-x="980" 
d="M744 689l-428 -679q-7 -10 -17 -10h-35q-16 0 -7 13l427 679q5 9 18 9h35q15 0 7 -12zM207 631l-90 -61q-13 -9 -21 3l-13 19q-7 10 4 18l117 85q8 6 18 6h23q14 0 14 -14v-400q0 -14 -14 -14h-24q-14 0 -14 14v344zM830 355l-174 -209h174v209zM941 97h-59v-83
q0 -14 -14 -14h-24q-14 0 -14 14v83h-223q-14 0 -14 15v20q0 6 6 14l228 273q9 9 16 9h25q14 0 14 -14v-268h59q14 0 14 -14v-20q0 -15 -14 -15z" />
    <glyph glyph-name="onehalf" unicode="&#xbd;" horiz-adv-x="980" 
d="M704 689l-428 -679q-7 -10 -17 -10h-35q-16 0 -7 13l427 679q5 9 18 9h35q15 0 7 -12zM207 631l-90 -61q-13 -9 -21 3l-13 19q-7 10 4 18l117 85q8 6 18 6h23q14 0 14 -14v-400q0 -14 -14 -14h-24q-14 0 -14 14v344zM673 311q0 74 95 74q54 0 75.5 -22t21.5 -61
q0 -32 -21.5 -67t-55 -65.5t-71.5 -59l-74 -53.5q-10 -6 -14 -9q-9 -6 -9 -15v-19q0 -14 14 -14h281q14 0 14 14v21q0 14 -14 14h-211q215 136 215 255q0 129 -150 129q-78 0 -113 -33t-35 -87q0 -23 3 -34q3 -12 13 -12h24q14 0 14 14q0 6 -1 16t-1 14z" />
    <glyph glyph-name="threequarters" unicode="&#xbe;" horiz-adv-x="980" 
d="M762 689l-428 -679q-7 -10 -17 -10h-35q-16 0 -7 13l427 679q5 9 18 9h35q15 0 7 -12zM830 355l-174 -209h174v209zM941 97h-59v-83q0 -14 -14 -14h-24q-14 0 -14 14v83h-223q-14 0 -14 15v20q0 6 6 14l228 273q9 9 16 9h25q14 0 14 -14v-268h59q14 0 14 -14v-20
q0 -15 -14 -15zM194 470h-47q-14 0 -14 14v20q0 14 14 14h48q42 0 66 18t24 54q0 68 -104 68q-50 0 -104 -21q-15 -5 -19 7l-9 21q-4 9 9 16q54 25 128 25t113.5 -28.5t39.5 -83.5q0 -68 -64 -94q74 -27 74 -105q0 -62 -42.5 -94.5t-118.5 -32.5q-80 0 -134 26q-13 7 -10 15
l9 22q5 14 17 9q58 -24 114 -24q52 0 81 21t29 59q0 74 -100 74z" />
    <glyph glyph-name="questiondown" unicode="&#xbf;" horiz-adv-x="462" 
d="M289 500v-70q0 -12 -12 -12h-57q-12 0 -12 12v70q0 13 13 13h56q12 0 12 -13zM219 310v-32q0 -21 -17 -42t-41.5 -41l-49 -42t-41.5 -54.5t-17 -70.5q0 -74 46.5 -109.5t149.5 -35.5q102 0 172 37q12 5 9 13l-13 32q-4 10 -16 5q-74 -31 -142 -31q-80 0 -111 20.5
t-31 72.5q0 32 16.5 60.5t40.5 50l47.5 42t40 44.5t16.5 49v32q0 12 -12 12h-35q-12 0 -12 -12z" />
    <glyph glyph-name="Agrave" unicode="&#xc0;" horiz-adv-x="656" 
d="M186 255h283l-140 380h-2zM305 701h46q12 0 16 -13l259 -675q4 -13 -10 -13h-41q-10 0 -15 11l-71 187h-322l-72 -187q-5 -11 -14 -11h-42q-13 0 -9 13l258 675q6 13 17 13zM276 854l62 -86q3 -4 1 -8t-8 -4h-22q-8 0 -18 8l-92 87q-5 4 -3 9.5t9 5.5h51q11 0 20 -12z
" />
    <glyph glyph-name="Aacute" unicode="&#xc1;" horiz-adv-x="656" 
d="M186 255h283l-140 380h-2zM305 701h46q12 0 16 -13l259 -675q4 -13 -10 -13h-41q-10 0 -15 11l-71 187h-322l-72 -187q-5 -11 -14 -11h-42q-13 0 -9 13l258 675q6 13 17 13zM317 768l62 86q9 12 20 12h52q6 0 7.5 -5.5t-2.5 -9.5l-92 -87q-10 -8 -19 -8h-21q-6 0 -8 4
t1 8z" />
    <glyph glyph-name="Acircumflex" unicode="&#xc2;" horiz-adv-x="656" 
d="M186 255h283l-140 380h-2zM305 701h46q12 0 16 -13l259 -675q4 -13 -10 -13h-41q-10 0 -15 11l-71 187h-322l-72 -187q-5 -11 -14 -11h-42q-13 0 -9 13l258 675q6 13 17 13zM401 764l-72 59l-74 -59q-10 -8 -18 -8h-29q-7 0 -8 4t4 9l91 87q8 8 18 8h30q9 0 19 -8l91 -87
q5 -5 3.5 -9t-8.5 -4h-29q-7 0 -18 8z" />
    <glyph glyph-name="Atilde" unicode="&#xc3;" horiz-adv-x="656" 
d="M186 255h283l-140 380h-2zM305 701h46q12 0 16 -13l259 -675q4 -13 -10 -13h-41q-10 0 -15 11l-71 187h-322l-72 -187q-5 -11 -14 -11h-42q-13 0 -9 13l258 675q6 13 17 13zM483 820q0 -31 -17 -50.5t-51 -19.5q-30 0 -82 20l-24 9q-44 16 -64 16q-23 0 -26 -18l-1 -12
q-1 -12 -15 -12h-17q-11 0 -11 16q0 31 16.5 50t50.5 19q22 0 82 -22l26 -10q39 -16 59 -16q25 0 29 24l1 10q1 12 16 12h16q12 0 12 -16z" />
    <glyph glyph-name="Adieresis" unicode="&#xc4;" horiz-adv-x="656" 
d="M186 255h283l-140 380h-2zM305 701h46q12 0 16 -13l259 -675q4 -13 -10 -13h-41q-10 0 -15 11l-71 187h-322l-72 -187q-5 -11 -14 -11h-42q-13 0 -9 13l258 675q6 13 17 13zM271 835v-67q0 -12 -12 -12h-42q-11 0 -11 12v67q0 13 11 13h42q12 0 12 -13zM452 835v-67
q0 -12 -13 -12h-41q-12 0 -12 12v67q0 13 12 13h41q13 0 13 -13z" />
    <glyph glyph-name="Aring" unicode="&#xc5;" horiz-adv-x="656" 
d="M230 758q0 40 26.5 65t72.5 25q45 0 72 -25t27 -65q0 -62 -56 -84l254 -661q4 -13 -10 -13h-41q-10 0 -15 11l-71 187h-322l-72 -187q-5 -11 -14 -11h-42q-13 0 -9 13l253 662q-53 22 -53 83zM186 255h283l-140 380h-2zM267 758q0 -55 62 -55q60 0 60 55q0 26 -15.5 40.5
t-44.5 14.5q-62 0 -62 -55z" />
    <glyph glyph-name="AE" unicode="&#xc6;" horiz-adv-x="857" 
d="M777 331h-278v-273h292q12 0 12 -12v-33q0 -13 -12 -13h-341q-13 0 -13 13v174h-260l-93 -176q-6 -11 -16 -11h-45q-6 0 -8.5 4t0.5 9l364 675q7 13 19 13h390q12 0 12 -12v-33q0 -13 -12 -13h-289v-256h278q13 0 13 -13v-30q0 -13 -13 -13zM207 242h229v402h-17z" />
    <glyph glyph-name="Ccedilla" unicode="&#xc7;" horiz-adv-x="597" 
d="M377 47q78 0 144 35q11 6 17 -8l13 -30q3 -8 -9 -14q-70 -40 -172 -40h-13q54 -32 54 -79q0 -69 -97 -69q-25 0 -32 3q-9 4 -9 11v20q0 8 9 8h28q55 0 55 34q0 45 -63 78q-118 19 -180 111t-62 244q0 172 79 266.5t226 94.5q103 0 169 -39q13 -6 9 -14l-12 -30
q-5 -13 -17 -7q-60 32 -141 32q-123 0 -186 -77.5t-63 -225.5q0 -149 63.5 -226.5t189.5 -77.5z" />
    <glyph glyph-name="Egrave" unicode="&#xc8;" horiz-adv-x="543" 
d="M464 331h-309v-274h322q13 0 13 -12v-32q0 -13 -13 -13h-371q-13 0 -13 13v676q0 12 12 12h369q13 0 13 -12v-32q0 -13 -13 -13h-319v-257h309q12 0 12 -13v-30q0 -13 -12 -13zM287 854l62 -86q3 -4 1 -8t-8 -4h-22q-8 0 -18 8l-92 87q-5 4 -3 9.5t9 5.5h51q11 0 20 -12z
" />
    <glyph glyph-name="Eacute" unicode="&#xc9;" horiz-adv-x="543" 
d="M464 331h-309v-274h322q13 0 13 -12v-32q0 -13 -13 -13h-371q-13 0 -13 13v676q0 12 12 12h369q13 0 13 -12v-32q0 -13 -13 -13h-319v-257h309q12 0 12 -13v-30q0 -13 -12 -13zM261 768l62 86q9 12 20 12h52q6 0 7.5 -5.5t-2.5 -9.5l-92 -87q-10 -8 -19 -8h-21q-6 0 -8 4
t1 8z" />
    <glyph glyph-name="Ecircumflex" unicode="&#xca;" horiz-adv-x="543" 
d="M464 331h-309v-274h322q13 0 13 -12v-32q0 -13 -13 -13h-371q-13 0 -13 13v676q0 12 12 12h369q13 0 13 -12v-32q0 -13 -13 -13h-319v-257h309q12 0 12 -13v-30q0 -13 -12 -13zM367 764l-72 59l-74 -59q-10 -8 -18 -8h-29q-7 0 -8 4t4 9l91 87q8 8 18 8h30q9 0 19 -8
l91 -87q5 -5 3.5 -9t-8.5 -4h-29q-7 0 -18 8z" />
    <glyph glyph-name="Edieresis" unicode="&#xcb;" horiz-adv-x="543" 
d="M464 331h-309v-274h322q13 0 13 -12v-32q0 -13 -13 -13h-371q-13 0 -13 13v676q0 12 12 12h369q13 0 13 -12v-32q0 -13 -13 -13h-319v-257h309q12 0 12 -13v-30q0 -13 -12 -13zM236 835v-67q0 -12 -12 -12h-42q-11 0 -11 12v67q0 13 11 13h42q12 0 12 -13zM417 835v-67
q0 -12 -13 -12h-41q-12 0 -12 12v67q0 13 12 13h41q13 0 13 -13z" />
    <glyph glyph-name="Igrave" unicode="&#xcc;" horiz-adv-x="262" 
d="M100 13v676q0 12 12 12h37q13 0 13 -12v-676q0 -13 -13 -13h-37q-12 0 -12 13zM88 854l62 -86q3 -4 1 -8t-8 -4h-22q-8 0 -18 8l-92 87q-5 4 -3 9.5t9 5.5h51q11 0 20 -12z" />
    <glyph glyph-name="Iacute" unicode="&#xcd;" horiz-adv-x="262" 
d="M100 13v676q0 12 12 12h37q13 0 13 -12v-676q0 -13 -13 -13h-37q-12 0 -12 13zM111 768l62 86q9 12 20 12h52q6 0 7.5 -5.5t-2.5 -9.5l-92 -87q-10 -8 -19 -8h-21q-6 0 -8 4t1 8z" />
    <glyph glyph-name="Icircumflex" unicode="&#xce;" horiz-adv-x="262" 
d="M100 13v676q0 12 12 12h37q13 0 13 -12v-676q0 -13 -13 -13h-37q-12 0 -12 13zM202 764l-72 59l-74 -59q-10 -8 -18 -8h-29q-7 0 -8 4t4 9l91 87q8 8 18 8h30q9 0 19 -8l91 -87q5 -5 3.5 -9t-8.5 -4h-29q-7 0 -18 8z" />
    <glyph glyph-name="Idieresis" unicode="&#xcf;" horiz-adv-x="262" 
d="M100 13v676q0 12 12 12h37q13 0 13 -12v-676q0 -13 -13 -13h-37q-12 0 -12 13zM72 835v-67q0 -12 -12 -12h-42q-11 0 -11 12v67q0 13 11 13h42q12 0 12 -13zM253 835v-67q0 -12 -13 -12h-41q-12 0 -12 12v67q0 13 12 13h41q13 0 13 -13z" />
    <glyph glyph-name="Eth" unicode="&#xd0;" horiz-adv-x="674" 
d="M273 0h-165q-13 0 -13 13v315h-60q-12 0 -12 11v25q0 12 12 12h60v313q0 12 12 12h165q172 0 258 -79t86 -271q0 -193 -86 -272t-257 -79zM316 328h-159v-270h116q69 0 118 13t86.5 45.5t56 90.5t18.5 144q0 166 -69 229t-211 63h-115v-267h159q11 0 11 -12v-25
q0 -11 -11 -11z" />
    <glyph glyph-name="Ntilde" unicode="&#xd1;" horiz-adv-x="699" 
d="M606 690v-677q0 -13 -13 -13h-39q-11 0 -18 10l-382 589v-586q0 -13 -12 -13h-36q-13 0 -13 13v676q0 12 13 12h38q14 0 20 -9l381 -590v587q0 12 13 12h35q13 0 13 -11zM504 820q0 -31 -17 -50.5t-51 -19.5q-30 0 -82 20l-24 9q-44 16 -64 16q-23 0 -26 -18l-1 -12
q-1 -12 -15 -12h-17q-11 0 -11 16q0 31 16.5 50t50.5 19q22 0 82 -22l26 -10q39 -16 59 -16q25 0 29 24l1 10q1 12 16 12h16q12 0 12 -16z" />
    <glyph glyph-name="Ograve" unicode="&#xd2;" horiz-adv-x="706" 
d="M353 712q144 0 219.5 -94t75.5 -267q0 -174 -75.5 -267.5t-220.5 -93.5q-143 0 -218.5 93.5t-75.5 267.5q0 173 75.5 267t219.5 94zM353 47q116 0 173.5 78t57.5 226t-57.5 226t-173.5 78q-115 0 -173 -78t-58 -226t58 -226t173 -78zM325 854l62 -86q3 -4 1 -8t-8 -4h-22
q-8 0 -18 8l-92 87q-5 4 -3 9.5t9 5.5h51q11 0 20 -12z" />
    <glyph glyph-name="Oacute" unicode="&#xd3;" horiz-adv-x="706" 
d="M353 712q144 0 219.5 -94t75.5 -267q0 -174 -75.5 -267.5t-220.5 -93.5q-143 0 -218.5 93.5t-75.5 267.5q0 173 75.5 267t219.5 94zM353 47q116 0 173.5 78t57.5 226t-57.5 226t-173.5 78q-115 0 -173 -78t-58 -226t58 -226t173 -78zM329 768l62 86q9 12 20 12h52
q6 0 7.5 -5.5t-2.5 -9.5l-92 -87q-10 -8 -19 -8h-21q-6 0 -8 4t1 8z" />
    <glyph glyph-name="Ocircumflex" unicode="&#xd4;" horiz-adv-x="706" 
d="M353 712q144 0 219.5 -94t75.5 -267q0 -174 -75.5 -267.5t-220.5 -93.5q-143 0 -218.5 93.5t-75.5 267.5q0 173 75.5 267t219.5 94zM353 47q116 0 173.5 78t57.5 226t-57.5 226t-173.5 78q-115 0 -173 -78t-58 -226t58 -226t173 -78zM425 764l-72 59l-74 -59
q-10 -8 -18 -8h-29q-7 0 -8 4t4 9l91 87q8 8 18 8h30q9 0 19 -8l91 -87q5 -5 3.5 -9t-8.5 -4h-29q-7 0 -18 8z" />
    <glyph glyph-name="Otilde" unicode="&#xd5;" horiz-adv-x="706" 
d="M353 712q144 0 219.5 -94t75.5 -267q0 -174 -75.5 -267.5t-220.5 -93.5q-143 0 -218.5 93.5t-75.5 267.5q0 173 75.5 267t219.5 94zM353 47q116 0 173.5 78t57.5 226t-57.5 226t-173.5 78q-115 0 -173 -78t-58 -226t58 -226t173 -78zM507 820q0 -31 -17 -50.5t-51 -19.5
q-30 0 -82 20l-24 9q-44 16 -64 16q-23 0 -26 -18l-1 -12q-1 -12 -15 -12h-17q-11 0 -11 16q0 31 16.5 50t50.5 19q22 0 82 -22l26 -10q39 -16 59 -16q25 0 29 24l1 10q1 12 16 12h16q12 0 12 -16z" />
    <glyph glyph-name="Odieresis" unicode="&#xd6;" horiz-adv-x="706" 
d="M353 712q144 0 219.5 -94t75.5 -267q0 -174 -75.5 -267.5t-220.5 -93.5q-143 0 -218.5 93.5t-75.5 267.5q0 173 75.5 267t219.5 94zM353 47q116 0 173.5 78t57.5 226t-57.5 226t-173.5 78q-115 0 -173 -78t-58 -226t58 -226t173 -78zM295 835v-67q0 -12 -12 -12h-42
q-11 0 -11 12v67q0 13 11 13h42q12 0 12 -13zM476 835v-67q0 -12 -13 -12h-41q-12 0 -12 12v67q0 13 12 13h41q13 0 13 -13z" />
    <glyph glyph-name="multiply" unicode="&#xd7;" horiz-adv-x="582" 
d="M452 147l-161 160l-161 -161q-8 -8 -17 0l-20 21q-8 8 -1 16l162 162l-162 161q-9 9 0 17l21 20q9 9 18 -1l160 -160l161 161q8 8 17 0l20 -20q9 -8 0 -17l-161 -161l161 -162q7 -8 0 -16l-20 -21q-7 -9 -17 1z" />
    <glyph glyph-name="Oslash" unicode="&#xd8;" horiz-adv-x="709" 
d="M354 712q139 0 214 -89l57 62q9 9 16 3l20 -17q10 -8 2 -17l-65 -72q51 -93 51 -231q0 -174 -75.5 -267.5t-219.5 -93.5q-143 0 -214 88l-59 -64q-9 -8 -16 -1l-20 18q-7 7 -1 15l66 73q-50 86 -50 232q0 173 75.5 267t218.5 94zM354 47q116 0 173.5 78t57.5 226
q0 109 -33 181l-371 -409q61 -76 173 -76zM123 351q0 -116 33 -182l371 408q-59 78 -173 78q-115 0 -173 -78t-58 -226z" />
    <glyph glyph-name="Ugrave" unicode="&#xd9;" horiz-adv-x="686" 
d="M343 -12q-129 0 -192.5 66.5t-63.5 190.5v444q0 12 13 12h36q13 0 13 -12v-440q0 -204 194 -204t194 204v440q0 12 12 12h37q12 0 12 -12v-444q0 -124 -63 -190.5t-192 -66.5zM325 854l62 -86q3 -4 1 -8t-8 -4h-22q-8 0 -18 8l-92 87q-5 4 -3 9.5t9 5.5h51q11 0 20 -12z
" />
    <glyph glyph-name="Uacute" unicode="&#xda;" horiz-adv-x="686" 
d="M343 -12q-129 0 -192.5 66.5t-63.5 190.5v444q0 12 13 12h36q13 0 13 -12v-440q0 -204 194 -204t194 204v440q0 12 12 12h37q12 0 12 -12v-444q0 -124 -63 -190.5t-192 -66.5zM299 768l62 86q9 12 20 12h52q6 0 7.5 -5.5t-2.5 -9.5l-92 -87q-10 -8 -19 -8h-21q-6 0 -8 4
t1 8z" />
    <glyph glyph-name="Ucircumflex" unicode="&#xdb;" horiz-adv-x="686" 
d="M343 -12q-129 0 -192.5 66.5t-63.5 190.5v444q0 12 13 12h36q13 0 13 -12v-440q0 -204 194 -204t194 204v440q0 12 12 12h37q12 0 12 -12v-444q0 -124 -63 -190.5t-192 -66.5zM415 764l-72 59l-74 -59q-10 -8 -18 -8h-29q-7 0 -8 4t4 9l91 87q8 8 18 8h30q9 0 19 -8
l91 -87q5 -5 3.5 -9t-8.5 -4h-29q-7 0 -18 8z" />
    <glyph glyph-name="Udieresis" unicode="&#xdc;" horiz-adv-x="686" 
d="M343 -12q-129 0 -192.5 66.5t-63.5 190.5v444q0 12 13 12h36q13 0 13 -12v-440q0 -204 194 -204t194 204v440q0 12 12 12h37q12 0 12 -12v-444q0 -124 -63 -190.5t-192 -66.5zM285 835v-67q0 -12 -12 -12h-42q-11 0 -11 12v67q0 13 11 13h42q12 0 12 -13zM466 835v-67
q0 -12 -13 -12h-41q-12 0 -12 12v67q0 13 12 13h41q13 0 13 -13z" />
    <glyph glyph-name="Yacute" unicode="&#xdd;" horiz-adv-x="625" 
d="M344 262v-249q0 -13 -13 -13h-37q-12 0 -12 13v249l-246 425q-3 5 -1 9.5t9 4.5h41q11 0 17 -11l151 -264l59 -110l60 110l151 264q5 11 17 11h41q15 0 8 -14zM288 768l62 86q9 12 20 12h52q6 0 7.5 -5.5t-2.5 -9.5l-92 -87q-10 -8 -19 -8h-21q-6 0 -8 4t1 8z" />
    <glyph glyph-name="Thorn" unicode="&#xde;" horiz-adv-x="604" 
d="M142 0h-37q-12 0 -12 13v676q0 12 13 12h36q13 0 13 -12v-71h115q141 0 207 -53.5t66 -173.5t-66 -174t-206 -54h-116v-150q0 -13 -13 -13zM155 220h116q111 0 160 39.5t49 132.5q0 91 -49.5 130t-159.5 39h-116v-341z" />
    <glyph glyph-name="germandbls" unicode="&#xdf;" horiz-adv-x="611" 
d="M298 662q-68 0 -110.5 -33.5t-42.5 -101.5v-515q0 -12 -13 -12h-37q-13 0 -13 12v521q0 89 60 134t161 45q99 0 147.5 -40.5t48.5 -103.5q0 -37 -23 -66t-50.5 -43t-50.5 -28.5t-23 -26.5q0 -10 22 -23.5t53.5 -31t62.5 -41.5t53 -64.5t22 -90.5q0 -161 -188 -161
q-59 0 -102 10q-8 3 -8 10v30q0 12 13 11q60 -10 94 -10q51 0 88.5 27.5t37.5 90.5q0 42 -21.5 75.5t-52.5 54.5t-62.5 38t-53 35.5t-21.5 38.5q0 22 23 41.5t50.5 33t50.5 37t23 52.5q0 39 -33 67t-105 28z" />
    <glyph glyph-name="agrave" unicode="&#xe0;" horiz-adv-x="545" 
d="M468 344v-332q0 -12 -12 -12h-32q-11 0 -11 12v83q-51 -104 -198 -104q-82 0 -127 39t-45 105q0 35 12 61.5t37 44.5t54.5 29.5t75 18.5t88 10t101.5 4v39q0 68 -32.5 99t-108.5 31q-83 0 -164 -34q-12 -5 -15 7l-9 29q-3 9 7 14q85 37 185 37q102 0 148 -45t46 -136z
M411 198v58q-54 -2 -84 -3.5t-72 -6t-65 -12.5t-46.5 -20.5t-33.5 -31.5t-10 -45q0 -43 31.5 -70t92.5 -27q89 0 138 45t49 113zM250 687l62 -90q3 -4 1.5 -8t-7.5 -4h-21q-9 0 -19 8l-93 89q-5 4 -3.5 9.5t8.5 5.5h52q12 0 20 -10z" />
    <glyph glyph-name="aacute" unicode="&#xe1;" horiz-adv-x="545" 
d="M468 344v-332q0 -12 -12 -12h-32q-11 0 -11 12v83q-51 -104 -198 -104q-82 0 -127 39t-45 105q0 35 12 61.5t37 44.5t54.5 29.5t75 18.5t88 10t101.5 4v39q0 68 -32.5 99t-108.5 31q-83 0 -164 -34q-12 -5 -15 7l-9 29q-3 9 7 14q85 37 185 37q102 0 148 -45t46 -136z
M411 198v58q-54 -2 -84 -3.5t-72 -6t-65 -12.5t-46.5 -20.5t-33.5 -31.5t-10 -45q0 -43 31.5 -70t92.5 -27q89 0 138 45t49 113zM231 597l62 90q7 10 20 10h52q7 0 8.5 -5.5t-3.5 -9.5l-93 -89q-10 -8 -19 -8h-20q-6 0 -8 4t1 8z" />
    <glyph glyph-name="acircumflex" unicode="&#xe2;" horiz-adv-x="545" 
d="M468 344v-332q0 -12 -12 -12h-32q-11 0 -11 12v83q-51 -104 -198 -104q-82 0 -127 39t-45 105q0 35 12 61.5t37 44.5t54.5 29.5t75 18.5t88 10t101.5 4v39q0 68 -32.5 99t-108.5 31q-83 0 -164 -34q-12 -5 -15 7l-9 29q-3 9 7 14q85 37 185 37q102 0 148 -45t46 -136z
M411 198v58q-54 -2 -84 -3.5t-72 -6t-65 -12.5t-46.5 -20.5t-33.5 -31.5t-10 -45q0 -43 31.5 -70t92.5 -27q89 0 138 45t49 113zM348 593l-76 65l-77 -65q-9 -8 -18 -8h-28q-7 0 -8.5 4.5t3.5 8.5l94 91q8 8 18 8h30q11 0 19 -8l94 -91q5 -4 3.5 -8.5t-8.5 -4.5h-29
q-8 0 -17 8z" />
    <glyph glyph-name="atilde" unicode="&#xe3;" horiz-adv-x="545" 
d="M468 344v-332q0 -12 -12 -12h-32q-11 0 -11 12v83q-51 -104 -198 -104q-82 0 -127 39t-45 105q0 35 12 61.5t37 44.5t54.5 29.5t75 18.5t88 10t101.5 4v39q0 68 -32.5 99t-108.5 31q-83 0 -164 -34q-12 -5 -15 7l-9 29q-3 9 7 14q85 37 185 37q102 0 148 -45t46 -136z
M411 198v58q-54 -2 -84 -3.5t-72 -6t-65 -12.5t-46.5 -20.5t-33.5 -31.5t-10 -45q0 -43 31.5 -70t92.5 -27q89 0 138 45t49 113zM412 649q0 -29 -15.5 -46.5t-45.5 -17.5q-35 0 -79 19l-22 9q-35 14 -53 14q-21 0 -25 -17l-3 -12q-3 -11 -15 -11h-17q-11 0 -11 15
q0 29 15.5 46.5t45.5 17.5q28 0 79 -20l24 -9q38 -15 53 -15q21 0 25 21l2 10q1 11 14 11h18q10 0 10 -15z" />
    <glyph glyph-name="adieresis" unicode="&#xe4;" horiz-adv-x="545" 
d="M468 344v-332q0 -12 -12 -12h-32q-11 0 -11 12v83q-51 -104 -198 -104q-82 0 -127 39t-45 105q0 35 12 61.5t37 44.5t54.5 29.5t75 18.5t88 10t101.5 4v39q0 68 -32.5 99t-108.5 31q-83 0 -164 -34q-12 -5 -15 7l-9 29q-3 9 7 14q85 37 185 37q102 0 148 -45t46 -136z
M411 198v58q-54 -2 -84 -3.5t-72 -6t-65 -12.5t-46.5 -20.5t-33.5 -31.5t-10 -45q0 -43 31.5 -70t92.5 -27q89 0 138 45t49 113zM213 669v-72q0 -12 -11 -12h-39q-12 0 -12 12v72q0 12 12 12h39q11 0 11 -12zM387 669v-72q0 -12 -11 -12h-39q-12 0 -12 12v72q0 12 12 12h39
q11 0 11 -12z" />
    <glyph glyph-name="aring" unicode="&#xe5;" horiz-adv-x="545" 
d="M468 344v-332q0 -12 -12 -12h-32q-11 0 -11 12v83q-51 -104 -198 -104q-82 0 -127 39t-45 105q0 35 12 61.5t37 44.5t54.5 29.5t75 18.5t88 10t101.5 4v39q0 68 -32.5 99t-108.5 31q-83 0 -164 -34q-12 -5 -15 7l-9 29q-3 9 7 14q85 37 185 37q102 0 148 -45t46 -136z
M411 198v58q-54 -2 -84 -3.5t-72 -6t-65 -12.5t-46.5 -20.5t-33.5 -31.5t-10 -45q0 -43 31.5 -70t92.5 -27q89 0 138 45t49 113zM270 612q29 0 45 14.5t16 41.5q0 26 -16.5 40.5t-45.5 14.5q-61 0 -61 -55q0 -56 62 -56zM269 758q45 0 72.5 -25t27.5 -65t-27 -65t-72 -25
q-46 0 -73 25t-27 65t27 65t72 25z" />
    <glyph glyph-name="ae" unicode="&#xe6;" horiz-adv-x="898" 
d="M656 39q68 0 134 32q11 5 16 -7l11 -27q3 -7 -8 -14q-25 -15 -69 -25t-86 -10q-79 0 -135.5 37t-76.5 98q-48 -132 -220 -132q-90 0 -134.5 39t-44.5 106q0 31 9.5 54.5t24.5 39t41.5 26t53.5 16.5t67 9t75.5 4t85.5 2h9v65q-1 61 -33.5 90.5t-105.5 29.5q-84 0 -166 -34
q-12 -5 -15 7l-11 29q-4 9 8 14q76 37 183 37q162 0 181 -118q20 55 69 86.5t117 31.5q98 0 153 -65t55 -169v-46q0 -12 -13 -12h-365q5 -88 56 -141t134 -53zM632 474q-75 0 -119 -51t-48 -140h322v9q0 82 -39 132t-116 50zM410 199v40q-162 -5 -188 -8q-101 -12 -118 -65
q-4 -13 -4 -29q0 -95 126 -95q89 0 136.5 44.5t47.5 112.5z" />
    <glyph glyph-name="ccedilla" unicode="&#xe7;" horiz-adv-x="490" 
d="M54 258q0 127 64 197t174 70q86 0 140 -31q12 -7 8 -15l-12 -28q-4 -12 -17 -6q-49 26 -113 26q-88 0 -136 -54t-48 -159t48 -160t133 -55q71 0 123 30q11 5 15 -6l12 -29q3 -8 -9 -14q-57 -34 -140 -34h-8q52 -29 52 -73q0 -64 -92 -64q-26 0 -33 3q-8 3 -8 10v19
q0 7 9 7h26q54 0 54 32q0 42 -65 73q-83 19 -130 86.5t-47 174.5z" />
    <glyph glyph-name="egrave" unicode="&#xe8;" horiz-adv-x="556" 
d="M309 39q77 0 137 33q11 6 17 -7l10 -26q3 -9 -8 -14q-70 -37 -159 -37q-119 0 -185.5 71.5t-66.5 196.5q0 128 61 198.5t169 70.5q105 0 162 -66.5t57 -175.5v-41q0 -12 -13 -12h-378q4 -88 55.5 -139.5t141.5 -51.5zM284 474q-164 0 -172 -195h334v8q0 85 -41 136
t-121 51zM256 687l62 -90q3 -4 1.5 -8t-7.5 -4h-21q-9 0 -19 8l-93 89q-5 4 -3.5 9.5t8.5 5.5h52q12 0 20 -10z" />
    <glyph glyph-name="eacute" unicode="&#xe9;" horiz-adv-x="556" 
d="M309 39q77 0 137 33q11 6 17 -7l10 -26q3 -9 -8 -14q-70 -37 -159 -37q-119 0 -185.5 71.5t-66.5 196.5q0 128 61 198.5t169 70.5q105 0 162 -66.5t57 -175.5v-41q0 -12 -13 -12h-378q4 -88 55.5 -139.5t141.5 -51.5zM284 474q-164 0 -172 -195h334v8q0 85 -41 136
t-121 51zM244 597l62 90q7 10 20 10h52q7 0 8.5 -5.5t-3.5 -9.5l-93 -89q-10 -8 -19 -8h-20q-6 0 -8 4t1 8z" />
    <glyph glyph-name="ecircumflex" unicode="&#xea;" horiz-adv-x="556" 
d="M309 39q77 0 137 33q11 6 17 -7l10 -26q3 -9 -8 -14q-70 -37 -159 -37q-119 0 -185.5 71.5t-66.5 196.5q0 128 61 198.5t169 70.5q105 0 162 -66.5t57 -175.5v-41q0 -12 -13 -12h-378q4 -88 55.5 -139.5t141.5 -51.5zM284 474q-164 0 -172 -195h334v8q0 85 -41 136
t-121 51zM360 593l-76 65l-77 -65q-9 -8 -18 -8h-28q-7 0 -8.5 4.5t3.5 8.5l94 91q8 8 18 8h30q11 0 19 -8l94 -91q5 -4 3.5 -8.5t-8.5 -4.5h-29q-8 0 -17 8z" />
    <glyph glyph-name="edieresis" unicode="&#xeb;" horiz-adv-x="556" 
d="M309 39q77 0 137 33q11 6 17 -7l10 -26q3 -9 -8 -14q-70 -37 -159 -37q-119 0 -185.5 71.5t-66.5 196.5q0 128 61 198.5t169 70.5q105 0 162 -66.5t57 -175.5v-41q0 -12 -13 -12h-378q4 -88 55.5 -139.5t141.5 -51.5zM284 474q-164 0 -172 -195h334v8q0 85 -41 136
t-121 51zM227 669v-72q0 -12 -11 -12h-39q-12 0 -12 12v72q0 12 12 12h39q11 0 11 -12zM401 669v-72q0 -12 -11 -12h-39q-12 0 -12 12v72q0 12 12 12h39q11 0 11 -12z" />
    <glyph glyph-name="igrave" unicode="&#xec;" horiz-adv-x="227" 
d="M143 500v-488q0 -12 -12 -12h-34q-12 0 -12 12v488q0 13 12 13h34q12 0 12 -13zM74 687l62 -90q3 -4 1.5 -8t-7.5 -4h-21q-9 0 -19 8l-93 89q-5 4 -3.5 9.5t8.5 5.5h52q12 0 20 -10z" />
    <glyph glyph-name="iacute" unicode="&#xed;" horiz-adv-x="227" 
d="M143 500v-488q0 -12 -12 -12h-34q-12 0 -12 12v488q0 13 12 13h34q12 0 12 -13zM92 597l62 90q7 10 20 10h52q7 0 8.5 -5.5t-3.5 -9.5l-93 -89q-10 -8 -19 -8h-20q-6 0 -8 4t1 8z" />
    <glyph glyph-name="icircumflex" unicode="&#xee;" horiz-adv-x="227" 
d="M143 500v-488q0 -12 -12 -12h-34q-12 0 -12 12v488q0 13 12 13h34q12 0 12 -13zM191 593l-76 65l-77 -65q-9 -8 -18 -8h-28q-7 0 -8.5 4.5t3.5 8.5l94 91q8 8 18 8h30q11 0 19 -8l94 -91q5 -4 3.5 -8.5t-8.5 -4.5h-29q-8 0 -17 8z" />
    <glyph glyph-name="idieresis" unicode="&#xef;" horiz-adv-x="227" 
d="M143 500v-488q0 -12 -12 -12h-34q-12 0 -12 12v488q0 13 12 13h34q12 0 12 -13zM58 669v-72q0 -12 -11 -12h-39q-12 0 -12 12v72q0 12 12 12h39q11 0 11 -12zM232 669v-72q0 -12 -11 -12h-39q-12 0 -12 12v72q0 12 12 12h39q11 0 11 -12z" />
    <glyph glyph-name="eth" unicode="&#xf0;" horiz-adv-x="582" 
d="M482 591h-67q114 -153 114 -334q0 -128 -63 -197.5t-175 -69.5t-174.5 70t-62.5 197t62.5 197t172.5 70q100 0 146 -56q-24 61 -76 123h-150q-12 0 -12 11v16q0 11 12 11h119q-26 28 -69 57q-7 5 -6.5 10t8.5 5h36q14 0 22 -7q34 -25 69 -65h94q11 0 11 -11v-16
q0 -11 -11 -11zM291 42q86 0 132 54.5t46 160.5t-46 161t-132 55t-131.5 -55t-45.5 -161t45.5 -160.5t131.5 -54.5z" />
    <glyph glyph-name="ntilde" unicode="&#xf1;" horiz-adv-x="583" 
d="M505 342v-330q0 -12 -12 -12h-34q-12 0 -12 12v323q0 135 -137 135q-76 0 -123 -44t-47 -114v-300q0 -12 -12 -12h-35q-11 0 -11 12v488q0 13 11 13h34q12 0 12 -12l1 -78q48 102 183 102q90 0 136 -48.5t46 -134.5zM434 649q0 -29 -15.5 -46.5t-45.5 -17.5q-35 0 -79 19
l-22 9q-35 14 -53 14q-21 0 -25 -17l-3 -12q-3 -11 -15 -11h-17q-11 0 -11 15q0 29 15.5 46.5t45.5 17.5q28 0 79 -20l24 -9q37 -15 53 -15q21 0 25 21l2 10q1 11 14 11h18q10 0 10 -15z" />
    <glyph glyph-name="ograve" unicode="&#xf2;" horiz-adv-x="583" 
d="M291 -10q112 0 175 70t63 197q0 128 -63 198t-175 70t-174.5 -70t-62.5 -198q0 -127 62.5 -197t174.5 -70zM291 42q-86 0 -131.5 54.5t-45.5 160.5t45.5 161t131.5 55t132 -55t46 -161t-46 -160.5t-132 -54.5zM266 687l62 -90q3 -4 1.5 -8t-7.5 -4h-21q-9 0 -19 8l-93 89
q-5 4 -3.5 9.5t8.5 5.5h52q12 0 20 -10z" />
    <glyph glyph-name="oacute" unicode="&#xf3;" horiz-adv-x="583" 
d="M291 -10q112 0 175 70t63 197q0 128 -63 198t-175 70t-174.5 -70t-62.5 -198q0 -127 62.5 -197t174.5 -70zM291 42q-86 0 -131.5 54.5t-45.5 160.5t45.5 161t131.5 55t132 -55t46 -161t-46 -160.5t-132 -54.5zM254 597l62 90q7 10 20 10h52q7 0 8.5 -5.5t-3.5 -9.5
l-93 -89q-10 -8 -19 -8h-20q-6 0 -8 4t1 8z" />
    <glyph glyph-name="ocircumflex" unicode="&#xf4;" horiz-adv-x="583" 
d="M291 -10q112 0 175 70t63 197q0 128 -63 198t-175 70t-174.5 -70t-62.5 -198q0 -127 62.5 -197t174.5 -70zM291 42q-86 0 -131.5 54.5t-45.5 160.5t45.5 161t131.5 55t132 -55t46 -161t-46 -160.5t-132 -54.5zM368 593l-76 65l-77 -65q-9 -8 -18 -8h-28q-7 0 -8.5 4.5
t3.5 8.5l94 91q8 8 18 8h30q11 0 19 -8l94 -91q5 -4 3.5 -8.5t-8.5 -4.5h-29q-8 0 -17 8z" />
    <glyph glyph-name="otilde" unicode="&#xf5;" horiz-adv-x="583" 
d="M291 -10q-112 0 -174.5 70t-62.5 197q0 128 62.5 198t174.5 70t175 -70t63 -198q0 -127 -63 -197t-175 -70zM291 42q86 0 132 54.5t46 160.5t-46 161t-132 55t-131.5 -55t-45.5 -161t45.5 -160.5t131.5 -54.5zM434 649q0 -29 -15.5 -46.5t-45.5 -17.5q-35 0 -79 19l-22 9
q-35 14 -53 14q-21 0 -25 -17l-3 -12q-3 -11 -15 -11h-17q-11 0 -11 15q0 29 15.5 46.5t45.5 17.5q28 0 79 -20l24 -9q37 -15 53 -15q21 0 25 21l2 10q1 11 14 11h18q10 0 10 -15z" />
    <glyph glyph-name="odieresis" unicode="&#xf6;" horiz-adv-x="583" 
d="M291 -10q112 0 175 70t63 197q0 128 -63 198t-175 70t-174.5 -70t-62.5 -198q0 -127 62.5 -197t174.5 -70zM291 42q-86 0 -131.5 54.5t-45.5 160.5t45.5 161t131.5 55t132 -55t46 -161t-46 -160.5t-132 -54.5zM235 669v-72q0 -12 -11 -12h-39q-12 0 -12 12v72q0 12 12 12
h39q11 0 11 -12zM409 669v-72q0 -12 -11 -12h-39q-12 0 -12 12v72q0 12 12 12h39q11 0 11 -12z" />
    <glyph glyph-name="divide" unicode="&#xf7;" horiz-adv-x="582" 
d="M505 320h-429q-11 0 -11 12v27q0 12 12 12h428q12 0 12 -12v-27q0 -12 -12 -12zM253 139v67q0 13 12 13h53q12 0 12 -13v-67q0 -13 -12 -13h-53q-12 0 -12 13zM253 484v68q0 12 12 12h53q12 0 12 -12v-68q0 -12 -12 -12h-53q-12 0 -12 12z" />
    <glyph glyph-name="oslash" unicode="&#xf8;" horiz-adv-x="587" 
d="M293 -10q-99 0 -158 54l-36 -41q-9 -9 -18 -2l-13 12q-10 9 -3 16l41 47q-50 64 -50 181q0 128 62.5 198t174.5 70q101 0 160 -56l34 39q9 10 18 3l14 -11q10 -7 2 -15l-40 -47q50 -67 50 -181q0 -127 -63 -197t-175 -70zM293 473q-86 0 -131.5 -55t-45.5 -161
q0 -91 30 -136l270 306q-44 46 -123 46zM293 42q86 0 132 54.5t46 160.5q0 85 -30 135l-269 -306q46 -44 121 -44z" />
    <glyph glyph-name="ugrave" unicode="&#xf9;" horiz-adv-x="575" 
d="M75 176v324q0 13 12 13h34q12 0 12 -13v-315q0 -141 135 -141q73 0 119.5 43t46.5 113v300q0 13 12 13h35q11 0 11 -13v-488q0 -12 -11 -12h-35q-12 0 -12 12v79q-18 -41 -61 -71t-117 -30q-91 0 -136 49t-45 137zM265 687l62 -90q3 -4 1.5 -8t-7.5 -4h-21q-9 0 -19 8
l-93 89q-5 4 -3.5 9.5t8.5 5.5h52q12 0 20 -10z" />
    <glyph glyph-name="uacute" unicode="&#xfa;" horiz-adv-x="575" 
d="M75 176v324q0 13 12 13h34q12 0 12 -13v-315q0 -141 135 -141q73 0 119.5 43t46.5 113v300q0 13 12 13h35q11 0 11 -13v-488q0 -12 -11 -12h-35q-12 0 -12 12v79q-18 -41 -61 -71t-117 -30q-91 0 -136 49t-45 137zM247 597l62 90q7 10 20 10h52q7 0 8.5 -5.5t-3.5 -9.5
l-93 -89q-10 -8 -19 -8h-20q-6 0 -8 4t1 8z" />
    <glyph glyph-name="ucircumflex" unicode="&#xfb;" horiz-adv-x="575" 
d="M75 176v324q0 13 12 13h34q12 0 12 -13v-315q0 -141 135 -141q73 0 119.5 43t46.5 113v300q0 13 12 13h35q11 0 11 -13v-488q0 -12 -11 -12h-35q-12 0 -12 12v79q-18 -41 -61 -71t-117 -30q-91 0 -136 49t-45 137zM364 593l-76 65l-77 -65q-9 -8 -18 -8h-28
q-7 0 -8.5 4.5t3.5 8.5l94 91q8 8 18 8h30q11 0 19 -8l94 -91q5 -4 3.5 -8.5t-8.5 -4.5h-29q-8 0 -17 8z" />
    <glyph glyph-name="udieresis" unicode="&#xfc;" horiz-adv-x="575" 
d="M75 176v324q0 13 12 13h34q12 0 12 -13v-315q0 -141 135 -141q73 0 119.5 43t46.5 113v300q0 13 12 13h35q11 0 11 -13v-488q0 -12 -11 -12h-35q-12 0 -12 12v79q-18 -41 -61 -71t-117 -30q-91 0 -136 49t-45 137zM231 669v-72q0 -12 -11 -12h-39q-12 0 -12 12v72
q0 12 12 12h39q11 0 11 -12zM405 669v-72q0 -12 -11 -12h-39q-12 0 -12 12v72q0 12 12 12h39q11 0 11 -12z" />
    <glyph glyph-name="yacute" unicode="&#xfd;" horiz-adv-x="486" 
d="M458 499l-167 -479q-24 -73 -57 -103.5t-95 -30.5q-37 0 -67 10q-12 4 -9 12l8 29q3 10 14 8q38 -7 51 -7q47 0 68.5 30.5t8.5 64.5l-182 466q-5 14 8 14h37q9 0 14 -12l105 -274l58 -164h2l52 164l92 274q3 12 13 12h37q14 0 9 -14zM209 597l62 90q7 10 20 10h52
q7 0 8.5 -5.5t-3.5 -9.5l-93 -89q-10 -8 -19 -8h-20q-6 0 -8 4t1 8z" />
    <glyph glyph-name="thorn" unicode="&#xfe;" horiz-adv-x="613" 
d="M97 701h35q12 0 12 -11v-278q22 54 72 83.5t118 29.5q106 0 165.5 -69t59.5 -199t-59.5 -198.5t-165.5 -68.5q-146 0 -190 111v-199q0 -12 -12 -12h-35q-12 0 -12 12v788q0 11 12 11zM144 257q0 -105 46.5 -160t133.5 -55q175 0 175 215q0 216 -175 216
q-87 0 -133.5 -55.5t-46.5 -160.5z" />
    <glyph glyph-name="ydieresis" unicode="&#xff;" horiz-adv-x="486" 
d="M458 499l-167 -479q-24 -73 -57 -103.5t-95 -30.5q-37 0 -67 10q-12 4 -9 12l8 29q3 10 14 8q38 -7 51 -7q47 0 68.5 30.5t8.5 64.5l-182 466q-5 14 8 14h37q9 0 14 -12l105 -274l58 -164h2l52 164l92 274q3 12 13 12h37q14 0 9 -14zM187 669v-72q0 -12 -11 -12h-39
q-12 0 -12 12v72q0 12 12 12h39q11 0 11 -12zM361 669v-72q0 -12 -11 -12h-39q-12 0 -12 12v72q0 12 12 12h39q11 0 11 -12z" />
    <glyph glyph-name="Amacron" unicode="&#x100;" horiz-adv-x="656" 
d="M186 255h283l-140 380h-2zM305 701h46q12 0 16 -13l259 -675q4 -13 -10 -13h-41q-10 0 -15 11l-71 187h-322l-72 -187q-5 -11 -14 -11h-42q-13 0 -9 13l258 675q6 13 17 13zM463 769h-269q-12 0 -12 11v23q0 11 12 11h269q12 0 12 -11v-23q0 -11 -12 -11z" />
    <glyph glyph-name="amacron" unicode="&#x101;" horiz-adv-x="545" 
d="M468 344v-332q0 -12 -12 -12h-32q-11 0 -11 12v83q-51 -104 -198 -104q-82 0 -127 39t-45 105q0 35 12 61.5t37 44.5t54.5 29.5t75 18.5t88 10t101.5 4v39q0 68 -32.5 99t-108.5 31q-83 0 -164 -34q-12 -5 -15 7l-9 29q-3 9 7 14q85 37 185 37q102 0 148 -45t46 -136z
M411 198v58q-54 -2 -84 -3.5t-72 -6t-65 -12.5t-46.5 -20.5t-33.5 -31.5t-10 -45q0 -43 31.5 -70t92.5 -27q89 0 138 45t49 113zM403 593h-268q-11 0 -11 11v20q0 12 11 12h268q12 0 12 -12v-20q0 -11 -12 -11z" />
    <glyph glyph-name="Abreve" unicode="&#x102;" horiz-adv-x="656" 
d="M186 255h283l-140 380h-2zM305 701h46q12 0 16 -13l259 -675q4 -13 -10 -13h-41q-10 0 -15 11l-71 187h-322l-72 -187q-5 -11 -14 -11h-42q-13 0 -9 13l258 675q6 13 17 13zM329 754q-63 0 -95.5 29t-33.5 70q0 10 9 10h21q9 0 12 -9q7 -28 26 -43t61 -15q73 0 87 58
q1 9 11 9h20q10 0 10 -10q-1 -41 -33.5 -70t-94.5 -29z" />
    <glyph glyph-name="abreve" unicode="&#x103;" horiz-adv-x="545" 
d="M468 344v-332q0 -12 -12 -12h-32q-11 0 -11 12v83q-51 -104 -198 -104q-82 0 -127 39t-45 105q0 35 12 61.5t37 44.5t54.5 29.5t75 18.5t88 10t101.5 4v39q0 68 -32.5 99t-108.5 31q-83 0 -164 -34q-12 -5 -15 7l-9 29q-3 9 7 14q85 37 185 37q102 0 148 -45t46 -136z
M411 198v58q-54 -2 -84 -3.5t-72 -6t-65 -12.5t-46.5 -20.5t-33.5 -31.5t-10 -45q0 -43 31.5 -70t92.5 -27q89 0 138 45t49 113zM270 582q-65 0 -96.5 31t-32.5 73q0 10 9 10h21q8 0 11 -9q7 -30 25.5 -47t62.5 -17q43 0 61.5 17t25.5 47q1 9 11 9h20q10 0 10 -10
q-1 -42 -32.5 -73t-95.5 -31z" />
    <glyph glyph-name="Aogonek" unicode="&#x104;" horiz-adv-x="656" 
d="M305 701h46q12 0 16 -13l259 -675q4 -13 -10 -13h-9q-73 -33 -73 -82q0 -32 54 -32q16 0 34 5q8 2 9 -3l5 -22q3 -8 -4 -11q-26 -12 -57 -12q-38 0 -62.5 16t-24.5 49q0 26 22 53t55 42q-4 4 -5 8l-71 187h-322l-72 -187q-5 -11 -14 -11h-42q-13 0 -9 13l258 675
q6 13 17 13zM186 255h283l-140 380h-2z" />
    <glyph glyph-name="aogonek" unicode="&#x105;" horiz-adv-x="545" 
d="M468 344v-332q0 -12 -12 -12h-10q-68 -30 -68 -75q0 -32 50 -32q13 0 33 4q9 2 10 -4l5 -20q1 -6 -4 -9q-18 -11 -55 -11q-83 0 -83 61q0 27 22.5 52t57.5 39q-1 2 -1 7v83q-51 -104 -198 -104q-82 0 -127 39t-45 105q0 35 12 61.5t37 44.5t54.5 29.5t75 18.5t88 10
t101.5 4v39q0 68 -32.5 99t-108.5 31q-83 0 -164 -34q-12 -5 -15 7l-9 29q-3 9 7 14q85 37 185 37q102 0 148 -45t46 -136zM411 198v58q-54 -2 -84 -3.5t-72 -6t-65 -12.5t-46.5 -20.5t-33.5 -31.5t-10 -45q0 -43 31.5 -70t92.5 -27q89 0 138 45t49 113z" />
    <glyph glyph-name="Cacute" unicode="&#x106;" horiz-adv-x="597" 
d="M377 47q78 0 144 35q11 6 17 -8l13 -30q3 -8 -9 -14q-70 -40 -172 -40q-150 0 -230 94t-80 267q0 172 79 266.5t226 94.5q103 0 169 -39q13 -6 9 -14l-12 -30q-5 -13 -17 -7q-60 32 -141 32q-123 0 -186 -77.5t-63 -225.5q0 -149 63.5 -226.5t189.5 -77.5zM309 768l62 86
q9 12 20 12h52q6 0 7.5 -5.5t-2.5 -9.5l-92 -87q-10 -8 -19 -8h-21q-6 0 -8 4t1 8z" />
    <glyph glyph-name="cacute" unicode="&#x107;" horiz-adv-x="490" 
d="M54 258q0 127 64 197t174 70q86 0 140 -31q12 -7 8 -15l-12 -28q-4 -12 -17 -6q-49 26 -113 26q-88 0 -136 -54t-48 -159t48 -160t133 -55q71 0 123 30q11 5 15 -6l12 -29q3 -8 -9 -14q-57 -34 -140 -34q-112 0 -177 70.5t-65 197.5zM260 597l62 90q7 10 20 10h52
q7 0 8.5 -5.5t-3.5 -9.5l-93 -89q-10 -8 -19 -8h-20q-6 0 -8 4t1 8z" />
    <glyph glyph-name="Ccircumflex" unicode="&#x108;" horiz-adv-x="597" 
d="M377 47q78 0 144 35q11 6 17 -8l13 -30q3 -8 -9 -14q-70 -40 -172 -40q-150 0 -230 94t-80 267q0 172 79 266.5t226 94.5q103 0 169 -39q13 -6 9 -14l-12 -30q-5 -13 -17 -7q-60 32 -141 32q-123 0 -186 -77.5t-63 -225.5q0 -149 63.5 -226.5t189.5 -77.5zM428 764
l-72 59l-74 -59q-10 -8 -18 -8h-29q-7 0 -8 4t4 9l91 87q8 8 18 8h30q9 0 19 -8l91 -87q5 -5 3.5 -9t-8.5 -4h-29q-7 0 -18 8z" />
    <glyph glyph-name="ccircumflex" unicode="&#x109;" horiz-adv-x="490" 
d="M54 258q0 127 64 197t174 70q86 0 140 -31q12 -7 8 -15l-12 -28q-4 -12 -17 -6q-49 26 -113 26q-88 0 -136 -54t-48 -159t48 -160t133 -55q71 0 123 30q11 5 15 -6l12 -29q3 -8 -9 -14q-57 -34 -140 -34q-112 0 -177 70.5t-65 197.5zM353 593l-76 65l-77 -65
q-9 -8 -18 -8h-28q-7 0 -8.5 4.5t3.5 8.5l94 91q8 8 18 8h30q11 0 19 -8l94 -91q5 -4 3.5 -8.5t-8.5 -4.5h-29q-8 0 -17 8z" />
    <glyph glyph-name="Cdotaccent" unicode="&#x10a;" horiz-adv-x="597" 
d="M377 47q78 0 144 35q11 6 17 -8l13 -30q3 -8 -9 -14q-70 -40 -172 -40q-150 0 -230 94t-80 267q0 172 79 266.5t226 94.5q103 0 169 -39q13 -6 9 -14l-12 -30q-5 -13 -17 -7q-60 32 -141 32q-123 0 -186 -77.5t-63 -225.5q0 -149 63.5 -226.5t189.5 -77.5zM388 841v-73
q0 -12 -11 -12h-42q-13 0 -13 12v73q0 12 13 12h42q11 0 11 -12z" />
    <glyph glyph-name="cdotaccent" unicode="&#x10b;" horiz-adv-x="490" 
d="M54 258q0 127 64 197t174 70q86 0 140 -31q12 -7 8 -15l-12 -28q-4 -12 -17 -6q-49 26 -113 26q-88 0 -136 -54t-48 -159t48 -160t133 -55q71 0 123 30q11 5 15 -6l12 -29q3 -8 -9 -14q-57 -34 -140 -34q-112 0 -177 70.5t-65 197.5zM318 670v-73q0 -12 -11 -12h-42
q-13 0 -13 12v73q0 13 13 13h42q11 0 11 -13z" />
    <glyph glyph-name="Ccaron" unicode="&#x10c;" horiz-adv-x="597" 
d="M377 47q78 0 144 35q11 6 17 -8l13 -30q3 -8 -9 -14q-70 -40 -172 -40q-150 0 -230 94t-80 267q0 172 79 266.5t226 94.5q103 0 169 -39q13 -6 9 -14l-12 -30q-5 -13 -17 -7q-60 32 -141 32q-123 0 -186 -77.5t-63 -225.5q0 -149 63.5 -226.5t189.5 -77.5zM356 796l72 59
q10 9 17 9h29q7 0 8.5 -4.5t-2.5 -8.5l-91 -88q-7 -7 -19 -7h-30q-10 0 -18 7l-91 88q-5 4 -3 8.5t9 4.5h28q4 0 17 -9z" />
    <glyph glyph-name="ccaron" unicode="&#x10d;" horiz-adv-x="490" 
d="M54 258q0 127 64 197t174 70q86 0 140 -31q12 -7 8 -15l-12 -28q-4 -12 -17 -6q-49 26 -113 26q-88 0 -136 -54t-48 -159t48 -160t133 -55q71 0 123 30q11 5 15 -6l12 -29q3 -8 -9 -14q-57 -34 -140 -34q-112 0 -177 70.5t-65 197.5zM283 625l76 64q9 8 17 8h29
q6 0 7.5 -4t-2.5 -8l-94 -92q-10 -8 -19 -8h-30q-10 0 -18 8l-94 92q-5 4 -3.5 8t8.5 4h28q9 0 18 -8z" />
    <glyph glyph-name="Dcaron" unicode="&#x10e;" horiz-adv-x="672" 
d="M271 0h-165q-13 0 -13 13v676q0 12 12 12h165q171 0 257.5 -78t86.5 -265q0 -198 -86 -278t-257 -80zM270 643h-115v-585h116q69 0 118 13.5t86.5 46t56 92t18.5 148.5q0 161 -69 223t-211 62zM335 796l72 59q11 9 17 9h29q7 0 8.5 -4.5t-2.5 -8.5l-91 -88q-7 -7 -19 -7
h-30q-10 0 -18 7l-91 88q-5 4 -3 8.5t9 4.5h28q4 0 17 -9z" />
    <glyph glyph-name="dcaron" unicode="&#x10f;" horiz-adv-x="686" 
d="M470 257q0 104 -47.5 160t-133.5 56q-175 0 -175 -216q0 -215 175 -215q86 0 133.5 55.5t47.5 159.5zM470 12v89q-46 -111 -191 -111q-106 0 -165.5 68.5t-59.5 198.5t59.5 199t165.5 69q68 0 118 -29.5t72 -83.5v278q0 11 12 11h34q13 0 13 -11v-678q0 -12 -13 -12h-34
q-11 0 -11 12zM685 612l-35 -96q-3 -9 -12 -9h-16q-9 0 -7 12l24 94h-20q-13 0 -13 12v68q0 12 13 12h56q12 0 12 -12v-64q0 -10 -2 -17z" />
    <glyph glyph-name="Dcroat" unicode="&#x110;" horiz-adv-x="674" 
d="M273 0h-165q-13 0 -13 13v315h-60q-12 0 -12 11v25q0 12 12 12h60v313q0 12 12 12h165q172 0 258 -79t86 -271q0 -193 -86 -272t-257 -79zM316 328h-159v-270h116q69 0 118 13t86.5 45.5t56 90.5t18.5 144q0 166 -69 229t-211 63h-115v-267h159q11 0 11 -12v-25
q0 -11 -11 -11z" />
    <glyph glyph-name="dcroat" unicode="&#x111;" horiz-adv-x="614" 
d="M470 12v89q-46 -111 -191 -111q-106 0 -165.5 68.5t-59.5 198.5t59.5 199t165.5 69q68 0 118 -29.5t72 -83.5v180h-158q-11 0 -11 11v16q0 12 11 12h158v59q0 11 12 11h34q13 0 13 -11v-59h56q11 0 11 -12v-16q0 -11 -11 -11h-56v-580q0 -12 -13 -12h-34q-11 0 -11 12z
M470 257q0 104 -47.5 160t-133.5 56q-175 0 -175 -216q0 -215 175 -215q86 0 133.5 55.5t47.5 159.5z" />
    <glyph glyph-name="Emacron" unicode="&#x112;" horiz-adv-x="543" 
d="M464 331h-309v-274h322q13 0 13 -12v-32q0 -13 -13 -13h-371q-13 0 -13 13v676q0 12 12 12h369q13 0 13 -12v-32q0 -13 -13 -13h-319v-257h309q12 0 12 -13v-30q0 -13 -12 -13zM430 769h-269q-12 0 -12 11v23q0 11 12 11h269q12 0 12 -11v-23q0 -11 -12 -11z" />
    <glyph glyph-name="emacron" unicode="&#x113;" horiz-adv-x="556" 
d="M309 39q77 0 137 33q11 6 17 -7l10 -26q3 -9 -8 -14q-70 -37 -159 -37q-119 0 -185.5 71.5t-66.5 196.5q0 128 61 198.5t169 70.5q105 0 162 -66.5t57 -175.5v-41q0 -12 -13 -12h-378q4 -88 55.5 -139.5t141.5 -51.5zM284 474q-164 0 -172 -195h334v8q0 85 -41 136
t-121 51zM418 593h-268q-11 0 -11 11v20q0 12 11 12h268q12 0 12 -12v-20q0 -11 -12 -11z" />
    <glyph glyph-name="Ebreve" unicode="&#x114;" horiz-adv-x="543" 
d="M464 331h-309v-274h322q13 0 13 -12v-32q0 -13 -13 -13h-371q-13 0 -13 13v676q0 12 12 12h369q13 0 13 -12v-32q0 -13 -13 -13h-319v-257h309q12 0 12 -13v-30q0 -13 -12 -13zM304 754q-63 0 -95.5 29t-33.5 70q0 10 9 10h21q9 0 12 -9q7 -28 26 -43t61 -15q73 0 87 58
q1 9 11 9h20q10 0 10 -10q-1 -41 -33.5 -70t-94.5 -29z" />
    <glyph glyph-name="ebreve" unicode="&#x115;" horiz-adv-x="556" 
d="M309 39q77 0 137 33q11 6 17 -7l10 -26q3 -9 -8 -14q-70 -37 -159 -37q-119 0 -185.5 71.5t-66.5 196.5q0 128 61 198.5t169 70.5q105 0 162 -66.5t57 -175.5v-41q0 -12 -13 -12h-378q4 -88 55.5 -139.5t141.5 -51.5zM284 474q-164 0 -172 -195h334v8q0 85 -41 136
t-121 51zM285 582q-65 0 -96.5 31t-32.5 73q0 10 9 10h21q8 0 11 -9q7 -30 25.5 -47t62.5 -17q43 0 61.5 17t25.5 47q1 9 11 9h20q10 0 10 -10q-1 -42 -32.5 -73t-95.5 -31z" />
    <glyph glyph-name="Edotaccent" unicode="&#x116;" horiz-adv-x="543" 
d="M464 331h-309v-274h322q13 0 13 -12v-32q0 -13 -13 -13h-371q-13 0 -13 13v676q0 12 12 12h369q13 0 13 -12v-32q0 -13 -13 -13h-319v-257h309q12 0 12 -13v-30q0 -13 -12 -13zM345 841v-73q0 -12 -11 -12h-42q-13 0 -13 12v73q0 12 13 12h42q11 0 11 -12z" />
    <glyph glyph-name="edotaccent" unicode="&#x117;" horiz-adv-x="556" 
d="M309 39q77 0 137 33q11 6 17 -7l10 -26q3 -9 -8 -14q-70 -37 -159 -37q-119 0 -185.5 71.5t-66.5 196.5q0 128 61 198.5t169 70.5q105 0 162 -66.5t57 -175.5v-41q0 -12 -13 -12h-378q4 -88 55.5 -139.5t141.5 -51.5zM284 474q-164 0 -172 -195h334v8q0 85 -41 136
t-121 51zM317 670v-73q0 -12 -11 -12h-42q-13 0 -13 12v73q0 13 13 13h42q11 0 11 -13z" />
    <glyph glyph-name="Eogonek" unicode="&#x118;" horiz-adv-x="543" 
d="M464 331h-309v-274h322q13 0 13 -12v-32q0 -13 -13 -13h-20q-73 -33 -73 -82q0 -32 54 -32q17 0 34 5q8 2 9 -3l5 -22q3 -8 -4 -11q-26 -12 -57 -12q-38 0 -62.5 16t-24.5 49q0 24 20 50t51 42h-303q-13 0 -13 13v676q0 12 12 12h369q13 0 13 -12v-32q0 -13 -13 -13h-319
v-257h309q12 0 12 -13v-30q0 -13 -12 -13z" />
    <glyph glyph-name="eogonek" unicode="&#x119;" horiz-adv-x="556" 
d="M309 39q77 0 137 33q11 6 17 -7l10 -26q3 -9 -8 -14q-47 -25 -113 -34q-50 -28 -50 -66q0 -32 50 -32q13 0 33 4q9 2 10 -4l5 -20q1 -6 -4 -9q-18 -11 -55 -11q-83 0 -83 61q0 40 47 74q-119 1 -185 72t-66 196q0 128 61 198.5t169 70.5q105 0 162 -66.5t57 -175.5v-41
q0 -12 -13 -12h-378q4 -88 55.5 -139.5t141.5 -51.5zM284 474q-164 0 -172 -195h334v8q0 85 -41 136t-121 51z" />
    <glyph glyph-name="Ecaron" unicode="&#x11a;" horiz-adv-x="543" 
d="M464 331h-309v-274h322q13 0 13 -12v-32q0 -13 -13 -13h-371q-13 0 -13 13v676q0 12 12 12h369q13 0 13 -12v-32q0 -13 -13 -13h-319v-257h309q12 0 12 -13v-30q0 -13 -12 -13zM298 796l72 59q10 9 17 9h29q7 0 8.5 -4.5t-2.5 -8.5l-91 -88q-7 -7 -19 -7h-30q-10 0 -18 7
l-91 88q-5 4 -3 8.5t9 4.5h28q4 0 17 -9z" />
    <glyph glyph-name="ecaron" unicode="&#x11b;" horiz-adv-x="556" 
d="M309 39q77 0 137 33q11 6 17 -7l10 -26q3 -9 -8 -14q-70 -37 -159 -37q-119 0 -185.5 71.5t-66.5 196.5q0 128 61 198.5t169 70.5q105 0 162 -66.5t57 -175.5v-41q0 -12 -13 -12h-378q4 -88 55.5 -139.5t141.5 -51.5zM284 474q-164 0 -172 -195h334v8q0 85 -41 136
t-121 51zM285 625l76 64q9 8 17 8h29q6 0 7.5 -4t-2.5 -8l-94 -92q-10 -8 -19 -8h-30q-10 0 -18 8l-94 92q-5 4 -3.5 8t8.5 4h28q9 0 18 -8z" />
    <glyph glyph-name="Gcircumflex" unicode="&#x11c;" horiz-adv-x="690" 
d="M384 395h214q13 0 13 -13v-318q0 -17 -16 -28q-77 -46 -205 -46q-330 0 -330 361t332 361q103 0 183 -42q13 -6 10 -14l-13 -30q-5 -13 -17 -7q-70 35 -160 35q-139 0 -205 -74.5t-66 -228.5q0 -155 66 -229.5t203 -74.5q93 0 157 33v259h-166q-13 0 -13 12v31
q0 13 13 13zM446 764l-72 59l-74 -59q-10 -8 -18 -8h-29q-7 0 -8 4t4 9l91 87q8 8 18 8h30q9 0 19 -8l91 -87q5 -5 3.5 -9t-8.5 -4h-29q-7 0 -18 8z" />
    <glyph glyph-name="gcircumflex" unicode="&#x11d;" horiz-adv-x="581" 
d="M440 290q0 91 -43.5 137.5t-121.5 46.5q-162 0 -162 -191q0 -190 162 -190q77 0 121 51.5t44 145.5zM498 500v-428q0 -94 -58.5 -144t-161.5 -50t-171 32q-9 6 -7 12l11 29q3 12 14 8q68 -29 152 -29q77 0 120 37t43 109v71q-20 -49 -66.5 -76.5t-107.5 -27.5
q-97 0 -154.5 61t-57.5 179t56.5 180t153.5 62q60 0 108.5 -27t67.5 -73v76q0 12 13 12h33q12 0 12 -13zM357 593l-76 65l-77 -65q-9 -8 -18 -8h-28q-7 0 -8.5 4.5t3.5 8.5l94 91q8 8 18 8h30q11 0 19 -8l94 -91q5 -4 3.5 -8.5t-8.5 -4.5h-29q-8 0 -17 8z" />
    <glyph glyph-name="Gbreve" unicode="&#x11e;" horiz-adv-x="690" 
d="M384 395h214q13 0 13 -13v-318q0 -17 -16 -28q-77 -46 -205 -46q-330 0 -330 361t332 361q103 0 183 -42q13 -6 10 -14l-13 -30q-5 -13 -17 -7q-70 35 -160 35q-139 0 -205 -74.5t-66 -228.5q0 -155 66 -229.5t203 -74.5q93 0 157 33v259h-166q-13 0 -13 12v31
q0 13 13 13zM376 754q-63 0 -95.5 29t-33.5 70q0 10 9 10h21q9 0 12 -9q7 -28 26 -43t61 -15q73 0 87 58q1 9 11 9h20q10 0 10 -10q-1 -41 -33.5 -70t-94.5 -29z" />
    <glyph glyph-name="gbreve" unicode="&#x11f;" horiz-adv-x="581" 
d="M440 290q0 91 -43.5 137.5t-121.5 46.5q-162 0 -162 -191q0 -190 162 -190q77 0 121 51.5t44 145.5zM498 500v-428q0 -94 -58.5 -144t-161.5 -50t-171 32q-9 6 -7 12l11 29q3 12 14 8q68 -29 152 -29q77 0 120 37t43 109v71q-20 -49 -66.5 -76.5t-107.5 -27.5
q-97 0 -154.5 61t-57.5 179t56.5 180t153.5 62q60 0 108.5 -27t67.5 -73v76q0 12 13 12h33q12 0 12 -13zM281 582q-65 0 -96.5 31t-32.5 73q0 10 9 10h21q8 0 11 -9q7 -30 25.5 -47t62.5 -17q43 0 61.5 17t25.5 47q1 9 11 9h20q10 0 10 -10q-1 -42 -32.5 -73t-95.5 -31z" />
    <glyph glyph-name="Gdotaccent" unicode="&#x120;" horiz-adv-x="690" 
d="M384 395h214q13 0 13 -13v-318q0 -17 -16 -28q-77 -46 -205 -46q-330 0 -330 361t332 361q103 0 183 -42q13 -6 10 -14l-13 -30q-5 -13 -17 -7q-70 35 -160 35q-139 0 -205 -74.5t-66 -228.5q0 -155 66 -229.5t203 -74.5q93 0 157 33v259h-166q-13 0 -13 12v31
q0 13 13 13zM420 841v-73q0 -12 -11 -12h-42q-13 0 -13 12v73q0 12 13 12h42q11 0 11 -12z" />
    <glyph glyph-name="gdotaccent" unicode="&#x121;" horiz-adv-x="581" 
d="M440 290q0 91 -43.5 137.5t-121.5 46.5q-162 0 -162 -191q0 -190 162 -190q77 0 121 51.5t44 145.5zM498 500v-428q0 -94 -58.5 -144t-161.5 -50t-171 32q-9 6 -7 12l11 29q3 12 14 8q68 -29 152 -29q77 0 120 37t43 109v71q-20 -49 -66.5 -76.5t-107.5 -27.5
q-97 0 -154.5 61t-57.5 179t56.5 180t153.5 62q60 0 108.5 -27t67.5 -73v76q0 12 13 12h33q12 0 12 -13zM323 670v-73q0 -12 -11 -12h-42q-13 0 -13 12v73q0 13 13 13h42q11 0 11 -13z" />
    <glyph glyph-name="Gcommaaccent" unicode="&#x122;" horiz-adv-x="690" 
d="M384 395h214q13 0 13 -13v-318q0 -17 -16 -28q-77 -46 -205 -46q-330 0 -330 361t332 361q103 0 183 -42q13 -6 10 -14l-13 -30q-5 -13 -17 -7q-70 35 -160 35q-139 0 -205 -74.5t-66 -228.5q0 -155 66 -229.5t203 -74.5q93 0 157 33v259h-166q-13 0 -13 12v31
q0 13 13 13zM444 -138l-34 -85q-4 -10 -12 -10h-9q-11 0 -7 11l21 85h-23q-11 0 -11 12v62q0 12 11 12h54q13 0 13 -12v-59q0 -9 -3 -16z" />
    <glyph glyph-name="gcommaaccent" unicode="&#x123;" horiz-adv-x="581" 
d="M440 290q0 91 -43.5 137.5t-121.5 46.5q-162 0 -162 -191q0 -190 162 -190q77 0 121 51.5t44 145.5zM498 500v-428q0 -94 -58.5 -144t-161.5 -50t-171 32q-9 6 -7 12l11 29q3 12 14 8q68 -29 152 -29q77 0 120 37t43 109v71q-20 -49 -66.5 -76.5t-107.5 -27.5
q-97 0 -154.5 61t-57.5 179t56.5 180t153.5 62q60 0 108.5 -27t67.5 -73v76q0 12 13 12h33q12 0 12 -13zM244 664l28 82q5 9 12 9h10q8 0 6 -11l-17 -81h21q12 0 12 -11v-58q0 -12 -12 -12h-51q-12 0 -12 12v54q0 10 3 16z" />
    <glyph glyph-name="Hcircumflex" unicode="&#x124;" horiz-adv-x="698" 
d="M543 13v317h-388v-317q0 -13 -13 -13h-36q-13 0 -13 13v676q0 12 13 12h36q13 0 13 -12v-301h388v301q0 12 13 12h37q12 0 12 -12v-676q0 -13 -12 -13h-37q-13 0 -13 13zM420 764l-72 59l-74 -59q-10 -8 -18 -8h-29q-7 0 -8 4t4 9l91 87q8 8 18 8h30q9 0 19 -8l91 -87
q5 -5 3.5 -9t-8.5 -4h-29q-7 0 -18 8z" />
    <glyph glyph-name="hcircumflex" unicode="&#x125;" horiz-adv-x="591" 
d="M513 342v-330q0 -12 -11 -12h-35q-12 0 -12 12v322q0 136 -139 136q-77 0 -124 -45t-47 -114v-299q0 -12 -12 -12h-34q-13 0 -13 12v678q0 11 13 11h34q12 0 12 -11v-268q17 41 63.5 72t121.5 31q90 0 136.5 -48.5t46.5 -134.5zM367 764l-72 59l-74 -59q-10 -8 -18 -8
h-29q-7 0 -8 4t4 9l91 87q8 8 18 8h30q9 0 19 -8l91 -87q5 -5 3.5 -9t-8.5 -4h-29q-7 0 -18 8z" />
    <glyph glyph-name="Hbar" unicode="&#x126;" horiz-adv-x="678" 
d="M543 13v317h-388v-317q0 -13 -13 -13h-36q-13 0 -13 13v529h-56q-12 0 -12 11v16q0 11 12 11h56v109q0 12 13 12h36q13 0 13 -12v-109h388v109q0 12 13 12h37q12 0 12 -13v-108h56q12 0 12 -11v-16q0 -11 -12 -11h-56v-529q0 -13 -12 -13h-37q-13 0 -13 13zM155 388h388
v154h-388v-154z" />
    <glyph glyph-name="hbar" unicode="&#x127;" horiz-adv-x="591" 
d="M513 342v-330q0 -12 -11 -12h-35q-12 0 -12 12v322q0 136 -139 136q-77 0 -124 -45t-47 -114v-299q0 -12 -12 -12h-34q-13 0 -13 12v580h-56q-11 0 -11 11v16q0 12 11 12h56v59q0 11 13 11h34q12 0 12 -11v-59h158q11 0 11 -12v-16q0 -11 -11 -11h-158v-170
q17 41 63.5 72t121.5 31q90 0 136.5 -48.5t46.5 -134.5z" />
    <glyph glyph-name="Itilde" unicode="&#x128;" horiz-adv-x="262" 
d="M100 13v676q0 12 12 12h37q13 0 13 -12v-676q0 -13 -13 -13h-37q-12 0 -12 13zM284 820q0 -31 -17 -50.5t-51 -19.5q-30 0 -82 20l-24 9q-44 16 -64 16q-23 0 -26 -18l-1 -12q-1 -12 -15 -12h-17q-11 0 -11 16q0 31 16.5 50t50.5 19q22 0 82 -22l26 -10q39 -16 59 -16
q25 0 29 24l1 10q1 12 16 12h16q12 0 12 -16z" />
    <glyph glyph-name="itilde" unicode="&#x129;" horiz-adv-x="227" 
d="M143 500v-488q0 -12 -12 -12h-34q-12 0 -12 12v488q0 13 12 13h34q12 0 12 -13zM257 649q0 -29 -15.5 -46.5t-45.5 -17.5q-35 0 -79 19l-22 9q-35 14 -53 14q-21 0 -25 -17l-3 -12q-3 -11 -15 -11h-17q-11 0 -11 15q0 29 15.5 46.5t45.5 17.5q28 0 79 -20l24 -9
q37 -15 53 -15q21 0 25 21l2 10q1 11 14 11h18q10 0 10 -15z" />
    <glyph glyph-name="Imacron" unicode="&#x12a;" horiz-adv-x="262" 
d="M100 13v676q0 12 12 12h37q13 0 13 -12v-676q0 -13 -13 -13h-37q-12 0 -12 13zM264 769h-269q-12 0 -12 11v23q0 11 12 11h269q12 0 12 -11v-23q0 -11 -12 -11z" />
    <glyph glyph-name="imacron" unicode="&#x12b;" horiz-adv-x="227" 
d="M143 500v-488q0 -12 -12 -12h-34q-12 0 -12 12v488q0 13 12 13h34q12 0 12 -13zM248 593h-268q-11 0 -11 11v20q0 12 11 12h268q12 0 12 -12v-20q0 -11 -12 -11z" />
    <glyph glyph-name="Ibreve" unicode="&#x12c;" horiz-adv-x="262" 
d="M100 13v676q0 12 12 12h37q13 0 13 -12v-676q0 -13 -13 -13h-37q-12 0 -12 13zM130 754q-63 0 -95.5 29t-33.5 70q0 10 9 10h21q9 0 12 -9q7 -28 26 -43t61 -15q73 0 87 58q1 9 11 9h20q10 0 10 -10q-1 -41 -33.5 -70t-94.5 -29z" />
    <glyph glyph-name="ibreve" unicode="&#x12d;" horiz-adv-x="227" 
d="M143 500v-488q0 -12 -12 -12h-34q-12 0 -12 12v488q0 13 12 13h34q12 0 12 -13zM115 582q-65 0 -96.5 31t-32.5 73q0 10 9 10h21q8 0 11 -9q7 -30 25.5 -47t62.5 -17q43 0 61.5 17t25.5 47q1 9 11 9h20q10 0 10 -10q-1 -42 -32.5 -73t-95.5 -31z" />
    <glyph glyph-name="Iogonek" unicode="&#x12e;" horiz-adv-x="262" 
d="M100 13v676q0 12 12 12h37q13 0 13 -12v-676q0 -13 -13 -13h-5q-73 -33 -73 -82q0 -32 54 -32q17 0 34 5q8 2 9 -3l5 -22q3 -8 -4 -11q-26 -12 -57 -12q-38 0 -62.5 16t-24.5 49q0 26 22 53t56 42q-3 3 -3 10z" />
    <glyph glyph-name="iogonek" unicode="&#x12f;" horiz-adv-x="227" 
d="M143 500v-488q0 -12 -12 -12h-11q-68 -30 -68 -75q0 -32 50 -32q13 0 33 4q9 2 10 -4l5 -20q1 -6 -4 -9q-18 -11 -55 -11q-83 0 -83 61q0 26 22 51.5t56 39.5q-1 2 -1 7v488q0 13 11 13h35q12 0 12 -13zM143 681v-83q0 -12 -12 -12h-35q-11 0 -11 12v83q0 12 11 12h35
q12 0 12 -12z" />
    <glyph glyph-name="Idotaccent" unicode="&#x130;" horiz-adv-x="262" 
d="M100 13v676q0 12 12 12h37q13 0 13 -12v-676q0 -13 -13 -13h-37q-12 0 -12 13zM162 841v-73q0 -12 -11 -12h-42q-13 0 -13 12v73q0 12 13 12h42q11 0 11 -12z" />
    <glyph glyph-name="dotlessi" unicode="&#x131;" horiz-adv-x="227" 
d="M143 500v-488q0 -12 -12 -12h-34q-12 0 -12 12v488q0 13 12 13h34q12 0 12 -13z" />
    <glyph glyph-name="IJ" unicode="&#x132;" horiz-adv-x="714" 
d="M100 13v676q0 12 12 12h37q13 0 13 -12v-676q0 -13 -13 -13h-37q-12 0 -12 13zM560 208v481q0 12 13 12h37q12 0 12 -12v-486q0 -214 -194 -214q-90 0 -149 36q-13 9 -9 18l12 31q6 12 16 6q56 -34 126 -34q136 0 136 162z" />
    <glyph glyph-name="ij" unicode="&#x133;" horiz-adv-x="463" 
d="M143 500v-488q0 -12 -12 -12h-35q-11 0 -11 12v488q0 13 11 13h35q12 0 12 -13zM143 681v-83q0 -12 -12 -12h-35q-11 0 -11 12v83q0 12 11 12h35q12 0 12 -12zM320 126v374q0 13 12 13h35q12 0 12 -13v-380q0 -65 -24.5 -96t-79.5 -31q-36 0 -58 7q-8 3 -8 13v29
q0 10 13 8q25 -5 42 -5q30 0 43 19.5t13 61.5zM379 681v-83q0 -12 -12 -12h-35q-12 0 -12 12v83q0 12 12 12h35q12 0 12 -12z" />
    <glyph glyph-name="Jcircumflex" unicode="&#x134;" horiz-adv-x="467" 
d="M317 208v481q0 12 13 12h37q12 0 12 -12v-486q0 -214 -194 -214q-90 0 -149 36q-13 9 -9 18l12 31q6 12 16 6q56 -34 126 -34q136 0 136 162zM295 764l-72 59l-74 -59q-10 -8 -18 -8h-29q-7 0 -8 4t4 9l91 87q8 8 18 8h30q9 0 19 -8l91 -87q5 -5 3.5 -9t-8.5 -4h-29
q-7 0 -18 8z" />
    <glyph glyph-name="jcircumflex" unicode="&#x135;" horiz-adv-x="237" 
d="M94 19v481q0 13 11 13h35q12 0 12 -13v-487q0 -65 -24.5 -96t-79.5 -31q-31 0 -57 7q-10 3 -10 13l1 29q0 10 13 9q27 -5 43 -5q30 0 43 19t13 61zM199 593l-76 65l-77 -65q-9 -8 -18 -8h-28q-7 0 -8.5 4.5t3.5 8.5l94 91q8 8 18 8h30q11 0 19 -8l94 -91q5 -4 3.5 -8.5
t-8.5 -4.5h-29q-8 0 -17 8z" />
    <glyph glyph-name="Kcommaaccent" unicode="&#x136;" horiz-adv-x="596" 
d="M155 405l323 287q10 9 21 9h47q8 0 10.5 -5.5t-2.5 -10.5l-350 -310l358 -358q3 -3 4 -7t-2 -7t-8 -3h-49q-11 0 -22 11l-330 328v-326q0 -13 -13 -13h-36q-13 0 -13 13v676q0 12 13 12h36q13 0 13 -12v-284zM362 -138l-34 -85q-4 -10 -12 -10h-9q-11 0 -7 11l21 85h-23
q-11 0 -11 12v62q0 12 11 12h54q13 0 13 -12v-59q0 -9 -3 -16z" />
    <glyph glyph-name="kcommaaccent" unicode="&#x137;" horiz-adv-x="482" 
d="M456 0h-51q-9 0 -17 8l-243 239v-235q0 -12 -12 -12h-34q-13 0 -13 12v678q0 11 13 11h34q12 0 12 -11v-366l233 183q8 6 17 6h51q7 0 8.5 -5.5t-4.5 -10.5l-269 -209l281 -273q5 -5 2.5 -10t-8.5 -5zM307 -133l-28 -82q-5 -9 -12 -9h-10q-8 0 -6 11l17 81h-21
q-12 0 -12 11v58q0 12 12 12h51q12 0 12 -12v-54q0 -10 -3 -16z" />
    <glyph glyph-name="kgreenlandic" unicode="&#x138;" horiz-adv-x="478" 
d="M453 0h-51q-9 0 -17 8l-243 239v-235q0 -12 -12 -12h-34q-13 0 -13 12v488q0 13 13 13h34q12 0 12 -13v-176l234 183q8 6 16 6h51q7 0 8.5 -5.5t-4.5 -10.5l-269 -209l280 -273q5 -5 3 -10t-8 -5z" />
    <glyph glyph-name="Lacute" unicode="&#x139;" horiz-adv-x="527" 
d="M166 689v-631h316q13 0 13 -12v-33q0 -13 -13 -13h-365q-13 0 -13 13v676q0 12 13 12h36q13 0 13 -12zM123 768l62 86q9 12 20 12h52q6 0 7.5 -5.5t-2.5 -9.5l-92 -87q-10 -8 -19 -8h-21q-6 0 -8 4t1 8z" />
    <glyph glyph-name="lacute" unicode="&#x13a;" horiz-adv-x="227" 
d="M143 690v-678q0 -12 -12 -12h-35q-11 0 -11 12v678q0 11 11 11h35q12 0 12 -11zM92 768l62 86q9 12 20 12h52q6 0 7.5 -5.5t-2.5 -9.5l-92 -87q-10 -8 -19 -8h-21q-6 0 -8 4t1 8z" />
    <glyph glyph-name="Lcommaaccent" unicode="&#x13b;" horiz-adv-x="527" 
d="M155 689v-631h316q13 0 13 -12v-33q0 -13 -13 -13h-365q-13 0 -13 13v676q0 12 13 12h36q13 0 13 -12zM300 -138l-34 -85q-4 -10 -12 -10h-9q-11 0 -7 11l21 85h-23q-11 0 -11 12v62q0 12 11 12h54q13 0 13 -12v-59q0 -9 -3 -16z" />
    <glyph glyph-name="lcommaaccent" unicode="&#x13c;" horiz-adv-x="227" 
d="M145 690v-678q0 -12 -12 -12h-35q-11 0 -11 12v678q0 11 11 11h35q12 0 12 -11zM148 -133l-28 -82q-5 -9 -12 -9h-10q-8 0 -6 11l17 81h-21q-12 0 -12 11v58q0 12 12 12h51q12 0 12 -12v-54q0 -10 -3 -16z" />
    <glyph glyph-name="Lcaron" unicode="&#x13d;" horiz-adv-x="527" 
d="M155 689v-631h316q13 0 13 -12v-33q0 -13 -13 -13h-365q-13 0 -13 13v676q0 12 13 12h36q13 0 13 -12zM367 612l-35 -96q-3 -9 -12 -9h-16q-9 0 -7 12l24 94h-20q-13 0 -13 12v68q0 12 13 12h56q12 0 12 -12v-64q0 -10 -2 -17z" />
    <glyph glyph-name="lcaron" unicode="&#x13e;" horiz-adv-x="303" 
d="M145 690v-678q0 -12 -12 -12h-35q-11 0 -11 12v678q0 11 11 11h35q12 0 12 -11zM302 612l-35 -96q-3 -9 -12 -9h-16q-9 0 -7 12l24 94h-20q-13 0 -13 12v68q0 12 13 12h56q12 0 12 -12v-64q0 -10 -2 -17z" />
    <glyph glyph-name="Ldot" unicode="&#x13f;" horiz-adv-x="532" 
d="M155 689v-631h316q13 0 13 -12v-33q0 -13 -13 -13h-365q-13 0 -13 13v676q0 12 13 12h36q13 0 13 -12zM373 290v69q0 12 12 12h53q12 0 12 -12v-69q0 -12 -11 -12h-54q-12 0 -12 12z" />
    <glyph glyph-name="ldot" unicode="&#x140;" horiz-adv-x="288" 
d="M140 690v-678q0 -12 -12 -12h-35q-11 0 -11 12v678q0 11 11 11h35q12 0 12 -11zM219 225v69q0 12 12 12h53q12 0 12 -12v-69q0 -12 -11 -12h-54q-12 0 -12 12z" />
    <glyph glyph-name="Lslash" unicode="&#x141;" horiz-adv-x="529" 
d="M157 689v-328l135 79q12 7 17 -4l9 -15q5 -9 -5 -15l-156 -91v-257h316q13 0 13 -12v-33q0 -13 -13 -13h-365q-13 0 -13 13v265l-30 -17q-11 -5 -16 5l-9 14q-6 10 5 15l50 30v364q0 12 13 12h36q13 0 13 -12z" />
    <glyph glyph-name="lslash" unicode="&#x142;" horiz-adv-x="231" 
d="M145 690v-297l20 12q11 5 16 -4l9 -15q5 -10 -5 -16l-40 -24v-334q0 -12 -12 -12h-35q-11 0 -11 12v300l-21 -11q-10 -6 -16 5l-9 15q-6 10 5 15l41 24v330q0 11 11 11h35q12 0 12 -11z" />
    <glyph glyph-name="Nacute" unicode="&#x143;" horiz-adv-x="699" 
d="M606 690v-677q0 -13 -13 -13h-39q-11 0 -18 10l-382 589v-586q0 -13 -12 -13h-36q-13 0 -13 13v676q0 12 13 12h38q14 0 20 -9l381 -590v587q0 12 13 12h35q13 0 13 -11zM325 768l62 86q9 12 20 12h52q6 0 7.5 -5.5t-2.5 -9.5l-92 -87q-10 -8 -19 -8h-21q-6 0 -8 4t1 8z
" />
    <glyph glyph-name="nacute" unicode="&#x144;" horiz-adv-x="583" 
d="M505 342v-330q0 -12 -12 -12h-34q-12 0 -12 12v323q0 135 -137 135q-76 0 -123 -44t-47 -114v-300q0 -12 -12 -12h-35q-11 0 -11 12v488q0 13 11 13h34q12 0 12 -12l1 -78q48 102 183 102q90 0 136 -48.5t46 -134.5zM241 597l62 90q7 10 20 10h52q7 0 8.5 -5.5t-3.5 -9.5
l-93 -89q-10 -8 -19 -8h-20q-6 0 -8 4t1 8z" />
    <glyph glyph-name="Ncommaaccent" unicode="&#x145;" horiz-adv-x="699" 
d="M606 690v-677q0 -13 -13 -13h-39q-11 0 -18 10l-382 589v-586q0 -13 -12 -13h-36q-13 0 -13 13v676q0 12 13 12h38q14 0 20 -9l381 -590v587q0 12 13 12h35q13 0 13 -11zM385 -138l-34 -85q-4 -10 -12 -10h-9q-11 0 -7 11l21 85h-23q-11 0 -11 12v62q0 12 11 12h54
q13 0 13 -12v-59q0 -9 -3 -16z" />
    <glyph glyph-name="ncommaaccent" unicode="&#x146;" horiz-adv-x="583" 
d="M505 342v-330q0 -12 -12 -12h-34q-12 0 -12 12v323q0 135 -137 135q-76 0 -123 -44t-47 -114v-300q0 -12 -12 -12h-35q-11 0 -11 12v488q0 13 11 13h34q12 0 12 -12l1 -78q48 102 183 102q90 0 136 -48.5t46 -134.5zM334 -133l-28 -82q-5 -9 -12 -9h-10q-8 0 -6 11l17 81
h-21q-12 0 -12 11v58q0 12 12 12h51q12 0 12 -12v-54q0 -10 -3 -16z" />
    <glyph glyph-name="Ncaron" unicode="&#x147;" horiz-adv-x="699" 
d="M606 690v-677q0 -13 -13 -13h-39q-11 0 -18 10l-382 589v-586q0 -13 -12 -13h-36q-13 0 -13 13v676q0 12 13 12h38q14 0 20 -9l381 -590v587q0 12 13 12h35q13 0 13 -11zM349 796l72 59q11 9 17 9h29q7 0 8.5 -4.5t-2.5 -8.5l-91 -88q-7 -7 -19 -7h-30q-10 0 -18 7
l-91 88q-5 4 -3 8.5t9 4.5h28q4 0 17 -9z" />
    <glyph glyph-name="ncaron" unicode="&#x148;" horiz-adv-x="583" 
d="M505 342v-330q0 -12 -12 -12h-34q-12 0 -12 12v323q0 135 -137 135q-76 0 -123 -44t-47 -114v-300q0 -12 -12 -12h-35q-11 0 -11 12v488q0 13 11 13h34q12 0 12 -12l1 -78q48 102 183 102q90 0 136 -48.5t46 -134.5zM288 625l76 64q9 8 17 8h29q6 0 7.5 -4t-2.5 -8
l-94 -92q-10 -8 -19 -8h-30q-10 0 -18 8l-94 92q-5 4 -3.5 8t8.5 4h28q9 0 18 -8z" />
    <glyph glyph-name="napostrophe" unicode="&#x149;" horiz-adv-x="661" 
d="M583 342v-330q0 -12 -12 -12h-34q-12 0 -12 12v323q0 135 -137 135q-76 0 -123 -44t-47 -114v-300q0 -12 -12 -12h-35q-11 0 -11 12v488q0 13 11 13h34q12 0 12 -12l1 -78q48 102 183 102q90 0 136 -48.5t46 -134.5zM81 620l-35 -96q-3 -9 -12 -9h-16q-9 0 -7 12l24 94
h-20q-13 0 -13 12v68q0 12 13 12h56q12 0 12 -12v-64q0 -10 -2 -17z" />
    <glyph glyph-name="Eng" unicode="&#x14a;" horiz-adv-x="699" 
d="M606 689v-689q0 -56 -29.5 -85t-81.5 -29q-44 0 -66 9q-11 4 -9 12l9 29q3 12 14 8q17 -6 43 -6q59 0 59 59l-391 602v-586q0 -13 -12 -13h-36q-13 0 -13 13v676q0 12 13 12h38q14 0 20 -9l381 -590v587q0 12 13 12h35q13 0 13 -12z" />
    <glyph glyph-name="eng" unicode="&#x14b;" horiz-adv-x="583" 
d="M447 19v315q0 136 -137 136q-76 0 -123 -44t-47 -114v-300q0 -12 -12 -12h-35q-11 0 -11 12v488q0 13 11 13h35q12 0 12 -12v-78q48 102 183 102q90 0 136 -48.5t46 -134.5v-329q0 -127 -103 -127q-31 0 -58 8q-8 1 -8 12l1 29q0 12 13 9q25 -5 44 -5q53 0 53 80z" />
    <glyph glyph-name="Omacron" unicode="&#x14c;" horiz-adv-x="706" 
d="M353 712q144 0 219.5 -94t75.5 -267q0 -174 -75.5 -267.5t-220.5 -93.5q-143 0 -218.5 93.5t-75.5 267.5q0 173 75.5 267t219.5 94zM353 47q116 0 173.5 78t57.5 226t-57.5 226t-173.5 78q-115 0 -173 -78t-58 -226t58 -226t173 -78zM487 769h-269q-12 0 -12 11v23
q0 11 12 11h269q12 0 12 -11v-23q0 -11 -12 -11z" />
    <glyph glyph-name="omacron" unicode="&#x14d;" horiz-adv-x="583" 
d="M291 -10q112 0 175 70t63 197q0 128 -63 198t-175 70t-174.5 -70t-62.5 -198q0 -127 62.5 -197t174.5 -70zM291 42q-86 0 -131.5 54.5t-45.5 160.5t45.5 161t131.5 55t132 -55t46 -161t-46 -160.5t-132 -54.5zM425 593h-268q-11 0 -11 11v20q0 12 11 12h268q12 0 12 -12
v-20q0 -11 -12 -11z" />
    <glyph glyph-name="Obreve" unicode="&#x14e;" horiz-adv-x="706" 
d="M353 712q144 0 219.5 -94t75.5 -267q0 -174 -75.5 -267.5t-220.5 -93.5q-143 0 -218.5 93.5t-75.5 267.5q0 173 75.5 267t219.5 94zM353 47q116 0 173.5 78t57.5 226t-57.5 226t-173.5 78q-115 0 -173 -78t-58 -226t58 -226t173 -78zM353 754q-63 0 -95.5 29t-33.5 70
q0 10 9 10h21q9 0 12 -9q7 -28 26 -43t61 -15q73 0 87 58q1 9 11 9h20q10 0 10 -10q-1 -41 -33.5 -70t-94.5 -29z" />
    <glyph glyph-name="obreve" unicode="&#x14f;" horiz-adv-x="583" 
d="M291 -10q-112 0 -174.5 70t-62.5 197q0 128 62.5 198t174.5 70t175 -70t63 -198q0 -127 -63 -197t-175 -70zM291 42q86 0 132 54.5t46 160.5t-46 161t-132 55t-131.5 -55t-45.5 -161t45.5 -160.5t131.5 -54.5zM292 582q-65 0 -96.5 31t-32.5 73q0 10 9 10h21q8 0 11 -9
q7 -30 25.5 -47t62.5 -17q43 0 61.5 17t25.5 47q1 9 11 9h20q10 0 10 -10q-1 -42 -32.5 -73t-95.5 -31z" />
    <glyph glyph-name="Ohungarumlaut" unicode="&#x150;" horiz-adv-x="706" 
d="M353 712q144 0 219.5 -94t75.5 -267q0 -174 -75.5 -267.5t-220.5 -93.5q-143 0 -218.5 93.5t-75.5 267.5q0 173 75.5 267t219.5 94zM353 47q116 0 173.5 78t57.5 226t-57.5 226t-173.5 78q-115 0 -173 -78t-58 -226t58 -226t173 -78zM254 768l53 88q7 11 20 11h43
q6 0 7.5 -5.5t-2.5 -10.5l-74 -87q-7 -8 -19 -8h-22q-6 0 -7.5 4t1.5 8zM406 768l54 88q7 11 19 11h42q7 0 9 -5.5t-2 -10.5l-74 -87q-8 -8 -19 -8h-22q-13 0 -7 12z" />
    <glyph glyph-name="ohungarumlaut" unicode="&#x151;" horiz-adv-x="583" 
d="M291 -10q112 0 175 70t63 197q0 128 -63 198t-175 70t-174.5 -70t-62.5 -198q0 -127 62.5 -197t174.5 -70zM291 42q-86 0 -131.5 54.5t-45.5 160.5t45.5 161t131.5 55t132 -55t46 -161t-46 -160.5t-132 -54.5zM191 597l55 90q7 10 19 10h41q6 0 8 -5t-2 -10l-76 -89
q-8 -8 -18 -8h-20q-6 0 -8 4t1 8zM342 597l54 90q6 10 19 10h41q6 0 8.5 -5.5t-1.5 -9.5l-76 -89q-7 -8 -19 -8h-19q-6 0 -8 4t1 8z" />
    <glyph glyph-name="OE" unicode="&#x152;" horiz-adv-x="920" 
d="M841 331h-282v-273h295q13 0 13 -12v-33q0 -13 -13 -13h-421q-171 0 -254 78.5t-83 272.5q0 193 83.5 271.5t254.5 78.5h417q13 0 13 -12v-33q0 -13 -13 -13h-292v-256h282q12 0 12 -13v-30q0 -13 -12 -13zM499 643h-65q-69 0 -117.5 -13t-85 -45.5t-54 -90t-17.5 -143.5
t17.5 -144t54 -90.5t84.5 -45.5t117 -13h66v585z" />
    <glyph glyph-name="oe" unicode="&#x153;" horiz-adv-x="939" 
d="M698 39q66 0 132 32q12 5 17 -7l11 -27q2 -7 -6 -13q-58 -36 -156 -36q-77 0 -132 36t-79 100q-23 -64 -75.5 -99t-125.5 -35q-106 0 -168 70.5t-62 196.5q0 127 62 197.5t168 70.5q72 0 124.5 -34.5t75.5 -97.5q23 63 72 97.5t119 34.5q98 0 154.5 -66.5t56.5 -169.5
v-41q0 -12 -13 -12h-363q4 -90 54.5 -143.5t133.5 -53.5zM284 42q81 0 125.5 55.5t44.5 159.5q0 105 -45 160.5t-125 55.5t-125 -55.5t-45 -160.5q0 -104 44.5 -159.5t125.5 -55.5zM676 474q-74 0 -118 -49.5t-48 -139.5h318v7q0 81 -39 131.5t-113 50.5z" />
    <glyph glyph-name="Racute" unicode="&#x154;" horiz-adv-x="641" 
d="M155 315h140q120 0 170.5 38.5t50.5 125.5q0 88 -51 126.5t-168 38.5h-142v-329zM106 701h192q146 0 214 -53.5t68 -168.5q0 -195 -215 -215l214 -247q5 -5 3 -11t-10 -6h-43q-11 0 -19 10l-214 248h-141v-245q0 -13 -13 -13h-36q-13 0 -13 13v676q0 12 13 12zM287 768
l62 86q9 12 20 12h52q6 0 7.5 -5.5t-2.5 -9.5l-92 -87q-10 -8 -19 -8h-21q-6 0 -8 4t1 8z" />
    <glyph glyph-name="racute" unicode="&#x155;" horiz-adv-x="358" 
d="M95 513h34q12 0 12 -12v-110q16 45 61.5 84.5t112.5 39.5q10 0 10 -9v-43q0 -11 -11 -11q-1 0 -7 1t-12 1q-62 0 -108 -59.5t-46 -133.5v-249q0 -12 -12 -12h-34q-13 0 -13 12v488q0 13 13 13zM139 597l62 90q7 10 20 10h52q7 0 8.5 -5.5t-3.5 -9.5l-93 -89
q-10 -8 -19 -8h-20q-6 0 -8 4t1 8z" />
    <glyph glyph-name="Rcommaaccent" unicode="&#x156;" horiz-adv-x="641" 
d="M155 315h140q120 0 170.5 38.5t50.5 125.5q0 88 -51 126.5t-168 38.5h-142v-329zM106 701h192q146 0 214 -53.5t68 -168.5q0 -195 -215 -215l214 -247q5 -5 3 -11t-10 -6h-43q-11 0 -19 10l-214 248h-141v-245q0 -13 -13 -13h-36q-13 0 -13 13v676q0 12 13 12zM356 -138
l-34 -85q-4 -10 -12 -10h-9q-11 0 -7 11l21 85h-23q-11 0 -11 12v62q0 12 11 12h54q13 0 13 -12v-59q0 -9 -3 -16z" />
    <glyph glyph-name="rcommaaccent" unicode="&#x157;" horiz-adv-x="358" 
d="M95 513h34q12 0 12 -12v-110q16 45 61.5 84.5t112.5 39.5q10 0 10 -9v-43q0 -11 -11 -11q-1 0 -7 1t-12 1q-62 0 -108 -59.5t-46 -133.5v-249q0 -12 -12 -12h-34q-13 0 -13 12v488q0 13 13 13zM147 -133l-28 -82q-5 -9 -12 -9h-10q-8 0 -6 11l17 81h-21q-12 0 -12 11v58
q0 12 12 12h51q12 0 12 -12v-54q0 -10 -3 -16z" />
    <glyph glyph-name="Rcaron" unicode="&#x158;" horiz-adv-x="641" 
d="M155 315h140q120 0 170.5 38.5t50.5 125.5q0 88 -51 126.5t-168 38.5h-142v-329zM106 701h192q146 0 214 -53.5t68 -168.5q0 -195 -215 -215l214 -247q5 -5 3 -11t-10 -6h-43q-11 0 -19 10l-214 248h-141v-245q0 -13 -13 -13h-36q-13 0 -13 13v676q0 12 13 12zM321 796
l72 59q11 9 17 9h29q7 0 8.5 -4.5t-2.5 -8.5l-91 -88q-7 -7 -19 -7h-30q-10 0 -18 7l-91 88q-5 4 -3 8.5t9 4.5h28q4 0 17 -9z" />
    <glyph glyph-name="rcaron" unicode="&#x159;" horiz-adv-x="358" 
d="M95 513h34q12 0 12 -12v-110q16 45 61.5 84.5t112.5 39.5q10 0 10 -9v-43q0 -11 -11 -11q-1 0 -7 1t-12 1q-62 0 -108 -59.5t-46 -133.5v-249q0 -12 -12 -12h-34q-13 0 -13 12v488q0 13 13 13zM195 625l76 64q9 8 17 8h29q6 0 7.5 -4t-2.5 -8l-94 -92q-10 -8 -19 -8h-30
q-10 0 -18 8l-94 92q-5 4 -3.5 8t8.5 4h28q9 0 18 -8z" />
    <glyph glyph-name="Sacute" unicode="&#x15a;" horiz-adv-x="546" 
d="M498 173q0 -86 -65.5 -134t-181.5 -48q-120 0 -192 31q-13 6 -10 15l12 32q4 12 15 7q72 -29 173 -29q88 0 137.5 34t49.5 94q0 32 -12 56t-39 42.5t-49 29.5t-63 28q-4 1 -6 2l-5 2.5t-6 2.5q-41 17 -60 25.5t-50 27t-45.5 36.5t-26 46.5t-11.5 64.5q0 82 56 128t173 46
q100 0 167 -29q12 -4 9 -14l-12 -31q-3 -12 -16 -7q-60 24 -144 24q-171 0 -171 -117q0 -17 4 -31.5t8.5 -25t16.5 -21.5l19 -17t25 -15l26.5 -13t31.5 -13.5t31 -13.5q31 -13 35.5 -15l32.5 -14.5t34.5 -17t28 -18t28 -22t20.5 -24t18.5 -30t9 -34t4.5 -40.5zM241 768
l62 86q9 12 20 12h52q6 0 7.5 -5.5t-2.5 -9.5l-92 -87q-10 -8 -19 -8h-21q-6 0 -8 4t1 8z" />
    <glyph glyph-name="sacute" unicode="&#x15b;" horiz-adv-x="453" 
d="M406 129q0 -139 -189 -139q-96 0 -165 29q-11 5 -9 12l10 29q4 12 14 7q65 -26 146 -26q69 0 102 21t33 67q0 23 -9 40t-32.5 31t-42 21.5t-58.5 22.5q-5 2 -23.5 8.5t-24.5 9l-21.5 9t-21.5 10.5l-18 12t-17 14.5l-13 16.5t-11.5 20t-6 23.5t-2.5 28.5q0 129 173 129
q91 0 154 -29q10 -5 7 -13l-9 -27q-3 -10 -14 -7q-62 25 -132 25q-64 0 -93 -18.5t-29 -59.5q0 -18 7.5 -33t16 -24t30.5 -20t35.5 -16t46.5 -16q39 -14 64 -26t51 -30.5t38.5 -43.5t12.5 -58zM177 597l62 90q7 10 20 10h52q7 0 8.5 -5.5t-3.5 -9.5l-93 -89q-10 -8 -19 -8
h-20q-6 0 -8 4t1 8z" />
    <glyph glyph-name="Scircumflex" unicode="&#x15c;" horiz-adv-x="546" 
d="M498 173q0 -86 -65.5 -134t-181.5 -48q-120 0 -192 31q-13 6 -10 15l12 32q4 12 15 7q72 -29 173 -29q88 0 137.5 34t49.5 94q0 32 -12 56t-39 42.5t-49 29.5t-63 28q-4 1 -6 2l-5 2.5t-6 2.5q-41 17 -60 25.5t-50 27t-45.5 36.5t-26 46.5t-11.5 64.5q0 82 56 128t173 46
q100 0 167 -29q12 -4 9 -14l-12 -31q-3 -12 -16 -7q-60 24 -144 24q-171 0 -171 -117q0 -17 4 -31.5t8.5 -25t16.5 -21.5l19 -17t25 -15l26.5 -13t31.5 -13.5t31 -13.5q31 -13 35.5 -15l32.5 -14.5t34.5 -17t28 -18t28 -22t20.5 -24t18.5 -30t9 -34t4.5 -40.5zM342 764
l-72 59l-74 -59q-10 -8 -18 -8h-29q-7 0 -8 4t4 9l91 87q8 8 18 8h30q9 0 19 -8l91 -87q5 -5 3.5 -9t-8.5 -4h-29q-7 0 -18 8z" />
    <glyph glyph-name="scircumflex" unicode="&#x15d;" horiz-adv-x="453" 
d="M406 129q0 -139 -189 -139q-96 0 -165 29q-11 5 -9 12l10 29q4 12 14 7q65 -26 146 -26q69 0 102 21t33 67q0 23 -9 40t-32.5 31t-42 21.5t-58.5 22.5q-5 2 -23.5 8.5t-24.5 9l-21.5 9t-21.5 10.5l-18 12t-17 14.5l-13 16.5t-11.5 20t-6 23.5t-2.5 28.5q0 129 173 129
q91 0 154 -29q10 -5 7 -13l-9 -27q-3 -10 -14 -7q-62 25 -132 25q-64 0 -93 -18.5t-29 -59.5q0 -18 7.5 -33t16 -24t30.5 -20t35.5 -16t46.5 -16q39 -14 64 -26t51 -30.5t38.5 -43.5t12.5 -58zM303 593l-76 65l-77 -65q-9 -8 -18 -8h-28q-7 0 -8.5 4.5t3.5 8.5l94 91
q8 8 18 8h30q11 0 19 -8l94 -91q5 -4 3.5 -8.5t-8.5 -4.5h-29q-8 0 -17 8z" />
    <glyph glyph-name="Scedilla" unicode="&#x15e;" horiz-adv-x="546" 
d="M498 173q0 -77 -52.5 -123.5t-147.5 -55.5q60 -33 60 -83q0 -69 -97 -69q-25 0 -32 3q-9 4 -9 11v20q0 8 9 8h28q55 0 55 34q0 41 -55 73h-6q-120 0 -192 31q-13 6 -10 15l12 32q4 12 15 7q72 -29 173 -29q88 0 137.5 34t49.5 94q0 32 -12 56t-39 42.5t-49 29.5t-63 28
q-4 1 -6 2l-5 2.5t-6 2.5q-41 17 -60 25.5t-50 27t-45.5 36.5t-26 46.5t-11.5 64.5q0 82 56 128t173 46q100 0 167 -29q12 -4 9 -14l-12 -31q-3 -12 -16 -7q-60 24 -144 24q-171 0 -171 -117q0 -17 4 -31.5t8.5 -25t16.5 -21.5l19 -17t25 -15l26.5 -13t31.5 -13.5t31 -13.5
q31 -13 35.5 -15l32.5 -14.5t34.5 -17t28 -18t28 -22t20.5 -24t18.5 -30t9 -34t4.5 -40.5z" />
    <glyph glyph-name="scedilla" unicode="&#x15f;" horiz-adv-x="453" 
d="M406 129q0 -130 -168 -138q54 -30 54 -74q0 -64 -92 -64q-26 0 -33 3q-8 3 -8 10v19q0 7 9 7h26q54 0 54 32q0 38 -51 66q-83 3 -145 29q-11 5 -9 12l10 29q4 12 14 7q65 -26 146 -26q69 0 102 21t33 67q0 23 -9 40t-32.5 31t-42 21.5t-58.5 22.5q-5 2 -23.5 8.5t-24.5 9
l-21.5 9t-21.5 10.5l-18 12t-17 14.5l-13 16.5t-11.5 20t-6 23.5t-2.5 28.5q0 129 173 129q91 0 154 -29q10 -5 7 -13l-9 -27q-3 -10 -14 -7q-62 25 -132 25q-64 0 -93 -18.5t-29 -59.5q0 -18 7.5 -33t16 -24t30.5 -20t35.5 -16t46.5 -16q39 -14 64 -26t51 -30.5t38.5 -43.5
t12.5 -58z" />
    <glyph glyph-name="Scaron" unicode="&#x160;" horiz-adv-x="546" 
d="M498 173q0 -86 -65.5 -134t-181.5 -48q-120 0 -192 31q-13 6 -10 15l12 32q4 12 15 7q72 -29 173 -29q88 0 137.5 34t49.5 94q0 32 -12 56t-39 42.5t-49 29.5t-63 28q-4 1 -6 2l-5 2.5t-6 2.5q-41 17 -60 25.5t-50 27t-45.5 36.5t-26 46.5t-11.5 64.5q0 82 56 128t173 46
q100 0 167 -29q12 -4 9 -14l-12 -31q-3 -12 -16 -7q-60 24 -144 24q-171 0 -171 -117q0 -17 4 -31.5t8.5 -25t16.5 -21.5l19 -17t25 -15l26.5 -13t31.5 -13.5t31 -13.5q31 -13 35.5 -15l32.5 -14.5t34.5 -17t28 -18t28 -22t20.5 -24t18.5 -30t9 -34t4.5 -40.5zM271 796
l72 59q11 9 17 9h29q7 0 8.5 -4.5t-2.5 -8.5l-91 -88q-7 -7 -19 -7h-30q-10 0 -18 7l-91 88q-5 4 -3 8.5t9 4.5h28q4 0 17 -9z" />
    <glyph glyph-name="scaron" unicode="&#x161;" horiz-adv-x="453" 
d="M406 129q0 -139 -189 -139q-96 0 -165 29q-11 5 -9 12l10 29q4 12 14 7q65 -26 146 -26q69 0 102 21t33 67q0 23 -9 40t-32.5 31t-42 21.5t-58.5 22.5q-5 2 -23.5 8.5t-24.5 9l-21.5 9t-21.5 10.5l-18 12t-17 14.5l-13 16.5t-11.5 20t-6 23.5t-2.5 28.5q0 129 173 129
q91 0 154 -29q10 -5 7 -13l-9 -27q-3 -10 -14 -7q-62 25 -132 25q-64 0 -93 -18.5t-29 -59.5q0 -18 7.5 -33t16 -24t30.5 -20t35.5 -16t46.5 -16q39 -14 64 -26t51 -30.5t38.5 -43.5t12.5 -58zM227 625l76 64q9 8 17 8h29q6 0 7.5 -4t-2.5 -8l-94 -92q-10 -8 -19 -8h-30
q-10 0 -18 8l-94 92q-5 4 -3.5 8t8.5 4h28q9 0 18 -8z" />
    <glyph glyph-name="Tcommaaccent" unicode="&#x162;" horiz-adv-x="534" 
d="M32 656v33q0 12 12 12h446q12 0 12 -12v-33q0 -13 -12 -13h-192v-630q0 -13 -13 -13h-36q-13 0 -13 13v630h-191q-13 0 -13 13zM302 -138l-34 -85q-4 -10 -12 -10h-9q-11 0 -7 11l21 85h-23q-11 0 -11 12v62q0 12 11 12h54q13 0 13 -12v-59q0 -9 -3 -16z" />
    <glyph glyph-name="tcommaaccent" unicode="&#x163;" horiz-adv-x="348" 
d="M304 460h-141v-306q0 -62 19 -84.5t71 -22.5q15 0 50 7q9 1 12 -10l8 -27q2 -9 -8 -12q-27 -11 -71 -11q-76 0 -107 35t-31 119v312h-78q-12 0 -12 12v28q0 13 12 13h79v133q0 12 12 12h32q12 0 12 -12v-133h141q12 0 12 -13v-28q0 -12 -12 -12zM226 -133l-28 -82
q-5 -9 -12 -9h-10q-8 0 -6 11l17 81h-21q-12 0 -12 11v58q0 12 12 12h51q12 0 12 -12v-54q0 -10 -3 -16z" />
    <glyph glyph-name="Tcaron" unicode="&#x164;" horiz-adv-x="534" 
d="M32 656v33q0 12 12 12h446q12 0 12 -12v-33q0 -13 -12 -13h-192v-630q0 -13 -13 -13h-36q-13 0 -13 13v630h-191q-13 0 -13 13zM266 796l72 59q11 9 17 9h29q7 0 8.5 -4.5t-2.5 -8.5l-91 -88q-7 -7 -19 -7h-30q-10 0 -18 7l-91 88q-5 4 -3 8.5t9 4.5h28q4 0 17 -9z" />
    <glyph glyph-name="tcaron" unicode="&#x165;" horiz-adv-x="433" 
d="M303 460h-141v-306q0 -62 19 -84.5t71 -22.5q15 0 50 7q9 1 12 -10l8 -27q2 -9 -8 -12q-28 -11 -71 -11q-76 0 -107 35t-31 119v312h-78q-12 0 -12 12v28q0 13 12 13h79v133q0 12 12 12h32q12 0 12 -12v-133h141q12 0 12 -13v-28q0 -12 -12 -12zM432 620l-35 -96
q-3 -9 -12 -9h-16q-9 0 -7 12l24 94h-20q-13 0 -13 12v68q0 12 13 12h56q12 0 12 -12v-64q0 -10 -2 -17z" />
    <glyph glyph-name="Tbar" unicode="&#x166;" horiz-adv-x="534" 
d="M32 656v33q0 12 13 12h445q12 0 12 -12v-33q0 -13 -12 -13h-192v-271h117q12 0 12 -11v-17q0 -12 -12 -12h-117v-319q0 -13 -13 -13h-36q-13 0 -13 13v319h-116q-12 0 -12 12v17q0 11 12 11h116v271h-191q-13 0 -13 13z" />
    <glyph glyph-name="tbar" unicode="&#x167;" horiz-adv-x="348" 
d="M304 460h-141v-168h128q12 0 12 -11v-16q0 -12 -12 -12h-128v-99q0 -62 19 -84.5t71 -22.5q15 0 50 7q9 1 12 -10l8 -27q2 -9 -8 -12q-27 -11 -71 -11q-76 0 -107 35t-31 119v105h-78q-12 0 -12 12v16q0 11 12 11h78v168h-78q-12 0 -12 12v28q0 13 12 13h79v133
q0 12 12 12h32q12 0 12 -12v-133h141q12 0 12 -13v-28q0 -12 -12 -12z" />
    <glyph glyph-name="Utilde" unicode="&#x168;" horiz-adv-x="686" 
d="M343 -12q-129 0 -192.5 66.5t-63.5 190.5v444q0 12 13 12h36q13 0 13 -12v-440q0 -204 194 -204t194 204v440q0 12 12 12h37q12 0 12 -12v-444q0 -124 -63 -190.5t-192 -66.5zM497 820q0 -31 -17 -50.5t-51 -19.5q-30 0 -82 20l-24 9q-44 16 -64 16q-23 0 -26 -18l-1 -12
q-1 -12 -15 -12h-17q-11 0 -11 16q0 31 16.5 50t50.5 19q22 0 82 -22l26 -10q39 -16 59 -16q25 0 29 24l1 10q1 12 16 12h16q12 0 12 -16z" />
    <glyph glyph-name="utilde" unicode="&#x169;" horiz-adv-x="575" 
d="M75 176v324q0 13 12 13h34q12 0 12 -13v-315q0 -141 135 -141q73 0 119.5 43t46.5 113v300q0 13 12 13h35q11 0 11 -13v-488q0 -12 -11 -12h-35q-12 0 -12 12v79q-18 -41 -61 -71t-117 -30q-91 0 -136 49t-45 137zM430 649q0 -29 -15.5 -46.5t-45.5 -17.5q-35 0 -79 19
l-22 9q-35 14 -53 14q-21 0 -25 -17l-3 -12q-3 -11 -15 -11h-17q-11 0 -11 15q0 29 15.5 46.5t45.5 17.5q28 0 79 -20l24 -9q38 -15 53 -15q21 0 25 21l2 10q1 11 14 11h18q10 0 10 -15z" />
    <glyph glyph-name="Umacron" unicode="&#x16a;" horiz-adv-x="686" 
d="M343 -12q-129 0 -192.5 66.5t-63.5 190.5v444q0 12 13 12h36q13 0 13 -12v-440q0 -204 194 -204t194 204v440q0 12 12 12h37q12 0 12 -12v-444q0 -124 -63 -190.5t-192 -66.5zM477 769h-269q-12 0 -12 11v23q0 11 12 11h269q12 0 12 -11v-23q0 -11 -12 -11z" />
    <glyph glyph-name="umacron" unicode="&#x16b;" horiz-adv-x="575" 
d="M75 176v324q0 13 12 13h34q12 0 12 -13v-315q0 -141 135 -141q73 0 119.5 43t46.5 113v300q0 13 12 13h35q11 0 11 -13v-488q0 -12 -11 -12h-35q-12 0 -12 12v79q-18 -41 -61 -71t-117 -30q-91 0 -136 49t-45 137zM421 593h-268q-11 0 -11 11v20q0 12 11 12h268
q12 0 12 -12v-20q0 -11 -12 -11z" />
    <glyph glyph-name="Ubreve" unicode="&#x16c;" horiz-adv-x="686" 
d="M343 -12q-129 0 -192.5 66.5t-63.5 190.5v444q0 12 13 12h36q13 0 13 -12v-440q0 -204 194 -204t194 204v440q0 12 12 12h37q12 0 12 -12v-444q0 -124 -63 -190.5t-192 -66.5zM343 754q-63 0 -95.5 29t-33.5 70q0 10 9 10h21q9 0 12 -9q7 -28 26 -43t61 -15q73 0 87 58
q1 9 11 9h20q10 0 10 -10q-1 -41 -33.5 -70t-94.5 -29z" />
    <glyph glyph-name="ubreve" unicode="&#x16d;" horiz-adv-x="575" 
d="M75 176v324q0 13 12 13h34q12 0 12 -13v-315q0 -141 135 -141q73 0 119.5 43t46.5 113v300q0 13 12 13h35q11 0 11 -13v-488q0 -12 -11 -12h-35q-12 0 -12 12v79q-18 -41 -61 -71t-117 -30q-91 0 -136 49t-45 137zM288 582q-65 0 -96.5 31t-32.5 73q0 10 9 10h21
q8 0 11 -9q7 -30 25.5 -47t62.5 -17q43 0 61.5 17t25.5 47q1 9 11 9h20q10 0 10 -10q-1 -42 -32.5 -73t-95.5 -31z" />
    <glyph glyph-name="Uring" unicode="&#x16e;" horiz-adv-x="686" 
d="M343 -12q-129 0 -192.5 66.5t-63.5 190.5v444q0 12 13 12h36q13 0 13 -12v-440q0 -204 194 -204t194 204v440q0 12 12 12h37q12 0 12 -12v-444q0 -124 -63 -190.5t-192 -66.5zM281 840q0 -55 62 -55q60 0 60 55q0 26 -15.5 40.5t-44.5 14.5q-62 0 -62 -55zM244 840
q0 40 26.5 65t72.5 25q45 0 72 -25t27 -65t-27 -65.5t-72 -25.5q-46 0 -72.5 25.5t-26.5 65.5z" />
    <glyph glyph-name="uring" unicode="&#x16f;" horiz-adv-x="575" 
d="M75 176v324q0 13 12 13h34q12 0 12 -13v-315q0 -141 135 -141q73 0 119.5 43t46.5 113v300q0 13 12 13h35q11 0 11 -13v-488q0 -12 -11 -12h-35q-12 0 -12 12v79q-18 -41 -61 -71t-117 -30q-91 0 -136 49t-45 137zM288 612q29 0 45 14.5t16 41.5q0 26 -16.5 40.5
t-45.5 14.5q-61 0 -61 -55q0 -56 62 -56zM287 758q45 0 72.5 -25t27.5 -65t-27 -65t-72 -25q-46 0 -73 25t-27 65t27 65t72 25z" />
    <glyph glyph-name="Uhungarumlaut" unicode="&#x170;" horiz-adv-x="686" 
d="M343 -12q-129 0 -192.5 66.5t-63.5 190.5v444q0 12 13 12h36q13 0 13 -12v-440q0 -204 194 -204t194 204v440q0 12 12 12h37q12 0 12 -12v-444q0 -124 -63 -190.5t-192 -66.5zM229 768l53 88q7 11 20 11h43q6 0 7.5 -5.5t-2.5 -10.5l-74 -87q-7 -8 -19 -8h-22
q-6 0 -7.5 4t1.5 8zM381 768l54 88q7 11 19 11h42q7 0 9 -5.5t-2 -10.5l-74 -87q-8 -8 -19 -8h-22q-13 0 -7 12z" />
    <glyph glyph-name="uhungarumlaut" unicode="&#x171;" horiz-adv-x="575" 
d="M75 176v324q0 13 12 13h34q12 0 12 -13v-315q0 -141 135 -141q73 0 119.5 43t46.5 113v300q0 13 12 13h35q11 0 11 -13v-488q0 -12 -11 -12h-35q-12 0 -12 12v79q-18 -41 -61 -71t-117 -30q-91 0 -136 49t-45 137zM175 597l55 90q7 10 19 10h41q6 0 8 -5t-2 -10l-76 -89
q-8 -8 -18 -8h-20q-6 0 -8 4t1 8zM326 597l54 90q6 10 19 10h41q6 0 8.5 -5.5t-1.5 -9.5l-76 -89q-7 -8 -19 -8h-19q-6 0 -8 4t1 8z" />
    <glyph glyph-name="Uogonek" unicode="&#x172;" horiz-adv-x="686" 
d="M343 -12q-129 0 -192.5 66.5t-63.5 190.5v444q0 12 13 12h36q13 0 13 -12v-440q0 -204 194 -204t194 204v440q0 12 12 12h37q12 0 12 -12v-444q0 -218 -186 -251q-60 -30 -60 -76q0 -32 54 -32q16 0 34 5q8 2 9 -3l5 -22q3 -8 -4 -11q-26 -12 -57 -12q-38 0 -62.5 16
t-24.5 49q0 43 52 80h-15z" />
    <glyph glyph-name="uogonek" unicode="&#x173;" horiz-adv-x="575" 
d="M75 176v324q0 13 12 13h34q12 0 12 -13v-315q0 -141 135 -141q73 0 119.5 43t46.5 113v300q0 13 12 13h35q11 0 11 -13v-488q0 -12 -11 -12h-14q-68 -30 -68 -75q0 -32 50 -32q13 0 33 4q9 2 10 -4l5 -20q1 -6 -4 -9q-18 -11 -55 -11q-83 0 -83 61q0 27 22.5 52t57.5 39
q-1 2 -1 7v79q-18 -41 -61 -71t-117 -30q-91 0 -136 49t-45 137z" />
    <glyph glyph-name="Wcircumflex" unicode="&#x174;" horiz-adv-x="1014" 
d="M486 701h42q14 0 17 -12l125 -427l55 -198h2l51 193l126 432q3 12 15 12h39q14 0 10 -15l-198 -672q-4 -14 -18 -14h-50q-14 0 -18 13l-129 430l-47 171h-2l-47 -171l-129 -430q-4 -13 -18 -13h-50q-14 0 -18 14l-197 672q-4 15 9 15h40q11 0 14 -12l126 -432l51 -192h2
l54 197l126 427q3 12 17 12zM580 764l-72 59l-74 -59q-10 -8 -18 -8h-29q-7 0 -8 4t4 9l91 87q8 8 18 8h30q9 0 19 -8l91 -87q5 -5 3.5 -9t-8.5 -4h-29q-7 0 -18 8z" />
    <glyph glyph-name="wcircumflex" unicode="&#x175;" horiz-adv-x="796" 
d="M379 513h37q11 0 14 -12l112 -344l27 -96h2l24 96l103 344q3 12 13 12h37q14 0 10 -14l-150 -488q-3 -11 -15 -11h-42q-12 0 -15 11l-107 326l-30 104h-2l-29 -104l-107 -326q-3 -11 -15 -11h-42q-11 0 -14 11l-152 488q-4 14 10 14h37q10 0 13 -12l104 -344l24 -96h2
l27 96l111 344q3 12 13 12zM475 593l-76 65l-77 -65q-9 -8 -18 -8h-28q-7 0 -8.5 4.5t3.5 8.5l94 91q8 8 18 8h30q11 0 19 -8l94 -91q5 -4 3.5 -8.5t-8.5 -4.5h-29q-8 0 -17 8z" />
    <glyph glyph-name="Ycircumflex" unicode="&#x176;" horiz-adv-x="625" 
d="M344 262v-249q0 -13 -13 -13h-37q-12 0 -12 13v249l-246 425q-3 5 -1 9.5t9 4.5h41q11 0 17 -11l151 -264l59 -110l60 110l151 264q5 11 17 11h41q15 0 8 -14zM385 764l-72 59l-74 -59q-10 -8 -18 -8h-29q-7 0 -8 4t4 9l91 87q8 8 18 8h30q9 0 19 -8l91 -87q5 -5 3.5 -9
t-8.5 -4h-29q-7 0 -18 8z" />
    <glyph glyph-name="ycircumflex" unicode="&#x177;" horiz-adv-x="486" 
d="M458 499l-167 -479q-24 -73 -57 -103.5t-95 -30.5q-37 0 -67 10q-12 4 -9 12l8 29q3 10 14 8q38 -7 51 -7q47 0 68.5 30.5t8.5 64.5l-182 466q-5 14 8 14h37q9 0 14 -12l105 -274l58 -164h2l52 164l92 274q3 12 13 12h37q14 0 9 -14zM320 593l-76 65l-77 -65
q-9 -8 -18 -8h-28q-7 0 -8.5 4.5t3.5 8.5l94 91q8 8 18 8h30q11 0 19 -8l94 -91q5 -4 3.5 -8.5t-8.5 -4.5h-29q-8 0 -17 8z" />
    <glyph glyph-name="Ydieresis" unicode="&#x178;" horiz-adv-x="625" 
d="M344 262v-249q0 -13 -13 -13h-37q-12 0 -12 13v249l-246 425q-3 5 -1 9.5t9 4.5h41q11 0 17 -11l151 -264l59 -110l60 110l151 264q5 11 17 11h41q15 0 8 -14zM255 835v-67q0 -12 -12 -12h-42q-11 0 -11 12v67q0 13 11 13h42q12 0 12 -13zM436 835v-67q0 -12 -13 -12h-41
q-12 0 -12 12v67q0 13 12 13h41q13 0 13 -13z" />
    <glyph glyph-name="Zacute" unicode="&#x179;" horiz-adv-x="583" 
d="M60 13v31q0 9 8 23l376 576h-364q-12 0 -12 13v33q0 12 12 12h422q12 0 12 -12v-32q0 -11 -7 -22l-374 -577h374q13 0 13 -12v-33q0 -13 -13 -13h-435q-12 0 -12 13zM261 768l62 86q9 12 20 12h52q6 0 7.5 -5.5t-2.5 -9.5l-92 -87q-10 -8 -19 -8h-21q-6 0 -8 4t1 8z" />
    <glyph glyph-name="zacute" unicode="&#x17a;" horiz-adv-x="480" 
d="M426 500v-23q0 -9 -5 -17l-294 -407h286q13 0 13 -11v-30q0 -12 -13 -12h-349q-12 0 -12 12v24q0 8 5 16l295 407h-282q-12 0 -12 12v29q0 13 12 13h344q12 0 12 -13zM196 597l62 90q7 10 20 10h52q7 0 8.5 -5.5t-3.5 -9.5l-93 -89q-10 -8 -19 -8h-20q-6 0 -8 4t1 8z" />
    <glyph glyph-name="Zdotaccent" unicode="&#x17b;" horiz-adv-x="583" 
d="M60 13v31q0 9 8 23l376 576h-364q-12 0 -12 13v33q0 12 12 12h422q12 0 12 -12v-32q0 -11 -7 -22l-374 -577h374q13 0 13 -12v-33q0 -13 -13 -13h-435q-12 0 -12 13zM324 841v-73q0 -12 -11 -12h-42q-13 0 -13 12v73q0 12 13 12h42q11 0 11 -12z" />
    <glyph glyph-name="zdotaccent" unicode="&#x17c;" horiz-adv-x="480" 
d="M426 500v-23q0 -9 -5 -17l-294 -407h286q13 0 13 -11v-30q0 -12 -13 -12h-349q-12 0 -12 12v24q0 8 5 16l295 407h-282q-12 0 -12 12v29q0 13 12 13h344q12 0 12 -13zM273 670v-73q0 -12 -11 -12h-42q-13 0 -13 12v73q0 13 13 13h42q11 0 11 -13z" />
    <glyph glyph-name="Zcaron" unicode="&#x17d;" horiz-adv-x="583" 
d="M60 13v31q0 9 8 23l376 576h-364q-12 0 -12 13v33q0 12 12 12h422q12 0 12 -12v-32q0 -11 -7 -22l-374 -577h374q13 0 13 -12v-33q0 -13 -13 -13h-435q-12 0 -12 13zM290 796l72 59q10 9 17 9h29q7 0 8.5 -4.5t-2.5 -8.5l-91 -88q-7 -7 -19 -7h-30q-10 0 -18 7l-91 88
q-5 4 -3 8.5t9 4.5h28q4 0 17 -9z" />
    <glyph glyph-name="zcaron" unicode="&#x17e;" horiz-adv-x="480" 
d="M426 500v-23q0 -9 -5 -17l-294 -407h286q13 0 13 -11v-30q0 -12 -13 -12h-349q-12 0 -12 12v24q0 8 5 16l295 407h-282q-12 0 -12 12v29q0 13 12 13h344q12 0 12 -13zM241 625l76 64q9 8 17 8h29q6 0 7.5 -4t-2.5 -8l-94 -92q-10 -8 -19 -8h-30q-10 0 -18 8l-94 92
q-5 4 -3.5 8t8.5 4h28q9 0 18 -8z" />
    <glyph glyph-name="longs" unicode="&#x17f;" horiz-adv-x="290" 
d="M171 563v-551q0 -12 -11 -12h-35q-12 0 -12 12v448h-76q-12 0 -12 12v28q0 13 12 13h76v52q0 70 33.5 106.5t97.5 36.5q39 0 66 -10q8 -3 8 -12l-1 -27q0 -13 -12 -9q-24 6 -54 6q-80 0 -80 -93z" />
    <glyph glyph-name="florin" unicode="&#x192;" horiz-adv-x="633" 
d="M359 556l-21 -163h143q11 0 10 -11l-3 -24q-2 -11 -12 -11h-144l-45 -335q-9 -64 -36 -95.5t-83 -31.5q-37 0 -61 9q-10 3 -8 12l6 29q2 12 14 9q26 -6 41 -6q60 0 70 79l43 330h-88q-12 0 -10 11l3 24q2 11 13 11h89l22 170q20 147 146 147q45 0 69 -10q12 -5 9 -13
l-7 -25q-4 -12 -14 -9q-37 7 -48 7q-86 0 -98 -104z" />
    <glyph glyph-name="Aringacute" unicode="&#x1fa;" horiz-adv-x="656" 
d="M230 758q0 60 54 82l50 69q9 12 20 12h52q6 0 7.5 -5.5t-2.5 -9.5l-63 -59q37 -5 58.5 -29.5t21.5 -59.5q0 -62 -56 -84l254 -661q4 -13 -10 -13h-41q-10 0 -15 11l-71 187h-322l-72 -187q-5 -11 -14 -11h-42q-13 0 -9 13l253 662q-53 22 -53 83zM186 255h283l-140 380
h-2zM267 758q0 -55 62 -55q60 0 60 55q0 26 -15.5 40.5t-44.5 14.5q-62 0 -62 -55z" />
    <glyph glyph-name="aringacute" unicode="&#x1fb;" horiz-adv-x="545" 
d="M468 344v-332q0 -12 -12 -12h-32q-11 0 -11 12v83q-51 -104 -198 -104q-82 0 -127 39t-45 105q0 35 12 61.5t37 44.5t54.5 29.5t75 18.5t88 10t101.5 4v39q0 68 -32.5 99t-108.5 31q-83 0 -164 -34q-12 -5 -15 7l-9 29q-3 9 7 14q85 37 185 37q102 0 148 -45t46 -136z
M411 198v58q-54 -2 -84 -3.5t-72 -6t-65 -12.5t-46.5 -20.5t-33.5 -31.5t-10 -45q0 -43 31.5 -70t92.5 -27q89 0 138 45t49 113zM172 668q0 32 18 55t50 31l50 73q7 10 20 10h52q7 0 8.5 -5.5t-3.5 -9.5l-70 -67q34 -7 54 -30t20 -57q0 -40 -27 -65t-72 -25q-46 0 -73 25
t-27 65zM272 612q29 0 45 14.5t16 41.5q0 26 -16.5 40.5t-45.5 14.5q-61 0 -61 -55q0 -56 62 -56z" />
    <glyph glyph-name="AEacute" unicode="&#x1fc;" horiz-adv-x="857" 
d="M777 331h-278v-273h292q12 0 12 -12v-33q0 -13 -12 -13h-341q-13 0 -13 13v174h-260l-93 -176q-6 -11 -16 -11h-45q-6 0 -8.5 4t0.5 9l364 675q7 13 19 13h390q12 0 12 -12v-33q0 -13 -12 -13h-289v-256h278q13 0 13 -13v-30q0 -13 -13 -13zM207 242h229v402h-17z
M414 768l62 86q9 12 20 12h52q6 0 7.5 -5.5t-2.5 -9.5l-92 -87q-10 -8 -19 -8h-21q-6 0 -8 4t1 8z" />
    <glyph glyph-name="aeacute" unicode="&#x1fd;" horiz-adv-x="898" 
d="M656 39q68 0 134 32q11 5 16 -7l11 -27q3 -7 -8 -14q-25 -15 -69 -25t-86 -10q-79 0 -135.5 37t-76.5 98q-48 -132 -220 -132q-90 0 -134.5 39t-44.5 106q0 31 9.5 54.5t24.5 39t41.5 26t53.5 16.5t67 9t75.5 4t85.5 2h9v65q-1 61 -33.5 90.5t-105.5 29.5q-84 0 -166 -34
q-12 -5 -15 7l-11 29q-4 9 8 14q76 37 183 37q162 0 181 -118q20 55 69 86.5t117 31.5q98 0 153 -65t55 -169v-46q0 -12 -13 -12h-365q5 -88 56 -141t134 -53zM632 474q-75 0 -119 -51t-48 -140h322v9q0 82 -39 132t-116 50zM410 199v40q-162 -5 -188 -8q-101 -12 -118 -65
q-4 -13 -4 -29q0 -95 126 -95q89 0 136.5 44.5t47.5 112.5zM393 597l62 90q7 10 20 10h52q7 0 8.5 -5.5t-3.5 -9.5l-93 -89q-10 -8 -19 -8h-20q-6 0 -8 4t1 8z" />
    <glyph glyph-name="Oslashacute" unicode="&#x1fe;" horiz-adv-x="709" 
d="M354 712q139 0 214 -89l57 62q9 9 16 3l20 -17q10 -8 2 -17l-65 -72q51 -93 51 -231q0 -174 -75.5 -267.5t-219.5 -93.5q-143 0 -214 88l-59 -64q-9 -8 -16 -1l-20 18q-7 7 -1 15l66 73q-50 86 -50 232q0 173 75.5 267t218.5 94zM354 47q116 0 173.5 78t57.5 226
q0 109 -33 181l-371 -409q61 -76 173 -76zM123 351q0 -116 33 -182l371 408q-59 78 -173 78q-115 0 -173 -78t-58 -226zM325 768l62 86q9 12 20 12h52q6 0 7.5 -5.5t-2.5 -9.5l-92 -87q-10 -8 -19 -8h-21q-6 0 -8 4t1 8z" />
    <glyph glyph-name="oslashacute" unicode="&#x1ff;" horiz-adv-x="587" 
d="M293 -10q112 0 175 70t63 197q0 114 -50 181l40 47q8 8 -2 15l-14 11q-9 7 -18 -3l-34 -39q-59 56 -160 56q-112 0 -174.5 -70t-62.5 -198q0 -117 50 -181l-41 -47q-7 -7 3 -16l13 -12q9 -7 18 2l36 41q59 -54 158 -54zM293 473q79 0 123 -46l-270 -306q-30 45 -30 136
q0 106 45.5 161t131.5 55zM293 42q-75 0 -121 44l269 306q30 -49 30 -135q0 -106 -46 -160.5t-132 -54.5zM254 597l62 90q7 10 20 10h52q7 0 8.5 -5.5t-3.5 -9.5l-93 -89q-10 -8 -19 -8h-20q-6 0 -8 4t1 8z" />
    <glyph glyph-name="Scommaaccent" unicode="&#x218;" horiz-adv-x="546" 
d="M498 173q0 -86 -65.5 -134t-181.5 -48q-120 0 -192 31q-13 6 -10 15l12 32q4 12 15 7q72 -29 173 -29q88 0 137.5 34t49.5 94q0 32 -12 56t-39 42.5t-49 29.5t-63 28q-4 1 -6 2l-5 2.5t-6 2.5q-41 17 -60 25.5t-50 27t-45.5 36.5t-26 46.5t-11.5 64.5q0 82 56 128t173 46
q100 0 167 -29q12 -4 9 -14l-12 -31q-3 -12 -16 -7q-60 24 -144 24q-171 0 -171 -117q0 -17 4 -31.5t8.5 -25t16.5 -21.5l19 -17t25 -15l26.5 -13t31.5 -13.5t31 -13.5q31 -13 35.5 -15l32.5 -14.5t34.5 -17t28 -18t28 -22t20.5 -24t18.5 -30t9 -34t4.5 -40.5zM318 -138
l-34 -85q-4 -10 -12 -10h-9q-11 0 -7 11l21 85h-23q-11 0 -11 12v62q0 12 11 12h54q13 0 13 -12v-59q0 -9 -3 -16z" />
    <glyph glyph-name="scommaaccent" unicode="&#x219;" horiz-adv-x="453" 
d="M406 129q0 -139 -189 -139q-96 0 -165 29q-11 5 -9 12l10 29q4 12 14 7q65 -26 146 -26q69 0 102 21t33 67q0 23 -9 40t-32.5 31t-42 21.5t-58.5 22.5q-5 2 -23.5 8.5t-24.5 9l-21.5 9t-21.5 10.5l-18 12t-17 14.5l-13 16.5t-11.5 20t-6 23.5t-2.5 28.5q0 129 173 129
q91 0 154 -29q10 -5 7 -13l-9 -27q-3 -10 -14 -7q-62 25 -132 25q-64 0 -93 -18.5t-29 -59.5q0 -18 7.5 -33t16 -24t30.5 -20t35.5 -16t46.5 -16q39 -14 64 -26t51 -30.5t38.5 -43.5t12.5 -58zM269 -133l-28 -82q-5 -9 -12 -9h-10q-8 0 -6 11l17 81h-21q-12 0 -12 11v58
q0 12 12 12h51q12 0 12 -12v-54q0 -10 -3 -16z" />
    <glyph glyph-name="uni021A" unicode="&#x21a;" horiz-adv-x="534" 
d="M32 656v33q0 12 12 12h446q12 0 12 -12v-33q0 -13 -12 -13h-192v-630q0 -13 -13 -13h-36q-13 0 -13 13v630h-191q-13 0 -13 13zM302 -138l-34 -85q-4 -10 -12 -10h-9q-11 0 -7 11l21 85h-23q-11 0 -11 12v62q0 12 11 12h54q13 0 13 -12v-59q0 -9 -3 -16z" />
    <glyph glyph-name="uni021B" unicode="&#x21b;" horiz-adv-x="348" 
d="M304 460h-141v-306q0 -62 19 -84.5t71 -22.5q15 0 50 7q9 1 12 -10l8 -27q2 -9 -8 -12q-27 -11 -71 -11q-76 0 -107 35t-31 119v312h-78q-12 0 -12 12v28q0 13 12 13h79v133q0 12 12 12h32q12 0 12 -12v-133h141q12 0 12 -13v-28q0 -12 -12 -12zM226 -133l-28 -82
q-5 -9 -12 -9h-10q-8 0 -6 11l17 81h-21q-12 0 -12 11v58q0 12 12 12h51q12 0 12 -12v-54q0 -10 -3 -16z" />
    <glyph glyph-name="dotlessj" unicode="&#x237;" horiz-adv-x="236" 
d="M94 19v481q0 13 11 13h35q12 0 12 -13v-487q0 -65 -24.5 -96t-79.5 -31q-31 0 -57 7q-10 3 -10 13l1 29q0 10 13 9q27 -5 43 -5q30 0 43 19t13 61z" />
    <glyph glyph-name="circumflex" unicode="&#x2c6;" horiz-adv-x="331" 
d="M242 593l-76 65l-77 -65q-9 -8 -18 -8h-28q-7 0 -8.5 4.5t3.5 8.5l94 91q8 8 18 8h30q11 0 19 -8l94 -91q5 -4 3.5 -8.5t-8.5 -4.5h-29q-8 0 -17 8z" />
    <glyph glyph-name="caron" unicode="&#x2c7;" horiz-adv-x="331" 
d="M166 625l76 64q9 8 17 8h29q6 0 7.5 -4t-2.5 -8l-94 -92q-10 -8 -19 -8h-30q-10 0 -18 8l-94 92q-5 4 -3.5 8t8.5 4h28q9 0 18 -8z" />
    <glyph glyph-name="uni02C9" unicode="&#x2c9;" horiz-adv-x="331" 
d="M299 593h-268q-11 0 -11 11v20q0 12 11 12h268q12 0 12 -12v-20q0 -11 -12 -11z" />
    <glyph glyph-name="breve" unicode="&#x2d8;" horiz-adv-x="331" 
d="M166 582q-65 0 -96.5 31t-32.5 73q0 10 9 10h21q8 0 11 -9q7 -30 25.5 -47t62.5 -17q43 0 61.5 17t25.5 47q1 9 11 9h20q10 0 10 -10q-1 -42 -32.5 -73t-95.5 -31z" />
    <glyph glyph-name="dotaccent" unicode="&#x2d9;" horiz-adv-x="331" 
d="M198 670v-73q0 -12 -11 -12h-42q-13 0 -13 12v73q0 13 13 13h42q11 0 11 -13z" />
    <glyph glyph-name="ring" unicode="&#x2da;" horiz-adv-x="331" 
d="M166 612q29 0 45 14.5t16 41.5q0 26 -16.5 40.5t-45.5 14.5q-61 0 -61 -55q0 -56 62 -56zM165 758q45 0 72.5 -25t27.5 -65t-27 -65t-72 -25q-46 0 -73 25t-27 65t27 65t72 25z" />
    <glyph glyph-name="ogonek" unicode="&#x2db;" horiz-adv-x="331" 
d="M169 12l33 -4q-87 -35 -87 -83q0 -32 50 -32q13 0 33 4q9 2 10 -4l5 -20q1 -6 -4 -9q-18 -11 -55 -11q-83 0 -83 61q0 30 28.5 58.5t69.5 39.5z" />
    <glyph glyph-name="tilde" unicode="&#x2dc;" horiz-adv-x="331" 
d="M308 649q0 -29 -15.5 -46.5t-45.5 -17.5q-35 0 -79 19l-22 9q-35 14 -53 14q-21 0 -25 -17l-3 -12q-3 -11 -15 -11h-17q-11 0 -11 15q0 29 15.5 46.5t45.5 17.5q28 0 79 -20l24 -9q37 -15 53 -15q21 0 25 21l2 10q1 11 14 11h18q10 0 10 -15z" />
    <glyph glyph-name="hungarumlaut" unicode="&#x2dd;" horiz-adv-x="331" 
d="M75 597l55 90q7 10 19 10h41q6 0 8 -5t-2 -10l-76 -89q-8 -8 -18 -8h-20q-6 0 -8 4t1 8zM226 597l54 90q6 10 19 10h41q6 0 8.5 -5.5t-1.5 -9.5l-76 -89q-7 -8 -19 -8h-19q-6 0 -8 4t1 8z" />
    <glyph glyph-name="uni037E" unicode="&#x37e;" horiz-adv-x="215" 
d="M69 219v69q0 12 12 12h53q12 0 12 -12v-69q0 -12 -11 -12h-54q-12 0 -12 12z" />
    <glyph glyph-name="uni0394" unicode="&#x394;" horiz-adv-x="672" 
d="M310 701h52q13 0 18 -14l227 -662q4 -11 -1.5 -18t-18.5 -7h-503q-11 0 -17 7.5t-2 17.5l227 662q5 14 18 14zM334 645l-202 -590h407l-201 590h-4z" />
    <glyph glyph-name="uni03A9" unicode="&#x3a9;" horiz-adv-x="791" 
d="M396 712q164 0 248.5 -83t84.5 -217q0 -108 -58 -182t-147 -116v-60l146 3q12 0 12 -11v-34q0 -12 -11 -12h-208v126q0 12 14 20q188 95 188 265q0 110 -67.5 177.5t-201.5 67.5q-135 0 -202 -67.5t-67 -177.5q0 -171 187 -265q15 -8 15 -20v-126h-208q-12 0 -12 12v34
q0 11 13 11l146 -3v60q-89 42 -147.5 116t-58.5 182q0 134 84.5 217t249.5 83z" />
    <glyph glyph-name="uni03BC" unicode="&#x3bc;" horiz-adv-x="579" 
d="M501 500v-325q0 -88 -45 -137.5t-137 -49.5q-132 0 -178 101v-187q0 -12 -12 -12h-34q-13 0 -13 12v598q0 13 13 13h34q12 0 12 -13v-302q0 -70 47 -113t119 -43q135 0 135 141v317q0 13 12 13h35q12 0 12 -13z" />
    <glyph glyph-name="pi" unicode="&#x3c0;" horiz-adv-x="674" 
d="M504 458v-310q0 -60 16 -82t61 -22q26 0 45 4q12 2 14 -10l3 -25q1 -10 -9 -12q-30 -8 -65 -8q-66 0 -94.5 35t-28.5 115v315h-205l-95 -446q-3 -12 -16 -12h-34q-13 0 -10 12l96 446h-120q-12 0 -12 12v30q0 13 12 13h567q12 0 12 -13v-30q0 -12 -12 -12h-125z" />
    <glyph glyph-name="Wgrave" unicode="&#x1e80;" horiz-adv-x="1014" 
d="M486 701h42q14 0 17 -12l125 -427l55 -198h2l51 193l126 432q3 12 15 12h39q14 0 10 -15l-198 -672q-4 -14 -18 -14h-50q-14 0 -18 13l-129 430l-47 171h-2l-47 -171l-129 -430q-4 -13 -18 -13h-50q-14 0 -18 14l-197 672q-4 15 9 15h40q11 0 14 -12l126 -432l51 -192h2
l54 197l126 427q3 12 17 12zM450 854l62 -86q3 -4 1 -8t-8 -4h-22q-8 0 -18 8l-92 87q-5 4 -3 9.5t9 5.5h51q11 0 20 -12z" />
    <glyph glyph-name="wgrave" unicode="&#x1e81;" horiz-adv-x="796" 
d="M379 513h37q11 0 14 -12l112 -344l27 -96h2l24 96l103 344q3 12 13 12h37q14 0 10 -14l-150 -488q-3 -11 -15 -11h-42q-12 0 -15 11l-107 326l-30 104h-2l-29 -104l-107 -326q-3 -11 -15 -11h-42q-11 0 -14 11l-152 488q-4 14 10 14h37q10 0 13 -12l104 -344l24 -96h2
l27 96l111 344q3 12 13 12zM347 687l62 -90q3 -4 1.5 -8t-7.5 -4h-21q-9 0 -19 8l-93 89q-5 4 -3.5 9.5t8.5 5.5h52q12 0 20 -10z" />
    <glyph glyph-name="Wacute" unicode="&#x1e82;" horiz-adv-x="1014" 
d="M486 701h42q14 0 17 -12l125 -427l55 -198h2l51 193l126 432q3 12 15 12h39q14 0 10 -15l-198 -672q-4 -14 -18 -14h-50q-14 0 -18 13l-129 430l-47 171h-2l-47 -171l-129 -430q-4 -13 -18 -13h-50q-14 0 -18 14l-197 672q-4 15 9 15h40q11 0 14 -12l126 -432l51 -192h2
l54 197l126 427q3 12 17 12zM502 768l62 86q9 12 20 12h52q6 0 7.5 -5.5t-2.5 -9.5l-92 -87q-10 -8 -19 -8h-21q-6 0 -8 4t1 8z" />
    <glyph glyph-name="wacute" unicode="&#x1e83;" horiz-adv-x="796" 
d="M379 513h37q11 0 14 -12l112 -344l27 -96h2l24 96l103 344q3 12 13 12h37q14 0 10 -14l-150 -488q-3 -11 -15 -11h-42q-12 0 -15 11l-107 326l-30 104h-2l-29 -104l-107 -326q-3 -11 -15 -11h-42q-11 0 -14 11l-152 488q-4 14 10 14h37q10 0 13 -12l104 -344l24 -96h2
l27 96l111 344q3 12 13 12zM387 597l62 90q7 10 20 10h52q7 0 8.5 -5.5t-3.5 -9.5l-93 -89q-10 -8 -19 -8h-20q-6 0 -8 4t1 8z" />
    <glyph glyph-name="Wdieresis" unicode="&#x1e84;" horiz-adv-x="1014" 
d="M486 701h42q14 0 17 -12l125 -427l55 -198h2l51 193l126 432q3 12 15 12h39q14 0 10 -15l-198 -672q-4 -14 -18 -14h-50q-14 0 -18 13l-129 430l-47 171h-2l-47 -171l-129 -430q-4 -13 -18 -13h-50q-14 0 -18 14l-197 672q-4 15 9 15h40q11 0 14 -12l126 -432l51 -192h2
l54 197l126 427q3 12 17 12zM450 835v-67q0 -12 -12 -12h-42q-11 0 -11 12v67q0 13 11 13h42q12 0 12 -13zM631 835v-67q0 -12 -13 -12h-41q-12 0 -12 12v67q0 13 12 13h41q13 0 13 -13z" />
    <glyph glyph-name="wdieresis" unicode="&#x1e85;" horiz-adv-x="796" 
d="M379 513h37q11 0 14 -12l112 -344l27 -96h2l24 96l103 344q3 12 13 12h37q14 0 10 -14l-150 -488q-3 -11 -15 -11h-42q-12 0 -15 11l-107 326l-30 104h-2l-29 -104l-107 -326q-3 -11 -15 -11h-42q-11 0 -14 11l-152 488q-4 14 10 14h37q10 0 13 -12l104 -344l24 -96h2
l27 96l111 344q3 12 13 12zM342 669v-72q0 -12 -11 -12h-39q-12 0 -12 12v72q0 12 12 12h39q11 0 11 -12zM516 669v-72q0 -12 -11 -12h-39q-12 0 -12 12v72q0 12 12 12h39q11 0 11 -12z" />
    <glyph glyph-name="Ygrave" unicode="&#x1ef2;" horiz-adv-x="625" 
d="M344 262v-249q0 -13 -13 -13h-37q-12 0 -12 13v249l-246 425q-3 5 -1 9.5t9 4.5h41q11 0 17 -11l151 -264l59 -110l60 110l151 264q5 11 17 11h41q15 0 8 -14zM264 854l62 -86q3 -4 1 -8t-8 -4h-22q-8 0 -18 8l-92 87q-5 4 -3 9.5t9 5.5h51q11 0 20 -12z" />
    <glyph glyph-name="ygrave" unicode="&#x1ef3;" horiz-adv-x="486" 
d="M458 499l-167 -479q-24 -73 -57 -103.5t-95 -30.5q-37 0 -67 10q-12 4 -9 12l8 29q3 10 14 8q38 -7 51 -7q47 0 68.5 30.5t8.5 64.5l-182 466q-5 14 8 14h37q9 0 14 -12l105 -274l58 -164h2l52 164l92 274q3 12 13 12h37q14 0 9 -14zM185 687l62 -90q3 -4 1.5 -8t-7.5 -4
h-21q-9 0 -19 8l-93 89q-5 4 -3.5 9.5t8.5 5.5h52q12 0 20 -10z" />
    <glyph glyph-name="figuredash" unicode="&#x2012;" horiz-adv-x="548" 
d="M471 246h-395q-11 0 -11 12v28q0 11 11 11h395q12 0 12 -11v-28q0 -12 -12 -12z" />
    <glyph glyph-name="endash" unicode="&#x2013;" horiz-adv-x="517" 
d="M459 233h-403q-10 0 -10 11v29q0 11 11 11h402q12 0 12 -11v-29q0 -11 -12 -11z" />
    <glyph glyph-name="emdash" unicode="&#x2014;" horiz-adv-x="762" 
d="M704 233h-648q-10 0 -10 11v29q0 11 11 11h647q13 0 13 -11v-29q0 -11 -13 -11z" />
    <glyph glyph-name="quoteleft" unicode="&#x2018;" horiz-adv-x="201" 
d="M67 598l35 96q3 9 12 9h15q10 0 8 -11l-24 -94h20q12 0 12 -13v-68q0 -12 -12 -12h-56q-13 0 -13 12v65q0 10 3 16z" />
    <glyph glyph-name="quoteright" unicode="&#x2019;" horiz-adv-x="201" 
d="M135 608l-35 -96q-3 -9 -12 -9h-16q-9 0 -7 12l24 94h-20q-13 0 -13 12v68q0 12 13 12h56q12 0 12 -12v-64q0 -10 -2 -17z" />
    <glyph glyph-name="quotesinglbase" unicode="&#x201a;" horiz-adv-x="201" 
d="M135 -1l-35 -96q-3 -9 -12 -9h-16q-9 0 -7 12l24 94h-20q-13 0 -13 12v68q0 12 13 12h56q12 0 12 -12v-64q0 -10 -2 -17z" />
    <glyph glyph-name="quotedblleft" unicode="&#x201c;" horiz-adv-x="351" 
d="M217 598l35 96q3 9 12 9h15q11 0 7 -11l-24 -94h21q12 0 12 -13v-68q0 -12 -12 -12h-57q-12 0 -12 12v65q0 7 3 16zM67 598l35 96q3 9 12 9h15q10 0 8 -11l-25 -94h21q12 0 12 -13v-68q0 -12 -12 -12h-56q-13 0 -13 12v65q0 7 3 16z" />
    <glyph glyph-name="quotedblright" unicode="&#x201d;" horiz-adv-x="351" 
d="M135 608l-35 -96q-4 -9 -12 -9h-16q-9 0 -7 11l24 95h-20q-13 0 -13 11v69q0 12 13 12h56q12 0 12 -12v-65q0 -10 -2 -16zM285 608l-35 -96q-3 -9 -12 -9h-16q-11 0 -7 11l25 95h-22q-11 0 -11 11v69q0 12 11 12h57q12 0 12 -12v-65q0 -10 -2 -16z" />
    <glyph glyph-name="quotedblbase" unicode="&#x201e;" horiz-adv-x="351" 
d="M135 -1l-35 -96q-4 -9 -12 -9h-16q-9 0 -7 11l24 95h-20q-13 0 -13 11v69q0 12 13 12h56q12 0 12 -12v-65q0 -10 -2 -16zM285 -1l-35 -96q-3 -9 -12 -9h-16q-11 0 -7 11l25 95h-22q-11 0 -11 11v69q0 12 11 12h57q12 0 12 -12v-65q0 -10 -2 -16z" />
    <glyph glyph-name="dagger" unicode="&#x2020;" horiz-adv-x="513" 
d="M469 500v-27q0 -12 -12 -12h-172v-559q0 -12 -12 -12h-34q-11 0 -11 12v559h-173q-12 0 -12 12v27q0 13 12 13h173v177q0 11 11 11h34q12 0 12 -11v-177h172q12 0 12 -13z" />
    <glyph glyph-name="daggerdbl" unicode="&#x2021;" horiz-adv-x="514" 
d="M470 118v-27q0 -12 -12 -12h-172v-177q0 -12 -12 -12h-34q-12 0 -12 12v177h-172q-12 0 -12 12v27q0 12 12 12h172v331h-172q-12 0 -12 12v27q0 13 12 13h172v177q0 11 12 11h34q12 0 12 -11v-177h172q12 0 12 -13v-27q0 -12 -12 -12h-172v-331h172q12 0 12 -12z" />
    <glyph glyph-name="bullet" unicode="&#x2022;" horiz-adv-x="360" 
d="M180 141q-54 0 -90 36.5t-36 91.5t36 91t90 36t90 -36t36 -91t-36 -91.5t-90 -36.5z" />
    <glyph glyph-name="onedotenleader" unicode="&#x2024;" horiz-adv-x="215" 
d="M69 12v69q0 12 12 12h53q12 0 12 -12v-69q0 -12 -11 -12h-54q-12 0 -12 12z" />
    <glyph glyph-name="twodotenleader" unicode="&#x2025;" horiz-adv-x="426" 
d="M280 12v69q0 12 12 12h53q12 0 12 -12v-69q0 -12 -11 -12h-54q-12 0 -12 12zM69 12v69q0 12 12 12h53q12 0 12 -12v-69q0 -12 -11 -12h-54q-12 0 -12 12z" />
    <glyph glyph-name="ellipsis" unicode="&#x2026;" horiz-adv-x="645" 
d="M69 12v69q0 12 12 12h53q12 0 12 -12v-69q0 -12 -11 -12h-54q-12 0 -12 12zM284 12v69q0 12 12 12h54q11 0 11 -12v-69q0 -12 -11 -12h-54q-12 0 -12 12zM499 12v69q0 12 12 12h54q11 0 11 -12v-69q0 -12 -11 -12h-54q-12 0 -12 12z" />
    <glyph glyph-name="perthousand" unicode="&#x2030;" horiz-adv-x="1298" 
d="M695 689l-428 -679q-7 -10 -17 -10h-35q-15 0 -7 13l427 679q5 9 18 9h36q13 0 6 -12zM48 503q0 99 42 152t116 53q73 0 115.5 -53t42.5 -152t-42 -152t-116 -53t-116 52.5t-42 152.5zM311 503q0 75 -27.5 115.5t-77.5 40.5q-51 0 -78.5 -40.5t-27.5 -115.5
q0 -76 27.5 -116t78.5 -40t78 40t27 116zM539 199q0 99 42.5 152t116.5 53t116 -53t42 -152t-42.5 -152t-116.5 -53q-73 0 -115.5 53t-42.5 152zM803 199q0 76 -27 116t-78 40q-105 0 -105 -156t105 -156q51 0 78 40t27 116zM933 199q0 99 42.5 152t115.5 53q74 0 116 -52.5
t42 -152.5q0 -99 -42 -152t-116 -53q-73 0 -115.5 53t-42.5 152zM1197 199q0 76 -27.5 116t-78.5 40t-78 -40t-27 -116t27 -116t78 -40t78.5 40t27.5 116z" />
    <glyph glyph-name="guilsinglleft" unicode="&#x2039;" horiz-adv-x="237" 
d="M39 265q0 4 2 7l84 133q5 10 16 10h30q7 0 9 -4.5t-2 -9.5l-85 -136l85 -135q4 -5 2 -9t-9 -4h-30q-10 0 -16 9l-84 133q-2 3 -2 6z" />
    <glyph glyph-name="guilsinglright" unicode="&#x203a;" horiz-adv-x="237" 
d="M198 265q0 -3 -2 -6l-84 -133q-6 -9 -15 -9h-30q-15 0 -7 13l85 135l-85 136q-9 14 7 14h30q10 0 15 -10l84 -133q2 -3 2 -7z" />
    <glyph glyph-name="exclamdbl" unicode="&#x203c;" horiz-adv-x="546" 
d="M98 12v71q0 11 11 11h58q11 0 11 -11v-71q0 -12 -11 -12h-58q-11 0 -11 12zM151 190h-26q-12 0 -12 13l-11 486q0 12 12 12h48q12 0 12 -12l-11 -486q0 -13 -12 -13zM368 12v71q0 11 11 11h58q11 0 11 -11v-71q0 -12 -11 -12h-58q-11 0 -11 12zM421 190h-26q-12 0 -12 13
l-11 486q0 12 12 12h48q12 0 12 -12l-11 -486q0 -13 -12 -13z" />
    <glyph glyph-name="fraction" unicode="&#x2044;" horiz-adv-x="73" 
d="M280 689l-428 -679q-7 -10 -17 -10h-35q-16 0 -7 13l427 679q5 9 18 9h35q15 0 7 -12z" />
    <glyph glyph-name="zero.superior" unicode="&#x2070;" 
d="M207 482q-86 0 -131.5 58t-45.5 161t45.5 161t131.5 58t131.5 -58t45.5 -161q0 -102 -45.5 -160.5t-131.5 -58.5zM207 531q122 0 122 170t-122 170q-123 0 -123 -170t123 -170z" />
    <glyph glyph-name="four.superior" unicode="&#x2074;" 
d="M263 842l-174 -209h174v209zM374 584h-59v-83q0 -14 -14 -14h-24q-14 0 -14 14v83h-223q-14 0 -14 15v20q0 7 6 14l228 273q9 9 16 9h25q14 0 14 -14v-268h59q14 0 14 -14v-20q0 -15 -14 -15z" />
    <glyph glyph-name="five.superior" unicode="&#x2075;" 
d="M354 624q0 -70 -42.5 -106t-122.5 -36q-86 0 -132 24q-14 7 -10 16l9 22q6 12 17 8q53 -22 114 -22q113 0 113 93q0 43 -23.5 64.5t-81.5 21.5q-36 0 -65.5 -8.5t-39.5 -8.5q-7 -1 -17 4l-10 6q-10 4 -9 14q13 135 13 183q0 16 18 16h226q15 0 15 -14v-21q0 -14 -15 -14
h-195q-2 -82 -9 -130q49 18 97 18q150 0 150 -130z" />
    <glyph glyph-name="six.superior" unicode="&#x2076;" 
d="M318 859q-40 14 -78 14q-65 0 -102 -43.5t-38 -120.5q13 30 46.5 50t83.5 20q74 0 111.5 -40.5t37.5 -103.5q0 -70 -41 -111.5t-115 -41.5q-87 0 -132 56t-45 153q0 100 50 164.5t139 64.5q59 0 98 -18q13 -5 9 -15l-8 -21q-4 -10 -16 -7zM222 530q50 0 78 28t28 76
q0 46 -26 72t-79 26q-54 0 -82.5 -30.5t-28.5 -70.5q0 -41 28 -71t82 -30z" />
    <glyph glyph-name="seven.superior" unicode="&#x2077;" 
d="M355 901v-17q0 -8 -7 -17q-63 -86 -113.5 -190t-54.5 -176q0 -14 -14 -14h-27q-13 0 -13 14q4 76 53 176.5t116 188.5h-229q-14 0 -14 14v21q0 14 14 14h274q15 0 15 -14z" />
    <glyph glyph-name="eight.superior" unicode="&#x2078;" 
d="M207 482q-79 0 -121.5 32.5t-42.5 84.5q0 82 102 110q-91 27 -91 102q0 50 39 79.5t114 29.5t113.5 -29.5t38.5 -79.5q0 -75 -91 -102q103 -28 103 -110q0 -52 -43 -84.5t-121 -32.5zM207 688q-111 -22 -111 -86q0 -32 30 -53.5t81 -21.5t81 21.5t30 53.5q0 64 -111 86z
M207 729q99 23 99 82q0 29 -25.5 46.5t-73.5 17.5q-49 0 -74.5 -17.5t-25.5 -46.5q0 -59 100 -82z" />
    <glyph glyph-name="nine.superior" unicode="&#x2079;" 
d="M95 543q35 -15 78 -15q65 0 102.5 44t38.5 121q-14 -30 -47.5 -50t-83.5 -20q-74 0 -111.5 40.5t-37.5 103.5q0 70 40.5 111.5t114.5 41.5q88 0 133.5 -56t45.5 -153q0 -104 -50 -166.5t-140 -62.5q-59 0 -97 18q-13 5 -9 15l8 21q4 12 15 7zM191 872q-49 0 -77.5 -28
t-28.5 -76q0 -46 26.5 -72t78.5 -26q54 0 82.5 30.5t28.5 70.5q0 41 -27.5 71t-82.5 30z" />
    <glyph glyph-name="parenleft.superior" unicode="&#x207d;" horiz-adv-x="226" 
d="M61 701q0 65 25.5 122.5t65.5 92.5q8 6 12 6h27q6 0 7.5 -3.5t-1.5 -6.5q-82 -82 -82 -211t82 -211q3 -3 1.5 -6.5t-7.5 -3.5h-27q-4 0 -12 6q-40 35 -65.5 92.5t-25.5 122.5z" />
    <glyph glyph-name="parenright.superior" unicode="&#x207e;" horiz-adv-x="226" 
d="M164 701q0 -63 -26 -120t-64 -95q-6 -6 -12 -6h-27q-5 0 -7 3.5t1 6.5q82 90 82 211q0 129 -82 211q-4 3 -1.5 6.5t7.5 3.5h27q7 0 12 -6q90 -98 90 -215z" />
    <glyph glyph-name="n.superior" unicode="&#x207f;" horiz-adv-x="482" 
d="M77 916h24q15 0 15 -14v-61q37 80 153 80q75 0 112.5 -41t37.5 -112v-266q0 -15 -14 -15h-25q-15 0 -15 15v258q0 111 -110 111q-62 0 -100.5 -36t-38.5 -91v-242q0 -15 -14 -15h-25q-14 0 -14 15v400q0 14 14 14z" />
    <glyph glyph-name="zero.inferior" unicode="&#x2080;" 
d="M207 -219q-86 0 -131.5 58t-45.5 161t45.5 161t131.5 58t131.5 -58t45.5 -161q0 -102 -45.5 -160.5t-131.5 -58.5zM207 -170q122 0 122 170t-122 170q-123 0 -123 -170t123 -170z" />
    <glyph glyph-name="one.inferior" unicode="&#x2081;" 
d="M207 144l-90 -61q-13 -9 -21 3l-13 19q-7 10 4 18l117 85q8 6 18 6h23q14 0 14 -14v-400q0 -14 -14 -14h-24q-14 0 -14 14v344z" />
    <glyph glyph-name="two.inferior" unicode="&#x2082;" 
d="M106 97q0 -4 1 -14t1 -16q0 -14 -14 -14h-24q-10 0 -13 12q-3 11 -3 34q0 54 35 87t113 33q150 0 150 -129q0 -119 -215 -255h211q14 0 14 -14v-21q0 -14 -14 -14h-281q-14 0 -14 14v19q0 9 9 15q123 85 167 129q69 68 69 125q0 39 -21.5 61t-75.5 22q-95 0 -95 -74z" />
    <glyph glyph-name="three.inferior" unicode="&#x2083;" 
d="M194 -17h-47q-14 0 -14 14v20q0 14 14 14h48q42 0 66 18t24 54q0 68 -104 68q-50 0 -104 -21q-15 -5 -19 7l-9 21q-4 9 9 16q54 25 128 25t113.5 -28.5t39.5 -83.5q0 -68 -64 -94q74 -27 74 -105q0 -62 -42.5 -94.5t-118.5 -32.5q-80 0 -134 26q-13 7 -10 15l9 22
q5 14 17 9q58 -24 114 -24q52 0 81 21t29 59q0 74 -100 74z" />
    <glyph glyph-name="four.inferior" unicode="&#x2084;" 
d="M263 141l-174 -209h174v209zM374 -117h-59v-83q0 -14 -14 -14h-24q-14 0 -14 14v83h-223q-14 0 -14 15v20q0 6 6 14l228 273q9 9 16 9h25q14 0 14 -14v-268h59q14 0 14 -14v-20q0 -15 -14 -15z" />
    <glyph glyph-name="five.inferior" unicode="&#x2085;" 
d="M354 -77q0 -70 -42.5 -106t-122.5 -36q-86 0 -132 24q-14 7 -10 16l9 22q6 12 17 8q53 -22 114 -22q113 0 113 93q0 43 -23.5 64.5t-81.5 21.5q-36 0 -65.5 -8.5t-39.5 -8.5q-7 -1 -17 4l-10 6q-10 4 -9 14q13 135 13 183q0 16 18 16h226q15 0 15 -14v-21q0 -14 -15 -14
h-195q-2 -82 -9 -130q49 18 97 18q150 0 150 -130z" />
    <glyph glyph-name="six.inferior" unicode="&#x2086;" 
d="M318 158q-40 14 -78 14q-65 0 -102 -43.5t-38 -120.5q13 30 46.5 50t83.5 20q74 0 111.5 -40.5t37.5 -103.5q0 -70 -41 -111.5t-115 -41.5q-87 0 -132 56t-45 153q0 100 50 164.5t139 64.5q59 0 98 -18q13 -5 9 -15l-8 -21q-4 -10 -16 -7zM222 -171q50 0 78 28t28 76
q0 46 -26 72t-79 26q-54 0 -82.5 -30.5t-28.5 -70.5q0 -41 28 -71t82 -30z" />
    <glyph glyph-name="seven.inferior" unicode="&#x2087;" 
d="M355 200v-17q0 -8 -7 -17q-63 -86 -113.5 -190t-54.5 -176q0 -14 -14 -14h-27q-13 0 -13 14q4 76 53 176.5t116 188.5h-229q-14 0 -14 14v21q0 14 14 14h274q15 0 15 -14z" />
    <glyph glyph-name="eight.inferior" unicode="&#x2088;" 
d="M207 -219q-79 0 -121.5 32.5t-42.5 84.5q0 82 102 110q-91 27 -91 102q0 50 39 79.5t114 29.5t113.5 -29.5t38.5 -79.5q0 -75 -91 -102q103 -28 103 -110q0 -52 -43 -84.5t-121 -32.5zM207 -13q-111 -22 -111 -86q0 -32 30 -53.5t81 -21.5t81 21.5t30 53.5q0 64 -111 86z
M207 28q99 23 99 82q0 29 -25.5 46.5t-73.5 17.5q-49 0 -74.5 -17.5t-25.5 -46.5q0 -59 100 -82z" />
    <glyph glyph-name="nine.inferior" unicode="&#x2089;" 
d="M95 -158q35 -15 78 -15q65 0 102.5 44t38.5 121q-14 -30 -47.5 -50t-83.5 -20q-74 0 -111.5 40.5t-37.5 103.5q0 70 40.5 111.5t114.5 41.5q88 0 133.5 -56t45.5 -153q0 -104 -50 -166.5t-140 -62.5q-59 0 -97 18q-13 5 -9 15l8 21q4 12 15 7zM191 171q-49 0 -77.5 -28
t-28.5 -76q0 -46 26.5 -72t78.5 -26q54 0 82.5 30.5t28.5 70.5q0 41 -27.5 71t-82.5 30z" />
    <glyph glyph-name="parenleft.inferior" unicode="&#x208d;" horiz-adv-x="226" 
d="M61 0q0 65 25.5 122.5t65.5 92.5q8 6 12 6h27q6 0 7.5 -3.5t-1.5 -6.5q-82 -82 -82 -211t82 -211q3 -3 1.5 -6.5t-7.5 -3.5h-27q-4 0 -12 6q-40 35 -65.5 92.5t-25.5 122.5z" />
    <glyph glyph-name="parenright.inferior" unicode="&#x208e;" horiz-adv-x="226" 
d="M164 0q0 -64 -26 -120.5t-64 -94.5q-6 -6 -12 -6h-27q-5 0 -7 3.5t1 6.5q82 90 82 211q0 129 -82 211q-4 3 -1.5 6.5t7.5 3.5h27q7 0 12 -6q90 -98 90 -215z" />
    <glyph glyph-name="Euro" unicode="&#x20ac;" horiz-adv-x="642" 
d="M38 301h74q-2 32 -2 50q0 30 2 48h-74q-11 0 -11 12v25q0 11 11 11h79q21 116 101 190.5t210 74.5q98 0 170 -41q11 -5 7 -14l-14 -30q-5 -13 -17 -7q-64 34 -141 34q-106 0 -170.5 -57.5t-82.5 -149.5h293q11 0 8 -13l-8 -23q-4 -12 -16 -12h-282q-2 -15 -2 -48
q0 -20 2 -50h232q11 0 7 -12l-7 -23q-5 -12 -17 -12h-209q18 -92 82.5 -149.5t172.5 -57.5q78 0 144 36q10 4 16 -8l14 -31q3 -8 -6 -13q-74 -41 -173 -41q-132 0 -212.5 74t-102.5 190h-78q-11 0 -11 12v24q0 11 11 11z" />
    <glyph glyph-name="afii61289" unicode="&#x2113;" horiz-adv-x="478" 
d="M297 45q38 0 67 9q11 4 13 -7l7 -29q2 -9 -9 -12q-33 -13 -84 -13q-77 0 -115.5 38t-38.5 121v69q-48 -19 -98 -28q-9 -2 -12 6l-7 27q-3 9 6 11q56 12 111 34v206q0 122 32 178.5t123 56.5q70 0 106 -41.5t36 -113.5q0 -104 -68.5 -182t-171.5 -129v-88
q0 -64 23.5 -88.5t79.5 -24.5zM194 486v-188q84 45 137.5 111t53.5 149q0 108 -89 108q-64 0 -83 -41t-19 -139z" />
    <glyph glyph-name="trademark" unicode="&#x2122;" horiz-adv-x="677" 
d="M249 662h-76v-276q0 -8 -9 -8h-27q-8 0 -8 8v276h-76q-9 0 -9 9v22q0 8 9 8h196q8 0 8 -8v-22q0 -9 -8 -9zM471 470q-6 0 -10 6l-102 160v-250q0 -8 -8 -8h-26q-9 0 -9 8v307q0 8 9 8h29q8 0 12 -6l105 -169l106 169q2 6 11 6h29q8 0 8 -8v-307q0 -8 -8 -8h-26q-8 0 -8 8
v249l-101 -159q-4 -6 -11 -6z" />
    <glyph glyph-name="Omega" unicode="&#x2126;" horiz-adv-x="791" 
d="M396 712q164 0 248.5 -83t84.5 -217q0 -108 -58 -182t-147 -116v-60l146 3q12 0 12 -11v-34q0 -12 -11 -12h-208v126q0 12 14 20q188 95 188 265q0 110 -67.5 177.5t-201.5 67.5q-135 0 -202 -67.5t-67 -177.5q0 -171 187 -265q15 -8 15 -20v-126h-208q-12 0 -12 12v34
q0 11 13 11l146 -3v60q-89 42 -147.5 116t-58.5 182q0 134 84.5 217t249.5 83z" />
    <glyph glyph-name="estimated" unicode="&#x212e;" horiz-adv-x="856" 
d="M820 335h-628q-5 0 -5 -4v-185q0 -19 8 -29q83 -96 240 -96q158 0 252 109h58q-55 -65 -136 -102t-175 -37q-165 0 -279.5 105t-114.5 253q0 150 112.5 254.5t277.5 104.5t277.5 -104.5t112.5 -254.5v-14zM673 365v186q0 24 -11 36q-93 91 -231 91q-141 0 -235 -97
q-9 -9 -9 -29v-187q0 -6 5 -6h476q5 0 5 6z" />
    <glyph glyph-name="onethird" unicode="&#x2153;" horiz-adv-x="979" 
d="M691 689l-428 -679q-7 -10 -17 -10h-35q-16 0 -7 13l427 679q5 9 18 9h35q14 0 7 -12zM713 197h47q100 0 100 -74q0 -38 -29 -59t-81 -21q-56 0 -114 24q-12 5 -17 -9l-9 -22q-3 -8 10 -15q54 -26 134 -26q76 0 118.5 32.5t42.5 94.5q0 78 -74 105q64 26 64 94
q0 55 -39.5 83.5t-113.5 28.5t-128 -25q-13 -7 -9 -16l9 -21q4 -12 19 -7q54 21 104 21q104 0 104 -68q0 -36 -24 -54t-66 -18h-48q-14 0 -14 -14v-20q0 -14 14 -14zM207 631l-90 -61q-13 -9 -21 3l-13 19q-7 10 4 18l117 85q8 6 18 6h23q14 0 14 -14v-400q0 -14 -14 -14
h-24q-14 0 -14 14v344z" />
    <glyph glyph-name="twothirds" unicode="&#x2154;" horiz-adv-x="979" 
d="M106 584q0 -4 1 -14t1 -16q0 -14 -14 -14h-24q-10 0 -13 12q-3 10 -3 34q0 54 35 87t113 33q150 0 150 -129q0 -119 -215 -255h211q14 0 14 -14v-21q0 -14 -14 -14h-281q-14 0 -14 14v19q0 9 9 15q123 85 167 129q69 68 69 125q0 39 -21.5 61t-75.5 22q-95 0 -95 -74z
M741 689l-428 -679q-7 -10 -17 -10h-35q-16 0 -7 13l427 679q5 9 18 9h35q14 0 7 -12zM760 197h-47q-14 0 -14 14v20q0 14 14 14h48q42 0 66 18t24 54q0 68 -104 68q-50 0 -104 -21q-15 -5 -19 7l-9 21q-4 9 9 16q54 25 128 25t113.5 -28.5t39.5 -83.5q0 -68 -64 -94
q74 -27 74 -105q0 -62 -42.5 -94.5t-118.5 -32.5q-80 0 -134 26q-13 7 -10 15l9 22q5 14 17 9q58 -24 114 -24q52 0 81 21t29 59q0 74 -100 74z" />
    <glyph glyph-name="oneeighth" unicode="&#x215b;" horiz-adv-x="979" 
d="M706 689l-428 -679q-7 -10 -17 -10h-35q-16 0 -7 13l427 679q5 9 18 9h35q15 0 7 -12zM773 -5q78 0 121 32.5t43 84.5q0 82 -103 110q91 27 91 102q0 50 -38.5 79.5t-113.5 29.5t-114 -29.5t-39 -79.5q0 -75 91 -102q-102 -28 -102 -110q0 -52 42.5 -84.5t121.5 -32.5z
M773 201q111 -22 111 -86q0 -32 -30 -53.5t-81 -21.5t-81 21.5t-30 53.5q0 64 111 86zM773 242q-100 23 -100 82q0 29 25.5 46.5t74.5 17.5q48 0 73.5 -17.5t25.5 -46.5q0 -59 -99 -82zM207 631l-90 -61q-13 -9 -21 3l-13 19q-7 10 4 18l117 85q8 6 18 6h23q14 0 14 -14
v-400q0 -14 -14 -14h-24q-14 0 -14 14v344z" />
    <glyph glyph-name="threeeighths" unicode="&#x215c;" horiz-adv-x="979" 
d="M194 470h-47q-14 0 -14 14v20q0 14 14 14h48q42 0 66 18t24 54q0 68 -104 68q-50 0 -104 -21q-15 -5 -19 7l-9 21q-4 9 9 16q54 25 128 25t113.5 -28.5t39.5 -83.5q0 -68 -64 -94q74 -27 74 -105q0 -62 -42.5 -94.5t-118.5 -32.5q-80 0 -134 26q-13 7 -10 15l9 22
q5 14 17 9q58 -24 114 -24q52 0 81 21t29 59q0 74 -100 74zM725 689l-428 -679q-7 -10 -17 -10h-35q-16 0 -7 13l427 679q5 9 18 9h35q14 0 7 -12zM773 -5q-79 0 -121.5 32.5t-42.5 84.5q0 82 102 110q-91 27 -91 102q0 50 39 79.5t114 29.5t113.5 -29.5t38.5 -79.5
q0 -75 -91 -102q103 -28 103 -110q0 -52 -43 -84.5t-121 -32.5zM773 201q-111 -22 -111 -86q0 -32 30 -53.5t81 -21.5t81 21.5t30 53.5q0 64 -111 86zM773 242q99 23 99 82q0 29 -25.5 46.5t-73.5 17.5q-49 0 -74.5 -17.5t-25.5 -46.5q0 -59 100 -82z" />
    <glyph glyph-name="fiveeighths" unicode="&#x215d;" horiz-adv-x="979" 
d="M354 410q0 -70 -42.5 -106t-122.5 -36q-86 0 -132 24q-14 7 -10 16l9 22q6 12 17 8q53 -22 114 -22q113 0 113 93q0 43 -23.5 64.5t-81.5 21.5q-36 0 -65.5 -8.5t-39.5 -8.5q-7 -1 -17 4l-10 6q-10 4 -9 14q13 135 13 183q0 16 18 16h226q15 0 15 -14v-21q0 -14 -15 -14
h-195q-2 -82 -9 -130q50 18 97 18q150 0 150 -130zM726 689l-428 -679q-7 -10 -17 -10h-35q-16 0 -7 13l427 679q5 9 18 9h35q15 0 7 -12zM773 -5q-79 0 -121.5 32.5t-42.5 84.5q0 82 102 110q-91 27 -91 102q0 50 39 79.5t114 29.5t113.5 -29.5t38.5 -79.5q0 -75 -91 -102
q103 -28 103 -110q0 -52 -43 -84.5t-121 -32.5zM773 201q-111 -22 -111 -86q0 -32 30 -53.5t81 -21.5t81 21.5t30 53.5q0 64 -111 86zM773 242q99 23 99 82q0 29 -25.5 46.5t-73.5 17.5q-49 0 -74.5 -17.5t-25.5 -46.5q0 -59 100 -82z" />
    <glyph glyph-name="seveneighths" unicode="&#x215e;" horiz-adv-x="979" 
d="M355 687v-17q0 -8 -7 -17q-63 -86 -113.5 -190t-54.5 -176q0 -14 -14 -14h-27q-13 0 -13 14q4 76 53 176.5t116 188.5h-229q-14 0 -14 14v21q0 14 14 14h274q15 0 15 -14zM671 689l-428 -679q-7 -10 -17 -10h-35q-16 0 -7 13l427 679q5 9 18 9h35q14 0 7 -12zM773 -5
q-79 0 -121.5 32.5t-42.5 84.5q0 82 102 110q-91 27 -91 102q0 50 39 79.5t114 29.5t113.5 -29.5t38.5 -79.5q0 -75 -91 -102q103 -28 103 -110q0 -52 -43 -84.5t-121 -32.5zM773 201q-111 -22 -111 -86q0 -32 30 -53.5t81 -21.5t81 21.5t30 53.5q0 64 -111 86zM773 242
q99 23 99 82q0 29 -25.5 46.5t-73.5 17.5q-49 0 -74.5 -17.5t-25.5 -46.5q0 -59 100 -82z" />
    <glyph glyph-name="arrowleft" unicode="&#x2190;" horiz-adv-x="642" 
d="M345 465l-199 -182l426 2q13 0 13 -12v-31q0 -12 -13 -12l-426 2l199 -183q4 -5 2 -9t-8 -4h-42q-9 0 -15 6l-213 202q-6 6 -6 13t6 13l213 202q9 7 15 7h42q6 0 8 -4.5t-2 -9.5z" />
    <glyph glyph-name="arrowup" unicode="&#x2191;" horiz-adv-x="642" 
d="M534 256l-183 199l2 -426q0 -13 -12 -13h-31q-12 0 -12 13l2 426l-183 -199q-4 -5 -8.5 -3t-4.5 8v43q0 9 6 15l202 212q5 6 14 6q7 0 12 -6l203 -212q6 -6 6 -15v-43q0 -6 -4.5 -7.5t-8.5 2.5z" />
    <glyph glyph-name="arrowright" unicode="&#x2192;" horiz-adv-x="642" 
d="M496 283l-199 182q-4 5 -2.5 9.5t7.5 4.5h42q7 0 16 -7l212 -202q6 -6 6 -13q0 -8 -6 -13l-212 -202q-8 -6 -16 -6h-42q-6 0 -8 4t3 9l199 183l-427 -2q-12 0 -12 12v31q0 12 12 12z" />
    <glyph glyph-name="arrowdown" unicode="&#x2193;" horiz-adv-x="642" 
d="M117 258l183 -199l-2 426q0 14 12 14h31q12 0 12 -14l-2 -426l183 199q4 4 8.5 2.5t4.5 -7.5v-42q0 -9 -6 -15l-203 -213q-6 -6 -12 -6q-8 0 -14 6l-202 213q-6 6 -6 15v42q0 6 4.5 8t8.5 -3z" />
    <glyph glyph-name="arrowboth" unicode="&#x2194;" horiz-adv-x="986" 
d="M840 283l-198 182q-4 5 -2.5 9.5t7.5 4.5h42q9 0 16 -7l212 -202q6 -6 6 -13t-6 -13l-212 -202q-7 -6 -16 -6h-42q-6 0 -8 4t3 9l198 183l-349 -5l-345 5l199 -183q4 -5 2 -9t-8 -4h-42q-9 0 -15 6l-213 202q-6 6 -6 13q0 8 6 13l213 202q9 7 15 7h42q6 0 8 -4.5t-2 -9.5
l-199 -182l345 4z" />
    <glyph glyph-name="arrowupdn" unicode="&#x2195;" horiz-adv-x="642" 
d="M346 5l183 199q5 4 9.5 2.5t4.5 -7.5v-43q0 -6 -7 -15l-202 -212q-6 -7 -13 -7t-13 7l-202 212q-7 9 -7 15v43q0 6 4.5 8t8.5 -3l184 -199l-5 255l5 250l-184 -199q-4 -5 -8.5 -3.5t-4.5 7.5v43q0 9 7 15l202 213q5 6 13 6q7 0 13 -6l202 -213q7 -7 7 -15v-43
q0 -6 -4.5 -7.5t-9.5 3.5l-183 199l5 -250z" />
    <glyph glyph-name="arrowupleft" unicode="&#x2196;" horiz-adv-x="642" 
d="M485 399l-269 12l303 -300q9 -9 0 -18l-22 -21q-9 -10 -17 0l-300 303l12 -270q0 -6 -5 -8t-9 2l-29 30q-7 8 -7 15l-7 294q0 8 4 13q5 5 14 5l293 -7q8 0 16 -7l30 -29q5 -4 2.5 -9t-9.5 -5z" />
    <glyph glyph-name="arrowupright" unicode="&#x2197;" horiz-adv-x="642" 
d="M426 411l-270 -12q-7 0 -9 5t3 9l30 29q7 7 15 7l294 7q6 0 13 -5q5 -4 5 -13l-7 -294q0 -7 -7 -15l-29 -30q-4 -4 -9 -2t-5 8l12 270l-300 -303q-9 -9 -18 0l-21 21q-9 9 0 18z" />
    <glyph glyph-name="arrowdownright" unicode="&#x2198;" horiz-adv-x="642" 
d="M156 105l270 -12l-303 301q-8 8 0 17l21 21q9 9 18 0l300 -303l-12 270q0 7 5 9t9 -3l29 -29q7 -6 7 -16l7 -294q0 -8 -5 -13q-7 -5 -13 -5l-294 7q-8 0 -16 8l-29 29q-4 4 -2 8.5t8 4.5z" />
    <glyph glyph-name="arrowdownleft" unicode="&#x2199;" horiz-adv-x="642" 
d="M216 93l269 12q6 0 8.5 -4.5t-1.5 -8.5l-30 -30q-7 -7 -16 -7l-293 -7q-9 1 -14 5q-4 5 -4 13l7 294q0 9 7 16l29 29q4 4 9 2t5 -8l-12 -270l300 303q8 9 17 0l22 -21q11 -11 0 -17z" />
    <glyph glyph-name="partialdiff" unicode="&#x2202;" horiz-adv-x="630" 
d="M182 637q-12 -4 -14 6l-9 31q-2 8 10 13q62 25 143 25q130 0 196 -86t66 -237q0 -75 -16 -143t-49.5 -127t-92.5 -94t-138 -35q-110 0 -170 59.5t-60 160.5q0 112 67.5 187.5t187.5 75.5q95 0 147.5 -52.5t56.5 -115.5q8 51 8 88q0 130 -57 197.5t-154 67.5
q-64 0 -122 -21zM275 44q93 0 147 57t56 141q3 77 -42.5 127t-128.5 50q-89 0 -144 -55t-55 -150q0 -77 43.5 -123.5t123.5 -46.5z" />
    <glyph glyph-name="Delta" unicode="&#x2206;" horiz-adv-x="672" 
d="M310 701h52q13 0 18 -14l227 -662q4 -11 -1.5 -18t-18.5 -7h-503q-11 0 -17 7.5t-2 17.5l227 662q5 14 18 14zM334 645l-202 -590h407l-201 590h-4z" />
    <glyph glyph-name="product" unicode="&#x220f;" horiz-adv-x="733" 
d="M42 657v32q0 12 13 12h624q12 0 12 -12v-32q0 -12 -12 -12h-114v-633q0 -12 -13 -12h-35q-13 0 -13 12v633h-275v-633q0 -12 -12 -12h-36q-12 0 -12 12v633h-114q-13 0 -13 12z" />
    <glyph glyph-name="summation" unicode="&#x2211;" horiz-adv-x="590" 
d="M379 279l-254 -334h406q11 0 11 -12v-31q0 -12 -11 -12h-465q-13 0 -13 14v28q0 9 7 21l260 347l-255 335q-6 9 -6 20v34q0 12 13 12h453q12 0 12 -12v-30q0 -13 -12 -13h-399l253 -328q4 -6 4 -13v-12q0 -10 -4 -14z" />
    <glyph glyph-name="minus" unicode="&#x2212;" horiz-adv-x="582" 
d="M505 320h-428q-12 0 -12 11v29q0 11 13 11h427q11 0 11 -11v-29q0 -11 -11 -11z" />
    <glyph glyph-name="uni2215" unicode="&#x2215;" horiz-adv-x="73" 
d="M280 689l-428 -679q-7 -10 -17 -10h-35q-16 0 -7 13l427 679q5 9 18 9h35q15 0 7 -12z" />
    <glyph glyph-name="uni2219" unicode="&#x2219;" horiz-adv-x="215" 
d="M69 222v69q0 12 12 12h53q12 0 12 -12v-69q0 -12 -11 -12h-54q-12 0 -12 12z" />
    <glyph glyph-name="radical" unicode="&#x221a;" horiz-adv-x="654" 
d="M357 -70h-42q-13 0 -18 13l-154 422h-75q-14 0 -14 12v29q0 12 14 12h112q10 0 15 -12l137 -387h4l202 729q3 12 13 12h39q13 0 10 -14l-227 -803q-3 -13 -16 -13z" />
    <glyph glyph-name="infinity" unicode="&#x221e;" horiz-adv-x="737" 
d="M381 452q39 61 134 61q80 0 120.5 -42.5t40.5 -121.5q0 -73 -40 -117.5t-128 -44.5q-100 0 -152 61q-37 -61 -134 -61q-80 0 -123.5 43.5t-43.5 120.5q0 72 43 117t131 45q100 0 152 -61zM336 330l26 81q-41 60 -129 60q-123 0 -123 -122q0 -59 29.5 -89.5t83.5 -30.5
q55 0 74.5 20t38.5 81zM400 370l-24 -81q39 -60 129 -60q122 0 122 122q0 120 -113 120q-54 0 -75 -21t-39 -80z" />
    <glyph glyph-name="integral" unicode="&#x222b;" horiz-adv-x="353" 
d="M147 25v546q0 67 24 101t80 34q39 0 61 -7q11 -3 9 -13l-6 -29q-1 -10 -13 -9q-28 5 -38 5q-33 0 -45.5 -21.5t-12.5 -64.5v-547q0 -66 -24 -100t-80 -34q-31 0 -61 7q-10 3 -9 13l5 29q1 10 13 9q22 -5 39 -5q32 0 45 21.5t13 64.5z" />
    <glyph glyph-name="approxequal" unicode="&#x2248;" horiz-adv-x="582" 
d="M516 269q-18 -84 -95 -84q-35 0 -92 21l-84 32q-58 22 -79 22q-37 0 -49 -35l-5 -14q-3 -9 -13 -9h-20q-16 0 -13 19q19 85 96 85q31 0 92 -22l79 -28q65 -24 86 -24q34 0 46 34l5 14q3 9 13 9h20q16 0 13 -20zM516 475q-18 -84 -95 -84q-35 0 -92 21l-84 32
q-55 21 -79 21q-38 0 -49 -34l-5 -14q-3 -9 -13 -9h-20q-16 0 -13 19q19 84 96 84q29 0 92 -22l79 -27q70 -25 86 -25q34 0 46 35l5 14q3 8 13 8h20q16 0 13 -19z" />
    <glyph glyph-name="notequal" unicode="&#x2260;" horiz-adv-x="582" 
d="M499 231h-239l-109 -219q-6 -12 -17 -12h-28q-16 0 -9 13l108 218h-122q-12 0 -12 11v28q0 12 13 12h146l67 135h-214q-12 0 -12 11v28q0 11 13 11h238l112 225q5 9 15 9h31q15 0 8 -14l-111 -220h122q12 0 12 -11v-28q0 -11 -12 -11h-146l-68 -135h214q12 0 12 -12v-28
q0 -11 -12 -11z" />
    <glyph glyph-name="lessequal" unicode="&#x2264;" horiz-adv-x="582" 
d="M66 367q0 7 9 15l384 271q9 6 16 -2l20 -25q8 -10 -2 -16l-355 -243l355 -244q11 -7 2 -16l-20 -25q-7 -9 -16 -2l-384 271q-9 7 -9 16zM485 0h-404q-12 0 -12 12v23q0 12 12 12h404q12 0 12 -12v-23q0 -12 -12 -12z" />
    <glyph glyph-name="greaterequal" unicode="&#x2265;" horiz-adv-x="582" 
d="M516 367q0 -9 -8 -16l-385 -271q-8 -6 -16 2l-20 25q-8 10 2 16l355 244l-355 243q-11 7 -2 16l20 25q8 8 16 2l385 -271q8 -7 8 -15zM502 0h-405q-11 0 -11 12v23q0 12 11 12h404q12 0 12 -12v-23q0 -12 -11 -12z" />
    <glyph glyph-name="lozenge" unicode="&#x25ca;" horiz-adv-x="672" 
d="M336 77l205 274l-205 274l-205 -274zM336 -7q-7 0 -13 7l-255 341q-3 5 -3 10q0 6 3 9l255 341q5 7 13 7q7 0 13 -7l255 -341q3 -4 3 -9t-3 -10l-255 -341q-5 -7 -13 -7z" />
    <glyph glyph-name="uniE000" unicode="&#xe000;" horiz-adv-x="500" 
 />
    <glyph glyph-name="Q.alt" unicode="&#xe001;" horiz-adv-x="706" 
d="M321 -97l5 91q-130 8 -199 101t-69 256q0 173 75.5 267t219.5 94t219.5 -94t75.5 -267q0 -163 -69 -256.5t-200 -100.5l5 -91q1 -13 -12 -13h-38q-13 0 -13 13zM353 47q116 0 173.5 78t57.5 226t-57.5 226t-173.5 78q-115 0 -173 -78t-58 -225q0 -148 58 -226.5
t173 -78.5z" />
    <glyph glyph-name="a.alt" unicode="&#xe002;" horiz-adv-x="601" 
d="M462 257q0 104 -46.5 160t-130.5 56q-171 0 -171 -215q0 -216 171 -216q83 0 130 55.5t47 159.5zM520 500v-488q0 -12 -12 -12h-34q-12 0 -12 12v90q-46 -112 -187 -112q-103 0 -162 68.5t-59 198.5t59 199t162 69q65 0 115 -29.5t72 -83.5v89q0 12 12 12h34q12 0 12 -13
z" />
    <glyph glyph-name="u.alt" unicode="&#xe003;" horiz-adv-x="560" 
d="M280 -10q-96 0 -150 48t-54 137v325q0 13 11 13h35q12 0 12 -13v-322q0 -64 37 -99t109 -35t109.5 35t37.5 99v322q0 13 11 13h34q13 0 13 -13v-325q0 -88 -54.5 -136.5t-150.5 -48.5z" />
    <glyph glyph-name="y.alt" unicode="&#xe004;" horiz-adv-x="568" 
d="M429 76v68q-44 -101 -175 -101q-90 0 -134 49.5t-44 137.5v270q0 13 11 13h35q12 0 12 -13v-262q0 -141 132 -141q71 0 116.5 43t45.5 113v247q0 13 12 13h35q11 0 11 -13v-428q0 -94 -56 -144t-158 -50q-96 0 -162 31q-9 5 -8 13l5 30q2 11 14 7q72 -29 149 -29t118 37
t41 109z" />
    <glyph glyph-name="j.alt" unicode="&#xe005;" horiz-adv-x="227" 
d="M143 500v-598q0 -12 -12 -12h-35q-11 0 -11 12v598q0 13 11 13h35q12 0 12 -13zM143 681v-83q0 -12 -12 -12h-35q-11 0 -11 12v83q0 12 11 12h35q12 0 12 -12z" />
    <glyph glyph-name="agrave.alt" unicode="&#xe006;" horiz-adv-x="601" 
d="M462 257q0 104 -46.5 160t-130.5 56q-171 0 -171 -215q0 -216 171 -216q83 0 130 55.5t47 159.5zM520 500v-488q0 -12 -12 -12h-34q-12 0 -12 12v90q-46 -112 -187 -112q-103 0 -162 68.5t-59 198.5t59 199t162 69q65 0 115 -29.5t72 -83.5v89q0 12 12 12h34q12 0 12 -13
zM290 687l62 -90q3 -4 1.5 -8t-7.5 -4h-21q-9 0 -19 8l-93 89q-5 4 -3.5 9.5t8.5 5.5h52q12 0 20 -10z" />
    <glyph glyph-name="aacute.alt" unicode="&#xe007;" horiz-adv-x="601" 
d="M462 257q0 104 -46.5 160t-130.5 56q-171 0 -171 -215q0 -216 171 -216q83 0 130 55.5t47 159.5zM520 500v-488q0 -12 -12 -12h-34q-12 0 -12 12v90q-46 -112 -187 -112q-103 0 -162 68.5t-59 198.5t59 199t162 69q65 0 115 -29.5t72 -83.5v89q0 12 12 12h34q12 0 12 -13
zM251 597l62 90q7 10 20 10h52q7 0 8.5 -5.5t-3.5 -9.5l-93 -89q-10 -8 -19 -8h-20q-6 0 -8 4t1 8z" />
    <glyph glyph-name="acircumflex.alt" unicode="&#xe008;" horiz-adv-x="601" 
d="M462 257q0 104 -46.5 160t-130.5 56q-171 0 -171 -215q0 -216 171 -216q83 0 130 55.5t47 159.5zM520 500v-488q0 -12 -12 -12h-34q-12 0 -12 12v90q-46 -112 -187 -112q-103 0 -162 68.5t-59 198.5t59 199t162 69q65 0 115 -29.5t72 -83.5v89q0 12 12 12h34q12 0 12 -13
zM381 593l-76 65l-77 -65q-9 -8 -18 -8h-28q-7 0 -8.5 4.5t3.5 8.5l94 91q8 8 18 8h30q11 0 19 -8l94 -91q5 -4 3.5 -8.5t-8.5 -4.5h-29q-8 0 -17 8z" />
    <glyph glyph-name="atilde.alt" unicode="&#xe009;" horiz-adv-x="601" 
d="M462 257q0 104 -46.5 160t-130.5 56q-171 0 -171 -215q0 -216 171 -216q83 0 130 55.5t47 159.5zM520 500v-488q0 -12 -12 -12h-34q-12 0 -12 12v90q-46 -112 -187 -112q-103 0 -162 68.5t-59 198.5t59 199t162 69q65 0 115 -29.5t72 -83.5v89q0 12 12 12h34q12 0 12 -13
zM447 649q0 -29 -15.5 -46.5t-45.5 -17.5q-35 0 -79 19l-22 9q-35 14 -53 14q-21 0 -25 -17l-3 -12q-3 -11 -15 -11h-17q-11 0 -11 15q0 29 15.5 46.5t45.5 17.5q28 0 79 -20l24 -9q37 -15 53 -15q21 0 25 21l2 10q1 11 14 11h18q10 0 10 -15z" />
    <glyph glyph-name="adieresis.alt" unicode="&#xe00a;" horiz-adv-x="601" 
d="M462 257q0 104 -46.5 160t-130.5 56q-171 0 -171 -215q0 -216 171 -216q83 0 130 55.5t47 159.5zM520 500v-488q0 -12 -12 -12h-34q-12 0 -12 12v90q-46 -112 -187 -112q-103 0 -162 68.5t-59 198.5t59 199t162 69q65 0 115 -29.5t72 -83.5v89q0 12 12 12h34q12 0 12 -13
zM248 669v-72q0 -12 -11 -12h-39q-12 0 -12 12v72q0 12 12 12h39q11 0 11 -12zM422 669v-72q0 -12 -11 -12h-39q-12 0 -12 12v72q0 12 12 12h39q11 0 11 -12z" />
    <glyph glyph-name="amacron.alt" unicode="&#xe00b;" horiz-adv-x="601" 
d="M462 257q0 104 -46.5 160t-130.5 56q-171 0 -171 -215q0 -216 171 -216q83 0 130 55.5t47 159.5zM520 500v-488q0 -12 -12 -12h-34q-12 0 -12 12v90q-46 -112 -187 -112q-103 0 -162 68.5t-59 198.5t59 199t162 69q65 0 115 -29.5t72 -83.5v89q0 12 12 12h34q12 0 12 -13
zM438 593h-268q-11 0 -11 11v20q0 12 11 12h268q12 0 12 -12v-20q0 -11 -12 -11z" />
    <glyph glyph-name="abreve.alt" unicode="&#xe00c;" horiz-adv-x="601" 
d="M462 257q0 104 -46.5 160t-130.5 56q-171 0 -171 -215q0 -216 171 -216q83 0 130 55.5t47 159.5zM520 500v-488q0 -12 -12 -12h-34q-12 0 -12 12v90q-46 -112 -187 -112q-103 0 -162 68.5t-59 198.5t59 199t162 69q65 0 115 -29.5t72 -83.5v89q0 12 12 12h34q12 0 12 -13
zM305 582q-65 0 -96.5 31t-32.5 73q0 10 9 10h21q8 0 11 -9q7 -30 25.5 -47t62.5 -17q43 0 61.5 17t25.5 47q1 9 11 9h20q10 0 10 -10q-1 -42 -32.5 -73t-95.5 -31z" />
    <glyph glyph-name="aring.alt" unicode="&#xe00d;" horiz-adv-x="601" 
d="M462 257q0 104 -46.5 160t-130.5 56q-171 0 -171 -215q0 -216 171 -216q83 0 130 55.5t47 159.5zM520 500v-488q0 -12 -12 -12h-34q-12 0 -12 12v90q-46 -112 -187 -112q-103 0 -162 68.5t-59 198.5t59 199t162 69q65 0 115 -29.5t72 -83.5v89q0 12 12 12h34q12 0 12 -13
zM305 612q29 0 45 14.5t16 41.5q0 26 -16.5 40.5t-45.5 14.5q-61 0 -61 -55q0 -56 62 -56zM304 758q45 0 72.5 -25t27.5 -65t-27 -65t-72 -25q-46 0 -73 25t-27 65t27 65t72 25z" />
    <glyph glyph-name="aringacute.alt" unicode="&#xe00e;" horiz-adv-x="601" 
d="M520 500v-488q0 -12 -12 -12h-34q-12 0 -12 12v90q-46 -112 -187 -112q-103 0 -162 68.5t-59 198.5t59 199t162 69q65 0 115 -29.5t72 -83.5v89q0 12 12 12h34q12 0 12 -13zM462 257q0 104 -46.5 160t-130.5 56q-171 0 -171 -215q0 -216 171 -216q83 0 130 55.5t47 159.5
zM205 668q0 62 57 83l51 74q7 10 20 10h52q7 0 8.5 -5.5t-3.5 -9.5l-66 -64q37 -5 58.5 -29t21.5 -59q0 -40 -27 -65t-72 -25q-46 0 -73 25t-27 65zM305 612q29 0 45 14.5t16 41.5q0 26 -16.5 40.5t-45.5 14.5q-61 0 -61 -55q0 -56 62 -56z" />
    <glyph glyph-name="aogonek.alt" unicode="&#xe00f;" horiz-adv-x="601" 
d="M520 500v-488q0 -12 -12 -12h-11q-68 -30 -68 -75q0 -32 50 -32q13 0 33 4q9 2 10 -4l5 -20q1 -6 -4 -9q-18 -11 -55 -11q-83 0 -83 61q0 26 22 51.5t56 39.5q-1 2 -1 7v90q-46 -112 -187 -112q-103 0 -162 68.5t-59 198.5t59 199t162 69q65 0 115 -29.5t72 -83.5v89
q0 12 12 12h34q12 0 12 -13zM462 257q0 104 -46.5 160t-130.5 56q-171 0 -171 -215q0 -216 171 -216q83 0 130 55.5t47 159.5z" />
    <glyph glyph-name="ij.alt" unicode="&#xe010;" horiz-adv-x="448" 
d="M143 500v-488q0 -12 -12 -12h-35q-11 0 -11 12v488q0 13 11 13h35q12 0 12 -13zM143 681v-83q0 -12 -12 -12h-35q-11 0 -11 12v83q0 12 11 12h35q12 0 12 -12zM364 500v-598q0 -12 -12 -12h-35q-11 0 -11 12v598q0 13 11 13h35q12 0 12 -13zM364 681v-83q0 -12 -12 -12
h-35q-11 0 -11 12v83q0 12 11 12h35q12 0 12 -12z" />
    <glyph glyph-name="jcircumflex.alt" unicode="&#xe011;" horiz-adv-x="228" 
d="M143 500v-598q0 -12 -12 -12h-35q-11 0 -11 12v598q0 13 11 13h35q12 0 12 -13zM191 593l-76 65l-77 -65q-9 -8 -18 -8h-28q-7 0 -8.5 4.5t3.5 8.5l94 91q8 8 18 8h30q11 0 19 -8l94 -91q5 -4 3.5 -8.5t-8.5 -4.5h-29q-8 0 -17 8z" />
    <glyph glyph-name="dotlessj.alt" unicode="&#xe012;" horiz-adv-x="227" 
d="M143 500v-598q0 -12 -12 -12h-35q-11 0 -11 12v598q0 13 11 13h35q12 0 12 -13z" />
    <glyph glyph-name="ugrave.alt" unicode="&#xe013;" horiz-adv-x="560" 
d="M280 -10q-96 0 -150 48t-54 137v325q0 13 11 13h35q12 0 12 -13v-322q0 -64 37 -99t109 -35t109.5 35t37.5 99v322q0 13 11 13h34q13 0 13 -13v-325q0 -88 -54.5 -136.5t-150.5 -48.5zM260 687l62 -90q3 -4 1.5 -8t-7.5 -4h-21q-9 0 -19 8l-93 89q-5 4 -3.5 9.5t8.5 5.5
h52q12 0 20 -10z" />
    <glyph glyph-name="uacute.alt" unicode="&#xe014;" horiz-adv-x="560" 
d="M280 -10q-96 0 -150 48t-54 137v325q0 13 11 13h35q12 0 12 -13v-322q0 -64 37 -99t109 -35t109.5 35t37.5 99v322q0 13 11 13h34q13 0 13 -13v-325q0 -88 -54.5 -136.5t-150.5 -48.5zM238 597l62 90q7 10 20 10h52q7 0 8.5 -5.5t-3.5 -9.5l-93 -89q-10 -8 -19 -8h-20
q-6 0 -8 4t1 8z" />
    <glyph glyph-name="ucircumflex.alt" unicode="&#xe015;" horiz-adv-x="560" 
d="M280 -10q-96 0 -150 48t-54 137v325q0 13 11 13h35q12 0 12 -13v-322q0 -64 37 -99t109 -35t109.5 35t37.5 99v322q0 13 11 13h34q13 0 13 -13v-325q0 -88 -54.5 -136.5t-150.5 -48.5zM356 593l-76 65l-77 -65q-9 -8 -18 -8h-28q-7 0 -8.5 4.5t3.5 8.5l94 91q8 8 18 8h30
q11 0 19 -8l94 -91q5 -4 3.5 -8.5t-8.5 -4.5h-29q-8 0 -17 8z" />
    <glyph glyph-name="utilde.alt" unicode="&#xe016;" horiz-adv-x="560" 
d="M280 -10q-96 0 -150 48t-54 137v325q0 13 11 13h35q12 0 12 -13v-322q0 -64 37 -99t109 -35t109.5 35t37.5 99v322q0 13 11 13h34q13 0 13 -13v-325q0 -88 -54.5 -136.5t-150.5 -48.5zM422 649q0 -29 -15.5 -46.5t-45.5 -17.5q-35 0 -79 19l-22 9q-35 14 -53 14
q-21 0 -25 -17l-3 -12q-3 -11 -15 -11h-17q-11 0 -11 15q0 29 15.5 46.5t45.5 17.5q28 0 79 -20l24 -9q38 -15 53 -15q21 0 25 21l2 10q1 11 14 11h18q10 0 10 -15z" />
    <glyph glyph-name="udieresis.alt" unicode="&#xe017;" horiz-adv-x="560" 
d="M280 -10q-96 0 -150 48t-54 137v325q0 13 11 13h35q12 0 12 -13v-322q0 -64 37 -99t109 -35t109.5 35t37.5 99v322q0 13 11 13h34q13 0 13 -13v-325q0 -88 -54.5 -136.5t-150.5 -48.5zM223 669v-72q0 -12 -11 -12h-39q-12 0 -12 12v72q0 12 12 12h39q11 0 11 -12z
M397 669v-72q0 -12 -11 -12h-39q-12 0 -12 12v72q0 12 12 12h39q11 0 11 -12z" />
    <glyph glyph-name="umacron.alt" unicode="&#xe018;" horiz-adv-x="560" 
d="M280 -10q-96 0 -150 48t-54 137v325q0 13 11 13h35q12 0 12 -13v-322q0 -64 37 -99t109 -35t109.5 35t37.5 99v322q0 13 11 13h34q13 0 13 -13v-325q0 -88 -54.5 -136.5t-150.5 -48.5zM413 593h-268q-11 0 -11 11v20q0 12 11 12h268q12 0 12 -12v-20q0 -11 -12 -11z" />
    <glyph glyph-name="ubreve.alt" unicode="&#xe019;" horiz-adv-x="560" 
d="M280 -10q-96 0 -150 48t-54 137v325q0 13 11 13h35q12 0 12 -13v-322q0 -64 37 -99t109 -35t109.5 35t37.5 99v322q0 13 11 13h34q13 0 13 -13v-325q0 -88 -54.5 -136.5t-150.5 -48.5zM280 582q-65 0 -96.5 31t-32.5 73q0 10 9 10h21q8 0 11 -9q7 -30 25.5 -47t62.5 -17
q43 0 61.5 17t25.5 47q1 9 11 9h20q10 0 10 -10q-1 -42 -32.5 -73t-95.5 -31z" />
    <glyph glyph-name="uring.alt" unicode="&#xe01a;" horiz-adv-x="560" 
d="M280 -10q-96 0 -150 48t-54 137v325q0 13 11 13h35q12 0 12 -13v-322q0 -64 37 -99t109 -35t109.5 35t37.5 99v322q0 13 11 13h34q13 0 13 -13v-325q0 -88 -54.5 -136.5t-150.5 -48.5zM280 612q29 0 45 14.5t16 41.5q0 26 -16.5 40.5t-45.5 14.5q-61 0 -61 -55
q0 -56 62 -56zM279 758q45 0 72.5 -25t27.5 -65t-27 -65t-72 -25q-46 0 -73 25t-27 65t27 65t72 25z" />
    <glyph glyph-name="uhungarumlaut.alt" unicode="&#xe01b;" horiz-adv-x="560" 
d="M280 -10q-96 0 -150 48t-54 137v325q0 13 11 13h35q12 0 12 -13v-322q0 -64 37 -99t109 -35t109.5 35t37.5 99v322q0 13 11 13h34q13 0 13 -13v-325q0 -88 -54.5 -136.5t-150.5 -48.5zM161 597l55 90q7 10 19 10h41q6 0 8 -5t-2 -10l-76 -89q-8 -8 -18 -8h-20q-6 0 -8 4
t1 8zM312 597l54 90q6 10 19 10h41q6 0 8.5 -5.5t-1.5 -9.5l-76 -89q-7 -8 -19 -8h-19q-6 0 -8 4t1 8z" />
    <glyph glyph-name="ydieresis.alt" unicode="&#xe01c;" horiz-adv-x="568" 
d="M429 76v68q-44 -101 -175 -101q-90 0 -134 49.5t-44 137.5v270q0 13 11 13h35q12 0 12 -13v-262q0 -141 132 -141q71 0 116.5 43t45.5 113v247q0 13 12 13h35q11 0 11 -13v-428q0 -94 -56 -144t-158 -50q-96 0 -162 31q-9 5 -8 13l5 30q2 11 14 7q72 -29 149 -29t118 37
t41 109zM227 669v-72q0 -12 -11 -12h-39q-12 0 -12 12v72q0 12 12 12h39q11 0 11 -12zM401 669v-72q0 -12 -11 -12h-39q-12 0 -12 12v72q0 12 12 12h39q11 0 11 -12z" />
    <glyph glyph-name="yacute.alt" unicode="&#xe01d;" horiz-adv-x="568" 
d="M429 76v68q-44 -101 -175 -101q-90 0 -134 49.5t-44 137.5v270q0 13 11 13h35q12 0 12 -13v-262q0 -141 132 -141q71 0 116.5 43t45.5 113v247q0 13 12 13h35q11 0 11 -13v-428q0 -94 -56 -144t-158 -50q-96 0 -162 31q-9 5 -8 13l5 30q2 11 14 7q72 -29 149 -29t118 37
t41 109zM240 597l62 90q7 10 20 10h52q7 0 8.5 -5.5t-3.5 -9.5l-93 -89q-10 -8 -19 -8h-20q-6 0 -8 4t1 8z" />
    <glyph glyph-name="ycircumflex.alt" unicode="&#xe01e;" horiz-adv-x="568" 
d="M429 76v68q-44 -101 -175 -101q-90 0 -134 49.5t-44 137.5v270q0 13 11 13h35q12 0 12 -13v-262q0 -141 132 -141q71 0 116.5 43t45.5 113v247q0 13 12 13h35q11 0 11 -13v-428q0 -94 -56 -144t-158 -50q-96 0 -162 31q-9 5 -8 13l5 30q2 11 14 7q72 -29 149 -29t118 37
t41 109zM352 593l-76 65l-77 -65q-9 -8 -18 -8h-28q-7 0 -8.5 4.5t3.5 8.5l94 91q8 8 18 8h30q11 0 19 -8l94 -91q5 -4 3.5 -8.5t-8.5 -4.5h-29q-8 0 -17 8z" />
    <glyph glyph-name="ygrave.alt" unicode="&#xe01f;" horiz-adv-x="568" 
d="M429 76v68q-44 -101 -175 -101q-90 0 -134 49.5t-44 137.5v270q0 13 11 13h35q12 0 12 -13v-262q0 -141 132 -141q71 0 116.5 43t45.5 113v247q0 13 12 13h35q11 0 11 -13v-428q0 -94 -56 -144t-158 -50q-96 0 -162 31q-9 5 -8 13l5 30q2 11 14 7q72 -29 149 -29t118 37
t41 109zM252 687l62 -90q3 -4 1.5 -8t-7.5 -4h-21q-9 0 -19 8l-93 89q-5 4 -3.5 9.5t8.5 5.5h52q12 0 20 -10z" />
    <glyph glyph-name="i.dot" unicode="&#xe020;" horiz-adv-x="227" 
d="M143 500v-488q0 -12 -12 -12h-35q-11 0 -11 12v488q0 13 11 13h35q12 0 12 -13zM143 681v-83q0 -12 -12 -12h-35q-11 0 -11 12v83q0 12 11 12h35q12 0 12 -12z" />
    <glyph glyph-name="dollar.old" unicode="&#xe021;" horiz-adv-x="511" 
d="M286 650v-62q81 -4 137 -27q16 -7 11 -16l-11 -26q-6 -14 -19 -8q-54 23 -130 23q-75 0 -114.5 -24.5t-39.5 -66.5q0 -15 4 -28t14.5 -23.5l18 -18t27.5 -16.5l28.5 -13t34.5 -13.5l34 -12.5q41 -16 67 -29t55 -34.5t43.5 -50t14.5 -64.5q0 -62 -47 -100.5t-128 -44.5
v-64q0 -13 -14 -13h-22q-12 0 -12 13v62q-104 0 -178 27q-13 4 -10 15l11 29q5 13 17 8q63 -26 165 -26q71 0 114 24t43 72q0 17 -5 31.5t-18.5 26.5l-23 20t-32.5 18.5l-33 15t-37 14.5q-9 3 -34 13l-33.5 13.5l-29 12.5t-28 15t-22 16t-20 20l-13 23t-10 28.5t-2.5 33.5
q0 59 45.5 98.5t133.5 46.5v62q0 13 12 13h22q14 0 14 -13z" />
    <glyph glyph-name="cent.old" unicode="&#xe022;" horiz-adv-x="494" 
d="M50 288q0 275 232 296v66q0 13 13 13h22q13 0 13 -13v-64q65 -4 119 -30q13 -6 9 -16l-12 -27q-5 -12 -18 -7q-50 25 -112 25q-205 0 -205 -243q0 -242 206 -242q57 0 115 27q12 7 18 -7l11 -27q3 -8 -9 -15q-48 -28 -122 -32v-60q0 -13 -13 -13h-22q-13 0 -13 13v61
q-232 19 -232 295z" />
    <glyph glyph-name="sterling.old" unicode="&#xe023;" horiz-adv-x="569" 
d="M145 271h-82q-13 0 -13 13v20q0 12 13 12h60q-36 56 -36 107q0 69 54.5 116t159.5 47q101 0 152.5 -40.5t51.5 -107.5q0 -36 -14 -36h-29q-13 0 -13 11q0 2 0.5 9t0.5 14q0 44 -37.5 70.5t-108.5 26.5q-76 0 -116.5 -33.5t-40.5 -81.5q0 -40 38 -102h177q14 0 14 -12v-20
q0 -13 -14 -13h-157q22 -44 22 -87q0 -84 -72 -128q36 8 77 8q27 0 84 -10t88 -10q48 0 64.5 23t16.5 66q0 14 13 14h25q15 0 15 -16q0 -69 -25 -104.5t-93 -35.5q-34 0 -99.5 10.5t-98.5 10.5q-80 0 -139 -22q-13 -6 -18 3l-17 28q-6 9 5 14q119 51 119 150q0 46 -27 86z
" />
    <glyph glyph-name="yen.old" unicode="&#xe024;" horiz-adv-x="535" 
d="M457 144h-160v-131q0 -13 -12 -13h-34q-13 0 -13 13v131h-160q-13 0 -13 12v18q0 13 13 13h161v25l-36 57h-125q-13 0 -13 12v19q0 12 13 12h102l-156 251q-4 5 -2 10.5t10 5.5h35q12 0 18 -11l182 -302h2l182 302q7 11 18 11h34q18 0 9 -16l-157 -251h102q13 0 13 -12
v-19q0 -12 -13 -12h-126l-34 -57v-25h160q13 0 13 -13v-18q0 -12 -13 -12z" />
    <glyph glyph-name="Euro.old" unicode="&#xe025;" horiz-adv-x="528" 
d="M23 258h58q-1 11 -1 34q0 10 2 36h-59q-13 0 -13 11v21q0 11 13 11h62q18 98 85 155.5t178 57.5q84 0 146 -35q14 -7 9 -14l-14 -25q-8 -14 -19 -9q-56 28 -118 28q-88 0 -139 -42t-66 -116h240q14 0 9 -14l-6 -18q-4 -11 -17 -11h-231q-2 -12 -2 -36q0 -23 1 -34h190
q14 0 9 -14l-6 -18q-4 -11 -16 -11h-172q14 -77 66 -122t141 -45q60 0 120 27q13 5 19 -7l13 -25q4 -8 -8 -15q-57 -35 -148 -35q-112 0 -179.5 60.5t-85.5 161.5h-61q-13 0 -13 12v20q0 11 13 11z" />
    <glyph glyph-name="zero.old" unicode="&#xe026;" horiz-adv-x="569" 
d="M284 583q112 0 172 -76.5t60 -219.5q0 -142 -59.5 -218t-171.5 -76t-171.5 76t-59.5 219q0 142 59.5 218.5t170.5 76.5zM284 49q171 0 171 238q0 241 -171 241q-170 0 -170 -240q0 -239 170 -239z" />
    <glyph glyph-name="one.old" unicode="&#xe027;" horiz-adv-x="498" 
d="M435 0h-331q-12 0 -12 12v31q0 11 12 11h143v456l-127 -89q-9 -6 -17 2l-20 21q-7 9 1 15l159 117q7 5 15 5h36q12 0 12 -12v-515h129q12 0 12 -11v-31q0 -12 -12 -12z" />
    <glyph glyph-name="two.old" unicode="&#xe028;" horiz-adv-x="509" 
d="M45 12v25q0 10 9 16q148 100 202 147q135 116 135 215q0 49 -35 82.5t-110 33.5q-76 0 -108.5 -30.5t-32.5 -77.5q0 -12 2 -26t2 -16q0 -12 -14 -12h-30q-10 0 -13 11q-4 12 -4 44q0 72 47.5 116.5t151.5 44.5t153.5 -47t49.5 -121q0 -55 -28.5 -109t-80.5 -103
t-94.5 -81t-100.5 -70h305q12 0 12 -12v-30q0 -12 -12 -12h-394q-12 0 -12 12z" />
    <glyph glyph-name="three.old" unicode="&#xe029;" horiz-adv-x="511" 
d="M152 288h71q72 0 116 32.5t44 93.5q0 54 -43 85.5t-124 31.5q-90 0 -162 -31q-12 -6 -15 6l-12 31q-2 7 8 13q76 36 185 36q104 0 163.5 -46t59.5 -122q0 -59 -30 -98.5t-81 -51.5q57 -14 95 -56t38 -116q0 -105 -66 -158.5t-186 -53.5q-109 0 -191 38q-10 7 -8 13l13 34
q3 11 15 7q81 -36 173 -36q93 0 141.5 39.5t48.5 115.5q0 70 -49 104.5t-132 34.5h-72q-13 0 -13 12v31q0 11 13 11z" />
    <glyph glyph-name="four.old" unicode="&#xe02a;" horiz-adv-x="593" 
d="M400 490l-300 -375h300v375zM408 577h40q12 0 12 -13v-449h107q12 0 12 -13v-29q0 -13 -12 -13h-107v-157q0 -13 -12 -13h-36q-13 0 -13 13v157h-356q-12 0 -12 13v31q0 9 5 16l357 447q8 10 15 10z" />
    <glyph glyph-name="five.old" unicode="&#xe02b;" horiz-adv-x="554" 
d="M445 523h-306q-4 -136 -15 -235q72 30 145 30q117 0 173.5 -56t56.5 -157q0 -109 -64 -165t-181 -56t-201 40q-12 5 -9 13l13 32q5 12 15 7q78 -38 179 -38q91 0 138.5 43.5t47.5 123.5q0 78 -40 118.5t-132 40.5q-53 0 -105.5 -15t-55.5 -15q-6 0 -13 2l-17 6
q-8 4 -7 15q18 180 20 306q0 14 15 14h343q12 0 12 -12v-30q0 -12 -12 -12z" />
    <glyph glyph-name="six.old" unicode="&#xe02c;" horiz-adv-x="561" 
d="M275 692q9 9 20 9h42q7 0 9 -4.5t-3 -8.5q-67 -60 -121 -137.5t-79 -147.5q48 59 149 59q108 0 165.5 -61t57.5 -174q0 -112 -61 -173.5t-167 -61.5q-109 0 -170 61.5t-61 175.5q0 242 219 463zM115 227q0 -88 45 -134t125 -46t125.5 46t45.5 134q0 180 -171 180
q-80 0 -125 -46t-45 -134z" />
    <glyph glyph-name="seven.old" unicode="&#xe02d;" horiz-adv-x="519" 
d="M52 577h415q13 0 13 -12v-26q0 -9 -9 -20q-87 -110 -161 -294t-83 -323q0 -12 -13 -12h-35q-13 0 -13 12q9 143 84.5 324t161.5 297h-360q-13 0 -13 12v30q0 12 13 12z" />
    <glyph glyph-name="eight.old" unicode="&#xe02e;" horiz-adv-x="594" 
d="M297 -8q-114 0 -181 52t-67 134q0 149 188 187q-77 20 -123 64t-46 110q0 77 60 124.5t169 47.5t169 -47.5t60 -124.5q0 -67 -46 -110.5t-123 -63.5q188 -38 188 -187q0 -82 -67 -134t-181 -52zM297 659q-81 0 -125.5 -32.5t-44.5 -86.5q0 -58 42 -93t128 -56
q85 21 127.5 56t42.5 93q0 54 -44.5 86.5t-125.5 32.5zM297 337q-187 -34 -187 -156q0 -60 50.5 -98.5t136.5 -38.5t136.5 38.5t50.5 98.5q0 122 -187 156z" />
    <glyph glyph-name="nine.old" unicode="&#xe02f;" horiz-adv-x="562" 
d="M291 -88q-8 -10 -19 -10h-42q-7 0 -9 4.5t4 9.5q62 54 114 124.5t79 132.5q-48 -57 -149 -57q-107 0 -164 60.5t-57 173.5t60.5 174.5t167.5 61.5q108 0 169.5 -61.5t61.5 -174.5q0 -70 -18 -135t-52.5 -120.5t-67.5 -96t-78 -86.5zM448 350q0 88 -46 134.5t-126 46.5
t-124.5 -46t-44.5 -135q0 -179 170 -179q80 0 125.5 45.5t45.5 133.5z" />
    <glyph glyph-name="dollar.tab" unicode="&#xe030;" horiz-adv-x="633" 
d="M346 790v-79q88 -1 157 -30q11 -6 7 -15l-11 -32q-4 -11 -16 -7q-66 28 -148 28q-86 0 -131 -32.5t-45 -84.5q0 -19 4 -35t15.5 -29.5t19.5 -22t29 -19l30 -15t37 -15.5t37 -15q105 -43 141 -70q73 -53 73 -143q0 -79 -53.5 -124.5t-143.5 -54.5v-83q0 -12 -12 -12h-24
q-12 0 -12 12v79q-125 0 -202 33q-13 6 -10 15l11 32q4 11 17 6q78 -30 178 -30q85 0 137 32t52 95q0 16 -2.5 30t-10.5 26.5l-13.5 21t-20.5 18.5t-22 15.5t-27.5 14.5l-27.5 12t-32 13t-31 12q-98 39 -130 62q-70 50 -70 139q0 72 52 118.5t149 53.5v80q0 11 13 11h24
q12 0 12 -11z" />
    <glyph glyph-name="cent.tab" unicode="&#xe031;" horiz-adv-x="633" 
d="M117 256q0 119 59.5 189.5t161.5 78.5v76q0 13 12 13h24q12 0 12 -13v-77q74 -3 125 -32q10 -6 7 -13l-12 -28q-4 -13 -16 -6q-49 27 -121 27q-91 0 -141.5 -55t-50.5 -160t49.5 -159t141.5 -54q75 0 128 29q10 6 16 -6l11 -28q2 -8 -8 -14q-50 -29 -129 -33v-79
q0 -12 -12 -12h-24q-12 0 -12 12v79q-104 8 -162.5 77t-58.5 188z" />
    <glyph glyph-name="sterling.tab" unicode="&#xe032;" horiz-adv-x="633" 
d="M167 330h-108q-11 0 -11 12v25q0 11 11 11h87q-48 84 -48 139q0 82 63.5 138.5t183.5 56.5q112 0 170 -48t58 -124q0 -41 -15 -41h-30q-12 0 -12 11q0 5 1 14t1 15q0 50 -44 83.5t-127 33.5q-89 0 -138.5 -41t-49.5 -100q0 -47 50 -137h221q12 0 12 -11v-25
q0 -12 -12 -12h-201q35 -61 35 -108q0 -50 -29 -95.5t-84 -69.5q45 14 98 14q41 0 105 -11.5t104 -11.5q58 0 77.5 28t20.5 83q0 14 13 14h27q14 0 14 -16q0 -80 -30.5 -122t-111.5 -42q-50 0 -117 13.5t-115 13.5q-89 0 -155 -28q-12 -4 -16 2l-18 31q-6 8 3 13
q154 85 154 186q0 45 -37 106z" />
    <glyph glyph-name="yen.tab" unicode="&#xe033;" horiz-adv-x="633" 
d="M349 184v-171q0 -13 -13 -13h-37q-13 0 -13 13v171h-204q-11 0 -11 12v24q0 11 11 11h204v28l-44 72h-160q-11 0 -11 11v24q0 11 11 11h136l-186 310q-8 14 8 14h41q11 0 17 -11l219 -372h1l219 372q7 11 17 11h40q16 0 8 -14l-186 -310h136q12 0 12 -11v-24
q0 -11 -12 -11h-160l-43 -72v-28h203q12 0 12 -11v-24q0 -12 -12 -12h-203z" />
    <glyph glyph-name="Euro.tab" unicode="&#xe034;" horiz-adv-x="633" 
d="M38 301h74q-2 32 -2 50q0 30 2 48h-74q-11 0 -11 12v25q0 11 11 11h79q21 116 101 190.5t210 74.5q98 0 170 -41q11 -5 7 -14l-14 -30q-5 -13 -17 -7q-64 34 -141 34q-106 0 -170.5 -57.5t-82.5 -149.5h293q11 0 8 -13l-8 -23q-4 -12 -16 -12h-282q-2 -15 -2 -48
q0 -20 2 -50h232q11 0 7 -12l-7 -23q-5 -12 -17 -12h-209q18 -92 82.5 -149.5t172.5 -57.5q78 0 144 36q10 4 16 -8l14 -31q3 -8 -6 -13q-74 -41 -173 -41q-132 0 -212.5 74t-102.5 190h-78q-11 0 -11 12v24q0 11 11 11z" />
    <glyph glyph-name="zero.tab" unicode="&#xe035;" horiz-adv-x="633" 
d="M316 712q131 0 200.5 -93.5t69.5 -266.5q0 -174 -69.5 -267.5t-200.5 -93.5t-200.5 93.5t-69.5 266.5q0 174 69.5 267.5t200.5 93.5zM316 47q104 0 156 78.5t52 225.5q0 148 -52 226t-156 78q-207 0 -207 -304q0 -148 51.5 -226t155.5 -78z" />
    <glyph glyph-name="one.tab" unicode="&#xe036;" horiz-adv-x="633" 
d="M348 13v615l-156 -112q-9 -6 -15 2l-22 25q-7 7 2 13l185 140q6 5 16 5h40q12 0 12 -12v-676q0 -13 -12 -13h-37q-13 0 -13 13z" />
    <glyph glyph-name="two.tab" unicode="&#xe037;" horiz-adv-x="633" 
d="M144 524q0 -12 2.5 -30.5t2.5 -23.5q0 -11 -12 -11h-33q-10 0 -13 13q-6 19 -6 55q0 79 56.5 132t170.5 53q123 0 179 -57.5t56 -153.5q0 -52 -25 -107.5t-62 -101t-89 -93t-95.5 -79.5t-91.5 -64h361q13 0 13 -13v-30q0 -13 -13 -13h-451q-13 0 -13 13v25q0 10 9 17
q394 256 394 444q0 157 -172 157q-90 0 -129 -37t-39 -95z" />
    <glyph glyph-name="three.tab" unicode="&#xe038;" horiz-adv-x="633" 
d="M237 393h72q72 0 113 33.5t41 101.5q0 62 -43 95t-121 33q-97 0 -179 -34q-10 -5 -14 6l-13 31q-3 8 9 13q84 40 197 40q106 0 166 -47t60 -132q0 -129 -114 -161q57 -12 95.5 -54t38.5 -120q0 -102 -65.5 -154.5t-184.5 -52.5q-118 0 -202 40q-11 3 -8 12l12 33
q3 11 15 7q86 -37 183 -37q89 0 138 39t49 113q0 141 -172 141h-73q-13 0 -13 12v30q0 12 13 12z" />
    <glyph glyph-name="four.tab" unicode="&#xe039;" horiz-adv-x="633" 
d="M483 0h-37q-12 0 -12 13v152h-378q-12 0 -12 13v31q0 9 6 16l378 467q8 9 16 9h39q12 0 12 -12v-470h111q13 0 13 -12v-29q0 -13 -13 -13h-111v-152q0 -13 -12 -13zM435 614l-322 -395h322v395z" />
    <glyph glyph-name="five.tab" unicode="&#xe03a;" horiz-adv-x="633" 
d="M555 216q0 -109 -66.5 -167t-187.5 -58q-124 0 -211 40q-12 7 -8 16l13 30q4 11 15 7q83 -38 187 -38q97 0 146 43.5t49 126.5q0 78 -42.5 119t-139.5 41q-58 0 -111.5 -15.5t-55.5 -15.5q-6 0 -13 3l-17 6q-8 3 -7 15q19 168 21 319q0 13 14 13h360q13 0 13 -12v-30
q0 -13 -13 -13h-322q-2 -113 -16 -245q70 29 153 29q121 0 180 -56.5t59 -157.5z" />
    <glyph glyph-name="six.tab" unicode="&#xe03b;" horiz-adv-x="633" 
d="M478 633q-56 24 -119 24q-115 0 -175.5 -89.5t-55.5 -252.5q13 60 69 106t149 46q116 0 174 -64.5t58 -164.5q0 -111 -63.5 -179t-176.5 -68q-131 0 -201 91t-70 247q0 175 73 279t215 104q78 0 141 -27q12 -5 9 -13l-12 -32q-4 -11 -15 -7zM337 46q84 0 131.5 53
t47.5 138q0 77 -43 127t-134 50q-89 0 -140 -54.5t-51 -130.5q0 -67 51 -125t138 -58z" />
    <glyph glyph-name="seven.tab" unicode="&#xe03c;" horiz-adv-x="633" 
d="M205 12q11 148 91 332t171 302h-373q-12 0 -12 13v30q0 12 12 12h430q12 0 12 -12v-28q0 -6 -10 -20q-100 -148 -176 -319.5t-81 -309.5q0 -12 -13 -12h-39q-13 0 -12 12z" />
    <glyph glyph-name="eight.tab" unicode="&#xe03d;" horiz-adv-x="633" 
d="M316 -9q-118 0 -184 52t-66 135q0 78 52.5 124t137.5 63q-77 20 -124 64t-47 111q0 78 58.5 125t172.5 47q113 0 172 -47.5t59 -124.5q0 -67 -47.5 -111t-123.5 -64q84 -17 136.5 -63t52.5 -124q0 -83 -65.5 -135t-183.5 -52zM316 659q-85 0 -128 -32t-43 -87
q0 -57 43.5 -93t127.5 -57q84 21 127.5 57t43.5 93q0 55 -43.5 87t-127.5 32zM316 338q-189 -37 -189 -157q0 -61 49.5 -99t139.5 -38q89 0 138.5 38t49.5 99q0 120 -188 157z" />
    <glyph glyph-name="nine.tab" unicode="&#xe03e;" horiz-adv-x="633" 
d="M157 68q60 -24 119 -24q113 0 174 87.5t57 249.5q-12 -56 -69 -101.5t-152 -45.5q-115 0 -173.5 65t-58.5 165q0 111 63.5 179t176.5 68q131 0 201 -91.5t70 -247.5q0 -175 -72 -278.5t-213 -103.5q-83 0 -142 27q-11 4 -8 13l12 31q4 11 15 7zM296 655q-85 0 -132.5 -53
t-47.5 -137q0 -77 43.5 -127t134.5 -50q89 0 140 54t51 130q0 71 -50.5 127t-138.5 56z" />
    <glyph glyph-name="dollar.tabold" unicode="&#xe03f;" horiz-adv-x="633" 
d="M345 650v-62q81 -4 137 -27q16 -7 11 -16l-11 -26q-6 -14 -19 -8q-54 23 -130 23q-75 0 -114.5 -24.5t-39.5 -66.5q0 -15 4 -28t14.5 -23.5l18 -18t27.5 -16.5l28.5 -13t34.5 -13.5l34 -12.5q41 -16 67 -29t55 -34.5t43.5 -50t14.5 -64.5q0 -62 -47 -100.5t-128 -44.5
v-64q0 -13 -14 -13h-22q-12 0 -12 13v62q-104 0 -178 27q-13 4 -10 15l11 29q5 13 17 8q63 -26 165 -26q71 0 114 24t43 72q0 17 -5 31.5t-18.5 26.5l-23 20t-32.5 18.5l-33 15t-37 14.5q-9 3 -34 13l-33.5 13.5l-29 12.5t-28 15t-22 16t-20 20l-13 23t-10 28.5t-2.5 33.5
q0 59 45.5 98.5t133.5 46.5v62q0 13 12 13h22q14 0 14 -13z" />
    <glyph glyph-name="cent.tabold" unicode="&#xe040;" horiz-adv-x="633" 
d="M122 288q0 275 232 296v66q0 13 13 13h22q13 0 13 -13v-64q65 -4 119 -30q13 -6 9 -16l-12 -27q-5 -12 -18 -7q-50 25 -112 25q-205 0 -205 -243q0 -242 206 -242q57 0 115 27q12 7 18 -7l11 -27q3 -8 -9 -15q-48 -28 -122 -32v-60q0 -13 -13 -13h-22q-13 0 -13 13v61
q-232 19 -232 295z" />
    <glyph glyph-name="sterling.tabold" unicode="&#xe041;" horiz-adv-x="633" 
d="M180 271h-82q-13 0 -13 13v20q0 12 13 12h60q-36 56 -36 107q0 69 54.5 116t159.5 47q101 0 152.5 -40.5t51.5 -107.5q0 -36 -14 -36h-29q-13 0 -13 11q0 2 0.5 9t0.5 14q0 44 -37.5 70.5t-108.5 26.5q-76 0 -116.5 -33.5t-40.5 -81.5q0 -40 38 -102h177q14 0 14 -12v-20
q0 -13 -14 -13h-157q22 -44 22 -87q0 -84 -72 -128q36 8 77 8q27 0 84 -10t88 -10q48 0 64.5 23t16.5 66q0 14 13 14h25q15 0 15 -16q0 -69 -25.5 -104.5t-92.5 -35.5q-34 0 -99.5 10.5t-98.5 10.5q-80 0 -139 -22q-13 -6 -18 3l-17 28q-6 9 5 14q119 51 119 150
q0 46 -27 86z" />
    <glyph glyph-name="yen.tabold" unicode="&#xe042;" horiz-adv-x="633" 
d="M506 144h-160v-131q0 -13 -12 -13h-34q-13 0 -13 13v131h-160q-13 0 -13 12v18q0 13 13 13h161v25l-36 57h-125q-13 0 -13 12v19q0 12 13 12h102l-156 251q-4 5 -2 10.5t10 5.5h35q12 0 18 -11l182 -302h2l182 302q7 11 18 11h34q18 0 9 -16l-157 -251h102q13 0 13 -12
v-19q0 -12 -13 -12h-126l-34 -57v-25h160q13 0 13 -13v-18q0 -12 -13 -12z" />
    <glyph glyph-name="Euro.tabold" unicode="&#xe043;" horiz-adv-x="633" 
d="M76 258h58q-1 11 -1 34q0 10 2 36h-59q-13 0 -13 11v21q0 11 13 11h62q18 98 85 155.5t178 57.5q84 0 146 -35q14 -7 9 -14l-14 -25q-8 -14 -19 -9q-56 28 -118 28q-88 0 -139 -42t-66 -116h240q14 0 9 -14l-6 -18q-4 -11 -17 -11h-231q-2 -12 -2 -36q0 -23 1 -34h190
q14 0 9 -14l-6 -18q-4 -11 -16 -11h-172q14 -77 66 -122t141 -45q60 0 120 27q13 5 19 -7l13 -25q4 -8 -8 -15q-57 -35 -148 -35q-112 0 -179.5 60.5t-85.5 161.5h-61q-13 0 -13 12v20q0 11 13 11z" />
    <glyph glyph-name="zero.tabold" unicode="&#xe044;" horiz-adv-x="633" 
d="M316 583q112 0 172 -76.5t60 -219.5q0 -142 -59.5 -218t-171.5 -76t-171.5 76t-59.5 219q0 142 59.5 218.5t170.5 76.5zM316 49q171 0 171 238q0 241 -171 241q-170 0 -170 -240q0 -239 170 -239z" />
    <glyph glyph-name="one.tabold" unicode="&#xe045;" horiz-adv-x="633" 
d="M510 0h-331q-12 0 -12 12v31q0 11 12 11h143v456l-127 -89q-9 -6 -17 2l-20 21q-7 9 1 15l159 117q7 5 15 5h36q12 0 12 -12v-515h129q12 0 12 -11v-31q0 -12 -12 -12z" />
    <glyph glyph-name="two.tabold" unicode="&#xe046;" horiz-adv-x="633" 
d="M106 12v25q0 10 9 16q148 100 202 147q135 116 135 215q0 49 -35 82.5t-110 33.5q-76 0 -108.5 -30.5t-32.5 -77.5q0 -12 2 -26t2 -16q0 -12 -14 -12h-30q-10 0 -13 11q-4 12 -4 44q0 72 47.5 116.5t151.5 44.5t153.5 -47t49.5 -121q0 -55 -28.5 -109t-80.5 -103
t-94.5 -81t-100.5 -70h305q12 0 12 -12v-30q0 -12 -12 -12h-394q-12 0 -12 12z" />
    <glyph glyph-name="three.tabold" unicode="&#xe047;" horiz-adv-x="633" 
d="M208 288h71q72 0 116 32.5t44 93.5q0 54 -43 85.5t-124 31.5q-90 0 -162 -31q-12 -6 -15 6l-12 31q-2 7 8 13q76 36 185 36q104 0 163.5 -46t59.5 -122q0 -59 -30 -98.5t-81 -51.5q57 -14 95 -56t38 -116q0 -105 -66 -158.5t-186 -53.5q-109 0 -191 38q-10 7 -8 13l13 34
q3 11 15 7q81 -36 173 -36q93 0 141.5 39.5t48.5 115.5q0 70 -49 104.5t-132 34.5h-72q-13 0 -13 12v31q0 11 13 11z" />
    <glyph glyph-name="four.tabold" unicode="&#xe048;" horiz-adv-x="633" 
d="M429 490l-300 -375h300v375zM437 577h40q12 0 12 -13v-449h107q12 0 12 -13v-29q0 -13 -12 -13h-107v-157q0 -13 -12 -13h-36q-13 0 -13 13v157h-356q-12 0 -12 13v31q0 9 5 16l357 447q8 10 15 10z" />
    <glyph glyph-name="five.tabold" unicode="&#xe049;" horiz-adv-x="633" 
d="M491 523h-306q-4 -136 -15 -235q72 30 145 30q117 0 173.5 -56t56.5 -157q0 -109 -64 -165t-181 -56t-201 40q-12 5 -9 13l13 32q5 12 15 7q78 -38 179 -38q91 0 138.5 43.5t47.5 123.5q0 78 -40 118.5t-132 40.5q-53 0 -105.5 -15t-55.5 -15q-6 0 -13 2l-17 6
q-8 4 -7 15q18 180 20 306q0 14 15 14h343q12 0 12 -12v-30q0 -12 -12 -12z" />
    <glyph glyph-name="six.tabold" unicode="&#xe04a;" horiz-adv-x="633" 
d="M314 692q9 9 20 9h42q7 0 9 -4.5t-3 -8.5q-67 -60 -121 -137.5t-79 -147.5q48 59 149 59q108 0 165.5 -61t57.5 -174q0 -112 -61 -173.5t-167 -61.5q-109 0 -170 61.5t-61 175.5q0 242 219 463zM154 227q0 -88 45 -134t125 -46t125.5 46t45.5 134q0 180 -171 180
q-80 0 -125 -46t-45 -134z" />
    <glyph glyph-name="seven.tabold" unicode="&#xe04b;" horiz-adv-x="633" 
d="M110 577h415q13 0 13 -12v-26q0 -9 -9 -20q-87 -110 -161 -294t-83 -323q0 -12 -13 -12h-35q-13 0 -13 12q9 143 84.5 324t161.5 297h-360q-13 0 -13 12v30q0 12 13 12z" />
    <glyph glyph-name="eight.tabold" unicode="&#xe04c;" horiz-adv-x="633" 
d="M320 -8q-114 0 -181 52t-67 134q0 149 188 187q-77 20 -123 64t-46 110q0 77 60 124.5t169 47.5t169 -47.5t60 -124.5q0 -67 -46 -110.5t-123 -63.5q188 -38 188 -187q0 -82 -67 -134t-181 -52zM320 659q-81 0 -125.5 -32.5t-44.5 -86.5q0 -58 42 -93t128 -56
q85 21 127.5 56t42.5 93q0 54 -44.5 86.5t-125.5 32.5zM320 337q-187 -34 -187 -156q0 -60 50.5 -98.5t136.5 -38.5t136.5 38.5t50.5 98.5q0 122 -187 156z" />
    <glyph glyph-name="nine.tabold" unicode="&#xe04d;" horiz-adv-x="633" 
d="M323 -88q-8 -10 -19 -10h-42q-7 0 -9 4.5t4 9.5q62 54 114 124.5t79 132.5q-48 -57 -149 -57q-107 0 -164 60.5t-57 173.5t60.5 174.5t167.5 61.5q108 0 169.5 -61.5t61.5 -174.5q0 -70 -18 -135t-52.5 -120.5t-67.5 -96t-78 -86.5zM480 350q0 88 -46 134.5t-126 46.5
t-124.5 -46t-44.5 -135q0 -179 170 -179q80 0 125.5 45.5t45.5 133.5z" />
    <glyph glyph-name="ampersand.alt" unicode="&#xe04e;" horiz-adv-x="673" 
d="M614 239h-77q-8 -55 -23 -96.5t-42.5 -77t-72.5 -54.5t-107 -19q-117 0 -177.5 70.5t-60.5 208.5q0 141 71 222t188 81q72 0 110.5 -33.5t38.5 -85.5q0 -42 -23 -68q105 85 148 196q4 10 13 7l35 -9q10 -3 6 -10q-117 -294 -526 -342q13 -185 177 -186q98 -1 147.5 63
t49.5 172q0 11 11 11h114q11 0 11 -11v-28q0 -11 -11 -11zM313 523q-91 0 -145 -65.5t-53 -180.5q57 7 107 19.5t94 32t70 49t26 65.5t-25 58t-74 22z" />
    <glyph glyph-name="at.cap" unicode="&#xe04f;" horiz-adv-x="916" 
d="M580 343l28 156q-45 18 -103 18q-95 0 -149 -59t-54 -152q0 -57 29 -89.5t87 -32.5q134 0 162 159zM658 73q8 2 11 -6l8 -23q1 -5 -6 -8q-82 -40 -216 -40q-198 0 -293.5 78t-95.5 240q0 171 111.5 279.5t306.5 108.5q83 0 147.5 -16.5t105 -44.5t66.5 -68t36.5 -82.5
t10.5 -92.5q0 -119 -54.5 -188.5t-168.5 -69.5h-51q-6 0 -10 2.5t-3 8.5l10 78q-49 -93 -161 -93q-80 0 -123 45t-43 122q0 111 69 186t192 75q79 0 153 -30q8 -4 7 -11l-60 -339h25q93 0 132.5 56t39.5 159q0 261 -321 261q-174 0 -272.5 -95.5t-98.5 -250.5
q0 -142 81.5 -209.5t261.5 -67.5q125 0 203 36z" />
    <glyph glyph-name="paragraph.cap" unicode="&#xe050;" horiz-adv-x="501" 
d="M477 656h-39q-30 0 -42.5 -12t-12.5 -43v-495q0 -111 -100 -111q-32 0 -58 8q-9 5 -8 13l3 22q2 9 13 8q28 -6 41 -6q56 0 56 72v167h-34q-108 0 -177 56.5t-69 154.5q0 99 65.5 155t176.5 56h185q13 0 13 -11v-22q0 -12 -13 -12z" />
    <glyph glyph-name="registered.cap" unicode="&#xe051;" horiz-adv-x="843" 
d="M101 350q0 -136 83.5 -227.5t236.5 -91.5q154 0 237.5 92t83.5 228t-83.5 228t-237.5 92q-153 0 -236.5 -92.5t-83.5 -228.5zM345 341h75q64 0 92.5 20t28.5 64q0 83 -118 83h-78v-167zM305 554h120q168 0 168 -129q0 -105 -117 -124l108 -138q3 -4 1.5 -7.5t-5.5 -3.5
h-38q-7 0 -12 7l-106 136h-79v-132q0 -11 -12 -11h-28q-12 0 -12 11v381q0 10 12 10zM59 351q0 153 95 257t266 104q173 0 269 -104t96 -257q0 -73 -23.5 -137.5t-67.5 -115t-114.5 -79.5t-158.5 -29q-116 0 -199.5 51t-123 131t-39.5 179z" />
    <glyph glyph-name="questiondown.cap" unicode="&#xe052;" horiz-adv-x="514" 
d="M307 689v-71q0 -11 -12 -11h-57q-12 0 -12 11v71q0 12 12 12h57q12 0 12 -12zM237 499v-38q0 -29 -19 -56.5t-45.5 -51l-53.5 -49.5t-46 -63.5t-19 -81.5q0 -77 55 -123.5t165 -46.5q117 0 197 41q10 5 8 13l-12 32q-5 10 -16 6q-86 -36 -174 -36q-161 0 -161 116
q0 37 18 70t44 59l52.5 51t44.5 56t18 64v37q0 13 -12 13h-32q-12 0 -12 -12z" />
    <glyph glyph-name="exclamdown.cap" unicode="&#xe053;" horiz-adv-x="272" 
d="M96 618v71q0 12 11 12h58q11 0 11 -12v-71q0 -11 -11 -11h-58q-11 0 -11 11zM123 511h26q12 0 12 -13l11 -486q0 -12 -12 -12h-48q-12 0 -12 12l11 486q0 13 12 13z" />
    <glyph glyph-name="parenleft.cap" unicode="&#xe054;" horiz-adv-x="360" 
d="M96 351q0 173 148 350q7 9 16 9h30q6 0 7.5 -4.5t-1.5 -7.5q-60 -71 -99.5 -162t-39.5 -185t39.5 -185.5t99.5 -161.5q2 -2 2.5 -5t-2 -5t-6.5 -2h-30q-10 0 -16 8q-148 177 -148 351z" />
    <glyph glyph-name="parenright.cap" unicode="&#xe055;" horiz-adv-x="360" 
d="M265 351q0 -100 -43 -190.5t-105 -160.5q-6 -8 -17 -8h-30q-6 0 -7.5 4.5t1.5 7.5q140 174 140 347t-140 347q-3 3 -1.5 7.5t7.5 4.5h30q10 0 17 -9q61 -69 104.5 -160t43.5 -190z" />
    <glyph glyph-name="bracketleft.cap" unicode="&#xe056;" horiz-adv-x="360" 
d="M299 37v-25q0 -12 -12 -12h-155q-13 0 -13 12v678q0 11 13 11h155q12 0 12 -11v-26q0 -12 -12 -12h-110v-603h110q12 0 12 -12z" />
    <glyph glyph-name="bracketright.cap" unicode="&#xe057;" horiz-adv-x="360" 
d="M61 12v25q0 12 12 12h110v603h-109q-13 0 -13 12v26q0 11 13 11h155q12 0 12 -11v-678q0 -12 -12 -12h-155q-13 0 -13 12z" />
    <glyph glyph-name="braceleft.cap" unicode="&#xe058;" horiz-adv-x="360" 
d="M47 336v30q0 11 13 11h16q70 0 70 167q0 85 25 121t102 36h33q12 0 12 -11v-27q0 -12 -12 -12h-24q-52 0 -66.5 -26.5t-14.5 -88.5q0 -162 -71 -185q71 -24 71 -185q0 -63 14.5 -89.5t66.5 -26.5h24q12 0 12 -12v-26q0 -12 -12 -12h-33q-77 0 -102 36t-25 122
q0 167 -70 167h-16q-13 0 -13 11z" />
    <glyph glyph-name="braceright.cap" unicode="&#xe059;" horiz-adv-x="360" 
d="M313 366v-30q0 -11 -12 -11h-17q-69 0 -69 -167q0 -85 -25.5 -121.5t-101.5 -36.5h-33q-13 0 -13 12v26q0 12 13 12h24q51 0 65.5 26.5t14.5 89.5q0 160 72 185q-72 23 -72 185q0 62 -14.5 88.5t-65.5 26.5h-24q-13 0 -13 12v27q0 11 13 11h33q76 0 101.5 -36t25.5 -121
q0 -167 69 -167h17q12 0 12 -11z" />
    <glyph glyph-name="guillemotleft.cap" unicode="&#xe05a;" horiz-adv-x="392" 
d="M40 350q0 4 1 7l84 133q5 10 16 10h30q7 0 9 -4.5t-2 -9.5l-85 -136l85 -135q4 -5 2 -9t-9 -4h-30q-10 0 -16 9l-84 133q-1 3 -1 6zM195 350q0 4 1 7l84 133q5 10 16 10h30q16 0 7 -14l-85 -135l85 -136q8 -13 -7 -13h-30q-10 0 -16 9l-84 133q-1 2 -1 6z" />
    <glyph glyph-name="guillemotright.cap" unicode="&#xe05b;" horiz-adv-x="392" 
d="M353 350q0 -3 -2 -6l-84 -133q-5 -9 -15 -9h-31q-14 0 -6 13l85 135l-85 136q-4 6 -2 10t8 4h31q10 0 15 -10l84 -133q2 -3 2 -7zM198 350q0 -3 -2 -6l-84 -133q-6 -9 -15 -9h-30q-15 0 -7 13l85 135l-85 136q-9 14 7 14h30q10 0 15 -10l84 -133q2 -3 2 -7z" />
    <glyph glyph-name="guilsinglleft.cap" unicode="&#xe05c;" horiz-adv-x="237" 
d="M39 350q0 4 2 7l84 133q5 10 16 10h30q7 0 9 -4.5t-2 -9.5l-85 -136l85 -135q4 -5 2 -9t-9 -4h-30q-10 0 -16 9l-84 133q-2 3 -2 6z" />
    <glyph glyph-name="guilsinglright.cap" unicode="&#xe05d;" horiz-adv-x="237" 
d="M198 350q0 -3 -2 -6l-84 -133q-6 -9 -15 -9h-30q-15 0 -7 13l85 135l-85 136q-9 14 7 14h30q10 0 15 -10l84 -133q2 -3 2 -7z" />
    <glyph glyph-name="hyphen.cap" unicode="&#xe05e;" horiz-adv-x="390" 
d="M333 325h-278q-11 0 -11 11v29q0 11 12 11h277q12 0 12 -11v-29q0 -11 -12 -11z" />
    <glyph glyph-name="endash.cap" unicode="&#xe05f;" horiz-adv-x="517" 
d="M459 325h-403q-10 0 -10 11v29q0 11 11 11h402q12 0 12 -11v-29q0 -11 -12 -11z" />
    <glyph glyph-name="emdash.cap" unicode="&#xe060;" horiz-adv-x="762" 
d="M704 325h-648q-10 0 -10 11v29q0 11 11 11h647q13 0 13 -11v-29q0 -11 -13 -11z" />
    <glyph glyph-name="periodcentered.cap" unicode="&#xe061;" horiz-adv-x="215" 
d="M69 317v69q0 12 12 12h53q12 0 12 -12v-69q0 -12 -11 -12h-54q-12 0 -12 12z" />
    <glyph glyph-name="bullet.cap" unicode="&#xe062;" horiz-adv-x="360" 
d="M180 224q-54 0 -90 36.5t-36 91.5t36 91t90 36t90 -36t36 -91t-36 -91.5t-90 -36.5z" />
    <glyph glyph-name="bar.cap" unicode="&#xe063;" horiz-adv-x="262" 
d="M159 754v-806q0 -12 -12 -12h-32q-12 0 -12 12v806q0 12 12 12h32q12 0 12 -12z" />
    <glyph glyph-name="brokenbar.cap" unicode="&#xe064;" horiz-adv-x="262" 
d="M159 754v-306q0 -12 -12 -12h-32q-12 0 -12 12v306q0 12 12 12h32q12 0 12 -12zM159 254v-306q0 -12 -12 -12h-32q-12 0 -12 12v306q0 12 12 12h32q12 0 12 -12z" />
    <glyph glyph-name="arrowleft.cap" unicode="&#xe065;" horiz-adv-x="642" 
d="M345 558l-199 -182l426 2q13 0 13 -12v-31q0 -12 -13 -12l-426 2l199 -183q4 -4 2 -8.5t-8 -4.5h-42q-9 0 -15 6l-213 202q-6 6 -6 13t6 13l213 202q9 7 15 7h42q6 0 8 -5t-2 -9z" />
    <glyph glyph-name="arrowup.cap" unicode="&#xe066;" horiz-adv-x="642" 
d="M534 349l-183 199l2 -426q0 -13 -12 -13h-31q-12 0 -12 13l2 426l-183 -199q-4 -5 -8.5 -3t-4.5 8v43q0 9 6 15l202 212q5 6 14 6q7 0 12 -6l203 -212q6 -6 6 -15v-43q0 -6 -4.5 -7.5t-8.5 2.5z" />
    <glyph glyph-name="arrowright.cap" unicode="&#xe067;" horiz-adv-x="642" 
d="M496 376l-199 182q-4 4 -2.5 9t7.5 5h42q7 0 16 -7l212 -202q6 -6 6 -13q0 -8 -6 -13l-212 -202q-8 -6 -16 -6h-42q-6 0 -8 4.5t3 8.5l199 183l-427 -2q-12 0 -12 12v31q0 12 12 12z" />
    <glyph glyph-name="arrowdown.cap" unicode="&#xe068;" horiz-adv-x="642" 
d="M117 351l183 -199l-2 426q0 14 12 14h31q12 0 12 -14l-2 -426l183 199q4 4 8.5 2.5t4.5 -7.5v-42q0 -9 -6 -15l-203 -213q-6 -6 -12 -6q-8 0 -14 6l-202 213q-6 6 -6 15v42q0 6 4.5 8t8.5 -3z" />
    <glyph glyph-name="arrowboth.cap" unicode="&#xe069;" horiz-adv-x="986" 
d="M840 376l-198 182q-4 4 -2.5 9t7.5 5h42q9 0 16 -7l212 -202q6 -6 6 -13t-6 -13l-212 -202q-7 -6 -16 -6h-42q-6 0 -8 4.5t3 8.5l198 183l-349 -5l-345 5l199 -183q4 -4 2 -8.5t-8 -4.5h-42q-9 0 -15 6l-213 202q-6 6 -6 13q0 8 6 13l213 202q9 7 15 7h42q6 0 8 -5t-2 -9
l-199 -182l345 4z" />
    <glyph glyph-name="arrowupdn.cap" unicode="&#xe06a;" horiz-adv-x="642" 
d="M346 98l183 199q5 4 9.5 2.5t4.5 -7.5v-43q0 -6 -7 -15l-202 -212q-6 -7 -13 -7t-13 7l-202 212q-7 9 -7 15v43q0 6 4.5 8t8.5 -3l184 -199l-5 255l5 250l-184 -199q-4 -5 -8.5 -3.5t-4.5 7.5v43q0 9 7 15l202 213q5 6 13 6q7 0 13 -6l202 -213q7 -7 7 -15v-43
q0 -6 -4.5 -7.5t-9.5 3.5l-183 199l5 -250z" />
    <glyph glyph-name="arrowupleft.cap" unicode="&#xe06b;" horiz-adv-x="642" 
d="M485 492l-269 12l303 -300q9 -9 0 -18l-22 -21q-9 -10 -17 0l-300 303l12 -270q0 -6 -5 -8t-9 2l-29 30q-7 8 -7 15l-7 294q0 8 4 13q5 5 14 5l293 -7q8 0 16 -7l30 -29q5 -4 2.5 -9t-9.5 -5z" />
    </font>
</defs>
</svg>
