<?xml version="1.0" standalone="no"?>
<!DOCTYPE svg PUBLIC "-//W3C//DTD SVG 1.1//EN" "http://www.w3.org/Graphics/SVG/1.1/DTD/svg11.dtd" >
<svg>
<metadata>
Created by FontForge 20090622 at Wed Feb 21 18:06:49 2018
 By deploy user
&#194;&#169; 2012, 2013, 2014, 2015 by Stawix Ruecha &#38; Foundry. All rights reserved.
</metadata>
<defs>
<font id="AmsiPro-SemiBold" horiz-adv-x="427" >
  <font-face 
    font-family="AmsiPro-SemiBold"
    font-weight="400"
    font-stretch="normal"
    units-per-em="1000"
    panose-1="2 11 10 6 2 2 1 1 1 4"
    ascent="854"
    descent="-146"
    x-height="522"
    cap-height="703"
    bbox="-217.114 -289 1305 1038"
    underline-thickness="45"
    underline-position="-56"
    unicode-range="U+0020-U+FB4E"
  />
<missing-glyph horiz-adv-x="492" 
d="M0 690h492v-690h-492v690zM443 94v503l-168 -252zM49 597v-503l168 251zM246 389l168 252h-335zM246 301l-167 -252h334z" />
    <glyph glyph-name="f_f" unicode="ff" horiz-adv-x="660" 
d="M508 518h111q19 0 19 -20v-47q0 -19 -19 -19h-111v-414q0 -18 -18 -18h-66q-18 0 -18 18v414h-200v-414q0 -18 -19 -18h-64q-20 0 -20 18v414h-62q-18 0 -18 19v47q0 20 18 20h62v47q0 146 147 146q38 0 73 -11q15 -6 15 -17v-42q0 -20 -17 -16q-25 5 -51 5
q-64 0 -64 -69v-43h200v45q0 148 149 148q43 0 74 -11q13 -5 13 -18v-43q0 -21 -16 -17q-27 5 -52 5q-66 0 -66 -70v-39z" />
    <glyph glyph-name="fi" unicode="fi" horiz-adv-x="585" 
d="M510 498v-479q0 -19 -20 -19h-65q-19 0 -19 19v413h-200v-414q0 -18 -19 -18h-64q-20 0 -20 18v414h-62q-18 0 -18 19v47q0 11 3.5 15.5t14.5 4.5h62v43q0 74 37.5 112t107.5 38q50 0 75 -11q15 -5 15 -17v-42q0 -9 -5 -13.5t-13 -2.5q-35 5 -52 5q-63 0 -63 -72v-40h285
q20 0 20 -20zM508 685v-77q0 -19 -19 -19h-62q-20 0 -20 19v77q0 18 20 18h62q19 0 19 -18z" />
    <glyph glyph-name="fl" unicode="fl" horiz-adv-x="584" 
d="M509 670v-651q0 -19 -19 -19h-66q-18 0 -18 19v604q-31 7 -87 7q-63 0 -88.5 -19.5t-25.5 -61.5v-31h84q18 0 18 -20v-47q0 -19 -18 -19h-83v-414q0 -18 -19 -18h-64q-20 0 -20 18v414h-62q-18 0 -18 19v47q0 20 18 20h62v30q0 85 49.5 125t168.5 40q108 0 169 -21
q11 -4 15 -8t4 -14z" />
    <glyph glyph-name="f_f_i" unicode="ffi" horiz-adv-x="886" 
d="M811 498v-479q0 -19 -19 -19h-66q-18 0 -18 19v413h-200v-414q0 -18 -18 -18h-66q-18 0 -18 18v414h-200v-414q0 -18 -19 -18h-64q-20 0 -20 18v414h-62q-18 0 -18 19v47q0 20 18 20h62v47q0 146 147 146q38 0 73 -11q15 -6 15 -17v-42q0 -20 -17 -16q-25 5 -51 5
q-64 0 -64 -69v-43h200v47q0 146 146 146q38 0 73 -11q15 -6 15 -17v-42q0 -20 -17 -16q-25 5 -51 5q-64 0 -64 -69v-43h284q19 0 19 -20zM810 685v-77q0 -19 -19 -19h-63q-19 0 -19 19v77q0 18 19 18h63q19 0 19 -18z" />
    <glyph glyph-name="f_f_l" unicode="ffl" horiz-adv-x="885" 
d="M508 432v-414q0 -18 -18 -18h-66q-18 0 -18 19v413h-200v-414q0 -18 -19 -18h-64q-20 0 -20 18v414h-62q-18 0 -18 19v47q0 20 18 20h62v47q0 146 147 146q38 0 73 -11q15 -6 15 -17v-42q0 -20 -17 -16q-25 5 -51 5q-64 0 -64 -69v-43h200v30q0 85 49 125t168 40
q110 0 168 -21q12 -4 15.5 -8t3.5 -14v-651q0 -19 -18 -19h-66q-19 0 -19 19v604q-29 7 -86 7q-63 0 -88 -19t-25 -62v-31h82q19 0 19 -20v-47q0 -19 -19 -19h-82z" />
    <glyph glyph-name="f_b" unicode="fb" horiz-adv-x="961" 
d="M509 262q0 -92 39.5 -139t111.5 -47q74 0 110.5 44.5t36.5 141.5t-36.5 141t-110.5 44q-72 0 -111.5 -46.5t-39.5 -138.5zM509 670v-230q21 44 69 69t108 25q107 0 167 -69t60 -203t-60 -203t-167 -69q-62 0 -110 23.5t-70 69.5l-1 -66q0 -17 -19 -17h-62q-18 0 -18 19
v604q-31 7 -87 7q-63 0 -88 -19t-25 -62v-31h83q18 0 18 -20v-47q0 -19 -18 -19h-83v-414q0 -18 -19 -18h-64q-20 0 -20 18v414h-62q-18 0 -18 19v47q0 20 18 20h62v31q0 85 49.5 124.5t168.5 39.5q108 0 169 -21q11 -4 15 -8t4 -14z" />
    <glyph glyph-name="f_f_b" unicode="ffb" horiz-adv-x="1263" 
d="M810 262q0 -92 39.5 -139t112.5 -47q74 0 110.5 44.5t36.5 140.5q0 98 -36.5 142t-110.5 44q-73 0 -112.5 -46.5t-39.5 -138.5zM810 670v-230q21 44 69.5 69t107.5 25q107 0 167 -69t60 -203t-59.5 -203t-166.5 -69q-62 0 -109.5 23.5t-69.5 69.5l-3 -66q0 -17 -19 -17
h-61q-19 0 -19 19v604q-29 7 -86 7q-63 0 -88 -19t-25 -62v-31h83q19 0 19 -20v-47q0 -19 -19 -19h-83v-414q0 -18 -18 -18h-66q-18 0 -18 18v414h-200v-414q0 -18 -19 -18h-64q-20 0 -20 18v414h-62q-18 0 -18 19v47q0 20 18 20h62v47q0 146 147 146q40 0 73 -11
q15 -4 15 -17v-42q0 -20 -17 -16q-25 5 -51 5q-64 0 -64 -69v-43h200v30q0 85 49 125t168 40q110 0 168 -21q12 -4 15.5 -8t3.5 -14z" />
    <glyph glyph-name="f_h" unicode="fh" horiz-adv-x="936" 
d="M509 670v-224q18 36 61 62t113 26q92 0 138.5 -50.5t46.5 -140.5v-324q0 -19 -19 -19h-66q-19 0 -19 19v306q0 58 -27 87.5t-88 29.5q-66 0 -103 -38.5t-37 -98.5v-286q0 -19 -19 -19h-66q-18 0 -18 19v604q-31 7 -87 7q-63 0 -88 -19t-25 -62v-31h83q18 0 18 -20v-47
q0 -19 -18 -19h-83v-414q0 -18 -19 -18h-64q-20 0 -20 18v414h-62q-18 0 -18 19v47q0 20 18 20h62v30q0 85 49.5 125t168.5 40q108 0 169 -21q11 -4 15 -8t4 -14z" />
    <glyph glyph-name="f_f_h" unicode="ffh" horiz-adv-x="1239" 
d="M810 670v-224q19 36 62.5 62t111.5 26q92 0 139 -50.5t47 -141.5v-323q0 -19 -20 -19h-65q-20 0 -20 19v307q0 116 -114 116q-66 0 -103.5 -38.5t-37.5 -98.5v-286q0 -19 -18 -19h-66q-19 0 -19 19v604q-29 7 -86 7q-63 0 -88 -19t-25 -62v-31h83q19 0 19 -20v-47
q0 -19 -19 -19h-83v-414q0 -18 -18 -18h-66q-18 0 -18 18v414h-200v-414q0 -18 -19 -18h-64q-20 0 -20 18v414h-62q-18 0 -18 19v47q0 20 18 20h62v47q0 72 37.5 109t107.5 37q40 0 75 -11q15 -6 15 -17v-42q0 -20 -17 -16q-25 5 -51 5q-64 0 -64 -69v-43h200v30
q0 85 49 125t168 40q110 0 168 -21q12 -4 15.5 -8t3.5 -14z" />
    <glyph glyph-name="f_j" unicode="fj" horiz-adv-x="585" 
d="M512 498v-471q0 -75 -30 -108.5t-97 -33.5q-37 0 -69 9q-16 3 -16 19v48q0 20 19 15q30 -5 41 -5q48 0 48 68v393h-202v-414q0 -18 -19 -18h-64q-20 0 -20 18v414h-62q-18 0 -18 19v47q0 20 18 20h62v47q0 146 147 146q38 0 73 -11q15 -6 15 -17v-42q0 -20 -17 -16
q-25 5 -51 5q-64 0 -64 -69v-43h287q19 0 19 -20zM511 685v-77q0 -19 -20 -19h-62q-19 0 -19 19v77q0 18 19 18h62q20 0 20 -18z" />
    <glyph glyph-name="f_f_j" unicode="ffj" horiz-adv-x="887" 
d="M814 498v-471q0 -74 -30 -108t-97 -34q-36 0 -70 9q-15 3 -15 19v48q0 18 18 15q32 -5 42 -5q48 0 48 66v395h-202v-414q0 -18 -18 -18h-66q-18 0 -18 18v414h-200v-414q0 -18 -19 -18h-64q-20 0 -20 18v414h-62q-18 0 -18 19v47q0 20 18 20h62v47q0 146 147 146
q38 0 73 -11q15 -6 15 -17v-42q0 -20 -17 -16q-25 5 -51 5q-64 0 -64 -69v-43h200v47q0 146 146 146q38 0 73 -11q15 -6 15 -18v-41q0 -20 -17 -16q-25 5 -51 5q-64 0 -64 -69v-43h286q20 0 20 -20zM812 685v-77q0 -19 -18 -19h-64q-19 0 -19 19v77q0 18 19 18h64
q18 0 18 -18z" />
    <glyph glyph-name="f_k" unicode="fk" horiz-adv-x="850" 
d="M510 670v-324l192 165q13 11 27 11h85q11 0 13.5 -8t-6.5 -16l-243 -207l254 -268q7 -7 4 -15t-13 -8h-86q-15 0 -27 14l-200 214v-209q0 -19 -19 -19h-67q-18 0 -18 19v604q-31 7 -87 7q-63 0 -88 -19t-25 -62v-31h83q18 0 18 -20v-47q0 -19 -18 -19h-83v-414
q-1 -18 -19 -18h-64q-20 0 -20 18v414h-62q-18 0 -18 19v47q0 20 18 20h62v30q0 85 49.5 125t168.5 40q111 0 169 -21q12 -4 16 -8t4 -14z" />
    <glyph glyph-name="f_f_k" unicode="ffk" horiz-adv-x="1151" 
d="M707 19v604q-29 7 -86 7q-63 0 -88 -19t-25 -62v-31h82q19 0 19 -20v-47q0 -19 -19 -19h-82v-414q0 -18 -18 -18h-66q-18 0 -18 18v414h-200v-414q0 -18 -19 -18h-64q-20 0 -20 18v414h-62q-18 0 -18 19v47q0 20 18 20h62v47q0 146 147 146q38 0 73 -11q15 -6 15 -17v-42
q0 -20 -17 -16q-25 5 -51 5q-64 0 -64 -69v-43h200v30q0 85 49 125t168 40q111 0 169 -21q12 -4 15.5 -8t3.5 -14v-324l193 165q11 11 27 11h84q11 0 14 -8t-6 -16l-243 -207l254 -268q7 -7 3.5 -15t-13.5 -8h-85q-16 0 -28 14l-200 214v-209q0 -19 -18 -19h-67
q-19 0 -19 19z" />
    <glyph glyph-name="f_t" unicode="ft" horiz-adv-x="677" 
d="M206 518h202v124q0 18 18 18h62q20 0 20 -18v-124h122q19 0 19 -20v-47q0 -19 -19 -19h-122v-265q0 -50 15.5 -68.5t61.5 -18.5q8 0 47 6q16 1 18 -16l3 -48q1 -15 -16 -18q-37 -11 -76 -11q-84 0 -119.5 37.5t-35.5 125.5v276h-200v-414q0 -18 -19 -18h-64q-20 0 -20 18
v414h-62q-18 0 -18 19v47q0 20 18 20h62v47q0 146 147 146q38 0 73 -11q15 -6 15 -17v-42q0 -20 -17 -16q-25 5 -51 5q-64 0 -64 -69v-43z" />
    <glyph glyph-name="f_f_t" unicode="fft" horiz-adv-x="978" 
d="M406 518v47q0 146 146 146q40 0 73 -11q15 -6 15 -17v-42q0 -20 -17 -16q-25 5 -51 5q-64 0 -64 -69v-43h201v124q0 18 19 18h61q19 0 19 -18v-124h124q18 0 18 -19v-48q0 -19 -18 -19h-123v-265q0 -50 16 -68.5t61 -18.5q2 0 44 6q15 2 18 -16l8 -47q2 -13 -14 -18
q-27 -12 -80 -12q-83 0 -119 37.5t-36 125.5v276h-199v-414q0 -18 -18 -18h-66q-18 0 -18 18v414h-200v-414q0 -18 -19 -18h-64q-20 0 -20 18v414h-62q-18 0 -18 19v47q0 20 18 20h62v47q0 146 147 146q38 0 73 -11q15 -6 15 -17v-42q0 -20 -17 -16q-25 5 -51 5
q-64 0 -64 -69v-43h200z" />
    <glyph glyph-name="t_t" unicode="tt" horiz-adv-x="674" 
d="M627 432h-123v-265q0 -50 16 -68.5t61 -18.5q2 0 44 6q15 2 18 -16l8 -47q2 -13 -14 -18q-27 -12 -80 -12q-84 0 -119.5 37.5t-35.5 125.5v276h-204v-265q0 -50 16 -68.5t61 -18.5q4 0 43 6q15 2 18 -16l8 -47q2 -13 -14 -18q-27 -12 -79 -12q-83 0 -118.5 37.5
t-35.5 125.5v276h-64q-20 0 -20 19v47q0 20 20 20h66v124q0 18 18 18h61q20 0 20 -18v-124h206v124q0 18 19 18h61q19 0 19 -18v-124h124q18 0 18 -20v-47q0 -19 -18 -19z" />
    <glyph glyph-name="t_t_f" unicode="ttf" horiz-adv-x="969" 
d="M504 432v-265q0 -50 15.5 -68.5t60.5 -18.5q12 0 27 3t17 3q17 3 19 -16l6 -48q1 -15 -16 -18q-35 -11 -76 -11q-83 0 -119 37.5t-36 125.5v276h-204v-265q0 -50 16 -68.5t61 -18.5q5 0 44 6q15 2 18 -16l6 -47q2 -13 -14 -18q-27 -12 -78 -12q-83 0 -118.5 37.5
t-35.5 125.5v276h-64q-20 0 -20 19v47q0 20 20 20h66v124q0 18 18 18h61q20 0 20 -18v-124h206v124q0 18 19 18h61q19 0 19 -18v-124h209v44q0 149 149 149q44 0 75 -11q13 -5 13 -18v-43q0 -21 -16 -17q-27 5 -52 5q-66 0 -66 -70v-39h111q19 0 19 -20v-47q0 -19 -19 -19
h-111v-414q0 -18 -19 -18h-65q-19 0 -19 18v414h-208z" />
    <glyph glyph-name=".notdef" horiz-adv-x="492" 
d="M0 690h492v-690h-492v690zM443 94v503l-168 -252zM49 597v-503l168 251zM246 389l168 252h-335zM246 301l-167 -252h334z" />
    <glyph glyph-name=".null" horiz-adv-x="0" 
 />
    <glyph glyph-name="nonmarkingreturn" horiz-adv-x="333" 
 />
    <glyph glyph-name="space" unicode=" " horiz-adv-x="296" 
 />
    <glyph glyph-name="exclam" unicode="!" horiz-adv-x="298" 
d="M89 19v87q0 19 19 19h82q19 0 19 -19v-87q0 -19 -18 -19h-84q-18 0 -18 19zM173 205h-48q-18 0 -20 19l-19 459q-1 20 20 20h86q21 0 20 -20l-20 -459q0 -19 -19 -19z" />
    <glyph glyph-name="quotedbl" unicode="&#x22;" horiz-adv-x="350" 
d="M140 620l-20 -157h-43l-21 157q-4 36 -4 63q0 39 47 39q46 0 46 -39q0 -18 -5 -63zM294 620l-20 -157h-43l-21 157q-4 36 -4 63q0 39 46 39t46 -39q0 -27 -4 -63z" />
    <glyph glyph-name="numbersign" unicode="#" horiz-adv-x="643" 
d="M564 678l-44 -165h86q18 0 18 -19v-35q0 -19 -18 -19h-105l-49 -183h82q19 0 19 -19v-35q0 -19 -19 -19h-101l-46 -179q-5 -19 -23 -14l-38 11q-18 5 -14 23l42 159h-153l-46 -179q-5 -19 -23 -14l-38 11q-18 5 -14 23l42 159h-85q-19 0 -19 19v35q0 19 19 19h104l49 183
h-82q-19 0 -19 19v35q0 19 19 19h101l48 186q4 18 23 13l39 -10q18 -4 13 -24l-43 -165h151l49 186q4 18 23 13l38 -10q20 -5 14 -24zM269 440l-49 -183h153l48 183h-152z" />
    <glyph glyph-name="dollar" unicode="$" horiz-adv-x="576" 
d="M332 785v-72q45 -2 90.5 -12.5t68.5 -21.5q18 -7 12 -24l-20 -52q-6 -19 -25 -12q-64 27 -145 27q-72 0 -111.5 -25.5t-39.5 -67.5q0 -15 3.5 -27t14 -22.5l17.5 -17.5t27 -16.5l27.5 -13t34.5 -13.5t34 -13l48 -19t43.5 -19.5t42 -23.5t32.5 -26.5t27.5 -33.5t15.5 -41
t7 -51q0 -85 -54 -131.5t-146 -59.5v-78q0 -19 -18 -19h-38q-19 0 -19 19v73q-122 1 -202 37q-20 8 -14 23l19 54q8 18 26 11q85 -30 164 -30q173 0 173 101q0 12 -2.5 22.5t-8.5 20t-11.5 16.5t-17.5 14.5l-19 12t-24 11.5l-24.5 10t-28 10.5l-28.5 10.5q-33 13 -46 17.5
t-41.5 17.5t-41 22.5t-32 26.5t-28 34t-15.5 41.5t-7 52.5q0 77 53.5 125.5t151.5 57.5v74q0 18 19 18h38q18 0 18 -18z" />
    <glyph glyph-name="percent" unicode="%" horiz-adv-x="939" 
d="M721 685l-412 -668q-9 -17 -26 -17h-55q-21 0 -9 19l411 668q9 16 27 16h54q21 0 10 -18zM42 501q0 101 46 155t124 54t124 -54t46 -155t-46 -154.5t-124 -53.5t-124 53.5t-46 154.5zM296 501q0 134 -84 134t-84 -134q0 -133 84 -133t84 133zM557 202q0 101 46 155
t125 54q78 0 123.5 -54t45.5 -155t-46 -154.5t-124 -53.5t-124 53.5t-46 154.5zM812 202q0 134 -84 134t-84 -134q0 -133 84 -133t84 133z" />
    <glyph glyph-name="ampersand" unicode="&#x26;" horiz-adv-x="730" 
d="M670 284q0 -96 -49 -163l94 -101q6 -7 3 -13.5t-11 -6.5h-74q-18 0 -30 12l-44 47q-77 -67 -224 -67q-130 0 -210.5 58.5t-80.5 160.5q0 81 49 135t133 75l-21 22q-32 34 -45.5 63t-13.5 67q0 142 194 142q72 0 130 -25q22 -9 16 -24l-15 -42q-8 -19 -29 -11
q-45 16 -94 16q-107 0 -107 -63q0 -10 3 -20.5t5.5 -17t11 -18t11.5 -15t15.5 -16.5t14.5 -16l255 -273q25 41 25 99q0 13 -5.5 32.5t-5.5 24.5q0 17 18 17h54q14 0 18 -16q9 -29 9 -63zM343 82q107 0 156 44l-216 229q-131 -28 -131 -138q0 -57 52.5 -96t138.5 -39z" />
    <glyph glyph-name="quotesingle" unicode="'" horiz-adv-x="197" 
d="M140 620l-20 -157h-43l-21 157q-4 36 -4 63q0 39 47 39q46 0 46 -39q0 -18 -5 -63z" />
    <glyph glyph-name="parenleft" unicode="(" horiz-adv-x="369" 
d="M83 298q0 115 47.5 220t117.5 184q11 11 23 11h50q10 0 12.5 -6.5t-2.5 -12.5q-63 -77 -103 -182.5t-40 -213.5q0 -106 40.5 -210t102.5 -185q5 -7 2.5 -13.5t-12.5 -6.5h-50q-13 0 -23 10q-71 79 -118 184.5t-47 220.5z" />
    <glyph glyph-name="parenright" unicode=")" horiz-adv-x="369" 
d="M286 298q0 -115 -47 -220.5t-117 -184.5q-10 -10 -23 -10h-51q-9 0 -12 7t2 13q145 197 145 395q0 105 -40.5 208.5t-104.5 187.5q-5 6 -2 12.5t12 6.5h51q12 0 23 -11q70 -78 117 -183.5t47 -220.5z" />
    <glyph glyph-name="asterisk" unicode="*" horiz-adv-x="408" 
d="M205 356q-19 0 -26 7.5t-7 25.5q0 14 6.5 55.5t7.5 56.5q-13 -9 -45.5 -34.5t-45.5 -32.5q-29 -19 -45 10q-9 17 -5.5 26.5t19.5 19.5q11 6 49.5 21t53.5 23q-14 7 -53 22t-50 22q-31 18 -14 45q15 28 45 12q13 -8 45 -34t45 -35q-1 15 -7.5 56.5t-6.5 55.5q0 19 7 26.5
t26 7.5q18 0 24.5 -7.5t6.5 -26.5q0 -14 -6 -55.5t-7 -56.5q12 8 45 34.5t46 33.5q29 17 45 -11q16 -29 -14 -46q-11 -7 -50 -21.5t-53 -21.5l52.5 -21.5t50.5 -22.5q16 -10 19.5 -19.5t-5.5 -25.5q-18 -28 -45 -12q-13 7 -45.5 33.5t-44.5 34.5q1 -15 7.5 -56.5t6.5 -55.5
q0 -18 -7 -25.5t-25 -7.5z" />
    <glyph glyph-name="plus" unicode="+" horiz-adv-x="594" 
d="M517 302h-173v-174q0 -19 -17 -19h-59q-19 0 -19 19v174h-172q-19 0 -19 17v50q0 18 19 18h172v171q0 19 19 19h59q17 0 17 -19v-171h173q19 0 19 -18v-50q0 -17 -19 -17z" />
    <glyph glyph-name="comma" unicode="," horiz-adv-x="237" 
d="M172 2l-45 -112q-5 -11 -17 -11h-25q-15 0 -10 17l28 104h-23q-19 0 -19 19v85q0 19 20 19h75q20 0 20 -19v-78q0 -12 -4 -24z" />
    <glyph glyph-name="hyphen" unicode="-" horiz-adv-x="395" 
d="M334 222h-275q-18 0 -18 18v50q0 18 19 18h274q20 0 20 -18v-50q0 -18 -20 -18z" />
    <glyph glyph-name="period" unicode="." horiz-adv-x="237" 
d="M61 19v85q0 19 20 19h75q20 0 20 -19v-85q0 -19 -19 -19h-77q-19 0 -19 19z" />
    <glyph glyph-name="slash" unicode="/" horiz-adv-x="441" 
d="M11 22l317 663q8 18 26 18h61q25 0 14 -23l-316 -662q-8 -18 -26 -18h-61q-12 0 -16 6.5t1 15.5z" />
    <glyph glyph-name="zero" unicode="0" horiz-adv-x="679" 
d="M339 714q135 0 208.5 -92.5t73.5 -268.5t-73.5 -269t-208.5 -93t-209 93t-74 268t74 268.5t209 93.5zM339 87q173 0 173 265t-173 265q-172 0 -172 -265t172 -265z" />
    <glyph glyph-name="one" unicode="1" horiz-adv-x="472" 
d="M236 20v562l-137 -94q-13 -9 -23 3l-37 44q-9 12 3 21l185 139q11 8 27 8h71q20 0 20 -20v-663q0 -20 -20 -20h-68q-21 0 -21 20z" />
    <glyph glyph-name="two" unicode="2" horiz-adv-x="626" 
d="M163 514q0 -13 2.5 -31t2.5 -24q0 -16 -18 -16h-62q-14 0 -20 20q-6 26 -6 55q0 85 60.5 140.5t179.5 55.5q131 0 191 -59.5t60 -157.5q0 -60 -31.5 -122t-84 -115t-103 -93t-105.5 -74h311q20 0 20 -20v-53q0 -20 -20 -20h-461q-20 0 -20 20v43q0 15 15 26l97.5 66
t95 72.5t92 84.5t59.5 85.5t26 92.5q0 131 -142 131q-74 0 -106.5 -30.5t-32.5 -76.5z" />
    <glyph glyph-name="three" unicode="3" horiz-adv-x="583" 
d="M193 409h73q133 0 133 109q0 51 -36.5 77.5t-100.5 26.5q-91 0 -175 -35q-17 -7 -24 11l-19 51q-6 15 12 23q98 42 212 42q106 0 172 -47t66 -135q0 -121 -105 -157q124 -35 124 -169q0 -107 -68 -161t-195 -54q-121 0 -214 42q-17 8 -12 21l19 54q7 18 25 11
q86 -35 176 -35q160 0 160 124q0 113 -147 113h-76q-20 0 -20 18v51q0 19 20 19z" />
    <glyph glyph-name="four" unicode="4" horiz-adv-x="657" 
d="M502 0h-68q-19 0 -19 20v132h-355q-20 0 -20 20v52q0 14 8 25l359 441q10 13 24 13h71q20 0 20 -20v-440h96q20 0 20 -21v-50q0 -20 -20 -20h-96v-132q0 -20 -20 -20zM415 569l-269 -326h269v326z" />
    <glyph glyph-name="five" unicode="5" horiz-adv-x="597" 
d="M543 223q0 -113 -70.5 -172.5t-199.5 -59.5q-138 0 -220 43q-18 9 -12 25l20 51q7 18 25 11q86 -37 180 -37q168 0 168 139q0 66 -36 98t-118 32q-52 0 -100.5 -14t-53.5 -14q-6 0 -17 4l-32 10q-14 3 -11 20q20 184 20 323q0 21 22 21h374q20 0 20 -20v-53
q0 -19 -20 -19h-305q-4 -91 -14 -195q58 23 134 23q124 0 185 -56.5t61 -159.5z" />
    <glyph glyph-name="six" unicode="6" horiz-adv-x="644" 
d="M482 600q-67 23 -115 23q-101 0 -152.5 -68.5t-53.5 -189.5q20 46 70 78.5t127 32.5q117 0 176.5 -64.5t59.5 -167.5q0 -113 -68 -183t-185 -70q-139 0 -212 91.5t-73 242.5q0 180 75.5 284.5t227.5 104.5q83 0 149 -27q18 -8 14 -21l-16 -53q-6 -19 -24 -13zM339 84
q72 0 112 44t40 116q0 64 -37.5 105.5t-113.5 41.5q-77 0 -119 -44.5t-42 -108.5q0 -58 43 -106t117 -48z" />
    <glyph glyph-name="seven" unicode="7" horiz-adv-x="570" 
d="M160 19q12 143 87.5 314.5t159.5 277.5h-345q-20 0 -20 19v53q0 20 20 20h442q20 0 20 -20v-47q0 -11 -15 -31q-93 -134 -162.5 -291t-74.5 -295q0 -19 -21 -19h-71q-10 0 -15.5 5t-4.5 14z" />
    <glyph glyph-name="eight" unicode="8" horiz-adv-x="630" 
d="M315 -10q-126 0 -195.5 53.5t-69.5 140.5q0 142 171 181q-69 20 -110.5 63t-41.5 106q0 84 63.5 132t182.5 48q120 0 183.5 -48t63.5 -132q0 -62 -42 -105.5t-111 -63.5q171 -38 171 -181q0 -87 -69.5 -140.5t-195.5 -53.5zM315 630q-71 0 -106 -26t-35 -72q0 -49 35 -79
t106 -49q71 19 106.5 49t35.5 79q0 46 -35.5 72t-106.5 26zM315 325q-158 -34 -158 -134q0 -51 41.5 -82.5t116.5 -31.5q76 0 117.5 31.5t41.5 82.5q0 100 -159 134z" />
    <glyph glyph-name="nine" unicode="9" horiz-adv-x="644" 
d="M166 103q71 -23 114 -23q99 0 151 65.5t55 184.5q-18 -40 -69 -71.5t-131 -31.5q-117 0 -176.5 65t-59.5 167q0 114 67.5 184t185.5 70q139 0 211.5 -91.5t72.5 -243.5q0 -181 -73.5 -284.5t-225.5 -103.5q-88 0 -149 27q-18 7 -14 22l16 52q7 18 25 12zM305 620
q-72 0 -112 -44.5t-40 -115.5q0 -64 37.5 -106t113.5 -42q77 0 119 44.5t42 108.5q0 63 -42 109t-118 46z" />
    <glyph glyph-name="colon" unicode=":" horiz-adv-x="270" 
d="M78 19v85q0 19 19 19h76q19 0 19 -19v-85q0 -19 -19 -19h-77q-18 0 -18 19zM78 418v86q0 18 19 18h76q19 0 19 -19v-85q0 -19 -19 -19h-77q-18 0 -18 19z" />
    <glyph glyph-name="semicolon" unicode=";" horiz-adv-x="270" 
d="M78 418v85q0 19 20 19h75q19 0 19 -19v-85q0 -19 -19 -19h-77q-18 0 -18 19zM187 2l-43 -112q-6 -11 -17 -11h-26q-16 0 -10 17l29 104h-24q-18 0 -18 19v85q0 19 19 19h76q19 0 19 -19v-78q0 -13 -5 -24z" />
    <glyph glyph-name="less" unicode="&#x3c;" horiz-adv-x="594" 
d="M61 344q0 11 11 19l377 282q16 11 27 -1l34 -42q13 -16 -2 -26l-321 -233l321 -232q15 -10 2 -25l-34 -44q-13 -13 -26 -2l-378 283q-11 7 -11 21z" />
    <glyph glyph-name="equal" unicode="=" horiz-adv-x="594" 
d="M505 399h-416q-18 0 -18 18v47q0 19 18 19h416q18 0 18 -19v-47q0 -18 -18 -18zM505 206h-416q-18 0 -18 18v47q0 18 18 18h416q18 0 18 -18v-47q0 -18 -18 -18z" />
    <glyph glyph-name="greater" unicode="&#x3e;" horiz-adv-x="594" 
d="M533 344q0 -12 -11 -21l-380 -283q-17 -12 -26 2l-32 44q-10 14 3 25l321 232l-321 233q-15 11 -3 26l32 42q11 14 26 2l380 -283q11 -7 11 -19z" />
    <glyph glyph-name="question" unicode="?" horiz-adv-x="532" 
d="M198 19v87q0 19 20 19h81q20 0 20 -19v-87q0 -19 -20 -19h-82q-19 0 -19 19zM309 252v-29q0 -18 -19 -18h-59q-19 0 -19 19v28q0 29 17 57t41 51.5l48 48.5t41 56.5t17 64.5q0 91 -136 91q-76 0 -163 -34q-19 -7 -25 10l-20 53q-5 14 13 22q80 42 204 42q114 0 174 -47
t60 -127q0 -45 -18 -83t-43.5 -63.5t-51 -48t-43.5 -46t-18 -47.5z" />
    <glyph glyph-name="at" unicode="@" horiz-adv-x="931" 
d="M566 234l25 140q-37 14 -82 14q-82 0 -128.5 -48.5t-46.5 -127.5q0 -50 24.5 -77.5t74.5 -27.5q110 0 133 127zM675 -19q12 4 15 -9l9 -32q2 -10 -8 -13q-96 -39 -224 -39q-406 0 -406 324q0 171 116.5 280t313.5 109q101 0 176.5 -24.5t118.5 -68t63.5 -96.5t20.5 -116
q0 -123 -56.5 -192.5t-167.5 -69.5h-59q-21 0 -21 14l2 63q-47 -79 -150 -79q-83 0 -129.5 45.5t-46.5 126.5q0 113 70.5 185.5t200.5 72.5q86 0 161 -34q13 -6 11 -17l-55 -315h24q81 0 116 51t35 150q0 109 -73 176t-242 67q-168 0 -265 -90t-97 -238q0 -136 81 -200.5
t258 -64.5q113 0 208 34z" />
    <glyph glyph-name="A" unicode="A" horiz-adv-x="676" 
d="M223 265h229l-113 329h-2zM294 703h88q12 0 16.5 -4.5t8.5 -15.5l243 -661q4 -9 -0.5 -15.5t-14.5 -6.5h-75q-16 0 -24 18l-55 151h-286l-56 -151q-6 -18 -22 -18h-76q-10 0 -14.5 6.5t-1.5 15.5l243 661q4 11 9 15.5t17 4.5z" />
    <glyph glyph-name="B" unicode="B" horiz-adv-x="692" 
d="M191 407h164q84 0 118.5 24t34.5 80q0 54 -35.5 76.5t-121.5 22.5h-160v-203zM359 0h-256q-21 0 -21 20v663q0 20 21 20h250q135 0 198.5 -44.5t63.5 -138.5q0 -64 -28 -100.5t-71 -48.5q123 -28 123 -170q0 -106 -68.5 -153.5t-211.5 -47.5zM191 94h161q99 0 138.5 24.5
t39.5 88.5q0 60 -37.5 85.5t-133.5 25.5h-168v-224z" />
    <glyph glyph-name="C" unicode="C" horiz-adv-x="611" 
d="M390 88q72 0 132 33q18 7 27 -12l23 -52q6 -13 -14 -23q-72 -44 -184 -44q-153 0 -236.5 93t-83.5 269q0 175 82.5 268.5t232.5 93.5q110 0 182 -42q18 -10 13 -24l-22 -51q-7 -19 -27 -10q-58 28 -129 28q-220 0 -220 -263q0 -264 224 -264z" />
    <glyph glyph-name="D" unicode="D" horiz-adv-x="685" 
d="M285 0h-182q-21 0 -21 20v663q0 20 20 20h181q175 0 262.5 -79.5t87.5 -262.5q0 -196 -86.5 -278.5t-261.5 -82.5zM281 603h-89v-503h90q122 0 180.5 56t58.5 205q0 136 -59 189t-181 53z" />
    <glyph glyph-name="E" unicode="E" horiz-adv-x="559" 
d="M475 312h-284v-215h299q20 0 20 -19v-57q0 -21 -20 -21h-387q-21 0 -21 20v663q0 20 20 20h384q21 0 21 -20v-57q0 -20 -21 -20h-295v-200h284q19 0 19 -21v-52q0 -21 -19 -21z" />
    <glyph glyph-name="F" unicode="F" horiz-adv-x="546" 
d="M478 301h-286v-281q0 -20 -21 -20h-68q-21 0 -21 20v663q0 20 21 20h383q19 0 19 -19v-57q0 -20 -19 -20h-294v-212h286q20 0 20 -21v-54q0 -19 -20 -19z" />
    <glyph glyph-name="G" unicode="G" horiz-adv-x="705" 
d="M402 412h212q20 0 20 -20v-319q0 -21 -20 -34q-81 -49 -221 -49q-339 0 -339 362t346 362q118 0 196 -45q19 -10 13 -24l-20 -52q-9 -19 -28 -10q-73 32 -150 32q-128 0 -186.5 -63t-58.5 -200t57.5 -200.5t179.5 -63.5q78 0 128 26v207h-129q-21 0 -21 19v52q0 20 21 20
z" />
    <glyph glyph-name="H" unicode="H" horiz-adv-x="707" 
d="M515 20v289h-323v-289q0 -20 -20 -20h-69q-21 0 -21 20v663q0 20 21 20h69q20 0 20 -20v-274h323v274q0 20 21 20h69q20 0 20 -20v-663q0 -20 -20 -20h-69q-21 0 -21 20z" />
    <glyph glyph-name="I" unicode="I" horiz-adv-x="287" 
d="M89 20v663q0 20 19 20h70q21 0 21 -20v-663q0 -20 -21 -20h-70q-19 0 -19 20z" />
    <glyph glyph-name="J" unicode="J" horiz-adv-x="485" 
d="M299 229v454q0 20 20 20h70q19 0 19 -20v-463q0 -232 -216 -232q-93 0 -156 36q-19 12 -13 28l20 54q8 20 24 11q56 -29 113 -29q119 0 119 141z" />
    <glyph glyph-name="K" unicode="K" horiz-adv-x="625" 
d="M192 427l269 260q18 16 31 16h85q12 0 15.5 -8.5t-4.5 -16.5l-310 -300l316 -352q8 -8 5 -17t-15 -9h-87q-13 0 -31 18l-274 302v-300q0 -20 -20 -20h-69q-21 0 -21 20v663q0 20 21 20h69q20 0 20 -20v-256z" />
    <glyph glyph-name="L" unicode="L" horiz-adv-x="542" 
d="M192 683v-583h288q21 0 21 -18v-62q0 -20 -21 -20h-377q-21 0 -21 20v663q0 20 21 20h69q20 0 20 -20z" />
    <glyph glyph-name="M" unicode="M" horiz-adv-x="812" 
d="M406 185q-13 0 -20 12l-196 319v-496q0 -20 -20 -20h-67q-21 0 -21 20v663q0 20 21 20h67q16 0 24 -12l212 -344l212 344q8 12 24 12h68q20 0 20 -20v-663q0 -20 -20 -20h-68q-20 0 -20 20v496l-196 -319q-7 -12 -20 -12z" />
    <glyph glyph-name="N" unicode="N" horiz-adv-x="710" 
d="M627 684v-664q0 -20 -20 -20h-70q-17 0 -27 15l-321 505v-500q0 -20 -19 -20h-67q-21 0 -21 20v663q0 20 21 20h69q19 0 28 -14l320 -506v500q0 20 20 20h67q20 0 20 -19z" />
    <glyph glyph-name="O" unicode="O" horiz-adv-x="717" 
d="M358 714q148 0 227.5 -93t79.5 -269q0 -177 -79.5 -269.5t-227.5 -92.5q-147 0 -226.5 92.5t-79.5 269.5q0 176 79.5 269t226.5 93zM358 87q195 0 195 265t-195 265q-194 0 -194 -265t194 -265z" />
    <glyph glyph-name="P" unicode="P" horiz-adv-x="657" 
d="M192 307h114q97 0 140 34t43 115q0 82 -43 116t-140 34h-114v-299zM171 0h-68q-21 0 -21 20v663q0 20 20 20h204q152 0 223.5 -58t71.5 -189t-71.5 -188.5t-223.5 -57.5h-114v-190q0 -20 -21 -20z" />
    <glyph glyph-name="Q" unicode="Q" horiz-adv-x="717" 
d="M449 14q48 -20 114 -20q8 0 19.5 1t15.5 1q21 0 21 -16v-49q0 -12 -7.5 -17t-27.5 -5q-151 0 -256 87q-134 9 -205 99.5t-71 257.5q0 176 79.5 268.5t226.5 92.5q148 0 228.5 -93t79.5 -268q-1 -133 -58.5 -223t-158.5 -116zM358 89q195 0 195 264t-195 264
q-194 0 -194 -264t194 -264z" />
    <glyph glyph-name="R" unicode="R" horiz-adv-x="657" 
d="M192 340h120q98 0 139.5 31.5t41.5 100.5q0 72 -42 103t-137 31h-122v-266zM103 703h213q146 0 216.5 -56t70.5 -175q0 -184 -189 -214l189 -232q7 -8 3.5 -17t-15.5 -9h-76q-17 0 -30 16l-184 228h-109v-224q0 -20 -21 -20h-68q-21 0 -21 20v663q0 20 21 20z" />
    <glyph glyph-name="S" unicode="S" horiz-adv-x="570" 
d="M528 184q0 -95 -71 -144t-193 -49q-132 0 -206 36q-19 9 -14 23l20 54q7 20 24 12q72 -29 166 -29q76 0 120 25.5t44 73.5q0 25 -11 44t-37.5 35.5t-46 25t-62.5 25.5l-62.5 25.5t-53.5 28.5t-47 39t-28 50.5t-12 68.5q0 90 61.5 138t185.5 48q108 0 181 -32
q18 -8 13 -24l-19 -52q-7 -18 -26 -11q-64 23 -140 23t-111 -22.5t-35 -69.5q0 -30 19 -52t42.5 -33.5t67.5 -29.5q4 -1 6 -2t5.5 -2.5t6.5 -2.5q105 -44 142 -73q71 -55 71 -147z" />
    <glyph glyph-name="T" unicode="T" horiz-adv-x="557" 
d="M29 623v60q0 20 20 20h458q21 0 21 -20v-60q0 -20 -21 -20h-173v-583q0 -20 -21 -20h-69q-20 0 -20 20v583h-174q-21 0 -21 20z" />
    <glyph glyph-name="U" unicode="U" horiz-adv-x="695" 
d="M347 -12q-135 0 -202.5 68t-67.5 195v432q0 20 20 20h69q21 0 21 -20v-423q0 -172 160 -172q161 0 161 172v423q0 20 20 20h70q19 0 19 -20v-432q0 -127 -67.5 -195t-202.5 -68z" />
    <glyph glyph-name="V" unicode="V" horiz-adv-x="667" 
d="M378 0h-89q-19 0 -26 21l-230 660q-7 22 16 22h75q18 0 24 -19l137 -405l48 -166h1l48 167l138 404q6 19 23 19h76q22 0 15 -22l-229 -660q-7 -21 -27 -21z" />
    <glyph glyph-name="W" unicode="W" horiz-adv-x="1044" 
d="M488 703h69q21 0 27 -19l105 -373l50 -189h2l46 186l105 376q6 19 23 19h73q23 0 16 -23l-190 -659q-6 -21 -27 -21h-86q-21 0 -27 21l-107 355l-44 168h-2l-45 -168l-106 -355q-6 -21 -26 -21h-87q-21 0 -27 21l-190 659q-7 23 16 23h74q18 0 22 -19l105 -376l46 -186h2
l49 189l107 373q5 19 27 19z" />
    <glyph glyph-name="X" unicode="X" horiz-adv-x="647" 
d="M324 269l-173 -251q-11 -18 -29 -18h-77q-10 0 -14 8t2 16l230 329l-225 326q-6 8 -2.5 16t13.5 8h79q17 0 28 -17l168 -247l167 247q10 17 28 17h78q10 0 14 -8t-2 -16l-226 -325l231 -330q6 -8 2 -16t-14 -8h-76q-17 0 -30 18z" />
    <glyph glyph-name="Y" unicode="Y" horiz-adv-x="650" 
d="M380 259v-239q0 -20 -20 -20h-70q-20 0 -20 20v239l-240 420q-5 8 -1 16t15 8h75q17 0 27 -18l127 -233l52 -102l52 102l128 233q7 18 26 18h75q11 0 14.5 -8t-0.5 -16z" />
    <glyph glyph-name="Z" unicode="Z" horiz-adv-x="603" 
d="M56 20v58q0 17 12 34l344 491h-329q-20 0 -20 20v60q0 20 20 20h435q19 0 19 -20v-58q0 -17 -11 -33l-342 -492h340q20 0 20 -19v-61q0 -20 -20 -20h-448q-20 0 -20 20z" />
    <glyph glyph-name="bracketleft" unicode="[" horiz-adv-x="369" 
d="M321 -49v-42q0 -19 -18 -19h-173q-19 0 -19 19v776q0 18 19 18h173q18 0 18 -18v-42q0 -19 -18 -19h-95v-655h95q18 0 18 -18z" />
    <glyph glyph-name="backslash" unicode="\" horiz-adv-x="441" 
d="M113 685l316 -663q9 -22 -14 -22h-61q-18 0 -26 18l-317 662q-5 10 -1 16.5t16 6.5h61q18 0 26 -18z" />
    <glyph glyph-name="bracketright" unicode="]" horiz-adv-x="371" 
d="M50 -91v42q0 18 19 18h94v655h-94q-19 0 -19 19v42q0 18 19 18h172q19 0 19 -18v-776q0 -19 -19 -19h-172q-19 0 -19 19z" />
    <glyph glyph-name="asciicircum" unicode="^" horiz-adv-x="594" 
d="M268 703h58q18 0 25 -15l186 -324q6 -10 1.5 -17t-15.5 -7h-60q-17 0 -27 17l-139 248l-139 -248q-10 -17 -27 -17h-61q-11 0 -15 7t2 17l186 324q8 15 25 15z" />
    <glyph glyph-name="underscore" unicode="_" horiz-adv-x="502" 
d="M462 -104h-422q-19 0 -19 18v28q0 18 19 18h422q18 0 18 -18v-28q0 -18 -18 -18z" />
    <glyph glyph-name="grave" unicode="`" horiz-adv-x="345" 
d="M198 693l51 -87q4 -6 0.5 -11.5t-11.5 -5.5h-39q-15 0 -27 11l-91 86q-6 6 -3.5 13.5t11.5 7.5h85q16 0 24 -14z" />
    <glyph glyph-name="a" unicode="a" horiz-adv-x="565" 
d="M497 345v-326q0 -19 -20 -19h-57q-17 0 -19 17l-2 63q-53 -89 -188 -89q-81 0 -127 39.5t-46 108.5q0 42 18 73.5t47.5 50t77 30.5t97.5 16.5t118 5.5v26q0 55 -29 80.5t-96 25.5q-80 0 -156 -32q-16 -6 -23 12l-15 48q-4 14 11 21q83 38 194 38t163 -47.5t52 -141.5z
M396 201v44q-64 -2 -103.5 -6t-79 -14t-57.5 -30t-18 -50q0 -34 26 -55.5t74 -21.5q76 0 117 38t41 95z" />
    <glyph glyph-name="b" unicode="b" horiz-adv-x="633" 
d="M181 262q0 -92 39 -139t112 -47q74 0 110.5 44.5t36.5 141.5t-36.5 141t-110.5 44q-73 0 -112 -46.5t-39 -138.5zM179 81l-2 -64q0 -17 -18 -17h-63q-19 0 -19 19v666q0 18 19 18h66q19 0 19 -18v-243q21 44 69 68t107 24q107 0 167.5 -69t60.5 -203t-60 -203t-168 -69
q-62 0 -109.5 23t-68.5 68z" />
    <glyph glyph-name="c" unicode="c" horiz-adv-x="507" 
d="M48 263q0 130 69.5 200.5t185.5 70.5q89 0 147 -32q17 -10 12 -24l-20 -46q-7 -17 -27 -9q-45 21 -100 21q-76 0 -118.5 -45t-42.5 -136t42.5 -137.5t114.5 -46.5q58 0 112 26q18 9 25 -9l19 -47q5 -14 -13 -24q-21 -13 -62 -24t-83 -11q-120 0 -190.5 71t-70.5 202z" />
    <glyph glyph-name="d" unicode="d" horiz-adv-x="633" 
d="M453 262q0 92 -39.5 138.5t-112.5 46.5t-109.5 -44t-36.5 -141t36.5 -141.5t109.5 -44.5t112.5 47t39.5 139zM456 17l-1 64q-22 -45 -69.5 -68t-109.5 -23q-108 0 -168 69t-60 203t60.5 203t167.5 69q60 0 108 -24t68 -68v243q0 18 20 18h65q19 0 19 -18v-666
q0 -19 -19 -19h-62q-19 0 -19 17z" />
    <glyph glyph-name="e" unicode="e" horiz-adv-x="575" 
d="M328 70q74 0 131 31q17 10 25 -11l16 -41q5 -15 -13 -23q-74 -38 -166 -38q-128 0 -200.5 72.5t-72.5 199.5q0 130 66 202t180 72q111 0 172 -67.5t61 -178.5v-49q0 -19 -20 -19h-356q6 -68 53.5 -109t123.5 -41zM295 452q-136 0 -146 -158h282v5q0 70 -35 111.5
t-101 41.5z" />
    <glyph glyph-name="f" unicode="f" horiz-adv-x="358" 
d="M206 518h112q18 0 18 -20v-47q0 -19 -18 -19h-112v-414q0 -18 -19 -18h-64q-20 0 -20 18v414h-62q-18 0 -18 19v47q0 20 18 20h62v45q0 148 150 148q43 0 74 -11q13 -5 13 -18v-43q0 -21 -16 -17q-27 5 -52 5q-66 0 -66 -70v-39z" />
    <glyph glyph-name="g" unicode="g" horiz-adv-x="600" 
d="M423 297q0 78 -35.5 116.5t-100.5 38.5q-134 0 -134 -161q0 -160 134 -160q64 0 100 42.5t36 123.5zM525 503v-422q0 -98 -64 -150.5t-177 -52.5q-120 0 -179 30q-17 9 -12 21l16 47q5 18 23 12q69 -25 146 -25q70 0 109 32.5t39 90.5v51q-20 -41 -63.5 -63t-97.5 -22
q-98 0 -157 59t-59 180q0 122 58 182.5t154 60.5q53 0 99 -23.5t65 -60.5l2 55q2 17 19 17h61q18 0 18 -19z" />
    <glyph glyph-name="h" unicode="h" horiz-adv-x="609" 
d="M539 343v-324q0 -19 -18 -19h-66q-19 0 -19 19v306q0 58 -27 87.5t-88 29.5q-66 0 -103 -38.5t-37 -98.5v-287q0 -18 -19 -18h-66q-19 0 -19 19v666q0 18 19 18h66q19 0 19 -18v-239q18 36 61.5 62t111.5 26q92 0 138.5 -50.5t46.5 -140.5z" />
    <glyph glyph-name="i" unicode="i" horiz-adv-x="254" 
d="M179 503v-484q0 -19 -19 -19h-66q-19 0 -19 19v484q0 19 19 19h66q19 0 19 -19zM179 681v-76q0 -20 -19 -20h-67q-18 0 -18 20v76q0 19 18 19h67q19 0 19 -19z" />
    <glyph glyph-name="j" unicode="j" horiz-adv-x="267" 
d="M89 37v466q0 19 18 19h66q19 0 19 -19v-476q0 -75 -30 -108.5t-97 -33.5q-43 0 -68 7q-16 4 -16 19v50q0 18 18 15q28 -4 42 -4q48 0 48 65zM193 681v-76q0 -20 -19 -20h-67q-19 0 -19 20v76q0 19 19 19h67q19 0 19 -19z" />
    <glyph glyph-name="k" unicode="k" horiz-adv-x="521" 
d="M494 0h-85q-16 0 -28 14l-200 214v-209q0 -19 -19 -19h-66q-19 0 -19 19v666q0 18 19 18h66q19 0 19 -18v-339l193 165q11 11 27 11h84q11 0 14 -8t-6 -16l-243 -207l254 -268q7 -7 3.5 -15t-13.5 -8z" />
    <glyph glyph-name="l" unicode="l" horiz-adv-x="253" 
d="M178 685v-666q0 -19 -18 -19h-67q-18 0 -18 19v666q0 18 18 18h67q18 0 18 -18z" />
    <glyph glyph-name="m" unicode="m" horiz-adv-x="910" 
d="M509 319v-300q0 -19 -19 -19h-65q-19 0 -19 19v312q0 55 -23 83t-76 28q-61 0 -95.5 -36t-34.5 -95v-292q0 -19 -19 -19h-65q-20 0 -20 19v484q0 19 20 19h62q20 0 20 -17l2 -60q16 36 57 62.5t105 26.5q121 0 154 -93q51 93 178 93q84 0 127 -49.5t43 -137.5v-328
q0 -19 -19 -19h-65q-19 0 -19 19v311q0 56 -23 84t-77 28q-59 0 -94 -35t-35 -88z" />
    <glyph glyph-name="n" unicode="n" horiz-adv-x="601" 
d="M532 343v-324q0 -19 -20 -19h-65q-19 0 -19 19v307q0 58 -27 87t-87 29q-64 0 -101 -37t-37 -99v-287q0 -19 -19 -19h-66q-18 0 -18 19v484q0 19 18 19h62q19 0 19 -17l3 -60q49 89 173 89q92 0 138 -50.5t46 -140.5z" />
    <glyph glyph-name="o" unicode="o" horiz-adv-x="602" 
d="M301 -10q-118 0 -185.5 70.5t-67.5 201.5t68 201.5t185 70.5t185 -70.5t68 -201.5t-68 -201.5t-185 -70.5zM301 76q70 0 108.5 46.5t38.5 139.5t-38.5 139.5t-108.5 46.5q-71 0 -109 -46.5t-38 -139.5t38 -139.5t109 -46.5z" />
    <glyph glyph-name="p" unicode="p" horiz-adv-x="630" 
d="M177 262q0 -92 39.5 -139t112.5 -47t109.5 44.5t36.5 141.5t-36.5 141t-109.5 44t-112.5 -46.5t-39.5 -138.5zM174 505l1 -64q21 44 70 68.5t109 24.5q107 0 167 -69t60 -203t-60 -203t-167 -69q-135 0 -177 90v-171q0 -19 -19 -19h-65q-20 0 -20 19v594q0 19 20 19h61
q20 0 20 -17z" />
    <glyph glyph-name="q" unicode="q" horiz-adv-x="630" 
d="M453 262q0 92 -39.5 138.5t-112.5 46.5t-109.5 -44t-36.5 -141t36.5 -141.5t109.5 -44.5t112.5 47t39.5 139zM455 441l1 64q0 17 19 17h62q19 0 19 -19v-594q0 -19 -19 -19h-65q-20 0 -20 19v169q-39 -88 -176 -88q-108 0 -168 69t-60 203t60.5 203t167.5 69
q60 0 109 -25t70 -68z" />
    <glyph glyph-name="r" unicode="r" horiz-adv-x="387" 
d="M93 522h62q20 0 20 -18l2 -89q17 41 60 75.5t104 34.5q16 0 16 -16v-76q0 -15 -16 -15q-3 0 -11 1t-16 1q-58 0 -97.5 -51.5t-39.5 -119.5v-230q0 -19 -19 -19h-65q-20 0 -20 19v484q0 19 20 19z" />
    <glyph glyph-name="s" unicode="s" horiz-adv-x="468" 
d="M426 138q0 -148 -205 -148q-99 0 -170 28q-17 6 -13 20l14 46q5 18 23 12q62 -24 133 -24q60 0 88 15t28 52q0 32 -28.5 51t-92.5 41q-81 29 -104 45q-57 40 -58 116q0 69 48 105.5t142 36.5q95 0 160 -29q17 -7 12 -21l-14 -43q-5 -17 -22 -12q-60 22 -122 22
q-54 0 -78 -14t-24 -47t27 -50t93 -40q79 -28 121 -63t42 -99z" />
    <glyph glyph-name="t" unicode="t" horiz-adv-x="368" 
d="M320 432h-122v-265q0 -50 16 -68.5t62 -18.5q2 0 44 6q14 2 17 -16l8 -47q2 -12 -14 -18q-32 -12 -79 -12q-84 0 -119.5 37.5t-35.5 125.5v276h-64q-20 0 -20 19v47q0 20 20 20h66v124q0 18 18 18h61q20 0 20 -18v-124h122q20 0 20 -20v-47q0 -19 -20 -19z" />
    <glyph glyph-name="u" unicode="u" horiz-adv-x="593" 
d="M66 179v324q0 19 19 19h65q19 0 19 -19v-306q0 -117 109 -117q62 0 100 36.5t38 97.5v289q0 19 19 19h66q18 0 18 -19v-484q0 -19 -18 -19h-63q-19 0 -19 17l-2 60q-48 -87 -169 -87q-182 0 -182 189z" />
    <glyph glyph-name="v" unicode="v" horiz-adv-x="522" 
d="M300 0h-78q-18 0 -23 16l-174 485q-7 21 14 21h69q14 0 21 -18l85 -244l46 -154h2l47 154l83 244q7 18 22 18h70q20 0 13 -21l-174 -485q-6 -16 -23 -16z" />
    <glyph glyph-name="w" unicode="w" horiz-adv-x="836" 
d="M389 522h59q15 0 21 -17l94 -296l27 -103h2l24 103l84 295q5 18 21 18h69q20 0 15 -21l-146 -483q-5 -18 -24 -18h-73q-18 0 -24 18l-87 271l-31 109h-3l-30 -109l-87 -271q-6 -18 -24 -18h-73q-17 0 -24 18l-147 483q-5 21 15 21h68q16 0 21 -18l86 -295l23 -103h2
l28 103l92 296q6 17 22 17z" />
    <glyph glyph-name="x" unicode="x" horiz-adv-x="519" 
d="M138 507l123 -170l121 170q11 15 26 15h70q9 0 12 -7t-3 -16l-173 -234l179 -243q6 -8 3 -15t-13 -7h-73q-16 0 -25 14l-126 179l-126 -179q-10 -14 -26 -14h-72q-10 0 -12.5 7t3.5 15l178 243l-174 234q-7 9 -4 16t13 7h73q16 0 26 -15z" />
    <glyph glyph-name="y" unicode="y" horiz-adv-x="518" 
d="M495 501l-158 -463q-29 -87 -64.5 -120t-113.5 -33q-47 0 -82 11q-18 7 -16 19l10 48q3 17 19 14l18 -3q18 -4 35 -4q32 0 49 13t17 36q0 16 -7 31l-177 451q-7 21 14 21h69q15 0 22 -18l92 -250l48 -151h2l43 151l75 250q5 18 21 18h69q22 0 15 -21z" />
    <glyph glyph-name="z" unicode="z" horiz-adv-x="500" 
d="M450 503v-40q0 -15 -9 -27l-264 -347h253q20 0 20 -19v-51q0 -19 -20 -19h-364q-18 0 -18 19v40q0 14 8 24l266 350h-249q-19 0 -19 19v51q0 19 19 19h358q19 0 19 -19z" />
    <glyph glyph-name="braceleft" unicode="{" horiz-adv-x="369" 
d="M37 271v52q0 18 19 18h17q33 0 47.5 39.5t14.5 126.5q0 113 29.5 154.5t113.5 41.5h38q20 0 20 -18v-43q0 -19 -20 -19h-19q-41 0 -53.5 -28.5t-12.5 -102.5q0 -172 -79 -195q79 -24 79 -195q0 -74 12.5 -103t53.5 -29h19q20 0 20 -19v-42q0 -19 -20 -19h-38
q-84 0 -113.5 41.5t-29.5 155.5q0 87 -14.5 126.5t-47.5 39.5h-17q-19 0 -19 18z" />
    <glyph glyph-name="bar" unicode="|" horiz-adv-x="288" 
d="M191 703v-794q0 -19 -19 -19h-55q-20 0 -20 19v794q0 19 20 19h55q19 0 19 -19z" />
    <glyph glyph-name="braceright" unicode="}" horiz-adv-x="369" 
d="M332 323v-52q0 -18 -19 -18h-17q-33 0 -47 -40t-14 -127q0 -113 -29.5 -154.5t-113.5 -41.5h-39q-20 0 -20 19v42q0 19 20 19h19q41 0 53.5 29t12.5 103q0 171 80 195q-80 22 -80 195q0 74 -12.5 102.5t-53.5 28.5h-19q-20 0 -20 19v43q0 18 20 18h39q84 0 113.5 -41.5
t29.5 -154.5q0 -87 14 -126.5t47 -39.5h17q19 0 19 -18z" />
    <glyph glyph-name="asciitilde" unicode="~" horiz-adv-x="594" 
d="M178 431q41 0 100 -24l48 -20q46 -18 67 -18q31 0 48 32q2 3 4.5 9.5t3.5 9.5q5 15 22 7l40 -18q12 -5 11 -24q-5 -48 -35 -78t-73 -30q-38 0 -98 24l-45 19q-42 18 -69 18q-32 0 -49 -31q-4 -6 -8 -19q-5 -15 -23 -7l-39 18q-12 5 -11 23q5 49 34.5 79t71.5 30z" />
    <glyph glyph-name="uni00A0" unicode="&#xa0;" horiz-adv-x="0" 
 />
    <glyph glyph-name="exclamdown" unicode="&#xa1;" horiz-adv-x="295" 
d="M207 503v-87q0 -19 -19 -19h-81q-20 0 -20 19v87q0 19 19 19h83q18 0 18 -19zM123 316h49q17 0 19 -19l19 -398q2 -20 -19 -20h-87q-21 0 -19 20l19 398q2 19 19 19z" />
    <glyph glyph-name="cent" unicode="&#xa2;" horiz-adv-x="525" 
d="M48 261q0 118 61.5 189t164.5 82v71q0 19 19 19h37q19 0 19 -19v-71q72 -5 119 -32q16 -10 11 -23l-20 -45q-8 -19 -25 -11q-46 23 -110 23q-80 0 -124.5 -46t-44.5 -137q0 -182 169 -182q63 0 115 25q17 9 26 -10l19 -45q5 -15 -11 -24q-45 -27 -124 -33v-73
q0 -19 -19 -19h-37q-19 0 -19 19v73q-105 12 -165.5 81t-60.5 188z" />
    <glyph glyph-name="sterling" unicode="&#xa3;" horiz-adv-x="673" 
d="M168 319h-103q-17 0 -17 17v34q0 16 17 16h73q-43 74 -43 124q0 87 66 145.5t194 58.5q120 0 181 -50t61 -133q0 -45 -20 -45h-59q-10 0 -14.5 4t-3.5 12q0 5 1 13.5t1 14.5q0 40 -37 66t-106 26q-76 0 -116.5 -34t-40.5 -84q0 -38 42 -118h201q17 0 17 -16v-34
q0 -17 -17 -17h-176q26 -45 26 -83q0 -45 -25.5 -83t-73.5 -61q38 11 87 11q35 0 89 -9.5t87 -9.5q48 0 65 21.5t20 66.5q2 19 21 19h48q22 0 22 -25q0 -86 -32.5 -129.5t-115.5 -43.5q-49 0 -117 13t-112 13q-85 0 -146 -26q-19 -7 -25 2l-35 53q-10 14 4 22
q140 81 140 168q0 34 -28 81z" />
    <glyph glyph-name="currency" unicode="&#xa4;" horiz-adv-x="633" 
d="M87 99l51 51q-43 52 -43 133q0 80 43 132l-51 52q-12 13 0 24l22 22q12 12 23 0l54 -54q52 35 130 35t130 -36l55 55q11 11 23 0l23 -22q13 -11 0 -24l-55 -53q44 -52 44 -131q0 -81 -44 -131l55 -53q11 -11 0 -23l-23 -22q-12 -11 -23 0l-55 55q-50 -36 -130 -36
t-130 36l-54 -55q-11 -12 -23 0l-22 22q-12 12 0 23zM457 283q0 64 -37.5 99.5t-103.5 35.5t-103.5 -35.5t-37.5 -99.5q0 -63 37.5 -99t103.5 -36t103.5 36t37.5 99z" />
    <glyph glyph-name="yen" unicode="&#xa5;" horiz-adv-x="648" 
d="M379 170v-150q0 -20 -20 -20h-70q-20 0 -20 20v150h-184q-16 0 -16 16v33q0 16 16 16h184v23l-36 60h-148q-16 0 -16 16v33q0 16 16 16h115l-174 296q-6 9 -2 16.5t16 7.5h75q17 0 27 -18l181 -328h3l181 328q10 18 27 18h74q12 0 16 -7.5t-2 -16.5l-174 -296h115
q17 0 17 -16v-33q0 -16 -17 -16h-148l-36 -60v-23h184q17 0 17 -16v-33q0 -16 -17 -16h-184z" />
    <glyph glyph-name="brokenbar" unicode="&#xa6;" horiz-adv-x="288" 
d="M191 703v-294q0 -19 -19 -19h-55q-20 0 -20 19v294q0 19 20 19h55q19 0 19 -19zM191 203v-294q0 -19 -19 -19h-55q-20 0 -20 19v294q0 19 20 19h55q19 0 19 -19z" />
    <glyph glyph-name="section" unicode="&#xa7;" horiz-adv-x="701" 
d="M91 315q-1 48 33.5 85t95.5 46q-46 26 -70.5 52.5t-24.5 66.5q0 76 55 112t178 36q99 0 186 -23q18 -6 17 -24l-5 -45q-3 -19 -24 -13q-80 18 -158 18q-79 0 -111 -17t-32 -53q0 -32 56 -59q24 -11 111 -44q54 -20 85.5 -34.5t63.5 -35t46.5 -46t14.5 -58.5
q0 -45 -34.5 -76.5t-99.5 -45.5q106 -50 106 -125q0 -148 -260 -148q-126 0 -180 18q-18 6 -17 25l4 45q1 18 24 13q69 -15 160 -15q163 0 163 69q0 16 -10 30t-32 25.5t-39 18.5t-49 17.5t-44 15.5q-4 2 -13 5l-70 28t-52 24.5t-42.5 29.5t-22 35t-9.5 47zM304 397
q-53 -4 -83 -25.5t-30 -52.5q0 -33 34.5 -52.5t130.5 -51.5l12 -4.5t10.5 -3.5l12.5 -4q50 4 83 25t34 45q1 38 -47.5 63.5t-156.5 60.5z" />
    <glyph glyph-name="dieresis" unicode="&#xa8;" horiz-adv-x="345" 
d="M128 678v-71q0 -18 -19 -18h-61q-19 0 -19 18v71q0 19 19 19h61q19 0 19 -19zM316 678v-71q0 -18 -19 -18h-61q-19 0 -19 18v71q0 19 19 19h61q19 0 19 -19z" />
    <glyph glyph-name="copyright" unicode="&#xa9;" horiz-adv-x="861" 
d="M453 221q51 0 91 20q13 7 19 -8l16 -40q3 -10 -8 -17q-54 -30 -128 -30q-94 0 -153 53.5t-59 155.5t58.5 155.5t154.5 53.5q78 0 124 -29q12 -7 8 -18l-17 -41q-5 -15 -18 -8q-36 20 -86 20q-61 0 -97.5 -34.5t-36.5 -98.5q0 -63 36.5 -98.5t95.5 -35.5zM117 352
q0 -130 82 -216.5t231 -86.5q148 0 231 86.5t83 215.5q0 130 -83 217t-231 87q-149 0 -231 -86.5t-82 -216.5zM54 352q0 153 100 257.5t276 104.5t276 -104.5t100 -257.5t-100 -257.5t-276 -104.5t-276 104.5t-100 257.5z" />
    <glyph glyph-name="ordfeminine" unicode="&#xaa;" horiz-adv-x="465" 
d="M323 649v34q-105 0 -157 -16t-52 -61q0 -58 79 -58q63 0 96.5 28.5t33.5 72.5zM326 507l-1 37q-40 -62 -153 -62q-67 0 -106 32t-39 87q0 31 10 54.5t31.5 39t46 25.5t61.5 15t69 7t78 3v26q0 42 -22.5 60t-77.5 18q-63 0 -128 -27q-17 -8 -24 10l-15 40q-4 11 11 19
q79 33 161 33q183 0 183 -149v-267q0 -20 -20 -20h-44q-21 0 -21 19z" />
    <glyph glyph-name="guillemotleft" unicode="&#xab;" horiz-adv-x="453" 
d="M35 276q0 6 3 10l83 136q8 14 24 14h56q10 0 13 -6t-2 -14l-86 -140l86 -139q5 -7 2 -13.5t-13 -6.5h-56q-15 0 -24 14l-83 137q-3 6 -3 8zM221 276q0 4 3 10l83 136q8 14 24 14h56q22 0 10 -20l-85 -139l85 -140q5 -8 2.5 -14t-12.5 -6h-56q-15 0 -24 14l-83 137
q-3 4 -3 8z" />
    <glyph glyph-name="logicalnot" unicode="&#xac;" horiz-adv-x="603" 
d="M525 373v-222q0 -19 -19 -19h-63q-20 0 -20 19v152h-348q-19 0 -19 18v52q0 19 19 19h431q19 0 19 -19z" />
    <glyph glyph-name="uni00AD" unicode="&#xad;" horiz-adv-x="394" 
d="M334 222h-275q-18 0 -18 18v50q0 18 19 18h274q20 0 20 -18v-50q0 -18 -20 -18z" />
    <glyph glyph-name="registered" unicode="&#xae;" horiz-adv-x="465" 
d="M204 541h30q28 0 39 6.5t11 24.5q0 32 -47 32h-33v-63zM233 714q86 0 129 -50t43 -126t-43 -126.5t-129 -50.5t-130 50.5t-44 126.5q0 75 44 125.5t130 50.5zM233 393q71 0 104.5 40.5t33.5 104.5t-33.5 104.5t-104.5 40.5t-105 -40.5t-34 -104.5t34 -104.5t105 -40.5z
M161 450v180q0 9 9 9h71q40 0 62.5 -17t22.5 -50q0 -50 -48 -59l46 -62q2 -3 0.5 -6t-5.5 -3h-30q-6 0 -11 6l-43 59h-31v-57q0 -8 -9 -8h-25q-9 0 -9 8z" />
    <glyph glyph-name="macron" unicode="&#xaf;" horiz-adv-x="345" 
d="M318 594h-291q-18 0 -18 18v30q0 18 18 18h291q18 0 18 -18v-30q0 -18 -18 -18z" />
    <glyph glyph-name="degree" unicode="&#xb0;" horiz-adv-x="371" 
d="M186 491q37 0 59.5 22.5t22.5 58.5t-22.5 58.5t-59.5 22.5t-59.5 -22.5t-22.5 -58.5t22.5 -58.5t59.5 -22.5zM186 432q-65 0 -105 39.5t-40 100.5q0 62 40 101t105 39t105 -39t40 -100q0 -62 -40 -101.5t-105 -39.5z" />
    <glyph glyph-name="plusminus" unicode="&#xb1;" horiz-adv-x="594" 
d="M517 331h-173v-170q0 -17 -17 -17h-59q-19 0 -19 17v170h-172q-19 0 -19 17v50q0 18 19 18h172v166q0 19 19 19h59q17 0 17 -19v-166h173q19 0 19 -18v-50q0 -17 -19 -17zM517 0h-440q-19 0 -19 18v36q0 19 19 19h440q19 0 19 -19v-36q0 -18 -19 -18z" />
    <glyph glyph-name="two.superior" unicode="&#xb2;" 
d="M130 793q0 -4 1 -13.5t1 -15.5q-2 -18 -19 -18h-42q-16 0 -19 16q-3 14 -3 34q0 58 39 93t121 35q84 0 122.5 -37.5t38.5 -95.5q0 -115 -191 -229h181q20 0 20 -20v-34q0 -20 -20 -20h-290q-20 0 -20 20v31q0 11 14 19l59 39t55.5 41t55 48.5t34 48t15.5 52.5
q0 63 -77 63q-76 0 -76 -57z" />
    <glyph glyph-name="three.superior" unicode="&#xb3;" 
d="M198 673h-49q-20 0 -20 20v29q0 21 20 21h50q74 0 74 55q0 53 -88 53q-44 0 -100 -21q-19 -7 -26 10l-14 34q-5 14 12 22q54 28 139 28q76 0 119.5 -29t43.5 -87q0 -65 -60 -92q68 -29 68 -101q0 -64 -44.5 -98.5t-123.5 -34.5q-86 0 -144 29q-11 5 -14 9.5t0 12.5l13 34
q8 19 27 12q55 -23 109 -23q90 0 90 61q0 56 -82 56z" />
    <glyph glyph-name="acute" unicode="&#xb4;" horiz-adv-x="345" 
d="M97 606l51 87q7 14 24 14h85q10 0 12 -7.5t-5 -13.5l-91 -86q-11 -11 -26 -11h-39q-9 0 -12 5.5t1 11.5z" />
    <glyph glyph-name="mu" unicode="&#xb5;" horiz-adv-x="597" 
d="M528 503v-325q0 -190 -183 -190q-123 0 -168 88v-168q0 -18 -19 -18h-65q-20 0 -20 19v594q0 19 20 19h65q19 0 19 -19v-291q0 -61 38 -97t99 -36q60 0 85 30t25 87v307q0 19 19 19h65q20 0 20 -19z" />
    <glyph glyph-name="paragraph" unicode="&#xb6;" horiz-adv-x="535" 
d="M505 637h-39q-30 0 -41.5 -11.5t-11.5 -42.5v-577q0 -61 -26.5 -90.5t-83.5 -29.5q-40 0 -66 11q-12 5 -11 17l2 31q1 13 17 13q7 0 20.5 -2.5t19.5 -2.5q47 0 47 62v251h-33q-111 0 -181.5 58t-70.5 161q0 104 67.5 161t180.5 57h210q19 0 19 -18v-30q0 -18 -19 -18z
" />
    <glyph glyph-name="periodcentered" unicode="&#xb7;" horiz-adv-x="237" 
d="M61 223v85q0 19 20 19h75q20 0 20 -19v-85q0 -19 -19 -19h-77q-19 0 -19 19z" />
    <glyph glyph-name="cedilla" unicode="&#xb8;" horiz-adv-x="345" 
d="M138 8h44q46 -8 78.5 -33.5t32.5 -59.5q0 -73 -104 -73q-32 0 -42 4q-12 3 -12 14v29q0 11 12 11h29q51 0 51 30q0 46 -89 78z" />
    <glyph glyph-name="one.superior" unicode="&#xb9;" 
d="M200 816l-74 -45q-18 -11 -29 5l-20 30q-10 15 5 25l114 79q10 8 26 8h42q21 0 21 -20v-390q0 -20 -21 -20h-44q-20 0 -20 20v308z" />
    <glyph glyph-name="ordmasculine" unicode="&#xba;" horiz-adv-x="486" 
d="M243 847q-117 0 -117 -144q0 -143 117 -143t117 143q0 144 -117 144zM243 483q-99 0 -154.5 56t-55.5 164t55.5 164.5t154.5 56.5t154.5 -56.5t55.5 -164.5t-55.5 -164t-154.5 -56z" />
    <glyph glyph-name="guillemotright" unicode="&#xbb;" horiz-adv-x="453" 
d="M418 276q0 -4 -3 -8l-83 -137q-9 -14 -24 -14h-57q-9 0 -12 6t2 14l86 139l-86 140q-5 9 -2 14.5t12 5.5h57q16 0 24 -14l83 -136q3 -6 3 -10zM232 276q0 -4 -3 -8l-83 -137q-9 -14 -23 -14h-57q-10 0 -13 6t2 14l86 139l-86 140q-5 9 -2 14.5t13 5.5h57q15 0 23 -14
l83 -136q3 -6 3 -10z" />
    <glyph glyph-name="onequarter" unicode="&#xbc;" horiz-adv-x="1004" 
d="M764 685l-413 -668q-9 -17 -25 -17h-54q-23 0 -11 19l412 668q9 16 26 16h54q21 0 11 -18zM200 601l-74 -45q-18 -11 -29 5l-20 30q-10 15 5 25l114 79q10 8 26 8h42q21 0 21 -20v-390q0 -20 -21 -20h-44q-20 0 -20 20v308zM827 328l-138 -163h138v163zM958 91h-46v-71
q0 -20 -20 -20h-44q-21 0 -21 20v71h-207q-20 0 -20 19v34q0 12 7 19l217 255q10 12 22 12h46q20 0 20 -20v-245h46q21 0 21 -20v-34q0 -20 -21 -20z" />
    <glyph glyph-name="onehalf" unicode="&#xbd;" horiz-adv-x="1004" 
d="M726 685l-413 -668q-9 -17 -25 -17h-54q-23 0 -11 19l412 668q9 16 26 16h54q21 0 11 -18zM200 601l-74 -45q-18 -11 -29 5l-20 30q-10 15 5 25l114 79q10 8 26 8h42q21 0 21 -20v-390q0 -20 -21 -20h-44q-20 0 -20 20v308zM708 305q0 57 76 57q77 0 77 -63
q0 -25 -15.5 -52.5t-34 -48t-55 -48.5t-55.5 -41l-59 -39q-14 -8 -14 -19v-31q0 -20 20 -20h290q20 0 20 20v34q0 20 -20 20h-181q191 114 191 229q0 58 -38.5 95.5t-122.5 37.5q-82 0 -121 -35t-39 -93q0 -20 3 -34q3 -16 19 -16h42q17 0 19 18q0 6 -1 15.5t-1 13.5z" />
    <glyph glyph-name="threequarters" unicode="&#xbe;" horiz-adv-x="1004" 
d="M781 685l-413 -668q-9 -17 -25 -17h-54q-23 0 -11 19l412 668q9 16 26 16h54q22 0 11 -18zM827 328l-138 -163h138v163zM958 91h-46v-71q0 -20 -20 -20h-44q-21 0 -21 20v71h-207q-20 0 -20 19v34q0 12 7 19l217 255q10 12 22 12h46q20 0 20 -20v-245h46q21 0 21 -20v-34
q0 -20 -21 -20zM198 458h-49q-20 0 -20 20v29q0 21 20 21h50q74 0 74 55q0 53 -88 53q-44 0 -100 -21q-19 -7 -26 10l-14 34q-5 14 12 22q54 28 139 28q76 0 119.5 -29t43.5 -87q0 -65 -60 -92q68 -29 68 -101q0 -64 -44.5 -98.5t-123.5 -34.5q-86 0 -144 29q-11 5 -14 9.5
t0 12.5l13 34q8 19 27 12q55 -23 109 -23q90 0 90 61q0 56 -82 56z" />
    <glyph glyph-name="questiondown" unicode="&#xbf;" horiz-adv-x="478" 
d="M317 503v-87q0 -19 -19 -19h-82q-19 0 -19 19v87q0 19 19 19h82q19 0 19 -19zM205 298v-21q0 -19 -16.5 -38.5t-40 -39t-47.5 -42t-40.5 -57t-16.5 -75.5q0 -78 52 -115.5t162 -37.5q111 0 187 39q17 8 12 22l-20 53q-5 17 -25 9q-72 -30 -137 -30q-70 0 -96 16t-26 57
q0 31 16 59t38.5 49l45 41t38.5 43t16 47v21q0 19 -19 19h-63q-20 0 -20 -19z" />
    <glyph glyph-name="Agrave" unicode="&#xc0;" horiz-adv-x="676" 
d="M223 265h229l-113 329h-2zM294 703h88q12 0 16.5 -4.5t8.5 -15.5l243 -661q4 -9 -0.5 -15.5t-14.5 -6.5h-75q-16 0 -24 18l-55 151h-286l-56 -151q-6 -18 -22 -18h-76q-10 0 -14.5 6.5t-1.5 15.5l243 661q4 11 9 15.5t17 4.5zM314 859l51 -87q3 -6 0.5 -11.5t-11.5 -5.5
h-39q-13 0 -27 12l-91 85q-6 6 -3.5 14t11.5 8h85q16 0 24 -15z" />
    <glyph glyph-name="Aacute" unicode="&#xc1;" horiz-adv-x="676" 
d="M223 265h229l-113 329h-2zM294 703h88q12 0 16.5 -4.5t8.5 -15.5l243 -661q4 -9 -0.5 -15.5t-14.5 -6.5h-75q-16 0 -24 18l-55 151h-286l-56 -151q-6 -18 -22 -18h-76q-10 0 -14.5 6.5t-1.5 15.5l243 661q4 11 9 15.5t17 4.5zM310 772l51 87q9 15 25 15h85q10 0 12 -8
t-5 -14l-91 -85q-9 -12 -27 -12h-38q-9 0 -12 5.5t0 11.5z" />
    <glyph glyph-name="Acircumflex" unicode="&#xc2;" horiz-adv-x="676" 
d="M223 265h229l-113 329h-2zM294 703h88q12 0 16.5 -4.5t8.5 -15.5l243 -661q4 -9 -0.5 -15.5t-14.5 -6.5h-75q-16 0 -24 18l-55 151h-286l-56 -151q-6 -18 -22 -18h-76q-10 0 -14.5 6.5t-1.5 15.5l243 661q4 11 9 15.5t17 4.5zM404 766l-66 51l-67 -51q-15 -11 -25 -11
h-43q-9 0 -11 6.5t4 12.5l92 91q11 11 26 11h47q13 0 26 -11l91 -91q7 -6 5.5 -12.5t-11.5 -6.5h-43q-10 0 -25 11z" />
    <glyph glyph-name="Atilde" unicode="&#xc3;" horiz-adv-x="676" 
d="M223 265h229l-113 329h-2zM294 703h88q12 0 16.5 -4.5t8.5 -15.5l243 -661q4 -9 -0.5 -15.5t-14.5 -6.5h-75q-16 0 -24 18l-55 151h-286l-56 -151q-6 -18 -22 -18h-76q-10 0 -14.5 6.5t-1.5 15.5l243 661q4 11 9 15.5t17 4.5zM508 827q0 -34 -18.5 -55.5t-56.5 -21.5
q-37 0 -88 19l-29 10q-80 25 -83 -2l-1 -9q-2 -15 -20 -15h-27q-17 0 -17 24q0 34 18.5 55.5t56.5 21.5q39 0 88 -19l32 -12q36 -14 56 -14t23 20l1 10q3 14 21 14h26q18 0 18 -26z" />
    <glyph glyph-name="Adieresis" unicode="&#xc4;" horiz-adv-x="676" 
d="M223 265h229l-113 329h-2zM294 703h88q12 0 16.5 -4.5t8.5 -15.5l243 -661q4 -9 -0.5 -15.5t-14.5 -6.5h-75q-16 0 -24 18l-55 151h-286l-56 -151q-6 -18 -22 -18h-76q-10 0 -14.5 6.5t-1.5 15.5l243 661q4 11 9 15.5t17 4.5zM292 841v-67q0 -19 -19 -19h-65
q-18 0 -18 19v67q0 19 18 19h65q19 0 19 -19zM486 841v-67q0 -19 -19 -19h-65q-18 0 -18 19v67q0 19 18 19h65q19 0 19 -19z" />
    <glyph glyph-name="Aring" unicode="&#xc5;" horiz-adv-x="676" 
d="M229 754q0 44 30 71.5t79 27.5t79 -27.5t30 -71.5q0 -50 -38 -78l241 -654q4 -9 -0.5 -15.5t-14.5 -6.5h-75q-16 0 -24 18l-55 151h-286l-56 -151q-6 -18 -22 -18h-76q-10 0 -14.5 6.5t-1.5 15.5l240 654q-36 28 -36 78zM223 265h229l-113 329h-2zM282 754q0 -51 56 -51
h5q50 3 50 51q0 24 -14.5 37.5t-40.5 13.5q-56 0 -56 -51z" />
    <glyph glyph-name="AE" unicode="&#xc6;" horiz-adv-x="884" 
d="M800 312h-256v-214h271q20 0 20 -19v-59q0 -20 -20 -20h-360q-20 0 -20 20v142h-232l-74 -144q-9 -18 -25 -18h-79q-10 0 -14.5 6.5t0.5 15.5l337 661q6 12 11 16t17 4h435q20 0 20 -20v-58q0 -20 -20 -20h-267v-199h256q19 0 19 -21v-52q0 -21 -19 -21zM243 256h191v351
h-17z" />
    <glyph glyph-name="Ccedilla" unicode="&#xc7;" horiz-adv-x="611" 
d="M390 88q72 0 132 33q18 7 27 -12l23 -52q6 -13 -14 -23q-72 -44 -184 -44h-2q58 -33 58 -82q0 -38 -28 -58t-80 -20q-31 0 -42 5q-12 5 -12 14v31q0 11 13 11h29q51 0 51 33q0 41 -62 73q-118 20 -181.5 111t-63.5 244q0 175 82.5 268.5t232.5 93.5q110 0 182 -42
q18 -10 13 -24l-22 -51q-7 -19 -27 -10q-58 28 -129 28q-220 0 -220 -263q0 -264 224 -264z" />
    <glyph glyph-name="Egrave" unicode="&#xc8;" horiz-adv-x="559" 
d="M475 312h-284v-215h299q20 0 20 -19v-57q0 -21 -20 -21h-387q-21 0 -21 20v663q0 20 20 20h384q21 0 21 -20v-57q0 -20 -21 -20h-295v-200h284q19 0 19 -21v-52q0 -21 -19 -21zM313 859l51 -87q3 -6 0.5 -11.5t-11.5 -5.5h-39q-14 0 -27 12l-91 85q-6 6 -3.5 14t11.5 8
h85q17 0 24 -15z" />
    <glyph glyph-name="Eacute" unicode="&#xc9;" horiz-adv-x="559" 
d="M475 312h-284v-215h299q20 0 20 -19v-57q0 -21 -20 -21h-387q-21 0 -21 20v663q0 20 20 20h384q21 0 21 -20v-57q0 -20 -21 -20h-295v-200h284q19 0 19 -21v-52q0 -21 -19 -21zM252 772l51 87q9 15 25 15h85q10 0 12 -8t-5 -14l-91 -85q-9 -12 -27 -12h-38q-9 0 -12 5.5
t0 11.5z" />
    <glyph glyph-name="Ecircumflex" unicode="&#xca;" horiz-adv-x="559" 
d="M475 312h-284v-215h299q20 0 20 -19v-57q0 -21 -20 -21h-387q-21 0 -21 20v663q0 20 20 20h384q21 0 21 -20v-57q0 -20 -21 -20h-295v-200h284q19 0 19 -21v-52q0 -21 -19 -21zM365 766l-66 51l-67 -51q-15 -11 -25 -11h-43q-9 0 -11 6.5t4 12.5l92 91q11 11 26 11h47
q13 0 26 -11l91 -91q7 -6 5.5 -12.5t-11.5 -6.5h-43q-10 0 -25 11z" />
    <glyph glyph-name="Edieresis" unicode="&#xcb;" horiz-adv-x="559" 
d="M475 312h-284v-215h299q20 0 20 -19v-57q0 -21 -20 -21h-387q-21 0 -21 20v663q0 20 20 20h384q21 0 21 -20v-57q0 -20 -21 -20h-295v-200h284q19 0 19 -21v-52q0 -21 -19 -21zM252 841v-67q0 -19 -19 -19h-65q-18 0 -18 19v67q0 19 18 19h65q19 0 19 -19zM446 841v-67
q0 -19 -19 -19h-65q-18 0 -18 19v67q0 19 18 19h65q19 0 19 -19z" />
    <glyph glyph-name="Igrave" unicode="&#xcc;" horiz-adv-x="287" 
d="M89 20v663q0 20 19 20h70q21 0 21 -20v-663q0 -20 -21 -20h-70q-19 0 -19 20zM128 859l51 -87q3 -6 0.5 -11.5t-11.5 -5.5h-39q-13 0 -27 12l-91 85q-6 6 -3.5 14t11.5 8h85q16 0 24 -15z" />
    <glyph glyph-name="Iacute" unicode="&#xcd;" horiz-adv-x="287" 
d="M89 20v663q0 20 19 20h70q21 0 21 -20v-663q0 -20 -21 -20h-70q-19 0 -19 20zM109 772l51 87q9 15 25 15h85q10 0 12 -8t-5 -14l-91 -85q-9 -12 -27 -12h-38q-9 0 -12 5.5t0 11.5z" />
    <glyph glyph-name="Icircumflex" unicode="&#xce;" horiz-adv-x="287" 
d="M89 20v663q0 20 19 20h70q21 0 21 -20v-663q0 -20 -21 -20h-70q-19 0 -19 20zM209 766l-66 51l-67 -51q-15 -11 -25 -11h-43q-9 0 -11 6.5t4 12.5l92 91q11 11 26 11h47q13 0 26 -11l91 -91q7 -6 5.5 -12.5t-11.5 -6.5h-43q-10 0 -25 11z" />
    <glyph glyph-name="Idieresis" unicode="&#xcf;" horiz-adv-x="287" 
d="M89 20v663q0 20 19 20h70q21 0 21 -20v-663q0 -20 -21 -20h-70q-19 0 -19 20zM97 841v-67q0 -19 -19 -19h-65q-18 0 -18 19v67q0 19 18 19h65q19 0 19 -19zM291 841v-67q0 -19 -19 -19h-65q-18 0 -18 19v67q0 19 18 19h65q19 0 19 -19z" />
    <glyph glyph-name="Eth" unicode="&#xd0;" horiz-adv-x="687" 
d="M287 0h-182q-21 0 -21 20v298h-51q-16 0 -16 16v37q0 17 16 17h51v295q0 20 20 20h181q175 0 262.5 -80.5t87.5 -270.5t-86.5 -271t-261.5 -81zM334 318h-140v-218h90q122 0 180.5 54.5t58.5 197.5q0 142 -59 196.5t-181 54.5h-89v-215h140q15 0 15 -17v-37
q0 -16 -15 -16z" />
    <glyph glyph-name="Ntilde" unicode="&#xd1;" horiz-adv-x="710" 
d="M627 684v-664q0 -20 -20 -20h-70q-17 0 -27 15l-321 505v-500q0 -20 -19 -20h-67q-21 0 -21 20v663q0 20 21 20h69q19 0 28 -14l320 -506v500q0 20 20 20h67q20 0 20 -19zM525 827q0 -34 -18.5 -55.5t-56.5 -21.5q-37 0 -88 19l-29 10q-80 25 -83 -2l-1 -9
q-3 -15 -20 -15h-27q-17 0 -17 24q0 34 18.5 55.5t56.5 21.5q39 0 88 -19l32 -12q36 -14 56 -14t23 20l1 10q3 14 21 14h26q18 0 18 -26z" />
    <glyph glyph-name="Ograve" unicode="&#xd2;" horiz-adv-x="717" 
d="M358 714q148 0 227.5 -93t79.5 -269q0 -177 -79.5 -269.5t-227.5 -92.5q-147 0 -226.5 92.5t-79.5 269.5q0 176 79.5 269t226.5 93zM358 87q195 0 195 265t-195 265q-194 0 -194 -265t194 -265zM350 859l51 -87q3 -6 0.5 -11.5t-11.5 -5.5h-39q-13 0 -27 12l-91 85
q-6 6 -3.5 14t11.5 8h85q16 0 24 -15z" />
    <glyph glyph-name="Oacute" unicode="&#xd3;" horiz-adv-x="717" 
d="M358 714q148 0 227.5 -93t79.5 -269q0 -177 -79.5 -269.5t-227.5 -92.5q-147 0 -226.5 92.5t-79.5 269.5q0 176 79.5 269t226.5 93zM358 87q195 0 195 265t-195 265q-194 0 -194 -265t194 -265zM323 772l51 87q9 15 25 15h85q10 0 12 -8t-5 -14l-91 -85q-9 -12 -27 -12
h-38q-9 0 -12 5.5t0 11.5z" />
    <glyph glyph-name="Ocircumflex" unicode="&#xd4;" horiz-adv-x="717" 
d="M358 714q148 0 227.5 -93t79.5 -269q0 -177 -79.5 -269.5t-227.5 -92.5q-147 0 -226.5 92.5t-79.5 269.5q0 176 79.5 269t226.5 93zM358 87q195 0 195 265t-195 265q-194 0 -194 -265t194 -265zM425 766l-66 51l-67 -51q-15 -11 -25 -11h-43q-9 0 -11 6.5t4 12.5l92 91
q11 11 26 11h47q13 0 26 -11l91 -91q7 -6 5.5 -12.5t-11.5 -6.5h-43q-10 0 -25 11z" />
    <glyph glyph-name="Otilde" unicode="&#xd5;" horiz-adv-x="717" 
d="M358 714q148 0 227.5 -93t79.5 -269q0 -177 -79.5 -269.5t-227.5 -92.5q-147 0 -226.5 92.5t-79.5 269.5q0 176 79.5 269t226.5 93zM358 87q195 0 195 265t-195 265q-194 0 -194 -265t194 -265zM529 827q0 -34 -18.5 -55.5t-56.5 -21.5q-37 0 -88 19l-29 10
q-80 25 -83 -2l-1 -9q-3 -15 -20 -15h-27q-17 0 -17 24q0 34 18.5 55.5t56.5 21.5q39 0 88 -19l32 -12q36 -14 56 -14t23 20l1 10q3 14 21 14h26q18 0 18 -26z" />
    <glyph glyph-name="Odieresis" unicode="&#xd6;" horiz-adv-x="717" 
d="M358 714q148 0 227.5 -93t79.5 -269q0 -177 -79.5 -269.5t-227.5 -92.5q-147 0 -226.5 92.5t-79.5 269.5q0 176 79.5 269t226.5 93zM358 87q195 0 195 265t-195 265q-194 0 -194 -265t194 -265zM313 841v-67q0 -19 -19 -19h-65q-18 0 -18 19v67q0 19 18 19h65
q19 0 19 -19zM507 841v-67q0 -19 -19 -19h-65q-18 0 -18 19v67q0 19 18 19h65q19 0 19 -19z" />
    <glyph glyph-name="multiply" unicode="&#xd7;" horiz-adv-x="594" 
d="M444 133l-147 146l-147 -147q-14 -14 -27 0l-36 38q-13 14 -1 26l147 147l-147 147q-12 14 0 26l37 37q14 14 28 0l146 -147l147 147q13 13 26 0l37 -37q13 -12 0 -26l-147 -147l147 -147q12 -12 0 -26l-37 -38q-12 -12 -26 1z" />
    <glyph glyph-name="Oslash" unicode="&#xd8;" horiz-adv-x="719" 
d="M360 714q126 0 203 -72l45 50q13 14 26 4l29 -24q15 -11 3 -26l-55 -63q55 -93 55 -231q0 -177 -79.5 -269.5t-226.5 -92.5q-132 0 -205 71l-48 -52q-14 -14 -26 -3l-29 26q-13 10 -2 24l56 63q-53 87 -53 233q0 176 79.5 269t227.5 93zM360 87q97 0 145.5 68t48.5 197
q0 76 -22 138l-310 -348q28 -29 59.5 -42t78.5 -13zM165 352q0 -89 21 -139l309 347q-50 57 -135 57q-195 0 -195 -265z" />
    <glyph glyph-name="Ugrave" unicode="&#xd9;" horiz-adv-x="695" 
d="M347 -12q-135 0 -202.5 68t-67.5 195v432q0 20 20 20h69q21 0 21 -20v-423q0 -172 160 -172q161 0 161 172v423q0 20 20 20h70q19 0 19 -20v-432q0 -127 -67.5 -195t-202.5 -68zM349 859l51 -87q3 -6 0.5 -11.5t-11.5 -5.5h-39q-14 0 -27 12l-91 85q-6 6 -3.5 14t11.5 8
h85q17 0 24 -15z" />
    <glyph glyph-name="Uacute" unicode="&#xda;" horiz-adv-x="695" 
d="M347 -12q-135 0 -202.5 68t-67.5 195v432q0 20 20 20h69q21 0 21 -20v-423q0 -172 160 -172q161 0 161 172v423q0 20 20 20h70q19 0 19 -20v-432q0 -127 -67.5 -195t-202.5 -68zM294 772l51 87q9 15 25 15h85q10 0 12 -8t-5 -14l-91 -85q-9 -12 -27 -12h-38q-9 0 -12 5.5
t0 11.5z" />
    <glyph glyph-name="Ucircumflex" unicode="&#xdb;" horiz-adv-x="695" 
d="M347 -12q-135 0 -202.5 68t-67.5 195v432q0 20 20 20h69q21 0 21 -20v-423q0 -172 160 -172q161 0 161 172v423q0 20 20 20h70q19 0 19 -20v-432q0 -127 -67.5 -195t-202.5 -68zM414 766l-66 51l-67 -51q-15 -11 -25 -11h-43q-9 0 -11 6.5t4 12.5l92 91q11 11 26 11h47
q13 0 26 -11l91 -91q7 -6 5.5 -12.5t-11.5 -6.5h-43q-10 0 -25 11z" />
    <glyph glyph-name="Udieresis" unicode="&#xdc;" horiz-adv-x="695" 
d="M347 -12q-135 0 -202.5 68t-67.5 195v432q0 20 20 20h69q21 0 21 -20v-423q0 -172 160 -172q161 0 161 172v423q0 20 20 20h70q19 0 19 -20v-432q0 -127 -67.5 -195t-202.5 -68zM302 841v-67q0 -19 -19 -19h-65q-18 0 -18 19v67q0 19 18 19h65q19 0 19 -19zM496 841v-67
q0 -19 -19 -19h-65q-18 0 -18 19v67q0 19 18 19h65q19 0 19 -19z" />
    <glyph glyph-name="Yacute" unicode="&#xdd;" horiz-adv-x="650" 
d="M380 259v-239q0 -20 -20 -20h-70q-20 0 -20 20v239l-240 420q-5 8 -1 16t15 8h75q17 0 27 -18l127 -233l52 -102l52 102l128 233q7 18 26 18h75q11 0 14.5 -8t-0.5 -16zM289 772l51 87q9 15 25 15h85q10 0 12 -8t-5 -14l-91 -85q-9 -12 -27 -12h-38q-9 0 -12 5.5t0 11.5z
" />
    <glyph glyph-name="Thorn" unicode="&#xde;" horiz-adv-x="633" 
d="M171 0h-69q-20 0 -20 20v663q0 20 21 20h68q21 0 21 -20v-62h101q146 0 215.5 -55.5t69.5 -182.5t-69.5 -182.5t-214.5 -55.5h-102v-125q0 -20 -21 -20zM192 242h101q94 0 134.5 32t40.5 110q0 77 -41 108.5t-134 31.5h-101v-282z" />
    <glyph glyph-name="germandbls" unicode="&#xdf;" horiz-adv-x="647" 
d="M312 631q-61 0 -98 -27.5t-37 -82.5v-503q0 -18 -18 -18h-63q-19 0 -19 18v512q0 92 64.5 138.5t176.5 46.5q106 0 160.5 -42t54.5 -108q0 -38 -22 -68t-48.5 -44.5t-48.5 -28.5t-22 -25q0 -10 22 -22t53 -27.5t62 -37.5t53 -61.5t22 -89.5q0 -80 -51 -124t-155 -44
q-67 0 -100 7q-22 5 -22 18v46q0 20 19 17q48 -6 68 -6q64 0 101.5 24.5t37.5 71.5q0 36 -21.5 65t-52.5 47.5t-62.5 34.5t-53 35.5t-21.5 42.5q0 20 22 38.5t49 31.5t49 35t22 48q0 34 -29 58t-92 24z" />
    <glyph glyph-name="agrave" unicode="&#xe0;" horiz-adv-x="565" 
d="M497 345v-326q0 -19 -20 -19h-57q-17 0 -19 17l-2 63q-53 -89 -188 -89q-81 0 -127 39.5t-46 108.5q0 42 18 73.5t47.5 50t77 30.5t97.5 16.5t118 5.5v26q0 55 -29 80.5t-96 25.5q-80 0 -156 -32q-16 -6 -23 12l-15 48q-4 14 11 21q83 38 194 38t163 -47.5t52 -141.5z
M396 201v44q-64 -2 -103.5 -6t-79 -14t-57.5 -30t-18 -50q0 -34 26 -55.5t74 -21.5q76 0 117 38t41 95zM284 693l51 -87q4 -6 0.5 -11.5t-11.5 -5.5h-39q-15 0 -27 11l-91 86q-6 6 -3.5 13.5t11.5 7.5h85q16 0 24 -14z" />
    <glyph glyph-name="aacute" unicode="&#xe1;" horiz-adv-x="565" 
d="M497 345v-326q0 -19 -20 -19h-57q-17 0 -19 17l-2 63q-53 -89 -188 -89q-81 0 -127 39.5t-46 108.5q0 42 18 73.5t47.5 50t77 30.5t97.5 16.5t118 5.5v26q0 55 -29 80.5t-96 25.5q-80 0 -156 -32q-16 -6 -23 12l-15 48q-4 14 11 21q83 38 194 38t163 -47.5t52 -141.5z
M396 201v44q-64 -2 -103.5 -6t-79 -14t-57.5 -30t-18 -50q0 -34 26 -55.5t74 -21.5q76 0 117 38t41 95zM229 606l51 87q7 14 24 14h85q10 0 12 -7.5t-5 -13.5l-91 -86q-11 -11 -26 -11h-39q-9 0 -12 5.5t1 11.5z" />
    <glyph glyph-name="acircumflex" unicode="&#xe2;" horiz-adv-x="565" 
d="M497 345v-326q0 -19 -20 -19h-57q-17 0 -19 17l-2 63q-53 -89 -188 -89q-81 0 -127 39.5t-46 108.5q0 42 18 73.5t47.5 50t77 30.5t97.5 16.5t118 5.5v26q0 55 -29 80.5t-96 25.5q-80 0 -156 -32q-16 -6 -23 12l-15 48q-4 14 11 21q83 38 194 38t163 -47.5t52 -141.5z
M396 201v44q-64 -2 -103.5 -6t-79 -14t-57.5 -30t-18 -50q0 -34 26 -55.5t74 -21.5q76 0 117 38t41 95zM351 600l-69 54l-70 -54q-14 -11 -24 -11h-43q-9 0 -11 6t4 12l94 94q11 11 26 11h47q15 0 26 -11l94 -94q4 -4 4.5 -8t-2.5 -7t-9 -3h-43q-10 0 -24 11z" />
    <glyph glyph-name="atilde" unicode="&#xe3;" horiz-adv-x="565" 
d="M497 345v-326q0 -19 -20 -19h-57q-17 0 -19 17l-2 63q-53 -89 -188 -89q-81 0 -127 39.5t-46 108.5q0 42 18 73.5t47.5 50t77 30.5t97.5 16.5t118 5.5v26q0 55 -29 80.5t-96 25.5q-80 0 -156 -32q-16 -6 -23 12l-15 48q-4 14 11 21q83 38 194 38t163 -47.5t52 -141.5z
M396 201v44q-64 -2 -103.5 -6t-79 -14t-57.5 -30t-18 -50q0 -34 26 -55.5t74 -21.5q76 0 117 38t41 95zM438 661q0 -73 -68 -73q-36 0 -86 18l-28 10q-66 25 -72 -3l-2 -9q-3 -14 -20 -14h-26q-17 0 -17 23q0 73 68 73q34 0 86 -19l29 -10q39 -13 51 -13q20 0 21 20l1 7
q3 15 20 15h27q16 0 16 -25z" />
    <glyph glyph-name="adieresis" unicode="&#xe4;" horiz-adv-x="565" 
d="M497 345v-326q0 -19 -20 -19h-57q-17 0 -19 17l-2 63q-53 -89 -188 -89q-81 0 -127 39.5t-46 108.5q0 42 18 73.5t47.5 50t77 30.5t97.5 16.5t118 5.5v26q0 55 -29 80.5t-96 25.5q-80 0 -156 -32q-16 -6 -23 12l-15 48q-4 14 11 21q83 38 194 38t163 -47.5t52 -141.5z
M396 201v44q-64 -2 -103.5 -6t-79 -14t-57.5 -30t-18 -50q0 -34 26 -55.5t74 -21.5q76 0 117 38t41 95zM234 678v-71q0 -18 -19 -18h-61q-19 0 -19 18v71q0 19 19 19h61q19 0 19 -19zM422 678v-71q0 -18 -19 -18h-61q-19 0 -19 18v71q0 19 19 19h61q19 0 19 -19z" />
    <glyph glyph-name="aring" unicode="&#xe5;" horiz-adv-x="565" 
d="M497 345v-326q0 -19 -20 -19h-57q-17 0 -19 17l-2 63q-53 -89 -188 -89q-81 0 -127 39.5t-46 108.5q0 42 18 73.5t47.5 50t77 30.5t97.5 16.5t118 5.5v26q0 55 -29 80.5t-96 25.5q-80 0 -156 -32q-16 -6 -23 12l-15 48q-4 14 11 21q83 38 194 38t163 -47.5t52 -141.5z
M396 201v44q-64 -2 -103.5 -6t-79 -14t-57.5 -30t-18 -50q0 -34 26 -55.5t74 -21.5q76 0 117 38t41 95zM282 630q26 0 41 14t15 38q0 23 -15.5 36.5t-41.5 13.5t-41 -13.5t-15 -36.5q0 -25 15 -38.5t42 -13.5zM281 780q49 0 79.5 -27.5t30.5 -70.5q0 -44 -30.5 -71.5
t-78.5 -27.5q-49 0 -79 27.5t-30 71.5t30 71t78 27z" />
    <glyph glyph-name="ae" unicode="&#xe6;" horiz-adv-x="911" 
d="M668 70q67 0 129 31q17 8 24 -11l16 -43q4 -12 -12 -23q-25 -14 -72.5 -25t-91.5 -11q-80 0 -137 32.5t-76 83.5q-57 -113 -218 -113q-192 0 -192 149q0 36 11 63.5t36 44.5t53 28t73.5 16t85 7t99.5 2v53q-2 93 -123 93q-83 0 -161 -32q-16 -6 -23 12l-17 48
q-4 14 12 21q96 38 192 38q155 0 183 -98q23 46 71 72t112 26q103 0 161.5 -65.5t58.5 -172.5v-56q0 -19 -20 -19h-346q7 -69 53.5 -110t118.5 -41zM635 452q-61 0 -99 -41t-42 -115h271v7q0 69 -32.5 109t-97.5 40zM397 204v26q-152 -3 -196 -16q-62 -19 -63 -69
q0 -75 105 -75q76 0 115 38t39 96z" />
    <glyph glyph-name="ccedilla" unicode="&#xe7;" horiz-adv-x="507" 
d="M48 263q0 130 69.5 200.5t185.5 70.5q89 0 147 -32q17 -10 12 -24l-20 -46q-7 -17 -27 -9q-45 21 -100 21q-76 0 -118.5 -45t-42.5 -136t42.5 -137.5t114.5 -46.5q58 0 112 26q18 9 25 -9l19 -47q5 -14 -13 -24q-21 -13 -62 -24t-83 -11q57 -29 57 -75q0 -73 -104 -73
q-32 0 -42 4q-12 3 -12 14v29q0 11 12 11h29q51 0 51 30q0 39 -62 68q-89 19 -139.5 87t-50.5 178z" />
    <glyph glyph-name="egrave" unicode="&#xe8;" horiz-adv-x="575" 
d="M328 70q74 0 131 31q17 10 25 -11l16 -41q5 -15 -13 -23q-74 -38 -166 -38q-128 0 -200.5 72.5t-72.5 199.5q0 130 66 202t180 72q111 0 172 -67.5t61 -178.5v-49q0 -19 -20 -19h-356q6 -68 53.5 -109t123.5 -41zM295 452q-136 0 -146 -158h282v5q0 70 -35 111.5
t-101 41.5zM290 693l51 -87q4 -6 0.5 -11.5t-11.5 -5.5h-39q-15 0 -27 11l-91 86q-6 6 -3.5 13.5t11.5 7.5h85q16 0 24 -14z" />
    <glyph glyph-name="eacute" unicode="&#xe9;" horiz-adv-x="575" 
d="M328 70q74 0 131 31q17 10 25 -11l16 -41q5 -15 -13 -23q-74 -38 -166 -38q-128 0 -200.5 72.5t-72.5 199.5q0 130 66 202t180 72q111 0 172 -67.5t61 -178.5v-49q0 -19 -20 -19h-356q6 -68 53.5 -109t123.5 -41zM295 452q-136 0 -146 -158h282v5q0 70 -35 111.5
t-101 41.5zM242 606l51 87q7 14 24 14h85q10 0 12 -7.5t-5 -13.5l-91 -86q-11 -11 -26 -11h-39q-9 0 -12 5.5t1 11.5z" />
    <glyph glyph-name="ecircumflex" unicode="&#xea;" horiz-adv-x="575" 
d="M328 70q74 0 131 31q17 10 25 -11l16 -41q5 -15 -13 -23q-74 -38 -166 -38q-128 0 -200.5 72.5t-72.5 199.5q0 130 66 202t180 72q111 0 172 -67.5t61 -178.5v-49q0 -19 -20 -19h-356q6 -68 53.5 -109t123.5 -41zM295 452q-136 0 -146 -158h282v5q0 70 -35 111.5
t-101 41.5zM363 600l-69 54l-70 -54q-14 -11 -24 -11h-43q-9 0 -11 6t4 12l94 94q11 11 26 11h47q15 0 26 -11l94 -94q4 -4 4.5 -8t-2.5 -7t-9 -3h-43q-10 0 -24 11z" />
    <glyph glyph-name="edieresis" unicode="&#xeb;" horiz-adv-x="575" 
d="M328 70q74 0 131 31q17 10 25 -11l16 -41q5 -15 -13 -23q-74 -38 -166 -38q-128 0 -200.5 72.5t-72.5 199.5q0 130 66 202t180 72q111 0 172 -67.5t61 -178.5v-49q0 -19 -20 -19h-356q6 -68 53.5 -109t123.5 -41zM295 452q-136 0 -146 -158h282v5q0 70 -35 111.5
t-101 41.5zM249 678v-71q0 -18 -19 -18h-61q-19 0 -19 18v71q0 19 19 19h61q19 0 19 -19zM437 678v-71q0 -18 -19 -18h-61q-19 0 -19 18v71q0 19 19 19h61q19 0 19 -19z" />
    <glyph glyph-name="igrave" unicode="&#xec;" horiz-adv-x="255" 
d="M179 503v-484q0 -19 -19 -19h-65q-19 0 -19 19v484q0 19 19 19h65q19 0 19 -19zM114 693l51 -87q4 -6 0.5 -11.5t-11.5 -5.5h-39q-15 0 -27 11l-91 86q-6 6 -3.5 13.5t11.5 7.5h85q16 0 24 -14z" />
    <glyph glyph-name="iacute" unicode="&#xed;" horiz-adv-x="255" 
d="M179 503v-484q0 -19 -19 -19h-65q-19 0 -19 19v484q0 19 19 19h65q19 0 19 -19zM91 606l51 87q7 14 24 14h85q10 0 12 -7.5t-5 -13.5l-91 -86q-11 -11 -26 -11h-39q-9 0 -12 5.5t1 11.5z" />
    <glyph glyph-name="icircumflex" unicode="&#xee;" horiz-adv-x="255" 
d="M179 503v-484q0 -19 -19 -19h-65q-19 0 -19 19v484q0 19 19 19h65q19 0 19 -19zM197 600l-69 54l-70 -54q-14 -11 -24 -11h-43q-9 0 -11 6t4 12l94 94q11 11 26 11h47q15 0 26 -11l94 -94q4 -4 4.5 -8t-2.5 -7t-9 -3h-43q-10 0 -24 11z" />
    <glyph glyph-name="idieresis" unicode="&#xef;" horiz-adv-x="255" 
d="M179 503v-484q0 -19 -19 -19h-65q-19 0 -19 19v484q0 19 19 19h65q19 0 19 -19zM83 678v-71q0 -18 -19 -18h-61q-19 0 -19 18v71q0 19 19 19h61q19 0 19 -19zM271 678v-71q0 -18 -19 -18h-61q-19 0 -19 18v71q0 19 19 19h61q19 0 19 -19z" />
    <glyph glyph-name="eth" unicode="&#xf0;" horiz-adv-x="600" 
d="M505 583h-59q108 -148 108 -320q0 -132 -68 -202.5t-185 -70.5t-185 70.5t-68 199.5t67.5 199.5t178.5 70.5q84 0 123 -38q-25 50 -62 91h-146q-17 0 -17 17v23q0 16 17 16h101q-18 19 -61 45q-9 5 -7 12t11 7h68q17 0 29 -9q25 -18 58 -55h97q16 0 16 -16v-23
q0 -17 -16 -17zM301 76q70 0 108.5 46.5t38.5 137.5q0 92 -38.5 140t-108.5 48q-71 0 -109 -47.5t-38 -140.5q0 -92 38 -138t109 -46z" />
    <glyph glyph-name="ntilde" unicode="&#xf1;" horiz-adv-x="601" 
d="M532 343v-324q0 -19 -20 -19h-65q-19 0 -19 19v307q0 58 -27 87t-87 29q-64 0 -101 -37t-37 -99v-287q0 -19 -19 -19h-66q-18 0 -18 19v484q0 19 18 19h62q19 0 19 -17l3 -60q49 89 173 89q92 0 138 -50.5t46 -140.5zM460 661q0 -73 -68 -73q-36 0 -86 18l-28 10
q-66 25 -72 -3l-2 -9q-3 -14 -20 -14h-26q-17 0 -17 23q0 73 68 73q34 0 86 -19l29 -10q39 -13 51 -13q20 0 21 20l1 7q3 15 20 15h27q16 0 16 -25z" />
    <glyph glyph-name="ograve" unicode="&#xf2;" horiz-adv-x="602" 
d="M301 -10q117 0 185 70.5t68 201.5t-68 201.5t-185 70.5t-185 -70.5t-68 -201.5t67.5 -201.5t185.5 -70.5zM301 76q-71 0 -109 46.5t-38 139.5t38 139.5t109 46.5q70 0 108.5 -46.5t38.5 -139.5t-38.5 -139.5t-108.5 -46.5zM297 693l51 -87q4 -6 0.5 -11.5t-11.5 -5.5h-39
q-15 0 -27 11l-91 86q-6 6 -3.5 13.5t11.5 7.5h85q16 0 24 -14z" />
    <glyph glyph-name="oacute" unicode="&#xf3;" horiz-adv-x="602" 
d="M301 -10q117 0 185 70.5t68 201.5t-68 201.5t-185 70.5t-185 -70.5t-68 -201.5t67.5 -201.5t185.5 -70.5zM301 76q-71 0 -109 46.5t-38 139.5t38 139.5t109 46.5q70 0 108.5 -46.5t38.5 -139.5t-38.5 -139.5t-108.5 -46.5zM253 606l51 87q7 14 24 14h85q10 0 12 -7.5
t-5 -13.5l-91 -86q-11 -11 -26 -11h-39q-9 0 -12 5.5t1 11.5z" />
    <glyph glyph-name="ocircumflex" unicode="&#xf4;" horiz-adv-x="602" 
d="M301 -10q117 0 185 70.5t68 201.5t-68 201.5t-185 70.5t-185 -70.5t-68 -201.5t67.5 -201.5t185.5 -70.5zM301 76q-71 0 -109 46.5t-38 139.5t38 139.5t109 46.5q70 0 108.5 -46.5t38.5 -139.5t-38.5 -139.5t-108.5 -46.5zM370 600l-69 54l-70 -54q-14 -11 -24 -11h-43
q-9 0 -11 6t4 12l94 94q11 11 26 11h47q15 0 26 -11l94 -94q4 -4 4.5 -8t-2.5 -7t-9 -3h-43q-10 0 -24 11z" />
    <glyph glyph-name="otilde" unicode="&#xf5;" horiz-adv-x="602" 
d="M301 -10q-118 0 -185.5 70.5t-67.5 201.5t68 201.5t185 70.5t185 -70.5t68 -201.5t-68 -201.5t-185 -70.5zM301 76q70 0 108.5 46.5t38.5 139.5t-38.5 139.5t-108.5 46.5q-71 0 -109 -46.5t-38 -139.5t38 -139.5t109 -46.5zM460 661q0 -73 -68 -73q-36 0 -86 18l-28 10
q-66 25 -72 -3l-2 -9q-3 -14 -20 -14h-26q-17 0 -17 23q0 73 68 73q34 0 86 -19l29 -10q39 -13 51 -13q20 0 21 20l1 7q3 15 20 15h27q16 0 16 -25z" />
    <glyph glyph-name="odieresis" unicode="&#xf6;" horiz-adv-x="602" 
d="M301 -10q117 0 185 70.5t68 201.5t-68 201.5t-185 70.5t-185 -70.5t-68 -201.5t67.5 -201.5t185.5 -70.5zM301 76q-71 0 -109 46.5t-38 139.5t38 139.5t109 46.5q70 0 108.5 -46.5t38.5 -139.5t-38.5 -139.5t-108.5 -46.5zM256 678v-71q0 -18 -19 -18h-61q-19 0 -19 18
v71q0 19 19 19h61q19 0 19 -19zM444 678v-71q0 -18 -19 -18h-61q-19 0 -19 18v71q0 19 19 19h61q19 0 19 -19z" />
    <glyph glyph-name="divide" unicode="&#xf7;" horiz-adv-x="594" 
d="M513 303h-433q-18 0 -18 19v44q0 19 19 19h432q19 0 19 -19v-44q0 -19 -19 -19zM241 116v81q0 19 19 19h74q19 0 19 -19v-81q0 -20 -19 -20h-74q-19 0 -19 20zM241 491v81q0 19 19 19h74q19 0 19 -19v-81q0 -20 -19 -20h-74q-19 0 -19 20z" />
    <glyph glyph-name="oslash" unicode="&#xf8;" horiz-adv-x="606" 
d="M303 -10q-97 0 -158 46l-29 -32q-13 -14 -27 -3l-19 16q-14 12 -3 25l33 40q-50 66 -50 180q0 131 68 201.5t185 70.5q97 0 159 -48l27 31q14 15 28 4l19 -16q13 -12 3 -24l-33 -40q50 -67 50 -179q0 -131 -68 -201.5t-185 -70.5zM303 448q-71 0 -109 -46.5t-38 -139.5
q0 -65 19 -100l225 252q-37 34 -97 34zM303 76q70 0 108.5 46.5t38.5 139.5q0 60 -18 98l-225 -252q38 -32 96 -32z" />
    <glyph glyph-name="ugrave" unicode="&#xf9;" horiz-adv-x="593" 
d="M66 179v324q0 19 19 19h65q19 0 19 -19v-306q0 -117 109 -117q62 0 100 36.5t38 97.5v289q0 19 19 19h66q18 0 18 -19v-484q0 -19 -18 -19h-63q-19 0 -19 17l-2 60q-48 -87 -169 -87q-182 0 -182 189zM296 693l51 -87q4 -6 0.5 -11.5t-11.5 -5.5h-39q-15 0 -27 11l-91 86
q-6 6 -3.5 13.5t11.5 7.5h85q16 0 24 -14z" />
    <glyph glyph-name="uacute" unicode="&#xfa;" horiz-adv-x="593" 
d="M66 179v324q0 19 19 19h65q19 0 19 -19v-306q0 -117 109 -117q62 0 100 36.5t38 97.5v289q0 19 19 19h66q18 0 18 -19v-484q0 -19 -18 -19h-63q-19 0 -19 17l-2 60q-48 -87 -169 -87q-182 0 -182 189zM245 606l51 87q7 14 24 14h85q10 0 12 -7.5t-5 -13.5l-91 -86
q-11 -11 -26 -11h-39q-9 0 -12 5.5t1 11.5z" />
    <glyph glyph-name="ucircumflex" unicode="&#xfb;" horiz-adv-x="593" 
d="M66 179v324q0 19 19 19h65q19 0 19 -19v-306q0 -117 109 -117q62 0 100 36.5t38 97.5v289q0 19 19 19h66q18 0 18 -19v-484q0 -19 -18 -19h-63q-19 0 -19 17l-2 60q-48 -87 -169 -87q-182 0 -182 189zM366 600l-69 54l-70 -54q-14 -11 -24 -11h-43q-9 0 -11 6t4 12l94 94
q11 11 26 11h47q15 0 26 -11l94 -94q4 -4 4.5 -8t-2.5 -7t-9 -3h-43q-10 0 -24 11z" />
    <glyph glyph-name="udieresis" unicode="&#xfc;" horiz-adv-x="593" 
d="M66 179v324q0 19 19 19h65q19 0 19 -19v-306q0 -117 109 -117q62 0 100 36.5t38 97.5v289q0 19 19 19h66q18 0 18 -19v-484q0 -19 -18 -19h-63q-19 0 -19 17l-2 60q-48 -87 -169 -87q-182 0 -182 189zM252 678v-71q0 -18 -19 -18h-61q-19 0 -19 18v71q0 19 19 19h61
q19 0 19 -19zM440 678v-71q0 -18 -19 -18h-61q-19 0 -19 18v71q0 19 19 19h61q19 0 19 -19z" />
    <glyph glyph-name="yacute" unicode="&#xfd;" horiz-adv-x="518" 
d="M495 501l-158 -463q-29 -87 -64.5 -120t-113.5 -33q-47 0 -82 11q-18 7 -16 19l10 48q3 17 19 14l18 -3q18 -4 35 -4q32 0 49 13t17 36q0 16 -7 31l-177 451q-7 21 14 21h69q15 0 22 -18l92 -250l48 -151h2l43 151l75 250q5 18 21 18h69q22 0 15 -21zM213 606l51 87
q7 14 24 14h85q10 0 12 -7.5t-5 -13.5l-91 -86q-11 -11 -26 -11h-39q-9 0 -12 5.5t1 11.5z" />
    <glyph glyph-name="thorn" unicode="&#xfe;" horiz-adv-x="631" 
d="M94 703h66q19 0 19 -18v-243q21 44 69 68t107 24q107 0 167.5 -69t60.5 -203t-60 -203t-168 -69q-135 0 -176 90v-171q0 -19 -19 -19h-66q-19 0 -19 19v776q0 18 19 18zM179 262q0 -92 39 -139t112 -47q74 0 110.5 44.5t36.5 141.5t-36.5 141t-110.5 44q-73 0 -112 -46.5
t-39 -138.5z" />
    <glyph glyph-name="ydieresis" unicode="&#xff;" horiz-adv-x="518" 
d="M495 501l-158 -463q-29 -87 -64.5 -120t-113.5 -33q-47 0 -82 11q-18 7 -16 19l10 48q3 17 19 14l18 -3q18 -4 35 -4q32 0 49 13t17 36q0 16 -7 31l-177 451q-7 21 14 21h69q15 0 22 -18l92 -250l48 -151h2l43 151l75 250q5 18 21 18h69q22 0 15 -21zM214 678v-71
q0 -18 -19 -18h-61q-19 0 -19 18v71q0 19 19 19h61q19 0 19 -19zM402 678v-71q0 -18 -19 -18h-61q-19 0 -19 18v71q0 19 19 19h61q19 0 19 -19z" />
    <glyph glyph-name="Amacron" unicode="&#x100;" horiz-adv-x="676" 
d="M223 265h229l-113 329h-2zM294 703h88q12 0 16.5 -4.5t8.5 -15.5l243 -661q4 -9 -0.5 -15.5t-14.5 -6.5h-75q-16 0 -24 18l-55 151h-286l-56 -151q-6 -18 -22 -18h-76q-10 0 -14.5 6.5t-1.5 15.5l243 661q4 11 9 15.5t17 4.5zM483 767h-292q-18 0 -18 18v34q0 18 18 18
h292q19 0 19 -18v-34q0 -18 -19 -18z" />
    <glyph glyph-name="amacron" unicode="&#x101;" horiz-adv-x="565" 
d="M497 345v-326q0 -19 -20 -19h-57q-17 0 -19 17l-2 63q-53 -89 -188 -89q-81 0 -127 39.5t-46 108.5q0 42 18 73.5t47.5 50t77 30.5t97.5 16.5t118 5.5v26q0 55 -29 80.5t-96 25.5q-80 0 -156 -32q-16 -6 -23 12l-15 48q-4 14 11 21q83 38 194 38t163 -47.5t52 -141.5z
M396 201v44q-64 -2 -103.5 -6t-79 -14t-57.5 -30t-18 -50q0 -34 26 -55.5t74 -21.5q76 0 117 38t41 95zM424 594h-291q-18 0 -18 18v30q0 18 18 18h291q18 0 18 -18v-30q0 -18 -18 -18z" />
    <glyph glyph-name="Abreve" unicode="&#x102;" horiz-adv-x="676" 
d="M223 265h229l-113 329h-2zM294 703h88q12 0 16.5 -4.5t8.5 -15.5l243 -661q4 -9 -0.5 -15.5t-14.5 -6.5h-75q-16 0 -24 18l-55 151h-286l-56 -151q-6 -18 -22 -18h-76q-10 0 -14.5 6.5t-1.5 15.5l243 661q4 11 9 15.5t17 4.5zM338 754q-71 0 -107.5 32t-37.5 80
q0 15 15 15h32q13 0 18 -14q7 -26 24.5 -39.5t55.5 -13.5q39 0 56 13.5t24 39.5q3 14 17 14h32q15 0 15 -15q-1 -48 -37 -80t-107 -32z" />
    <glyph glyph-name="abreve" unicode="&#x103;" horiz-adv-x="565" 
d="M497 345v-326q0 -19 -20 -19h-57q-17 0 -19 17l-2 63q-53 -89 -188 -89q-81 0 -127 39.5t-46 108.5q0 42 18 73.5t47.5 50t77 30.5t97.5 16.5t118 5.5v26q0 55 -29 80.5t-96 25.5q-80 0 -156 -32q-16 -6 -23 12l-15 48q-4 14 11 21q83 38 194 38t163 -47.5t52 -141.5z
M396 201v44q-64 -2 -103.5 -6t-79 -14t-57.5 -30t-18 -50q0 -34 26 -55.5t74 -21.5q76 0 117 38t41 95zM279 585q-73 0 -108.5 33.5t-36.5 82.5q0 15 15 15h32q13 0 16 -14q7 -28 24.5 -42.5t57.5 -14.5t56.5 14.5t23.5 42.5q4 14 17 14h32q14 0 14 -15q0 -49 -35 -82.5
t-108 -33.5z" />
    <glyph glyph-name="Aogonek" unicode="&#x104;" horiz-adv-x="676" 
d="M294 703h88q12 0 16.5 -4.5t8.5 -15.5l243 -661q4 -9 -0.5 -15.5t-14.5 -6.5h-13q-64 -31 -64 -75q0 -31 51 -31q8 0 14.5 1t11.5 2.5t7 1.5q9 2 12 -6l8 -32q3 -10 -7 -14q-23 -16 -69 -16q-43 0 -70.5 18t-27.5 54q0 26 21.5 53.5t53.5 43.5h-3q-16 0 -24 18l-55 151
h-286l-56 -151q-6 -18 -22 -18h-76q-10 0 -14.5 6.5t-1.5 15.5l243 661q4 11 9 15.5t17 4.5zM223 265h229l-113 329h-2z" />
    <glyph glyph-name="aogonek" unicode="&#x105;" horiz-adv-x="565" 
d="M497 345v-326q0 -19 -20 -19h-10q-62 -28 -62 -69q0 -30 48 -30q8 0 33 5q10 2 12 -7l7 -29q4 -11 -6 -14q-24 -15 -67 -15q-93 0 -93 68q0 27 20.5 52t51.5 40q-8 2 -10 16l-2 63q-53 -89 -188 -89q-81 0 -127 39.5t-46 108.5q0 42 18 73.5t47.5 50t77 30.5t97.5 16.5
t118 5.5v26q0 55 -29 80.5t-96 25.5q-80 0 -156 -32q-16 -6 -23 12l-15 48q-4 14 11 21q83 38 194 38t163 -47.5t52 -141.5zM396 201v44q-64 -2 -103.5 -6t-79 -14t-57.5 -30t-18 -50q0 -34 26 -55.5t74 -21.5q76 0 117 38t41 95z" />
    <glyph glyph-name="Cacute" unicode="&#x106;" horiz-adv-x="611" 
d="M390 88q72 0 132 33q18 7 27 -12l23 -52q6 -13 -14 -23q-72 -44 -184 -44q-153 0 -236.5 93t-83.5 269q0 175 82.5 268.5t232.5 93.5q110 0 182 -42q18 -10 13 -24l-22 -51q-7 -19 -27 -10q-58 28 -129 28q-220 0 -220 -263q0 -264 224 -264zM301 772l51 87q9 15 25 15
h85q10 0 12 -8t-5 -14l-91 -85q-9 -12 -27 -12h-38q-9 0 -12 5.5t0 11.5z" />
    <glyph glyph-name="cacute" unicode="&#x107;" horiz-adv-x="507" 
d="M48 263q0 130 69.5 200.5t185.5 70.5q89 0 147 -32q17 -10 12 -24l-20 -46q-7 -17 -27 -9q-45 21 -100 21q-76 0 -118.5 -45t-42.5 -136t42.5 -137.5t114.5 -46.5q58 0 112 26q18 9 25 -9l19 -47q5 -14 -13 -24q-21 -13 -62 -24t-83 -11q-120 0 -190.5 71t-70.5 202z
M254 606l51 87q7 14 24 14h85q10 0 12 -7.5t-5 -13.5l-91 -86q-11 -11 -26 -11h-39q-9 0 -12 5.5t1 11.5z" />
    <glyph glyph-name="Ccircumflex" unicode="&#x108;" horiz-adv-x="611" 
d="M390 88q72 0 132 33q18 7 27 -12l23 -52q6 -13 -14 -23q-72 -44 -184 -44q-153 0 -236.5 93t-83.5 269q0 175 82.5 268.5t232.5 93.5q110 0 182 -42q18 -10 13 -24l-22 -51q-7 -19 -27 -10q-58 28 -129 28q-220 0 -220 -263q0 -264 224 -264zM425 766l-66 51l-67 -51
q-15 -11 -25 -11h-43q-9 0 -11 6.5t4 12.5l92 91q11 11 26 11h47q13 0 26 -11l91 -91q7 -6 5.5 -12.5t-11.5 -6.5h-43q-10 0 -25 11z" />
    <glyph glyph-name="ccircumflex" unicode="&#x109;" horiz-adv-x="507" 
d="M48 263q0 130 69.5 200.5t185.5 70.5q89 0 147 -32q17 -10 12 -24l-20 -46q-7 -17 -27 -9q-45 21 -100 21q-76 0 -118.5 -45t-42.5 -136t42.5 -137.5t114.5 -46.5q58 0 112 26q18 9 25 -9l19 -47q5 -14 -13 -24q-21 -13 -62 -24t-83 -11q-120 0 -190.5 71t-70.5 202z
M350 600l-69 54l-70 -54q-14 -11 -24 -11h-43q-9 0 -11 6t4 12l94 94q11 11 26 11h47q15 0 26 -11l94 -94q4 -4 4.5 -8t-2.5 -7t-9 -3h-43q-10 0 -24 11z" />
    <glyph glyph-name="Cdotaccent" unicode="&#x10a;" horiz-adv-x="611" 
d="M390 88q72 0 132 33q18 7 27 -12l23 -52q6 -13 -14 -23q-72 -44 -184 -44q-153 0 -236.5 93t-83.5 269q0 175 82.5 268.5t232.5 93.5q110 0 182 -42q18 -10 13 -24l-22 -51q-7 -19 -27 -10q-58 28 -129 28q-220 0 -220 -263q0 -264 224 -264zM412 849v-75q0 -20 -19 -20
h-71q-19 0 -19 20v75q0 19 19 19h71q19 0 19 -19z" />
    <glyph glyph-name="cdotaccent" unicode="&#x10b;" horiz-adv-x="507" 
d="M48 263q0 130 69.5 200.5t185.5 70.5q89 0 147 -32q17 -10 12 -24l-20 -46q-7 -17 -27 -9q-45 21 -100 21q-76 0 -118.5 -45t-42.5 -136t42.5 -137.5t114.5 -46.5q58 0 112 26q18 9 25 -9l19 -47q5 -14 -13 -24q-21 -13 -62 -24t-83 -11q-120 0 -190.5 71t-70.5 202z
M346 681v-74q0 -19 -19 -19h-71q-19 0 -19 19v74q0 20 19 20h71q19 0 19 -20z" />
    <glyph glyph-name="Ccaron" unicode="&#x10c;" horiz-adv-x="611" 
d="M390 88q72 0 132 33q18 7 27 -12l23 -52q6 -13 -14 -23q-72 -44 -184 -44q-153 0 -236.5 93t-83.5 269q0 175 82.5 268.5t232.5 93.5q110 0 182 -42q18 -10 13 -24l-22 -51q-7 -19 -27 -10q-58 28 -129 28q-220 0 -220 -263q0 -264 224 -264zM359 813l65 51q15 12 24 12
h43q9 0 11.5 -6.5t-3.5 -12.5l-91 -91q-10 -11 -26 -11h-47q-15 0 -26 11l-92 91q-6 5 -3.5 12t12.5 7h43q10 0 23 -11z" />
    <glyph glyph-name="ccaron" unicode="&#x10d;" horiz-adv-x="507" 
d="M48 263q0 130 69.5 200.5t185.5 70.5q89 0 147 -32q17 -10 12 -24l-20 -46q-7 -17 -27 -9q-45 21 -100 21q-76 0 -118.5 -45t-42.5 -136t42.5 -137.5t114.5 -46.5q58 0 112 26q18 9 25 -9l19 -47q5 -14 -13 -24q-21 -13 -62 -24t-83 -11q-120 0 -190.5 71t-70.5 202z
M288 647l69 54q14 11 24 11h43q9 0 11 -6t-4 -12l-94 -94q-11 -11 -26 -11h-47q-15 0 -26 11l-94 94q-4 3 -4.5 7.5t2.5 7.5t9 3h43q10 0 24 -11z" />
    <glyph glyph-name="Dcaron" unicode="&#x10e;" horiz-adv-x="685" 
d="M285 0h-182q-21 0 -21 20v663q0 20 20 20h181q175 0 262.5 -79.5t87.5 -262.5q0 -196 -86.5 -278.5t-261.5 -82.5zM281 603h-89v-503h90q122 0 180.5 56t58.5 205q0 136 -59 189t-181 53zM334 813l65 51q15 12 24 12h43q9 0 11.5 -6.5t-3.5 -12.5l-91 -91
q-10 -11 -26 -11h-47q-15 0 -26 11l-92 91q-6 5 -3.5 12t12.5 7h43q10 0 23 -11z" />
    <glyph glyph-name="dcaron" unicode="&#x10f;" horiz-adv-x="741" 
d="M453 262q0 92 -39.5 138.5t-112.5 46.5t-109.5 -44t-36.5 -141t36.5 -141.5t109.5 -44.5t112.5 47t39.5 139zM456 17l-1 64q-22 -45 -69.5 -68t-109.5 -23q-108 0 -168 69t-60 203t60.5 203t167.5 69q60 0 108 -24t68 -68v243q0 18 20 18h65q19 0 19 -18v-666
q0 -19 -19 -19h-62q-19 0 -19 17zM738 587l-45 -101q-5 -13 -17 -13h-25q-6 0 -8.5 5.5t-0.5 11.5l30 98h-27q-19 0 -19 19v81q0 19 20 19h77q20 0 20 -19v-76q0 -14 -5 -25z" />
    <glyph glyph-name="Dcroat" unicode="&#x110;" horiz-adv-x="687" 
d="M287 0h-182q-21 0 -21 20v298h-51q-16 0 -16 16v37q0 17 16 17h51v295q0 20 20 20h181q175 0 262.5 -80.5t87.5 -270.5t-86.5 -271t-261.5 -81zM334 318h-140v-218h90q122 0 180.5 54.5t58.5 197.5q0 142 -59 196.5t-181 54.5h-89v-215h140q15 0 15 -17v-37
q0 -16 -15 -16z" />
    <glyph glyph-name="dcroat" unicode="&#x111;" horiz-adv-x="633" 
d="M456 17l-1 64q-22 -45 -69.5 -68t-109.5 -23q-108 0 -168 69t-60 203t60.5 203t167.5 69q60 0 108 -24t68 -68v146h-145q-17 0 -17 16v23q0 17 17 17h145v41q0 18 20 18h65q19 0 19 -18v-41h48q15 0 15 -17v-23q0 -16 -15 -16h-48v-569q0 -19 -19 -19h-62q-19 0 -19 17z
M453 262q0 92 -39.5 138.5t-112.5 46.5t-109.5 -44t-36.5 -141t36.5 -141.5t109.5 -44.5t112.5 47t39.5 139z" />
    <glyph glyph-name="Emacron" unicode="&#x112;" horiz-adv-x="559" 
d="M475 312h-284v-215h299q20 0 20 -19v-57q0 -21 -20 -21h-387q-21 0 -21 20v663q0 20 20 20h384q21 0 21 -20v-57q0 -20 -21 -20h-295v-200h284q19 0 19 -21v-52q0 -21 -19 -21zM445 767h-292q-18 0 -18 18v34q0 18 18 18h292q19 0 19 -18v-34q0 -18 -19 -18z" />
    <glyph glyph-name="emacron" unicode="&#x113;" horiz-adv-x="575" 
d="M328 70q74 0 131 31q17 10 25 -11l16 -41q5 -15 -13 -23q-74 -38 -166 -38q-128 0 -200.5 72.5t-72.5 199.5q0 130 66 202t180 72q111 0 172 -67.5t61 -178.5v-49q0 -19 -20 -19h-356q6 -68 53.5 -109t123.5 -41zM295 452q-136 0 -146 -158h282v5q0 70 -35 111.5
t-101 41.5zM440 594h-291q-18 0 -18 18v30q0 18 18 18h291q18 0 18 -18v-30q0 -18 -18 -18z" />
    <glyph glyph-name="Ebreve" unicode="&#x114;" horiz-adv-x="559" 
d="M475 312h-284v-215h299q20 0 20 -19v-57q0 -21 -20 -21h-387q-21 0 -21 20v663q0 20 20 20h384q21 0 21 -20v-57q0 -20 -21 -20h-295v-200h284q19 0 19 -21v-52q0 -21 -19 -21zM306 754q-71 0 -107.5 32t-37.5 80q0 15 15 15h32q13 0 18 -14q7 -26 24.5 -39.5t55.5 -13.5
q39 0 56 13.5t24 39.5q3 14 17 14h32q15 0 15 -15q-1 -48 -37 -80t-107 -32z" />
    <glyph glyph-name="ebreve" unicode="&#x115;" horiz-adv-x="575" 
d="M328 70q74 0 131 31q17 10 25 -11l16 -41q5 -15 -13 -23q-74 -38 -166 -38q-128 0 -200.5 72.5t-72.5 199.5q0 130 66 202t180 72q111 0 172 -67.5t61 -178.5v-49q0 -19 -20 -19h-356q6 -68 53.5 -109t123.5 -41zM295 452q-136 0 -146 -158h282v5q0 70 -35 111.5
t-101 41.5zM295 585q-73 0 -108.5 33.5t-36.5 82.5q0 15 15 15h32q13 0 16 -14q7 -28 24.5 -42.5t57.5 -14.5t56.5 14.5t23.5 42.5q4 14 17 14h32q14 0 14 -15q0 -49 -35 -82.5t-108 -33.5z" />
    <glyph glyph-name="Edotaccent" unicode="&#x116;" horiz-adv-x="559" 
d="M475 312h-284v-215h299q20 0 20 -19v-57q0 -21 -20 -21h-387q-21 0 -21 20v663q0 20 20 20h384q21 0 21 -20v-57q0 -20 -21 -20h-295v-200h284q19 0 19 -21v-52q0 -21 -19 -21zM367 849v-75q0 -20 -19 -20h-71q-19 0 -19 20v75q0 19 19 19h71q19 0 19 -19z" />
    <glyph glyph-name="edotaccent" unicode="&#x117;" horiz-adv-x="575" 
d="M328 70q74 0 131 31q17 10 25 -11l16 -41q5 -15 -13 -23q-74 -38 -166 -38q-128 0 -200.5 72.5t-72.5 199.5q0 130 66 202t180 72q111 0 172 -67.5t61 -178.5v-49q0 -19 -20 -19h-356q6 -68 53.5 -109t123.5 -41zM295 452q-136 0 -146 -158h282v5q0 70 -35 111.5
t-101 41.5zM349 681v-74q0 -19 -19 -19h-71q-19 0 -19 19v74q0 20 19 20h71q19 0 19 -20z" />
    <glyph glyph-name="Eogonek" unicode="&#x118;" horiz-adv-x="559" 
d="M475 312h-284v-215h299q20 0 20 -19v-57q0 -21 -20 -21h-18q-64 -31 -64 -75q0 -31 51 -31q8 0 14.5 1t11.5 2.5t7 1.5q9 2 12 -6l8 -32q3 -10 -7 -14q-23 -16 -69 -16q-43 0 -70.5 18t-27.5 54q0 26 21.5 53.5t53.5 43.5h-310q-21 0 -21 20v663q0 20 20 20h384
q21 0 21 -20v-57q0 -20 -21 -20h-295v-200h284q19 0 19 -21v-52q0 -21 -19 -21z" />
    <glyph glyph-name="eogonek" unicode="&#x119;" horiz-adv-x="575" 
d="M328 70q74 0 131 31q17 10 25 -11l16 -41q5 -15 -13 -23q-51 -26 -117 -35q-44 -23 -44 -60q0 -30 48 -30q8 0 33 5q10 2 12 -7l7 -29q4 -11 -6 -14q-24 -15 -67 -15q-93 0 -93 68q0 45 50 79q-123 3 -192.5 75t-69.5 197q0 130 66 202t180 72q111 0 172 -67.5t61 -178.5
v-49q0 -19 -20 -19h-356q6 -68 53.5 -109t123.5 -41zM295 452q-136 0 -146 -158h282v5q0 70 -35 111.5t-101 41.5z" />
    <glyph glyph-name="Ecaron" unicode="&#x11a;" horiz-adv-x="559" 
d="M475 312h-284v-215h299q20 0 20 -19v-57q0 -21 -20 -21h-387q-21 0 -21 20v663q0 20 20 20h384q21 0 21 -20v-57q0 -20 -21 -20h-295v-200h284q19 0 19 -21v-52q0 -21 -19 -21zM301 813l65 51q15 12 24 12h43q9 0 11.5 -6.5t-3.5 -12.5l-91 -91q-10 -11 -26 -11h-47
q-15 0 -26 11l-92 91q-6 5 -3.5 12t12.5 7h43q10 0 23 -11z" />
    <glyph glyph-name="ecaron" unicode="&#x11b;" horiz-adv-x="575" 
d="M328 70q74 0 131 31q17 10 25 -11l16 -41q5 -15 -13 -23q-74 -38 -166 -38q-128 0 -200.5 72.5t-72.5 199.5q0 130 66 202t180 72q111 0 172 -67.5t61 -178.5v-49q0 -19 -20 -19h-356q6 -68 53.5 -109t123.5 -41zM295 452q-136 0 -146 -158h282v5q0 70 -35 111.5
t-101 41.5zM295 647l69 54q14 11 24 11h43q9 0 11 -6t-4 -12l-94 -94q-11 -11 -26 -11h-47q-15 0 -26 11l-94 94q-4 3 -4.5 7.5t2.5 7.5t9 3h43q10 0 24 -11z" />
    <glyph glyph-name="Gcircumflex" unicode="&#x11c;" horiz-adv-x="705" 
d="M402 412h212q20 0 20 -20v-319q0 -21 -20 -34q-81 -49 -221 -49q-339 0 -339 362t346 362q118 0 196 -45q19 -10 13 -24l-20 -52q-9 -19 -28 -10q-73 32 -150 32q-128 0 -186.5 -63t-58.5 -200t57.5 -200.5t179.5 -63.5q78 0 128 26v207h-129q-21 0 -21 19v52q0 20 21 20
zM443 766l-66 51l-67 -51q-15 -11 -25 -11h-43q-9 0 -11 6.5t4 12.5l92 91q11 11 26 11h47q13 0 26 -11l91 -91q7 -6 5.5 -12.5t-11.5 -6.5h-43q-10 0 -25 11z" />
    <glyph glyph-name="gcircumflex" unicode="&#x11d;" horiz-adv-x="600" 
d="M423 297q0 78 -35.5 116.5t-100.5 38.5q-134 0 -134 -161q0 -160 134 -160q64 0 100 42.5t36 123.5zM525 503v-422q0 -98 -64 -150.5t-177 -52.5q-120 0 -179 30q-17 9 -12 21l16 47q5 18 23 12q69 -25 146 -25q70 0 109 32.5t39 90.5v51q-20 -41 -63.5 -63t-97.5 -22
q-98 0 -157 59t-59 180q0 122 58 182.5t154 60.5q53 0 99 -23.5t65 -60.5l2 55q2 17 19 17h61q18 0 18 -19zM362 600l-69 54l-70 -54q-14 -11 -24 -11h-43q-9 0 -11 6t4 12l94 94q11 11 26 11h47q15 0 26 -11l94 -94q4 -4 4.5 -8t-2.5 -7t-9 -3h-43q-10 0 -24 11z" />
    <glyph glyph-name="Gbreve" unicode="&#x11e;" horiz-adv-x="705" 
d="M402 412h212q20 0 20 -20v-319q0 -21 -20 -34q-81 -49 -221 -49q-339 0 -339 362t346 362q118 0 196 -45q19 -10 13 -24l-20 -52q-9 -19 -28 -10q-73 32 -150 32q-128 0 -186.5 -63t-58.5 -200t57.5 -200.5t179.5 -63.5q78 0 128 26v207h-129q-21 0 -21 19v52q0 20 21 20
zM380 754q-71 0 -107.5 32t-37.5 80q0 15 15 15h32q13 0 18 -14q7 -26 24.5 -39.5t55.5 -13.5q39 0 56 13.5t24 39.5q3 14 17 14h32q15 0 15 -15q-1 -48 -37 -80t-107 -32z" />
    <glyph glyph-name="gbreve" unicode="&#x11f;" horiz-adv-x="600" 
d="M423 297q0 78 -35.5 116.5t-100.5 38.5q-134 0 -134 -161q0 -160 134 -160q64 0 100 42.5t36 123.5zM525 503v-422q0 -98 -64 -150.5t-177 -52.5q-120 0 -179 30q-17 9 -12 21l16 47q5 18 23 12q69 -25 146 -25q70 0 109 32.5t39 90.5v51q-20 -41 -63.5 -63t-97.5 -22
q-98 0 -157 59t-59 180q0 122 58 182.5t154 60.5q53 0 99 -23.5t65 -60.5l2 55q2 17 19 17h61q18 0 18 -19zM293 585q-73 0 -108.5 33.5t-36.5 82.5q0 15 15 15h32q13 0 16 -14q7 -28 24.5 -42.5t57.5 -14.5t56.5 14.5t23.5 42.5q4 14 17 14h32q14 0 14 -15q0 -49 -35 -82.5
t-108 -33.5z" />
    <glyph glyph-name="Gdotaccent" unicode="&#x120;" horiz-adv-x="705" 
d="M402 412h212q20 0 20 -20v-319q0 -21 -20 -34q-81 -49 -221 -49q-339 0 -339 362t346 362q118 0 196 -45q19 -10 13 -24l-20 -52q-9 -19 -28 -10q-73 32 -150 32q-128 0 -186.5 -63t-58.5 -200t57.5 -200.5t179.5 -63.5q78 0 128 26v207h-129q-21 0 -21 19v52q0 20 21 20
zM446 849v-75q0 -20 -19 -20h-71q-19 0 -19 20v75q0 19 19 19h71q19 0 19 -19z" />
    <glyph glyph-name="gdotaccent" unicode="&#x121;" horiz-adv-x="600" 
d="M423 297q0 78 -35.5 116.5t-100.5 38.5q-134 0 -134 -161q0 -160 134 -160q64 0 100 42.5t36 123.5zM525 503v-422q0 -98 -64 -150.5t-177 -52.5q-120 0 -179 30q-17 9 -12 21l16 47q5 18 23 12q69 -25 146 -25q70 0 109 32.5t39 90.5v51q-20 -41 -63.5 -63t-97.5 -22
q-98 0 -157 59t-59 180q0 122 58 182.5t154 60.5q53 0 99 -23.5t65 -60.5l2 55q2 17 19 17h61q18 0 18 -19zM354 681v-74q0 -19 -19 -19h-71q-19 0 -19 19v74q0 20 19 20h71q19 0 19 -20z" />
    <glyph glyph-name="Gcommaaccent" unicode="&#x122;" horiz-adv-x="705" 
d="M402 412h212q20 0 20 -20v-319q0 -21 -20 -34q-81 -49 -221 -49q-339 0 -339 362t346 362q118 0 196 -45q19 -10 13 -24l-20 -52q-9 -19 -28 -10q-73 32 -150 32q-128 0 -186.5 -63t-58.5 -200t57.5 -200.5t179.5 -63.5q78 0 128 26v207h-129q-21 0 -21 19v52q0 20 21 20
zM462 -156l-41 -90q-6 -13 -17 -13h-15q-15 0 -10 15l23 87h-27q-18 0 -18 18v73q0 18 18 18h73q19 0 19 -18v-67q0 -12 -5 -23z" />
    <glyph glyph-name="gcommaaccent" unicode="&#x123;" horiz-adv-x="600" 
d="M423 297q0 78 -35.5 116.5t-100.5 38.5q-134 0 -134 -161q0 -160 134 -160q64 0 100 42.5t36 123.5zM525 503v-422q0 -98 -64 -150.5t-177 -52.5q-120 0 -179 30q-17 9 -12 21l16 47q5 18 23 12q69 -25 146 -25q70 0 109 32.5t39 90.5v51q-20 -41 -63.5 -63t-97.5 -22
q-98 0 -157 59t-59 180q0 122 58 182.5t154 60.5q53 0 99 -23.5t65 -60.5l2 55q2 17 19 17h61q18 0 18 -19zM241 691l35 88q8 13 17 13h15q12 0 10 -15l-20 -85h25q18 0 18 -17v-68q0 -17 -18 -17h-69q-18 0 -18 17v62q0 12 5 22z" />
    <glyph glyph-name="Hcircumflex" unicode="&#x124;" horiz-adv-x="707" 
d="M515 20v289h-323v-289q0 -20 -20 -20h-69q-21 0 -21 20v663q0 20 21 20h69q20 0 20 -20v-274h323v274q0 20 21 20h69q20 0 20 -20v-663q0 -20 -20 -20h-69q-21 0 -21 20zM411 766l-66 51l-67 -51q-15 -11 -25 -11h-43q-9 0 -11 6.5t4 12.5l92 91q11 11 26 11h47
q13 0 26 -11l91 -91q7 -6 5.5 -12.5t-11.5 -6.5h-43q-10 0 -25 11z" />
    <glyph glyph-name="hcircumflex" unicode="&#x125;" horiz-adv-x="609" 
d="M539 343v-324q0 -19 -18 -19h-66q-19 0 -19 19v306q0 58 -27 87.5t-88 29.5q-66 0 -103 -38.5t-37 -98.5v-287q0 -18 -19 -18h-66q-19 0 -19 19v666q0 18 19 18h66q19 0 19 -18v-239q18 36 61.5 62t111.5 26q92 0 138.5 -50.5t46.5 -140.5zM366 766l-66 51l-67 -51
q-15 -11 -25 -11h-43q-9 0 -11 6.5t4 12.5l92 91q11 11 26 11h47q13 0 26 -11l91 -91q7 -6 5.5 -12.5t-11.5 -6.5h-43q-10 0 -25 11z" />
    <glyph glyph-name="Hbar" unicode="&#x126;" horiz-adv-x="692" 
d="M515 20v289h-323v-289q0 -20 -20 -20h-69q-21 0 -21 20v517h-47q-17 0 -17 17v23q0 16 17 16h47v90q0 20 21 20h69q20 0 20 -20v-90h323v90q0 20 21 20h69q20 0 20 -20v-90h48q16 0 16 -16v-23q0 -17 -16 -17h-48v-517q0 -20 -20 -20h-69q-21 0 -21 20zM192 409h323v128
h-323v-128z" />
    <glyph glyph-name="hbar" unicode="&#x127;" horiz-adv-x="613" 
d="M542 346v-328q0 -18 -18 -18h-61q-17 0 -17 18v309q0 116 -121 116q-69 0 -108.5 -38.5t-39.5 -99.5v-287q0 -18 -18 -18h-60q-19 0 -19 18v570h-49q-16 0 -16 16v24q0 17 16 17h49v41q0 17 19 17h60q18 0 18 -17v-41h153q16 0 16 -17v-24q0 -16 -16 -16h-153v-141
q18 35 62 61t115 26q91 0 139.5 -50t48.5 -138z" />
    <glyph glyph-name="Itilde" unicode="&#x128;" horiz-adv-x="287" 
d="M89 20v663q0 20 19 20h70q21 0 21 -20v-663q0 -20 -21 -20h-70q-19 0 -19 20zM313 827q0 -34 -18.5 -55.5t-56.5 -21.5q-37 0 -88 19l-29 10q-80 25 -83 -2l-1 -9q-3 -15 -20 -15h-27q-17 0 -17 24q0 34 18.5 55.5t56.5 21.5q39 0 88 -19l32 -12q36 -14 56 -14t23 20
l1 10q3 14 21 14h26q18 0 18 -26z" />
    <glyph glyph-name="itilde" unicode="&#x129;" horiz-adv-x="255" 
d="M179 503v-484q0 -19 -19 -19h-65q-19 0 -19 19v484q0 19 19 19h65q19 0 19 -19zM287 661q0 -73 -68 -73q-36 0 -86 18l-28 10q-66 25 -72 -3l-2 -9q-3 -14 -20 -14h-26q-17 0 -17 23q0 73 68 73q34 0 86 -19l29 -10q39 -13 51 -13q20 0 21 20l1 7q2 15 20 15h27
q16 0 16 -25z" />
    <glyph glyph-name="Imacron" unicode="&#x12a;" horiz-adv-x="287" 
d="M89 20v663q0 20 19 20h70q21 0 21 -20v-663q0 -20 -21 -20h-70q-19 0 -19 20zM288 767h-292q-18 0 -18 18v34q0 18 18 18h292q19 0 19 -18v-34q0 -18 -19 -18z" />
    <glyph glyph-name="imacron" unicode="&#x12b;" horiz-adv-x="255" 
d="M179 503v-484q0 -19 -19 -19h-65q-19 0 -19 19v484q0 19 19 19h65q19 0 19 -19zM273 594h-291q-18 0 -18 18v30q0 18 18 18h291q18 0 18 -18v-30q0 -18 -18 -18z" />
    <glyph glyph-name="Ibreve" unicode="&#x12c;" horiz-adv-x="287" 
d="M89 20v663q0 20 19 20h70q21 0 21 -20v-663q0 -20 -21 -20h-70q-19 0 -19 20zM143 754q-71 0 -107.5 32t-37.5 80q0 15 15 15h32q13 0 18 -14q7 -26 24.5 -39.5t55.5 -13.5q39 0 56 13.5t24 39.5q3 14 17 14h32q15 0 15 -15q-1 -48 -37 -80t-107 -32z" />
    <glyph glyph-name="ibreve" unicode="&#x12d;" horiz-adv-x="255" 
d="M179 503v-484q0 -19 -19 -19h-65q-19 0 -19 19v484q0 19 19 19h65q19 0 19 -19zM128 585q-73 0 -108.5 33.5t-36.5 82.5q0 15 15 15h32q13 0 16 -14q7 -28 24.5 -42.5t57.5 -14.5t56.5 14.5t23.5 42.5q4 14 17 14h32q14 0 14 -15q0 -49 -35 -82.5t-108 -33.5z" />
    <glyph glyph-name="Iogonek" unicode="&#x12e;" horiz-adv-x="287" 
d="M89 20v663q0 20 19 20h70q21 0 21 -20v-663q0 -20 -21 -20h-7q-64 -31 -64 -75q0 -31 51 -31q8 0 14.5 1t11.5 2.5t7 1.5q9 2 12 -6l8 -32q3 -10 -7 -14q-23 -16 -69 -16q-43 0 -70.5 18t-27.5 54q0 26 21.5 53.5t53.5 43.5h-4q-19 0 -19 20z" />
    <glyph glyph-name="iogonek" unicode="&#x12f;" horiz-adv-x="254" 
d="M179 503v-484q0 -19 -19 -19h-11q-62 -28 -62 -69q0 -30 48 -30q8 0 33 5q10 2 12 -7l7 -29q4 -11 -6 -14q-24 -15 -67 -15q-93 0 -93 68q0 26 20 51t50 40q-16 1 -16 19v484q0 19 19 19h66q19 0 19 -19zM179 681v-76q0 -20 -19 -20h-67q-18 0 -18 20v76q0 19 18 19h67
q19 0 19 -19z" />
    <glyph glyph-name="Idotaccent" unicode="&#x130;" horiz-adv-x="287" 
d="M89 20v663q0 20 19 20h70q21 0 21 -20v-663q0 -20 -21 -20h-70q-19 0 -19 20zM197 849v-75q0 -20 -19 -20h-71q-19 0 -19 20v75q0 19 19 19h71q19 0 19 -19z" />
    <glyph glyph-name="dotlessi" unicode="&#x131;" horiz-adv-x="255" 
d="M179 503v-484q0 -19 -19 -19h-65q-19 0 -19 19v484q0 19 19 19h65q19 0 19 -19z" />
    <glyph glyph-name="IJ" unicode="&#x132;" horiz-adv-x="756" 
d="M89 20v663q0 20 19 20h70q21 0 21 -20v-663q0 -20 -21 -20h-70q-19 0 -19 20zM567 229v454q0 20 20 20h70q19 0 19 -20v-463q0 -232 -216 -232q-93 0 -156 36q-19 12 -13 28l20 54q8 20 24 11q56 -29 113 -29q119 0 119 141z" />
    <glyph glyph-name="ij" unicode="&#x133;" horiz-adv-x="519" 
d="M179 503v-484q0 -19 -19 -19h-66q-19 0 -19 19v484q0 19 19 19h66q19 0 19 -19zM179 681v-76q0 -20 -19 -20h-67q-18 0 -18 20v76q0 19 18 19h67q19 0 19 -19zM340 145v358q0 19 19 19h66q19 0 19 -19v-368q0 -75 -30 -109t-97 -34q-40 0 -69 8q-16 3 -16 19v49
q0 18 18 15q38 -5 42 -5q48 0 48 67zM444 681v-76q0 -20 -19 -20h-66q-20 0 -20 20v76q0 19 20 19h66q19 0 19 -19z" />
    <glyph glyph-name="Jcircumflex" unicode="&#x134;" horiz-adv-x="485" 
d="M299 229v454q0 20 20 20h70q19 0 19 -20v-463q0 -232 -216 -232q-93 0 -156 36q-19 12 -13 28l20 54q8 20 24 11q56 -29 113 -29q119 0 119 141zM294 766l-66 51l-67 -51q-15 -11 -25 -11h-43q-9 0 -11 6.5t4 12.5l92 91q11 11 26 11h47q13 0 26 -11l91 -91
q7 -6 5.5 -12.5t-11.5 -6.5h-43q-10 0 -25 11z" />
    <glyph glyph-name="jcircumflex" unicode="&#x135;" horiz-adv-x="269" 
d="M89 37v466q0 19 18 19h66q19 0 19 -19v-476q0 -75 -30 -108.5t-97 -33.5q-43 0 -68 7q-16 4 -16 20v49q0 17 18 15q32 -4 42 -4q48 0 48 65zM208 600l-69 54l-70 -54q-14 -11 -24 -11h-43q-9 0 -11 6t4 12l94 94q11 11 26 11h47q15 0 26 -11l94 -94q4 -4 4.5 -8t-2.5 -7
t-9 -3h-43q-10 0 -24 11z" />
    <glyph glyph-name="Kcommaaccent" unicode="&#x136;" horiz-adv-x="625" 
d="M192 427l269 260q18 16 31 16h85q12 0 15.5 -8.5t-4.5 -16.5l-310 -300l316 -352q8 -8 5 -17t-15 -9h-87q-13 0 -31 18l-274 302v-300q0 -20 -20 -20h-69q-21 0 -21 20v663q0 20 21 20h69q20 0 20 -20v-256zM388 -156l-41 -90q-6 -13 -17 -13h-15q-15 0 -10 15l23 87h-27
q-18 0 -18 18v73q0 18 18 18h73q19 0 19 -18v-67q0 -12 -5 -23z" />
    <glyph glyph-name="kcommaaccent" unicode="&#x137;" horiz-adv-x="521" 
d="M494 0h-85q-16 0 -28 14l-200 214v-209q0 -19 -19 -19h-66q-19 0 -19 19v666q0 18 19 18h66q19 0 19 -18v-339l193 165q11 11 27 11h84q11 0 14 -8t-6 -16l-243 -207l254 -268q7 -7 3.5 -15t-13.5 -8zM336 -149l-35 -88q-8 -13 -17 -13h-15q-12 0 -10 15l20 85h-25
q-18 0 -18 17v68q0 17 18 17h69q18 0 18 -17v-62q0 -12 -5 -22z" />
    <glyph glyph-name="kgreenlandic" unicode="&#x138;" horiz-adv-x="517" 
d="M491 0h-86q-16 0 -28 14l-200 214v-210q0 -18 -18 -18h-67q-19 0 -19 19v484q0 19 19 19h66q19 0 19 -19v-157l194 165q13 11 26 11h84q11 0 13.5 -8t-6.5 -16l-243 -207l254 -268q7 -7 4 -15t-12 -8z" />
    <glyph glyph-name="Lacute" unicode="&#x139;" horiz-adv-x="542" 
d="M201 683v-583h288q21 0 21 -18v-62q0 -20 -21 -20h-377q-21 0 -21 20v663q0 20 21 20h69q20 0 20 -20zM120 772l51 87q9 15 25 15h85q10 0 12 -8t-5 -14l-91 -85q-9 -12 -27 -12h-38q-9 0 -12 5.5t0 11.5z" />
    <glyph glyph-name="lacute" unicode="&#x13a;" horiz-adv-x="253" 
d="M178 685v-666q0 -19 -18 -19h-67q-18 0 -18 19v666q0 18 18 18h67q18 0 18 -18zM91 772l51 87q9 15 25 15h85q10 0 12 -8t-5 -14l-91 -85q-9 -12 -27 -12h-38q-9 0 -12 5.5t0 11.5z" />
    <glyph glyph-name="Lcommaaccent" unicode="&#x13b;" horiz-adv-x="542" 
d="M192 683v-583h288q21 0 21 -18v-62q0 -20 -21 -20h-377q-21 0 -21 20v663q0 20 21 20h69q20 0 20 -20zM326 -156l-41 -90q-6 -13 -17 -13h-15q-15 0 -10 15l23 87h-27q-18 0 -18 18v73q0 18 18 18h73q19 0 19 -18v-67q0 -12 -5 -23z" />
    <glyph glyph-name="lcommaaccent" unicode="&#x13c;" horiz-adv-x="253" 
d="M180 685v-666q0 -19 -18 -19h-67q-18 0 -18 19v666q0 18 18 18h67q18 0 18 -18zM174 -149l-35 -88q-8 -13 -17 -13h-15q-12 0 -10 15l20 85h-25q-18 0 -18 17v68q0 17 18 17h69q18 0 18 -17v-62q0 -12 -5 -22z" />
    <glyph glyph-name="Lcaron" unicode="&#x13d;" horiz-adv-x="542" 
d="M192 683v-583h288q21 0 21 -18v-62q0 -20 -21 -20h-377q-21 0 -21 20v663q0 20 21 20h69q20 0 20 -20zM419 588l-45 -101q-5 -13 -17 -13h-25q-6 0 -8.5 5.5t-0.5 11.5l30 98h-27q-19 0 -19 19v81q0 19 20 19h77q20 0 20 -19v-76q0 -14 -5 -25z" />
    <glyph glyph-name="lcaron" unicode="&#x13e;" horiz-adv-x="365" 
d="M180 685v-666q0 -19 -18 -19h-67q-18 0 -18 19v666q0 18 18 18h67q18 0 18 -18zM362 587l-45 -101q-5 -13 -17 -13h-25q-6 0 -8.5 5.5t-0.5 11.5l30 98h-27q-19 0 -19 19v81q0 19 20 19h77q20 0 20 -19v-76q0 -14 -5 -25z" />
    <glyph glyph-name="Ldot" unicode="&#x13f;" horiz-adv-x="550" 
d="M192 683v-583h288q21 0 21 -18v-62q0 -20 -21 -20h-377q-21 0 -21 20v663q0 20 21 20h69q20 0 20 -20zM366 295v85q0 19 20 19h75q20 0 20 -19v-85q0 -19 -19 -19h-77q-19 0 -19 19z" />
    <glyph glyph-name="ldot" unicode="&#x140;" horiz-adv-x="347" 
d="M177 685v-666q0 -19 -18 -19h-67q-18 0 -18 19v666q0 18 18 18h67q18 0 18 -18zM243 228v85q0 19 20 19h75q20 0 20 -19v-85q0 -19 -19 -19h-77q-19 0 -19 19z" />
    <glyph glyph-name="Lslash" unicode="&#x141;" horiz-adv-x="544" 
d="M194 683v-285l120 71q16 9 24 -6l12 -21q8 -15 -6 -23l-150 -87v-232h288q21 0 21 -19v-61q0 -20 -21 -20h-377q-21 0 -21 20v247l-18 -10q-15 -7 -23 7l-12 20q-9 14 6 23l47 28v348q0 20 21 20h69q20 0 20 -20z" />
    <glyph glyph-name="lslash" unicode="&#x142;" horiz-adv-x="257" 
d="M180 685v-262l9 5q15 9 24 -6l12 -21q8 -14 -7 -23l-38 -23v-336q0 -19 -18 -19h-67q-18 0 -18 19v276l-9 -5q-14 -8 -24 7l-12 21q-7 13 7 22l38 23v322q0 18 18 18h67q18 0 18 -18z" />
    <glyph glyph-name="Nacute" unicode="&#x143;" horiz-adv-x="710" 
d="M627 684v-664q0 -20 -20 -20h-70q-17 0 -27 15l-321 505v-500q0 -20 -19 -20h-67q-21 0 -21 20v663q0 20 21 20h69q19 0 28 -14l320 -506v500q0 20 20 20h67q20 0 20 -19zM314 772l51 87q9 15 25 15h85q10 0 12 -8t-5 -14l-91 -85q-9 -12 -27 -12h-38q-9 0 -12 5.5
t0 11.5z" />
    <glyph glyph-name="nacute" unicode="&#x144;" horiz-adv-x="601" 
d="M532 343v-324q0 -19 -20 -19h-65q-19 0 -19 19v307q0 58 -27 87t-87 29q-64 0 -101 -37t-37 -99v-287q0 -19 -19 -19h-66q-18 0 -18 19v484q0 19 18 19h62q19 0 19 -17l3 -60q49 89 173 89q92 0 138 -50.5t46 -140.5zM237 606l51 87q7 14 24 14h85q10 0 12 -7.5t-5 -13.5
l-91 -86q-11 -11 -26 -11h-39q-9 0 -12 5.5t1 11.5z" />
    <glyph glyph-name="Ncommaaccent" unicode="&#x145;" horiz-adv-x="710" 
d="M627 684v-664q0 -20 -20 -20h-70q-17 0 -27 15l-321 505v-500q0 -20 -19 -20h-67q-21 0 -21 20v663q0 20 21 20h69q19 0 28 -14l320 -506v500q0 20 20 20h67q20 0 20 -19zM397 -156l-41 -90q-6 -13 -17 -13h-15q-15 0 -10 15l23 87h-27q-18 0 -18 18v73q0 18 18 18h73
q19 0 19 -18v-67q0 -12 -5 -23z" />
    <glyph glyph-name="ncommaaccent" unicode="&#x146;" horiz-adv-x="601" 
d="M532 343v-324q0 -19 -20 -19h-65q-19 0 -19 19v307q0 58 -27 87t-87 29q-64 0 -101 -37t-37 -99v-287q0 -19 -19 -19h-66q-18 0 -18 19v484q0 19 18 19h62q19 0 19 -17l3 -60q49 89 173 89q92 0 138 -50.5t46 -140.5zM354 -149l-35 -88q-8 -13 -17 -13h-15q-12 0 -10 15
l20 85h-25q-18 0 -18 17v68q0 17 18 17h69q18 0 18 -17v-62q0 -12 -5 -22z" />
    <glyph glyph-name="Ncaron" unicode="&#x147;" horiz-adv-x="710" 
d="M627 684v-664q0 -20 -20 -20h-70q-17 0 -27 15l-321 505v-500q0 -20 -19 -20h-67q-21 0 -21 20v663q0 20 21 20h69q19 0 28 -14l320 -506v500q0 20 20 20h67q20 0 20 -19zM347 813l65 51q15 12 24 12h43q9 0 11.5 -6.5t-3.5 -12.5l-91 -91q-10 -11 -26 -11h-47
q-15 0 -26 11l-92 91q-6 5 -3.5 12t12.5 7h43q10 0 23 -11z" />
    <glyph glyph-name="ncaron" unicode="&#x148;" horiz-adv-x="601" 
d="M532 343v-324q0 -19 -20 -19h-65q-19 0 -19 19v307q0 58 -27 87t-87 29q-64 0 -101 -37t-37 -99v-287q0 -19 -19 -19h-66q-18 0 -18 19v484q0 19 18 19h62q19 0 19 -17l3 -60q49 89 173 89q92 0 138 -50.5t46 -140.5zM294 647l69 54q14 11 24 11h43q9 0 11 -6t-4 -12
l-94 -94q-11 -11 -26 -11h-47q-15 0 -26 11l-94 94q-4 3 -4.5 7.5t2.5 7.5t9 3h43q10 0 24 -11z" />
    <glyph glyph-name="napostrophe" unicode="&#x149;" horiz-adv-x="714" 
d="M645 343v-324q0 -19 -20 -19h-65q-19 0 -19 19v307q0 58 -27 87t-87 29q-64 0 -101 -37t-37 -99v-287q0 -19 -19 -19h-66q-18 0 -18 19v484q0 19 18 19h62q19 0 19 -17l3 -60q49 89 173 89q92 0 138 -50.5t46 -140.5zM115 601l-45 -101q-5 -13 -17 -13h-25q-6 0 -8.5 5.5
t-0.5 11.5l30 98h-27q-19 0 -19 19v81q0 19 20 19h77q20 0 20 -19v-76q0 -14 -5 -25z" />
    <glyph glyph-name="Eng" unicode="&#x14a;" horiz-adv-x="710" 
d="M627 683v-672q0 -62 -33 -94t-93 -32q-37 0 -76 9q-18 4 -15 19l10 49q4 18 20 14q22 -5 38 -5q22 0 32.5 9.5t9.5 30.5l-331 509v-500q0 -20 -19 -20h-67q-21 0 -21 20v663q0 20 21 20h69q19 0 28 -14l320 -504v498q0 20 20 20h67q20 0 20 -20z" />
    <glyph glyph-name="eng" unicode="&#x14b;" horiz-adv-x="601" 
d="M428 37v288q0 58 -27 87.5t-87 29.5q-64 0 -101 -37t-37 -99v-287q0 -19 -19 -19h-66q-18 0 -18 19v484q0 19 18 19h63q17 0 19 -17l2 -60q49 89 173 89q92 0 138 -50.5t46 -140.5v-316q0 -72 -30.5 -107t-96.5 -35q-34 0 -68 9q-15 3 -15 19v48q0 18 19 15q20 -4 42 -4
q45 0 45 65z" />
    <glyph glyph-name="Omacron" unicode="&#x14c;" horiz-adv-x="717" 
d="M358 714q148 0 227.5 -93t79.5 -269q0 -177 -79.5 -269.5t-227.5 -92.5q-147 0 -226.5 92.5t-79.5 269.5q0 176 79.5 269t226.5 93zM358 87q195 0 195 265t-195 265q-194 0 -194 -265t194 -265zM504 767h-292q-18 0 -18 18v34q0 18 18 18h292q19 0 19 -18v-34
q0 -18 -19 -18z" />
    <glyph glyph-name="omacron" unicode="&#x14d;" horiz-adv-x="602" 
d="M301 -10q117 0 185 70.5t68 201.5t-68 201.5t-185 70.5t-185 -70.5t-68 -201.5t67.5 -201.5t185.5 -70.5zM301 76q-71 0 -109 46.5t-38 139.5t38 139.5t109 46.5q70 0 108.5 -46.5t38.5 -139.5t-38.5 -139.5t-108.5 -46.5zM446 594h-291q-18 0 -18 18v30q0 18 18 18h291
q18 0 18 -18v-30q0 -18 -18 -18z" />
    <glyph glyph-name="Obreve" unicode="&#x14e;" horiz-adv-x="717" 
d="M358 714q148 0 227.5 -93t79.5 -269q0 -177 -79.5 -269.5t-227.5 -92.5q-147 0 -226.5 92.5t-79.5 269.5q0 176 79.5 269t226.5 93zM358 87q195 0 195 265t-195 265q-194 0 -194 -265t194 -265zM359 754q-71 0 -107.5 32t-37.5 80q0 15 15 15h32q13 0 18 -14
q7 -26 24.5 -39.5t55.5 -13.5q39 0 56 13.5t24 39.5q3 14 17 14h32q15 0 15 -15q-1 -48 -37 -80t-107 -32z" />
    <glyph glyph-name="obreve" unicode="&#x14f;" horiz-adv-x="602" 
d="M301 -10q-118 0 -185.5 70.5t-67.5 201.5t68 201.5t185 70.5t185 -70.5t68 -201.5t-68 -201.5t-185 -70.5zM301 76q70 0 108.5 46.5t38.5 139.5t-38.5 139.5t-108.5 46.5q-71 0 -109 -46.5t-38 -139.5t38 -139.5t109 -46.5zM301 585q-73 0 -108.5 33.5t-36.5 82.5
q0 15 15 15h32q13 0 16 -14q7 -28 24.5 -42.5t57.5 -14.5t56.5 14.5t23.5 42.5q4 14 17 14h32q14 0 14 -15q0 -49 -35 -82.5t-108 -33.5z" />
    <glyph glyph-name="Ohungarumlaut" unicode="&#x150;" horiz-adv-x="717" 
d="M358 714q148 0 227.5 -93t79.5 -269q0 -177 -79.5 -269.5t-227.5 -92.5q-147 0 -226.5 92.5t-79.5 269.5q0 176 79.5 269t226.5 93zM358 87q195 0 195 265t-195 265q-194 0 -194 -265t194 -265zM236 773l45 90q7 15 24 15h73q9 0 11.5 -8.5t-3.5 -14.5l-74 -87
q-9 -12 -27 -12h-39q-8 0 -10.5 5.5t0.5 11.5zM410 773l45 90q7 15 25 15h72q9 0 12 -8t-3 -15l-73 -87q-11 -12 -29 -12h-37q-9 0 -12 5.5t0 11.5z" />
    <glyph glyph-name="ohungarumlaut" unicode="&#x151;" horiz-adv-x="602" 
d="M301 -10q117 0 185 70.5t68 201.5t-68 201.5t-185 70.5t-185 -70.5t-68 -201.5t67.5 -201.5t185.5 -70.5zM301 76q-71 0 -109 46.5t-38 139.5t38 139.5t109 46.5q70 0 108.5 -46.5t38.5 -139.5t-38.5 -139.5t-108.5 -46.5zM177 606l46 87q8 14 23 14h69q9 0 11.5 -7
t-2.5 -14l-74 -86q-10 -11 -26 -11h-35q-9 0 -12 5.5t0 11.5zM348 606l45 87q7 14 23 14h69q9 0 12 -7.5t-3 -13.5l-73 -86q-9 -11 -27 -11h-35q-8 0 -11 5.5t0 11.5z" />
    <glyph glyph-name="OE" unicode="&#x152;" horiz-adv-x="931" 
d="M847 312h-259v-214h274q20 0 20 -19v-59q0 -20 -20 -20h-435q-174 0 -257.5 80.5t-83.5 271.5t84 271t258 80h430q21 0 21 -20v-58q0 -20 -21 -20h-270v-199h259q19 0 19 -21v-52q0 -21 -19 -21zM482 603h-52q-121 0 -176.5 -53.5t-55.5 -197.5t55.5 -198t175.5 -54h53
v503z" />
    <glyph glyph-name="oe" unicode="&#x153;" horiz-adv-x="944" 
d="M701 70q68 0 127 31q19 9 26 -11l16 -43q5 -12 -10 -21q-74 -38 -166 -38q-69 0 -123.5 28.5t-82.5 78.5q-26 -49 -77.5 -77t-117.5 -28q-112 0 -178.5 71t-66.5 201t66 201t177 71q67 0 117.5 -26.5t77.5 -75.5q53 102 185 102q103 0 163.5 -67t60.5 -171v-50
q0 -18 -20 -18h-342q5 -71 51.5 -114.5t116.5 -43.5zM294 76q66 0 103 47t37 139q0 91 -37 138.5t-103 47.5t-103 -47.5t-37 -138.5q0 -92 37 -139t103 -47zM670 452q-60 0 -97 -39t-41 -112h266v6q0 64 -33.5 104.5t-94.5 40.5z" />
    <glyph glyph-name="Racute" unicode="&#x154;" horiz-adv-x="657" 
d="M192 340h120q98 0 139.5 31.5t41.5 100.5q0 72 -42 103t-137 31h-122v-266zM103 703h213q146 0 216.5 -56t70.5 -175q0 -184 -189 -214l189 -232q7 -8 3.5 -17t-15.5 -9h-76q-17 0 -30 16l-184 228h-109v-224q0 -20 -21 -20h-68q-21 0 -21 20v663q0 20 21 20zM283 772
l51 87q9 15 25 15h85q10 0 12 -8t-5 -14l-91 -85q-9 -12 -27 -12h-38q-9 0 -12 5.5t0 11.5z" />
    <glyph glyph-name="racute" unicode="&#x155;" horiz-adv-x="387" 
d="M93 522h62q20 0 20 -18l2 -89q17 41 60 75.5t104 34.5q16 0 16 -16v-76q0 -15 -16 -15q-3 0 -11 1t-16 1q-58 0 -97.5 -51.5t-39.5 -119.5v-230q0 -19 -19 -19h-65q-20 0 -20 19v484q0 19 20 19zM140 606l51 87q7 14 24 14h85q10 0 12 -7.5t-5 -13.5l-91 -86
q-11 -11 -26 -11h-39q-9 0 -12 5.5t1 11.5z" />
    <glyph glyph-name="Rcommaaccent" unicode="&#x156;" horiz-adv-x="657" 
d="M192 340h120q98 0 139.5 31.5t41.5 100.5q0 72 -42 103t-137 31h-122v-266zM103 703h213q146 0 216.5 -56t70.5 -175q0 -184 -189 -214l189 -232q7 -8 3.5 -17t-15.5 -9h-76q-17 0 -30 16l-184 228h-109v-224q0 -20 -21 -20h-68q-21 0 -21 20v663q0 20 21 20zM380 -156
l-41 -90q-6 -13 -17 -13h-15q-15 0 -10 15l23 87h-27q-18 0 -18 18v73q0 18 18 18h73q19 0 19 -18v-67q0 -12 -5 -23z" />
    <glyph glyph-name="rcommaaccent" unicode="&#x157;" horiz-adv-x="387" 
d="M93 522h62q20 0 20 -18l2 -89q17 41 60 75.5t104 34.5q16 0 16 -16v-76q0 -15 -16 -15q-3 0 -11 1t-16 1q-58 0 -97.5 -51.5t-39.5 -119.5v-230q0 -19 -19 -19h-65q-20 0 -20 19v484q0 19 20 19zM174 -149l-35 -88q-8 -13 -17 -13h-15q-12 0 -10 15l20 85h-25
q-18 0 -18 17v68q0 17 18 17h69q18 0 18 -17v-62q0 -12 -5 -22z" />
    <glyph glyph-name="Rcaron" unicode="&#x158;" horiz-adv-x="657" 
d="M192 340h120q98 0 139.5 31.5t41.5 100.5q0 72 -42 103t-137 31h-122v-266zM103 703h213q146 0 216.5 -56t70.5 -175q0 -184 -189 -214l189 -232q7 -8 3.5 -17t-15.5 -9h-76q-17 0 -30 16l-184 228h-109v-224q0 -20 -21 -20h-68q-21 0 -21 20v663q0 20 21 20zM327 813
l65 51q15 12 24 12h43q9 0 11.5 -6.5t-3.5 -12.5l-91 -91q-10 -11 -26 -11h-47q-15 0 -26 11l-92 91q-6 5 -3.5 12t12.5 7h43q10 0 23 -11z" />
    <glyph glyph-name="rcaron" unicode="&#x159;" horiz-adv-x="387" 
d="M93 522h62q20 0 20 -18l2 -89q17 41 60 75.5t104 34.5q16 0 16 -16v-76q0 -15 -16 -15q-3 0 -11 1t-16 1q-58 0 -97.5 -51.5t-39.5 -119.5v-230q0 -19 -19 -19h-65q-20 0 -20 19v484q0 19 20 19zM209 647l69 54q14 11 24 11h43q9 0 11 -6t-4 -12l-94 -94q-11 -11 -26 -11
h-47q-15 0 -26 11l-94 94q-4 3 -4.5 7.5t2.5 7.5t9 3h43q10 0 24 -11z" />
    <glyph glyph-name="Sacute" unicode="&#x15a;" horiz-adv-x="570" 
d="M528 184q0 -95 -71 -144t-193 -49q-132 0 -206 36q-19 9 -14 23l20 54q7 20 24 12q72 -29 166 -29q76 0 120 25.5t44 73.5q0 25 -11 44t-37.5 35.5t-46 25t-62.5 25.5l-62.5 25.5t-53.5 28.5t-47 39t-28 50.5t-12 68.5q0 90 61.5 138t185.5 48q108 0 181 -32
q18 -8 13 -24l-19 -52q-7 -18 -26 -11q-64 23 -140 23t-111 -22.5t-35 -69.5q0 -30 19 -52t42.5 -33.5t67.5 -29.5q4 -1 6 -2t5.5 -2.5t6.5 -2.5q105 -44 142 -73q71 -55 71 -147zM241 772l51 87q9 15 25 15h85q10 0 12 -8t-5 -14l-91 -85q-9 -12 -27 -12h-38q-9 0 -12 5.5
t0 11.5z" />
    <glyph glyph-name="sacute" unicode="&#x15b;" horiz-adv-x="468" 
d="M426 138q0 -148 -205 -148q-99 0 -170 28q-17 6 -13 20l14 46q5 18 23 12q62 -24 133 -24q60 0 88 15t28 52q0 32 -28.5 51t-92.5 41q-81 29 -104 45q-57 40 -58 116q0 69 48 105.5t142 36.5q95 0 160 -29q17 -7 12 -21l-14 -43q-5 -17 -22 -12q-60 22 -122 22
q-54 0 -78 -14t-24 -47t27 -50t93 -40q79 -28 121 -63t42 -99zM175 606l51 87q7 14 24 14h85q10 0 12 -7.5t-5 -13.5l-91 -86q-11 -11 -26 -11h-39q-9 0 -12 5.5t1 11.5z" />
    <glyph glyph-name="Scircumflex" unicode="&#x15c;" horiz-adv-x="570" 
d="M528 184q0 -95 -71 -144t-193 -49q-132 0 -206 36q-19 9 -14 23l20 54q7 20 24 12q72 -29 166 -29q76 0 120 25.5t44 73.5q0 25 -11 44t-37.5 35.5t-46 25t-62.5 25.5l-62.5 25.5t-53.5 28.5t-47 39t-28 50.5t-12 68.5q0 90 61.5 138t185.5 48q108 0 181 -32
q18 -8 13 -24l-19 -52q-7 -18 -26 -11q-64 23 -140 23t-111 -22.5t-35 -69.5q0 -30 19 -52t42.5 -33.5t67.5 -29.5q4 -1 6 -2t5.5 -2.5t6.5 -2.5q105 -44 142 -73q71 -55 71 -147zM347 766l-66 51l-67 -51q-15 -11 -25 -11h-43q-9 0 -11 6.5t4 12.5l92 91q11 11 26 11h47
q13 0 26 -11l91 -91q7 -6 5.5 -12.5t-11.5 -6.5h-43q-10 0 -25 11z" />
    <glyph glyph-name="scircumflex" unicode="&#x15d;" horiz-adv-x="468" 
d="M426 138q0 -148 -205 -148q-99 0 -170 28q-17 6 -13 20l14 46q5 18 23 12q62 -24 133 -24q60 0 88 15t28 52q0 32 -28.5 51t-92.5 41q-81 29 -104 45q-57 40 -58 116q0 69 48 105.5t142 36.5q95 0 160 -29q17 -7 12 -21l-14 -43q-5 -17 -22 -12q-60 22 -122 22
q-54 0 -78 -14t-24 -47t27 -50t93 -40q79 -28 121 -63t42 -99zM304 600l-69 54l-70 -54q-14 -11 -24 -11h-43q-9 0 -11 6t4 12l94 94q11 11 26 11h47q15 0 26 -11l94 -94q4 -4 4.5 -8t-2.5 -7t-9 -3h-43q-10 0 -24 11z" />
    <glyph glyph-name="Scedilla" unicode="&#x15e;" horiz-adv-x="570" 
d="M528 184q0 -85 -58 -133.5t-159 -57.5q64 -32 64 -85q0 -38 -28 -58t-80 -20q-31 0 -42 5q-12 5 -12 14v31q0 11 13 11h29q51 0 51 33q0 37 -52 67q-129 2 -196 36q-19 9 -14 23l20 54q7 20 24 12q72 -29 166 -29q76 0 120 25.5t44 73.5q0 25 -11 44t-37.5 35.5t-46 25
t-62.5 25.5l-62.5 25.5t-53.5 28.5t-47 39t-28 50.5t-12 68.5q0 90 61.5 138t185.5 48q108 0 181 -32q18 -8 13 -24l-19 -52q-7 -18 -26 -11q-64 23 -140 23t-111 -22.5t-35 -69.5q0 -30 19 -52t42.5 -33.5t67.5 -29.5q4 -1 6 -2t5.5 -2.5t6.5 -2.5q105 -44 142 -73
q71 -55 71 -147z" />
    <glyph glyph-name="scedilla" unicode="&#x15f;" horiz-adv-x="468" 
d="M426 138q0 -135 -172 -147q58 -30 58 -76q0 -73 -104 -73q-32 0 -42 4q-12 3 -12 14v29q0 11 12 11h29q51 0 51 30q0 35 -48 61q-86 3 -147 27q-17 6 -13 20l14 46q5 18 23 12q62 -24 133 -24q60 0 88 15t28 52q0 32 -28.5 51t-92.5 41q-81 29 -104 45q-57 40 -58 116
q0 69 48 105.5t142 36.5q95 0 160 -29q17 -7 12 -21l-14 -43q-5 -17 -22 -12q-60 22 -122 22q-54 0 -78 -14t-24 -47t27 -50t93 -40q79 -28 121 -63t42 -99z" />
    <glyph glyph-name="Scaron" unicode="&#x160;" horiz-adv-x="570" 
d="M528 184q0 -95 -71 -144t-193 -49q-132 0 -206 36q-19 9 -14 23l20 54q7 20 24 12q72 -29 166 -29q76 0 120 25.5t44 73.5q0 25 -11 44t-37.5 35.5t-46 25t-62.5 25.5l-62.5 25.5t-53.5 28.5t-47 39t-28 50.5t-12 68.5q0 90 61.5 138t185.5 48q108 0 181 -32
q18 -8 13 -24l-19 -52q-7 -18 -26 -11q-64 23 -140 23t-111 -22.5t-35 -69.5q0 -30 19 -52t42.5 -33.5t67.5 -29.5q4 -1 6 -2t5.5 -2.5t6.5 -2.5q105 -44 142 -73q71 -55 71 -147zM281 813l65 51q15 12 24 12h43q9 0 11.5 -6.5t-3.5 -12.5l-91 -91q-10 -11 -26 -11h-47
q-15 0 -26 11l-92 91q-6 5 -3.5 12t12.5 7h43q10 0 23 -11z" />
    <glyph glyph-name="scaron" unicode="&#x161;" horiz-adv-x="468" 
d="M426 138q0 -148 -205 -148q-99 0 -170 28q-17 6 -13 20l14 46q5 18 23 12q62 -24 133 -24q60 0 88 15t28 52q0 32 -28.5 51t-92.5 41q-81 29 -104 45q-57 40 -58 116q0 69 48 105.5t142 36.5q95 0 160 -29q17 -7 12 -21l-14 -43q-5 -17 -22 -12q-60 22 -122 22
q-54 0 -78 -14t-24 -47t27 -50t93 -40q79 -28 121 -63t42 -99zM235 647l69 54q14 11 24 11h43q9 0 11 -6t-4 -12l-94 -94q-11 -11 -26 -11h-47q-15 0 -26 11l-94 94q-4 3 -4.5 7.5t2.5 7.5t9 3h43q10 0 24 -11z" />
    <glyph glyph-name="Tcommaaccent" unicode="&#x162;" horiz-adv-x="557" 
d="M29 623v60q0 20 20 20h458q21 0 21 -20v-60q0 -20 -21 -20h-173v-583q0 -20 -21 -20h-69q-20 0 -20 20v583h-174q-21 0 -21 20zM326 -156l-41 -90q-6 -13 -17 -13h-15q-15 0 -10 15l23 87h-27q-18 0 -18 18v73q0 18 18 18h73q19 0 19 -18v-67q0 -12 -5 -23z" />
    <glyph glyph-name="tcommaaccent" unicode="&#x163;" horiz-adv-x="368" 
d="M320 432h-122v-265q0 -50 16 -68.5t62 -18.5q2 0 44 6q14 2 17 -16l8 -47q2 -12 -14 -18q-32 -12 -79 -12q-84 0 -119.5 37.5t-35.5 125.5v276h-64q-20 0 -20 19v47q0 20 20 20h66v124q0 18 18 18h61q20 0 20 -18v-124h122q20 0 20 -20v-47q0 -19 -20 -19zM252 -149
l-35 -88q-8 -13 -17 -13h-15q-12 0 -10 15l20 85h-25q-18 0 -18 17v68q0 17 18 17h69q18 0 18 -17v-62q0 -12 -5 -22z" />
    <glyph glyph-name="Tcaron" unicode="&#x164;" horiz-adv-x="557" 
d="M29 623v60q0 20 20 20h458q21 0 21 -20v-60q0 -20 -21 -20h-173v-583q0 -20 -21 -20h-69q-20 0 -20 20v583h-174q-21 0 -21 20zM276 813l65 51q15 12 24 12h43q9 0 11.5 -6.5t-3.5 -12.5l-91 -91q-10 -11 -26 -11h-47q-15 0 -26 11l-92 91q-6 5 -3.5 12t12.5 7h43
q10 0 23 -11z" />
    <glyph glyph-name="tcaron" unicode="&#x165;" horiz-adv-x="491" 
d="M318 432h-122v-265q0 -50 16 -68.5t62 -18.5q2 0 44 6q14 2 17 -16l8 -47q2 -12 -14 -18q-32 -12 -79 -12q-84 0 -119.5 37.5t-35.5 125.5v276h-64q-20 0 -20 19v47q0 20 20 20h66v124q0 18 18 18h61q20 0 20 -18v-124h122q20 0 20 -20v-47q0 -19 -20 -19zM488 597
l-45 -101q-5 -13 -17 -13h-25q-6 0 -8.5 5.5t-0.5 11.5l30 98h-27q-19 0 -19 19v81q0 19 20 19h77q20 0 20 -19v-76q0 -14 -5 -25z" />
    <glyph glyph-name="Tbar" unicode="&#x166;" horiz-adv-x="557" 
d="M29 623v60q0 20 21 20h457q21 0 21 -20v-60q0 -20 -21 -20h-173v-232h105q17 0 17 -16v-29q0 -16 -17 -16h-105v-290q0 -20 -21 -20h-69q-20 0 -20 20v290h-105q-17 0 -17 16v29q0 16 17 16h105v232h-174q-21 0 -21 20z" />
    <glyph glyph-name="tbar" unicode="&#x167;" horiz-adv-x="368" 
d="M320 432h-122v-137h112q16 0 16 -16v-25q0 -17 -16 -17h-112v-70q0 -50 16 -68.5t62 -18.5q2 0 44 6q14 2 17 -16l8 -47q2 -12 -14 -18q-32 -12 -79 -12q-84 0 -119.5 37.5t-35.5 126.5v80h-67q-17 0 -17 17v25q0 16 17 16h67v137h-64q-20 0 -20 19v47q0 20 20 20h66v124
q0 18 18 18h61q20 0 20 -18v-124h122q20 0 20 -20v-47q0 -19 -20 -19z" />
    <glyph glyph-name="Utilde" unicode="&#x168;" horiz-adv-x="695" 
d="M347 -12q-135 0 -202.5 68t-67.5 195v432q0 20 20 20h69q21 0 21 -20v-423q0 -172 160 -172q161 0 161 172v423q0 20 20 20h70q19 0 19 -20v-432q0 -127 -67.5 -195t-202.5 -68zM518 827q0 -34 -18.5 -55.5t-56.5 -21.5q-37 0 -88 19l-29 10q-80 25 -83 -2l-1 -9
q-2 -15 -20 -15h-27q-17 0 -17 24q0 34 18.5 55.5t56.5 21.5q39 0 88 -19l32 -12q36 -14 56 -14t23 20l1 10q3 14 21 14h26q18 0 18 -26z" />
    <glyph glyph-name="utilde" unicode="&#x169;" horiz-adv-x="593" 
d="M66 179v324q0 19 19 19h65q19 0 19 -19v-306q0 -117 109 -117q62 0 100 36.5t38 97.5v289q0 19 19 19h66q18 0 18 -19v-484q0 -19 -18 -19h-63q-19 0 -19 17l-2 60q-48 -87 -169 -87q-182 0 -182 189zM456 661q0 -73 -68 -73q-36 0 -86 18l-28 10q-66 25 -72 -3l-2 -9
q-3 -14 -20 -14h-26q-17 0 -17 23q0 73 68 73q34 0 86 -19l29 -10q39 -13 51 -13q20 0 21 20l1 7q3 15 20 15h27q16 0 16 -25z" />
    <glyph glyph-name="Umacron" unicode="&#x16a;" horiz-adv-x="695" 
d="M347 -12q-135 0 -202.5 68t-67.5 195v432q0 20 20 20h69q21 0 21 -20v-423q0 -172 160 -172q161 0 161 172v423q0 20 20 20h70q19 0 19 -20v-432q0 -127 -67.5 -195t-202.5 -68zM493 767h-292q-18 0 -18 18v34q0 18 18 18h292q19 0 19 -18v-34q0 -18 -19 -18z" />
    <glyph glyph-name="umacron" unicode="&#x16b;" horiz-adv-x="593" 
d="M66 179v324q0 19 19 19h65q19 0 19 -19v-306q0 -117 109 -117q62 0 100 36.5t38 97.5v289q0 19 19 19h66q18 0 18 -19v-484q0 -19 -18 -19h-63q-19 0 -19 17l-2 60q-48 -87 -169 -87q-182 0 -182 189zM442 594h-291q-18 0 -18 18v30q0 18 18 18h291q18 0 18 -18v-30
q0 -18 -18 -18z" />
    <glyph glyph-name="Ubreve" unicode="&#x16c;" horiz-adv-x="695" 
d="M347 -12q-135 0 -202.5 68t-67.5 195v432q0 20 20 20h69q21 0 21 -20v-423q0 -172 160 -172q161 0 161 172v423q0 20 20 20h70q19 0 19 -20v-432q0 -127 -67.5 -195t-202.5 -68zM348 754q-71 0 -107.5 32t-37.5 80q0 15 15 15h32q13 0 18 -14q7 -26 24.5 -39.5
t55.5 -13.5q39 0 56 13.5t24 39.5q3 14 17 14h32q15 0 15 -15q-1 -48 -37 -80t-107 -32z" />
    <glyph glyph-name="ubreve" unicode="&#x16d;" horiz-adv-x="593" 
d="M66 179v324q0 19 19 19h65q19 0 19 -19v-306q0 -117 109 -117q62 0 100 36.5t38 97.5v289q0 19 19 19h66q18 0 18 -19v-484q0 -19 -18 -19h-63q-19 0 -19 17l-2 60q-48 -87 -169 -87q-182 0 -182 189zM297 585q-73 0 -108.5 33.5t-36.5 82.5q0 15 15 15h32q13 0 16 -14
q7 -28 24.5 -42.5t57.5 -14.5t56.5 14.5t23.5 42.5q4 14 17 14h32q14 0 14 -15q0 -49 -35 -82.5t-108 -33.5z" />
    <glyph glyph-name="Uring" unicode="&#x16e;" horiz-adv-x="695" 
d="M347 -12q-135 0 -202.5 68t-67.5 195v432q0 20 20 20h69q21 0 21 -20v-423q0 -172 160 -172q161 0 161 172v423q0 20 20 20h70q19 0 19 -20v-432q0 -127 -67.5 -195t-202.5 -68zM292 842q0 -51 56 -51q26 0 40.5 13.5t14.5 37.5t-14.5 37.5t-40.5 13.5q-56 0 -56 -51z
M239 842q0 44 30 71.5t79 27.5t79 -27.5t30 -71.5t-30 -71.5t-79 -27.5t-79 27.5t-30 71.5z" />
    <glyph glyph-name="uring" unicode="&#x16f;" horiz-adv-x="593" 
d="M66 179v324q0 19 19 19h65q19 0 19 -19v-306q0 -117 109 -117q62 0 100 36.5t38 97.5v289q0 19 19 19h66q18 0 18 -19v-484q0 -19 -18 -19h-63q-19 0 -19 17l-2 60q-48 -87 -169 -87q-182 0 -182 189zM297 630q26 0 41 14t15 38q0 23 -15.5 36.5t-41.5 13.5t-41 -13.5
t-15 -36.5q0 -25 15 -38.5t42 -13.5zM296 780q49 0 79.5 -27.5t30.5 -70.5q0 -44 -30.5 -71.5t-78.5 -27.5q-49 0 -79 27.5t-30 71.5t30 71t78 27z" />
    <glyph glyph-name="Uhungarumlaut" unicode="&#x170;" horiz-adv-x="695" 
d="M347 -12q-135 0 -202.5 68t-67.5 195v432q0 20 20 20h69q21 0 21 -20v-423q0 -172 160 -172q161 0 161 172v423q0 20 20 20h70q19 0 19 -20v-432q0 -127 -67.5 -195t-202.5 -68zM211 773l45 90q8 15 24 15h73q9 0 11.5 -8.5t-3.5 -14.5l-74 -87q-9 -12 -27 -12h-39
q-8 0 -10.5 5.5t0.5 11.5zM385 773l45 90q7 15 25 15h72q9 0 12 -8t-3 -15l-73 -87q-11 -12 -29 -12h-37q-9 0 -12 5.5t0 11.5z" />
    <glyph glyph-name="uhungarumlaut" unicode="&#x171;" horiz-adv-x="593" 
d="M66 179v324q0 19 19 19h65q19 0 19 -19v-306q0 -117 109 -117q62 0 100 36.5t38 97.5v289q0 19 19 19h66q18 0 18 -19v-484q0 -19 -18 -19h-63q-19 0 -19 17l-2 60q-48 -87 -169 -87q-182 0 -182 189zM161 606l46 87q8 14 23 14h69q9 0 11.5 -7t-2.5 -14l-74 -86
q-10 -11 -26 -11h-35q-9 0 -12 5.5t0 11.5zM332 606l45 87q7 14 23 14h69q9 0 12 -7.5t-3 -13.5l-73 -86q-9 -11 -27 -11h-35q-8 0 -11 5.5t0 11.5z" />
    <glyph glyph-name="Uogonek" unicode="&#x172;" horiz-adv-x="695" 
d="M347 -12q-135 0 -202.5 68t-67.5 195v432q0 20 20 20h69q21 0 21 -20v-423q0 -172 160 -172q161 0 161 172v423q0 20 20 20h70q19 0 19 -20v-432q0 -225 -202 -258q-51 -28 -51 -68q0 -31 51 -31q8 0 14.5 1t11.5 2.5t7 1.5q9 2 12 -6l8 -32q3 -10 -7 -14
q-23 -16 -69 -16q-43 0 -70.5 18t-27.5 54q0 46 55 85h-2z" />
    <glyph glyph-name="uogonek" unicode="&#x173;" horiz-adv-x="593" 
d="M66 179v324q0 19 19 19h65q19 0 19 -19v-306q0 -117 109 -117q62 0 100 36.5t38 97.5v289q0 19 19 19h66q18 0 18 -19v-484q0 -19 -18 -19h-13q-62 -28 -62 -69q0 -30 48 -30q8 0 33 5q10 2 12 -7l7 -29q4 -11 -6 -14q-24 -15 -67 -15q-93 0 -93 68q0 27 20.5 51.5
t51.5 39.5q-13 3 -13 17l-2 60q-48 -87 -169 -87q-182 0 -182 189z" />
    <glyph glyph-name="Wcircumflex" unicode="&#x174;" horiz-adv-x="1044" 
d="M488 703h69q21 0 27 -19l105 -373l50 -189h2l46 186l105 376q6 19 23 19h73q23 0 16 -23l-190 -659q-6 -21 -27 -21h-86q-21 0 -27 21l-107 355l-44 168h-2l-45 -168l-106 -355q-6 -21 -26 -21h-87q-21 0 -27 21l-190 659q-7 23 16 23h74q18 0 22 -19l105 -376l46 -186h2
l49 189l107 373q5 19 27 19zM589 766l-66 51l-67 -51q-15 -11 -25 -11h-43q-9 0 -11 6.5t4 12.5l92 91q11 11 26 11h47q13 0 26 -11l91 -91q7 -6 5.5 -12.5t-11.5 -6.5h-43q-10 0 -25 11z" />
    <glyph glyph-name="wcircumflex" unicode="&#x175;" horiz-adv-x="836" 
d="M389 522h59q15 0 21 -17l94 -296l27 -103h2l24 103l84 295q5 18 21 18h69q20 0 15 -21l-146 -483q-5 -18 -24 -18h-73q-18 0 -24 18l-87 271l-31 109h-3l-30 -109l-87 -271q-6 -18 -24 -18h-73q-17 0 -24 18l-147 483q-5 21 15 21h68q16 0 21 -18l86 -295l23 -103h2
l28 103l92 296q6 17 22 17zM488 600l-69 54l-70 -54q-14 -11 -24 -11h-43q-9 0 -11 6t4 12l94 94q11 11 26 11h47q15 0 26 -11l94 -94q4 -4 4.5 -8t-2.5 -7t-9 -3h-43q-10 0 -24 11z" />
    <glyph glyph-name="Ycircumflex" unicode="&#x176;" horiz-adv-x="650" 
d="M380 259v-239q0 -20 -20 -20h-70q-20 0 -20 20v239l-240 420q-5 8 -1 16t15 8h75q17 0 27 -18l127 -233l52 -102l52 102l128 233q7 18 26 18h75q11 0 14.5 -8t-0.5 -16zM391 766l-66 51l-67 -51q-15 -11 -25 -11h-43q-9 0 -11 6.5t4 12.5l92 91q11 11 26 11h47
q13 0 26 -11l91 -91q7 -6 5.5 -12.5t-11.5 -6.5h-43q-10 0 -25 11z" />
    <glyph glyph-name="ycircumflex" unicode="&#x177;" horiz-adv-x="518" 
d="M495 501l-158 -463q-29 -87 -64.5 -120t-113.5 -33q-47 0 -82 11q-18 7 -16 19l10 48q3 17 19 14l18 -3q18 -4 35 -4q32 0 49 13t17 36q0 16 -7 31l-177 451q-7 21 14 21h69q15 0 22 -18l92 -250l48 -151h2l43 151l75 250q5 18 21 18h69q22 0 15 -21zM328 600l-69 54
l-70 -54q-14 -11 -24 -11h-43q-9 0 -11 6t4 12l94 94q11 11 26 11h47q15 0 26 -11l94 -94q4 -4 4.5 -8t-2.5 -7t-9 -3h-43q-10 0 -24 11z" />
    <glyph glyph-name="Ydieresis" unicode="&#x178;" horiz-adv-x="650" 
d="M380 259v-239q0 -20 -20 -20h-70q-20 0 -20 20v239l-240 420q-5 8 -1 16t15 8h75q17 0 27 -18l127 -233l52 -102l52 102l128 233q7 18 26 18h75q11 0 14.5 -8t-0.5 -16zM279 841v-67q0 -19 -19 -19h-65q-18 0 -18 19v67q0 19 18 19h65q19 0 19 -19zM473 841v-67
q0 -19 -19 -19h-65q-18 0 -18 19v67q0 19 18 19h65q19 0 19 -19z" />
    <glyph glyph-name="Zacute" unicode="&#x179;" horiz-adv-x="603" 
d="M56 20v58q0 17 12 34l344 491h-329q-20 0 -20 20v60q0 20 20 20h435q19 0 19 -20v-58q0 -17 -11 -33l-342 -492h340q20 0 20 -19v-61q0 -20 -20 -20h-448q-20 0 -20 20zM260 772l51 87q9 15 25 15h85q10 0 12 -8t-5 -14l-91 -85q-9 -12 -27 -12h-38q-9 0 -12 5.5t0 11.5z
" />
    <glyph glyph-name="zacute" unicode="&#x17a;" horiz-adv-x="500" 
d="M450 503v-40q0 -15 -9 -27l-264 -347h253q20 0 20 -19v-51q0 -19 -20 -19h-364q-18 0 -18 19v40q0 14 8 24l266 350h-249q-19 0 -19 19v51q0 19 19 19h358q19 0 19 -19zM197 606l51 87q7 14 24 14h85q10 0 12 -7.5t-5 -13.5l-91 -86q-11 -11 -26 -11h-39q-9 0 -12 5.5
t1 11.5z" />
    <glyph glyph-name="Zdotaccent" unicode="&#x17b;" horiz-adv-x="603" 
d="M56 20v58q0 17 12 34l344 491h-329q-20 0 -20 20v60q0 20 20 20h435q19 0 19 -20v-58q0 -17 -11 -33l-342 -492h340q20 0 20 -19v-61q0 -20 -20 -20h-448q-20 0 -20 20zM356 849v-75q0 -20 -19 -20h-71q-19 0 -19 20v75q0 19 19 19h71q19 0 19 -19z" />
    <glyph glyph-name="zdotaccent" unicode="&#x17c;" horiz-adv-x="500" 
d="M450 503v-40q0 -15 -9 -27l-264 -347h253q20 0 20 -19v-51q0 -19 -20 -19h-364q-18 0 -18 19v40q0 14 8 24l266 350h-249q-19 0 -19 19v51q0 19 19 19h358q19 0 19 -19zM305 681v-74q0 -19 -19 -19h-71q-19 0 -19 19v74q0 20 19 20h71q19 0 19 -20z" />
    <glyph glyph-name="Zcaron" unicode="&#x17d;" horiz-adv-x="603" 
d="M56 20v58q0 17 12 34l344 491h-329q-20 0 -20 20v60q0 20 20 20h435q19 0 19 -20v-58q0 -17 -11 -33l-342 -492h340q20 0 20 -19v-61q0 -20 -20 -20h-448q-20 0 -20 20zM299 813l65 51q15 12 24 12h43q9 0 11.5 -6.5t-3.5 -12.5l-91 -91q-10 -11 -26 -11h-47
q-15 0 -26 11l-92 91q-6 5 -3.5 12t12.5 7h43q10 0 23 -11z" />
    <glyph glyph-name="zcaron" unicode="&#x17e;" horiz-adv-x="500" 
d="M450 503v-40q0 -15 -9 -27l-264 -347h253q20 0 20 -19v-51q0 -19 -20 -19h-364q-18 0 -18 19v40q0 14 8 24l266 350h-249q-19 0 -19 19v51q0 19 19 19h358q19 0 19 -19zM251 647l69 54q14 11 24 11h43q9 0 11 -6t-4 -12l-94 -94q-11 -11 -26 -11h-47q-15 0 -26 11l-94 94
q-4 3 -4.5 7.5t2.5 7.5t9 3h43q10 0 24 -11z" />
    <glyph glyph-name="longs" unicode="&#x17f;" horiz-adv-x="309" 
d="M204 557v-539q0 -18 -18 -18h-63q-20 0 -20 18v414h-62q-18 0 -18 19v47q0 20 18 20h62v45q0 148 149 148q38 0 73 -11q14 -5 14 -18v-43q0 -21 -17 -17q-27 5 -51 5q-67 0 -67 -70z" />
    <glyph glyph-name="florin" unicode="&#x192;" horiz-adv-x="643" 
d="M391 549l-21 -154h135q15 0 14 -16l-4 -34q-1 -16 -18 -16h-135l-41 -303q-10 -74 -42.5 -108.5t-100.5 -34.5q-43 0 -69 10q-15 5 -13 19l8 49q3 18 19 15q33 -5 38 -5q50 0 59 65l38 293h-87q-16 0 -15 16l4 34q2 16 19 16h88l21 165q10 79 50.5 116t115.5 37
q51 0 79 -10q16 -6 14 -19l-8 -42q-4 -20 -20 -17q-37 7 -44 7q-76 0 -84 -83z" />
    <glyph glyph-name="Aringacute" unicode="&#x1fa;" horiz-adv-x="676" 
d="M229 754q0 67 61 91l41 69q9 15 25 15h85q10 0 12 -8t-5 -14l-66 -61q65 -23 65 -92q0 -50 -38 -78l241 -654q4 -9 -0.5 -15.5t-14.5 -6.5h-75q-16 0 -24 18l-55 151h-286l-56 -151q-6 -18 -22 -18h-76q-10 0 -14.5 6.5t-1.5 15.5l240 654q-36 28 -36 78zM223 265h229
l-113 329h-2zM282 754q0 -48 50 -51h11q50 3 50 51q0 24 -14.5 37.5t-40.5 13.5q-56 0 -56 -51z" />
    <glyph glyph-name="aringacute" unicode="&#x1fb;" horiz-adv-x="565" 
d="M497 345v-326q0 -19 -20 -19h-57q-17 0 -19 17l-2 63q-53 -89 -188 -89q-81 0 -127 39.5t-46 108.5q0 42 18 73.5t47.5 50t77 30.5t97.5 16.5t118 5.5v26q0 55 -29 80.5t-96 25.5q-80 0 -156 -32q-16 -6 -23 12l-15 48q-4 14 11 21q83 38 194 38t163 -47.5t52 -141.5z
M173 682q0 34 18.5 58.5t51.5 34.5l41 69q7 14 24 14h85q10 0 12 -7.5t-5 -13.5l-70 -66q61 -25 61 -89q0 -44 -30.5 -71.5t-78.5 -27.5q-49 0 -79 27.5t-30 71.5zM396 201v44q-64 -2 -103.5 -6t-79 -14t-57.5 -30t-18 -50q0 -34 26 -55.5t74 -21.5q76 0 117 38t41 95z
M282 630q26 0 41 14t15 38q0 23 -15.5 36.5t-41.5 13.5t-41 -13.5t-15 -36.5q0 -25 15 -38.5t42 -13.5z" />
    <glyph glyph-name="AEacute" unicode="&#x1fc;" horiz-adv-x="884" 
d="M800 312h-256v-214h271q20 0 20 -19v-59q0 -20 -20 -20h-360q-20 0 -20 20v142h-232l-74 -144q-9 -18 -25 -18h-79q-10 0 -14.5 6.5t0.5 15.5l337 661q6 12 11 16t17 4h435q20 0 20 -20v-58q0 -20 -20 -20h-267v-199h256q19 0 19 -21v-52q0 -21 -19 -21zM243 256h191v351
h-17zM412 772l51 87q9 15 25 15h85q10 0 12 -8t-5 -14l-91 -85q-9 -12 -27 -12h-38q-9 0 -12 5.5t0 11.5z" />
    <glyph glyph-name="aeacute" unicode="&#x1fd;" horiz-adv-x="911" 
d="M668 70q67 0 129 31q17 8 24 -11l16 -43q4 -12 -12 -23q-25 -14 -72.5 -25t-91.5 -11q-80 0 -137 32.5t-76 83.5q-57 -113 -218 -113q-192 0 -192 149q0 36 11 63.5t36 44.5t53 28t73.5 16t85 7t99.5 2v53q-2 93 -123 93q-83 0 -161 -32q-16 -6 -23 12l-17 48
q-4 14 12 21q96 38 192 38q155 0 183 -98q23 46 71 72t112 26q103 0 161.5 -65.5t58.5 -172.5v-56q0 -19 -20 -19h-346q7 -69 53.5 -110t118.5 -41zM635 452q-61 0 -99 -41t-42 -115h271v7q0 69 -32.5 109t-97.5 40zM397 204v26q-152 -3 -196 -16q-62 -19 -63 -69
q0 -75 105 -75q76 0 115 38t39 96zM386 606l51 87q7 14 24 14h85q10 0 12 -7.5t-5 -13.5l-91 -86q-11 -11 -26 -11h-39q-9 0 -12 5.5t1 11.5z" />
    <glyph glyph-name="Oslashacute" unicode="&#x1fe;" horiz-adv-x="719" 
d="M360 714q126 0 203 -72l45 50q13 14 26 4l29 -24q15 -11 3 -26l-55 -63q55 -93 55 -231q0 -177 -79.5 -269.5t-226.5 -92.5q-132 0 -205 71l-48 -52q-14 -14 -26 -3l-29 26q-13 10 -2 24l56 63q-53 87 -53 233q0 176 79.5 269t227.5 93zM360 87q97 0 145.5 68t48.5 197
q0 76 -22 138l-310 -348q28 -29 59.5 -42t78.5 -13zM165 352q0 -89 21 -139l309 347q-50 57 -135 57q-195 0 -195 -265zM316 772l51 87q9 15 25 15h85q10 0 12 -8t-5 -14l-91 -85q-9 -12 -27 -12h-38q-9 0 -12 5.5t0 11.5z" />
    <glyph glyph-name="oslashacute" unicode="&#x1ff;" horiz-adv-x="606" 
d="M303 -10q117 0 185 70.5t68 201.5q0 112 -50 179l33 40q10 12 -3 24l-19 16q-14 11 -28 -4l-27 -31q-62 48 -159 48q-117 0 -185 -70.5t-68 -201.5q0 -114 50 -180l-33 -40q-11 -13 3 -25l19 -16q14 -11 27 3l29 32q61 -46 158 -46zM303 448q60 0 97 -34l-225 -252
q-19 35 -19 100q0 93 38 139.5t109 46.5zM303 76q-58 0 -96 32l225 252q18 -38 18 -98q0 -93 -38.5 -139.5t-108.5 -46.5zM250 606l51 87q7 14 24 14h85q10 0 12 -7.5t-5 -13.5l-91 -86q-11 -11 -26 -11h-39q-9 0 -12 5.5t1 11.5z" />
    <glyph glyph-name="Scommaaccent" unicode="&#x218;" horiz-adv-x="570" 
d="M528 184q0 -95 -71 -144t-193 -49q-132 0 -206 36q-19 9 -14 23l20 54q7 20 24 12q72 -29 166 -29q76 0 120 25.5t44 73.5q0 25 -11 44t-37.5 35.5t-46 25t-62.5 25.5l-62.5 25.5t-53.5 28.5t-47 39t-28 50.5t-12 68.5q0 90 61.5 138t185.5 48q108 0 181 -32
q18 -8 13 -24l-19 -52q-7 -18 -26 -11q-64 23 -140 23t-111 -22.5t-35 -69.5q0 -30 19 -52t42.5 -33.5t67.5 -29.5q4 -1 6 -2t5.5 -2.5t6.5 -2.5q105 -44 142 -73q71 -55 71 -147zM341 -156l-41 -90q-6 -13 -17 -13h-15q-15 0 -10 15l23 87h-27q-18 0 -18 18v73q0 18 18 18
h73q19 0 19 -18v-67q0 -12 -5 -23z" />
    <glyph glyph-name="scommaaccent" unicode="&#x219;" horiz-adv-x="468" 
d="M426 138q0 -148 -205 -148q-99 0 -170 28q-17 6 -13 20l14 46q5 18 23 12q62 -24 133 -24q60 0 88 15t28 52q0 32 -28.5 51t-92.5 41q-81 29 -104 45q-57 40 -58 116q0 69 48 105.5t142 36.5q95 0 160 -29q17 -7 12 -21l-14 -43q-5 -17 -22 -12q-60 22 -122 22
q-54 0 -78 -14t-24 -47t27 -50t93 -40q79 -28 121 -63t42 -99zM287 -149l-35 -88q-8 -13 -17 -13h-15q-12 0 -10 15l20 85h-25q-18 0 -18 17v68q0 17 18 17h69q18 0 18 -17v-62q0 -12 -5 -22z" />
    <glyph glyph-name="uni021A" unicode="&#x21a;" horiz-adv-x="557" 
d="M29 623v60q0 20 20 20h458q21 0 21 -20v-60q0 -20 -21 -20h-173v-583q0 -20 -21 -20h-69q-20 0 -20 20v583h-174q-21 0 -21 20zM326 -156l-41 -90q-6 -13 -17 -13h-15q-15 0 -10 15l23 87h-27q-18 0 -18 18v73q0 18 18 18h73q19 0 19 -18v-67q0 -12 -5 -23z" />
    <glyph glyph-name="uni021B" unicode="&#x21b;" horiz-adv-x="368" 
d="M320 432h-122v-265q0 -50 16 -68.5t62 -18.5q2 0 44 6q14 2 17 -16l8 -47q2 -12 -14 -18q-32 -12 -79 -12q-84 0 -119.5 37.5t-35.5 125.5v276h-64q-20 0 -20 19v47q0 20 20 20h66v124q0 18 18 18h61q20 0 20 -18v-124h122q20 0 20 -20v-47q0 -19 -20 -19zM252 -149
l-35 -88q-8 -13 -17 -13h-15q-12 0 -10 15l20 85h-25q-18 0 -18 17v68q0 17 18 17h69q18 0 18 -17v-62q0 -12 -5 -22z" />
    <glyph glyph-name="dotlessj" unicode="&#x237;" horiz-adv-x="267" 
d="M89 37v466q0 19 18 19h66q19 0 19 -19v-476q0 -75 -30 -108.5t-97 -33.5q-43 0 -68 7q-16 4 -16 20v49q0 17 18 15q32 -4 42 -4q48 0 48 65z" />
    <glyph glyph-name="circumflex" unicode="&#x2c6;" horiz-adv-x="345" 
d="M242 600l-69 54l-70 -54q-14 -11 -24 -11h-43q-9 0 -11 6t4 12l94 94q11 11 26 11h47q15 0 26 -11l94 -94q4 -4 4.5 -8t-2.5 -7t-9 -3h-43q-10 0 -24 11z" />
    <glyph glyph-name="caron" unicode="&#x2c7;" horiz-adv-x="345" 
d="M173 647l69 54q14 11 24 11h43q9 0 11 -6t-4 -12l-94 -94q-11 -11 -26 -11h-47q-15 0 -26 11l-94 94q-4 3 -4.5 7.5t2.5 7.5t9 3h43q10 0 24 -11z" />
    <glyph glyph-name="uni02C9" unicode="&#x2c9;" horiz-adv-x="345" 
d="M318 594h-291q-18 0 -18 18v30q0 18 18 18h291q18 0 18 -18v-30q0 -18 -18 -18z" />
    <glyph glyph-name="breve" unicode="&#x2d8;" horiz-adv-x="345" 
d="M173 585q-73 0 -108.5 33.5t-36.5 82.5q0 15 15 15h32q13 0 16 -14q7 -28 24.5 -42.5t57.5 -14.5t56.5 14.5t23.5 42.5q4 14 17 14h32q14 0 14 -15q0 -49 -35 -82.5t-108 -33.5z" />
    <glyph glyph-name="dotaccent" unicode="&#x2d9;" horiz-adv-x="345" 
d="M227 681v-74q0 -19 -19 -19h-71q-19 0 -19 19v74q0 20 19 20h71q19 0 19 -20z" />
    <glyph glyph-name="ring" unicode="&#x2da;" horiz-adv-x="345" 
d="M173 630q26 0 41 14t15 38q0 23 -15.5 36.5t-41.5 13.5t-41 -13.5t-15 -36.5q0 -25 15 -38.5t42 -13.5zM172 780q49 0 79.5 -27.5t30.5 -70.5q0 -44 -30.5 -71.5t-78.5 -27.5q-49 0 -79 27.5t-30 71.5t30 71t78 27z" />
    <glyph glyph-name="ogonek" unicode="&#x2db;" horiz-adv-x="345" 
d="M177 12l43 -4q-81 -31 -81 -77q0 -30 48 -30q8 0 33 5q10 2 12 -7l7 -29q4 -11 -6 -14q-24 -15 -67 -15q-93 0 -93 68q0 33 31.5 63.5t72.5 39.5z" />
    <glyph glyph-name="tilde" unicode="&#x2dc;" horiz-adv-x="345" 
d="M332 661q0 -73 -68 -73q-36 0 -86 18l-28 10q-66 25 -72 -3l-2 -9q-3 -14 -20 -14h-26q-17 0 -17 23q0 73 68 73q34 0 86 -19l29 -10q39 -13 51 -13q20 0 21 20l1 7q3 15 20 15h27q16 0 16 -25z" />
    <glyph glyph-name="hungarumlaut" unicode="&#x2dd;" horiz-adv-x="345" 
d="M58 606l46 87q8 14 23 14h69q9 0 11.5 -7t-2.5 -14l-74 -86q-10 -11 -26 -11h-35q-9 0 -12 5.5t0 11.5zM229 606l45 87q7 14 23 14h69q9 0 12 -7.5t-3 -13.5l-73 -86q-9 -11 -27 -11h-35q-8 0 -11 5.5t0 11.5z" />
    <glyph glyph-name="uni037E" unicode="&#x37e;" horiz-adv-x="237" 
d="M61 216v85q0 19 20 19h75q20 0 20 -19v-85q0 -19 -19 -19h-77q-19 0 -19 19z" />
    <glyph glyph-name="uni0394" unicode="&#x394;" horiz-adv-x="685" 
d="M293 703h99q18 0 24 -19l214 -655q4 -12 -2 -20.5t-20 -8.5h-531q-14 0 -20 8.5t-2 20.5l213 655q6 19 25 19zM341 611l-167 -520h336l-165 520h-4z" />
    <glyph glyph-name="uni03A9" unicode="&#x3a9;" horiz-adv-x="804" 
d="M402 715q163 0 254 -83t91 -219q0 -102 -54.5 -174t-136.5 -111v-42l129 8q21 1 21 -18v-58q0 -18 -19 -18h-229v140q0 13 16 22q163 81 163 242q0 98 -61.5 156.5t-173.5 58.5q-111 0 -173 -58.5t-62 -156.5q0 -161 163 -242q16 -8 16 -22v-140h-228q-20 0 -20 18v58
q0 20 21 18l130 -8v42q-82 40 -137 111.5t-55 173.5q0 136 91 219t254 83z" />
    <glyph glyph-name="uni03BC" unicode="&#x3bc;" horiz-adv-x="597" 
d="M528 503v-325q0 -190 -183 -190q-123 0 -168 88v-168q0 -18 -19 -18h-65q-20 0 -20 19v594q0 19 20 19h65q19 0 19 -19v-291q0 -61 38 -97t99 -36q60 0 85 30t25 87v307q0 19 19 19h65q20 0 20 -19z" />
    <glyph glyph-name="pi" unicode="&#x3c0;" horiz-adv-x="711" 
d="M544 430v-265q0 -51 14 -69.5t56 -18.5q20 0 41 3q17 1 19 -17l3 -44q1 -13 -16 -18q-31 -9 -75 -9q-76 0 -109.5 38t-33.5 124v276h-170l-86 -412q-3 -18 -23 -18h-63q-21 0 -17 18l87 412h-107q-18 0 -18 20v53q0 19 18 19h593q19 0 19 -19v-53q0 -20 -19 -20h-113z
" />
    <glyph glyph-name="Wgrave" unicode="&#x1e80;" horiz-adv-x="1044" 
d="M488 703h69q21 0 27 -19l105 -373l50 -189h2l46 186l105 376q6 19 23 19h73q23 0 16 -23l-190 -659q-6 -21 -27 -21h-86q-21 0 -27 21l-107 355l-44 168h-2l-45 -168l-106 -355q-6 -21 -26 -21h-87q-21 0 -27 21l-190 659q-7 23 16 23h74q18 0 22 -19l105 -376l46 -186h2
l49 189l107 373q5 19 27 19zM491 859l51 -87q3 -6 0.5 -11.5t-11.5 -5.5h-39q-14 0 -27 12l-91 85q-6 6 -3.5 14t11.5 8h85q17 0 24 -15z" />
    <glyph glyph-name="wgrave" unicode="&#x1e81;" horiz-adv-x="836" 
d="M389 522h59q15 0 21 -17l94 -296l27 -103h2l24 103l84 295q5 18 21 18h69q20 0 15 -21l-146 -483q-5 -18 -24 -18h-73q-18 0 -24 18l-87 271l-31 109h-3l-30 -109l-87 -271q-6 -18 -24 -18h-73q-17 0 -24 18l-147 483q-5 21 15 21h68q16 0 21 -18l86 -295l23 -103h2
l28 103l92 296q6 17 22 17zM395 693l51 -87q4 -6 0.5 -11.5t-11.5 -5.5h-39q-15 0 -27 11l-91 86q-6 6 -3.5 13.5t11.5 7.5h85q16 0 24 -14z" />
    <glyph glyph-name="Wacute" unicode="&#x1e82;" horiz-adv-x="1044" 
d="M488 703h69q21 0 27 -19l105 -373l50 -189h2l46 186l105 376q6 19 23 19h73q23 0 16 -23l-190 -659q-6 -21 -27 -21h-86q-21 0 -27 21l-107 355l-44 168h-2l-45 -168l-106 -355q-6 -21 -26 -21h-87q-21 0 -27 21l-190 659q-7 23 16 23h74q18 0 22 -19l105 -376l46 -186h2
l49 189l107 373q5 19 27 19zM501 772l51 87q9 15 25 15h85q10 0 12 -8t-5 -14l-91 -85q-9 -12 -27 -12h-38q-9 0 -12 5.5t0 11.5z" />
    <glyph glyph-name="wacute" unicode="&#x1e83;" horiz-adv-x="836" 
d="M389 522h59q15 0 21 -17l94 -296l27 -103h2l24 103l84 295q5 18 21 18h69q20 0 15 -21l-146 -483q-5 -18 -24 -18h-73q-18 0 -24 18l-87 271l-31 109h-3l-30 -109l-87 -271q-6 -18 -24 -18h-73q-17 0 -24 18l-147 483q-5 21 15 21h68q16 0 21 -18l86 -295l23 -103h2
l28 103l92 296q6 17 22 17zM390 606l51 87q7 14 24 14h85q10 0 12 -7.5t-5 -13.5l-91 -86q-11 -11 -26 -11h-39q-9 0 -12 5.5t1 11.5z" />
    <glyph glyph-name="Wdieresis" unicode="&#x1e84;" horiz-adv-x="1044" 
d="M488 703h69q21 0 27 -19l105 -373l50 -189h2l46 186l105 376q6 19 23 19h73q23 0 16 -23l-190 -659q-6 -21 -27 -21h-86q-21 0 -27 21l-107 355l-44 168h-2l-45 -168l-106 -355q-6 -21 -26 -21h-87q-21 0 -27 21l-190 659q-7 23 16 23h74q18 0 22 -19l105 -376l46 -186h2
l49 189l107 373q5 19 27 19zM477 841v-67q0 -19 -19 -19h-65q-18 0 -18 19v67q0 19 18 19h65q19 0 19 -19zM671 841v-67q0 -19 -19 -19h-65q-18 0 -18 19v67q0 19 18 19h65q19 0 19 -19z" />
    <glyph glyph-name="wdieresis" unicode="&#x1e85;" horiz-adv-x="836" 
d="M389 522h59q15 0 21 -17l94 -296l27 -103h2l24 103l84 295q5 18 21 18h69q20 0 15 -21l-146 -483q-5 -18 -24 -18h-73q-18 0 -24 18l-87 271l-31 109h-3l-30 -109l-87 -271q-6 -18 -24 -18h-73q-17 0 -24 18l-147 483q-5 21 15 21h68q16 0 21 -18l86 -295l23 -103h2
l28 103l92 296q6 17 22 17zM374 678v-71q0 -18 -19 -18h-61q-19 0 -19 18v71q0 19 19 19h61q19 0 19 -19zM562 678v-71q0 -18 -19 -18h-61q-19 0 -19 18v71q0 19 19 19h61q19 0 19 -19z" />
    <glyph glyph-name="Ygrave" unicode="&#x1ef2;" horiz-adv-x="650" 
d="M380 259v-239q0 -20 -20 -20h-70q-20 0 -20 20v239l-240 420q-5 8 -1 16t15 8h75q17 0 27 -18l127 -233l52 -102l52 102l128 233q7 18 26 18h75q11 0 14.5 -8t-0.5 -16zM301 859l51 -87q3 -6 0.5 -11.5t-11.5 -5.5h-39q-13 0 -27 12l-91 85q-6 6 -3.5 14t11.5 8h85
q17 0 24 -15z" />
    <glyph glyph-name="ygrave" unicode="&#x1ef3;" horiz-adv-x="518" 
d="M495 501l-158 -463q-29 -87 -64.5 -120t-113.5 -33q-47 0 -82 11q-18 7 -16 19l10 48q3 17 19 14l18 -3q18 -4 35 -4q32 0 49 13t17 36q0 16 -7 31l-177 451q-7 21 14 21h69q15 0 22 -18l92 -250l48 -151h2l43 151l75 250q5 18 21 18h69q22 0 15 -21zM220 693l51 -87
q4 -6 0.5 -11.5t-11.5 -5.5h-39q-15 0 -27 11l-91 86q-6 6 -3.5 13.5t11.5 7.5h85q16 0 24 -14z" />
    <glyph glyph-name="figuredash" unicode="&#x2012;" horiz-adv-x="574" 
d="M495 237h-417q-17 0 -17 17v46q0 17 18 17h416q17 0 17 -17v-46q0 -17 -17 -17z" />
    <glyph glyph-name="endash" unicode="&#x2013;" horiz-adv-x="529" 
d="M468 222h-407q-18 0 -18 18v50q0 18 18 18h407q18 0 18 -18v-50q0 -18 -18 -18z" />
    <glyph glyph-name="emdash" unicode="&#x2014;" horiz-adv-x="774" 
d="M712 222h-651q-18 0 -18 18v50q0 18 18 18h651q20 0 20 -18v-50q0 -18 -20 -18z" />
    <glyph glyph-name="quoteleft" unicode="&#x2018;" horiz-adv-x="225" 
d="M63 595l44 102q4 11 17 11h25q15 0 10 -16l-31 -97h28q18 0 18 -19v-82q0 -19 -19 -19h-77q-20 0 -20 19v76q0 14 5 25z" />
    <glyph glyph-name="quoteright" unicode="&#x2019;" horiz-adv-x="225" 
d="M163 584l-45 -101q-5 -13 -17 -13h-25q-6 0 -8.5 5.5t-0.5 11.5l30 98h-27q-19 0 -19 19v81q0 19 20 19h77q20 0 20 -19v-76q0 -14 -5 -25z" />
    <glyph glyph-name="quotesinglbase" unicode="&#x201a;" horiz-adv-x="225" 
d="M163 -1l-45 -101q-5 -13 -17 -13h-25q-6 0 -8.5 5.5t-0.5 11.5l30 98h-27q-19 0 -19 19v81q0 19 20 19h77q20 0 20 -19v-76q0 -14 -5 -25z" />
    <glyph glyph-name="quotedblleft" unicode="&#x201c;" horiz-adv-x="405" 
d="M242 595l45 102q4 11 17 11h25q14 0 9 -16l-30 -97h27q19 0 19 -19v-82q0 -19 -20 -19h-77q-20 0 -20 19v76q0 10 5 25zM63 595l44 102q4 11 17 11h25q15 0 10 -16l-31 -97h28q18 0 18 -19v-82q0 -19 -19 -19h-77q-20 0 -20 19v76q0 14 5 25z" />
    <glyph glyph-name="quotedblright" unicode="&#x201d;" horiz-adv-x="405" 
d="M163 584l-45 -101q-6 -13 -17 -13h-25q-6 0 -8.5 5.5t-0.5 11.5l30 98h-27q-19 0 -19 18v82q0 19 20 19h77q20 0 20 -19v-76q0 -15 -5 -25zM342 584l-44 -101q-6 -13 -18 -13h-24q-16 0 -10 17l30 98h-27q-18 0 -18 18v82q0 19 19 19h78q19 0 19 -19v-76q0 -15 -5 -25z
" />
    <glyph glyph-name="quotedblbase" unicode="&#x201e;" horiz-adv-x="405" 
d="M163 -1l-45 -101q-6 -13 -17 -13h-25q-6 0 -8.5 5.5t-0.5 11.5l30 98h-27q-19 0 -19 18v82q0 19 20 19h77q20 0 20 -19v-76q0 -15 -5 -25zM342 -1l-44 -101q-6 -13 -18 -13h-24q-16 0 -10 17l30 98h-27q-18 0 -18 18v82q0 19 19 19h78q19 0 19 -19v-76q0 -15 -5 -25z" />
    <glyph glyph-name="dagger" unicode="&#x2020;" horiz-adv-x="533" 
d="M495 505v-50q0 -19 -18 -19h-159v-527q0 -19 -19 -19h-65q-19 0 -19 19v527h-159q-19 0 -19 19v50q0 19 19 19h159v161q0 18 19 18h65q19 0 19 -18v-161h159q18 0 18 -19z" />
    <glyph glyph-name="daggerdbl" unicode="&#x2021;" horiz-adv-x="535" 
d="M497 139v-50q0 -19 -19 -19h-159v-161q0 -19 -19 -19h-65q-19 0 -19 19v161h-159q-18 0 -18 19v50q0 18 18 18h159v279h-159q-18 0 -18 19v50q0 19 18 19h159v161q0 18 19 18h65q19 0 19 -18v-161h159q19 0 19 -19v-50q0 -19 -19 -19h-159v-279h159q19 0 19 -18z" />
    <glyph glyph-name="bullet" unicode="&#x2022;" horiz-adv-x="386" 
d="M192 132q-59 0 -98 40t-39 100t39.5 99.5t98.5 39.5t98.5 -39.5t39.5 -99.5t-39.5 -100t-99.5 -40z" />
    <glyph glyph-name="onedotenleader" unicode="&#x2024;" horiz-adv-x="237" 
d="M61 19v85q0 19 20 19h75q20 0 20 -19v-85q0 -19 -19 -19h-77q-19 0 -19 19z" />
    <glyph glyph-name="twodotenleader" unicode="&#x2025;" horiz-adv-x="471" 
d="M295 19v85q0 19 20 19h75q20 0 20 -19v-85q0 -19 -19 -19h-77q-19 0 -19 19zM61 19v85q0 19 20 19h75q20 0 20 -19v-85q0 -19 -19 -19h-77q-19 0 -19 19z" />
    <glyph glyph-name="ellipsis" unicode="&#x2026;" horiz-adv-x="711" 
d="M61 19v85q0 19 20 19h75q20 0 20 -19v-85q0 -19 -19 -19h-77q-19 0 -19 19zM298 19v85q0 19 20 19h76q19 0 19 -19v-85q0 -19 -19 -19h-77q-19 0 -19 19zM535 19v85q0 19 20 19h76q19 0 19 -19v-85q0 -19 -18 -19h-77q-20 0 -20 19z" />
    <glyph glyph-name="perthousand" unicode="&#x2030;" horiz-adv-x="1350" 
d="M721 685l-412 -668q-9 -17 -26 -17h-55q-20 0 -9 19l411 668q9 16 27 16h54q21 0 10 -18zM42 501q0 101 46 155t124 54t124 -54t46 -155t-46 -154.5t-124 -53.5t-124 53.5t-46 154.5zM296 501q0 134 -84 134t-84 -134q0 -133 84 -133t84 133zM557 202q0 101 46 155
t125 54q78 0 123.5 -54t45.5 -155t-46 -154.5t-124 -53.5t-124 53.5t-46 154.5zM812 202q0 134 -84 134t-84 -134q0 -133 84 -133t84 133zM965 202q0 101 46 155t124 54t124 -54t46 -155t-46 -154.5t-124 -53.5t-124 53.5t-46 154.5zM1219 202q0 134 -84 134q-83 0 -83 -134
q0 -133 83 -133q84 0 84 133z" />
    <glyph glyph-name="guilsinglleft" unicode="&#x2039;" horiz-adv-x="267" 
d="M35 276q0 6 3 10l83 136q8 14 24 14h56q10 0 13 -6t-2 -14l-86 -140l86 -139q5 -7 2 -13.5t-13 -6.5h-56q-15 0 -24 14l-83 137q-3 6 -3 8z" />
    <glyph glyph-name="guilsinglright" unicode="&#x203a;" horiz-adv-x="267" 
d="M231 276q0 -5 -2 -8l-83 -137q-9 -14 -23 -14h-57q-10 0 -13 6t2 14l86 139l-86 140q-5 9 -2 14.5t13 5.5h57q15 0 23 -14l83 -136q2 -4 2 -10z" />
    <glyph glyph-name="exclamdbl" unicode="&#x203c;" horiz-adv-x="589" 
d="M89 19v87q0 19 19 19h82q19 0 19 -19v-87q0 -19 -18 -19h-84q-18 0 -18 19zM173 205h-48q-18 0 -20 19l-19 459q-1 20 20 20h86q21 0 20 -20l-20 -459q0 -19 -19 -19zM381 19v87q0 19 19 19h82q19 0 19 -19v-87q0 -19 -18 -19h-84q-18 0 -18 19zM465 205h-48
q-18 0 -20 19l-19 459q-1 20 20 20h86q21 0 20 -20l-20 -459q0 -19 -19 -19z" />
    <glyph glyph-name="fraction" unicode="&#x2044;" horiz-adv-x="77" 
d="M290 685l-413 -668q-9 -17 -25 -17h-54q-23 0 -11 19l412 668q9 16 26 16h54q21 0 11 -18z" />
    <glyph glyph-name="zero.superior" unicode="&#x2070;" 
d="M214 482q-90 0 -138.5 59t-48.5 162t48.5 162t138.5 59q89 0 137.5 -59t48.5 -162t-48.5 -162t-137.5 -59zM214 559q98 0 98 144t-98 144q-99 0 -99 -144t99 -144z" />
    <glyph glyph-name="four.superior" unicode="&#x2074;" 
d="M251 816l-138 -163h138v163zM382 579h-46v-71q0 -20 -20 -20h-44q-21 0 -21 20v71h-207q-20 0 -20 19v34q0 12 7 19l217 255q10 12 22 12h46q20 0 20 -20v-245h46q21 0 21 -20v-34q0 -20 -21 -20z" />
    <glyph glyph-name="five.superior" unicode="&#x2075;" 
d="M373 629q0 -72 -46 -109.5t-129 -37.5q-93 0 -141 26q-18 10 -12 25l13 34q6 16 25 9q51 -20 109 -20q95 0 95 74q0 34 -20 50t-68 16q-28 0 -56.5 -7t-42.5 -7q-10 0 -19 4l-18 9q-13 6 -12 19q13 125 13 182q0 22 25 22h236q21 0 21 -20v-34q0 -20 -21 -20h-185
q-2 -53 -7 -97q42 14 83 14q157 0 157 -132z" />
    <glyph glyph-name="six.superior" unicode="&#x2076;" 
d="M324 839q-35 12 -74 12q-54 0 -86.5 -31t-35.5 -83q37 49 117 49q74 0 112 -40.5t38 -104.5q0 -73 -44.5 -116t-122.5 -43q-93 0 -139.5 58t-46.5 151q0 102 52 167.5t146 65.5q65 0 105 -19q18 -8 13 -22l-11 -33q-6 -16 -23 -11zM227 556q41 0 65 22t24 62q0 79 -87 79
q-45 0 -68 -25t-23 -56q0 -36 22 -59t67 -23z" />
    <glyph glyph-name="seven.superior" unicode="&#x2077;" 
d="M372 898v-26q0 -11 -11 -26q-60 -85 -105.5 -178.5t-49.5 -159.5q0 -20 -20 -20h-47q-20 0 -20 20q3 69 47.5 159t111.5 177h-208q-20 0 -20 20v34q0 20 20 20h280q22 0 22 -20z" />
    <glyph glyph-name="eight.superior" unicode="&#x2078;" 
d="M214 482q-84 0 -129 34t-45 89q0 79 91 105q-81 29 -81 98q0 53 43 84.5t121 31.5t120.5 -31t42.5 -85q0 -70 -81 -98q92 -26 92 -105q0 -55 -45.5 -89t-128.5 -34zM214 682q-90 -19 -90 -71q0 -26 24 -43.5t66 -17.5q41 0 65 17.5t24 43.5q0 51 -89 71zM214 737
q78 22 78 69q0 50 -78 50q-79 0 -79 -50q0 -47 79 -69z" />
    <glyph glyph-name="nine.superior" unicode="&#x2079;" 
d="M103 567q37 -14 74 -14q54 0 86.5 31.5t36.5 84.5q-37 -49 -117 -49q-75 0 -113 40.5t-38 104.5q0 73 44 116t122 43q93 0 140.5 -58t47.5 -151q0 -106 -52 -169.5t-147 -63.5q-65 0 -105 19q-18 8 -13 22l12 33q6 17 22 11zM200 850q-41 0 -64.5 -22.5t-23.5 -61.5
q0 -79 86 -79q45 0 68.5 25t23.5 56q0 36 -22 59t-68 23z" />
    <glyph glyph-name="parenleft.superior" unicode="&#x207d;" horiz-adv-x="239" 
d="M52 703q0 63 26 121.5t64 92.5q8 8 18 8h42q8 0 10.5 -5.5t-1.5 -9.5q-73 -97 -73 -207t73 -207q4 -4 1.5 -9.5t-10.5 -5.5h-42q-10 0 -18 8q-38 34 -64 92.5t-26 121.5z" />
    <glyph glyph-name="parenright.superior" unicode="&#x207e;" horiz-adv-x="239" 
d="M187 703q0 -64 -25.5 -123t-63.5 -91q-10 -8 -18 -8h-42q-8 0 -10.5 5.5t1.5 9.5q74 98 74 207q0 121 -74 207q-5 5 -2 10t11 5h42q10 0 18 -8q38 -37 63.5 -94.5t25.5 -119.5z" />
    <glyph glyph-name="n.superior" unicode="&#x207f;" horiz-adv-x="492" 
d="M75 919h46q22 0 22 -19l1 -44q34 68 143 68q76 0 112.5 -42t36.5 -117v-257q0 -20 -20 -20h-50q-20 0 -20 20v243q0 93 -90 93q-51 0 -81 -30t-30 -77v-229q0 -20 -20 -20h-50q-20 0 -20 20v391q0 20 20 20z" />
    <glyph glyph-name="zero.inferior" unicode="&#x2080;" 
d="M214 -221q-90 0 -138.5 59t-48.5 162t48.5 162t138.5 59q89 0 137.5 -59t48.5 -162t-48.5 -162t-137.5 -59zM214 -144q98 0 98 144t-98 144q-99 0 -99 -144t99 -144z" />
    <glyph glyph-name="one.inferior" unicode="&#x2081;" 
d="M200 113l-74 -45q-18 -11 -29 5l-20 30q-10 15 5 25l114 79q10 8 26 8h42q21 0 21 -20v-390q0 -20 -21 -20h-44q-20 0 -20 20v308z" />
    <glyph glyph-name="two.inferior" unicode="&#x2082;" 
d="M130 90q0 -4 1 -13.5t1 -15.5q-2 -18 -19 -18h-42q-16 0 -19 16q-3 14 -3 34q0 58 39 93t121 35q84 0 122.5 -37.5t38.5 -95.5q0 -115 -191 -229h181q20 0 20 -20v-34q0 -20 -20 -20h-290q-20 0 -20 20v31q0 11 14 19l59 39t55.5 41t55 48.5t34 48t15.5 52.5q0 63 -77 63
q-76 0 -76 -57z" />
    <glyph glyph-name="three.inferior" unicode="&#x2083;" 
d="M198 -30h-49q-20 0 -20 20v29q0 21 20 21h50q74 0 74 55q0 53 -88 53q-44 0 -100 -21q-19 -7 -26 10l-14 34q-5 14 12 22q54 28 139 28q76 0 119.5 -29t43.5 -87q0 -65 -60 -92q68 -29 68 -101q0 -64 -44.5 -98.5t-123.5 -34.5q-86 0 -144 29q-11 5 -14 9.5t0 12.5l13 34
q8 19 27 12q55 -23 109 -23q90 0 90 61q0 56 -82 56z" />
    <glyph glyph-name="four.inferior" unicode="&#x2084;" 
d="M251 113l-138 -163h138v163zM382 -124h-46v-71q0 -20 -20 -20h-44q-21 0 -21 20v71h-207q-20 0 -20 19v34q0 12 7 19l217 255q10 12 22 12h46q20 0 20 -20v-245h46q21 0 21 -20v-34q0 -20 -21 -20z" />
    <glyph glyph-name="five.inferior" unicode="&#x2085;" 
d="M373 -74q0 -72 -46 -109.5t-129 -37.5q-93 0 -141 26q-18 10 -12 25l13 34q6 16 25 9q51 -20 109 -20q95 0 95 74q0 34 -20 50t-68 16q-28 0 -56.5 -7t-42.5 -7q-10 0 -19 4l-18 9q-13 6 -12 19q13 125 13 182q0 22 25 22h236q21 0 21 -20v-34q0 -20 -21 -20h-185
q-2 -53 -7 -97q42 14 83 14q157 0 157 -132z" />
    <glyph glyph-name="six.inferior" unicode="&#x2086;" 
d="M324 136q-34 12 -74 12q-54 0 -86.5 -31t-35.5 -83q37 49 117 49q74 0 112 -40.5t38 -104.5q0 -73 -44.5 -116t-122.5 -43q-93 0 -139.5 58t-46.5 151q0 102 52 167.5t146 65.5q65 0 105 -19q18 -8 13 -22l-11 -33q-6 -16 -23 -11zM227 -147q41 0 65 22t24 62
q0 79 -87 79q-45 0 -68 -25t-23 -56q0 -36 22 -59t67 -23z" />
    <glyph glyph-name="seven.inferior" unicode="&#x2087;" 
d="M372 195v-26q0 -11 -11 -26q-60 -85 -105.5 -178.5t-49.5 -159.5q0 -20 -20 -20h-47q-20 0 -20 20q3 69 47.5 159t111.5 177h-208q-20 0 -20 20v34q0 20 20 20h280q22 0 22 -20z" />
    <glyph glyph-name="eight.inferior" unicode="&#x2088;" 
d="M214 -221q-84 0 -129 34t-45 89q0 79 91 105q-81 29 -81 98q0 53 43 84.5t121 31.5t120.5 -31t42.5 -85q0 -70 -81 -98q92 -26 92 -105q0 -55 -45.5 -89t-128.5 -34zM214 -21q-90 -19 -90 -71q0 -26 24 -43.5t66 -17.5q41 0 65 17.5t24 43.5q0 51 -89 71zM214 34
q78 22 78 69q0 50 -78 50q-79 0 -79 -50q0 -47 79 -69z" />
    <glyph glyph-name="nine.inferior" unicode="&#x2089;" 
d="M103 -136q37 -14 74 -14q54 0 86.5 31.5t36.5 84.5q-37 -49 -117 -49q-75 0 -113 40.5t-38 104.5q0 73 44 116t122 43q93 0 140.5 -58t47.5 -151q0 -106 -52 -169.5t-147 -63.5q-65 0 -105 19q-18 8 -13 22l12 33q6 17 22 11zM200 147q-41 0 -64.5 -22.5t-23.5 -61.5
q0 -79 86 -79q45 0 68.5 25t23.5 56q0 36 -22 59t-68 23z" />
    <glyph glyph-name="parenleft.inferior" unicode="&#x208d;" horiz-adv-x="239" 
d="M52 0q0 63 26 121.5t64 92.5q8 8 18 8h42q8 0 10.5 -5t-1.5 -10q-73 -97 -73 -207t73 -207q4 -5 1.5 -10t-10.5 -5h-42q-10 0 -18 8q-38 34 -64 92.5t-26 121.5z" />
    <glyph glyph-name="parenright.inferior" unicode="&#x208e;" horiz-adv-x="239" 
d="M187 0q0 -64 -25.5 -123t-63.5 -91q-10 -8 -18 -8h-42q-8 0 -10.5 5t1.5 10q74 98 74 207q0 121 -74 207q-5 5 -2 10t11 5h42q10 0 18 -8q38 -37 63.5 -94.5t25.5 -119.5z" />
    <glyph glyph-name="Euro" unicode="&#x20ac;" horiz-adv-x="653" 
d="M40 310h62q-2 26 -2 42q0 25 2 41h-62q-17 0 -17 16v35q0 16 17 16h69q23 109 106.5 181.5t213.5 72.5q100 0 181 -44q17 -8 10 -23l-24 -52q-9 -19 -26 -11q-68 31 -129 31q-88 0 -144 -45t-75 -110h263q19 0 12 -18l-12 -33q-5 -16 -23 -16h-249q-1 -13 -1 -41
q0 -30 1 -42h203q18 0 11 -18l-11 -33q-5 -16 -23 -16h-170q19 -65 74.5 -110t145.5 -45q62 0 130 32q18 8 27 -12l24 -52q6 -13 -10 -22q-72 -44 -183 -44q-132 0 -215.5 72t-107.5 181h-68q-17 0 -17 17v34q0 16 17 16z" />
    <glyph glyph-name="afii61289" unicode="&#x2113;" horiz-adv-x="488" 
d="M319 78q26 0 62 9q14 2 17 -13l11 -48q1 -6 -0.5 -9.5t-4.5 -5.5t-10 -4q-45 -15 -94 -15q-173 0 -173 172v44q-42 -14 -82 -21q-12 -2 -15 8l-12 46q-4 12 8 14q42 9 101 30v184q0 125 36.5 185.5t135.5 60.5q77 0 116 -45t39 -119q0 -100 -64 -175.5t-163 -126.5v-73
q0 -56 20.5 -77t71.5 -21zM227 485v-153q152 91 152 221q0 88 -71 88q-52 0 -66.5 -34.5t-14.5 -121.5z" />
    <glyph glyph-name="trademark" unicode="&#x2122;" horiz-adv-x="721" 
d="M264 643h-71v-253q0 -13 -14 -13h-42q-14 0 -14 13v253h-71q-13 0 -13 14v33q0 13 13 13h212q13 0 13 -13v-33q0 -14 -13 -14zM504 460q-8 0 -13 9l-89 133v-212q0 -13 -14 -13h-41q-14 0 -14 13v300q0 13 14 13h45q11 0 17 -9l95 -147l95 147q6 9 17 9h45q13 0 13 -13
v-300q0 -13 -14 -13h-41q-13 0 -13 13v211l-89 -132q-6 -9 -13 -9z" />
    <glyph glyph-name="Omega" unicode="&#x2126;" horiz-adv-x="804" 
d="M402 715q163 0 254 -83t91 -219q0 -102 -54.5 -174t-136.5 -111v-42l129 8q21 1 21 -18v-58q0 -18 -19 -18h-229v140q0 13 16 22q163 81 163 242q0 98 -61.5 156.5t-173.5 58.5q-111 0 -173 -58.5t-62 -156.5q0 -161 163 -242q16 -8 16 -22v-140h-228q-20 0 -20 18v58
q0 20 21 18l130 -8v42q-82 40 -137 111.5t-55 173.5q0 136 91 219t254 83z" />
    <glyph glyph-name="estimated" unicode="&#x212e;" horiz-adv-x="856" 
d="M820 335h-628q-5 0 -5 -4v-185q0 -19 8 -29q83 -96 240 -96q158 0 252 109h58q-55 -65 -136 -102t-175 -37q-165 0 -279.5 105t-114.5 253q0 150 112.5 254.5t277.5 104.5t277.5 -104.5t112.5 -254.5v-14zM673 365v186q0 24 -11 36q-93 91 -231 91q-141 0 -235 -97
q-9 -9 -9 -29v-187q0 -6 5 -6h476q5 0 5 6z" />
    <glyph glyph-name="onethird" unicode="&#x2153;" horiz-adv-x="998" 
d="M710 685l-413 -668q-9 -17 -25 -17h-54q-23 0 -11 19l412 668q9 16 26 16h54q21 0 11 -18zM720 185h49q82 0 82 -56q0 -61 -90 -61q-54 0 -109 23q-19 7 -27 -12l-13 -34q-3 -8 0 -12.5t14 -9.5q58 -29 144 -29q79 0 123.5 34.5t44.5 98.5q0 72 -68 101q60 27 60 92
q0 58 -43.5 87t-119.5 29q-85 0 -139 -28q-17 -8 -12 -22l14 -34q7 -17 26 -10q56 21 100 21q88 0 88 -53q0 -55 -74 -55h-50q-20 0 -20 -21v-29q0 -20 20 -20zM200 601l-74 -45q-18 -11 -29 5l-20 30q-10 15 5 25l114 79q10 8 26 8h42q21 0 21 -20v-390q0 -20 -21 -20h-44
q-20 0 -20 20v308z" />
    <glyph glyph-name="twothirds" unicode="&#x2154;" horiz-adv-x="998" 
d="M130 578q0 -4 1 -13.5t1 -15.5q-2 -18 -19 -18h-42q-16 0 -19 16q-3 13 -3 34q0 58 39 93t121 35q84 0 122.5 -37.5t38.5 -95.5q0 -115 -191 -229h181q20 0 20 -20v-34q0 -20 -20 -20h-290q-20 0 -20 20v31q0 11 14 19l59 39t55.5 41t55 48.5t34 48t15.5 52.5
q0 63 -77 63q-76 0 -76 -57zM759 685l-413 -668q-9 -17 -25 -17h-54q-23 0 -11 19l412 668q9 16 26 16h54q22 0 11 -18zM769 185h-49q-20 0 -20 20v29q0 21 20 21h50q74 0 74 55q0 53 -88 53q-44 0 -100 -21q-19 -7 -26 10l-14 34q-5 14 12 22q54 28 139 28q76 0 119.5 -29
t43.5 -87q0 -65 -60 -92q68 -29 68 -101q0 -64 -44.5 -98.5t-123.5 -34.5q-86 0 -144 29q-11 5 -14 9.5t0 12.5l13 34q8 19 27 12q55 -23 109 -23q90 0 90 61q0 56 -82 56z" />
    <glyph glyph-name="oneeighth" unicode="&#x215b;" horiz-adv-x="998" 
d="M727 685l-413 -668q-9 -17 -25 -17h-54q-23 0 -11 19l412 668q9 16 26 16h54q22 0 11 -18zM785 -6q83 0 128.5 34t45.5 89q0 79 -92 105q81 28 81 98q0 54 -42.5 85t-120.5 31t-121 -31.5t-43 -84.5q0 -69 81 -98q-91 -26 -91 -105q0 -55 45 -89t129 -34zM785 194
q89 -20 89 -71q0 -26 -24 -43.5t-65 -17.5q-42 0 -66 17.5t-24 43.5q0 52 90 71zM785 249q-79 22 -79 69q0 50 79 50q78 0 78 -50q0 -47 -78 -69zM200 601l-74 -45q-18 -11 -29 5l-20 30q-10 15 5 25l114 79q10 8 26 8h42q21 0 21 -20v-390q0 -20 -21 -20h-44q-20 0 -20 20
v308z" />
    <glyph glyph-name="threeeighths" unicode="&#x215c;" horiz-adv-x="998" 
d="M198 458h-49q-20 0 -20 20v29q0 21 20 21h50q74 0 74 55q0 53 -88 53q-44 0 -100 -21q-19 -7 -26 10l-14 34q-5 14 12 22q54 28 139 28q76 0 119.5 -29t43.5 -87q0 -65 -60 -92q68 -29 68 -101q0 -64 -44.5 -98.5t-123.5 -34.5q-86 0 -144 29q-11 5 -14 9.5t0 12.5l13 34
q8 19 27 12q55 -23 109 -23q90 0 90 61q0 56 -82 56zM741 685l-413 -668q-9 -17 -25 -17h-54q-23 0 -11 19l412 668q9 16 26 16h54q22 0 11 -18zM785 -6q-84 0 -129 34t-45 89q0 79 91 105q-81 29 -81 98q0 53 43 84.5t121 31.5t120.5 -31t42.5 -85q0 -70 -81 -98
q92 -26 92 -105q0 -55 -45.5 -89t-128.5 -34zM785 194q-90 -19 -90 -71q0 -26 24 -43.5t66 -17.5q41 0 65 17.5t24 43.5q0 51 -89 71zM785 249q78 22 78 69q0 50 -78 50q-79 0 -79 -50q0 -47 79 -69z" />
    <glyph glyph-name="fiveeighths" unicode="&#x215d;" horiz-adv-x="998" 
d="M373 414q0 -72 -46 -109.5t-129 -37.5q-93 0 -141 26q-18 10 -12 25l13 34q6 16 25 9q51 -20 109 -20q95 0 95 74q0 34 -20 50t-68 16q-28 0 -56.5 -7t-42.5 -7q-10 0 -19 4l-18 9q-13 6 -12 19q13 125 13 182q0 22 25 22h236q21 0 21 -20v-34q0 -20 -21 -20h-185
q-2 -53 -7 -97q42 14 83 14q157 0 157 -132zM742 685l-413 -668q-9 -17 -25 -17h-54q-23 0 -11 19l412 668q9 16 26 16h54q21 0 11 -18zM785 -6q-84 0 -129 34t-45 89q0 79 91 105q-81 29 -81 98q0 53 43 84.5t121 31.5t120.5 -31t42.5 -85q0 -70 -81 -98q92 -26 92 -105
q0 -55 -45.5 -89t-128.5 -34zM785 194q-90 -19 -90 -71q0 -26 24 -43.5t66 -17.5q41 0 65 17.5t24 43.5q0 51 -89 71zM785 249q78 22 78 69q0 50 -78 50q-79 0 -79 -50q0 -47 79 -69z" />
    <glyph glyph-name="seveneighths" unicode="&#x215e;" horiz-adv-x="998" 
d="M372 683v-26q0 -11 -11 -26q-60 -85 -105.5 -178.5t-49.5 -159.5q0 -20 -20 -20h-47q-20 0 -20 20q3 69 47.5 159t111.5 177h-208q-20 0 -20 20v34q0 20 20 20h280q22 0 22 -20zM690 685l-413 -668q-9 -17 -25 -17h-54q-23 0 -11 19l412 668q9 16 26 16h54q22 0 11 -18z
M785 -6q-84 0 -129 34t-45 89q0 79 91 105q-81 29 -81 98q0 53 43 84.5t121 31.5t120.5 -31t42.5 -85q0 -70 -81 -98q92 -26 92 -105q0 -55 -45.5 -89t-128.5 -34zM785 194q-90 -19 -90 -71q0 -26 24 -43.5t66 -17.5q41 0 65 17.5t24 43.5q0 51 -89 71zM785 249q78 22 78 69
q0 50 -78 50q-79 0 -79 -50q0 -47 79 -69z" />
    <glyph glyph-name="arrowleft" unicode="&#x2190;" horiz-adv-x="655" 
d="M378 474l-180 -169l380 3q20 0 20 -18v-56q0 -18 -20 -18l-380 3l180 -169q6 -6 3.5 -13t-11.5 -7h-76q-12 0 -21 9l-209 208q-7 7 -7 15q0 7 7 14l209 208q10 10 21 10h76q9 0 11.5 -7.5t-3.5 -12.5z" />
    <glyph glyph-name="arrowup" unicode="&#x2191;" horiz-adv-x="655" 
d="M543 229l-169 181l3 -381q0 -19 -18 -19h-56q-18 0 -18 19l3 381l-169 -181q-6 -6 -13 -4t-7 11v77q0 13 9 22l208 208q5 6 15 6q8 0 14 -6l209 -208q9 -9 9 -22v-77q0 -9 -7 -11t-13 4z" />
    <glyph glyph-name="arrowright" unicode="&#x2192;" horiz-adv-x="655" 
d="M457 305l-180 169q-6 6 -4 13t11 7h76q12 0 22 -10l208 -208q6 -6 6 -14q0 -10 -6 -15l-208 -208q-9 -9 -22 -9h-76q-9 0 -11.5 7t4.5 13l180 169l-381 -3q-19 0 -19 18v56q0 18 19 18z" />
    <glyph glyph-name="arrowdown" unicode="&#x2193;" horiz-adv-x="655" 
d="M119 294l169 -180l-3 380q0 20 18 20h56q18 0 18 -20l-3 -380l169 180q6 6 13 3.5t7 -11.5v-76q0 -14 -9 -21l-209 -209q-5 -6 -14 -6t-15 6l-208 209q-9 9 -9 21v76q0 9 7.5 11.5t12.5 -3.5z" />
    <glyph glyph-name="arrowboth" unicode="&#x2194;" horiz-adv-x="1016" 
d="M819 305l-180 169q-6 6 -4 13t11 7h76q12 0 22 -10l208 -208q7 -7 7 -14q0 -8 -7 -15l-208 -208q-9 -9 -22 -9h-76q-9 0 -11.5 7t4.5 13l180 169l-314 -6l-307 6l180 -169q6 -6 3.5 -13t-11.5 -7h-76q-12 0 -21 9l-209 208q-7 7 -7 15t7 14l209 208q10 10 21 10h76
q9 0 11.5 -7.5t-3.5 -12.5l-180 -169l307 5z" />
    <glyph glyph-name="arrowupdn" unicode="&#x2195;" horiz-adv-x="655" 
d="M370 27l169 180q6 6 13.5 3.5t7.5 -11.5v-76q0 -11 -10 -21l-208 -208q-7 -8 -15 -8q-6 0 -14 8l-208 208q-10 10 -10 21v76q0 9 7.5 11.5t12.5 -3.5l170 -180l-6 238l6 232l-170 -180q-6 -6 -13 -4t-7 11v76q0 13 10 22l208 208q6 6 14 6q9 0 15 -6l208 -208
q10 -12 10 -22v-76q0 -9 -7.5 -11.5t-13.5 4.5l-169 180l6 -232z" />
    <glyph glyph-name="arrowupleft" unicode="&#x2196;" horiz-adv-x="655" 
d="M512 384l-247 9l271 -268q15 -15 1 -27l-39 -37q-14 -14 -27 0l-266 271l8 -248q0 -8 -6.5 -11t-13.5 3l-53 53q-10 9 -10 23v294q0 10 5 16q4 4 16 4l294 1q14 0 23 -9l53 -54q6 -6 3 -12.5t-12 -7.5z" />
    <glyph glyph-name="arrowupright" unicode="&#x2197;" horiz-adv-x="655" 
d="M389 393l-247 -9q-9 0 -12 7t3 13l54 54q8 9 22 9l295 -1q7 0 14 -5q6 -6 6 -15v-294q0 -15 -9 -23l-54 -53q-6 -6 -12.5 -3t-6.5 11l8 248l-267 -271q-12 -13 -27 0l-38 37q-14 13 0 27z" />
    <glyph glyph-name="arrowdownright" unicode="&#x2198;" horiz-adv-x="655" 
d="M142 119l247 -8l-271 267q-14 12 0 27l38 38q14 13 27 0l267 -271l-8 247q0 8 6.5 11.5t12.5 -2.5l54 -54q9 -8 9 -22v-295q0 -8 -6 -14t-14 -6h-295q-13 0 -23 10l-53 53q-6 7 -2.5 13t11.5 6z" />
    <glyph glyph-name="arrowdownleft" unicode="&#x2199;" horiz-adv-x="655" 
d="M265 111l247 8q8 0 11.5 -6t-2.5 -13l-53 -54q-9 -9 -23 -9h-294q-8 0 -15 6q-6 6 -6 14v295q0 11 10 22l53 54q6 6 13 2.5t7 -11.5l-8 -247l266 271q13 13 27 0l39 -38q13 -13 -1 -27z" />
    <glyph glyph-name="partialdiff" unicode="&#x2202;" horiz-adv-x="647" 
d="M187 605q-20 -5 -23 11l-11 51q-3 15 16 22q62 26 148 26q140 0 209.5 -87t69.5 -241q0 -62 -10.5 -118t-34 -107.5t-58 -89t-86 -60t-115.5 -22.5q-119 0 -184 61.5t-65 166.5q0 114 69.5 189t191.5 75q79 0 126.5 -40.5t59.5 -89.5q4 40 4 55q-1 105 -51 161t-139 56
q-58 0 -117 -19zM288 81q82 0 127 48t45 128q0 64 -37.5 102t-106.5 38q-76 0 -124 -46.5t-48 -127.5q0 -65 37.5 -103.5t106.5 -38.5z" />
    <glyph glyph-name="Delta" unicode="&#x2206;" horiz-adv-x="685" 
d="M293 703h99q18 0 24 -19l214 -655q4 -12 -2 -20.5t-20 -8.5h-531q-14 0 -20 8.5t-2 20.5l213 655q6 19 25 19zM341 611l-167 -520h336l-165 520h-4z" />
    <glyph glyph-name="product" unicode="&#x220f;" horiz-adv-x="766" 
d="M38 628v56q0 19 20 19h651q19 0 19 -19v-56q0 -19 -19 -19h-102v-590q0 -19 -20 -19h-66q-20 0 -20 19v590h-236v-590q0 -19 -19 -19h-68q-19 0 -19 19v590h-101q-20 0 -20 19z" />
    <glyph glyph-name="summation" unicode="&#x2211;" horiz-adv-x="603" 
d="M404 270l-233 -287h368q19 0 19 -19v-55q0 -19 -19 -19h-469q-21 0 -21 20v52q0 16 13 33l243 305l-239 296q-11 14 -11 32v56q0 19 20 19h458q19 0 19 -19v-54q0 -20 -19 -20h-360l231 -281q6 -7 6 -18v-23q0 -10 -6 -18z" />
    <glyph glyph-name="minus" unicode="&#x2212;" horiz-adv-x="594" 
d="M511 302h-429q-18 0 -18 17v50q0 18 19 18h428q18 0 18 -18v-50q0 -17 -18 -17z" />
    <glyph glyph-name="uni2215" unicode="&#x2215;" horiz-adv-x="77" 
d="M290 685l-413 -668q-9 -17 -25 -17h-54q-23 0 -11 19l412 668q9 16 26 16h54q21 0 11 -18z" />
    <glyph glyph-name="uni2219" unicode="&#x2219;" horiz-adv-x="237" 
d="M61 222v85q0 19 20 19h75q20 0 20 -19v-85q0 -19 -19 -19h-77q-19 0 -19 19z" />
    <glyph glyph-name="radical" unicode="&#x221a;" horiz-adv-x="696" 
d="M397 -70h-84q-19 0 -27 19l-148 397h-71q-20 0 -20 18v50q0 19 20 19h136q18 0 24 -18l122 -350h4l184 680q5 18 21 18h74q21 0 15 -21l-226 -793q-5 -19 -24 -19z" />
    <glyph glyph-name="infinity" unicode="&#x221e;" horiz-adv-x="744" 
d="M381 464q41 55 136 55q88 0 130.5 -45t42.5 -124q0 -73 -42 -121t-135 -48q-100 0 -149 56q-41 -55 -137 -55q-89 0 -134.5 45.5t-45.5 124.5q0 72 45 119.5t140 47.5q98 0 149 -55zM328 337l22 76q-31 46 -108 46q-111 0 -111 -112q0 -48 25.5 -74.5t71.5 -26.5
q48 0 66.5 18.5t33.5 72.5zM416 364l-22 -76q31 -46 109 -46q110 0 110 112q0 100 -97 100q-48 0 -66.5 -18.5t-33.5 -71.5z" />
    <glyph glyph-name="integral" unicode="&#x222b;" horiz-adv-x="401" 
d="M149 46v511q0 77 29.5 115t97.5 38q44 0 73 -9q16 -5 15 -20l-6 -48q-1 -16 -18 -15q-3 0 -15.5 2t-20.5 2q-29 0 -40 -18t-11 -56v-511q0 -76 -30 -114t-98 -38q-43 0 -72 8q-17 5 -16 19l6 49q2 18 18 15q30 -5 37 -5q51 0 51 75z" />
    <glyph glyph-name="approxequal" unicode="&#x2248;" horiz-adv-x="594" 
d="M528 264q-8 -95 -102 -95q-41 0 -93 19l-78 30q-51 19 -73 19q-27 0 -39 -29l-5 -12q-5 -13 -20 -13h-30q-25 0 -22 31q12 96 103 96q37 0 93 -21l70 -24q67 -23 82 -23q26 0 37 28l5 13q5 13 20 13h30q25 0 22 -32zM528 481q-8 -95 -102 -95q-41 0 -93 19l-78 30
q-51 19 -73 19q-30 0 -39 -28l-5 -13q-4 -13 -20 -13h-30q-25 0 -22 31q12 96 103 96q33 0 93 -21l70 -24q65 -24 81 -24q28 0 38 29l5 13q4 13 20 13h30q25 0 22 -32z" />
    <glyph glyph-name="notequal" unicode="&#x2260;" horiz-adv-x="594" 
d="M506 212h-229l-95 -193q-10 -19 -25 -19h-47q-23 0 -14 20l93 192h-102q-18 0 -18 18v47q0 18 19 18h139l51 107h-191q-18 0 -18 18v47q0 18 19 18h229l99 203q7 15 22 15h50q23 0 13 -21l-96 -197h101q19 0 19 -18v-47q0 -18 -19 -18h-139l-52 -107h191q19 0 19 -18v-47
q0 -18 -19 -18z" />
    <glyph glyph-name="lessequal" unicode="&#x2264;" horiz-adv-x="594" 
d="M64 387q0 12 11 20l373 264q14 10 25 -2l37 -43q12 -15 -2 -26l-316 -213l316 -214q7 -5 7.5 -12.5t-5.5 -13.5l-37 -43q-11 -12 -25 -2l-373 264q-11 8 -11 21zM494 0h-408q-18 0 -18 18v36q0 19 19 19h407q19 0 19 -19v-36q0 -18 -19 -18z" />
    <glyph glyph-name="greaterequal" unicode="&#x2265;" horiz-adv-x="594" 
d="M530 387q0 -14 -11 -21l-372 -264q-15 -11 -26 2l-37 43q-14 16 3 26l316 214l-316 213q-16 10 -3 26l37 43q11 12 26 2l372 -264q11 -8 11 -20zM508 0h-408q-18 0 -18 18v36q0 19 18 19h407q19 0 19 -19v-36q0 -18 -18 -18z" />
    <glyph glyph-name="lozenge" unicode="&#x25ca;" horiz-adv-x="685" 
d="M343 129l174 223l-174 223l-175 -223zM343 -9q-10 0 -18 9l-264 340q-4 5 -4 12t4 11l264 340q7 9 18 9q9 0 17 -9l264 -340q4 -5 4 -11q0 -7 -4 -12l-264 -340q-7 -9 -17 -9z" />
    <glyph glyph-name="uniE000" unicode="&#xe000;" horiz-adv-x="500" 
 />
    <glyph glyph-name="Q.alt" unicode="&#xe001;" horiz-adv-x="717" 
d="M303 -90l7 87q-123 14 -190.5 105.5t-67.5 249.5q0 176 79.5 269t226.5 93q148 0 227.5 -93t79.5 -269q0 -157 -67.5 -249t-190.5 -106l7 -87q1 -20 -19 -20h-73q-21 0 -19 20zM358 87q195 0 195 265t-195 265q-194 0 -194 -264q0 -266 194 -266z" />
    <glyph glyph-name="a.alt" unicode="&#xe002;" horiz-adv-x="622" 
d="M446 262q0 92 -38.5 138.5t-109.5 46.5q-143 0 -143 -184q0 -187 143 -187q70 0 109 47.5t39 138.5zM549 503v-484q0 -19 -18 -19h-63q-19 0 -19 17l-2 65q-42 -92 -176 -92q-104 0 -163.5 69t-59.5 203q0 133 59.5 202.5t164.5 69.5q58 0 106 -25t69 -68l2 64
q0 17 19 17h63q18 0 18 -19z" />
    <glyph glyph-name="u.alt" unicode="&#xe003;" horiz-adv-x="579" 
d="M289 -10q-102 0 -162.5 50.5t-60.5 144.5v318q0 19 19 19h66q19 0 19 -19v-313q0 -51 31 -80t88 -29q58 0 89 28.5t31 80.5v313q0 19 18 19h66q19 0 19 -19v-318q0 -95 -60 -145t-163 -50z" />
    <glyph glyph-name="y.alt" unicode="&#xe004;" horiz-adv-x="586" 
d="M414 88v50q-47 -86 -166 -86q-91 0 -136.5 49.5t-45.5 140.5v261q0 19 19 19h66q19 0 19 -19v-245q0 -57 24.5 -86.5t81.5 -29.5q60 0 97 36t37 97v228q0 19 18 19h67q18 0 18 -19v-422q0 -97 -62 -150t-174 -53q-104 0 -170 30q-15 6 -12 22l7 47q3 19 24 12
q75 -26 142 -26q72 0 109 32t37 93z" />
    <glyph glyph-name="j.alt" unicode="&#xe005;" horiz-adv-x="254" 
d="M179 503v-594q0 -19 -19 -19h-66q-19 0 -19 19v594q0 19 19 19h66q19 0 19 -19zM179 681v-76q0 -20 -19 -20h-67q-18 0 -18 20v76q0 19 18 19h67q19 0 19 -19z" />
    <glyph glyph-name="agrave.alt" unicode="&#xe006;" horiz-adv-x="622" 
d="M446 262q0 92 -38.5 138.5t-109.5 46.5q-143 0 -143 -184q0 -187 143 -187q70 0 109 47.5t39 138.5zM549 503v-484q0 -19 -18 -19h-63q-19 0 -19 17l-2 65q-42 -92 -176 -92q-104 0 -163.5 69t-59.5 203q0 133 59.5 202.5t164.5 69.5q58 0 106 -25t69 -68l2 64
q0 17 19 17h63q18 0 18 -19zM328 693l51 -87q4 -6 0.5 -11.5t-11.5 -5.5h-39q-15 0 -27 11l-91 86q-6 6 -3.5 13.5t11.5 7.5h85q16 0 24 -14z" />
    <glyph glyph-name="aacute.alt" unicode="&#xe007;" horiz-adv-x="622" 
d="M446 262q0 92 -38.5 138.5t-109.5 46.5q-143 0 -143 -184q0 -187 143 -187q70 0 109 47.5t39 138.5zM549 503v-484q0 -19 -18 -19h-63q-19 0 -19 17l-2 65q-42 -92 -176 -92q-104 0 -163.5 69t-59.5 203q0 133 59.5 202.5t164.5 69.5q58 0 106 -25t69 -68l2 64
q0 17 19 17h63q18 0 18 -19zM248 606l51 87q7 14 24 14h85q10 0 12 -7.5t-5 -13.5l-91 -86q-11 -11 -26 -11h-39q-9 0 -12 5.5t1 11.5z" />
    <glyph glyph-name="acircumflex.alt" unicode="&#xe008;" horiz-adv-x="622" 
d="M446 262q0 92 -38.5 138.5t-109.5 46.5q-143 0 -143 -184q0 -187 143 -187q70 0 109 47.5t39 138.5zM549 503v-484q0 -19 -18 -19h-63q-19 0 -19 17l-2 65q-42 -92 -176 -92q-104 0 -163.5 69t-59.5 203q0 133 59.5 202.5t164.5 69.5q58 0 106 -25t69 -68l2 64
q0 17 19 17h63q18 0 18 -19zM386 600l-69 54l-70 -54q-14 -11 -24 -11h-43q-9 0 -11 6t4 12l94 94q11 11 26 11h47q15 0 26 -11l94 -94q4 -4 4.5 -8t-2.5 -7t-9 -3h-43q-10 0 -24 11z" />
    <glyph glyph-name="atilde.alt" unicode="&#xe009;" horiz-adv-x="622" 
d="M446 262q0 92 -38.5 138.5t-109.5 46.5q-143 0 -143 -184q0 -187 143 -187q70 0 109 47.5t39 138.5zM549 503v-484q0 -19 -18 -19h-63q-19 0 -19 17l-2 65q-42 -92 -176 -92q-104 0 -163.5 69t-59.5 203q0 133 59.5 202.5t164.5 69.5q58 0 106 -25t69 -68l2 64
q0 17 19 17h63q18 0 18 -19zM475 661q0 -73 -68 -73q-36 0 -86 18l-28 10q-66 25 -72 -3l-2 -9q-3 -14 -20 -14h-26q-17 0 -17 23q0 73 68 73q34 0 86 -19l29 -10q39 -13 51 -13q20 0 21 20l1 7q2 15 20 15h27q16 0 16 -25z" />
    <glyph glyph-name="adieresis.alt" unicode="&#xe00a;" horiz-adv-x="622" 
d="M446 262q0 92 -38.5 138.5t-109.5 46.5q-143 0 -143 -184q0 -187 143 -187q70 0 109 47.5t39 138.5zM549 503v-484q0 -19 -18 -19h-63q-19 0 -19 17l-2 65q-42 -92 -176 -92q-104 0 -163.5 69t-59.5 203q0 133 59.5 202.5t164.5 69.5q58 0 106 -25t69 -68l2 64
q0 17 19 17h63q18 0 18 -19zM272 678v-71q0 -18 -19 -18h-61q-19 0 -19 18v71q0 19 19 19h61q19 0 19 -19zM460 678v-71q0 -18 -19 -18h-61q-19 0 -19 18v71q0 19 19 19h61q19 0 19 -19z" />
    <glyph glyph-name="amacron.alt" unicode="&#xe00b;" horiz-adv-x="622" 
d="M446 262q0 92 -38.5 138.5t-109.5 46.5q-143 0 -143 -184q0 -187 143 -187q70 0 109 47.5t39 138.5zM549 503v-484q0 -19 -18 -19h-63q-19 0 -19 17l-2 65q-42 -92 -176 -92q-104 0 -163.5 69t-59.5 203q0 133 59.5 202.5t164.5 69.5q58 0 106 -25t69 -68l2 64
q0 17 19 17h63q18 0 18 -19zM461 594h-291q-18 0 -18 18v30q0 18 18 18h291q18 0 18 -18v-30q0 -18 -18 -18z" />
    <glyph glyph-name="abreve.alt" unicode="&#xe00c;" horiz-adv-x="622" 
d="M446 262q0 92 -38.5 138.5t-109.5 46.5q-143 0 -143 -184q0 -187 143 -187q70 0 109 47.5t39 138.5zM549 503v-484q0 -19 -18 -19h-63q-19 0 -19 17l-2 65q-42 -92 -176 -92q-104 0 -163.5 69t-59.5 203q0 133 59.5 202.5t164.5 69.5q58 0 106 -25t69 -68l2 64
q0 17 19 17h63q18 0 18 -19zM316 585q-73 0 -108.5 33.5t-36.5 82.5q0 15 15 15h32q13 0 16 -14q7 -28 24.5 -42.5t57.5 -14.5t56.5 14.5t23.5 42.5q4 14 17 14h32q14 0 14 -15q0 -49 -35 -82.5t-108 -33.5z" />
    <glyph glyph-name="aring.alt" unicode="&#xe00d;" horiz-adv-x="622" 
d="M446 262q0 92 -38.5 138.5t-109.5 46.5q-143 0 -143 -184q0 -187 143 -187q70 0 109 47.5t39 138.5zM549 503v-484q0 -19 -18 -19h-63q-19 0 -19 17l-2 65q-42 -92 -176 -92q-104 0 -163.5 69t-59.5 203q0 133 59.5 202.5t164.5 69.5q58 0 106 -25t69 -68l2 64
q0 17 19 17h63q18 0 18 -19zM316 630q26 0 41 14t15 38q0 23 -15.5 36.5t-41.5 13.5t-41 -13.5t-15 -36.5q0 -25 15 -38.5t42 -13.5zM315 780q49 0 79.5 -27.5t30.5 -70.5q0 -44 -30.5 -71.5t-78.5 -27.5q-49 0 -79 27.5t-30 71.5t30 71t78 27z" />
    <glyph glyph-name="aringacute.alt" unicode="&#xe00e;" horiz-adv-x="622" 
d="M549 503v-484q0 -19 -18 -19h-63q-19 0 -19 17l-2 65q-42 -92 -176 -92q-104 0 -163.5 69t-59.5 203q0 133 59.5 202.5t164.5 69.5q58 0 106 -25t69 -68l2 64q0 17 19 17h63q18 0 18 -19zM446 262q0 92 -38.5 138.5t-109.5 46.5q-143 0 -143 -184q0 -187 143 -187
q70 0 109 47.5t39 138.5zM207 682q0 62 56 88l42 71q7 14 24 14h85q10 0 12 -7.5t-5 -13.5l-64 -61q31 -10 49.5 -34t18.5 -57q0 -44 -30.5 -71.5t-78.5 -27.5q-49 0 -79 27.5t-30 71.5zM316 630q26 0 41 14t15 38q0 23 -15.5 36.5t-41.5 13.5t-41 -13.5t-15 -36.5
q0 -25 15 -38.5t42 -13.5z" />
    <glyph glyph-name="aogonek.alt" unicode="&#xe00f;" horiz-adv-x="622" 
d="M549 503v-484q0 -19 -18 -19h-13q-62 -28 -62 -69q0 -30 48 -30q8 0 33 5q10 2 12 -7l7 -29q4 -11 -6 -14q-24 -15 -67 -15q-93 0 -93 68q0 27 20.5 51.5t51.5 39.5q-13 3 -13 17l-2 65q-42 -92 -176 -92q-104 0 -163.5 69t-59.5 203q0 133 59.5 202.5t164.5 69.5
q58 0 106 -25t69 -68l2 64q0 17 19 17h63q18 0 18 -19zM446 262q0 92 -38.5 138.5t-109.5 46.5q-143 0 -143 -184q0 -187 143 -187q70 0 109 47.5t39 138.5z" />
    <glyph glyph-name="ij.alt" unicode="&#xe010;" horiz-adv-x="499" 
d="M179 503v-484q0 -19 -19 -19h-66q-19 0 -19 19v484q0 19 19 19h66q19 0 19 -19zM179 681v-76q0 -20 -19 -20h-67q-18 0 -18 20v76q0 19 18 19h67q19 0 19 -19zM424 503v-594q0 -19 -19 -19h-66q-19 0 -19 19v594q0 19 19 19h66q19 0 19 -19zM424 681v-76q0 -20 -19 -20
h-67q-18 0 -18 20v76q0 19 18 19h67q19 0 19 -19z" />
    <glyph glyph-name="jcircumflex.alt" unicode="&#xe011;" horiz-adv-x="255" 
d="M179 503v-594q0 -19 -19 -19h-66q-19 0 -19 19v594q0 19 19 19h66q19 0 19 -19zM197 600l-69 54l-70 -54q-14 -11 -24 -11h-43q-9 0 -11 6t4 12l94 94q11 11 26 11h47q15 0 26 -11l94 -94q4 -4 4.5 -8t-2.5 -7t-9 -3h-43q-10 0 -24 11z" />
    <glyph glyph-name="dotlessj.alt" unicode="&#xe012;" horiz-adv-x="254" 
d="M179 503v-594q0 -19 -19 -19h-66q-19 0 -19 19v594q0 19 19 19h66q19 0 19 -19z" />
    <glyph glyph-name="ugrave.alt" unicode="&#xe013;" horiz-adv-x="579" 
d="M289 -10q-102 0 -162.5 50.5t-60.5 144.5v318q0 19 19 19h66q19 0 19 -19v-313q0 -51 31 -80t88 -29q58 0 89 28.5t31 80.5v313q0 19 18 19h66q19 0 19 -19v-318q0 -95 -60 -145t-163 -50zM292 693l51 -87q4 -6 0.5 -11.5t-11.5 -5.5h-39q-15 0 -27 11l-91 86
q-6 6 -3.5 13.5t11.5 7.5h85q16 0 24 -14z" />
    <glyph glyph-name="uacute.alt" unicode="&#xe014;" horiz-adv-x="579" 
d="M289 -10q-102 0 -162.5 50.5t-60.5 144.5v318q0 19 19 19h66q19 0 19 -19v-313q0 -51 31 -80t88 -29q58 0 89 28.5t31 80.5v313q0 19 18 19h66q19 0 19 -19v-318q0 -95 -60 -145t-163 -50zM236 606l51 87q7 14 24 14h85q10 0 12 -7.5t-5 -13.5l-91 -86q-11 -11 -26 -11
h-39q-9 0 -12 5.5t1 11.5z" />
    <glyph glyph-name="ucircumflex.alt" unicode="&#xe015;" horiz-adv-x="579" 
d="M289 -10q-102 0 -162.5 50.5t-60.5 144.5v318q0 19 19 19h66q19 0 19 -19v-313q0 -51 31 -80t88 -29q58 0 89 28.5t31 80.5v313q0 19 18 19h66q19 0 19 -19v-318q0 -95 -60 -145t-163 -50zM359 600l-69 54l-70 -54q-14 -11 -24 -11h-43q-9 0 -11 6t4 12l94 94
q11 11 26 11h47q15 0 26 -11l94 -94q4 -4 4.5 -8t-2.5 -7t-9 -3h-43q-10 0 -24 11z" />
    <glyph glyph-name="utilde.alt" unicode="&#xe016;" horiz-adv-x="579" 
d="M289 -10q-102 0 -162.5 50.5t-60.5 144.5v318q0 19 19 19h66q19 0 19 -19v-313q0 -51 31 -80t88 -29q58 0 89 28.5t31 80.5v313q0 19 18 19h66q19 0 19 -19v-318q0 -95 -60 -145t-163 -50zM449 661q0 -73 -68 -73q-36 0 -86 18l-28 10q-66 25 -72 -3l-2 -9
q-3 -14 -20 -14h-26q-17 0 -17 23q0 73 68 73q34 0 86 -19l29 -10q39 -13 51 -13q20 0 21 20l1 7q2 15 20 15h27q16 0 16 -25z" />
    <glyph glyph-name="udieresis.alt" unicode="&#xe017;" horiz-adv-x="579" 
d="M289 -10q-102 0 -162.5 50.5t-60.5 144.5v318q0 19 19 19h66q19 0 19 -19v-313q0 -51 31 -80t88 -29q58 0 89 28.5t31 80.5v313q0 19 18 19h66q19 0 19 -19v-318q0 -95 -60 -145t-163 -50zM245 678v-71q0 -18 -19 -18h-61q-19 0 -19 18v71q0 19 19 19h61q19 0 19 -19z
M433 678v-71q0 -18 -19 -18h-61q-19 0 -19 18v71q0 19 19 19h61q19 0 19 -19z" />
    <glyph glyph-name="umacron.alt" unicode="&#xe018;" horiz-adv-x="579" 
d="M289 -10q-102 0 -162.5 50.5t-60.5 144.5v318q0 19 19 19h66q19 0 19 -19v-313q0 -51 31 -80t88 -29q58 0 89 28.5t31 80.5v313q0 19 18 19h66q19 0 19 -19v-318q0 -95 -60 -145t-163 -50zM435 594h-291q-18 0 -18 18v30q0 18 18 18h291q18 0 18 -18v-30q0 -18 -18 -18z
" />
    <glyph glyph-name="ubreve.alt" unicode="&#xe019;" horiz-adv-x="579" 
d="M289 -10q-102 0 -162.5 50.5t-60.5 144.5v318q0 19 19 19h66q19 0 19 -19v-313q0 -51 31 -80t88 -29q58 0 89 28.5t31 80.5v313q0 19 18 19h66q19 0 19 -19v-318q0 -95 -60 -145t-163 -50zM290 585q-73 0 -108.5 33.5t-36.5 82.5q0 15 15 15h32q13 0 16 -14
q7 -28 24.5 -42.5t57.5 -14.5t56.5 14.5t23.5 42.5q4 14 17 14h32q14 0 14 -15q0 -49 -35 -82.5t-108 -33.5z" />
    <glyph glyph-name="uring.alt" unicode="&#xe01a;" horiz-adv-x="579" 
d="M289 -10q-102 0 -162.5 50.5t-60.5 144.5v318q0 19 19 19h66q19 0 19 -19v-313q0 -51 31 -80t88 -29q58 0 89 28.5t31 80.5v313q0 19 18 19h66q19 0 19 -19v-318q0 -95 -60 -145t-163 -50zM290 630q26 0 41 14t15 38q0 23 -15.5 36.5t-41.5 13.5t-41 -13.5t-15 -36.5
q0 -25 15 -38.5t42 -13.5zM289 780q49 0 79.5 -27.5t30.5 -70.5q0 -44 -30.5 -71.5t-78.5 -27.5q-49 0 -79 27.5t-30 71.5t30 71t78 27z" />
    <glyph glyph-name="uhungarumlaut.alt" unicode="&#xe01b;" horiz-adv-x="579" 
d="M289 -10q-102 0 -162.5 50.5t-60.5 144.5v318q0 19 19 19h66q19 0 19 -19v-313q0 -51 31 -80t88 -29q58 0 89 28.5t31 80.5v313q0 19 18 19h66q19 0 19 -19v-318q0 -95 -60 -145t-163 -50zM150 606l46 87q8 14 23 14h69q9 0 11.5 -7t-2.5 -14l-74 -86q-10 -11 -26 -11
h-35q-9 0 -12 5.5t0 11.5zM321 606l45 87q7 14 23 14h69q9 0 12 -7.5t-3 -13.5l-73 -86q-9 -11 -27 -11h-35q-8 0 -11 5.5t0 11.5z" />
    <glyph glyph-name="ydieresis.alt" unicode="&#xe01c;" horiz-adv-x="586" 
d="M414 88v50q-47 -86 -166 -86q-91 0 -136.5 49.5t-45.5 140.5v261q0 19 19 19h66q19 0 19 -19v-245q0 -57 24.5 -86.5t81.5 -29.5q60 0 97 36t37 97v228q0 19 18 19h67q18 0 18 -19v-422q0 -97 -62 -150t-174 -53q-104 0 -170 30q-15 6 -12 22l7 47q3 19 24 12
q75 -26 142 -26q72 0 109 32t37 93zM248 678v-71q0 -18 -19 -18h-61q-19 0 -19 18v71q0 19 19 19h61q19 0 19 -19zM436 678v-71q0 -18 -19 -18h-61q-19 0 -19 18v71q0 19 19 19h61q19 0 19 -19z" />
    <glyph glyph-name="yacute.alt" unicode="&#xe01d;" horiz-adv-x="586" 
d="M414 88v50q-47 -86 -166 -86q-91 0 -136.5 49.5t-45.5 140.5v261q0 19 19 19h66q19 0 19 -19v-245q0 -57 24.5 -86.5t81.5 -29.5q60 0 97 36t37 97v228q0 19 18 19h67q18 0 18 -19v-422q0 -97 -62 -150t-174 -53q-104 0 -170 30q-15 6 -12 22l7 47q3 19 24 12
q75 -26 142 -26q72 0 109 32t37 93zM235 606l51 87q7 14 24 14h85q10 0 12 -7.5t-5 -13.5l-91 -86q-11 -11 -26 -11h-39q-9 0 -12 5.5t1 11.5z" />
    <glyph glyph-name="ycircumflex.alt" unicode="&#xe01e;" horiz-adv-x="586" 
d="M414 88v50q-47 -86 -166 -86q-91 0 -136.5 49.5t-45.5 140.5v261q0 19 19 19h66q19 0 19 -19v-245q0 -57 24.5 -86.5t81.5 -29.5q60 0 97 36t37 97v228q0 19 18 19h67q18 0 18 -19v-422q0 -97 -62 -150t-174 -53q-104 0 -170 30q-15 6 -12 22l7 47q3 19 24 12
q75 -26 142 -26q72 0 109 32t37 93zM356 600l-69 54l-70 -54q-14 -11 -24 -11h-43q-9 0 -11 6t4 12l94 94q11 11 26 11h47q15 0 26 -11l94 -94q4 -4 4.5 -8t-2.5 -7t-9 -3h-43q-10 0 -24 11z" />
    <glyph glyph-name="ygrave.alt" unicode="&#xe01f;" horiz-adv-x="586" 
d="M414 88v50q-47 -86 -166 -86q-91 0 -136.5 49.5t-45.5 140.5v261q0 19 19 19h66q19 0 19 -19v-245q0 -57 24.5 -86.5t81.5 -29.5q60 0 97 36t37 97v228q0 19 18 19h67q18 0 18 -19v-422q0 -97 -62 -150t-174 -53q-104 0 -170 30q-15 6 -12 22l7 47q3 19 24 12
q75 -26 142 -26q72 0 109 32t37 93zM285 693l51 -87q4 -6 0.5 -11.5t-11.5 -5.5h-39q-15 0 -27 11l-91 86q-6 6 -3.5 13.5t11.5 7.5h85q16 0 24 -14z" />
    <glyph glyph-name="i.dot" unicode="&#xe020;" horiz-adv-x="254" 
d="M179 503v-484q0 -19 -19 -19h-66q-19 0 -19 19v484q0 19 19 19h66q19 0 19 -19zM179 681v-76q0 -20 -19 -20h-67q-18 0 -18 20v76q0 19 18 19h67q19 0 19 -19z" />
    <glyph glyph-name="dollar.old" unicode="&#xe021;" horiz-adv-x="532" 
d="M306 653v-61q85 -4 141 -29q19 -9 14 -23l-17 -46q-7 -19 -27 -12q-61 23 -129 23q-129 0 -129 -69q0 -8 2 -15.5t5 -13.5t10 -12t11.5 -10.5t15 -10l16.5 -8.5t19.5 -8l20 -7.5t22 -8t22.5 -8.5q42 -16 69 -29.5t56.5 -35t44 -51.5t14.5 -68q0 -65 -47 -106t-134 -49
v-61q0 -18 -18 -18h-35q-18 0 -18 18v58q-107 3 -178 31q-21 8 -15 22l19 50q7 19 25 12q65 -27 159 -27q135 0 135 71q0 25 -18 43.5t-40.5 29t-61.5 25.5l-9 3q-102 38 -131 57q-68 44 -68 130q0 61 46 102.5t137 50.5v61q0 18 18 18h35q18 0 18 -18z" />
    <glyph glyph-name="cent.old" unicode="&#xe022;" horiz-adv-x="509" 
d="M45 291q0 269 233 298v64q0 18 18 18h35q19 0 19 -18v-63q64 -4 118 -31q18 -9 12 -24l-20 -47q-8 -19 -27 -10q-51 22 -102 22q-180 0 -180 -209q0 -208 181 -208q54 0 106 24q19 8 26 -10l20 -47q5 -11 -13 -23q-47 -28 -121 -34v-58q0 -18 -19 -18h-35q-18 0 -18 18
v59q-233 24 -233 297z" />
    <glyph glyph-name="sterling.old" unicode="&#xe023;" horiz-adv-x="585" 
d="M138 261h-76q-17 0 -17 16v30q0 16 17 16h47q-32 47 -32 96q0 73 59.5 123t169.5 50q112 0 167 -44t55 -118q0 -41 -18 -41h-59q-16 0 -16 15q0 2 0.5 9t0.5 14q0 36 -31 56.5t-91 20.5q-65 0 -98 -28t-33 -70q0 -33 29 -83h159q18 0 18 -16v-30q0 -16 -18 -16h-133
q11 -27 11 -61q0 -76 -63 -116q32 9 74 9q22 0 69 -7.5t73 -7.5q40 0 55.5 17.5t15.5 52.5q0 17 19 17h47q21 0 21 -22q0 -76 -27 -114.5t-97 -38.5q-36 0 -101 10t-98 10q-73 0 -133 -21q-17 -7 -24 3l-31 49q-8 14 5 21q55 29 79 66t24 71q0 33 -19 62z" />
    <glyph glyph-name="yen.old" unicode="&#xe024;" horiz-adv-x="555" 
d="M473 129h-143v-110q0 -19 -19 -19h-66q-20 0 -20 19v110h-143q-17 0 -17 16v28q0 16 17 16h144v23l-29 47h-115q-17 0 -17 16v27q0 17 17 17h84l-148 242q-6 7 -2.5 15t15.5 8h66q18 0 26 -16l154 -270h2l154 270q9 16 25 16h67q12 0 15.5 -8t-2.5 -15l-149 -242h84
q17 0 17 -17v-27q0 -16 -17 -16h-116l-28 -47v-23h144q17 0 17 -16v-28q0 -16 -17 -16z" />
    <glyph glyph-name="Euro.old" unicode="&#xe025;" horiz-adv-x="540" 
d="M19 268h49q-1 8 -1 27q0 8 2 30h-50q-17 0 -17 16v28q0 15 17 15h55q20 94 90 150t184 56q96 0 158 -38q19 -10 12 -22l-23 -44q-11 -18 -27 -12q-61 25 -110 25q-139 0 -173 -115h211q19 0 12 -18l-9 -26q-5 -15 -23 -15h-201q-3 -17 -3 -30q0 -9 2 -27h164q18 0 12 -19
l-10 -26q-5 -14 -22 -14h-134q14 -56 57 -91t117 -35q47 0 111 25q17 7 27 -11l23 -44q6 -13 -11 -23q-60 -38 -160 -38q-115 0 -185 60t-90 157h-54q-17 0 -17 16v27q0 16 17 16z" />
    <glyph glyph-name="zero.old" unicode="&#xe026;" horiz-adv-x="593" 
d="M296 589q118 0 183.5 -76.5t65.5 -222.5q0 -144 -65.5 -220.5t-182.5 -76.5t-183 77t-66 221q0 145 65.5 221.5t182.5 76.5zM296 85q142 0 142 205q0 207 -142 207q-141 0 -141 -206t141 -206z" />
    <glyph glyph-name="one.old" unicode="&#xe027;" horiz-adv-x="543" 
d="M474 0h-366q-19 0 -19 19v53q0 19 19 19h139v380l-110 -73q-14 -8 -25 3l-33 38q-9 13 2 22l159 118q10 7 24 7h68q19 0 19 -19v-476h123q19 0 19 -19v-53q0 -19 -19 -19z" />
    <glyph glyph-name="two.old" unicode="&#xe028;" horiz-adv-x="536" 
d="M42 18v46q0 13 15 22q147 92 202 137q117 98 118 185q0 39 -28.5 66t-89.5 27q-64 0 -91 -25.5t-26 -62.5q0 -13 1.5 -26.5t1.5 -16.5q0 -17 -19 -17h-62q-13 0 -18 17q-4 18 -4 44q0 78 53.5 127t165.5 49t166.5 -48.5t54.5 -125.5q0 -43 -18.5 -85t-44 -73.5t-66 -65.5
t-71 -55t-72.5 -47h266q19 0 19 -19v-52q0 -19 -19 -19h-416q-18 0 -18 18z" />
    <glyph glyph-name="three.old" unicode="&#xe029;" horiz-adv-x="534" 
d="M157 304h70q64 0 101.5 25.5t37.5 77.5q0 45 -36.5 69.5t-106.5 24.5q-86 0 -156 -32q-16 -7 -23 11l-20 51q-5 14 12 21q82 40 199 40q106 0 170.5 -46t64.5 -128q0 -56 -28 -94.5t-76 -53.5q55 -16 91.5 -57.5t36.5 -107.5q0 -110 -71 -166t-200 -56q-113 0 -201 42
q-16 7 -12 21l20 56q6 18 24 11q100 -38 166 -38q168 0 168 130q0 54 -42.5 82.5t-115.5 28.5h-73q-21 0 -21 19v50q0 19 21 19z" />
    <glyph glyph-name="four.old" unicode="&#xe02a;" horiz-adv-x="617" 
d="M386 452l-254 -314h254v314zM400 583h72q20 0 20 -20v-425h94q20 0 20 -20v-50q0 -21 -20 -21h-94v-137q0 -20 -20 -20h-67q-20 0 -20 20v137h-339q-20 0 -20 21v51q0 15 8 25l343 425q11 14 23 14z" />
    <glyph glyph-name="five.old" unicode="&#xe02b;" horiz-adv-x="572" 
d="M463 492h-292q-4 -96 -13 -185q61 24 127 24q121 0 179.5 -57t58.5 -161q0 -114 -68 -172t-193 -58q-131 0 -211 43q-17 8 -12 22l19 52q7 19 25 11q78 -38 172 -38q79 0 120 37t41 103t-33.5 99t-111.5 33q-49 0 -97 -14t-53 -14q-6 0 -17 4l-32 10q-12 5 -11 21
q18 163 20 309q0 22 23 22h359q20 0 20 -19v-52q0 -20 -20 -20z" />
    <glyph glyph-name="six.old" unicode="&#xe02c;" horiz-adv-x="586" 
d="M269 692q11 11 26 11h81q9 0 11.5 -6t-4.5 -13q-128 -113 -188 -243q42 37 121 37q108 0 168.5 -62.5t60.5 -179.5t-65.5 -180.5t-178.5 -63.5q-118 0 -184.5 64t-66.5 187q0 128 64.5 244t154.5 205zM154 236q0 -77 38 -115t106 -38q143 0 143 153q0 152 -144 152
q-67 0 -105 -38t-38 -114z" />
    <glyph glyph-name="seven.old" unicode="&#xe02d;" horiz-adv-x="538" 
d="M56 583h428q20 0 20 -19v-44q0 -12 -16 -32q-80 -112 -149.5 -279.5t-78.5 -297.5q-2 -20 -20 -20h-67q-20 0 -20 20q3 133 77 301t160 280h-334q-19 0 -19 20v52q0 19 19 19z" />
    <glyph glyph-name="eight.old" unicode="&#xe02e;" horiz-adv-x="618" 
d="M309 -8q-124 0 -195 53.5t-71 139.5q0 143 173 180q-71 20 -112.5 63t-41.5 106q0 82 65 130.5t182 48.5t182 -48.5t65 -130.5q0 -63 -41.5 -106t-112.5 -63q173 -38 173 -180q0 -86 -71 -139.5t-195 -53.5zM309 631q-69 0 -106.5 -26.5t-37.5 -71.5q0 -50 35.5 -79.5
t108.5 -48.5q73 19 108.5 48.5t35.5 79.5q0 45 -37.5 71.5t-106.5 26.5zM309 324q-160 -33 -160 -134q0 -50 43 -81.5t117 -31.5t117 32t43 82q0 100 -160 133z" />
    <glyph glyph-name="nine.old" unicode="&#xe02f;" horiz-adv-x="587" 
d="M322 -84q-14 -12 -25 -12h-81q-9 0 -11.5 6.5t4.5 12.5q120 102 181 217q-39 -34 -119 -34q-108 0 -168 62t-60 179t65.5 181t178.5 64q117 0 183.5 -64.5t66.5 -187.5q0 -228 -215 -424zM433 347q0 77 -38.5 115.5t-106.5 38.5q-67 0 -104.5 -38.5t-37.5 -115.5
q0 -152 143 -152q68 0 106 38t38 114z" />
    <glyph glyph-name="dollar.tab" unicode="&#xe030;" horiz-adv-x="643" 
d="M363 785v-72q45 -2 90.5 -12.5t68.5 -21.5q18 -7 12 -24l-20 -52q-6 -19 -25 -12q-64 27 -145 27q-72 0 -111.5 -25.5t-39.5 -67.5q0 -15 3.5 -27t14 -22.5l17.5 -17.5t27 -16.5l27.5 -13t34.5 -13.5t34 -13l48 -19t43.5 -19.5t42 -23.5t32.5 -26.5t27.5 -33.5t15.5 -41
t7 -51q0 -85 -54 -131.5t-146 -59.5v-78q0 -19 -18 -19h-38q-19 0 -19 19v73q-122 1 -202 37q-20 8 -14 23l19 54q8 18 26 11q85 -30 164 -30q173 0 173 101q0 12 -2.5 22.5t-8.5 20t-11.5 16.5t-17.5 14.5l-19 12t-24 11.5l-24.5 10t-28 10.5l-28.5 10.5q-33 13 -46 17.5
t-41.5 17.5t-41 22.5t-32 26.5t-28 34t-15.5 41.5t-7 52.5q0 77 53.5 125.5t151.5 57.5v74q0 18 19 18h38q18 0 18 -18z" />
    <glyph glyph-name="cent.tab" unicode="&#xe031;" horiz-adv-x="643" 
d="M106 261q0 118 61.5 189t164.5 82v71q0 19 19 19h37q19 0 19 -19v-71q72 -5 119 -32q16 -10 11 -23l-20 -45q-8 -19 -25 -11q-46 23 -110 23q-80 0 -124.5 -46t-44.5 -137q0 -182 169 -182q63 0 115 25q17 9 26 -10l19 -45q5 -15 -11 -24q-45 -27 -124 -33v-73
q0 -19 -19 -19h-37q-19 0 -19 19v73q-105 12 -165.5 81t-60.5 188z" />
    <glyph glyph-name="sterling.tab" unicode="&#xe032;" horiz-adv-x="643" 
d="M160 319h-103q-17 0 -17 17v34q0 16 17 16h73q-43 74 -43 124q0 87 66 145.5t194 58.5q120 0 181 -50t61 -133q0 -45 -20 -45h-59q-10 0 -14.5 4t-3.5 12q0 5 1 13.5t1 14.5q0 40 -37 66t-106 26q-76 0 -116.5 -34t-40.5 -84q0 -38 42 -118h201q17 0 17 -16v-34
q0 -17 -17 -17h-176q26 -45 26 -83q0 -45 -25.5 -83t-73.5 -61q38 11 87 11q35 0 89 -9.5t87 -9.5q48 0 65 21.5t20 66.5q2 19 21 19h48q22 0 22 -25q0 -86 -32.5 -129.5t-115.5 -43.5q-49 0 -117 13t-112 13q-85 0 -146 -26q-19 -7 -25 2l-35 53q-10 14 4 22
q140 81 140 168q0 34 -28 81z" />
    <glyph glyph-name="yen.tab" unicode="&#xe033;" horiz-adv-x="643" 
d="M376 170v-150q0 -20 -20 -20h-70q-20 0 -20 20v150h-184q-16 0 -16 16v33q0 16 16 16h184v23l-36 60h-148q-16 0 -16 16v33q0 16 16 16h115l-174 296q-6 9 -2 16.5t16 7.5h75q17 0 27 -18l181 -328h3l181 328q10 18 27 18h74q12 0 16 -7.5t-2 -16.5l-174 -296h115
q17 0 17 -16v-33q0 -16 -17 -16h-148l-36 -60v-23h184q17 0 17 -16v-33q0 -16 -17 -16h-184z" />
    <glyph glyph-name="Euro.tab" unicode="&#xe034;" horiz-adv-x="643" 
d="M38 310h62q-2 26 -2 42q0 25 2 41h-62q-17 0 -17 16v35q0 16 17 16h69q23 109 106.5 181.5t213.5 72.5q100 0 181 -44q17 -8 10 -23l-24 -52q-9 -19 -26 -11q-68 31 -129 31q-88 0 -144 -45t-75 -110h263q19 0 12 -18l-12 -33q-5 -16 -23 -16h-249q-1 -13 -1 -41
q0 -30 1 -42h203q18 0 11 -18l-11 -33q-5 -16 -23 -16h-170q19 -65 74.5 -110t145.5 -45q62 0 130 32q18 8 27 -12l24 -52q6 -13 -10 -22q-72 -44 -183 -44q-132 0 -215.5 72t-107.5 181h-68q-17 0 -17 17v34q0 16 17 16z" />
    <glyph glyph-name="zero.tab" unicode="&#xe035;" horiz-adv-x="643" 
d="M321 714q135 0 208.5 -92.5t73.5 -268.5t-73.5 -269t-208.5 -93t-209 93t-74 268t74 268.5t209 93.5zM321 87q173 0 173 265t-173 265q-172 0 -172 -265t172 -265z" />
    <glyph glyph-name="one.tab" unicode="&#xe036;" horiz-adv-x="643" 
d="M330 20v562l-137 -94q-13 -9 -23 3l-37 44q-9 12 3 21l185 139q11 8 27 8h71q20 0 20 -20v-663q0 -20 -20 -20h-68q-21 0 -21 20z" />
    <glyph glyph-name="two.tab" unicode="&#xe037;" horiz-adv-x="643" 
d="M178 514q0 -13 2.5 -31t2.5 -24q0 -16 -18 -16h-62q-14 0 -20 20q-6 26 -6 55q0 85 60.5 140.5t179.5 55.5q131 0 191 -59.5t60 -157.5q0 -60 -31.5 -122t-84 -115t-103 -93t-105.5 -74h311q20 0 20 -20v-53q0 -20 -20 -20h-461q-20 0 -20 20v43q0 15 15 26l97.5 66
t95 72.5t92 84.5t59.5 85.5t26 92.5q0 131 -142 131q-74 0 -106.5 -30.5t-32.5 -76.5z" />
    <glyph glyph-name="three.tab" unicode="&#xe038;" horiz-adv-x="643" 
d="M233 409h73q133 0 133 109q0 51 -36.5 77.5t-100.5 26.5q-91 0 -175 -35q-17 -7 -24 11l-19 51q-6 15 12 23q98 42 212 42q106 0 172 -47t66 -135q0 -121 -105 -157q124 -35 124 -169q0 -107 -68 -161t-195 -54q-121 0 -214 42q-17 8 -12 21l19 54q7 18 25 11
q86 -35 176 -35q160 0 160 124q0 113 -147 113h-76q-20 0 -20 18v51q0 19 20 19z" />
    <glyph glyph-name="four.tab" unicode="&#xe039;" horiz-adv-x="643" 
d="M497 0h-68q-19 0 -19 20v132h-355q-20 0 -20 20v52q0 14 8 25l359 441q10 13 24 13h71q20 0 20 -20v-440h96q20 0 20 -21v-50q0 -20 -20 -20h-96v-132q0 -20 -20 -20zM410 569l-269 -326h269v326z" />
    <glyph glyph-name="five.tab" unicode="&#xe03a;" horiz-adv-x="643" 
d="M573 223q0 -113 -70.5 -172.5t-199.5 -59.5q-138 0 -220 43q-18 9 -12 25l20 51q7 18 25 11q86 -37 180 -37q168 0 168 139q0 66 -36 98t-118 32q-52 0 -100.5 -14t-53.5 -14q-6 0 -17 4l-32 10q-14 3 -11 20q20 184 20 323q0 21 22 21h374q20 0 20 -20v-53
q0 -19 -20 -19h-305q-4 -91 -14 -195q58 23 134 23q124 0 185 -56.5t61 -159.5z" />
    <glyph glyph-name="six.tab" unicode="&#xe03b;" horiz-adv-x="643" 
d="M483 600q-67 23 -115 23q-101 0 -152.5 -68.5t-53.5 -189.5q20 46 70 78.5t127 32.5q117 0 176.5 -64.5t59.5 -167.5q0 -113 -68 -183t-185 -70q-139 0 -212 91.5t-73 242.5q0 180 75.5 284.5t227.5 104.5q83 0 149 -27q18 -8 14 -21l-16 -53q-6 -19 -24 -13zM340 84
q72 0 112 44t40 116q0 64 -37.5 105.5t-113.5 41.5q-77 0 -119 -44.5t-42 -108.5q0 -58 43 -106t117 -48z" />
    <glyph glyph-name="seven.tab" unicode="&#xe03c;" horiz-adv-x="643" 
d="M190 19q12 143 87.5 314.5t159.5 277.5h-345q-20 0 -20 19v53q0 20 20 20h442q20 0 20 -20v-47q0 -11 -15 -31q-93 -134 -162.5 -291t-74.5 -295q0 -19 -21 -19h-71q-10 0 -15.5 5t-4.5 14z" />
    <glyph glyph-name="eight.tab" unicode="&#xe03d;" horiz-adv-x="643" 
d="M321 -10q-126 0 -195.5 53.5t-69.5 140.5q0 142 171 181q-69 20 -110.5 63t-41.5 106q0 84 63.5 132t182.5 48q120 0 183.5 -48t63.5 -132q0 -62 -42 -105.5t-111 -63.5q171 -38 171 -181q0 -87 -69.5 -140.5t-195.5 -53.5zM321 630q-71 0 -106 -26t-35 -72q0 -49 35 -79
t106 -49q71 19 106.5 49t35.5 79q0 46 -35.5 72t-106.5 26zM321 325q-158 -34 -158 -134q0 -51 41.5 -82.5t116.5 -31.5q76 0 117.5 31.5t41.5 82.5q0 100 -159 134z" />
    <glyph glyph-name="nine.tab" unicode="&#xe03e;" horiz-adv-x="643" 
d="M163 103q71 -23 114 -23q99 0 151 65.5t55 184.5q-18 -40 -69 -71.5t-131 -31.5q-117 0 -176.5 65t-59.5 167q0 114 67.5 184t185.5 70q139 0 211.5 -91.5t72.5 -243.5q0 -181 -73.5 -284.5t-225.5 -103.5q-88 0 -149 27q-18 7 -14 22l16 52q7 18 25 12zM302 620
q-72 0 -112 -44.5t-40 -115.5q0 -64 37.5 -106t113.5 -42q77 0 119 44.5t42 108.5q0 63 -42 109t-118 46z" />
    <glyph glyph-name="dollar.tabold" unicode="&#xe03f;" horiz-adv-x="643" 
d="M360 653v-61q85 -4 141 -29q19 -9 14 -23l-17 -46q-7 -19 -27 -12q-61 23 -129 23q-129 0 -129 -69q0 -8 2 -15.5t5 -13.5t10 -12t11.5 -10.5t15 -10l16.5 -8.5t19.5 -8l20 -7.5t22 -8t22.5 -8.5q42 -16 69 -29.5t56.5 -35t44 -51.5t14.5 -68q0 -65 -47 -106t-134 -49
v-61q0 -18 -18 -18h-35q-18 0 -18 18v58q-107 3 -178 31q-21 8 -15 22l19 50q7 19 25 12q65 -27 159 -27q135 0 135 71q0 25 -18 43.5t-40.5 29t-61.5 25.5l-9 3q-102 38 -131 57q-67 45 -68 130q0 61 46 102.5t137 50.5v61q0 18 18 18h35q18 0 18 -18z" />
    <glyph glyph-name="cent.tabold" unicode="&#xe040;" horiz-adv-x="643" 
d="M116 291q0 269 233 298v64q0 18 18 18h35q19 0 19 -18v-63q64 -4 118 -31q18 -9 12 -24l-20 -47q-8 -19 -27 -10q-51 22 -102 22q-180 0 -180 -209q0 -208 181 -208q54 0 106 24q19 8 26 -10l20 -47q5 -11 -13 -23q-47 -28 -121 -34v-58q0 -18 -19 -18h-35q-18 0 -18 18
v59q-233 24 -233 297z" />
    <glyph glyph-name="sterling.tabold" unicode="&#xe041;" horiz-adv-x="643" 
d="M170 261h-76q-17 0 -17 16v30q0 16 17 16h47q-32 47 -32 96q0 73 59.5 123t169.5 50q112 0 167 -44t55 -118q0 -41 -18 -41h-59q-16 0 -16 15q0 2 0.5 9t0.5 14q0 36 -31 56.5t-91 20.5q-65 0 -98 -28t-33 -70q0 -33 29 -83h159q18 0 18 -16v-30q0 -16 -18 -16h-133
q11 -27 11 -61q0 -76 -63 -116q32 9 74 9q22 0 69 -7.5t73 -7.5q40 0 55.5 17.5t15.5 52.5q0 17 19 17h47q21 0 21 -22q0 -76 -27 -114.5t-97 -38.5q-36 0 -101 10t-98 10q-73 0 -133 -21q-17 -7 -24 3l-31 49q-8 14 5 21q55 29 79 66t24 71q0 33 -19 62z" />
    <glyph glyph-name="yen.tabold" unicode="&#xe042;" horiz-adv-x="643" 
d="M517 129h-143v-110q0 -19 -19 -19h-66q-20 0 -20 19v110h-143q-17 0 -17 16v28q0 16 17 16h144v23l-29 47h-115q-17 0 -17 16v27q0 17 17 17h84l-148 242q-6 7 -2.5 15t15.5 8h66q18 0 26 -16l154 -270h2l154 270q9 16 25 16h67q12 0 15.5 -8t-2.5 -15l-149 -242h84
q17 0 17 -17v-27q0 -16 -17 -16h-116l-28 -47v-23h144q17 0 17 -16v-28q0 -16 -17 -16z" />
    <glyph glyph-name="Euro.tabold" unicode="&#xe043;" horiz-adv-x="643" 
d="M73 268h49q-1 8 -1 27q0 8 2 30h-50q-17 0 -17 16v28q0 15 17 15h55q20 94 90 150t184 56q96 0 158 -38q19 -10 12 -22l-23 -44q-11 -18 -27 -12q-61 25 -110 25q-139 0 -173 -115h211q19 0 12 -18l-9 -26q-5 -15 -23 -15h-201q-3 -17 -3 -30q0 -9 2 -27h164q18 0 12 -19
l-10 -26q-5 -14 -22 -14h-134q14 -56 57 -91t117 -35q47 0 111 25q17 7 27 -11l23 -44q6 -13 -11 -23q-60 -38 -160 -38q-115 0 -185 60t-90 157h-54q-17 0 -17 16v27q0 16 17 16z" />
    <glyph glyph-name="zero.tabold" unicode="&#xe044;" horiz-adv-x="643" 
d="M321 589q118 0 183.5 -76.5t65.5 -222.5q0 -144 -65.5 -220.5t-182.5 -76.5t-183 77t-66 221q0 145 65.5 221.5t182.5 76.5zM321 85q142 0 142 205q0 207 -142 207q-141 0 -141 -206t141 -206z" />
    <glyph glyph-name="one.tabold" unicode="&#xe045;" horiz-adv-x="643" 
d="M530 0h-366q-19 0 -19 19v53q0 19 19 19h139v380l-110 -73q-14 -8 -25 3l-33 38q-9 13 2 22l159 118q10 7 24 7h68q19 0 19 -19v-476h123q19 0 19 -19v-53q0 -19 -19 -19z" />
    <glyph glyph-name="two.tabold" unicode="&#xe046;" horiz-adv-x="643" 
d="M94 18v46q0 13 15 22q147 92 202 137q117 98 118 185q0 39 -28.5 66t-89.5 27q-64 0 -91 -25.5t-26 -62.5q0 -13 1.5 -26.5t1.5 -16.5q0 -17 -19 -17h-62q-13 0 -18 17q-4 18 -4 44q0 78 53.5 127t165.5 49t166.5 -48.5t54.5 -125.5q0 -43 -18.5 -85t-44 -73.5t-66 -65.5
t-71 -55t-72.5 -47h266q19 0 19 -19v-52q0 -19 -19 -19h-416q-18 0 -18 18z" />
    <glyph glyph-name="three.tabold" unicode="&#xe047;" horiz-adv-x="643" 
d="M207 304h70q64 0 101.5 25.5t37.5 77.5q0 45 -36.5 69.5t-106.5 24.5q-86 0 -156 -32q-17 -7 -23 11l-20 51q-5 14 12 21q82 40 199 40q106 0 170.5 -46t64.5 -128q0 -56 -28 -94.5t-76 -53.5q55 -16 91.5 -57.5t36.5 -107.5q0 -110 -71 -166t-200 -56q-113 0 -201 42
q-16 7 -12 21l20 56q6 18 24 11q100 -38 166 -38q168 0 168 130q0 54 -42.5 82.5t-115.5 28.5h-73q-21 0 -21 19v50q0 19 21 19z" />
    <glyph glyph-name="four.tabold" unicode="&#xe048;" horiz-adv-x="643" 
d="M408 452l-254 -314h254v314zM422 583h72q20 0 20 -20v-425h94q20 0 20 -20v-50q0 -21 -20 -21h-94v-137q0 -20 -20 -20h-67q-20 0 -20 20v137h-339q-20 0 -20 21v51q0 15 8 25l343 425q11 14 23 14z" />
    <glyph glyph-name="five.tabold" unicode="&#xe049;" horiz-adv-x="643" 
d="M503 492h-292q-4 -96 -13 -185q61 24 127 24q121 0 179.5 -57t58.5 -161q0 -114 -68 -172t-193 -58q-131 0 -211 43q-17 8 -12 22l19 52q7 19 25 11q78 -38 172 -38q79 0 120 37t41 103t-33.5 99t-111.5 33q-49 0 -97 -14t-53 -14q-6 0 -17 4l-32 10q-12 5 -11 21
q18 163 20 309q0 22 23 22h359q20 0 20 -19v-52q0 -20 -20 -20z" />
    <glyph glyph-name="six.tabold" unicode="&#xe04a;" horiz-adv-x="643" 
d="M300 692q11 11 26 11h81q9 0 11.5 -6t-4.5 -13q-128 -113 -188 -243q42 37 121 37q108 0 168.5 -62.5t60.5 -179.5t-65.5 -180.5t-178.5 -63.5q-118 0 -184.5 64t-66.5 187q0 128 64.5 244t154.5 205zM185 236q0 -77 38 -115t106 -38q143 0 143 153q0 152 -144 152
q-68 0 -105.5 -38t-37.5 -114z" />
    <glyph glyph-name="seven.tabold" unicode="&#xe04b;" horiz-adv-x="643" 
d="M107 583h428q20 0 20 -19v-44q0 -12 -16 -32q-80 -112 -149.5 -279.5t-78.5 -297.5q-2 -20 -20 -20h-67q-20 0 -20 20q3 133 77 301t160 280h-334q-19 0 -19 20v52q0 19 19 19z" />
    <glyph glyph-name="eight.tabold" unicode="&#xe04c;" horiz-adv-x="643" 
d="M326 -8q-124 0 -195 53.5t-71 139.5q0 143 173 180q-71 20 -112.5 63t-41.5 106q0 82 65 130.5t182 48.5t182 -48.5t65 -130.5q0 -63 -41.5 -106t-112.5 -63q173 -38 173 -180q0 -86 -71 -139.5t-195 -53.5zM326 631q-69 0 -106.5 -26.5t-37.5 -71.5q0 -50 35.5 -79.5
t108.5 -48.5q73 19 108.5 48.5t35.5 79.5q0 45 -37.5 71.5t-106.5 26.5zM326 324q-160 -33 -160 -134q0 -50 43 -81.5t117 -31.5t117 32t43 82q0 100 -160 133z" />
    <glyph glyph-name="nine.tabold" unicode="&#xe04d;" horiz-adv-x="643" 
d="M346 -84q-14 -12 -25 -12h-81q-9 0 -11.5 6.5t4.5 12.5q120 102 181 217q-39 -34 -119 -34q-108 0 -168 62t-60 179t65.5 181t178.5 64q117 0 183.5 -64.5t66.5 -187.5q0 -228 -215 -424zM457 347q0 77 -38.5 115.5t-106.5 38.5q-67 0 -104.5 -38.5t-37.5 -115.5
q0 -152 143 -152q68 0 106 38t38 114z" />
    <glyph glyph-name="ampersand.alt" unicode="&#xe04e;" horiz-adv-x="714" 
d="M642 214h-72q-49 -223 -256 -223q-123 0 -193.5 70.5t-70.5 215.5q0 143 74 224.5t197 81.5q77 0 119 -35t42 -88q0 -38 -19 -62q47 37 83.5 87.5t49.5 103.5q4 15 18 12l62 -14q14 -3 10 -16q-103 -294 -529 -350q16 -143 157 -144q86 -1 130.5 53t54.5 149q2 17 20 17
h123q18 0 18 -18v-46q0 -10 -3.5 -14t-14.5 -4zM324 499q-79 0 -123.5 -56.5t-43.5 -151.5q108 16 178 51.5t70 91.5q0 30 -20.5 47.5t-60.5 17.5z" />
    <glyph glyph-name="at.cap" unicode="&#xe04f;" horiz-adv-x="931" 
d="M566 338l25 140q-37 14 -82 14q-82 0 -128.5 -48.5t-46.5 -127.5q0 -50 24.5 -77.5t74.5 -27.5q110 0 133 127zM675 85q12 4 15 -9l9 -32q2 -10 -8 -13q-96 -39 -224 -39q-406 0 -406 324q0 171 116.5 280t313.5 109q101 0 176.5 -24.5t118.5 -68t63.5 -96.5t20.5 -116
q0 -123 -56.5 -192.5t-167.5 -69.5h-59q-21 0 -21 14l2 63q-47 -79 -150 -79q-83 0 -129.5 45.5t-46.5 126.5q0 113 70.5 185.5t200.5 72.5q86 0 161 -34q13 -6 11 -17l-55 -315h24q81 0 116 51t35 150q0 109 -73 176t-242 67q-168 0 -265 -90t-97 -238q0 -136 81 -200.5
t258 -64.5q113 0 208 34z" />
    <glyph glyph-name="paragraph.cap" unicode="&#xe050;" horiz-adv-x="535" 
d="M505 637h-39q-30 0 -41.5 -11.5t-11.5 -41.5v-469q0 -121 -112 -121q-45 0 -64 8q-13 5 -12 19l3 33q1 13 17 12q5 0 19 -2t21 -2q47 0 47 62v142h-34q-111 0 -181 58t-70 161q0 104 67.5 161t181.5 57h209q19 0 19 -18v-30q0 -18 -19 -18z" />
    <glyph glyph-name="registered.cap" unicode="&#xe051;" horiz-adv-x="861" 
d="M117 351q0 -130 82 -216t231 -86q148 0 231 86.5t83 216.5q0 129 -83 216t-231 87q-149 0 -231 -87t-82 -217zM368 355h63q52 0 75.5 16t23.5 50q0 66 -95 66h-67v-132zM302 557h136q84 0 129 -35t45 -101q0 -99 -104 -124l98 -126q5 -5 2 -11.5t-10 -6.5h-57
q-12 0 -19 12l-92 121h-62v-117q0 -16 -16 -16h-50q-16 0 -16 16v372q0 16 16 16zM54 352q0 153 99.5 257.5t275.5 104.5q177 0 277 -104.5t100 -257.5t-100 -257.5t-277 -104.5q-176 0 -275.5 104.5t-99.5 257.5z" />
    <glyph glyph-name="questiondown.cap" unicode="&#xe052;" horiz-adv-x="532" 
d="M334 684v-87q0 -19 -20 -19h-81q-20 0 -20 19v87q0 19 20 19h82q19 0 19 -19zM223 480v-29q0 -24 -18 -47.5t-43.5 -46t-51 -48t-43.5 -63.5t-18 -83q0 -80 60 -127t174 -47q124 0 204 42q18 8 13 22l-20 53q-6 17 -25 10q-87 -34 -163 -34q-136 0 -136 91q0 33 17 64.5
t41 56.5l48 48.5t41 51.5t17 57v28q0 19 -19 19h-59q-19 0 -19 -18z" />
    <glyph glyph-name="exclamdown.cap" unicode="&#xe053;" horiz-adv-x="295" 
d="M87 597v87q0 19 18 19h84q18 0 18 -19v-87q0 -19 -19 -19h-82q-19 0 -19 19zM123 498h48q19 0 19 -19l20 -459q1 -20 -20 -20h-86q-21 0 -20 20l19 459q2 19 20 19z" />
    <glyph glyph-name="parenleft.cap" unicode="&#xe054;" horiz-adv-x="378" 
d="M85 352q0 173 149 348q10 12 23 12h50q10 0 12.5 -7t-2.5 -13q-56 -72 -92.5 -162.5t-36.5 -177.5q0 -164 129 -340q5 -7 2.5 -13.5t-12.5 -6.5h-50q-14 0 -23 11q-149 175 -149 349z" />
    <glyph glyph-name="parenright.cap" unicode="&#xe055;" horiz-adv-x="378" 
d="M294 352q0 -96 -43.5 -188.5t-105.5 -160.5q-9 -11 -24 -11h-50q-10 0 -12.5 6.5t2.5 13.5q130 194 130 340q0 163 -130 340q-5 6 -2.5 13t12.5 7h50q14 0 24 -12q62 -67 105.5 -159.5t43.5 -188.5z" />
    <glyph glyph-name="bracketleft.cap" unicode="&#xe056;" horiz-adv-x="378" 
d="M323 61v-42q0 -19 -20 -19h-176q-20 0 -20 19v666q0 18 20 18h176q20 0 20 -18v-42q0 -19 -20 -19h-98v-545h98q20 0 20 -18z" />
    <glyph glyph-name="bracketright.cap" unicode="&#xe057;" horiz-adv-x="378" 
d="M55 19v42q0 18 19 18h99v545h-98q-20 0 -20 19v42q0 18 20 18h176q20 0 20 -18v-666q0 -19 -20 -19h-176q-20 0 -20 19z" />
    <glyph glyph-name="braceleft.cap" unicode="&#xe058;" horiz-adv-x="378" 
d="M38 326v51q0 18 19 18h16q63 0 63 150q0 89 29.5 123.5t117.5 34.5h38q19 0 19 -18v-43q0 -19 -19 -19h-20q-45 0 -57.5 -21.5t-12.5 -71.5q0 -154 -79 -178q79 -26 79 -178q0 -50 12.5 -72t57.5 -22h20q19 0 19 -19v-42q0 -19 -19 -19h-39q-87 0 -116.5 34.5
t-29.5 124.5q0 150 -63 150h-16q-19 0 -19 17z" />
    <glyph glyph-name="braceright.cap" unicode="&#xe059;" horiz-adv-x="378" 
d="M340 377v-51q0 -17 -18 -17h-17q-62 0 -62 -150q0 -90 -29.5 -124.5t-117.5 -34.5h-38q-20 0 -20 19v42q0 19 20 19h19q45 0 57.5 22t12.5 72q0 152 80 178q-80 24 -80 178q0 50 -12.5 71.5t-57.5 21.5h-19q-20 0 -20 19v43q0 18 20 18h37q88 0 118 -34.5t30 -123.5
q0 -150 62 -150h17q18 0 18 -18z" />
    <glyph glyph-name="guillemotleft.cap" unicode="&#xe05a;" horiz-adv-x="453" 
d="M35 351q0 6 3 10l83 136q8 14 24 14h56q10 0 13 -6t-2 -14l-86 -140l86 -139q5 -8 2 -14t-13 -6h-56q-15 0 -24 14l-83 137q-3 6 -3 8zM221 351q0 4 3 10l83 136q8 14 24 14h56q22 0 10 -20l-85 -139l85 -140q5 -8 2.5 -14t-12.5 -6h-56q-15 0 -24 14l-83 137q-3 4 -3 8z
" />
    <glyph glyph-name="guillemotright.cap" unicode="&#xe05b;" horiz-adv-x="453" 
d="M418 351q0 -3 -3 -8l-83 -137q-9 -14 -24 -14h-57q-9 0 -12 6t2 14l86 139l-86 140q-5 9 -2 14.5t12 5.5h57q16 0 24 -14l83 -136q3 -6 3 -10zM232 351q0 -3 -3 -8l-83 -137q-9 -14 -23 -14h-57q-10 0 -13 6t2 14l86 139l-86 140q-5 9 -2 14.5t13 5.5h57q15 0 23 -14
l83 -136q3 -6 3 -10z" />
    <glyph glyph-name="guilsinglleft.cap" unicode="&#xe05c;" horiz-adv-x="267" 
d="M35 351q0 6 3 10l83 136q8 14 24 14h56q10 0 13 -6t-2 -14l-86 -140l86 -139q5 -8 2 -14t-13 -6h-56q-15 0 -24 14l-83 137q-3 6 -3 8z" />
    <glyph glyph-name="guilsinglright.cap" unicode="&#xe05d;" horiz-adv-x="267" 
d="M231 351q0 -5 -2 -8l-83 -137q-9 -14 -23 -14h-57q-10 0 -13 6t2 14l86 139l-86 140q-5 9 -2 14.5t13 5.5h57q15 0 23 -14l83 -136q2 -4 2 -10z" />
    <glyph glyph-name="hyphen.cap" unicode="&#xe05e;" horiz-adv-x="395" 
d="M334 308h-275q-18 0 -18 18v50q0 18 19 18h274q20 0 20 -18v-50q0 -18 -20 -18z" />
    <glyph glyph-name="endash.cap" unicode="&#xe05f;" horiz-adv-x="529" 
d="M468 308h-407q-18 0 -18 18v50q0 18 18 18h407q18 0 18 -18v-50q0 -18 -18 -18z" />
    <glyph glyph-name="emdash.cap" unicode="&#xe060;" horiz-adv-x="774" 
d="M712 308h-651q-18 0 -18 18v50q0 18 18 18h651q20 0 20 -18v-50q0 -18 -20 -18z" />
    <glyph glyph-name="periodcentered.cap" unicode="&#xe061;" horiz-adv-x="237" 
d="M61 310v85q0 19 20 19h75q20 0 20 -19v-85q0 -19 -19 -19h-77q-19 0 -19 19z" />
    <glyph glyph-name="bullet.cap" unicode="&#xe062;" horiz-adv-x="386" 
d="M192 212q-59 0 -98 40t-39 100t39.5 99.5t98.5 39.5t98.5 -39.5t39.5 -99.5t-39.5 -100t-99.5 -40z" />
    <glyph glyph-name="bar.cap" unicode="&#xe063;" horiz-adv-x="288" 
d="M191 749v-794q0 -19 -19 -19h-55q-20 0 -20 19v794q0 19 20 19h55q19 0 19 -19z" />
    <glyph glyph-name="brokenbar.cap" unicode="&#xe064;" horiz-adv-x="288" 
d="M191 749v-294q0 -19 -19 -19h-55q-20 0 -20 19v294q0 19 20 19h55q19 0 19 -19zM191 249v-294q0 -19 -19 -19h-55q-20 0 -20 19v294q0 19 20 19h55q19 0 19 -19z" />
    <glyph glyph-name="arrowleft.cap" unicode="&#xe065;" horiz-adv-x="655" 
d="M378 564l-180 -169l380 3q20 0 20 -18v-56q0 -18 -20 -18l-380 3l180 -169q6 -6 3.5 -13t-11.5 -7h-76q-12 0 -21 9l-209 208q-7 7 -7 15q0 7 7 14l209 208q10 10 21 10h76q9 0 11.5 -7.5t-3.5 -12.5z" />
    <glyph glyph-name="arrowup.cap" unicode="&#xe066;" horiz-adv-x="655" 
d="M543 319l-169 181l3 -381q0 -19 -18 -19h-56q-18 0 -18 19l3 381l-169 -181q-6 -6 -13 -4t-7 11v77q0 13 9 22l208 208q5 6 15 6q8 0 14 -6l209 -208q9 -9 9 -22v-77q0 -9 -7 -11t-13 4z" />
    <glyph glyph-name="arrowright.cap" unicode="&#xe067;" horiz-adv-x="655" 
d="M457 395l-180 169q-6 6 -4 13t11 7h76q12 0 22 -10l208 -208q6 -6 6 -14q0 -10 -6 -15l-208 -208q-9 -9 -22 -9h-76q-9 0 -11.5 7t4.5 13l180 169l-381 -3q-19 0 -19 18v56q0 18 19 18z" />
    <glyph glyph-name="arrowdown.cap" unicode="&#xe068;" horiz-adv-x="655" 
d="M119 384l169 -180l-3 380q0 20 18 20h56q18 0 18 -20l-3 -380l169 180q6 6 13 3.5t7 -11.5v-76q0 -14 -9 -21l-209 -209q-5 -6 -14 -6t-15 6l-208 209q-9 9 -9 21v76q0 9 7.5 11.5t12.5 -3.5z" />
    </font>
</defs>
</svg>
